<?xml version="1.0" encoding="UTF-8" standalone="no"?>
<!DOCTYPE svg PUBLIC "-//W3C//DTD SVG 1.1//EN"
 "http://www.w3.org/Graphics/SVG/1.1/DTD/svg11.dtd">
<!-- Generated by graphviz version 2.44.0 ()
 -->
<!-- Title: PlatformerGame::DynamicAnimationBehaviour Pages: 1 -->
<svg width="193pt" height="259pt"
 viewBox="0.00 0.00 193.00 259.00" xmlns="http://www.w3.org/2000/svg" xmlns:xlink="http://www.w3.org/1999/xlink">
<g id="graph0" class="graph" transform="scale(1 1) rotate(0) translate(4 255)">
<title>PlatformerGame::DynamicAnimationBehaviour</title>
<!-- Node1 -->
<g id="node1" class="node">
<title>Node1</title>
<g id="a_node1"><a xlink:title=" ">
<polygon fill="#bfbfbf" stroke="black" points="0,-0.5 0,-156.5 185,-156.5 185,-0.5 0,-0.5"/>
<text text-anchor="start" x="8" y="-144.5" font-family="Helvetica,sans-Serif" font-size="10.00">PlatformerGame::DynamicAnimation</text>
<text text-anchor="middle" x="92.5" y="-133.5" font-family="Helvetica,sans-Serif" font-size="10.00">Behaviour</text>
<polyline fill="none" stroke="black" points="0,-126.5 185,-126.5 "/>
<text text-anchor="middle" x="92.5" y="-114.5" font-family="Helvetica,sans-Serif" font-size="10.00"> </text>
<polyline fill="none" stroke="black" points="0,-107.5 185,-107.5 "/>
<text text-anchor="start" x="8" y="-95.5" font-family="Helvetica,sans-Serif" font-size="10.00">+ void serialize(archive</text>
<text text-anchor="start" x="8" y="-84.5" font-family="Helvetica,sans-Serif" font-size="10.00"> &amp;ar, const unsigned)</text>
<text text-anchor="start" x="8" y="-73.5" font-family="Helvetica,sans-Serif" font-size="10.00">+ DynamicAnimationBehaviour</text>
<text text-anchor="start" x="8" y="-62.5" font-family="Helvetica,sans-Serif" font-size="10.00">(platformer_engine::AnimatedSprite</text>
<text text-anchor="start" x="8" y="-51.5" font-family="Helvetica,sans-Serif" font-size="10.00"> idleSprite, platformer_engine</text>
<text text-anchor="start" x="8" y="-40.5" font-family="Helvetica,sans-Serif" font-size="10.00">::AnimatedSprite walkSprite, platformer</text>
<text text-anchor="start" x="8" y="-29.5" font-family="Helvetica,sans-Serif" font-size="10.00">_engine::AnimatedSprite jumpSprite)</text>
<text text-anchor="start" x="8" y="-18.5" font-family="Helvetica,sans-Serif" font-size="10.00">+ DynamicAnimationBehaviour()</text>
<text text-anchor="start" x="8" y="-7.5" font-family="Helvetica,sans-Serif" font-size="10.00">+ void OnUpdate() override</text>
</a>
</g>
</g>
<!-- Node2 -->
<g id="node2" class="node">
<title>Node2</title>
<g id="a_node2"><a xlink:title=" ">
<polygon fill="none" stroke="#bfbfbf" points="38.5,-193.5 38.5,-250.5 146.5,-250.5 146.5,-193.5 38.5,-193.5"/>
<text text-anchor="middle" x="92.5" y="-238.5" font-family="Helvetica,sans-Serif" font-size="10.00">spic::BehaviourScript</text>
<polyline fill="none" stroke="#bfbfbf" points="38.5,-231.5 146.5,-231.5 "/>
<text text-anchor="middle" x="92.5" y="-219.5" font-family="Helvetica,sans-Serif" font-size="10.00"> </text>
<polyline fill="none" stroke="#bfbfbf" points="38.5,-212.5 146.5,-212.5 "/>
<text text-anchor="middle" x="92.5" y="-200.5" font-family="Helvetica,sans-Serif" font-size="10.00"> </text>
</a>
</g>
</g>
<!-- Node2&#45;&gt;Node1 -->
<g id="edge1" class="edge">
<title>Node2&#45;&gt;Node1</title>
<path fill="none" stroke="midnightblue" d="M92.5,-183.34C92.5,-175.04 92.5,-165.96 92.5,-156.74"/>
<polygon fill="none" stroke="midnightblue" points="89,-183.38 92.5,-193.38 96,-183.38 89,-183.38"/>
</g>
</g>
</svg>
