<?xml version="1.0" encoding="UTF-8" standalone="no"?>
<!DOCTYPE svg PUBLIC "-//W3C//DTD SVG 1.1//EN"
 "http://www.w3.org/Graphics/SVG/1.1/DTD/svg11.dtd">
<!-- Generated by graphviz version 2.44.0 ()
 -->
<!-- Title: PlatformerGame::DynamicAnimationBehaviour Pages: 1 -->
<svg width="199pt" height="226pt"
 viewBox="0.00 0.00 199.00 226.00" xmlns="http://www.w3.org/2000/svg" xmlns:xlink="http://www.w3.org/1999/xlink">
<g id="graph0" class="graph" transform="scale(1 1) rotate(0) translate(4 222)">
<title>PlatformerGame::DynamicAnimationBehaviour</title>
<!-- Node1 -->
<g id="node1" class="node">
<title>Node1</title>
<g id="a_node1"><a xlink:title=" ">
<polygon fill="#bfbfbf" stroke="black" points="0,-0.5 0,-123.5 191,-123.5 191,-0.5 0,-0.5"/>
<text text-anchor="start" x="8" y="-111.5" font-family="Helvetica,sans-Serif" font-size="10.00">PlatformerGame::DynamicAnimation</text>
<text text-anchor="middle" x="95.5" y="-100.5" font-family="Helvetica,sans-Serif" font-size="10.00">Behaviour</text>
<polyline fill="none" stroke="black" points="0,-93.5 191,-93.5 "/>
<text text-anchor="middle" x="95.5" y="-81.5" font-family="Helvetica,sans-Serif" font-size="10.00"> </text>
<polyline fill="none" stroke="black" points="0,-74.5 191,-74.5 "/>
<text text-anchor="start" x="8" y="-62.5" font-family="Helvetica,sans-Serif" font-size="10.00">+ DynamicAnimationBehaviour</text>
<text text-anchor="start" x="8" y="-51.5" font-family="Helvetica,sans-Serif" font-size="10.00">(platformer_engine::AnimatedSprite</text>
<text text-anchor="start" x="8" y="-40.5" font-family="Helvetica,sans-Serif" font-size="10.00"> &amp;idleSprite, platformer_engine</text>
<text text-anchor="start" x="8" y="-29.5" font-family="Helvetica,sans-Serif" font-size="10.00">::AnimatedSprite &amp;walkSprite, platformer</text>
<text text-anchor="start" x="8" y="-18.5" font-family="Helvetica,sans-Serif" font-size="10.00">_engine::AnimatedSprite &amp;jumpSprite)</text>
<text text-anchor="start" x="8" y="-7.5" font-family="Helvetica,sans-Serif" font-size="10.00">+ void OnUpdate() override</text>
</a>
</g>
</g>
<!-- Node2 -->
<g id="node2" class="node">
<title>Node2</title>
<g id="a_node2"><a xlink:title=" ">
<polygon fill="none" stroke="#bfbfbf" points="41.5,-160.5 41.5,-217.5 149.5,-217.5 149.5,-160.5 41.5,-160.5"/>
<text text-anchor="middle" x="95.5" y="-205.5" font-family="Helvetica,sans-Serif" font-size="10.00">spic::BehaviourScript</text>
<polyline fill="none" stroke="#bfbfbf" points="41.5,-198.5 149.5,-198.5 "/>
<text text-anchor="middle" x="95.5" y="-186.5" font-family="Helvetica,sans-Serif" font-size="10.00"> </text>
<polyline fill="none" stroke="#bfbfbf" points="41.5,-179.5 149.5,-179.5 "/>
<text text-anchor="middle" x="95.5" y="-167.5" font-family="Helvetica,sans-Serif" font-size="10.00"> </text>
</a>
</g>
</g>
<!-- Node2&#45;&gt;Node1 -->
<g id="edge1" class="edge">
<title>Node2&#45;&gt;Node1</title>
<path fill="none" stroke="midnightblue" d="M95.5,-150.1C95.5,-141.74 95.5,-132.68 95.5,-123.67"/>
<polygon fill="none" stroke="midnightblue" points="92,-150.26 95.5,-160.26 99,-150.26 92,-150.26"/>
</g>
</g>
</svg>
