<svg xmlns="http://www.w3.org/2000/svg" xmlns:xlink="http://www.w3.org/1999/xlink" width="216" height="272" viewBox="0 0 162 204"><g id="graph0" class="graph" transform="scale(1 1) rotate(0) translate(4 200)"><title>PlatformerGame::StarBehaviour</title><g id="node1" class="node"><title>Node1</title><g id="a_node1"><a><polygon fill="#bfbfbf" stroke="#000" points="0 -.5 0 -101.5 154 -101.5 154 -.5 0 -.5"/><text x="77" y="-89.5" font-family="Helvetica,sans-Serif" font-size="10" text-anchor="middle">PlatformerGame::StarBehaviour</text><polyline fill="none" stroke="#000" points="0 -82.5 154 -82.5"/><polyline fill="none" stroke="#000" points="0 -63.5 154 -63.5"/><text x="8" y="-51.5" font-family="Helvetica,sans-Serif" font-size="10" text-anchor="start">+ void serialize(archive</text><text x="8" y="-40.5" font-family="Helvetica,sans-Serif" font-size="10" text-anchor="start">&amp;ar, const unsigned)</text><text x="8" y="-29.5" font-family="Helvetica,sans-Serif" font-size="10" text-anchor="start">+ void OnTriggerEnter2D</text><text x="8" y="-18.5" font-family="Helvetica,sans-Serif" font-size="10" text-anchor="start">(Collision collision)</text><text x="8" y="-7.5" font-family="Helvetica,sans-Serif" font-size="10" text-anchor="start">override</text></a></g></g><g id="node2" class="node"><title>Node2</title><g id="a_node2"><a><polygon fill="none" stroke="#bfbfbf" points="23 -138.5 23 -195.5 131 -195.5 131 -138.5 23 -138.5"/><text x="77" y="-183.5" font-family="Helvetica,sans-Serif" font-size="10" text-anchor="middle">spic::BehaviourScript</text><polyline fill="none" stroke="#bfbfbf" points="23 -176.5 131 -176.5"/><polyline fill="none" stroke="#bfbfbf" points="23 -157.5 131 -157.5"/></a></g></g><g id="edge1" class="edge"><title>Node2-&gt;Node1</title><path fill="none" stroke="#191970" d="M77,-128.35C77,-119.8 77,-110.58 77,-101.61"/><polygon fill="none" stroke="#191970" points="73.5 -128.4 77 -138.4 80.5 -128.4 73.5 -128.4"/></g></g></svg>