<?xml version="1.0" encoding="UTF-8" standalone="no"?>
<!DOCTYPE svg PUBLIC "-//W3C//DTD SVG 1.1//EN"
 "http://www.w3.org/Graphics/SVG/1.1/DTD/svg11.dtd">
<!-- Generated by graphviz version 2.44.0 ()
 -->
<!-- Title: src/UI/CoinCounter.hpp Pages: 1 -->
<svg width="605pt" height="207pt"
 viewBox="0.00 0.00 605.00 207.00" xmlns="http://www.w3.org/2000/svg" xmlns:xlink="http://www.w3.org/1999/xlink">
<g id="graph0" class="graph" transform="scale(1 1) rotate(0) translate(4 203)">
<title>src/UI/CoinCounter.hpp</title>
<!-- Node1 -->
<g id="node1" class="node">
<title>Node1</title>
<g id="a_node1"><a xlink:title=" ">
<polygon fill="#bfbfbf" stroke="black" points="221.5,-179.5 221.5,-198.5 339.5,-198.5 339.5,-179.5 221.5,-179.5"/>
<text text-anchor="middle" x="280.5" y="-186.5" font-family="Helvetica,sans-Serif" font-size="10.00">src/UI/CoinCounter.hpp</text>
</a>
</g>
</g>
<!-- Node2 -->
<g id="node2" class="node">
<title>Node2</title>
<g id="a_node2"><a xlink:href="CoinBehaviour_8hpp.html" target="_top" xlink:title=" ">
<polygon fill="none" stroke="black" points="104.5,-123.5 104.5,-142.5 252.5,-142.5 252.5,-123.5 104.5,-123.5"/>
<text text-anchor="middle" x="178.5" y="-130.5" font-family="Helvetica,sans-Serif" font-size="10.00">src/Scripts/CoinBehaviour.hpp</text>
</a>
</g>
</g>
<!-- Node1&#45;&gt;Node2 -->
<g id="edge1" class="edge">
<title>Node1&#45;&gt;Node2</title>
<path fill="none" stroke="midnightblue" d="M255.17,-174.59C236.31,-164.61 211.12,-151.27 194.85,-142.65"/>
<polygon fill="midnightblue" stroke="midnightblue" points="253.64,-177.74 264.11,-179.32 256.91,-171.55 253.64,-177.74"/>
</g>
<!-- Node4 -->
<g id="node4" class="node">
<title>Node4</title>
<g id="a_node4"><a xlink:href="TileConfig_8hpp.html" target="_top" xlink:title=" ">
<polygon fill="none" stroke="black" points="233.5,-67.5 233.5,-86.5 327.5,-86.5 327.5,-67.5 233.5,-67.5"/>
<text text-anchor="middle" x="280.5" y="-74.5" font-family="Helvetica,sans-Serif" font-size="10.00">src/TileConfig.hpp</text>
</a>
</g>
</g>
<!-- Node1&#45;&gt;Node4 -->
<g id="edge8" class="edge">
<title>Node1&#45;&gt;Node4</title>
<path fill="none" stroke="midnightblue" d="M280.5,-169.35C280.5,-145.25 280.5,-104.31 280.5,-86.59"/>
<polygon fill="midnightblue" stroke="midnightblue" points="277,-169.37 280.5,-179.37 284,-169.37 277,-169.37"/>
</g>
<!-- Node9 -->
<g id="node9" class="node">
<title>Node9</title>
<g id="a_node9"><a xlink:href="CoinCounter_8cpp.html" target="_top" xlink:title=" ">
<polygon fill="none" stroke="black" points="308.5,-123.5 308.5,-142.5 426.5,-142.5 426.5,-123.5 308.5,-123.5"/>
<text text-anchor="middle" x="367.5" y="-130.5" font-family="Helvetica,sans-Serif" font-size="10.00">src/UI/CoinCounter.cpp</text>
</a>
</g>
</g>
<!-- Node1&#45;&gt;Node9 -->
<g id="edge9" class="edge">
<title>Node1&#45;&gt;Node9</title>
<path fill="none" stroke="midnightblue" d="M303.22,-173.9C319.17,-164 340,-151.07 353.56,-142.65"/>
<polygon fill="midnightblue" stroke="midnightblue" points="301.13,-171.08 294.48,-179.32 304.82,-177.02 301.13,-171.08"/>
</g>
<!-- Node3 -->
<g id="node3" class="node">
<title>Node3</title>
<g id="a_node3"><a xlink:href="CoinBehaviour_8cpp.html" target="_top" xlink:title=" ">
<polygon fill="none" stroke="black" points="67.5,-67.5 67.5,-86.5 215.5,-86.5 215.5,-67.5 67.5,-67.5"/>
<text text-anchor="middle" x="141.5" y="-74.5" font-family="Helvetica,sans-Serif" font-size="10.00">src/Scripts/CoinBehaviour.cpp</text>
</a>
</g>
</g>
<!-- Node2&#45;&gt;Node3 -->
<g id="edge2" class="edge">
<title>Node2&#45;&gt;Node3</title>
<path fill="none" stroke="midnightblue" d="M166.55,-114.57C160.19,-105.27 152.63,-94.25 147.5,-86.75"/>
<polygon fill="midnightblue" stroke="midnightblue" points="163.85,-116.81 172.39,-123.08 169.63,-112.86 163.85,-116.81"/>
</g>
<!-- Node2&#45;&gt;Node4 -->
<g id="edge3" class="edge">
<title>Node2&#45;&gt;Node4</title>
<path fill="none" stroke="midnightblue" d="M203.83,-118.59C222.69,-108.61 247.88,-95.27 264.15,-86.65"/>
<polygon fill="midnightblue" stroke="midnightblue" points="202.09,-115.55 194.89,-123.32 205.36,-121.74 202.09,-115.55"/>
</g>
<!-- Node5 -->
<g id="node5" class="node">
<title>Node5</title>
<g id="a_node5"><a xlink:href="Game_8cpp.html" target="_top" xlink:title=" ">
<polygon fill="none" stroke="black" points="0,-6 0,-25 107,-25 107,-6 0,-6"/>
<text text-anchor="middle" x="53.5" y="-13" font-family="Helvetica,sans-Serif" font-size="10.00">src/Game/Game.cpp</text>
</a>
</g>
</g>
<!-- Node4&#45;&gt;Node5 -->
<g id="edge4" class="edge">
<title>Node4&#45;&gt;Node5</title>
<path fill="none" stroke="midnightblue" d="M238.14,-64.9C194.05,-53.34 125.97,-35.5 85.96,-25.01"/>
<polygon fill="midnightblue" stroke="midnightblue" points="237.42,-68.33 247.98,-67.48 239.19,-61.55 237.42,-68.33"/>
</g>
<!-- Node6 -->
<g id="node6" class="node">
<title>Node6</title>
<g id="a_node6"><a xlink:href="Level1_8cpp.html" target="_top" xlink:title=" ">
<polygon fill="none" stroke="black" points="125.5,-6 125.5,-25 267.5,-25 267.5,-6 125.5,-6"/>
<text text-anchor="middle" x="196.5" y="-13" font-family="Helvetica,sans-Serif" font-size="10.00">src/Game/Levels/Level1.cpp</text>
</a>
</g>
</g>
<!-- Node4&#45;&gt;Node6 -->
<g id="edge5" class="edge">
<title>Node4&#45;&gt;Node6</title>
<path fill="none" stroke="midnightblue" d="M260.19,-61.61C244.03,-50.17 221.98,-34.55 208.51,-25.01"/>
<polygon fill="midnightblue" stroke="midnightblue" points="258.28,-64.55 268.46,-67.48 262.33,-58.84 258.28,-64.55"/>
</g>
<!-- Node7 -->
<g id="node7" class="node">
<title>Node7</title>
<g id="a_node7"><a xlink:href="MainMenu_8cpp.html" target="_top" xlink:title=" ">
<polygon fill="none" stroke="black" points="285.5,-6 285.5,-25 443.5,-25 443.5,-6 285.5,-6"/>
<text text-anchor="middle" x="364.5" y="-13" font-family="Helvetica,sans-Serif" font-size="10.00">src/Game/Levels/MainMenu.cpp</text>
</a>
</g>
</g>
<!-- Node4&#45;&gt;Node7 -->
<g id="edge6" class="edge">
<title>Node4&#45;&gt;Node7</title>
<path fill="none" stroke="midnightblue" d="M300.81,-61.61C316.97,-50.17 339.02,-34.55 352.49,-25.01"/>
<polygon fill="midnightblue" stroke="midnightblue" points="298.67,-58.84 292.54,-67.48 302.72,-64.55 298.67,-58.84"/>
</g>
<!-- Node8 -->
<g id="node8" class="node">
<title>Node8</title>
<g id="a_node8"><a xlink:href="NetworkingClient_8cpp.html" target="_top" xlink:title=" ">
<polygon fill="none" stroke="black" points="462,-0.5 462,-30.5 597,-30.5 597,-0.5 462,-0.5"/>
<text text-anchor="start" x="470" y="-18.5" font-family="Helvetica,sans-Serif" font-size="10.00">src/Networking/Networking</text>
<text text-anchor="middle" x="529.5" y="-7.5" font-family="Helvetica,sans-Serif" font-size="10.00">Client.cpp</text>
</a>
</g>
</g>
<!-- Node4&#45;&gt;Node8 -->
<g id="edge7" class="edge">
<title>Node4&#45;&gt;Node8</title>
<path fill="none" stroke="midnightblue" d="M326.09,-65.11C366.77,-55.39 426.57,-41.1 470.82,-30.52"/>
<polygon fill="midnightblue" stroke="midnightblue" points="325.09,-61.75 316.18,-67.48 326.72,-68.56 325.09,-61.75"/>
</g>
</g>
</svg>
