<?xml version="1.0" encoding="UTF-8" standalone="no"?>
<!DOCTYPE svg PUBLIC "-//W3C//DTD SVG 1.1//EN"
 "http://www.w3.org/Graphics/SVG/1.1/DTD/svg11.dtd">
<!-- Generated by graphviz version 2.44.0 ()
 -->
<!-- Title: src/UI/CoinCounter.hpp Pages: 1 -->
<svg width="766pt" height="207pt"
 viewBox="0.00 0.00 766.00 207.00" xmlns="http://www.w3.org/2000/svg" xmlns:xlink="http://www.w3.org/1999/xlink">
<g id="graph0" class="graph" transform="scale(1 1) rotate(0) translate(4 203)">
<title>src/UI/CoinCounter.hpp</title>
<!-- Node1 -->
<g id="node1" class="node">
<title>Node1</title>
<g id="a_node1"><a xlink:title=" ">
<polygon fill="#bfbfbf" stroke="black" points="210,-179.5 210,-198.5 328,-198.5 328,-179.5 210,-179.5"/>
<text text-anchor="middle" x="269" y="-186.5" font-family="Helvetica,sans-Serif" font-size="10.00">src/UI/CoinCounter.hpp</text>
</a>
</g>
</g>
<!-- Node2 -->
<g id="node2" class="node">
<title>Node2</title>
<g id="a_node2"><a xlink:href="Level1_8hpp.html" target="_top" xlink:title=" ">
<polygon fill="none" stroke="black" points="0,-67.5 0,-86.5 142,-86.5 142,-67.5 0,-67.5"/>
<text text-anchor="middle" x="71" y="-74.5" font-family="Helvetica,sans-Serif" font-size="10.00">src/Game/Levels/Level1.hpp</text>
</a>
</g>
</g>
<!-- Node1&#45;&gt;Node2 -->
<g id="edge1" class="edge">
<title>Node1&#45;&gt;Node2</title>
<path fill="none" stroke="midnightblue" d="M244.6,-174.45C203.3,-151.5 120.74,-105.63 86.46,-86.59"/>
<polygon fill="midnightblue" stroke="midnightblue" points="243.02,-177.57 253.46,-179.37 246.42,-171.45 243.02,-177.57"/>
</g>
<!-- Node5 -->
<g id="node5" class="node">
<title>Node5</title>
<g id="a_node5"><a xlink:href="Level2_8hpp.html" target="_top" xlink:title=" ">
<polygon fill="none" stroke="black" points="160,-67.5 160,-86.5 302,-86.5 302,-67.5 160,-67.5"/>
<text text-anchor="middle" x="231" y="-74.5" font-family="Helvetica,sans-Serif" font-size="10.00">src/Game/Levels/Level2.hpp</text>
</a>
</g>
</g>
<!-- Node1&#45;&gt;Node5 -->
<g id="edge4" class="edge">
<title>Node1&#45;&gt;Node5</title>
<path fill="none" stroke="midnightblue" d="M262.67,-169.67C254.36,-145.62 240.12,-104.39 233.97,-86.59"/>
<polygon fill="midnightblue" stroke="midnightblue" points="259.44,-171.06 266.02,-179.37 266.06,-168.77 259.44,-171.06"/>
</g>
<!-- Node7 -->
<g id="node7" class="node">
<title>Node7</title>
<g id="a_node7"><a xlink:href="CoinBehaviour_8hpp.html" target="_top" xlink:title=" ">
<polygon fill="none" stroke="black" points="297,-123.5 297,-142.5 445,-142.5 445,-123.5 297,-123.5"/>
<text text-anchor="middle" x="371" y="-130.5" font-family="Helvetica,sans-Serif" font-size="10.00">src/Scripts/CoinBehaviour.hpp</text>
</a>
</g>
</g>
<!-- Node1&#45;&gt;Node7 -->
<g id="edge7" class="edge">
<title>Node1&#45;&gt;Node7</title>
<path fill="none" stroke="midnightblue" d="M294.33,-174.59C313.19,-164.61 338.38,-151.27 354.65,-142.65"/>
<polygon fill="midnightblue" stroke="midnightblue" points="292.59,-171.55 285.39,-179.32 295.86,-177.74 292.59,-171.55"/>
</g>
<!-- Node9 -->
<g id="node9" class="node">
<title>Node9</title>
<g id="a_node9"><a xlink:href="TileConfig_8hpp.html" target="_top" xlink:title=" ">
<polygon fill="none" stroke="black" points="320,-67.5 320,-86.5 414,-86.5 414,-67.5 320,-67.5"/>
<text text-anchor="middle" x="367" y="-74.5" font-family="Helvetica,sans-Serif" font-size="10.00">src/TileConfig.hpp</text>
</a>
</g>
</g>
<!-- Node1&#45;&gt;Node9 -->
<g id="edge15" class="edge">
<title>Node1&#45;&gt;Node9</title>
<path fill="none" stroke="midnightblue" d="M270.65,-169.54C272.73,-155.5 277.42,-136.39 288,-123 301.8,-105.54 324.36,-93.66 341.85,-86.51"/>
<polygon fill="midnightblue" stroke="midnightblue" points="267.17,-169.16 269.48,-179.5 274.12,-169.97 267.17,-169.16"/>
</g>
<!-- Node12 -->
<g id="node12" class="node">
<title>Node12</title>
<g id="a_node12"><a xlink:href="CoinCounter_8cpp.html" target="_top" xlink:title=" ">
<polygon fill="none" stroke="black" points="463,-123.5 463,-142.5 581,-142.5 581,-123.5 463,-123.5"/>
<text text-anchor="middle" x="522" y="-130.5" font-family="Helvetica,sans-Serif" font-size="10.00">src/UI/CoinCounter.cpp</text>
</a>
</g>
</g>
<!-- Node1&#45;&gt;Node12 -->
<g id="edge16" class="edge">
<title>Node1&#45;&gt;Node12</title>
<path fill="none" stroke="midnightblue" d="M318.92,-177.35C366.73,-167.14 437.95,-151.94 482.1,-142.52"/>
<polygon fill="midnightblue" stroke="midnightblue" points="318.14,-173.93 309.09,-179.44 319.6,-180.78 318.14,-173.93"/>
</g>
<!-- Node3 -->
<g id="node3" class="node">
<title>Node3</title>
<g id="a_node3"><a xlink:href="Game_8cpp.html" target="_top" xlink:title=" ">
<polygon fill="none" stroke="black" points="160.5,-6 160.5,-25 267.5,-25 267.5,-6 160.5,-6"/>
<text text-anchor="middle" x="214" y="-13" font-family="Helvetica,sans-Serif" font-size="10.00">src/Game/Game.cpp</text>
</a>
</g>
</g>
<!-- Node2&#45;&gt;Node3 -->
<g id="edge2" class="edge">
<title>Node2&#45;&gt;Node3</title>
<path fill="none" stroke="midnightblue" d="M100.73,-63.63C128.51,-52.07 169.25,-35.12 193.55,-25.01"/>
<polygon fill="midnightblue" stroke="midnightblue" points="99.38,-60.4 91.49,-67.48 102.07,-66.86 99.38,-60.4"/>
</g>
<!-- Node4 -->
<g id="node4" class="node">
<title>Node4</title>
<g id="a_node4"><a xlink:href="Level1_8cpp.html" target="_top" xlink:title=" ">
<polygon fill="none" stroke="black" points="0,-6 0,-25 142,-25 142,-6 0,-6"/>
<text text-anchor="middle" x="71" y="-13" font-family="Helvetica,sans-Serif" font-size="10.00">src/Game/Levels/Level1.cpp</text>
</a>
</g>
</g>
<!-- Node2&#45;&gt;Node4 -->
<g id="edge3" class="edge">
<title>Node2&#45;&gt;Node4</title>
<path fill="none" stroke="midnightblue" d="M71,-57.32C71,-46.5 71,-33.4 71,-25.01"/>
<polygon fill="midnightblue" stroke="midnightblue" points="67.5,-57.48 71,-67.48 74.5,-57.48 67.5,-57.48"/>
</g>
<!-- Node5&#45;&gt;Node3 -->
<g id="edge5" class="edge">
<title>Node5&#45;&gt;Node3</title>
<path fill="none" stroke="midnightblue" d="M225.76,-57.66C222.65,-46.77 218.85,-33.49 216.43,-25.01"/>
<polygon fill="midnightblue" stroke="midnightblue" points="222.45,-58.82 228.56,-67.48 229.18,-56.9 222.45,-58.82"/>
</g>
<!-- Node6 -->
<g id="node6" class="node">
<title>Node6</title>
<g id="a_node6"><a xlink:href="Level2_8cpp.html" target="_top" xlink:title=" ">
<polygon fill="none" stroke="black" points="286,-6 286,-25 428,-25 428,-6 286,-6"/>
<text text-anchor="middle" x="357" y="-13" font-family="Helvetica,sans-Serif" font-size="10.00">src/Game/Levels/Level2.cpp</text>
</a>
</g>
</g>
<!-- Node5&#45;&gt;Node6 -->
<g id="edge6" class="edge">
<title>Node5&#45;&gt;Node6</title>
<path fill="none" stroke="midnightblue" d="M258.16,-63.17C282.61,-51.63 317.85,-34.99 338.98,-25.01"/>
<polygon fill="midnightblue" stroke="midnightblue" points="256.6,-60.04 249.05,-67.48 259.59,-66.37 256.6,-60.04"/>
</g>
<!-- Node8 -->
<g id="node8" class="node">
<title>Node8</title>
<g id="a_node8"><a xlink:href="CoinBehaviour_8cpp.html" target="_top" xlink:title=" ">
<polygon fill="none" stroke="black" points="432,-67.5 432,-86.5 580,-86.5 580,-67.5 432,-67.5"/>
<text text-anchor="middle" x="506" y="-74.5" font-family="Helvetica,sans-Serif" font-size="10.00">src/Scripts/CoinBehaviour.cpp</text>
</a>
</g>
</g>
<!-- Node7&#45;&gt;Node8 -->
<g id="edge8" class="edge">
<title>Node7&#45;&gt;Node8</title>
<path fill="none" stroke="midnightblue" d="M401.91,-119.64C427.24,-109.5 462.43,-95.43 484.71,-86.52"/>
<polygon fill="midnightblue" stroke="midnightblue" points="400.38,-116.48 392.39,-123.44 402.98,-122.98 400.38,-116.48"/>
</g>
<!-- Node7&#45;&gt;Node9 -->
<g id="edge9" class="edge">
<title>Node7&#45;&gt;Node9</title>
<path fill="none" stroke="midnightblue" d="M369.6,-113.1C368.94,-104.14 368.17,-93.86 367.65,-86.75"/>
<polygon fill="midnightblue" stroke="midnightblue" points="366.11,-113.37 370.34,-123.08 373.09,-112.85 366.11,-113.37"/>
</g>
<!-- Node9&#45;&gt;Node3 -->
<g id="edge10" class="edge">
<title>Node9&#45;&gt;Node3</title>
<path fill="none" stroke="midnightblue" d="M335.58,-63.78C305.85,-52.22 261.99,-35.16 235.88,-25.01"/>
<polygon fill="midnightblue" stroke="midnightblue" points="334.49,-67.11 345.08,-67.48 337.03,-60.59 334.49,-67.11"/>
</g>
<!-- Node9&#45;&gt;Node4 -->
<g id="edge11" class="edge">
<title>Node9&#45;&gt;Node4</title>
<path fill="none" stroke="midnightblue" d="M314.64,-65.47C257.27,-53.94 166.38,-35.67 113.33,-25.01"/>
<polygon fill="midnightblue" stroke="midnightblue" points="314.1,-68.94 324.59,-67.48 315.48,-62.07 314.1,-68.94"/>
</g>
<!-- Node9&#45;&gt;Node6 -->
<g id="edge12" class="edge">
<title>Node9&#45;&gt;Node6</title>
<path fill="none" stroke="midnightblue" d="M363.86,-57.32C362.04,-46.5 359.84,-33.4 358.43,-25.01"/>
<polygon fill="midnightblue" stroke="midnightblue" points="360.46,-58.19 365.57,-67.48 367.36,-57.03 360.46,-58.19"/>
</g>
<!-- Node10 -->
<g id="node10" class="node">
<title>Node10</title>
<g id="a_node10"><a xlink:href="MainMenu_8cpp.html" target="_top" xlink:title=" ">
<polygon fill="none" stroke="black" points="600,-6 600,-25 758,-25 758,-6 600,-6"/>
<text text-anchor="middle" x="679" y="-13" font-family="Helvetica,sans-Serif" font-size="10.00">src/Game/Levels/MainMenu.cpp</text>
</a>
</g>
</g>
<!-- Node9&#45;&gt;Node10 -->
<g id="edge13" class="edge">
<title>Node9&#45;&gt;Node10</title>
<path fill="none" stroke="midnightblue" d="M421.82,-65.55C482.26,-54.02 578.35,-35.69 634.38,-25.01"/>
<polygon fill="midnightblue" stroke="midnightblue" points="420.87,-62.16 411.7,-67.48 422.18,-69.04 420.87,-62.16"/>
</g>
<!-- Node11 -->
<g id="node11" class="node">
<title>Node11</title>
<g id="a_node11"><a xlink:href="NetworkingClient_8cpp.html" target="_top" xlink:title=" ">
<polygon fill="none" stroke="black" points="446.5,-0.5 446.5,-30.5 581.5,-30.5 581.5,-0.5 446.5,-0.5"/>
<text text-anchor="start" x="454.5" y="-18.5" font-family="Helvetica,sans-Serif" font-size="10.00">src/Networking/Networking</text>
<text text-anchor="middle" x="514" y="-7.5" font-family="Helvetica,sans-Serif" font-size="10.00">Client.cpp</text>
</a>
</g>
</g>
<!-- Node9&#45;&gt;Node11 -->
<g id="edge14" class="edge">
<title>Node9&#45;&gt;Node11</title>
<path fill="none" stroke="midnightblue" d="M397.34,-63.72C421.2,-54.06 454.45,-40.6 479.36,-30.52"/>
<polygon fill="midnightblue" stroke="midnightblue" points="396.02,-60.48 388.06,-67.48 398.64,-66.97 396.02,-60.48"/>
</g>
</g>
</svg>
