<?xml version="1.0" encoding="UTF-8" standalone="no"?>
<!DOCTYPE svg PUBLIC "-//W3C//DTD SVG 1.1//EN"
 "http://www.w3.org/Graphics/SVG/1.1/DTD/svg11.dtd">
<!-- Generated by graphviz version 2.44.0 ()
 -->
<!-- Title: src/Scripts/CoinBehaviour.hpp Pages: 1 -->
<svg width="765pt" height="151pt"
 viewBox="0.00 0.00 765.00 151.00" xmlns="http://www.w3.org/2000/svg" xmlns:xlink="http://www.w3.org/1999/xlink">
<g id="graph0" class="graph" transform="scale(1 1) rotate(0) translate(4 147)">
<title>src/Scripts/CoinBehaviour.hpp</title>
<!-- Node1 -->
<g id="node1" class="node">
<title>Node1</title>
<g id="a_node1"><a xlink:title=" ">
<polygon fill="#bfbfbf" stroke="black" points="212.5,-123.5 212.5,-142.5 360.5,-142.5 360.5,-123.5 212.5,-123.5"/>
<text text-anchor="middle" x="286.5" y="-130.5" font-family="Helvetica,sans-Serif" font-size="10.00">src/Scripts/CoinBehaviour.hpp</text>
</a>
</g>
</g>
<!-- Node2 -->
<g id="node2" class="node">
<title>Node2</title>
<g id="a_node2"><a xlink:href="CoinBehaviour_8cpp.html" target="_top" xlink:title=" ">
<polygon fill="none" stroke="black" points="143.5,-67.5 143.5,-86.5 291.5,-86.5 291.5,-67.5 143.5,-67.5"/>
<text text-anchor="middle" x="217.5" y="-74.5" font-family="Helvetica,sans-Serif" font-size="10.00">src/Scripts/CoinBehaviour.cpp</text>
</a>
</g>
</g>
<!-- Node1&#45;&gt;Node2 -->
<g id="edge1" class="edge">
<title>Node1&#45;&gt;Node2</title>
<path fill="none" stroke="midnightblue" d="M267.46,-117.1C255.04,-107.38 239.26,-95.03 228.79,-86.83"/>
<polygon fill="midnightblue" stroke="midnightblue" points="265.38,-119.92 275.41,-123.32 269.7,-114.4 265.38,-119.92"/>
</g>
<!-- Node3 -->
<g id="node3" class="node">
<title>Node3</title>
<g id="a_node3"><a xlink:href="TileConfig_8hpp.html" target="_top" xlink:title=" ">
<polygon fill="none" stroke="black" points="309.5,-67.5 309.5,-86.5 403.5,-86.5 403.5,-67.5 309.5,-67.5"/>
<text text-anchor="middle" x="356.5" y="-74.5" font-family="Helvetica,sans-Serif" font-size="10.00">src/TileConfig.hpp</text>
</a>
</g>
</g>
<!-- Node1&#45;&gt;Node3 -->
<g id="edge2" class="edge">
<title>Node1&#45;&gt;Node3</title>
<path fill="none" stroke="midnightblue" d="M305.81,-117.1C318.41,-107.38 334.43,-95.03 345.05,-86.83"/>
<polygon fill="midnightblue" stroke="midnightblue" points="303.53,-114.44 297.75,-123.32 307.8,-119.99 303.53,-114.44"/>
</g>
<!-- Node4 -->
<g id="node4" class="node">
<title>Node4</title>
<g id="a_node4"><a xlink:href="Game_8cpp.html" target="_top" xlink:title=" ">
<polygon fill="none" stroke="black" points="0,-6 0,-25 107,-25 107,-6 0,-6"/>
<text text-anchor="middle" x="53.5" y="-13" font-family="Helvetica,sans-Serif" font-size="10.00">src/Game/Game.cpp</text>
</a>
</g>
</g>
<!-- Node3&#45;&gt;Node4 -->
<g id="edge3" class="edge">
<title>Node3&#45;&gt;Node4</title>
<path fill="none" stroke="midnightblue" d="M299.45,-65.98C250.74,-57.26 178.88,-44.02 116.5,-31 107.71,-29.17 98.26,-27.06 89.43,-25.04"/>
<polygon fill="midnightblue" stroke="midnightblue" points="299.02,-69.46 309.48,-67.77 300.25,-62.57 299.02,-69.46"/>
</g>
<!-- Node5 -->
<g id="node5" class="node">
<title>Node5</title>
<g id="a_node5"><a xlink:href="Level1_8cpp.html" target="_top" xlink:title=" ">
<polygon fill="none" stroke="black" points="125.5,-6 125.5,-25 267.5,-25 267.5,-6 125.5,-6"/>
<text text-anchor="middle" x="196.5" y="-13" font-family="Helvetica,sans-Serif" font-size="10.00">src/Game/Levels/Level1.cpp</text>
</a>
</g>
</g>
<!-- Node3&#45;&gt;Node5 -->
<g id="edge4" class="edge">
<title>Node3&#45;&gt;Node5</title>
<path fill="none" stroke="midnightblue" d="M324.05,-63.93C292.95,-52.37 246.81,-35.21 219.38,-25.01"/>
<polygon fill="midnightblue" stroke="midnightblue" points="322.98,-67.27 333.58,-67.48 325.42,-60.71 322.98,-67.27"/>
</g>
<!-- Node6 -->
<g id="node6" class="node">
<title>Node6</title>
<g id="a_node6"><a xlink:href="Level2_8cpp.html" target="_top" xlink:title=" ">
<polygon fill="none" stroke="black" points="285.5,-6 285.5,-25 427.5,-25 427.5,-6 285.5,-6"/>
<text text-anchor="middle" x="356.5" y="-13" font-family="Helvetica,sans-Serif" font-size="10.00">src/Game/Levels/Level2.cpp</text>
</a>
</g>
</g>
<!-- Node3&#45;&gt;Node6 -->
<g id="edge5" class="edge">
<title>Node3&#45;&gt;Node6</title>
<path fill="none" stroke="midnightblue" d="M356.5,-57.32C356.5,-46.5 356.5,-33.4 356.5,-25.01"/>
<polygon fill="midnightblue" stroke="midnightblue" points="353,-57.48 356.5,-67.48 360,-57.48 353,-57.48"/>
</g>
<!-- Node7 -->
<g id="node7" class="node">
<title>Node7</title>
<g id="a_node7"><a xlink:href="MainMenu_8cpp.html" target="_top" xlink:title=" ">
<polygon fill="none" stroke="black" points="445.5,-6 445.5,-25 603.5,-25 603.5,-6 445.5,-6"/>
<text text-anchor="middle" x="524.5" y="-13" font-family="Helvetica,sans-Serif" font-size="10.00">src/Game/Levels/MainMenu.cpp</text>
</a>
</g>
</g>
<!-- Node3&#45;&gt;Node7 -->
<g id="edge6" class="edge">
<title>Node3&#45;&gt;Node7</title>
<path fill="none" stroke="midnightblue" d="M390.15,-64.08C422.8,-52.52 471.55,-35.25 500.47,-25.01"/>
<polygon fill="midnightblue" stroke="midnightblue" points="388.83,-60.84 380.57,-67.48 391.17,-67.44 388.83,-60.84"/>
</g>
<!-- Node8 -->
<g id="node8" class="node">
<title>Node8</title>
<g id="a_node8"><a xlink:href="NetworkingClient_8cpp.html" target="_top" xlink:title=" ">
<polygon fill="none" stroke="black" points="622,-0.5 622,-30.5 757,-30.5 757,-0.5 622,-0.5"/>
<text text-anchor="start" x="630" y="-18.5" font-family="Helvetica,sans-Serif" font-size="10.00">src/Networking/Networking</text>
<text text-anchor="middle" x="689.5" y="-7.5" font-family="Helvetica,sans-Serif" font-size="10.00">Client.cpp</text>
</a>
</g>
</g>
<!-- Node3&#45;&gt;Node8 -->
<g id="edge7" class="edge">
<title>Node3&#45;&gt;Node8</title>
<path fill="none" stroke="midnightblue" d="M413.73,-66.14C465.63,-57.16 544.24,-43.43 612.5,-31 615.58,-30.44 618.72,-29.86 621.9,-29.28"/>
<polygon fill="midnightblue" stroke="midnightblue" points="412.97,-62.72 403.71,-67.88 414.16,-69.62 412.97,-62.72"/>
</g>
</g>
</svg>
