<svg xmlns="http://www.w3.org/2000/svg" xmlns:xlink="http://www.w3.org/1999/xlink" width="248" height="319pt" viewBox="0 0 186 319"><g id="graph0" class="graph" transform="scale(1 1) rotate(0) translate(4 315)"><title>src/Game</title><g id="clust1" class="cluster"><title>clusterdir_68267d1309a1af8e8297ef4c3efbcdba</title><g id="a_clust1"><a target="_top" xlink:href="dir_68267d1309a1af8e8297ef4c3efbcdba.html" xlink:title="src"><polygon fill="#dde" stroke="#000" points="8 -8 8 -303 170 -303 170 -8 8 -8"/><text x="89" y="-291" font-family="Helvetica,sans-Serif" font-size="10" text-anchor="middle">src</text></a></g></g><g id="clust2" class="cluster"><title>clusterdir_b43036362fece0f978c3c8156df55d19</title><g id="a_clust2"><a target="_top" xlink:href="dir_b43036362fece0f978c3c8156df55d19.html"><polygon fill="#eef" stroke="#000" points="16 -152 16 -276 86 -276 86 -152 16 -152"/></a></g></g><g id="node1" class="node"><title>dir_bd51a612c92e41a52efc1573706495c8</title><g id="a_node1"><a target="_top" xlink:href="dir_bd51a612c92e41a52efc1573706495c8.html" xlink:title="Networking"><polygon fill="none" stroke="#000" points="162 -196 96 -196 96 -160 162 -160 162 -196"/><text x="129" y="-175.5" font-family="Helvetica,sans-Serif" font-size="10" text-anchor="middle">Networking</text></a></g></g><g id="node2" class="node"><title>dir_3ac9928fc2e7e2cbc53db7c1a11acda2</title><g id="a_node2"><a target="_top" xlink:href="dir_3ac9928fc2e7e2cbc53db7c1a11acda2.html" xlink:title="Scripts"><polygon fill="none" stroke="red" points="148 -124 94 -124 94 -88 148 -88 148 -124"/><text x="121" y="-103.5" font-family="Helvetica,sans-Serif" font-size="10" text-anchor="middle">Scripts</text></a></g></g><g id="edge3" class="edge"><title>dir_bd51a612c92e41a52efc1573706495c8-&gt;dir_3ac9928fc2e7e2cbc53db7c1a11acda2</title><path fill="none" stroke="#000" d="M127.02,-159.7C126.14,-151.98 125.08,-142.71 124.1,-134.11"/><polygon fill="#000" stroke="#000" points="127.57 -133.64 122.95 -124.1 120.61 -134.44 127.57 -133.64"/><g id="a_edge3-headlabel"><a target="_top" xlink:href="dir_000004_000005.html" xlink:title="1"><text x="130.8" y="-134.39" font-family="Helvetica,sans-Serif" font-size="10" text-anchor="middle">1</text></a></g></g><g id="node3" class="node"><title>dir_55ef98a57036556dcc9a226e6204f780</title><g id="a_node3"><a target="_top" xlink:href="dir_55ef98a57036556dcc9a226e6204f780.html" xlink:title="constants"><polygon fill="none" stroke="#000" points="77.5 -52 18.5 -52 18.5 -16 77.5 -16 77.5 -52"/><text x="48" y="-31.5" font-family="Helvetica,sans-Serif" font-size="10" text-anchor="middle">constants</text></a></g></g><g id="edge7" class="edge"><title>dir_3ac9928fc2e7e2cbc53db7c1a11acda2-&gt;dir_55ef98a57036556dcc9a226e6204f780</title><path fill="none" stroke="#000" d="M102.96,-87.7C93.94,-79.05 82.88,-68.45 73.06,-59.03"/><polygon fill="#000" stroke="#000" points="75.48 -56.5 65.84 -52.1 70.63 -61.55 75.48 -56.5"/><g id="a_edge7-headlabel"><a target="_top" xlink:href="dir_000005_000001.html" xlink:title="2"><text x="80.04" y="-54.44" font-family="Helvetica,sans-Serif" font-size="10" text-anchor="middle">2</text></a></g></g><g id="node4" class="node"><title>dir_7ad25bca70c4d3d9103f75d82f41ef94</title><g id="a_node4"><a target="_top" xlink:href="dir_7ad25bca70c4d3d9103f75d82f41ef94.html" xlink:title="UI"><polygon fill="none" stroke="#000" points="150 -52 96 -52 96 -16 150 -16 150 -52"/><text x="123" y="-31.5" font-family="Helvetica,sans-Serif" font-size="10" text-anchor="middle">UI</text></a></g></g><g id="edge8" class="edge"><title>dir_3ac9928fc2e7e2cbc53db7c1a11acda2-&gt;dir_7ad25bca70c4d3d9103f75d82f41ef94</title><path fill="none" stroke="#000" d="M121.49,-87.7C121.71,-79.98 121.98,-70.71 122.23,-62.11"/><polygon fill="#000" stroke="#000" points="125.72 -62.2 122.51 -52.1 118.73 -62 125.72 -62.2"/><g id="a_edge8-headlabel"><a target="_top" xlink:href="dir_000005_000007.html" xlink:title="1"><text x="128.46" y="-63.37" font-family="Helvetica,sans-Serif" font-size="10" text-anchor="middle">1</text></a></g></g><g id="node5" class="node"><title>dir_b43036362fece0f978c3c8156df55d19</title><text x="51" y="-247.5" font-family="Helvetica,sans-Serif" font-size="10" text-anchor="middle">Game</text></g><g id="edge2" class="edge"><title>dir_b43036362fece0f978c3c8156df55d19-&gt;dir_bd51a612c92e41a52efc1573706495c8</title><path fill="none" stroke="#000" d="M70.28,-231.7C79.92,-223.05 91.73,-212.45 102.23,-203.03"/><polygon fill="#000" stroke="#000" points="104.84 -205.39 109.94 -196.1 100.16 -200.18 104.84 -205.39"/><g id="a_edge2-headlabel"><a target="_top" xlink:href="dir_000002_000004.html" xlink:title="1"><text x="104.06" y="-207.4" font-family="Helvetica,sans-Serif" font-size="10" text-anchor="middle">1</text></a></g></g><g id="node6" class="node"><title>dir_676624d39155e642f7363158200b00e6</title><g id="a_node6"><a target="_top" xlink:href="dir_676624d39155e642f7363158200b00e6.html" xlink:title="Levels"><polygon fill="#fff" stroke="#000" points="78 -196 24 -196 24 -160 78 -160 78 -196"/><text x="51" y="-175.5" font-family="Helvetica,sans-Serif" font-size="10" text-anchor="middle">Levels</text></a></g></g><g id="edge1" class="edge"><title>dir_b43036362fece0f978c3c8156df55d19-&gt;dir_676624d39155e642f7363158200b00e6</title><path fill="none" stroke="#000" d="M51,-231.7C51,-223.98 51,-214.71 51,-206.11"/><polygon fill="#000" stroke="#000" points="54.5 -206.1 51 -196.1 47.5 -206.1 54.5 -206.1"/><g id="a_edge1-headlabel"><a target="_top" xlink:href="dir_000002_000003.html" xlink:title="4"><text x="57.34" y="-207.2" font-family="Helvetica,sans-Serif" font-size="10" text-anchor="middle">4</text></a></g></g><g id="edge4" class="edge"><title>dir_676624d39155e642f7363158200b00e6-&gt;dir_3ac9928fc2e7e2cbc53db7c1a11acda2</title><path fill="none" stroke="#000" d="M68.3,-159.7C76.86,-151.14 87.34,-140.66 96.7,-131.3"/><polygon fill="#000" stroke="#000" points="99.3 -133.65 103.9 -124.1 94.35 -128.7 99.3 -133.65"/><g id="a_edge4-headlabel"><a target="_top" xlink:href="dir_000003_000005.html" xlink:title="4"><text x="98.77" y="-135.7" font-family="Helvetica,sans-Serif" font-size="10" text-anchor="middle">4</text></a></g></g><g id="edge5" class="edge"><title>dir_676624d39155e642f7363158200b00e6-&gt;dir_55ef98a57036556dcc9a226e6204f780</title><path fill="none" stroke="#000" d="M50.64,-159.87C50.13,-135.67 49.19,-91.21 48.58,-62.39"/><polygon fill="#000" stroke="#000" points="52.07 -62.11 48.36 -52.19 45.08 -62.26 52.07 -62.11"/><g id="a_edge5-headlabel"><a target="_top" xlink:href="dir_000003_000001.html" xlink:title="1"><text x="54.99" y="-63.15" font-family="Helvetica,sans-Serif" font-size="10" text-anchor="middle">1</text></a></g></g><g id="edge6" class="edge"><title>dir_676624d39155e642f7363158200b00e6-&gt;dir_7ad25bca70c4d3d9103f75d82f41ef94</title><path fill="none" stroke="#000" d="M56.14,-159.7C61.94,-141.33 72.23,-111.74 85,-88 90.07,-78.58 96.57,-68.89 102.76,-60.42"/><polygon fill="#000" stroke="#000" points="105.57 -62.5 108.78 -52.4 99.98 -58.29 105.57 -62.5"/><g id="a_edge6-headlabel"><a target="_top" xlink:href="dir_000003_000007.html" xlink:title="2"><text x="105.69" y="-64.58" font-family="Helvetica,sans-Serif" font-size="10" text-anchor="middle">2</text></a></g></g></g></svg>