<?xml version="1.0" encoding="UTF-8" standalone="no"?>
<!DOCTYPE svg PUBLIC "-//W3C//DTD SVG 1.1//EN"
 "http://www.w3.org/Graphics/SVG/1.1/DTD/svg11.dtd">
<!-- Generated by graphviz version 2.44.0 ()
 -->
<!-- Title: src/Game/Levels Pages: 1 -->
<svg width="94pt" height="151pt"
 viewBox="0.00 0.00 94.00 151.00" xmlns="http://www.w3.org/2000/svg" xmlns:xlink="http://www.w3.org/1999/xlink">
<g id="graph0" class="graph" transform="scale(1 1) rotate(0) translate(4 147)">
<title>src/Game/Levels</title>
<g id="clust1" class="cluster">
<title>clusterdir_b43036362fece0f978c3c8156df55d19</title>
<g id="a_clust1"><a xlink:href="dir_b43036362fece0f978c3c8156df55d19.html" target="_top" xlink:title="Game">
<polygon fill="#ddddee" stroke="black" points="8,-64 8,-135 78,-135 78,-64 8,-64"/>
<text text-anchor="middle" x="43" y="-123" font-family="Helvetica,sans-Serif" font-size="10.00">Game</text>
</a>
</g>
</g>
<!-- dir_676624d39155e642f7363158200b00e6 -->
<g id="node1" class="node">
<title>dir_676624d39155e642f7363158200b00e6</title>
<g id="a_node1"><a xlink:href="dir_676624d39155e642f7363158200b00e6.html" target="_top" xlink:title="Levels">
<polygon fill="#eeeeff" stroke="black" points="70,-108 16,-108 16,-72 70,-72 70,-108"/>
<text text-anchor="middle" x="43" y="-87.5" font-family="Helvetica,sans-Serif" font-size="10.00">Levels</text>
</a>
</g>
</g>
<!-- dir_3ac9928fc2e7e2cbc53db7c1a11acda2 -->
<g id="node2" class="node">
<title>dir_3ac9928fc2e7e2cbc53db7c1a11acda2</title>
<g id="a_node2"><a xlink:href="dir_3ac9928fc2e7e2cbc53db7c1a11acda2.html" target="_top" xlink:title="Scripts">
<polygon fill="none" stroke="black" points="70,-36 16,-36 16,0 70,0 70,-36"/>
<text text-anchor="middle" x="43" y="-15.5" font-family="Helvetica,sans-Serif" font-size="10.00">Scripts</text>
</a>
</g>
</g>
<!-- dir_676624d39155e642f7363158200b00e6&#45;&gt;dir_3ac9928fc2e7e2cbc53db7c1a11acda2 -->
<g id="edge1" class="edge">
<title>dir_676624d39155e642f7363158200b00e6&#45;&gt;dir_3ac9928fc2e7e2cbc53db7c1a11acda2</title>
<path fill="none" stroke="black" d="M43,-71.7C43,-63.98 43,-54.71 43,-46.11"/>
<polygon fill="black" stroke="black" points="46.5,-46.1 43,-36.1 39.5,-46.1 46.5,-46.1"/>
<g id="a_edge1&#45;headlabel"><a xlink:href="dir_000002_000004.html" target="_top" xlink:title="2">
<text text-anchor="middle" x="49.34" y="-47.2" font-family="Helvetica,sans-Serif" font-size="10.00">2</text>
</a>
</g>
</g>
</g>
</svg>
