<?xml version="1.0" encoding="UTF-8" standalone="no"?>
<!DOCTYPE svg PUBLIC "-//W3C//DTD SVG 1.1//EN"
 "http://www.w3.org/Graphics/SVG/1.1/DTD/svg11.dtd">
<!-- Generated by graphviz version 2.44.0 ()
 -->
<!-- Title: src/Scripts Pages: 1 -->
<svg width="190pt" height="183pt"
 viewBox="0.00 0.00 190.00 183.00" xmlns="http://www.w3.org/2000/svg" xmlns:xlink="http://www.w3.org/1999/xlink">
<g id="graph0" class="graph" transform="scale(1 1) rotate(0) translate(4 179)">
<title>src/Scripts</title>
<g id="clust1" class="cluster">
<title>clusterdir_68267d1309a1af8e8297ef4c3efbcdba</title>
<g id="a_clust1"><a xlink:href="dir_68267d1309a1af8e8297ef4c3efbcdba.html" target="_top" xlink:title="src">
<polygon fill="#ddddee" stroke="black" points="8,-8 8,-167 174,-167 174,-8 8,-8"/>
<text text-anchor="middle" x="91" y="-155" font-family="Helvetica,sans-Serif" font-size="10.00">src</text>
</a>
</g>
</g>
<g id="clust2" class="cluster">
<title>clusterdir_3ac9928fc2e7e2cbc53db7c1a11acda2</title>
<g id="a_clust2"><a xlink:href="dir_3ac9928fc2e7e2cbc53db7c1a11acda2.html" target="_top">
<polygon fill="#eeeeff" stroke="black" points="16,-16 16,-140 102,-140 102,-16 16,-16"/>
</a>
</g>
</g>
<!-- dir_7ad25bca70c4d3d9103f75d82f41ef94 -->
<g id="node1" class="node">
<title>dir_7ad25bca70c4d3d9103f75d82f41ef94</title>
<g id="a_node1"><a xlink:href="dir_7ad25bca70c4d3d9103f75d82f41ef94.html" target="_top" xlink:title="UI">
<polygon fill="none" stroke="black" points="166,-60 112,-60 112,-24 166,-24 166,-60"/>
<text text-anchor="middle" x="139" y="-39.5" font-family="Helvetica,sans-Serif" font-size="10.00">UI</text>
</a>
</g>
</g>
<!-- dir_3ac9928fc2e7e2cbc53db7c1a11acda2 -->
<g id="node2" class="node">
<title>dir_3ac9928fc2e7e2cbc53db7c1a11acda2</title>
<text text-anchor="middle" x="63" y="-111.5" font-family="Helvetica,sans-Serif" font-size="10.00">Scripts</text>
</g>
<!-- dir_3ac9928fc2e7e2cbc53db7c1a11acda2&#45;&gt;dir_7ad25bca70c4d3d9103f75d82f41ef94 -->
<g id="edge2" class="edge">
<title>dir_3ac9928fc2e7e2cbc53db7c1a11acda2&#45;&gt;dir_7ad25bca70c4d3d9103f75d82f41ef94</title>
<path fill="none" stroke="black" d="M81.79,-95.7C91.17,-87.05 102.68,-76.45 112.91,-67.03"/>
<polygon fill="black" stroke="black" points="115.45,-69.45 120.43,-60.1 110.7,-64.3 115.45,-69.45"/>
<g id="a_edge2&#45;headlabel"><a xlink:href="dir_000004_000006.html" target="_top" xlink:title="1">
<text text-anchor="middle" x="114.72" y="-71.48" font-family="Helvetica,sans-Serif" font-size="10.00">1</text>
</a>
</g>
</g>
<!-- dir_732af4ad8dc86e678e5dd877b11f9507 -->
<g id="node3" class="node">
<title>dir_732af4ad8dc86e678e5dd877b11f9507</title>
<g id="a_node3"><a xlink:href="dir_732af4ad8dc86e678e5dd877b11f9507.html" target="_top" xlink:title="MarioStates">
<polygon fill="white" stroke="black" points="93.5,-60 24.5,-60 24.5,-24 93.5,-24 93.5,-60"/>
<text text-anchor="middle" x="59" y="-39.5" font-family="Helvetica,sans-Serif" font-size="10.00">MarioStates</text>
</a>
</g>
</g>
<!-- dir_3ac9928fc2e7e2cbc53db7c1a11acda2&#45;&gt;dir_732af4ad8dc86e678e5dd877b11f9507 -->
<g id="edge1" class="edge">
<title>dir_3ac9928fc2e7e2cbc53db7c1a11acda2&#45;&gt;dir_732af4ad8dc86e678e5dd877b11f9507</title>
<path fill="none" stroke="black" d="M62.01,-95.7C61.57,-87.98 61.04,-78.71 60.55,-70.11"/>
<polygon fill="black" stroke="black" points="64.04,-69.89 59.98,-60.1 57.05,-70.29 64.04,-69.89"/>
<g id="a_edge1&#45;headlabel"><a xlink:href="dir_000004_000005.html" target="_top" xlink:title="3">
<text text-anchor="middle" x="67.08" y="-70.82" font-family="Helvetica,sans-Serif" font-size="10.00">3</text>
</a>
</g>
</g>
</g>
</svg>
