<?xml version="1.0" encoding="UTF-8" standalone="no"?>
<!DOCTYPE svg PUBLIC "-//W3C//DTD SVG 1.1//EN"
 "http://www.w3.org/Graphics/SVG/1.1/DTD/svg11.dtd">
<!-- Generated by graphviz version 2.44.0 ()
 -->
<!-- Title: src/Networking Pages: 1 -->
<svg width="106pt" height="167pt"
 viewBox="0.00 0.00 106.00 167.00" xmlns="http://www.w3.org/2000/svg" xmlns:xlink="http://www.w3.org/1999/xlink">
<g id="graph0" class="graph" transform="scale(1 1) rotate(0) translate(4 163)">
<title>src/Networking</title>
<g id="clust1" class="cluster">
<title>clusterdir_68267d1309a1af8e8297ef4c3efbcdba</title>
<g id="a_clust1"><a xlink:href="dir_68267d1309a1af8e8297ef4c3efbcdba.html" target="_top" xlink:title="src">
<polygon fill="#ddddee" stroke="black" points="8,-8 8,-151 90,-151 90,-8 8,-8"/>
<text text-anchor="middle" x="49" y="-139" font-family="Helvetica,sans-Serif" font-size="10.00">src</text>
</a>
</g>
</g>
<!-- dir_3ac9928fc2e7e2cbc53db7c1a11acda2 -->
<g id="node1" class="node">
<title>dir_3ac9928fc2e7e2cbc53db7c1a11acda2</title>
<g id="a_node1"><a xlink:href="dir_3ac9928fc2e7e2cbc53db7c1a11acda2.html" target="_top" xlink:title="Scripts">
<polygon fill="none" stroke="red" points="76,-52 22,-52 22,-16 76,-16 76,-52"/>
<text text-anchor="middle" x="49" y="-31.5" font-family="Helvetica,sans-Serif" font-size="10.00">Scripts</text>
</a>
</g>
</g>
<!-- dir_bd51a612c92e41a52efc1573706495c8 -->
<g id="node2" class="node">
<title>dir_bd51a612c92e41a52efc1573706495c8</title>
<g id="a_node2"><a xlink:href="dir_bd51a612c92e41a52efc1573706495c8.html" target="_top" xlink:title="Networking">
<polygon fill="#eeeeff" stroke="black" points="82,-124 16,-124 16,-88 82,-88 82,-124"/>
<text text-anchor="middle" x="49" y="-103.5" font-family="Helvetica,sans-Serif" font-size="10.00">Networking</text>
</a>
</g>
</g>
<!-- dir_bd51a612c92e41a52efc1573706495c8&#45;&gt;dir_3ac9928fc2e7e2cbc53db7c1a11acda2 -->
<g id="edge1" class="edge">
<title>dir_bd51a612c92e41a52efc1573706495c8&#45;&gt;dir_3ac9928fc2e7e2cbc53db7c1a11acda2</title>
<path fill="none" stroke="black" d="M49,-87.7C49,-79.98 49,-70.71 49,-62.11"/>
<polygon fill="black" stroke="black" points="52.5,-62.1 49,-52.1 45.5,-62.1 52.5,-62.1"/>
<g id="a_edge1&#45;headlabel"><a xlink:href="dir_000004_000005.html" target="_top" xlink:title="1">
<text text-anchor="middle" x="55.34" y="-63.2" font-family="Helvetica,sans-Serif" font-size="10.00">1</text>
</a>
</g>
</g>
</g>
</svg>
