<?xml version="1.0" encoding="UTF-8" standalone="no"?>
<!DOCTYPE svg PUBLIC "-//W3C//DTD SVG 1.1//EN"
 "http://www.w3.org/Graphics/SVG/1.1/DTD/svg11.dtd">
<!-- Generated by graphviz version 2.44.0 ()
 -->
<!-- Title: src/Game Pages: 1 -->
<svg width="186pt" height="247pt"
 viewBox="0.00 0.00 186.00 247.00" xmlns="http://www.w3.org/2000/svg" xmlns:xlink="http://www.w3.org/1999/xlink">
<g id="graph0" class="graph" transform="scale(1 1) rotate(0) translate(4 243)">
<title>src/Game</title>
<g id="clust1" class="cluster">
<title>clusterdir_68267d1309a1af8e8297ef4c3efbcdba</title>
<g id="a_clust1"><a xlink:href="dir_68267d1309a1af8e8297ef4c3efbcdba.html" target="_top" xlink:title="src">
<polygon fill="#ddddee" stroke="black" points="8,-8 8,-231 170,-231 170,-8 8,-8"/>
<text text-anchor="middle" x="89" y="-219" font-family="Helvetica,sans-Serif" font-size="10.00">src</text>
</a>
</g>
</g>
<g id="clust2" class="cluster">
<title>clusterdir_b43036362fece0f978c3c8156df55d19</title>
<g id="a_clust2"><a xlink:href="dir_b43036362fece0f978c3c8156df55d19.html" target="_top">
<polygon fill="#eeeeff" stroke="black" points="16,-80 16,-204 86,-204 86,-80 16,-80"/>
</a>
</g>
</g>
<!-- dir_bd51a612c92e41a52efc1573706495c8 -->
<g id="node1" class="node">
<title>dir_bd51a612c92e41a52efc1573706495c8</title>
<g id="a_node1"><a xlink:href="dir_bd51a612c92e41a52efc1573706495c8.html" target="_top" xlink:title="Networking">
<polygon fill="none" stroke="black" points="162,-124 96,-124 96,-88 162,-88 162,-124"/>
<text text-anchor="middle" x="129" y="-103.5" font-family="Helvetica,sans-Serif" font-size="10.00">Networking</text>
</a>
</g>
</g>
<!-- dir_3ac9928fc2e7e2cbc53db7c1a11acda2 -->
<g id="node2" class="node">
<title>dir_3ac9928fc2e7e2cbc53db7c1a11acda2</title>
<g id="a_node2"><a xlink:href="dir_3ac9928fc2e7e2cbc53db7c1a11acda2.html" target="_top" xlink:title="Scripts">
<polygon fill="none" stroke="red" points="117,-52 63,-52 63,-16 117,-16 117,-52"/>
<text text-anchor="middle" x="90" y="-31.5" font-family="Helvetica,sans-Serif" font-size="10.00">Scripts</text>
</a>
</g>
</g>
<!-- dir_bd51a612c92e41a52efc1573706495c8&#45;&gt;dir_3ac9928fc2e7e2cbc53db7c1a11acda2 -->
<g id="edge3" class="edge">
<title>dir_bd51a612c92e41a52efc1573706495c8&#45;&gt;dir_3ac9928fc2e7e2cbc53db7c1a11acda2</title>
<path fill="none" stroke="black" d="M119.36,-87.7C114.87,-79.64 109.44,-69.89 104.48,-60.98"/>
<polygon fill="black" stroke="black" points="107.45,-59.14 99.53,-52.1 101.34,-62.54 107.45,-59.14"/>
<g id="a_edge3&#45;headlabel"><a xlink:href="dir_000003_000004.html" target="_top" xlink:title="1">
<text text-anchor="middle" x="111.68" y="-58.39" font-family="Helvetica,sans-Serif" font-size="10.00">1</text>
</a>
</g>
</g>
<!-- dir_b43036362fece0f978c3c8156df55d19 -->
<g id="node3" class="node">
<title>dir_b43036362fece0f978c3c8156df55d19</title>
<text text-anchor="middle" x="51" y="-175.5" font-family="Helvetica,sans-Serif" font-size="10.00">Game</text>
</g>
<!-- dir_b43036362fece0f978c3c8156df55d19&#45;&gt;dir_bd51a612c92e41a52efc1573706495c8 -->
<g id="edge2" class="edge">
<title>dir_b43036362fece0f978c3c8156df55d19&#45;&gt;dir_bd51a612c92e41a52efc1573706495c8</title>
<path fill="none" stroke="black" d="M70.28,-159.7C79.92,-151.05 91.73,-140.45 102.23,-131.03"/>
<polygon fill="black" stroke="black" points="104.84,-133.39 109.94,-124.1 100.16,-128.18 104.84,-133.39"/>
<g id="a_edge2&#45;headlabel"><a xlink:href="dir_000001_000003.html" target="_top" xlink:title="2">
<text text-anchor="middle" x="104.06" y="-135.4" font-family="Helvetica,sans-Serif" font-size="10.00">2</text>
</a>
</g>
</g>
<!-- dir_676624d39155e642f7363158200b00e6 -->
<g id="node4" class="node">
<title>dir_676624d39155e642f7363158200b00e6</title>
<g id="a_node4"><a xlink:href="dir_676624d39155e642f7363158200b00e6.html" target="_top" xlink:title="Levels">
<polygon fill="white" stroke="black" points="78,-124 24,-124 24,-88 78,-88 78,-124"/>
<text text-anchor="middle" x="51" y="-103.5" font-family="Helvetica,sans-Serif" font-size="10.00">Levels</text>
</a>
</g>
</g>
<!-- dir_b43036362fece0f978c3c8156df55d19&#45;&gt;dir_676624d39155e642f7363158200b00e6 -->
<g id="edge1" class="edge">
<title>dir_b43036362fece0f978c3c8156df55d19&#45;&gt;dir_676624d39155e642f7363158200b00e6</title>
<path fill="none" stroke="black" d="M51,-159.7C51,-151.98 51,-142.71 51,-134.11"/>
<polygon fill="black" stroke="black" points="54.5,-134.1 51,-124.1 47.5,-134.1 54.5,-134.1"/>
<g id="a_edge1&#45;headlabel"><a xlink:href="dir_000001_000002.html" target="_top" xlink:title="2">
<text text-anchor="middle" x="57.34" y="-135.2" font-family="Helvetica,sans-Serif" font-size="10.00">2</text>
</a>
</g>
</g>
<!-- dir_676624d39155e642f7363158200b00e6&#45;&gt;dir_3ac9928fc2e7e2cbc53db7c1a11acda2 -->
<g id="edge4" class="edge">
<title>dir_676624d39155e642f7363158200b00e6&#45;&gt;dir_3ac9928fc2e7e2cbc53db7c1a11acda2</title>
<path fill="none" stroke="black" d="M60.64,-87.7C65.13,-79.64 70.56,-69.89 75.52,-60.98"/>
<polygon fill="black" stroke="black" points="78.66,-62.54 80.47,-52.1 72.55,-59.14 78.66,-62.54"/>
<g id="a_edge4&#45;headlabel"><a xlink:href="dir_000002_000004.html" target="_top" xlink:title="2">
<text text-anchor="middle" x="79.39" y="-64.57" font-family="Helvetica,sans-Serif" font-size="10.00">2</text>
</a>
</g>
</g>
</g>
</svg>
