<?xml version="1.0" encoding="UTF-8" standalone="no"?>
<!DOCTYPE svg PUBLIC "-//W3C//DTD SVG 1.1//EN"
 "http://www.w3.org/Graphics/SVG/1.1/DTD/svg11.dtd">
<!-- Generated by graphviz version 2.44.0 ()
 -->
<!-- Title: src/Game Pages: 1 -->
<svg width="186pt" height="319pt"
 viewBox="0.00 0.00 186.00 319.00" xmlns="http://www.w3.org/2000/svg" xmlns:xlink="http://www.w3.org/1999/xlink">
<g id="graph0" class="graph" transform="scale(1 1) rotate(0) translate(4 315)">
<title>src/Game</title>
<g id="clust1" class="cluster">
<title>clusterdir_68267d1309a1af8e8297ef4c3efbcdba</title>
<g id="a_clust1"><a xlink:href="dir_68267d1309a1af8e8297ef4c3efbcdba.html" target="_top" xlink:title="src">
<polygon fill="#ddddee" stroke="black" points="8,-8 8,-303 170,-303 170,-8 8,-8"/>
<text text-anchor="middle" x="89" y="-291" font-family="Helvetica,sans-Serif" font-size="10.00">src</text>
</a>
</g>
</g>
<g id="clust2" class="cluster">
<title>clusterdir_b43036362fece0f978c3c8156df55d19</title>
<g id="a_clust2"><a xlink:href="dir_b43036362fece0f978c3c8156df55d19.html" target="_top">
<polygon fill="#eeeeff" stroke="black" points="16,-152 16,-276 86,-276 86,-152 16,-152"/>
</a>
</g>
</g>
<!-- dir_bd51a612c92e41a52efc1573706495c8 -->
<g id="node1" class="node">
<title>dir_bd51a612c92e41a52efc1573706495c8</title>
<g id="a_node1"><a xlink:href="dir_bd51a612c92e41a52efc1573706495c8.html" target="_top" xlink:title="Networking">
<polygon fill="none" stroke="black" points="162,-196 96,-196 96,-160 162,-160 162,-196"/>
<text text-anchor="middle" x="129" y="-175.5" font-family="Helvetica,sans-Serif" font-size="10.00">Networking</text>
</a>
</g>
</g>
<!-- dir_3ac9928fc2e7e2cbc53db7c1a11acda2 -->
<g id="node2" class="node">
<title>dir_3ac9928fc2e7e2cbc53db7c1a11acda2</title>
<g id="a_node2"><a xlink:href="dir_3ac9928fc2e7e2cbc53db7c1a11acda2.html" target="_top" xlink:title="Scripts">
<polygon fill="none" stroke="red" points="124,-124 70,-124 70,-88 124,-88 124,-124"/>
<text text-anchor="middle" x="97" y="-103.5" font-family="Helvetica,sans-Serif" font-size="10.00">Scripts</text>
</a>
</g>
</g>
<!-- dir_bd51a612c92e41a52efc1573706495c8&#45;&gt;dir_3ac9928fc2e7e2cbc53db7c1a11acda2 -->
<g id="edge3" class="edge">
<title>dir_bd51a612c92e41a52efc1573706495c8&#45;&gt;dir_3ac9928fc2e7e2cbc53db7c1a11acda2</title>
<path fill="none" stroke="black" d="M121.09,-159.7C117.45,-151.73 113.05,-142.1 109.01,-133.26"/>
<polygon fill="black" stroke="black" points="112.16,-131.74 104.82,-124.1 105.79,-134.65 112.16,-131.74"/>
<g id="a_edge3&#45;headlabel"><a xlink:href="dir_000004_000005.html" target="_top" xlink:title="1">
<text text-anchor="middle" x="116.24" y="-131.33" font-family="Helvetica,sans-Serif" font-size="10.00">1</text>
</a>
</g>
</g>
<!-- dir_55ef98a57036556dcc9a226e6204f780 -->
<g id="node3" class="node">
<title>dir_55ef98a57036556dcc9a226e6204f780</title>
<g id="a_node3"><a xlink:href="dir_55ef98a57036556dcc9a226e6204f780.html" target="_top" xlink:title="constants">
<polygon fill="none" stroke="black" points="103.5,-52 44.5,-52 44.5,-16 103.5,-16 103.5,-52"/>
<text text-anchor="middle" x="74" y="-31.5" font-family="Helvetica,sans-Serif" font-size="10.00">constants</text>
</a>
</g>
</g>
<!-- dir_3ac9928fc2e7e2cbc53db7c1a11acda2&#45;&gt;dir_55ef98a57036556dcc9a226e6204f780 -->
<g id="edge6" class="edge">
<title>dir_3ac9928fc2e7e2cbc53db7c1a11acda2&#45;&gt;dir_55ef98a57036556dcc9a226e6204f780</title>
<path fill="none" stroke="black" d="M91.31,-87.7C88.75,-79.9 85.67,-70.51 82.82,-61.83"/>
<polygon fill="black" stroke="black" points="86.07,-60.51 79.62,-52.1 79.42,-62.7 86.07,-60.51"/>
<g id="a_edge6&#45;headlabel"><a xlink:href="dir_000005_000001.html" target="_top" xlink:title="2">
<text text-anchor="middle" x="89.89" y="-60.54" font-family="Helvetica,sans-Serif" font-size="10.00">2</text>
</a>
</g>
</g>
<!-- dir_b43036362fece0f978c3c8156df55d19 -->
<g id="node4" class="node">
<title>dir_b43036362fece0f978c3c8156df55d19</title>
<text text-anchor="middle" x="51" y="-247.5" font-family="Helvetica,sans-Serif" font-size="10.00">Game</text>
</g>
<!-- dir_b43036362fece0f978c3c8156df55d19&#45;&gt;dir_bd51a612c92e41a52efc1573706495c8 -->
<g id="edge2" class="edge">
<title>dir_b43036362fece0f978c3c8156df55d19&#45;&gt;dir_bd51a612c92e41a52efc1573706495c8</title>
<path fill="none" stroke="black" d="M70.28,-231.7C79.92,-223.05 91.73,-212.45 102.23,-203.03"/>
<polygon fill="black" stroke="black" points="104.84,-205.39 109.94,-196.1 100.16,-200.18 104.84,-205.39"/>
<g id="a_edge2&#45;headlabel"><a xlink:href="dir_000002_000004.html" target="_top" xlink:title="2">
<text text-anchor="middle" x="104.06" y="-207.4" font-family="Helvetica,sans-Serif" font-size="10.00">2</text>
</a>
</g>
</g>
<!-- dir_676624d39155e642f7363158200b00e6 -->
<g id="node5" class="node">
<title>dir_676624d39155e642f7363158200b00e6</title>
<g id="a_node5"><a xlink:href="dir_676624d39155e642f7363158200b00e6.html" target="_top" xlink:title="Levels">
<polygon fill="white" stroke="black" points="78,-196 24,-196 24,-160 78,-160 78,-196"/>
<text text-anchor="middle" x="51" y="-175.5" font-family="Helvetica,sans-Serif" font-size="10.00">Levels</text>
</a>
</g>
</g>
<!-- dir_b43036362fece0f978c3c8156df55d19&#45;&gt;dir_676624d39155e642f7363158200b00e6 -->
<g id="edge1" class="edge">
<title>dir_b43036362fece0f978c3c8156df55d19&#45;&gt;dir_676624d39155e642f7363158200b00e6</title>
<path fill="none" stroke="black" d="M51,-231.7C51,-223.98 51,-214.71 51,-206.11"/>
<polygon fill="black" stroke="black" points="54.5,-206.1 51,-196.1 47.5,-206.1 54.5,-206.1"/>
<g id="a_edge1&#45;headlabel"><a xlink:href="dir_000002_000003.html" target="_top" xlink:title="3">
<text text-anchor="middle" x="57.34" y="-207.2" font-family="Helvetica,sans-Serif" font-size="10.00">3</text>
</a>
</g>
</g>
<!-- dir_676624d39155e642f7363158200b00e6&#45;&gt;dir_3ac9928fc2e7e2cbc53db7c1a11acda2 -->
<g id="edge4" class="edge">
<title>dir_676624d39155e642f7363158200b00e6&#45;&gt;dir_3ac9928fc2e7e2cbc53db7c1a11acda2</title>
<path fill="none" stroke="black" d="M62.37,-159.7C67.72,-151.56 74.2,-141.69 80.11,-132.7"/>
<polygon fill="black" stroke="black" points="83.19,-134.38 85.76,-124.1 77.34,-130.54 83.19,-134.38"/>
<g id="a_edge4&#45;headlabel"><a xlink:href="dir_000003_000005.html" target="_top" xlink:title="2">
<text text-anchor="middle" x="83.59" y="-136.45" font-family="Helvetica,sans-Serif" font-size="10.00">2</text>
</a>
</g>
</g>
<!-- dir_676624d39155e642f7363158200b00e6&#45;&gt;dir_55ef98a57036556dcc9a226e6204f780 -->
<g id="edge5" class="edge">
<title>dir_676624d39155e642f7363158200b00e6&#45;&gt;dir_55ef98a57036556dcc9a226e6204f780</title>
<path fill="none" stroke="black" d="M52.27,-159.84C53.75,-141.85 56.58,-112.8 61,-88 62.52,-79.47 64.61,-70.28 66.67,-61.98"/>
<polygon fill="black" stroke="black" points="70.12,-62.62 69.22,-52.07 63.34,-60.88 70.12,-62.62"/>
<g id="a_edge5&#45;headlabel"><a xlink:href="dir_000003_000001.html" target="_top" xlink:title="1">
<text text-anchor="middle" x="71.97" y="-64.31" font-family="Helvetica,sans-Serif" font-size="10.00">1</text>
</a>
</g>
</g>
</g>
</svg>
