<?xml version="1.0" encoding="UTF-8" standalone="no"?>
<!DOCTYPE svg PUBLIC "-//W3C//DTD SVG 1.1//EN"
 "http://www.w3.org/Graphics/SVG/1.1/DTD/svg11.dtd">
<!-- Generated by graphviz version 2.44.0 ()
 -->
<!-- Title: src Pages: 1 -->
<svg width="166pt" height="292pt"
 viewBox="0.00 0.00 166.00 292.00" xmlns="http://www.w3.org/2000/svg" xmlns:xlink="http://www.w3.org/1999/xlink">
<g id="graph0" class="graph" transform="scale(1 1) rotate(0) translate(4 288)">
<title>src</title>
<g id="clust1" class="cluster">
<title>clusterdir_68267d1309a1af8e8297ef4c3efbcdba</title>
<g id="a_clust1"><a xlink:href="dir_68267d1309a1af8e8297ef4c3efbcdba.html" target="_top">
<polygon fill="#eeeeff" stroke="black" points="8,-8 8,-276 150,-276 150,-8 8,-8"/>
</a>
</g>
</g>
<!-- dir_68267d1309a1af8e8297ef4c3efbcdba -->
<g id="node1" class="node">
<title>dir_68267d1309a1af8e8297ef4c3efbcdba</title>
<text text-anchor="middle" x="115" y="-247.5" font-family="Helvetica,sans-Serif" font-size="10.00">src</text>
</g>
<!-- dir_b43036362fece0f978c3c8156df55d19 -->
<g id="node2" class="node">
<title>dir_b43036362fece0f978c3c8156df55d19</title>
<g id="a_node2"><a xlink:href="dir_b43036362fece0f978c3c8156df55d19.html" target="_top" xlink:title="Game">
<polygon fill="white" stroke="red" points="70,-268 16,-268 16,-232 70,-232 70,-268"/>
<text text-anchor="middle" x="43" y="-247.5" font-family="Helvetica,sans-Serif" font-size="10.00">Game</text>
</a>
</g>
</g>
<!-- dir_bd51a612c92e41a52efc1573706495c8 -->
<g id="node3" class="node">
<title>dir_bd51a612c92e41a52efc1573706495c8</title>
<g id="a_node3"><a xlink:href="dir_bd51a612c92e41a52efc1573706495c8.html" target="_top" xlink:title="Networking">
<polygon fill="white" stroke="black" points="82,-196 16,-196 16,-160 82,-160 82,-196"/>
<text text-anchor="middle" x="49" y="-175.5" font-family="Helvetica,sans-Serif" font-size="10.00">Networking</text>
</a>
</g>
</g>
<!-- dir_b43036362fece0f978c3c8156df55d19&#45;&gt;dir_bd51a612c92e41a52efc1573706495c8 -->
<g id="edge2" class="edge">
<title>dir_b43036362fece0f978c3c8156df55d19&#45;&gt;dir_bd51a612c92e41a52efc1573706495c8</title>
<path fill="none" stroke="black" d="M44.48,-231.7C45.14,-223.98 45.94,-214.71 46.68,-206.11"/>
<polygon fill="black" stroke="black" points="50.17,-206.37 47.53,-196.1 43.19,-205.77 50.17,-206.37"/>
<g id="a_edge2&#45;headlabel"><a xlink:href="dir_000001_000003.html" target="_top" xlink:title="2">
<text text-anchor="middle" x="52.69" y="-207.69" font-family="Helvetica,sans-Serif" font-size="10.00">2</text>
</a>
</g>
</g>
<!-- dir_3ac9928fc2e7e2cbc53db7c1a11acda2 -->
<g id="node4" class="node">
<title>dir_3ac9928fc2e7e2cbc53db7c1a11acda2</title>
<g id="a_node4"><a xlink:href="dir_3ac9928fc2e7e2cbc53db7c1a11acda2.html" target="_top" xlink:title="Scripts">
<polygon fill="white" stroke="black" points="102,-124 48,-124 48,-88 102,-88 102,-124"/>
<text text-anchor="middle" x="75" y="-103.5" font-family="Helvetica,sans-Serif" font-size="10.00">Scripts</text>
</a>
</g>
</g>
<!-- dir_b43036362fece0f978c3c8156df55d19&#45;&gt;dir_3ac9928fc2e7e2cbc53db7c1a11acda2 -->
<g id="edge1" class="edge">
<title>dir_b43036362fece0f978c3c8156df55d19&#45;&gt;dir_3ac9928fc2e7e2cbc53db7c1a11acda2</title>
<path fill="none" stroke="black" d="M64.71,-231.79C74.76,-222.41 85.64,-209.9 91,-196 98.77,-175.85 93.57,-151.67 87.1,-133.6"/>
<polygon fill="black" stroke="black" points="90.35,-132.29 83.44,-124.25 83.83,-134.84 90.35,-132.29"/>
<g id="a_edge1&#45;headlabel"><a xlink:href="dir_000001_000004.html" target="_top" xlink:title="6">
<text text-anchor="middle" x="94.3" y="-132.1" font-family="Helvetica,sans-Serif" font-size="10.00">6</text>
</a>
</g>
</g>
<!-- dir_bd51a612c92e41a52efc1573706495c8&#45;&gt;dir_3ac9928fc2e7e2cbc53db7c1a11acda2 -->
<g id="edge3" class="edge">
<title>dir_bd51a612c92e41a52efc1573706495c8&#45;&gt;dir_3ac9928fc2e7e2cbc53db7c1a11acda2</title>
<path fill="none" stroke="black" d="M55.43,-159.7C58.36,-151.81 61.89,-142.3 65.14,-133.55"/>
<polygon fill="black" stroke="black" points="68.45,-134.7 68.65,-124.1 61.88,-132.26 68.45,-134.7"/>
<g id="a_edge3&#45;headlabel"><a xlink:href="dir_000003_000004.html" target="_top" xlink:title="2">
<text text-anchor="middle" x="69.86" y="-136.56" font-family="Helvetica,sans-Serif" font-size="10.00">2</text>
</a>
</g>
</g>
<!-- dir_7ad25bca70c4d3d9103f75d82f41ef94 -->
<g id="node5" class="node">
<title>dir_7ad25bca70c4d3d9103f75d82f41ef94</title>
<g id="a_node5"><a xlink:href="dir_7ad25bca70c4d3d9103f75d82f41ef94.html" target="_top" xlink:title="UI">
<polygon fill="white" stroke="black" points="102,-52 48,-52 48,-16 102,-16 102,-52"/>
<text text-anchor="middle" x="75" y="-31.5" font-family="Helvetica,sans-Serif" font-size="10.00">UI</text>
</a>
</g>
</g>
<!-- dir_3ac9928fc2e7e2cbc53db7c1a11acda2&#45;&gt;dir_7ad25bca70c4d3d9103f75d82f41ef94 -->
<g id="edge4" class="edge">
<title>dir_3ac9928fc2e7e2cbc53db7c1a11acda2&#45;&gt;dir_7ad25bca70c4d3d9103f75d82f41ef94</title>
<path fill="none" stroke="black" d="M75,-87.7C75,-79.98 75,-70.71 75,-62.11"/>
<polygon fill="black" stroke="black" points="78.5,-62.1 75,-52.1 71.5,-62.1 78.5,-62.1"/>
<g id="a_edge4&#45;headlabel"><a xlink:href="dir_000004_000005.html" target="_top" xlink:title="1">
<text text-anchor="middle" x="81.34" y="-63.2" font-family="Helvetica,sans-Serif" font-size="10.00">1</text>
</a>
</g>
</g>
</g>
</svg>
