<?xml version="1.0" encoding="UTF-8" standalone="no"?>
<!DOCTYPE svg PUBLIC "-//W3C//DTD SVG 1.1//EN"
 "http://www.w3.org/Graphics/SVG/1.1/DTD/svg11.dtd">
<!-- Generated by graphviz version 2.44.0 ()
 -->
<!-- Title: src/Game/Levels Pages: 1 -->
<svg width="106pt" height="223pt"
 viewBox="0.00 0.00 106.00 223.00" xmlns="http://www.w3.org/2000/svg" xmlns:xlink="http://www.w3.org/1999/xlink">
<g id="graph0" class="graph" transform="scale(1 1) rotate(0) translate(4 219)">
<title>src/Game/Levels</title>
<g id="clust1" class="cluster">
<title>clusterdir_b43036362fece0f978c3c8156df55d19</title>
<g id="a_clust1"><a xlink:href="dir_b43036362fece0f978c3c8156df55d19.html" target="_top" xlink:title="Game">
<polygon fill="#ddddee" stroke="black" points="20,-136 20,-207 90,-207 90,-136 20,-136"/>
<text text-anchor="middle" x="55" y="-195" font-family="Helvetica,sans-Serif" font-size="10.00">Game</text>
</a>
</g>
</g>
<!-- dir_676624d39155e642f7363158200b00e6 -->
<g id="node1" class="node">
<title>dir_676624d39155e642f7363158200b00e6</title>
<g id="a_node1"><a xlink:href="dir_676624d39155e642f7363158200b00e6.html" target="_top" xlink:title="Levels">
<polygon fill="#eeeeff" stroke="black" points="82,-180 28,-180 28,-144 82,-144 82,-180"/>
<text text-anchor="middle" x="55" y="-159.5" font-family="Helvetica,sans-Serif" font-size="10.00">Levels</text>
</a>
</g>
</g>
<!-- dir_3ac9928fc2e7e2cbc53db7c1a11acda2 -->
<g id="node2" class="node">
<title>dir_3ac9928fc2e7e2cbc53db7c1a11acda2</title>
<g id="a_node2"><a xlink:href="dir_3ac9928fc2e7e2cbc53db7c1a11acda2.html" target="_top" xlink:title="Scripts">
<polygon fill="none" stroke="red" points="54,-108 0,-108 0,-72 54,-72 54,-108"/>
<text text-anchor="middle" x="27" y="-87.5" font-family="Helvetica,sans-Serif" font-size="10.00">Scripts</text>
</a>
</g>
</g>
<!-- dir_676624d39155e642f7363158200b00e6&#45;&gt;dir_3ac9928fc2e7e2cbc53db7c1a11acda2 -->
<g id="edge1" class="edge">
<title>dir_676624d39155e642f7363158200b00e6&#45;&gt;dir_3ac9928fc2e7e2cbc53db7c1a11acda2</title>
<path fill="none" stroke="black" d="M48.08,-143.7C44.93,-135.81 41.12,-126.3 37.62,-117.55"/>
<polygon fill="black" stroke="black" points="40.81,-116.09 33.84,-108.1 34.31,-118.69 40.81,-116.09"/>
<g id="a_edge1&#45;headlabel"><a xlink:href="dir_000003_000005.html" target="_top" xlink:title="2">
<text text-anchor="middle" x="44.78" y="-115.87" font-family="Helvetica,sans-Serif" font-size="10.00">2</text>
</a>
</g>
</g>
<!-- dir_55ef98a57036556dcc9a226e6204f780 -->
<g id="node3" class="node">
<title>dir_55ef98a57036556dcc9a226e6204f780</title>
<g id="a_node3"><a xlink:href="dir_55ef98a57036556dcc9a226e6204f780.html" target="_top" xlink:title="constants">
<polygon fill="none" stroke="black" points="83.5,-36 24.5,-36 24.5,0 83.5,0 83.5,-36"/>
<text text-anchor="middle" x="54" y="-15.5" font-family="Helvetica,sans-Serif" font-size="10.00">constants</text>
</a>
</g>
</g>
<!-- dir_676624d39155e642f7363158200b00e6&#45;&gt;dir_55ef98a57036556dcc9a226e6204f780 -->
<g id="edge2" class="edge">
<title>dir_676624d39155e642f7363158200b00e6&#45;&gt;dir_55ef98a57036556dcc9a226e6204f780</title>
<path fill="none" stroke="black" d="M58.25,-143.89C60.05,-133.54 62.09,-120.06 63,-108 64.2,-92.04 64.34,-87.94 63,-72 62.28,-63.5 60.93,-54.31 59.49,-46.01"/>
<polygon fill="black" stroke="black" points="62.91,-45.29 57.65,-36.09 56.03,-46.56 62.91,-45.29"/>
<g id="a_edge2&#45;headlabel"><a xlink:href="dir_000003_000001.html" target="_top" xlink:title="1">
<text text-anchor="middle" x="66.36" y="-45.81" font-family="Helvetica,sans-Serif" font-size="10.00">1</text>
</a>
</g>
</g>
<!-- dir_3ac9928fc2e7e2cbc53db7c1a11acda2&#45;&gt;dir_55ef98a57036556dcc9a226e6204f780 -->
<g id="edge3" class="edge">
<title>dir_3ac9928fc2e7e2cbc53db7c1a11acda2&#45;&gt;dir_55ef98a57036556dcc9a226e6204f780</title>
<path fill="none" stroke="black" d="M33.67,-71.7C36.71,-63.81 40.38,-54.3 43.76,-45.55"/>
<polygon fill="black" stroke="black" points="47.07,-46.69 47.4,-36.1 40.54,-44.17 47.07,-46.69"/>
<g id="a_edge3&#45;headlabel"><a xlink:href="dir_000005_000001.html" target="_top" xlink:title="2">
<text text-anchor="middle" x="48.42" y="-48.57" font-family="Helvetica,sans-Serif" font-size="10.00">2</text>
</a>
</g>
</g>
</g>
</svg>
