<?xml version="1.0" encoding="UTF-8" standalone="no"?>
<!DOCTYPE svg PUBLIC "-//W3C//DTD SVG 1.1//EN"
 "http://www.w3.org/Graphics/SVG/1.1/DTD/svg11.dtd">
<!-- Generated by graphviz version 2.44.0 ()
 -->
<!-- Title: src/Scripts/DynamicAnimationBehaviour.cpp Pages: 1 -->
<svg width="882pt" height="151pt"
 viewBox="0.00 0.00 882.00 151.00" xmlns="http://www.w3.org/2000/svg" xmlns:xlink="http://www.w3.org/1999/xlink">
<g id="graph0" class="graph" transform="scale(1 1) rotate(0) translate(4 147)">
<title>src/Scripts/DynamicAnimationBehaviour.cpp</title>
<!-- Node1 -->
<g id="node1" class="node">
<title>Node1</title>
<g id="a_node1"><a xlink:title=" ">
<polygon fill="#bfbfbf" stroke="black" points="387,-112.5 387,-142.5 535,-142.5 535,-112.5 387,-112.5"/>
<text text-anchor="start" x="395" y="-130.5" font-family="Helvetica,sans-Serif" font-size="10.00">src/Scripts/DynamicAnimation</text>
<text text-anchor="middle" x="461" y="-119.5" font-family="Helvetica,sans-Serif" font-size="10.00">Behaviour.cpp</text>
</a>
</g>
</g>
<!-- Node2 -->
<g id="node2" class="node">
<title>Node2</title>
<g id="a_node2"><a xlink:href="DynamicAnimationBehaviour_8hpp.html" target="_top" xlink:title=" ">
<polygon fill="none" stroke="black" points="41.5,-56.5 41.5,-75.5 200.5,-75.5 200.5,-56.5 41.5,-56.5"/>
<text text-anchor="middle" x="121" y="-63.5" font-family="Helvetica,sans-Serif" font-size="10.00">DynamicAnimationBehaviour.hpp</text>
</a>
</g>
</g>
<!-- Node1&#45;&gt;Node2 -->
<g id="edge1" class="edge">
<title>Node1&#45;&gt;Node2</title>
<path fill="none" stroke="midnightblue" d="M386.81,-113.52C324.6,-102.63 236.97,-87.29 179.6,-77.25"/>
<polygon fill="midnightblue" stroke="midnightblue" points="180.05,-73.78 169.6,-75.51 178.85,-80.68 180.05,-73.78"/>
</g>
<!-- Node5 -->
<g id="node5" class="node">
<title>Node5</title>
<g id="a_node5"><a xlink:title=" ">
<polygon fill="none" stroke="#bfbfbf" points="219,-56.5 219,-75.5 293,-75.5 293,-56.5 219,-56.5"/>
<text text-anchor="middle" x="256" y="-63.5" font-family="Helvetica,sans-Serif" font-size="10.00">Animator.hpp</text>
</a>
</g>
</g>
<!-- Node1&#45;&gt;Node5 -->
<g id="edge4" class="edge">
<title>Node1&#45;&gt;Node5</title>
<path fill="none" stroke="midnightblue" d="M412.68,-112.47C376.85,-102.08 328.62,-88.08 295.18,-78.37"/>
<polygon fill="midnightblue" stroke="midnightblue" points="295.89,-74.93 285.31,-75.51 293.94,-81.66 295.89,-74.93"/>
</g>
<!-- Node6 -->
<g id="node6" class="node">
<title>Node6</title>
<g id="a_node6"><a xlink:title=" ">
<polygon fill="none" stroke="#bfbfbf" points="311.5,-56.5 311.5,-75.5 394.5,-75.5 394.5,-56.5 311.5,-56.5"/>
<text text-anchor="middle" x="353" y="-63.5" font-family="Helvetica,sans-Serif" font-size="10.00">BoxCollider.hpp</text>
</a>
</g>
</g>
<!-- Node1&#45;&gt;Node6 -->
<g id="edge5" class="edge">
<title>Node1&#45;&gt;Node6</title>
<path fill="none" stroke="midnightblue" d="M435.41,-112.4C417.93,-102.77 394.91,-90.09 377.64,-80.58"/>
<polygon fill="midnightblue" stroke="midnightblue" points="379.16,-77.42 368.71,-75.66 375.78,-83.55 379.16,-77.42"/>
</g>
<!-- Node7 -->
<g id="node7" class="node">
<title>Node7</title>
<g id="a_node7"><a xlink:title=" ">
<polygon fill="none" stroke="#bfbfbf" points="413,-56.5 413,-75.5 509,-75.5 509,-56.5 413,-56.5"/>
<text text-anchor="middle" x="461" y="-63.5" font-family="Helvetica,sans-Serif" font-size="10.00">Engine/Engine.hpp</text>
</a>
</g>
</g>
<!-- Node1&#45;&gt;Node7 -->
<g id="edge6" class="edge">
<title>Node1&#45;&gt;Node7</title>
<path fill="none" stroke="midnightblue" d="M461,-112.4C461,-104.47 461,-94.46 461,-85.86"/>
<polygon fill="midnightblue" stroke="midnightblue" points="464.5,-85.66 461,-75.66 457.5,-85.66 464.5,-85.66"/>
</g>
<!-- Node8 -->
<g id="node8" class="node">
<title>Node8</title>
<g id="a_node8"><a xlink:title=" ">
<polygon fill="none" stroke="#bfbfbf" points="527.5,-56.5 527.5,-75.5 616.5,-75.5 616.5,-56.5 527.5,-56.5"/>
<text text-anchor="middle" x="572" y="-63.5" font-family="Helvetica,sans-Serif" font-size="10.00">GameObject.hpp</text>
</a>
</g>
</g>
<!-- Node1&#45;&gt;Node8 -->
<g id="edge7" class="edge">
<title>Node1&#45;&gt;Node8</title>
<path fill="none" stroke="midnightblue" d="M487.31,-112.4C505.26,-102.77 528.92,-90.09 546.67,-80.58"/>
<polygon fill="midnightblue" stroke="midnightblue" points="548.69,-83.47 555.85,-75.66 545.38,-77.3 548.69,-83.47"/>
</g>
<!-- Node9 -->
<g id="node9" class="node">
<title>Node9</title>
<g id="a_node9"><a xlink:title=" ">
<polygon fill="none" stroke="#bfbfbf" points="634.5,-56.5 634.5,-75.5 777.5,-75.5 777.5,-56.5 634.5,-56.5"/>
<text text-anchor="middle" x="706" y="-63.5" font-family="Helvetica,sans-Serif" font-size="10.00">Physics/PlayerRigidBody.hpp</text>
</a>
</g>
</g>
<!-- Node1&#45;&gt;Node9 -->
<g id="edge8" class="edge">
<title>Node1&#45;&gt;Node9</title>
<path fill="none" stroke="midnightblue" d="M518.75,-112.47C562.31,-101.9 621.2,-87.59 661.22,-77.87"/>
<polygon fill="midnightblue" stroke="midnightblue" points="662.08,-81.27 670.97,-75.51 660.43,-74.47 662.08,-81.27"/>
</g>
<!-- Node10 -->
<g id="node10" class="node">
<title>Node10</title>
<g id="a_node10"><a xlink:title=" ">
<polygon fill="none" stroke="#bfbfbf" points="796,-56.5 796,-75.5 874,-75.5 874,-56.5 796,-56.5"/>
<text text-anchor="middle" x="835" y="-63.5" font-family="Helvetica,sans-Serif" font-size="10.00">RigidBody.hpp</text>
</a>
</g>
</g>
<!-- Node1&#45;&gt;Node10 -->
<g id="edge9" class="edge">
<title>Node1&#45;&gt;Node10</title>
<path fill="none" stroke="midnightblue" d="M535.23,-115.68C599.05,-106.23 693.82,-91.82 785.93,-76.14"/>
<polygon fill="midnightblue" stroke="midnightblue" points="786.72,-79.56 795.99,-74.42 785.54,-72.66 786.72,-79.56"/>
</g>
<!-- Node3 -->
<g id="node3" class="node">
<title>Node3</title>
<g id="a_node3"><a xlink:title=" ">
<polygon fill="none" stroke="#bfbfbf" points="0,-0.5 0,-19.5 104,-19.5 104,-0.5 0,-0.5"/>
<text text-anchor="middle" x="52" y="-7.5" font-family="Helvetica,sans-Serif" font-size="10.00">BehaviourScript.hpp</text>
</a>
</g>
</g>
<!-- Node2&#45;&gt;Node3 -->
<g id="edge2" class="edge">
<title>Node2&#45;&gt;Node3</title>
<path fill="none" stroke="midnightblue" d="M109.91,-56.32C99.51,-48.18 83.74,-35.84 71.28,-26.09"/>
<polygon fill="midnightblue" stroke="midnightblue" points="73.32,-23.24 63.29,-19.83 69.01,-28.75 73.32,-23.24"/>
</g>
<!-- Node4 -->
<g id="node4" class="node">
<title>Node4</title>
<g id="a_node4"><a xlink:title=" ">
<polygon fill="none" stroke="#bfbfbf" points="122.5,-0.5 122.5,-19.5 259.5,-19.5 259.5,-0.5 122.5,-0.5"/>
<text text-anchor="middle" x="191" y="-7.5" font-family="Helvetica,sans-Serif" font-size="10.00">Texture/AnimatedSprite.hpp</text>
</a>
</g>
</g>
<!-- Node2&#45;&gt;Node4 -->
<g id="edge3" class="edge">
<title>Node2&#45;&gt;Node4</title>
<path fill="none" stroke="midnightblue" d="M132.25,-56.32C142.8,-48.18 158.8,-35.84 171.44,-26.09"/>
<polygon fill="midnightblue" stroke="midnightblue" points="173.77,-28.71 179.55,-19.83 169.49,-23.17 173.77,-28.71"/>
</g>
</g>
</svg>
