<?xml version="1.0" encoding="UTF-8" standalone="no"?>
<!DOCTYPE svg PUBLIC "-//W3C//DTD SVG 1.1//EN"
 "http://www.w3.org/Graphics/SVG/1.1/DTD/svg11.dtd">
<!-- Generated by graphviz version 2.44.0 ()
 -->
<!-- Title: src/Scripts/DynamicAnimationBehaviour.hpp Pages: 1 -->
<svg width="596pt" height="106pt"
 viewBox="0.00 0.00 595.50 106.00" xmlns="http://www.w3.org/2000/svg" xmlns:xlink="http://www.w3.org/1999/xlink">
<g id="graph0" class="graph" transform="scale(1 1) rotate(0) translate(4 102)">
<title>src/Scripts/DynamicAnimationBehaviour.hpp</title>
<!-- Node1 -->
<g id="node1" class="node">
<title>Node1</title>
<g id="a_node1"><a xlink:title=" ">
<polygon fill="#bfbfbf" stroke="black" points="200.5,-67.5 200.5,-97.5 348.5,-97.5 348.5,-67.5 200.5,-67.5"/>
<text text-anchor="start" x="208.5" y="-85.5" font-family="Helvetica,sans-Serif" font-size="10.00">src/Scripts/DynamicAnimation</text>
<text text-anchor="middle" x="274.5" y="-74.5" font-family="Helvetica,sans-Serif" font-size="10.00">Behaviour.hpp</text>
</a>
</g>
</g>
<!-- Node2 -->
<g id="node2" class="node">
<title>Node2</title>
<g id="a_node2"><a xlink:href="Game_8cpp.html" target="_top" xlink:title=" ">
<polygon fill="none" stroke="black" points="0,-6 0,-25 107,-25 107,-6 0,-6"/>
<text text-anchor="middle" x="53.5" y="-13" font-family="Helvetica,sans-Serif" font-size="10.00">src/Game/Game.cpp</text>
</a>
</g>
</g>
<!-- Node1&#45;&gt;Node2 -->
<g id="edge1" class="edge">
<title>Node1&#45;&gt;Node2</title>
<path fill="none" stroke="midnightblue" d="M217.01,-64.59C173.85,-51.9 116.55,-35.04 82.5,-25.03"/>
<polygon fill="midnightblue" stroke="midnightblue" points="216.24,-68.01 226.82,-67.48 218.21,-61.3 216.24,-68.01"/>
</g>
<!-- Node3 -->
<g id="node3" class="node">
<title>Node3</title>
<g id="a_node3"><a xlink:href="Level1_8cpp.html" target="_top" xlink:title=" ">
<polygon fill="none" stroke="black" points="125.5,-6 125.5,-25 267.5,-25 267.5,-6 125.5,-6"/>
<text text-anchor="middle" x="196.5" y="-13" font-family="Helvetica,sans-Serif" font-size="10.00">src/Game/Levels/Level1.cpp</text>
</a>
</g>
</g>
<!-- Node1&#45;&gt;Node3 -->
<g id="edge2" class="edge">
<title>Node1&#45;&gt;Node3</title>
<path fill="none" stroke="midnightblue" d="M249.51,-60.67C235.1,-48.67 217.76,-34.22 206.93,-25.19"/>
<polygon fill="midnightblue" stroke="midnightblue" points="247.65,-63.68 257.58,-67.4 252.13,-58.31 247.65,-63.68"/>
</g>
<!-- Node4 -->
<g id="node4" class="node">
<title>Node4</title>
<g id="a_node4"><a xlink:href="NetworkingClient_8cpp.html" target="_top" xlink:title=" ">
<polygon fill="none" stroke="black" points="286,-0.5 286,-30.5 421,-30.5 421,-0.5 286,-0.5"/>
<text text-anchor="start" x="294" y="-18.5" font-family="Helvetica,sans-Serif" font-size="10.00">src/Networking/Networking</text>
<text text-anchor="middle" x="353.5" y="-7.5" font-family="Helvetica,sans-Serif" font-size="10.00">Client.cpp</text>
</a>
</g>
</g>
<!-- Node1&#45;&gt;Node4 -->
<g id="edge3" class="edge">
<title>Node1&#45;&gt;Node4</title>
<path fill="none" stroke="midnightblue" d="M299.56,-60.88C311.56,-51.01 325.63,-39.43 336.39,-30.58"/>
<polygon fill="midnightblue" stroke="midnightblue" points="297.14,-58.34 291.64,-67.4 301.59,-63.75 297.14,-58.34"/>
</g>
<!-- Node5 -->
<g id="node5" class="node">
<title>Node5</title>
<g id="a_node5"><a xlink:href="DynamicAnimationBehaviour_8cpp.html" target="_top" xlink:title=" ">
<polygon fill="none" stroke="black" points="439.5,-0.5 439.5,-30.5 587.5,-30.5 587.5,-0.5 439.5,-0.5"/>
<text text-anchor="start" x="447.5" y="-18.5" font-family="Helvetica,sans-Serif" font-size="10.00">src/Scripts/DynamicAnimation</text>
<text text-anchor="middle" x="513.5" y="-7.5" font-family="Helvetica,sans-Serif" font-size="10.00">Behaviour.cpp</text>
</a>
</g>
</g>
<!-- Node1&#45;&gt;Node5 -->
<g id="edge4" class="edge">
<title>Node1&#45;&gt;Node5</title>
<path fill="none" stroke="midnightblue" d="M335.72,-64.85C374.69,-54.25 424.6,-40.68 461.62,-30.61"/>
<polygon fill="midnightblue" stroke="midnightblue" points="334.8,-61.47 326.07,-67.48 336.63,-68.23 334.8,-61.47"/>
</g>
</g>
</svg>
