<svg xmlns="http://www.w3.org/2000/svg" xmlns:xlink="http://www.w3.org/1999/xlink" width="419pt" height="140pt" viewBox="0 0 418.5 140"><g id="graph0" class="graph" transform="scale(1 1) rotate(0) translate(4 136)"><title>src/Scripts/EnemyAttackBehaviour.cpp</title><g id="node1" class="node"><title>Node1</title><g id="a_node1"><a><polygon fill="#bfbfbf" stroke="#000" points="136 -112.5 136 -131.5 322 -131.5 322 -112.5 136 -112.5"/><text x="229" y="-119.5" font-family="Helvetica,sans-Serif" font-size="10" text-anchor="middle">src/Scripts/EnemyAttackBehaviour.cpp</text></a></g></g><g id="node2" class="node"><title>Node2</title><g id="a_node2"><a target="_top" xlink:href="EnemyAttackBehaviour_8hpp.html"><polygon fill="none" stroke="#000" points="0 -56.5 0 -75.5 136 -75.5 136 -56.5 0 -56.5"/><text x="68" y="-63.5" font-family="Helvetica,sans-Serif" font-size="10" text-anchor="middle">EnemyAttackBehaviour.hpp</text></a></g></g><g id="edge1" class="edge"><title>Node1-&gt;Node2</title><path fill="none" stroke="#191970" d="M203.49,-112.44C176.4,-103.36 133.41,-88.94 103.13,-78.78"/><polygon fill="#191970" stroke="#191970" points="103.99 -75.38 93.39 -75.52 101.76 -82.01 103.99 -75.38"/></g><g id="node4" class="node"><title>Node4</title><g id="a_node4"><a><polygon fill="none" stroke="#bfbfbf" points="154.5 -56.5 154.5 -75.5 303.5 -75.5 303.5 -56.5 154.5 -56.5"/><text x="229" y="-63.5" font-family="Helvetica,sans-Serif" font-size="10" text-anchor="middle">Physics/ForceDrivenEntity.hpp</text></a></g></g><g id="edge3" class="edge"><title>Node1-&gt;Node4</title><path fill="none" stroke="#191970" d="M229,-112.08C229,-105.01 229,-94.86 229,-85.99"/><polygon fill="#191970" stroke="#191970" points="232.5 -85.75 229 -75.75 225.5 -85.75 232.5 -85.75"/></g><g id="node5" class="node"><title>Node5</title><g id="a_node5"><a><polygon fill="none" stroke="#bfbfbf" points="321.5 -56.5 321.5 -75.5 410.5 -75.5 410.5 -56.5 321.5 -56.5"/><text x="366" y="-63.5" font-family="Helvetica,sans-Serif" font-size="10" text-anchor="middle">GameObject.hpp</text></a></g></g><g id="edge4" class="edge"><title>Node1-&gt;Node5</title><path fill="none" stroke="#191970" d="M250.71,-112.44C273.35,-103.52 309.07,-89.44 334.75,-79.32"/><polygon fill="#191970" stroke="#191970" points="336.37 -82.44 344.39 -75.52 333.81 -75.93 336.37 -82.44"/></g><g id="node3" class="node"><title>Node3</title><g id="a_node3"><a><polygon fill="none" stroke="#bfbfbf" points="16 -.5 16 -19.5 120 -19.5 120 -.5 16 -.5"/><text x="68" y="-7.5" font-family="Helvetica,sans-Serif" font-size="10" text-anchor="middle">BehaviourScript.hpp</text></a></g></g><g id="edge2" class="edge"><title>Node2-&gt;Node3</title><path fill="none" stroke="#191970" d="M68,-56.08C68,-49.01 68,-38.86 68,-29.99"/><polygon fill="#191970" stroke="#191970" points="71.5 -29.75 68 -19.75 64.5 -29.75 71.5 -29.75"/></g></g></svg>