<svg xmlns="http://www.w3.org/2000/svg" xmlns:xlink="http://www.w3.org/1999/xlink" width="625pt" height="380" viewBox="0 0 625 285"><g id="graph0" class="graph" transform="scale(1 1) rotate(0) translate(4 281)"><title>src/Scripts/FlagBehaviour.cpp</title><g id="node1" class="node"><title>Node1</title><g id="a_node1"><a><polygon fill="#bfbfbf" stroke="#000" points="125 -257.5 125 -276.5 272 -276.5 272 -257.5 125 -257.5"/><text x="198.5" y="-264.5" font-family="Helvetica,sans-Serif" font-size="10" text-anchor="middle">src/Scripts/FlagBehaviour.cpp</text></a></g></g><g id="node2" class="node"><title>Node2</title><g id="a_node2"><a target="_top" xlink:href="FlagBehaviour_8hpp.html"><polygon fill="none" stroke="#000" points="265 -201.5 265 -220.5 362 -220.5 362 -201.5 265 -201.5"/><text x="313.5" y="-208.5" font-family="Helvetica,sans-Serif" font-size="10" text-anchor="middle">FlagBehaviour.hpp</text></a></g></g><g id="edge1" class="edge"><title>Node1-&gt;Node2</title><path fill="none" stroke="#191970" d="M216.72,-257.44C235.4,-248.68 264.66,-234.94 286.12,-224.86"/><polygon fill="#191970" stroke="#191970" points="287.8 -227.93 295.36 -220.52 284.82 -221.6 287.8 -227.93"/></g><g id="node4" class="node"><title>Node4</title><g id="a_node4"><a><polygon fill="none" stroke="#bfbfbf" points="43 -201.5 43 -220.5 132 -220.5 132 -201.5 43 -201.5"/><text x="87.5" y="-208.5" font-family="Helvetica,sans-Serif" font-size="10" text-anchor="middle">GameObject.hpp</text></a></g></g><g id="edge3" class="edge"><title>Node1-&gt;Node4</title><path fill="none" stroke="#191970" d="M180.67,-257.32C162.78,-248.62 135.02,-235.12 114.45,-225.11"/><polygon fill="#191970" stroke="#191970" points="115.81 -221.88 105.29 -220.65 112.75 -228.18 115.81 -221.88"/></g><g id="node5" class="node"><title>Node5</title><g id="a_node5"><a><polygon fill="none" stroke="#bfbfbf" points="150.5 -201.5 150.5 -220.5 246.5 -220.5 246.5 -201.5 150.5 -201.5"/><text x="198.5" y="-208.5" font-family="Helvetica,sans-Serif" font-size="10" text-anchor="middle">Engine/Engine.hpp</text></a></g></g><g id="edge4" class="edge"><title>Node1-&gt;Node5</title><path fill="none" stroke="#191970" d="M198.5,-257.08C198.5,-250.01 198.5,-239.86 198.5,-230.99"/><polygon fill="#191970" stroke="#191970" points="202 -230.75 198.5 -220.75 195 -230.75 202 -230.75"/></g><g id="node6" class="node"><title>Node6</title><g id="a_node6"><a><polygon fill="none" stroke="#bfbfbf" points="0 -.5 0 -30.5 95 -30.5 95 -.5 0 -.5"/><text x="8" y="-18.5" font-family="Helvetica,sans-Serif" font-size="10" text-anchor="start">boost/serialization</text><text x="47.5" y="-7.5" font-family="Helvetica,sans-Serif" font-size="10" text-anchor="middle">/export.hpp</text></a></g></g><g id="edge5" class="edge"><title>Node1-&gt;Node6</title><path fill="none" stroke="#191970" d="M138.84,-257.45C97.06,-250.1 46.48,-237.99 33.5,-221 -7.41,-167.44 19.87,-81.21 36.84,-39.96"/><polygon fill="#191970" stroke="#191970" points="40.08 -41.28 40.78 -30.71 33.64 -38.54 40.08 -41.28"/></g><g id="node7" class="node"><title>Node7</title><g id="a_node7"><a target="_top" xlink:href="MarioBehaviour_8hpp.html"><polygon fill="none" stroke="#000" points="379.5 -201.5 379.5 -220.5 481.5 -220.5 481.5 -201.5 379.5 -201.5"/><text x="430.5" y="-208.5" font-family="Helvetica,sans-Serif" font-size="10" text-anchor="middle">MarioBehaviour.hpp</text></a></g></g><g id="edge6" class="edge"><title>Node1-&gt;Node7</title><path fill="none" stroke="#191970" d="M235.26,-257.44C275.56,-248.06 340.31,-232.99 384.08,-222.8"/><polygon fill="#191970" stroke="#191970" points="384.96 -226.19 393.91 -220.52 383.38 -219.37 384.96 -226.19"/></g><g id="node3" class="node"><title>Node3</title><g id="a_node3"><a><polygon fill="none" stroke="#bfbfbf" points="261.5 -140 261.5 -159 365.5 -159 365.5 -140 261.5 -140"/><text x="313.5" y="-147" font-family="Helvetica,sans-Serif" font-size="10" text-anchor="middle">BehaviourScript.hpp</text></a></g></g><g id="edge2" class="edge"><title>Node2-&gt;Node3</title><path fill="none" stroke="#191970" d="M313.5,-201.48C313.5,-193.08 313.5,-179.98 313.5,-169.16"/><polygon fill="#191970" stroke="#191970" points="317 -169.01 313.5 -159.01 310 -169.01 317 -169.01"/></g><g id="edge7" class="edge"><title>Node7-&gt;Node3</title><path fill="none" stroke="#191970" d="M413.74,-201.48C394.28,-191.58 361.95,-175.14 339.29,-163.62"/><polygon fill="#191970" stroke="#191970" points="340.73 -160.42 330.23 -159.01 337.56 -166.66 340.73 -160.42"/></g><g id="node8" class="node"><title>Node8</title><g id="a_node8"><a target="_top" xlink:href="MarioState_8hpp.html"><polygon fill="none" stroke="#000" points="342 -67.5 342 -97.5 445 -97.5 445 -67.5 342 -67.5"/><text x="350" y="-85.5" font-family="Helvetica,sans-Serif" font-size="10" text-anchor="start">Scripts/MarioStates</text><text x="393.5" y="-74.5" font-family="Helvetica,sans-Serif" font-size="10" text-anchor="middle">/MarioState.hpp</text></a></g></g><g id="edge8" class="edge"><title>Node7-&gt;Node8</title><path fill="none" stroke="#191970" d="M426.51,-201.18C422.56,-192.21 416.54,-177.84 412.5,-165 406.49,-145.9 401.45,-123.75 398.07,-107.36"/><polygon fill="#191970" stroke="#191970" points="401.49 -106.63 396.1 -97.52 394.63 -108.01 401.49 -106.63"/></g><g id="node13" class="node"><title>Node13</title><g id="a_node13"><a target="_top" xlink:href="SmallMarioState_8hpp.html"><polygon fill="none" stroke="#000" points="421.5 -134.5 421.5 -164.5 531.5 -164.5 531.5 -134.5 421.5 -134.5"/><text x="429.5" y="-152.5" font-family="Helvetica,sans-Serif" font-size="10" text-anchor="start">Scripts/MarioStates</text><text x="476.5" y="-141.5" font-family="Helvetica,sans-Serif" font-size="10" text-anchor="middle">/SmallMarioState.hpp</text></a></g></g><g id="edge14" class="edge"><title>Node7-&gt;Node13</title><path fill="none" stroke="#191970" d="M437.09,-201.48C442.91,-193.94 451.66,-182.63 459.44,-172.57"/><polygon fill="#191970" stroke="#191970" points="462.31 -174.58 465.66 -164.52 456.77 -170.29 462.31 -174.58"/></g><g id="edge10" class="edge"><title>Node8-&gt;Node6</title><path fill="none" stroke="#191970" d="M341.7,-71.77C278.35,-59.87 171.44,-39.78 105.42,-27.38"/><polygon fill="#191970" stroke="#191970" points="105.67 -23.87 95.19 -25.46 104.37 -30.75 105.67 -23.87"/></g><g id="node9" class="node"><title>Node9</title><g id="a_node9"><a><polygon fill="none" stroke="#bfbfbf" points="522 -.5 522 -30.5 617 -30.5 617 -.5 522 -.5"/><text x="530" y="-18.5" font-family="Helvetica,sans-Serif" font-size="10" text-anchor="start">boost/serialization</text><text x="569.5" y="-7.5" font-family="Helvetica,sans-Serif" font-size="10" text-anchor="middle">/access.hpp</text></a></g></g><g id="edge9" class="edge"><title>Node8-&gt;Node9</title><path fill="none" stroke="#191970" d="M431.69,-67.4C458.1,-57.64 493.43,-44.59 521.7,-34.15"/><polygon fill="#191970" stroke="#191970" points="523.22 -37.32 531.39 -30.58 520.79 -30.76 523.22 -37.32"/></g><g id="node10" class="node"><title>Node10</title><g id="a_node10"><a><polygon fill="none" stroke="#bfbfbf" points="179 -.5 179 -30.5 274 -30.5 274 -.5 179 -.5"/><text x="187" y="-18.5" font-family="Helvetica,sans-Serif" font-size="10" text-anchor="start">boost/serialization</text><text x="226.5" y="-7.5" font-family="Helvetica,sans-Serif" font-size="10" text-anchor="middle">/shared_ptr.hpp</text></a></g></g><g id="edge11" class="edge"><title>Node8-&gt;Node10</title><path fill="none" stroke="#191970" d="M357.26,-67.4C332.32,-57.69 298.97,-44.71 272.2,-34.29"/><polygon fill="#191970" stroke="#191970" points="273.25 -30.94 262.67 -30.58 270.72 -37.47 273.25 -30.94"/></g><g id="node11" class="node"><title>Node11</title><g id="a_node11"><a><polygon fill="none" stroke="#bfbfbf" points="292 -6 292 -25 429 -25 429 -6 292 -6"/><text x="360.5" y="-13" font-family="Helvetica,sans-Serif" font-size="10" text-anchor="middle">Texture/AnimatedSprite.hpp</text></a></g></g><g id="edge12" class="edge"><title>Node8-&gt;Node11</title><path fill="none" stroke="#191970" d="M386.34,-67.4C381.4,-57.66 374.79,-44.65 369.49,-34.21"/><polygon fill="#191970" stroke="#191970" points="372.56 -32.53 364.91 -25.19 366.32 -35.7 372.56 -32.53"/></g><g id="node12" class="node"><title>Node12</title><g id="a_node12"><a><polygon fill="none" stroke="#bfbfbf" points="447 -6 447 -25 504 -25 504 -6 447 -6"/><text x="475.5" y="-13" font-family="Helvetica,sans-Serif" font-size="10" text-anchor="middle">Point.hpp</text></a></g></g><g id="edge13" class="edge"><title>Node8-&gt;Node12</title><path fill="none" stroke="#191970" d="M411.29,-67.4C424.58,-56.86 442.73,-42.48 456.34,-31.69"/><polygon fill="#191970" stroke="#191970" points="458.87 -34.15 464.53 -25.19 454.52 -28.66 458.87 -34.15"/></g><g id="edge15" class="edge"><title>Node13-&gt;Node8</title><path fill="none" stroke="#191970" d="M458.49,-134.4C447.07,-125.45 432.11,-113.74 419.42,-103.8"/><polygon fill="#191970" stroke="#191970" points="421.51 -100.99 411.47 -97.58 417.19 -106.5 421.51 -100.99"/></g></g></svg>