<?xml version="1.0" encoding="UTF-8" standalone="no"?>
<!DOCTYPE svg PUBLIC "-//W3C//DTD SVG 1.1//EN"
 "http://www.w3.org/Graphics/SVG/1.1/DTD/svg11.dtd">
<!-- Generated by graphviz version 2.44.0 ()
 -->
<!-- Title: src/Scripts/FlagBehaviour.cpp Pages: 1 -->
<svg width="625pt" height="285pt"
 viewBox="0.00 0.00 625.00 285.00" xmlns="http://www.w3.org/2000/svg" xmlns:xlink="http://www.w3.org/1999/xlink">
<g id="graph0" class="graph" transform="scale(1 1) rotate(0) translate(4 281)">
<title>src/Scripts/FlagBehaviour.cpp</title>
<!-- Node1 -->
<g id="node1" class="node">
<title>Node1</title>
<g id="a_node1"><a xlink:title=" ">
<polygon fill="#bfbfbf" stroke="black" points="125,-257.5 125,-276.5 272,-276.5 272,-257.5 125,-257.5"/>
<text text-anchor="middle" x="198.5" y="-264.5" font-family="Helvetica,sans-Serif" font-size="10.00">src/Scripts/FlagBehaviour.cpp</text>
</a>
</g>
</g>
<!-- Node2 -->
<g id="node2" class="node">
<title>Node2</title>
<g id="a_node2"><a xlink:href="FlagBehaviour_8hpp.html" target="_top" xlink:title=" ">
<polygon fill="none" stroke="black" points="265,-201.5 265,-220.5 362,-220.5 362,-201.5 265,-201.5"/>
<text text-anchor="middle" x="313.5" y="-208.5" font-family="Helvetica,sans-Serif" font-size="10.00">FlagBehaviour.hpp</text>
</a>
</g>
</g>
<!-- Node1&#45;&gt;Node2 -->
<g id="edge1" class="edge">
<title>Node1&#45;&gt;Node2</title>
<path fill="none" stroke="midnightblue" d="M216.72,-257.44C235.4,-248.68 264.66,-234.94 286.12,-224.86"/>
<polygon fill="midnightblue" stroke="midnightblue" points="287.8,-227.93 295.36,-220.52 284.82,-221.6 287.8,-227.93"/>
</g>
<!-- Node4 -->
<g id="node4" class="node">
<title>Node4</title>
<g id="a_node4"><a xlink:title=" ">
<polygon fill="none" stroke="#bfbfbf" points="43,-201.5 43,-220.5 132,-220.5 132,-201.5 43,-201.5"/>
<text text-anchor="middle" x="87.5" y="-208.5" font-family="Helvetica,sans-Serif" font-size="10.00">GameObject.hpp</text>
</a>
</g>
</g>
<!-- Node1&#45;&gt;Node4 -->
<g id="edge3" class="edge">
<title>Node1&#45;&gt;Node4</title>
<path fill="none" stroke="midnightblue" d="M180.67,-257.32C162.78,-248.62 135.02,-235.12 114.45,-225.11"/>
<polygon fill="midnightblue" stroke="midnightblue" points="115.81,-221.88 105.29,-220.65 112.75,-228.18 115.81,-221.88"/>
</g>
<!-- Node5 -->
<g id="node5" class="node">
<title>Node5</title>
<g id="a_node5"><a xlink:title=" ">
<polygon fill="none" stroke="#bfbfbf" points="150.5,-201.5 150.5,-220.5 246.5,-220.5 246.5,-201.5 150.5,-201.5"/>
<text text-anchor="middle" x="198.5" y="-208.5" font-family="Helvetica,sans-Serif" font-size="10.00">Engine/Engine.hpp</text>
</a>
</g>
</g>
<!-- Node1&#45;&gt;Node5 -->
<g id="edge4" class="edge">
<title>Node1&#45;&gt;Node5</title>
<path fill="none" stroke="midnightblue" d="M198.5,-257.08C198.5,-250.01 198.5,-239.86 198.5,-230.99"/>
<polygon fill="midnightblue" stroke="midnightblue" points="202,-230.75 198.5,-220.75 195,-230.75 202,-230.75"/>
</g>
<!-- Node6 -->
<g id="node6" class="node">
<title>Node6</title>
<g id="a_node6"><a xlink:title=" ">
<polygon fill="none" stroke="#bfbfbf" points="0,-0.5 0,-30.5 95,-30.5 95,-0.5 0,-0.5"/>
<text text-anchor="start" x="8" y="-18.5" font-family="Helvetica,sans-Serif" font-size="10.00">boost/serialization</text>
<text text-anchor="middle" x="47.5" y="-7.5" font-family="Helvetica,sans-Serif" font-size="10.00">/export.hpp</text>
</a>
</g>
</g>
<!-- Node1&#45;&gt;Node6 -->
<g id="edge5" class="edge">
<title>Node1&#45;&gt;Node6</title>
<path fill="none" stroke="midnightblue" d="M138.84,-257.45C97.06,-250.1 46.48,-237.99 33.5,-221 -7.41,-167.44 19.87,-81.21 36.84,-39.96"/>
<polygon fill="midnightblue" stroke="midnightblue" points="40.08,-41.28 40.78,-30.71 33.64,-38.54 40.08,-41.28"/>
</g>
<!-- Node7 -->
<g id="node7" class="node">
<title>Node7</title>
<g id="a_node7"><a xlink:href="MarioBehaviour_8hpp.html" target="_top" xlink:title=" ">
<polygon fill="none" stroke="black" points="379.5,-201.5 379.5,-220.5 481.5,-220.5 481.5,-201.5 379.5,-201.5"/>
<text text-anchor="middle" x="430.5" y="-208.5" font-family="Helvetica,sans-Serif" font-size="10.00">MarioBehaviour.hpp</text>
</a>
</g>
</g>
<!-- Node1&#45;&gt;Node7 -->
<g id="edge6" class="edge">
<title>Node1&#45;&gt;Node7</title>
<path fill="none" stroke="midnightblue" d="M235.26,-257.44C275.56,-248.06 340.31,-232.99 384.08,-222.8"/>
<polygon fill="midnightblue" stroke="midnightblue" points="384.96,-226.19 393.91,-220.52 383.38,-219.37 384.96,-226.19"/>
</g>
<!-- Node3 -->
<g id="node3" class="node">
<title>Node3</title>
<g id="a_node3"><a xlink:title=" ">
<polygon fill="none" stroke="#bfbfbf" points="261.5,-140 261.5,-159 365.5,-159 365.5,-140 261.5,-140"/>
<text text-anchor="middle" x="313.5" y="-147" font-family="Helvetica,sans-Serif" font-size="10.00">BehaviourScript.hpp</text>
</a>
</g>
</g>
<!-- Node2&#45;&gt;Node3 -->
<g id="edge2" class="edge">
<title>Node2&#45;&gt;Node3</title>
<path fill="none" stroke="midnightblue" d="M313.5,-201.48C313.5,-193.08 313.5,-179.98 313.5,-169.16"/>
<polygon fill="midnightblue" stroke="midnightblue" points="317,-169.01 313.5,-159.01 310,-169.01 317,-169.01"/>
</g>
<!-- Node7&#45;&gt;Node3 -->
<g id="edge7" class="edge">
<title>Node7&#45;&gt;Node3</title>
<path fill="none" stroke="midnightblue" d="M413.74,-201.48C394.28,-191.58 361.95,-175.14 339.29,-163.62"/>
<polygon fill="midnightblue" stroke="midnightblue" points="340.73,-160.42 330.23,-159.01 337.56,-166.66 340.73,-160.42"/>
</g>
<!-- Node8 -->
<g id="node8" class="node">
<title>Node8</title>
<g id="a_node8"><a xlink:href="MarioState_8hpp.html" target="_top" xlink:title=" ">
<polygon fill="none" stroke="black" points="342,-67.5 342,-97.5 445,-97.5 445,-67.5 342,-67.5"/>
<text text-anchor="start" x="350" y="-85.5" font-family="Helvetica,sans-Serif" font-size="10.00">Scripts/MarioStates</text>
<text text-anchor="middle" x="393.5" y="-74.5" font-family="Helvetica,sans-Serif" font-size="10.00">/MarioState.hpp</text>
</a>
</g>
</g>
<!-- Node7&#45;&gt;Node8 -->
<g id="edge8" class="edge">
<title>Node7&#45;&gt;Node8</title>
<path fill="none" stroke="midnightblue" d="M426.51,-201.18C422.56,-192.21 416.54,-177.84 412.5,-165 406.49,-145.9 401.45,-123.75 398.07,-107.36"/>
<polygon fill="midnightblue" stroke="midnightblue" points="401.49,-106.63 396.1,-97.52 394.63,-108.01 401.49,-106.63"/>
</g>
<!-- Node13 -->
<g id="node13" class="node">
<title>Node13</title>
<g id="a_node13"><a xlink:href="SmallMarioState_8hpp.html" target="_top" xlink:title=" ">
<polygon fill="none" stroke="black" points="421.5,-134.5 421.5,-164.5 531.5,-164.5 531.5,-134.5 421.5,-134.5"/>
<text text-anchor="start" x="429.5" y="-152.5" font-family="Helvetica,sans-Serif" font-size="10.00">Scripts/MarioStates</text>
<text text-anchor="middle" x="476.5" y="-141.5" font-family="Helvetica,sans-Serif" font-size="10.00">/SmallMarioState.hpp</text>
</a>
</g>
</g>
<!-- Node7&#45;&gt;Node13 -->
<g id="edge14" class="edge">
<title>Node7&#45;&gt;Node13</title>
<path fill="none" stroke="midnightblue" d="M437.09,-201.48C442.91,-193.94 451.66,-182.63 459.44,-172.57"/>
<polygon fill="midnightblue" stroke="midnightblue" points="462.31,-174.58 465.66,-164.52 456.77,-170.29 462.31,-174.58"/>
</g>
<!-- Node8&#45;&gt;Node6 -->
<g id="edge10" class="edge">
<title>Node8&#45;&gt;Node6</title>
<path fill="none" stroke="midnightblue" d="M341.7,-71.77C278.35,-59.87 171.44,-39.78 105.42,-27.38"/>
<polygon fill="midnightblue" stroke="midnightblue" points="105.67,-23.87 95.19,-25.46 104.37,-30.75 105.67,-23.87"/>
</g>
<!-- Node9 -->
<g id="node9" class="node">
<title>Node9</title>
<g id="a_node9"><a xlink:title=" ">
<polygon fill="none" stroke="#bfbfbf" points="522,-0.5 522,-30.5 617,-30.5 617,-0.5 522,-0.5"/>
<text text-anchor="start" x="530" y="-18.5" font-family="Helvetica,sans-Serif" font-size="10.00">boost/serialization</text>
<text text-anchor="middle" x="569.5" y="-7.5" font-family="Helvetica,sans-Serif" font-size="10.00">/access.hpp</text>
</a>
</g>
</g>
<!-- Node8&#45;&gt;Node9 -->
<g id="edge9" class="edge">
<title>Node8&#45;&gt;Node9</title>
<path fill="none" stroke="midnightblue" d="M431.69,-67.4C458.1,-57.64 493.43,-44.59 521.7,-34.15"/>
<polygon fill="midnightblue" stroke="midnightblue" points="523.22,-37.32 531.39,-30.58 520.79,-30.76 523.22,-37.32"/>
</g>
<!-- Node10 -->
<g id="node10" class="node">
<title>Node10</title>
<g id="a_node10"><a xlink:title=" ">
<polygon fill="none" stroke="#bfbfbf" points="179,-0.5 179,-30.5 274,-30.5 274,-0.5 179,-0.5"/>
<text text-anchor="start" x="187" y="-18.5" font-family="Helvetica,sans-Serif" font-size="10.00">boost/serialization</text>
<text text-anchor="middle" x="226.5" y="-7.5" font-family="Helvetica,sans-Serif" font-size="10.00">/shared_ptr.hpp</text>
</a>
</g>
</g>
<!-- Node8&#45;&gt;Node10 -->
<g id="edge11" class="edge">
<title>Node8&#45;&gt;Node10</title>
<path fill="none" stroke="midnightblue" d="M357.26,-67.4C332.32,-57.69 298.97,-44.71 272.2,-34.29"/>
<polygon fill="midnightblue" stroke="midnightblue" points="273.25,-30.94 262.67,-30.58 270.72,-37.47 273.25,-30.94"/>
</g>
<!-- Node11 -->
<g id="node11" class="node">
<title>Node11</title>
<g id="a_node11"><a xlink:title=" ">
<polygon fill="none" stroke="#bfbfbf" points="292,-6 292,-25 429,-25 429,-6 292,-6"/>
<text text-anchor="middle" x="360.5" y="-13" font-family="Helvetica,sans-Serif" font-size="10.00">Texture/AnimatedSprite.hpp</text>
</a>
</g>
</g>
<!-- Node8&#45;&gt;Node11 -->
<g id="edge12" class="edge">
<title>Node8&#45;&gt;Node11</title>
<path fill="none" stroke="midnightblue" d="M386.34,-67.4C381.4,-57.66 374.79,-44.65 369.49,-34.21"/>
<polygon fill="midnightblue" stroke="midnightblue" points="372.56,-32.53 364.91,-25.19 366.32,-35.7 372.56,-32.53"/>
</g>
<!-- Node12 -->
<g id="node12" class="node">
<title>Node12</title>
<g id="a_node12"><a xlink:title=" ">
<polygon fill="none" stroke="#bfbfbf" points="447,-6 447,-25 504,-25 504,-6 447,-6"/>
<text text-anchor="middle" x="475.5" y="-13" font-family="Helvetica,sans-Serif" font-size="10.00">Point.hpp</text>
</a>
</g>
</g>
<!-- Node8&#45;&gt;Node12 -->
<g id="edge13" class="edge">
<title>Node8&#45;&gt;Node12</title>
<path fill="none" stroke="midnightblue" d="M411.29,-67.4C424.58,-56.86 442.73,-42.48 456.34,-31.69"/>
<polygon fill="midnightblue" stroke="midnightblue" points="458.87,-34.15 464.53,-25.19 454.52,-28.66 458.87,-34.15"/>
</g>
<!-- Node13&#45;&gt;Node8 -->
<g id="edge15" class="edge">
<title>Node13&#45;&gt;Node8</title>
<path fill="none" stroke="midnightblue" d="M458.49,-134.4C447.07,-125.45 432.11,-113.74 419.42,-103.8"/>
<polygon fill="midnightblue" stroke="midnightblue" points="421.51,-100.99 411.47,-97.58 417.19,-106.5 421.51,-100.99"/>
</g>
</g>
</svg>
