<?xml version="1.0" encoding="UTF-8" standalone="no"?>
<!DOCTYPE svg PUBLIC "-//W3C//DTD SVG 1.1//EN"
 "http://www.w3.org/Graphics/SVG/1.1/DTD/svg11.dtd">
<!-- Generated by graphviz version 2.44.0 ()
 -->
<!-- Title: src/Scripts/FlagBehaviour.cpp Pages: 1 -->
<svg width="444pt" height="151pt"
 viewBox="0.00 0.00 443.50 151.00" xmlns="http://www.w3.org/2000/svg" xmlns:xlink="http://www.w3.org/1999/xlink">
<g id="graph0" class="graph" transform="scale(1 1) rotate(0) translate(4 147)">
<title>src/Scripts/FlagBehaviour.cpp</title>
<!-- Node1 -->
<g id="node1" class="node">
<title>Node1</title>
<g id="a_node1"><a xlink:title=" ">
<polygon fill="#bfbfbf" stroke="black" points="144.5,-123.5 144.5,-142.5 291.5,-142.5 291.5,-123.5 144.5,-123.5"/>
<text text-anchor="middle" x="218" y="-130.5" font-family="Helvetica,sans-Serif" font-size="10.00">src/Scripts/FlagBehaviour.cpp</text>
</a>
</g>
</g>
<!-- Node2 -->
<g id="node2" class="node">
<title>Node2</title>
<g id="a_node2"><a xlink:href="FlagBehaviour_8hpp.html" target="_top" xlink:title=" ">
<polygon fill="none" stroke="black" points="3.5,-62 3.5,-81 100.5,-81 100.5,-62 3.5,-62"/>
<text text-anchor="middle" x="52" y="-69" font-family="Helvetica,sans-Serif" font-size="10.00">FlagBehaviour.hpp</text>
</a>
</g>
</g>
<!-- Node1&#45;&gt;Node2 -->
<g id="edge1" class="edge">
<title>Node1&#45;&gt;Node2</title>
<path fill="none" stroke="midnightblue" d="M194.22,-123.48C165.62,-113.22 117.45,-95.96 85.2,-84.4"/>
<polygon fill="midnightblue" stroke="midnightblue" points="86.33,-81.09 75.74,-81.01 83.97,-87.68 86.33,-81.09"/>
</g>
<!-- Node4 -->
<g id="node4" class="node">
<title>Node4</title>
<g id="a_node4"><a xlink:title=" ">
<polygon fill="none" stroke="#bfbfbf" points="118.5,-62 118.5,-81 207.5,-81 207.5,-62 118.5,-62"/>
<text text-anchor="middle" x="163" y="-69" font-family="Helvetica,sans-Serif" font-size="10.00">GameObject.hpp</text>
</a>
</g>
</g>
<!-- Node1&#45;&gt;Node4 -->
<g id="edge3" class="edge">
<title>Node1&#45;&gt;Node4</title>
<path fill="none" stroke="midnightblue" d="M210.12,-123.48C201.71,-114.37 188.18,-99.74 177.77,-88.48"/>
<polygon fill="midnightblue" stroke="midnightblue" points="180.22,-85.98 170.87,-81.01 175.08,-90.73 180.22,-85.98"/>
</g>
<!-- Node5 -->
<g id="node5" class="node">
<title>Node5</title>
<g id="a_node5"><a xlink:title=" ">
<polygon fill="none" stroke="#bfbfbf" points="226,-62 226,-81 322,-81 322,-62 226,-62"/>
<text text-anchor="middle" x="274" y="-69" font-family="Helvetica,sans-Serif" font-size="10.00">Engine/Engine.hpp</text>
</a>
</g>
</g>
<!-- Node1&#45;&gt;Node5 -->
<g id="edge4" class="edge">
<title>Node1&#45;&gt;Node5</title>
<path fill="none" stroke="midnightblue" d="M226.02,-123.48C234.59,-114.37 248.36,-99.74 258.96,-88.48"/>
<polygon fill="midnightblue" stroke="midnightblue" points="261.69,-90.69 265.99,-81.01 256.59,-85.89 261.69,-90.69"/>
</g>
<!-- Node6 -->
<g id="node6" class="node">
<title>Node6</title>
<g id="a_node6"><a xlink:title=" ">
<polygon fill="none" stroke="#bfbfbf" points="340.5,-56.5 340.5,-86.5 435.5,-86.5 435.5,-56.5 340.5,-56.5"/>
<text text-anchor="start" x="348.5" y="-74.5" font-family="Helvetica,sans-Serif" font-size="10.00">boost/serialization</text>
<text text-anchor="middle" x="388" y="-63.5" font-family="Helvetica,sans-Serif" font-size="10.00">/export.hpp</text>
</a>
</g>
</g>
<!-- Node1&#45;&gt;Node6 -->
<g id="edge5" class="edge">
<title>Node1&#45;&gt;Node6</title>
<path fill="none" stroke="midnightblue" d="M242.36,-123.48C267.32,-114.74 306.84,-100.91 338.41,-89.86"/>
<polygon fill="midnightblue" stroke="midnightblue" points="339.65,-93.13 347.93,-86.52 337.34,-86.52 339.65,-93.13"/>
</g>
<!-- Node3 -->
<g id="node3" class="node">
<title>Node3</title>
<g id="a_node3"><a xlink:title=" ">
<polygon fill="none" stroke="#bfbfbf" points="0,-0.5 0,-19.5 104,-19.5 104,-0.5 0,-0.5"/>
<text text-anchor="middle" x="52" y="-7.5" font-family="Helvetica,sans-Serif" font-size="10.00">BehaviourScript.hpp</text>
</a>
</g>
</g>
<!-- Node2&#45;&gt;Node3 -->
<g id="edge2" class="edge">
<title>Node2&#45;&gt;Node3</title>
<path fill="none" stroke="midnightblue" d="M52,-61.98C52,-53.58 52,-40.48 52,-29.66"/>
<polygon fill="midnightblue" stroke="midnightblue" points="55.5,-29.51 52,-19.51 48.5,-29.51 55.5,-29.51"/>
</g>
</g>
</svg>
