<svg xmlns="http://www.w3.org/2000/svg" xmlns:xlink="http://www.w3.org/1999/xlink" width="368" height="106pt" viewBox="0 0 275.5 106"><g id="graph0" class="graph" transform="scale(1 1) rotate(0) translate(4 102)"><title>src/Game/Levels/GameOverScene.hpp</title><g id="node1" class="node"><title>Node1</title><g id="a_node1"><a><polygon fill="#bfbfbf" stroke="#000" points="53.5 -67.5 53.5 -97.5 195.5 -97.5 195.5 -67.5 53.5 -67.5"/><text x="61.5" y="-85.5" font-family="Helvetica,sans-Serif" font-size="10" text-anchor="start">src/Game/Levels/GameOver</text><text x="124.5" y="-74.5" font-family="Helvetica,sans-Serif" font-size="10" text-anchor="middle">Scene.hpp</text></a></g></g><g id="node2" class="node"><title>Node2</title><g id="a_node2"><a target="_top" xlink:href="Game_8cpp.html"><polygon fill="none" stroke="#000" points="0 -6 0 -25 107 -25 107 -6 0 -6"/><text x="53.5" y="-13" font-family="Helvetica,sans-Serif" font-size="10" text-anchor="middle">src/Game/Game.cpp</text></a></g></g><g id="edge1" class="edge"><title>Node1-&gt;Node2</title><path fill="none" stroke="#191970" d="M101.38,-60.34C88.35,-48.4 72.76,-34.14 63,-25.19"/><polygon fill="#191970" stroke="#191970" points="99.35 -63.22 109.09 -67.4 104.08 -58.06 99.35 -63.22"/></g><g id="node3" class="node"><title>Node3</title><g id="a_node3"><a target="_top" xlink:href="GameOverScene_8cpp.html"><polygon fill="none" stroke="#000" points="125.5 -.5 125.5 -30.5 267.5 -30.5 267.5 -.5 125.5 -.5"/><text x="133.5" y="-18.5" font-family="Helvetica,sans-Serif" font-size="10" text-anchor="start">src/Game/Levels/GameOver</text><text x="196.5" y="-7.5" font-family="Helvetica,sans-Serif" font-size="10" text-anchor="middle">Scene.cpp</text></a></g></g><g id="edge2" class="edge"><title>Node1-&gt;Node3</title><path fill="none" stroke="#191970" d="M147.65,-60.6C158.52,-50.78 171.2,-39.34 180.91,-30.58"/><polygon fill="#191970" stroke="#191970" points="145.2 -58.1 140.12 -67.4 149.89 -63.29 145.2 -58.1"/></g></g></svg>