<?xml version="1.0" encoding="UTF-8" standalone="no"?>
<!DOCTYPE svg PUBLIC "-//W3C//DTD SVG 1.1//EN"
 "http://www.w3.org/Graphics/SVG/1.1/DTD/svg11.dtd">
<!-- Generated by graphviz version 2.44.0 ()
 -->
<!-- Title: src/Game/Game.cpp Pages: 1 -->
<svg width="2047pt" height="218pt"
 viewBox="0.00 0.00 2047.00 218.00" xmlns="http://www.w3.org/2000/svg" xmlns:xlink="http://www.w3.org/1999/xlink">
<g id="graph0" class="graph" transform="scale(1 1) rotate(0) translate(4 214)">
<title>src/Game/Game.cpp</title>
<!-- Node1 -->
<g id="node1" class="node">
<title>Node1</title>
<g id="a_node1"><a xlink:title=" ">
<polygon fill="#bfbfbf" stroke="black" points="1075.5,-190.5 1075.5,-209.5 1182.5,-209.5 1182.5,-190.5 1075.5,-190.5"/>
<text text-anchor="middle" x="1129" y="-197.5" font-family="Helvetica,sans-Serif" font-size="10.00">src/Game/Game.cpp</text>
</a>
</g>
</g>
<!-- Node2 -->
<g id="node2" class="node">
<title>Node2</title>
<g id="a_node2"><a xlink:href="Game_8hpp.html" target="_top" xlink:title=" ">
<polygon fill="none" stroke="black" points="86.5,-129 86.5,-148 147.5,-148 147.5,-129 86.5,-129"/>
<text text-anchor="middle" x="117" y="-136" font-family="Helvetica,sans-Serif" font-size="10.00">Game.hpp</text>
</a>
</g>
</g>
<!-- Node1&#45;&gt;Node2 -->
<g id="edge1" class="edge">
<title>Node1&#45;&gt;Node2</title>
<path fill="none" stroke="midnightblue" d="M1075.3,-196.34C945.17,-189.83 602.68,-172.27 317,-154 261.87,-150.47 198.24,-145.75 157.83,-142.66"/>
<polygon fill="midnightblue" stroke="midnightblue" points="158.06,-139.17 147.82,-141.9 157.53,-146.15 158.06,-139.17"/>
</g>
<!-- Node4 -->
<g id="node4" class="node">
<title>Node4</title>
<g id="a_node4"><a xlink:title=" ">
<polygon fill="none" stroke="#bfbfbf" points="114,-62 114,-81 266,-81 266,-62 114,-62"/>
<text text-anchor="middle" x="190" y="-69" font-family="Helvetica,sans-Serif" font-size="10.00">Builder/GameObjectBuilder.hpp</text>
</a>
</g>
</g>
<!-- Node1&#45;&gt;Node4 -->
<g id="edge3" class="edge">
<title>Node1&#45;&gt;Node4</title>
<path fill="none" stroke="midnightblue" d="M1075.47,-197.39C934,-192.84 552.62,-178.6 429,-154 350.65,-138.41 262.75,-103.72 218.59,-85.02"/>
<polygon fill="midnightblue" stroke="midnightblue" points="219.92,-81.78 209.34,-81.07 217.16,-88.22 219.92,-81.78"/>
</g>
<!-- Node5 -->
<g id="node5" class="node">
<title>Node5</title>
<g id="a_node5"><a xlink:title=" ">
<polygon fill="none" stroke="#bfbfbf" points="284.5,-62 284.5,-81 409.5,-81 409.5,-62 284.5,-62"/>
<text text-anchor="middle" x="347" y="-69" font-family="Helvetica,sans-Serif" font-size="10.00">Builder/SceneBuilder.hpp</text>
</a>
</g>
</g>
<!-- Node1&#45;&gt;Node5 -->
<g id="edge4" class="edge">
<title>Node1&#45;&gt;Node5</title>
<path fill="none" stroke="midnightblue" d="M1075.33,-197.92C944.26,-194.83 610.78,-184.17 504,-154 451.73,-139.23 396.75,-105.97 367.75,-86.82"/>
<polygon fill="midnightblue" stroke="midnightblue" points="369.54,-83.8 359.28,-81.14 365.64,-89.61 369.54,-83.8"/>
</g>
<!-- Node6 -->
<g id="node6" class="node">
<title>Node6</title>
<g id="a_node6"><a xlink:href="TileConfig_8hpp.html" target="_top" xlink:title=" ">
<polygon fill="none" stroke="black" points="513.5,-129 513.5,-148 590.5,-148 590.5,-129 513.5,-129"/>
<text text-anchor="middle" x="552" y="-136" font-family="Helvetica,sans-Serif" font-size="10.00">TileConfig.hpp</text>
</a>
</g>
</g>
<!-- Node1&#45;&gt;Node6 -->
<g id="edge5" class="edge">
<title>Node1&#45;&gt;Node6</title>
<path fill="none" stroke="midnightblue" d="M1075.49,-193.48C963.96,-181.98 708.11,-155.6 600.79,-144.53"/>
<polygon fill="midnightblue" stroke="midnightblue" points="600.88,-141.02 590.57,-143.48 600.16,-147.98 600.88,-141.02"/>
</g>
<!-- Node13 -->
<g id="node13" class="node">
<title>Node13</title>
<g id="a_node13"><a xlink:title=" ">
<polygon fill="none" stroke="#bfbfbf" points="1212.5,-129 1212.5,-148 1373.5,-148 1373.5,-129 1212.5,-129"/>
<text text-anchor="middle" x="1293" y="-136" font-family="Helvetica,sans-Serif" font-size="10.00">Behaviour/CollisionBehaviour.hpp</text>
</a>
</g>
</g>
<!-- Node1&#45;&gt;Node13 -->
<g id="edge14" class="edge">
<title>Node1&#45;&gt;Node13</title>
<path fill="none" stroke="midnightblue" d="M1152.5,-190.48C1180.63,-180.27 1227.93,-163.11 1259.79,-151.55"/>
<polygon fill="midnightblue" stroke="midnightblue" points="1261.34,-154.71 1269.55,-148.01 1258.95,-148.13 1261.34,-154.71"/>
</g>
<!-- Node14 -->
<g id="node14" class="node">
<title>Node14</title>
<g id="a_node14"><a xlink:href="PlayerInputBehaviour_8hpp.html" target="_top" xlink:title=" ">
<polygon fill="none" stroke="black" points="884.5,-129 884.5,-148 1045.5,-148 1045.5,-129 884.5,-129"/>
<text text-anchor="middle" x="965" y="-136" font-family="Helvetica,sans-Serif" font-size="10.00">Scripts/PlayerInputBehaviour.hpp</text>
</a>
</g>
</g>
<!-- Node1&#45;&gt;Node14 -->
<g id="edge15" class="edge">
<title>Node1&#45;&gt;Node14</title>
<path fill="none" stroke="midnightblue" d="M1105.5,-190.48C1077.37,-180.27 1030.07,-163.11 998.21,-151.55"/>
<polygon fill="midnightblue" stroke="midnightblue" points="999.05,-148.13 988.45,-148.01 996.66,-154.71 999.05,-148.13"/>
</g>
<!-- Node17 -->
<g id="node17" class="node">
<title>Node17</title>
<g id="a_node17"><a xlink:href="DynamicAnimationBehaviour_8hpp.html" target="_top" xlink:title=" ">
<polygon fill="none" stroke="black" points="1063.5,-123.5 1063.5,-153.5 1194.5,-153.5 1194.5,-123.5 1063.5,-123.5"/>
<text text-anchor="start" x="1071.5" y="-141.5" font-family="Helvetica,sans-Serif" font-size="10.00">Scripts/DynamicAnimation</text>
<text text-anchor="middle" x="1129" y="-130.5" font-family="Helvetica,sans-Serif" font-size="10.00">Behaviour.hpp</text>
</a>
</g>
</g>
<!-- Node1&#45;&gt;Node17 -->
<g id="edge19" class="edge">
<title>Node1&#45;&gt;Node17</title>
<path fill="none" stroke="midnightblue" d="M1129,-190.48C1129,-183.47 1129,-173.19 1129,-163.7"/>
<polygon fill="midnightblue" stroke="midnightblue" points="1132.5,-163.52 1129,-153.52 1125.5,-163.52 1132.5,-163.52"/>
</g>
<!-- Node19 -->
<g id="node19" class="node">
<title>Node19</title>
<g id="a_node19"><a xlink:href="NetworkingServer_8hpp.html" target="_top" xlink:title=" ">
<polygon fill="none" stroke="black" points="1570.5,-129 1570.5,-148 1735.5,-148 1735.5,-129 1570.5,-129"/>
<text text-anchor="middle" x="1653" y="-136" font-family="Helvetica,sans-Serif" font-size="10.00">Networking/NetworkingServer.hpp</text>
</a>
</g>
</g>
<!-- Node1&#45;&gt;Node19 -->
<g id="edge22" class="edge">
<title>Node1&#45;&gt;Node19</title>
<path fill="none" stroke="midnightblue" d="M1182.65,-194.32C1264.42,-186.99 1425.11,-171.77 1561,-154 1570.98,-152.69 1581.55,-151.17 1591.82,-149.6"/>
<polygon fill="midnightblue" stroke="midnightblue" points="1592.63,-153.02 1601.97,-148.03 1591.56,-146.1 1592.63,-153.02"/>
</g>
<!-- Node22 -->
<g id="node22" class="node">
<title>Node22</title>
<g id="a_node22"><a xlink:href="NetworkingClient_8hpp.html" target="_top" xlink:title=" ">
<polygon fill="none" stroke="black" points="1391.5,-129 1391.5,-148 1552.5,-148 1552.5,-129 1391.5,-129"/>
<text text-anchor="middle" x="1472" y="-136" font-family="Helvetica,sans-Serif" font-size="10.00">Networking/NetworkingClient.hpp</text>
</a>
</g>
</g>
<!-- Node1&#45;&gt;Node22 -->
<g id="edge25" class="edge">
<title>Node1&#45;&gt;Node22</title>
<path fill="none" stroke="midnightblue" d="M1178.14,-190.48C1240.16,-179.72 1346.73,-161.23 1413.06,-149.72"/>
<polygon fill="midnightblue" stroke="midnightblue" points="1413.69,-153.17 1422.95,-148.01 1412.5,-146.27 1413.69,-153.17"/>
</g>
<!-- Node23 -->
<g id="node23" class="node">
<title>Node23</title>
<g id="a_node23"><a xlink:href="Level1_8hpp.html" target="_top" xlink:title=" ">
<polygon fill="none" stroke="black" points="1943,-129 1943,-148 2039,-148 2039,-129 1943,-129"/>
<text text-anchor="middle" x="1991" y="-136" font-family="Helvetica,sans-Serif" font-size="10.00">Levels/Level1.hpp</text>
</a>
</g>
</g>
<!-- Node1&#45;&gt;Node23 -->
<g id="edge27" class="edge">
<title>Node1&#45;&gt;Node23</title>
<path fill="none" stroke="midnightblue" d="M1182.51,-199.48C1312.1,-199.9 1652.75,-196.48 1933,-154 1938.98,-153.09 1945.25,-151.85 1951.36,-150.46"/>
<polygon fill="midnightblue" stroke="midnightblue" points="1952.51,-153.79 1961.41,-148.04 1950.87,-146.98 1952.51,-153.79"/>
</g>
<!-- Node24 -->
<g id="node24" class="node">
<title>Node24</title>
<g id="a_node24"><a xlink:href="GameOverScene_8hpp.html" target="_top" xlink:title=" ">
<polygon fill="none" stroke="black" points="1753.5,-129 1753.5,-148 1924.5,-148 1924.5,-129 1753.5,-129"/>
<text text-anchor="middle" x="1839" y="-136" font-family="Helvetica,sans-Serif" font-size="10.00">Game/Levels/GameOverScene.hpp</text>
</a>
</g>
</g>
<!-- Node1&#45;&gt;Node24 -->
<g id="edge29" class="edge">
<title>Node1&#45;&gt;Node24</title>
<path fill="none" stroke="midnightblue" d="M1182.6,-196.49C1289.58,-191.18 1537.09,-177.32 1744,-154 1754.92,-152.77 1766.5,-151.21 1777.69,-149.58"/>
<polygon fill="midnightblue" stroke="midnightblue" points="1778.45,-153 1787.82,-148.06 1777.41,-146.08 1778.45,-153"/>
</g>
<!-- Node3 -->
<g id="node3" class="node">
<title>Node3</title>
<g id="a_node3"><a xlink:title=" ">
<polygon fill="none" stroke="#bfbfbf" points="0,-62 0,-81 96,-81 96,-62 0,-62"/>
<text text-anchor="middle" x="48" y="-69" font-family="Helvetica,sans-Serif" font-size="10.00">Engine/Engine.hpp</text>
</a>
</g>
</g>
<!-- Node2&#45;&gt;Node3 -->
<g id="edge2" class="edge">
<title>Node2&#45;&gt;Node3</title>
<path fill="none" stroke="midnightblue" d="M107.69,-128.73C96.73,-118.4 78.29,-101.04 64.81,-88.33"/>
<polygon fill="midnightblue" stroke="midnightblue" points="66.84,-85.44 57.16,-81.13 62.04,-90.53 66.84,-85.44"/>
</g>
<!-- Node6&#45;&gt;Node4 -->
<g id="edge9" class="edge">
<title>Node6&#45;&gt;Node4</title>
<path fill="none" stroke="midnightblue" d="M513.26,-130.54C449.5,-119.1 322.12,-96.22 247.72,-82.86"/>
<polygon fill="midnightblue" stroke="midnightblue" points="248.04,-79.37 237.58,-81.04 246.8,-86.26 248.04,-79.37"/>
</g>
<!-- Node6&#45;&gt;Node5 -->
<g id="edge10" class="edge">
<title>Node6&#45;&gt;Node5</title>
<path fill="none" stroke="midnightblue" d="M524.78,-128.87C488.53,-117.38 424.3,-97.01 383.77,-84.16"/>
<polygon fill="midnightblue" stroke="midnightblue" points="384.6,-80.75 374.01,-81.06 382.48,-87.42 384.6,-80.75"/>
</g>
<!-- Node7 -->
<g id="node7" class="node">
<title>Node7</title>
<g id="a_node7"><a xlink:title=" ">
<polygon fill="none" stroke="#bfbfbf" points="427.5,-62 427.5,-81 486.5,-81 486.5,-62 427.5,-62"/>
<text text-anchor="middle" x="457" y="-69" font-family="Helvetica,sans-Serif" font-size="10.00">functional</text>
</a>
</g>
</g>
<!-- Node6&#45;&gt;Node7 -->
<g id="edge6" class="edge">
<title>Node6&#45;&gt;Node7</title>
<path fill="none" stroke="midnightblue" d="M539.19,-128.73C523.52,-118.01 496.78,-99.72 478.07,-86.91"/>
<polygon fill="midnightblue" stroke="midnightblue" points="479.84,-83.89 469.61,-81.13 475.89,-89.66 479.84,-83.89"/>
</g>
<!-- Node8 -->
<g id="node8" class="node">
<title>Node8</title>
<g id="a_node8"><a xlink:title=" ">
<polygon fill="none" stroke="#bfbfbf" points="504.5,-62 504.5,-81 539.5,-81 539.5,-62 504.5,-62"/>
<text text-anchor="middle" x="522" y="-69" font-family="Helvetica,sans-Serif" font-size="10.00">map</text>
</a>
</g>
</g>
<!-- Node6&#45;&gt;Node8 -->
<g id="edge7" class="edge">
<title>Node6&#45;&gt;Node8</title>
<path fill="none" stroke="midnightblue" d="M547.95,-128.73C543.46,-118.99 536.07,-102.98 530.32,-90.53"/>
<polygon fill="midnightblue" stroke="midnightblue" points="533.35,-88.74 525.98,-81.13 526.99,-91.67 533.35,-88.74"/>
</g>
<!-- Node9 -->
<g id="node9" class="node">
<title>Node9</title>
<g id="a_node9"><a xlink:title=" ">
<polygon fill="none" stroke="#bfbfbf" points="557.5,-62 557.5,-81 608.5,-81 608.5,-62 557.5,-62"/>
<text text-anchor="middle" x="583" y="-69" font-family="Helvetica,sans-Serif" font-size="10.00">memory</text>
</a>
</g>
</g>
<!-- Node6&#45;&gt;Node9 -->
<g id="edge8" class="edge">
<title>Node6&#45;&gt;Node9</title>
<path fill="none" stroke="midnightblue" d="M556.18,-128.73C560.88,-118.89 568.62,-102.66 574.58,-90.16"/>
<polygon fill="midnightblue" stroke="midnightblue" points="577.74,-91.66 578.89,-81.13 571.42,-88.65 577.74,-91.66"/>
</g>
<!-- Node10 -->
<g id="node10" class="node">
<title>Node10</title>
<g id="a_node10"><a xlink:title=" ">
<polygon fill="none" stroke="#bfbfbf" points="627,-62 627,-81 787,-81 787,-62 627,-62"/>
<text text-anchor="middle" x="707" y="-69" font-family="Helvetica,sans-Serif" font-size="10.00">Director/GameObjectDirector.hpp</text>
</a>
</g>
</g>
<!-- Node6&#45;&gt;Node10 -->
<g id="edge11" class="edge">
<title>Node6&#45;&gt;Node10</title>
<path fill="none" stroke="midnightblue" d="M572.58,-128.87C599.33,-117.65 646.25,-97.98 676.97,-85.09"/>
<polygon fill="midnightblue" stroke="midnightblue" points="678.46,-88.26 686.33,-81.17 675.76,-81.81 678.46,-88.26"/>
</g>
<!-- Node11 -->
<g id="node11" class="node">
<title>Node11</title>
<g id="a_node11"><a xlink:href="FlagBehaviour_8hpp.html" target="_top" xlink:title=" ">
<polygon fill="none" stroke="black" points="805.5,-62 805.5,-81 936.5,-81 936.5,-62 805.5,-62"/>
<text text-anchor="middle" x="871" y="-69" font-family="Helvetica,sans-Serif" font-size="10.00">Scripts/FlagBehaviour.hpp</text>
</a>
</g>
</g>
<!-- Node6&#45;&gt;Node11 -->
<g id="edge12" class="edge">
<title>Node6&#45;&gt;Node11</title>
<path fill="none" stroke="midnightblue" d="M590.8,-129.59C648.09,-117.92 755.42,-96.05 819.32,-83.03"/>
<polygon fill="midnightblue" stroke="midnightblue" points="820.09,-86.45 829.19,-81.02 818.69,-79.59 820.09,-86.45"/>
</g>
<!-- Node12 -->
<g id="node12" class="node">
<title>Node12</title>
<g id="a_node12"><a xlink:title=" ">
<polygon fill="none" stroke="#bfbfbf" points="913,-0.5 913,-19.5 1017,-19.5 1017,-0.5 913,-0.5"/>
<text text-anchor="middle" x="965" y="-7.5" font-family="Helvetica,sans-Serif" font-size="10.00">BehaviourScript.hpp</text>
</a>
</g>
</g>
<!-- Node11&#45;&gt;Node12 -->
<g id="edge13" class="edge">
<title>Node11&#45;&gt;Node12</title>
<path fill="none" stroke="midnightblue" d="M884.47,-61.98C899.68,-52.34 924.69,-36.52 942.8,-25.05"/>
<polygon fill="midnightblue" stroke="midnightblue" points="944.98,-27.81 951.56,-19.51 941.24,-21.9 944.98,-27.81"/>
</g>
<!-- Node14&#45;&gt;Node12 -->
<g id="edge16" class="edge">
<title>Node14&#45;&gt;Node12</title>
<path fill="none" stroke="midnightblue" d="M965,-128.81C965,-108.49 965,-57.55 965,-29.78"/>
<polygon fill="midnightblue" stroke="midnightblue" points="968.5,-29.76 965,-19.76 961.5,-29.76 968.5,-29.76"/>
</g>
<!-- Node15 -->
<g id="node15" class="node">
<title>Node15</title>
<g id="a_node15"><a xlink:title=" ">
<polygon fill="none" stroke="#bfbfbf" points="993.5,-56.5 993.5,-86.5 1088.5,-86.5 1088.5,-56.5 993.5,-56.5"/>
<text text-anchor="start" x="1001.5" y="-74.5" font-family="Helvetica,sans-Serif" font-size="10.00">boost/serialization</text>
<text text-anchor="middle" x="1041" y="-63.5" font-family="Helvetica,sans-Serif" font-size="10.00">/access.hpp</text>
</a>
</g>
</g>
<!-- Node14&#45;&gt;Node15 -->
<g id="edge17" class="edge">
<title>Node14&#45;&gt;Node15</title>
<path fill="none" stroke="midnightblue" d="M975.25,-128.73C985.82,-119.7 1002.68,-105.27 1016.68,-93.3"/>
<polygon fill="midnightblue" stroke="midnightblue" points="1019.2,-95.75 1024.53,-86.59 1014.65,-90.43 1019.2,-95.75"/>
</g>
<!-- Node16 -->
<g id="node16" class="node">
<title>Node16</title>
<g id="a_node16"><a xlink:title=" ">
<polygon fill="none" stroke="#bfbfbf" points="1106.5,-56.5 1106.5,-86.5 1201.5,-86.5 1201.5,-56.5 1106.5,-56.5"/>
<text text-anchor="start" x="1114.5" y="-74.5" font-family="Helvetica,sans-Serif" font-size="10.00">boost/serialization</text>
<text text-anchor="middle" x="1154" y="-63.5" font-family="Helvetica,sans-Serif" font-size="10.00">/export.hpp</text>
</a>
</g>
</g>
<!-- Node14&#45;&gt;Node16 -->
<g id="edge18" class="edge">
<title>Node14&#45;&gt;Node16</title>
<path fill="none" stroke="midnightblue" d="M990.1,-128.87C1018.95,-118.95 1067.04,-102.41 1103.68,-89.81"/>
<polygon fill="midnightblue" stroke="midnightblue" points="1104.89,-93.09 1113.21,-86.53 1102.62,-86.47 1104.89,-93.09"/>
</g>
<!-- Node17&#45;&gt;Node12 -->
<g id="edge20" class="edge">
<title>Node17&#45;&gt;Node12</title>
<path fill="none" stroke="midnightblue" d="M1194.67,-124.48C1263.55,-110.67 1362.26,-90.39 1365,-87 1373.66,-76.29 1374.18,-66.27 1365,-56 1342.92,-31.3 1134.07,-18.5 1027.26,-13.52"/>
<polygon fill="midnightblue" stroke="midnightblue" points="1027.4,-10.03 1017.25,-13.07 1027.08,-17.02 1027.4,-10.03"/>
</g>
<!-- Node18 -->
<g id="node18" class="node">
<title>Node18</title>
<g id="a_node18"><a xlink:title=" ">
<polygon fill="none" stroke="#bfbfbf" points="1219.5,-62 1219.5,-81 1356.5,-81 1356.5,-62 1219.5,-62"/>
<text text-anchor="middle" x="1288" y="-69" font-family="Helvetica,sans-Serif" font-size="10.00">Texture/AnimatedSprite.hpp</text>
</a>
</g>
</g>
<!-- Node17&#45;&gt;Node18 -->
<g id="edge21" class="edge">
<title>Node17&#45;&gt;Node18</title>
<path fill="none" stroke="midnightblue" d="M1163.5,-123.4C1191.65,-111.89 1231.01,-95.8 1257.89,-84.81"/>
<polygon fill="midnightblue" stroke="midnightblue" points="1259.26,-88.03 1267.19,-81.01 1256.61,-81.55 1259.26,-88.03"/>
</g>
<!-- Node20 -->
<g id="node20" class="node">
<title>Node20</title>
<g id="a_node20"><a xlink:title=" ">
<polygon fill="none" stroke="#bfbfbf" points="1542.5,-62 1542.5,-81 1583.5,-81 1583.5,-62 1542.5,-62"/>
<text text-anchor="middle" x="1563" y="-69" font-family="Helvetica,sans-Serif" font-size="10.00">string</text>
</a>
</g>
</g>
<!-- Node19&#45;&gt;Node20 -->
<g id="edge23" class="edge">
<title>Node19&#45;&gt;Node20</title>
<path fill="none" stroke="midnightblue" d="M1640.86,-128.73C1626.15,-118.11 1601.14,-100.05 1583.44,-87.26"/>
<polygon fill="midnightblue" stroke="midnightblue" points="1585.1,-84.14 1574.95,-81.13 1581,-89.82 1585.1,-84.14"/>
</g>
<!-- Node21 -->
<g id="node21" class="node">
<title>Node21</title>
<g id="a_node21"><a xlink:title=" ">
<polygon fill="none" stroke="#bfbfbf" points="1808,-62 1808,-81 1870,-81 1870,-62 1808,-62"/>
<text text-anchor="middle" x="1839" y="-69" font-family="Helvetica,sans-Serif" font-size="10.00">Scene.hpp</text>
</a>
</g>
</g>
<!-- Node19&#45;&gt;Node21 -->
<g id="edge24" class="edge">
<title>Node19&#45;&gt;Node21</title>
<path fill="none" stroke="midnightblue" d="M1677.7,-128.87C1710.31,-117.47 1767.88,-97.35 1804.7,-84.49"/>
<polygon fill="midnightblue" stroke="midnightblue" points="1806.21,-87.67 1814.49,-81.06 1803.9,-81.06 1806.21,-87.67"/>
</g>
<!-- Node22&#45;&gt;Node20 -->
<g id="edge26" class="edge">
<title>Node22&#45;&gt;Node20</title>
<path fill="none" stroke="midnightblue" d="M1484.27,-128.73C1499.15,-118.11 1524.43,-100.05 1542.33,-87.26"/>
<polygon fill="midnightblue" stroke="midnightblue" points="1544.82,-89.79 1550.92,-81.13 1540.75,-84.09 1544.82,-89.79"/>
</g>
<!-- Node23&#45;&gt;Node21 -->
<g id="edge28" class="edge">
<title>Node23&#45;&gt;Node21</title>
<path fill="none" stroke="midnightblue" d="M1970.82,-128.87C1944.7,-117.7 1898.97,-98.15 1868.84,-85.26"/>
<polygon fill="midnightblue" stroke="midnightblue" points="1869.84,-81.88 1859.27,-81.17 1867.09,-88.32 1869.84,-81.88"/>
</g>
<!-- Node24&#45;&gt;Node21 -->
<g id="edge30" class="edge">
<title>Node24&#45;&gt;Node21</title>
<path fill="none" stroke="midnightblue" d="M1839,-128.73C1839,-119.18 1839,-103.62 1839,-91.28"/>
<polygon fill="midnightblue" stroke="midnightblue" points="1842.5,-91.13 1839,-81.13 1835.5,-91.13 1842.5,-91.13"/>
</g>
</g>
</svg>
