<?xml version="1.0" encoding="UTF-8" standalone="no"?>
<!DOCTYPE svg PUBLIC "-//W3C//DTD SVG 1.1//EN"
 "http://www.w3.org/Graphics/SVG/1.1/DTD/svg11.dtd">
<!-- Generated by graphviz version 2.44.0 ()
 -->
<!-- Title: src/Game/Game.cpp Pages: 1 -->
<svg width="1858pt" height="218pt"
 viewBox="0.00 0.00 1858.00 218.00" xmlns="http://www.w3.org/2000/svg" xmlns:xlink="http://www.w3.org/1999/xlink">
<g id="graph0" class="graph" transform="scale(1 1) rotate(0) translate(4 214)">
<title>src/Game/Game.cpp</title>
<!-- Node1 -->
<g id="node1" class="node">
<title>Node1</title>
<g id="a_node1"><a xlink:title=" ">
<polygon fill="#bfbfbf" stroke="black" points="993.5,-190.5 993.5,-209.5 1100.5,-209.5 1100.5,-190.5 993.5,-190.5"/>
<text text-anchor="middle" x="1047" y="-197.5" font-family="Helvetica,sans-Serif" font-size="10.00">src/Game/Game.cpp</text>
</a>
</g>
</g>
<!-- Node2 -->
<g id="node2" class="node">
<title>Node2</title>
<g id="a_node2"><a xlink:href="Game_8hpp.html" target="_top" xlink:title=" ">
<polygon fill="none" stroke="black" points="41.5,-129 41.5,-148 102.5,-148 102.5,-129 41.5,-129"/>
<text text-anchor="middle" x="72" y="-136" font-family="Helvetica,sans-Serif" font-size="10.00">Game.hpp</text>
</a>
</g>
</g>
<!-- Node1&#45;&gt;Node2 -->
<g id="edge1" class="edge">
<title>Node1&#45;&gt;Node2</title>
<path fill="none" stroke="midnightblue" d="M993.24,-195.8C870.65,-188.5 560.98,-169.99 302,-154 235.68,-149.91 158.62,-145.02 112.66,-142.1"/>
<polygon fill="midnightblue" stroke="midnightblue" points="112.71,-138.59 102.51,-141.45 112.26,-145.58 112.71,-138.59"/>
</g>
<!-- Node4 -->
<g id="node4" class="node">
<title>Node4</title>
<g id="a_node4"><a xlink:title=" ">
<polygon fill="none" stroke="#bfbfbf" points="114,-62 114,-81 266,-81 266,-62 114,-62"/>
<text text-anchor="middle" x="190" y="-69" font-family="Helvetica,sans-Serif" font-size="10.00">Builder/GameObjectBuilder.hpp</text>
</a>
</g>
</g>
<!-- Node1&#45;&gt;Node4 -->
<g id="edge3" class="edge">
<title>Node1&#45;&gt;Node4</title>
<path fill="none" stroke="midnightblue" d="M993.1,-199.52C885.63,-199.57 637.5,-194.79 434,-154 354.41,-138.05 264.84,-103.66 219.58,-85.06"/>
<polygon fill="midnightblue" stroke="midnightblue" points="220.68,-81.73 210.1,-81.13 217.99,-88.19 220.68,-81.73"/>
</g>
<!-- Node5 -->
<g id="node5" class="node">
<title>Node5</title>
<g id="a_node5"><a xlink:title=" ">
<polygon fill="none" stroke="#bfbfbf" points="284.5,-62 284.5,-81 409.5,-81 409.5,-62 284.5,-62"/>
<text text-anchor="middle" x="347" y="-69" font-family="Helvetica,sans-Serif" font-size="10.00">Builder/SceneBuilder.hpp</text>
</a>
</g>
</g>
<!-- Node1&#45;&gt;Node5 -->
<g id="edge4" class="edge">
<title>Node1&#45;&gt;Node5</title>
<path fill="none" stroke="midnightblue" d="M993.41,-197.03C876.45,-192.33 601.57,-178.92 512,-154 457.33,-138.79 399.09,-105.45 368.55,-86.46"/>
<polygon fill="midnightblue" stroke="midnightblue" points="370.33,-83.44 360,-81.07 366.59,-89.36 370.33,-83.44"/>
</g>
<!-- Node6 -->
<g id="node6" class="node">
<title>Node6</title>
<g id="a_node6"><a xlink:href="TileConfig_8hpp.html" target="_top" xlink:title=" ">
<polygon fill="none" stroke="black" points="521.5,-129 521.5,-148 598.5,-148 598.5,-129 521.5,-129"/>
<text text-anchor="middle" x="560" y="-136" font-family="Helvetica,sans-Serif" font-size="10.00">TileConfig.hpp</text>
</a>
</g>
</g>
<!-- Node1&#45;&gt;Node6 -->
<g id="edge5" class="edge">
<title>Node1&#45;&gt;Node6</title>
<path fill="none" stroke="midnightblue" d="M993.49,-192.46C898.2,-180.82 700.53,-156.67 608.77,-145.46"/>
<polygon fill="midnightblue" stroke="midnightblue" points="608.99,-141.96 598.64,-144.22 608.14,-148.91 608.99,-141.96"/>
</g>
<!-- Node13 -->
<g id="node13" class="node">
<title>Node13</title>
<g id="a_node13"><a xlink:title=" ">
<polygon fill="none" stroke="#bfbfbf" points="1212.5,-129 1212.5,-148 1373.5,-148 1373.5,-129 1212.5,-129"/>
<text text-anchor="middle" x="1293" y="-136" font-family="Helvetica,sans-Serif" font-size="10.00">Behaviour/CollisionBehaviour.hpp</text>
</a>
</g>
</g>
<!-- Node1&#45;&gt;Node13 -->
<g id="edge14" class="edge">
<title>Node1&#45;&gt;Node13</title>
<path fill="none" stroke="midnightblue" d="M1082.25,-190.48C1125.9,-179.92 1200.34,-161.91 1248.06,-150.37"/>
<polygon fill="midnightblue" stroke="midnightblue" points="1248.92,-153.76 1257.82,-148.01 1247.28,-146.96 1248.92,-153.76"/>
</g>
<!-- Node14 -->
<g id="node14" class="node">
<title>Node14</title>
<g id="a_node14"><a xlink:href="PlayerInputBehaviour_8hpp.html" target="_top" xlink:title=" ">
<polygon fill="none" stroke="black" points="884.5,-129 884.5,-148 1045.5,-148 1045.5,-129 884.5,-129"/>
<text text-anchor="middle" x="965" y="-136" font-family="Helvetica,sans-Serif" font-size="10.00">Scripts/PlayerInputBehaviour.hpp</text>
</a>
</g>
</g>
<!-- Node1&#45;&gt;Node14 -->
<g id="edge15" class="edge">
<title>Node1&#45;&gt;Node14</title>
<path fill="none" stroke="midnightblue" d="M1035.25,-190.48C1022.22,-181.02 1000.96,-165.6 985.24,-154.19"/>
<polygon fill="midnightblue" stroke="midnightblue" points="986.88,-151.05 976.73,-148.01 982.77,-156.71 986.88,-151.05"/>
</g>
<!-- Node17 -->
<g id="node17" class="node">
<title>Node17</title>
<g id="a_node17"><a xlink:href="DynamicAnimationBehaviour_8hpp.html" target="_top" xlink:title=" ">
<polygon fill="none" stroke="black" points="1063.5,-123.5 1063.5,-153.5 1194.5,-153.5 1194.5,-123.5 1063.5,-123.5"/>
<text text-anchor="start" x="1071.5" y="-141.5" font-family="Helvetica,sans-Serif" font-size="10.00">Scripts/DynamicAnimation</text>
<text text-anchor="middle" x="1129" y="-130.5" font-family="Helvetica,sans-Serif" font-size="10.00">Behaviour.hpp</text>
</a>
</g>
</g>
<!-- Node1&#45;&gt;Node17 -->
<g id="edge19" class="edge">
<title>Node1&#45;&gt;Node17</title>
<path fill="none" stroke="midnightblue" d="M1058.75,-190.48C1069.85,-182.42 1086.93,-170.02 1101.47,-159.47"/>
<polygon fill="midnightblue" stroke="midnightblue" points="1103.64,-162.23 1109.67,-153.52 1099.52,-156.56 1103.64,-162.23"/>
</g>
<!-- Node19 -->
<g id="node19" class="node">
<title>Node19</title>
<g id="a_node19"><a xlink:href="NetworkingServer_8hpp.html" target="_top" xlink:title=" ">
<polygon fill="none" stroke="black" points="1570.5,-129 1570.5,-148 1735.5,-148 1735.5,-129 1570.5,-129"/>
<text text-anchor="middle" x="1653" y="-136" font-family="Helvetica,sans-Serif" font-size="10.00">Networking/NetworkingServer.hpp</text>
</a>
</g>
</g>
<!-- Node1&#45;&gt;Node19 -->
<g id="edge22" class="edge">
<title>Node1&#45;&gt;Node19</title>
<path fill="none" stroke="midnightblue" d="M1100.51,-195.58C1194.23,-189.31 1394.09,-174.69 1562,-154 1572.23,-152.74 1583.07,-151.2 1593.57,-149.59"/>
<polygon fill="midnightblue" stroke="midnightblue" points="1594.16,-153.04 1603.5,-148.04 1593.08,-146.12 1594.16,-153.04"/>
</g>
<!-- Node22 -->
<g id="node22" class="node">
<title>Node22</title>
<g id="a_node22"><a xlink:href="NetworkingClient_8hpp.html" target="_top" xlink:title=" ">
<polygon fill="none" stroke="black" points="1391.5,-129 1391.5,-148 1552.5,-148 1552.5,-129 1391.5,-129"/>
<text text-anchor="middle" x="1472" y="-136" font-family="Helvetica,sans-Serif" font-size="10.00">Networking/NetworkingClient.hpp</text>
</a>
</g>
</g>
<!-- Node1&#45;&gt;Node22 -->
<g id="edge25" class="edge">
<title>Node1&#45;&gt;Node22</title>
<path fill="none" stroke="midnightblue" d="M1100.73,-192.22C1166.95,-183.77 1282.88,-168.64 1382,-154 1391.3,-152.63 1401.12,-151.11 1410.73,-149.59"/>
<polygon fill="midnightblue" stroke="midnightblue" points="1411.31,-153.04 1420.63,-148.01 1410.21,-146.13 1411.31,-153.04"/>
</g>
<!-- Node23 -->
<g id="node23" class="node">
<title>Node23</title>
<g id="a_node23"><a xlink:href="Level1_8hpp.html" target="_top" xlink:title=" ">
<polygon fill="none" stroke="black" points="1754,-129 1754,-148 1850,-148 1850,-129 1754,-129"/>
<text text-anchor="middle" x="1802" y="-136" font-family="Helvetica,sans-Serif" font-size="10.00">Levels/Level1.hpp</text>
</a>
</g>
</g>
<!-- Node1&#45;&gt;Node23 -->
<g id="edge27" class="edge">
<title>Node1&#45;&gt;Node23</title>
<path fill="none" stroke="midnightblue" d="M1100.79,-198.9C1218.39,-197.96 1506.91,-191.63 1745,-154 1750.82,-153.08 1756.9,-151.84 1762.84,-150.47"/>
<polygon fill="midnightblue" stroke="midnightblue" points="1763.75,-153.85 1772.63,-148.07 1762.09,-147.05 1763.75,-153.85"/>
</g>
<!-- Node3 -->
<g id="node3" class="node">
<title>Node3</title>
<g id="a_node3"><a xlink:title=" ">
<polygon fill="none" stroke="#bfbfbf" points="0,-62 0,-81 96,-81 96,-62 0,-62"/>
<text text-anchor="middle" x="48" y="-69" font-family="Helvetica,sans-Serif" font-size="10.00">Engine/Engine.hpp</text>
</a>
</g>
</g>
<!-- Node2&#45;&gt;Node3 -->
<g id="edge2" class="edge">
<title>Node2&#45;&gt;Node3</title>
<path fill="none" stroke="midnightblue" d="M68.76,-128.73C65.16,-118.99 59.25,-102.98 54.66,-90.53"/>
<polygon fill="midnightblue" stroke="midnightblue" points="57.93,-89.3 51.19,-81.13 51.37,-91.72 57.93,-89.3"/>
</g>
<!-- Node6&#45;&gt;Node4 -->
<g id="edge9" class="edge">
<title>Node6&#45;&gt;Node4</title>
<path fill="none" stroke="midnightblue" d="M521.45,-130.73C456.53,-119.32 325.01,-96.22 248.6,-82.79"/>
<polygon fill="midnightblue" stroke="midnightblue" points="249.11,-79.33 238.65,-81.05 247.9,-86.22 249.11,-79.33"/>
</g>
<!-- Node6&#45;&gt;Node5 -->
<g id="edge10" class="edge">
<title>Node6&#45;&gt;Node5</title>
<path fill="none" stroke="midnightblue" d="M531.72,-128.87C493.89,-117.33 426.75,-96.84 384.67,-84"/>
<polygon fill="midnightblue" stroke="midnightblue" points="385.65,-80.63 375.06,-81.06 383.61,-87.33 385.65,-80.63"/>
</g>
<!-- Node7 -->
<g id="node7" class="node">
<title>Node7</title>
<g id="a_node7"><a xlink:title=" ">
<polygon fill="none" stroke="#bfbfbf" points="427.5,-62 427.5,-81 486.5,-81 486.5,-62 427.5,-62"/>
<text text-anchor="middle" x="457" y="-69" font-family="Helvetica,sans-Serif" font-size="10.00">functional</text>
</a>
</g>
</g>
<!-- Node6&#45;&gt;Node7 -->
<g id="edge6" class="edge">
<title>Node6&#45;&gt;Node7</title>
<path fill="none" stroke="midnightblue" d="M546.11,-128.73C528.97,-117.92 499.6,-99.38 479.29,-86.57"/>
<polygon fill="midnightblue" stroke="midnightblue" points="481,-83.5 470.67,-81.13 477.26,-89.42 481,-83.5"/>
</g>
<!-- Node8 -->
<g id="node8" class="node">
<title>Node8</title>
<g id="a_node8"><a xlink:title=" ">
<polygon fill="none" stroke="#bfbfbf" points="504.5,-62 504.5,-81 539.5,-81 539.5,-62 504.5,-62"/>
<text text-anchor="middle" x="522" y="-69" font-family="Helvetica,sans-Serif" font-size="10.00">map</text>
</a>
</g>
</g>
<!-- Node6&#45;&gt;Node8 -->
<g id="edge7" class="edge">
<title>Node6&#45;&gt;Node8</title>
<path fill="none" stroke="midnightblue" d="M554.88,-128.73C549.06,-118.79 539.44,-102.34 532.11,-89.79"/>
<polygon fill="midnightblue" stroke="midnightblue" points="535.11,-87.99 527.04,-81.13 529.07,-91.53 535.11,-87.99"/>
</g>
<!-- Node9 -->
<g id="node9" class="node">
<title>Node9</title>
<g id="a_node9"><a xlink:title=" ">
<polygon fill="none" stroke="#bfbfbf" points="557.5,-62 557.5,-81 608.5,-81 608.5,-62 557.5,-62"/>
<text text-anchor="middle" x="583" y="-69" font-family="Helvetica,sans-Serif" font-size="10.00">memory</text>
</a>
</g>
</g>
<!-- Node6&#45;&gt;Node9 -->
<g id="edge8" class="edge">
<title>Node6&#45;&gt;Node9</title>
<path fill="none" stroke="midnightblue" d="M563.1,-128.73C566.52,-119.09 572.1,-103.3 576.49,-90.91"/>
<polygon fill="midnightblue" stroke="midnightblue" points="579.91,-91.72 579.95,-81.13 573.31,-89.39 579.91,-91.72"/>
</g>
<!-- Node10 -->
<g id="node10" class="node">
<title>Node10</title>
<g id="a_node10"><a xlink:title=" ">
<polygon fill="none" stroke="#bfbfbf" points="627,-62 627,-81 787,-81 787,-62 627,-62"/>
<text text-anchor="middle" x="707" y="-69" font-family="Helvetica,sans-Serif" font-size="10.00">Director/GameObjectDirector.hpp</text>
</a>
</g>
</g>
<!-- Node6&#45;&gt;Node10 -->
<g id="edge11" class="edge">
<title>Node6&#45;&gt;Node10</title>
<path fill="none" stroke="midnightblue" d="M579.52,-128.87C604.78,-117.7 649,-98.15 678.14,-85.26"/>
<polygon fill="midnightblue" stroke="midnightblue" points="679.67,-88.41 687.4,-81.17 676.84,-82.01 679.67,-88.41"/>
</g>
<!-- Node11 -->
<g id="node11" class="node">
<title>Node11</title>
<g id="a_node11"><a xlink:href="FlagBehaviour_8hpp.html" target="_top" xlink:title=" ">
<polygon fill="none" stroke="black" points="805.5,-62 805.5,-81 936.5,-81 936.5,-62 805.5,-62"/>
<text text-anchor="middle" x="871" y="-69" font-family="Helvetica,sans-Serif" font-size="10.00">Scripts/FlagBehaviour.hpp</text>
</a>
</g>
</g>
<!-- Node6&#45;&gt;Node11 -->
<g id="edge12" class="edge">
<title>Node6&#45;&gt;Node11</title>
<path fill="none" stroke="midnightblue" d="M598.76,-129.4C654.75,-117.7 758.33,-96.05 820.32,-83.09"/>
<polygon fill="midnightblue" stroke="midnightblue" points="821.2,-86.48 830.27,-81.01 819.76,-79.63 821.2,-86.48"/>
</g>
<!-- Node12 -->
<g id="node12" class="node">
<title>Node12</title>
<g id="a_node12"><a xlink:title=" ">
<polygon fill="none" stroke="#bfbfbf" points="913,-0.5 913,-19.5 1017,-19.5 1017,-0.5 913,-0.5"/>
<text text-anchor="middle" x="965" y="-7.5" font-family="Helvetica,sans-Serif" font-size="10.00">BehaviourScript.hpp</text>
</a>
</g>
</g>
<!-- Node11&#45;&gt;Node12 -->
<g id="edge13" class="edge">
<title>Node11&#45;&gt;Node12</title>
<path fill="none" stroke="midnightblue" d="M884.47,-61.98C899.68,-52.34 924.69,-36.52 942.8,-25.05"/>
<polygon fill="midnightblue" stroke="midnightblue" points="944.98,-27.81 951.56,-19.51 941.24,-21.9 944.98,-27.81"/>
</g>
<!-- Node14&#45;&gt;Node12 -->
<g id="edge16" class="edge">
<title>Node14&#45;&gt;Node12</title>
<path fill="none" stroke="midnightblue" d="M965,-128.81C965,-108.49 965,-57.55 965,-29.78"/>
<polygon fill="midnightblue" stroke="midnightblue" points="968.5,-29.76 965,-19.76 961.5,-29.76 968.5,-29.76"/>
</g>
<!-- Node15 -->
<g id="node15" class="node">
<title>Node15</title>
<g id="a_node15"><a xlink:title=" ">
<polygon fill="none" stroke="#bfbfbf" points="993.5,-56.5 993.5,-86.5 1088.5,-86.5 1088.5,-56.5 993.5,-56.5"/>
<text text-anchor="start" x="1001.5" y="-74.5" font-family="Helvetica,sans-Serif" font-size="10.00">boost/serialization</text>
<text text-anchor="middle" x="1041" y="-63.5" font-family="Helvetica,sans-Serif" font-size="10.00">/access.hpp</text>
</a>
</g>
</g>
<!-- Node14&#45;&gt;Node15 -->
<g id="edge17" class="edge">
<title>Node14&#45;&gt;Node15</title>
<path fill="none" stroke="midnightblue" d="M975.25,-128.73C985.82,-119.7 1002.68,-105.27 1016.68,-93.3"/>
<polygon fill="midnightblue" stroke="midnightblue" points="1019.2,-95.75 1024.53,-86.59 1014.65,-90.43 1019.2,-95.75"/>
</g>
<!-- Node16 -->
<g id="node16" class="node">
<title>Node16</title>
<g id="a_node16"><a xlink:title=" ">
<polygon fill="none" stroke="#bfbfbf" points="1106.5,-56.5 1106.5,-86.5 1201.5,-86.5 1201.5,-56.5 1106.5,-56.5"/>
<text text-anchor="start" x="1114.5" y="-74.5" font-family="Helvetica,sans-Serif" font-size="10.00">boost/serialization</text>
<text text-anchor="middle" x="1154" y="-63.5" font-family="Helvetica,sans-Serif" font-size="10.00">/export.hpp</text>
</a>
</g>
</g>
<!-- Node14&#45;&gt;Node16 -->
<g id="edge18" class="edge">
<title>Node14&#45;&gt;Node16</title>
<path fill="none" stroke="midnightblue" d="M990.1,-128.87C1018.95,-118.95 1067.04,-102.41 1103.68,-89.81"/>
<polygon fill="midnightblue" stroke="midnightblue" points="1104.89,-93.09 1113.21,-86.53 1102.62,-86.47 1104.89,-93.09"/>
</g>
<!-- Node17&#45;&gt;Node12 -->
<g id="edge20" class="edge">
<title>Node17&#45;&gt;Node12</title>
<path fill="none" stroke="midnightblue" d="M1194.67,-124.48C1263.55,-110.67 1362.26,-90.39 1365,-87 1373.66,-76.29 1374.18,-66.27 1365,-56 1342.92,-31.3 1134.07,-18.5 1027.26,-13.52"/>
<polygon fill="midnightblue" stroke="midnightblue" points="1027.4,-10.03 1017.25,-13.07 1027.08,-17.02 1027.4,-10.03"/>
</g>
<!-- Node18 -->
<g id="node18" class="node">
<title>Node18</title>
<g id="a_node18"><a xlink:title=" ">
<polygon fill="none" stroke="#bfbfbf" points="1219.5,-62 1219.5,-81 1356.5,-81 1356.5,-62 1219.5,-62"/>
<text text-anchor="middle" x="1288" y="-69" font-family="Helvetica,sans-Serif" font-size="10.00">Texture/AnimatedSprite.hpp</text>
</a>
</g>
</g>
<!-- Node17&#45;&gt;Node18 -->
<g id="edge21" class="edge">
<title>Node17&#45;&gt;Node18</title>
<path fill="none" stroke="midnightblue" d="M1163.5,-123.4C1191.65,-111.89 1231.01,-95.8 1257.89,-84.81"/>
<polygon fill="midnightblue" stroke="midnightblue" points="1259.26,-88.03 1267.19,-81.01 1256.61,-81.55 1259.26,-88.03"/>
</g>
<!-- Node20 -->
<g id="node20" class="node">
<title>Node20</title>
<g id="a_node20"><a xlink:title=" ">
<polygon fill="none" stroke="#bfbfbf" points="1542.5,-62 1542.5,-81 1583.5,-81 1583.5,-62 1542.5,-62"/>
<text text-anchor="middle" x="1563" y="-69" font-family="Helvetica,sans-Serif" font-size="10.00">string</text>
</a>
</g>
</g>
<!-- Node19&#45;&gt;Node20 -->
<g id="edge23" class="edge">
<title>Node19&#45;&gt;Node20</title>
<path fill="none" stroke="midnightblue" d="M1640.86,-128.73C1626.15,-118.11 1601.14,-100.05 1583.44,-87.26"/>
<polygon fill="midnightblue" stroke="midnightblue" points="1585.1,-84.14 1574.95,-81.13 1581,-89.82 1585.1,-84.14"/>
</g>
<!-- Node21 -->
<g id="node21" class="node">
<title>Node21</title>
<g id="a_node21"><a xlink:title=" ">
<polygon fill="none" stroke="#bfbfbf" points="1732,-62 1732,-81 1794,-81 1794,-62 1732,-62"/>
<text text-anchor="middle" x="1763" y="-69" font-family="Helvetica,sans-Serif" font-size="10.00">Scene.hpp</text>
</a>
</g>
</g>
<!-- Node19&#45;&gt;Node21 -->
<g id="edge24" class="edge">
<title>Node19&#45;&gt;Node21</title>
<path fill="none" stroke="midnightblue" d="M1667.84,-128.73C1686.31,-117.82 1718.07,-99.05 1739.78,-86.22"/>
<polygon fill="midnightblue" stroke="midnightblue" points="1741.57,-89.23 1748.4,-81.13 1738.01,-83.2 1741.57,-89.23"/>
</g>
<!-- Node22&#45;&gt;Node20 -->
<g id="edge26" class="edge">
<title>Node22&#45;&gt;Node20</title>
<path fill="none" stroke="midnightblue" d="M1484.27,-128.73C1499.15,-118.11 1524.43,-100.05 1542.33,-87.26"/>
<polygon fill="midnightblue" stroke="midnightblue" points="1544.82,-89.79 1550.92,-81.13 1540.75,-84.09 1544.82,-89.79"/>
</g>
<!-- Node23&#45;&gt;Node21 -->
<g id="edge28" class="edge">
<title>Node23&#45;&gt;Node21</title>
<path fill="none" stroke="midnightblue" d="M1796.74,-128.73C1790.78,-118.79 1780.9,-102.34 1773.37,-89.79"/>
<polygon fill="midnightblue" stroke="midnightblue" points="1776.32,-87.9 1768.18,-81.13 1770.32,-91.5 1776.32,-87.9"/>
</g>
</g>
</svg>
