<?xml version="1.0" encoding="UTF-8" standalone="no"?>
<!DOCTYPE svg PUBLIC "-//W3C//DTD SVG 1.1//EN"
 "http://www.w3.org/Graphics/SVG/1.1/DTD/svg11.dtd">
<!-- Generated by graphviz version 2.44.0 ()
 -->
<!-- Title: src/Game/Game.cpp Pages: 1 -->
<svg width="1521pt" height="397pt"
 viewBox="0.00 0.00 1520.50 397.00" xmlns="http://www.w3.org/2000/svg" xmlns:xlink="http://www.w3.org/1999/xlink">
<g id="graph0" class="graph" transform="scale(1 1) rotate(0) translate(4 393)">
<title>src/Game/Game.cpp</title>
<!-- Node1 -->
<g id="node1" class="node">
<title>Node1</title>
<g id="a_node1"><a xlink:title=" ">
<polygon fill="#bfbfbf" stroke="black" points="316,-369.5 316,-388.5 423,-388.5 423,-369.5 316,-369.5"/>
<text text-anchor="middle" x="369.5" y="-376.5" font-family="Helvetica,sans-Serif" font-size="10.00">src/Game/Game.cpp</text>
</a>
</g>
</g>
<!-- Node2 -->
<g id="node2" class="node">
<title>Node2</title>
<g id="a_node2"><a xlink:href="Game_8hpp.html" target="_top" xlink:title=" ">
<polygon fill="none" stroke="black" points="0,-257.5 0,-276.5 61,-276.5 61,-257.5 0,-257.5"/>
<text text-anchor="middle" x="30.5" y="-264.5" font-family="Helvetica,sans-Serif" font-size="10.00">Game.hpp</text>
</a>
</g>
</g>
<!-- Node1&#45;&gt;Node2 -->
<g id="edge1" class="edge">
<title>Node1&#45;&gt;Node2</title>
<path fill="none" stroke="midnightblue" d="M315.98,-374.5C243.41,-368.95 118.41,-356.29 79.5,-333 61,-321.93 47.15,-300.96 38.97,-285.83"/>
<polygon fill="midnightblue" stroke="midnightblue" points="42.08,-284.22 34.43,-276.89 35.84,-287.39 42.08,-284.22"/>
</g>
<!-- Node4 -->
<g id="node4" class="node">
<title>Node4</title>
<g id="a_node4"><a xlink:title=" ">
<polygon fill="none" stroke="#bfbfbf" points="712,-313.5 712,-332.5 837,-332.5 837,-313.5 712,-313.5"/>
<text text-anchor="middle" x="774.5" y="-320.5" font-family="Helvetica,sans-Serif" font-size="10.00">Builder/SceneBuilder.hpp</text>
</a>
</g>
</g>
<!-- Node1&#45;&gt;Node4 -->
<g id="edge3" class="edge">
<title>Node1&#45;&gt;Node4</title>
<path fill="none" stroke="midnightblue" d="M423.28,-370.83C494.88,-361.28 621.77,-344.36 701.84,-333.69"/>
<polygon fill="midnightblue" stroke="midnightblue" points="702.4,-337.15 711.85,-332.35 701.47,-330.21 702.4,-337.15"/>
</g>
<!-- Node5 -->
<g id="node5" class="node">
<title>Node5</title>
<g id="a_node5"><a xlink:href="NetworkingServer_8hpp.html" target="_top" xlink:title=" ">
<polygon fill="none" stroke="black" points="79,-257.5 79,-276.5 244,-276.5 244,-257.5 79,-257.5"/>
<text text-anchor="middle" x="161.5" y="-264.5" font-family="Helvetica,sans-Serif" font-size="10.00">Networking/NetworkingServer.hpp</text>
</a>
</g>
</g>
<!-- Node1&#45;&gt;Node5 -->
<g id="edge4" class="edge">
<title>Node1&#45;&gt;Node5</title>
<path fill="none" stroke="midnightblue" d="M315.82,-377.39C242.34,-375.28 116.26,-366.71 87.5,-333 70.13,-312.64 101.67,-292.87 128.8,-280.59"/>
<polygon fill="midnightblue" stroke="midnightblue" points="130.33,-283.74 138.13,-276.57 127.56,-277.31 130.33,-283.74"/>
</g>
<!-- Node8 -->
<g id="node8" class="node">
<title>Node8</title>
<g id="a_node8"><a xlink:href="MainMenu_8hpp.html" target="_top" xlink:title=" ">
<polygon fill="none" stroke="black" points="96.5,-313.5 96.5,-332.5 208.5,-332.5 208.5,-313.5 96.5,-313.5"/>
<text text-anchor="middle" x="152.5" y="-320.5" font-family="Helvetica,sans-Serif" font-size="10.00">Levels/MainMenu.hpp</text>
</a>
</g>
</g>
<!-- Node1&#45;&gt;Node8 -->
<g id="edge7" class="edge">
<title>Node1&#45;&gt;Node8</title>
<path fill="none" stroke="midnightblue" d="M335.12,-369.44C297.58,-360.1 237.37,-345.12 196.43,-334.93"/>
<polygon fill="midnightblue" stroke="midnightblue" points="197.27,-331.53 186.72,-332.52 195.58,-338.33 197.27,-331.53"/>
</g>
<!-- Node9 -->
<g id="node9" class="node">
<title>Node9</title>
<g id="a_node9"><a xlink:title=" ">
<polygon fill="none" stroke="#bfbfbf" points="372,-257.5 372,-276.5 473,-276.5 473,-257.5 372,-257.5"/>
<text text-anchor="middle" x="422.5" y="-264.5" font-family="Helvetica,sans-Serif" font-size="10.00">UI/FPSCounter.hpp</text>
</a>
</g>
</g>
<!-- Node1&#45;&gt;Node9 -->
<g id="edge50" class="edge">
<title>Node1&#45;&gt;Node9</title>
<path fill="none" stroke="midnightblue" d="M379.1,-369.29C387.81,-360.85 400.36,-347.26 407.5,-333 414.79,-318.44 418.6,-300.26 420.55,-286.83"/>
<polygon fill="midnightblue" stroke="midnightblue" points="424.03,-287.21 421.79,-276.86 417.08,-286.35 424.03,-287.21"/>
</g>
<!-- Node10 -->
<g id="node10" class="node">
<title>Node10</title>
<g id="a_node10"><a xlink:href="Level1_8hpp.html" target="_top" xlink:title=" ">
<polygon fill="none" stroke="black" points="454.5,-313.5 454.5,-332.5 550.5,-332.5 550.5,-313.5 454.5,-313.5"/>
<text text-anchor="middle" x="502.5" y="-320.5" font-family="Helvetica,sans-Serif" font-size="10.00">Levels/Level1.hpp</text>
</a>
</g>
</g>
<!-- Node1&#45;&gt;Node10 -->
<g id="edge10" class="edge">
<title>Node1&#45;&gt;Node10</title>
<path fill="none" stroke="midnightblue" d="M390.57,-369.44C412.56,-360.52 447.23,-346.44 472.16,-336.32"/>
<polygon fill="midnightblue" stroke="midnightblue" points="473.58,-339.52 481.52,-332.52 470.94,-333.04 473.58,-339.52"/>
</g>
<!-- Node33 -->
<g id="node33" class="node">
<title>Node33</title>
<g id="a_node33"><a xlink:href="Level2_8hpp.html" target="_top" xlink:title=" ">
<polygon fill="none" stroke="black" points="569,-313.5 569,-332.5 694,-332.5 694,-313.5 569,-313.5"/>
<text text-anchor="middle" x="631.5" y="-320.5" font-family="Helvetica,sans-Serif" font-size="10.00">Game/Levels/Level2.hpp</text>
</a>
</g>
</g>
<!-- Node1&#45;&gt;Node33 -->
<g id="edge42" class="edge">
<title>Node1&#45;&gt;Node33</title>
<path fill="none" stroke="midnightblue" d="M411.01,-369.44C456.91,-359.98 530.88,-344.74 580.33,-334.55"/>
<polygon fill="midnightblue" stroke="midnightblue" points="581.09,-337.96 590.18,-332.52 579.68,-331.11 581.09,-337.96"/>
</g>
<!-- Node34 -->
<g id="node34" class="node">
<title>Node34</title>
<g id="a_node34"><a xlink:href="GameOverScene_8hpp.html" target="_top" xlink:title=" ">
<polygon fill="none" stroke="black" points="227,-313.5 227,-332.5 398,-332.5 398,-313.5 227,-313.5"/>
<text text-anchor="middle" x="312.5" y="-320.5" font-family="Helvetica,sans-Serif" font-size="10.00">Game/Levels/GameOverScene.hpp</text>
</a>
</g>
</g>
<!-- Node1&#45;&gt;Node34 -->
<g id="edge47" class="edge">
<title>Node1&#45;&gt;Node34</title>
<path fill="none" stroke="midnightblue" d="M360.34,-369.32C352,-361.42 339.47,-349.55 329.32,-339.94"/>
<polygon fill="midnightblue" stroke="midnightblue" points="331.49,-337.17 321.82,-332.83 326.68,-342.25 331.49,-337.17"/>
</g>
<!-- Node3 -->
<g id="node3" class="node">
<title>Node3</title>
<g id="a_node3"><a xlink:title=" ">
<polygon fill="none" stroke="#bfbfbf" points="10.5,-201.5 10.5,-220.5 106.5,-220.5 106.5,-201.5 10.5,-201.5"/>
<text text-anchor="middle" x="58.5" y="-208.5" font-family="Helvetica,sans-Serif" font-size="10.00">Engine/Engine.hpp</text>
</a>
</g>
</g>
<!-- Node2&#45;&gt;Node3 -->
<g id="edge2" class="edge">
<title>Node2&#45;&gt;Node3</title>
<path fill="none" stroke="midnightblue" d="M35.12,-257.08C38.96,-249.69 44.52,-238.95 49.26,-229.81"/>
<polygon fill="midnightblue" stroke="midnightblue" points="52.47,-231.24 53.96,-220.75 46.25,-228.02 52.47,-231.24"/>
</g>
<!-- Node6 -->
<g id="node6" class="node">
<title>Node6</title>
<g id="a_node6"><a xlink:title=" ">
<polygon fill="none" stroke="#bfbfbf" points="223,-140 223,-159 264,-159 264,-140 223,-140"/>
<text text-anchor="middle" x="243.5" y="-147" font-family="Helvetica,sans-Serif" font-size="10.00">string</text>
</a>
</g>
</g>
<!-- Node5&#45;&gt;Node6 -->
<g id="edge5" class="edge">
<title>Node5&#45;&gt;Node6</title>
<path fill="none" stroke="midnightblue" d="M162.36,-257.3C164.02,-244.13 168.6,-218.78 180.5,-201 190.44,-186.14 206.12,-173.55 219.35,-164.66"/>
<polygon fill="midnightblue" stroke="midnightblue" points="221.48,-167.45 228.01,-159.11 217.7,-161.55 221.48,-167.45"/>
</g>
<!-- Node7 -->
<g id="node7" class="node">
<title>Node7</title>
<g id="a_node7"><a xlink:title=" ">
<polygon fill="none" stroke="#bfbfbf" points="189.5,-201.5 189.5,-220.5 251.5,-220.5 251.5,-201.5 189.5,-201.5"/>
<text text-anchor="middle" x="220.5" y="-208.5" font-family="Helvetica,sans-Serif" font-size="10.00">Scene.hpp</text>
</a>
</g>
</g>
<!-- Node5&#45;&gt;Node7 -->
<g id="edge6" class="edge">
<title>Node5&#45;&gt;Node7</title>
<path fill="none" stroke="midnightblue" d="M170.98,-257.32C179.7,-249.34 192.84,-237.31 203.4,-227.65"/>
<polygon fill="midnightblue" stroke="midnightblue" points="205.83,-230.17 210.85,-220.83 201.11,-225 205.83,-230.17"/>
</g>
<!-- Node8&#45;&gt;Node7 -->
<g id="edge8" class="edge">
<title>Node8&#45;&gt;Node7</title>
<path fill="none" stroke="midnightblue" d="M197.2,-313.48C217.73,-307.09 240.2,-296.02 252.5,-277 262.78,-261.11 249.92,-241.44 237.57,-227.93"/>
<polygon fill="midnightblue" stroke="midnightblue" points="240.04,-225.45 230.54,-220.76 235.04,-230.35 240.04,-225.45"/>
</g>
<!-- Node8&#45;&gt;Node9 -->
<g id="edge9" class="edge">
<title>Node8&#45;&gt;Node9</title>
<path fill="none" stroke="midnightblue" d="M195.28,-313.44C242.68,-303.96 319.13,-288.67 370.08,-278.48"/>
<polygon fill="midnightblue" stroke="midnightblue" points="370.8,-281.91 379.92,-276.52 369.43,-275.05 370.8,-281.91"/>
</g>
<!-- Node10&#45;&gt;Node7 -->
<g id="edge11" class="edge">
<title>Node10&#45;&gt;Node7</title>
<path fill="none" stroke="midnightblue" d="M502.55,-313.31C502.12,-299.2 499.07,-271.42 482.5,-257 409.21,-193.21 361.19,-237.25 261.66,-221.17"/>
<polygon fill="midnightblue" stroke="midnightblue" points="262,-217.68 251.54,-219.36 260.77,-224.57 262,-217.68"/>
</g>
<!-- Node10&#45;&gt;Node9 -->
<g id="edge41" class="edge">
<title>Node10&#45;&gt;Node9</title>
<path fill="none" stroke="midnightblue" d="M489.65,-313.32C477.28,-304.98 458.37,-292.21 443.76,-282.35"/>
<polygon fill="midnightblue" stroke="midnightblue" points="445.57,-279.35 435.32,-276.65 441.65,-285.15 445.57,-279.35"/>
</g>
<!-- Node11 -->
<g id="node11" class="node">
<title>Node11</title>
<g id="a_node11"><a xlink:href="Level_8hpp.html" target="_top" xlink:title=" ">
<polygon fill="none" stroke="black" points="568,-257.5 568,-276.5 627,-276.5 627,-257.5 568,-257.5"/>
<text text-anchor="middle" x="597.5" y="-264.5" font-family="Helvetica,sans-Serif" font-size="10.00">Level.hpp</text>
</a>
</g>
</g>
<!-- Node10&#45;&gt;Node11 -->
<g id="edge12" class="edge">
<title>Node10&#45;&gt;Node11</title>
<path fill="none" stroke="midnightblue" d="M517.76,-313.32C532.72,-304.82 555.75,-291.73 573.23,-281.8"/>
<polygon fill="midnightblue" stroke="midnightblue" points="575.31,-284.64 582.27,-276.65 571.85,-278.55 575.31,-284.64"/>
</g>
<!-- Node26 -->
<g id="node26" class="node">
<title>Node26</title>
<g id="a_node26"><a xlink:href="CoinCounter_8hpp.html" target="_top" xlink:title=" ">
<polygon fill="none" stroke="black" points="1103,-73 1103,-92 1204,-92 1204,-73 1103,-73"/>
<text text-anchor="middle" x="1153.5" y="-80" font-family="Helvetica,sans-Serif" font-size="10.00">UI/CoinCounter.hpp</text>
</a>
</g>
</g>
<!-- Node10&#45;&gt;Node26 -->
<g id="edge31" class="edge">
<title>Node10&#45;&gt;Node26</title>
<path fill="none" stroke="midnightblue" d="M550.56,-314.51C697.65,-291.57 1131.92,-223.64 1134.5,-221 1165.61,-189.23 1161.74,-131.83 1157.16,-102.25"/>
<polygon fill="midnightblue" stroke="midnightblue" points="1160.55,-101.31 1155.38,-92.06 1153.65,-102.52 1160.55,-101.31"/>
</g>
<!-- Node11&#45;&gt;Node3 -->
<g id="edge16" class="edge">
<title>Node11&#45;&gt;Node3</title>
<path fill="none" stroke="midnightblue" d="M567.75,-263.02C481.63,-254.39 230.97,-229.28 116.61,-217.82"/>
<polygon fill="midnightblue" stroke="midnightblue" points="116.93,-214.34 106.63,-216.82 116.23,-221.3 116.93,-214.34"/>
</g>
<!-- Node11&#45;&gt;Node7 -->
<g id="edge13" class="edge">
<title>Node11&#45;&gt;Node7</title>
<path fill="none" stroke="midnightblue" d="M567.74,-259.58C562.99,-258.65 558.12,-257.75 553.5,-257 426.75,-236.31 390.89,-243.46 261.42,-221.2"/>
<polygon fill="midnightblue" stroke="midnightblue" points="261.97,-217.74 251.52,-219.47 260.77,-224.63 261.97,-217.74"/>
</g>
<!-- Node12 -->
<g id="node12" class="node">
<title>Node12</title>
<g id="a_node12"><a xlink:href="Sprites_8hpp.html" target="_top" xlink:title=" ">
<polygon fill="none" stroke="black" points="269,-201.5 269,-220.5 380,-220.5 380,-201.5 269,-201.5"/>
<text text-anchor="middle" x="324.5" y="-208.5" font-family="Helvetica,sans-Serif" font-size="10.00">constants/Sprites.hpp</text>
</a>
</g>
</g>
<!-- Node11&#45;&gt;Node12 -->
<g id="edge14" class="edge">
<title>Node11&#45;&gt;Node12</title>
<path fill="none" stroke="midnightblue" d="M567.68,-259.87C562.94,-258.9 558.09,-257.92 553.5,-257 493.54,-244.98 424.69,-231.49 378.26,-222.44"/>
<polygon fill="midnightblue" stroke="midnightblue" points="378.91,-219 368.42,-220.53 377.57,-225.87 378.91,-219"/>
</g>
<!-- Node13 -->
<g id="node13" class="node">
<title>Node13</title>
<g id="a_node13"><a xlink:title=" ">
<polygon fill="none" stroke="#bfbfbf" points="1016,-201.5 1016,-220.5 1125,-220.5 1125,-201.5 1016,-201.5"/>
<text text-anchor="middle" x="1070.5" y="-208.5" font-family="Helvetica,sans-Serif" font-size="10.00">Utility/InputEnum.hpp</text>
</a>
</g>
</g>
<!-- Node11&#45;&gt;Node13 -->
<g id="edge17" class="edge">
<title>Node11&#45;&gt;Node13</title>
<path fill="none" stroke="midnightblue" d="M627.12,-263.08C693.15,-256.51 857.62,-239.74 1005.7,-221.2"/>
<polygon fill="midnightblue" stroke="midnightblue" points="1006.39,-224.64 1015.88,-219.91 1005.52,-217.69 1006.39,-224.64"/>
</g>
<!-- Node14 -->
<g id="node14" class="node">
<title>Node14</title>
<g id="a_node14"><a xlink:title=" ">
<polygon fill="none" stroke="#bfbfbf" points="552.5,-201.5 552.5,-220.5 642.5,-220.5 642.5,-201.5 552.5,-201.5"/>
<text text-anchor="middle" x="597.5" y="-208.5" font-family="Helvetica,sans-Serif" font-size="10.00">AudioSource.hpp</text>
</a>
</g>
</g>
<!-- Node11&#45;&gt;Node14 -->
<g id="edge18" class="edge">
<title>Node11&#45;&gt;Node14</title>
<path fill="none" stroke="midnightblue" d="M597.5,-257.08C597.5,-250.01 597.5,-239.86 597.5,-230.99"/>
<polygon fill="midnightblue" stroke="midnightblue" points="601,-230.75 597.5,-220.75 594,-230.75 601,-230.75"/>
</g>
<!-- Node15 -->
<g id="node15" class="node">
<title>Node15</title>
<g id="a_node15"><a xlink:href="MarioBehaviour_8hpp.html" target="_top" xlink:title=" ">
<polygon fill="none" stroke="black" points="398.5,-201.5 398.5,-220.5 534.5,-220.5 534.5,-201.5 398.5,-201.5"/>
<text text-anchor="middle" x="466.5" y="-208.5" font-family="Helvetica,sans-Serif" font-size="10.00">Scripts/MarioBehaviour.hpp</text>
</a>
</g>
</g>
<!-- Node11&#45;&gt;Node15 -->
<g id="edge19" class="edge">
<title>Node11&#45;&gt;Node15</title>
<path fill="none" stroke="midnightblue" d="M576.74,-257.44C555.18,-248.56 521.24,-234.56 496.71,-224.45"/>
<polygon fill="midnightblue" stroke="midnightblue" points="497.74,-221.09 487.16,-220.52 495.07,-227.56 497.74,-221.09"/>
</g>
<!-- Node24 -->
<g id="node24" class="node">
<title>Node24</title>
<g id="a_node24"><a xlink:title=" ">
<polygon fill="none" stroke="#bfbfbf" points="660.5,-201.5 660.5,-220.5 818.5,-220.5 818.5,-201.5 660.5,-201.5"/>
<text text-anchor="middle" x="739.5" y="-208.5" font-family="Helvetica,sans-Serif" font-size="10.00">Director/GameObjectFactory.hpp</text>
</a>
</g>
</g>
<!-- Node11&#45;&gt;Node24 -->
<g id="edge29" class="edge">
<title>Node11&#45;&gt;Node24</title>
<path fill="none" stroke="midnightblue" d="M620,-257.44C643.58,-248.48 680.82,-234.31 707.46,-224.18"/>
<polygon fill="midnightblue" stroke="midnightblue" points="709,-227.34 717.1,-220.52 706.51,-220.8 709,-227.34"/>
</g>
<!-- Node25 -->
<g id="node25" class="node">
<title>Node25</title>
<g id="a_node25"><a xlink:title=" ">
<polygon fill="none" stroke="#bfbfbf" points="837,-201.5 837,-220.5 998,-220.5 998,-201.5 837,-201.5"/>
<text text-anchor="middle" x="917.5" y="-208.5" font-family="Helvetica,sans-Serif" font-size="10.00">Behaviour/CollisionBehaviour.hpp</text>
</a>
</g>
</g>
<!-- Node11&#45;&gt;Node25 -->
<g id="edge30" class="edge">
<title>Node11&#45;&gt;Node25</title>
<path fill="none" stroke="midnightblue" d="M627.03,-261.02C679.06,-252.24 788.02,-233.85 856.7,-222.26"/>
<polygon fill="midnightblue" stroke="midnightblue" points="857.67,-225.65 866.95,-220.53 856.51,-218.74 857.67,-225.65"/>
</g>
<!-- Node12&#45;&gt;Node6 -->
<g id="edge15" class="edge">
<title>Node12&#45;&gt;Node6</title>
<path fill="none" stroke="midnightblue" d="M312.89,-201.48C300.02,-192.02 279.03,-176.6 263.49,-165.19"/>
<polygon fill="midnightblue" stroke="midnightblue" points="265.22,-162.11 255.08,-159.01 261.07,-167.75 265.22,-162.11"/>
</g>
<!-- Node16 -->
<g id="node16" class="node">
<title>Node16</title>
<g id="a_node16"><a xlink:title=" ">
<polygon fill="none" stroke="#bfbfbf" points="569.5,-140 569.5,-159 673.5,-159 673.5,-140 569.5,-140"/>
<text text-anchor="middle" x="621.5" y="-147" font-family="Helvetica,sans-Serif" font-size="10.00">BehaviourScript.hpp</text>
</a>
</g>
</g>
<!-- Node15&#45;&gt;Node16 -->
<g id="edge20" class="edge">
<title>Node15&#45;&gt;Node16</title>
<path fill="none" stroke="midnightblue" d="M488.71,-201.48C515.18,-191.31 559.61,-174.26 589.72,-162.7"/>
<polygon fill="midnightblue" stroke="midnightblue" points="591.25,-165.86 599.33,-159.01 588.74,-159.33 591.25,-165.86"/>
</g>
<!-- Node17 -->
<g id="node17" class="node">
<title>Node17</title>
<g id="a_node17"><a xlink:href="MarioState_8hpp.html" target="_top" xlink:title=" ">
<polygon fill="none" stroke="black" points="490,-67.5 490,-97.5 593,-97.5 593,-67.5 490,-67.5"/>
<text text-anchor="start" x="498" y="-85.5" font-family="Helvetica,sans-Serif" font-size="10.00">Scripts/MarioStates</text>
<text text-anchor="middle" x="541.5" y="-74.5" font-family="Helvetica,sans-Serif" font-size="10.00">/MarioState.hpp</text>
</a>
</g>
</g>
<!-- Node15&#45;&gt;Node17 -->
<g id="edge21" class="edge">
<title>Node15&#45;&gt;Node17</title>
<path fill="none" stroke="midnightblue" d="M482.23,-201.39C495.03,-193.56 512.54,-180.84 522.5,-165 533.35,-147.75 538.01,-124.93 540.01,-107.83"/>
<polygon fill="midnightblue" stroke="midnightblue" points="543.53,-107.82 540.98,-97.53 536.56,-107.16 543.53,-107.82"/>
</g>
<!-- Node23 -->
<g id="node23" class="node">
<title>Node23</title>
<g id="a_node23"><a xlink:href="SmallMarioState_8hpp.html" target="_top" xlink:title=" ">
<polygon fill="none" stroke="black" points="403.5,-134.5 403.5,-164.5 513.5,-164.5 513.5,-134.5 403.5,-134.5"/>
<text text-anchor="start" x="411.5" y="-152.5" font-family="Helvetica,sans-Serif" font-size="10.00">Scripts/MarioStates</text>
<text text-anchor="middle" x="458.5" y="-141.5" font-family="Helvetica,sans-Serif" font-size="10.00">/SmallMarioState.hpp</text>
</a>
</g>
</g>
<!-- Node15&#45;&gt;Node23 -->
<g id="edge27" class="edge">
<title>Node15&#45;&gt;Node23</title>
<path fill="none" stroke="midnightblue" d="M465.35,-201.48C464.41,-194.47 463.03,-184.19 461.75,-174.7"/>
<polygon fill="midnightblue" stroke="midnightblue" points="465.19,-173.97 460.39,-164.52 458.25,-174.9 465.19,-173.97"/>
</g>
<!-- Node18 -->
<g id="node18" class="node">
<title>Node18</title>
<g id="a_node18"><a xlink:title=" ">
<polygon fill="none" stroke="#bfbfbf" points="726,-0.5 726,-30.5 821,-30.5 821,-0.5 726,-0.5"/>
<text text-anchor="start" x="734" y="-18.5" font-family="Helvetica,sans-Serif" font-size="10.00">boost/serialization</text>
<text text-anchor="middle" x="773.5" y="-7.5" font-family="Helvetica,sans-Serif" font-size="10.00">/access.hpp</text>
</a>
</g>
</g>
<!-- Node17&#45;&gt;Node18 -->
<g id="edge22" class="edge">
<title>Node17&#45;&gt;Node18</title>
<path fill="none" stroke="midnightblue" d="M591.55,-67.48C628.12,-57.23 677.77,-43.32 715.96,-32.62"/>
<polygon fill="midnightblue" stroke="midnightblue" points="717.23,-35.9 725.91,-29.83 715.34,-29.16 717.23,-35.9"/>
</g>
<!-- Node19 -->
<g id="node19" class="node">
<title>Node19</title>
<g id="a_node19"><a xlink:title=" ">
<polygon fill="none" stroke="#bfbfbf" points="839,-0.5 839,-30.5 934,-30.5 934,-0.5 839,-0.5"/>
<text text-anchor="start" x="847" y="-18.5" font-family="Helvetica,sans-Serif" font-size="10.00">boost/serialization</text>
<text text-anchor="middle" x="886.5" y="-7.5" font-family="Helvetica,sans-Serif" font-size="10.00">/export.hpp</text>
</a>
</g>
</g>
<!-- Node17&#45;&gt;Node19 -->
<g id="edge23" class="edge">
<title>Node17&#45;&gt;Node19</title>
<path fill="none" stroke="midnightblue" d="M593.16,-73.76C649.08,-65.09 741.04,-50 829.03,-31.23"/>
<polygon fill="midnightblue" stroke="midnightblue" points="829.86,-34.63 838.9,-29.1 828.39,-27.79 829.86,-34.63"/>
</g>
<!-- Node20 -->
<g id="node20" class="node">
<title>Node20</title>
<g id="a_node20"><a xlink:title=" ">
<polygon fill="none" stroke="#bfbfbf" points="613,-0.5 613,-30.5 708,-30.5 708,-0.5 613,-0.5"/>
<text text-anchor="start" x="621" y="-18.5" font-family="Helvetica,sans-Serif" font-size="10.00">boost/serialization</text>
<text text-anchor="middle" x="660.5" y="-7.5" font-family="Helvetica,sans-Serif" font-size="10.00">/shared_ptr.hpp</text>
</a>
</g>
</g>
<!-- Node17&#45;&gt;Node20 -->
<g id="edge24" class="edge">
<title>Node17&#45;&gt;Node20</title>
<path fill="none" stroke="midnightblue" d="M567.32,-67.4C584.47,-58.03 607.2,-45.62 625.91,-35.39"/>
<polygon fill="midnightblue" stroke="midnightblue" points="627.63,-38.44 634.73,-30.58 624.28,-32.3 627.63,-38.44"/>
</g>
<!-- Node21 -->
<g id="node21" class="node">
<title>Node21</title>
<g id="a_node21"><a xlink:title=" ">
<polygon fill="none" stroke="#bfbfbf" points="458,-6 458,-25 595,-25 595,-6 458,-6"/>
<text text-anchor="middle" x="526.5" y="-13" font-family="Helvetica,sans-Serif" font-size="10.00">Texture/AnimatedSprite.hpp</text>
</a>
</g>
</g>
<!-- Node17&#45;&gt;Node21 -->
<g id="edge25" class="edge">
<title>Node17&#45;&gt;Node21</title>
<path fill="none" stroke="midnightblue" d="M538.25,-67.4C536.07,-57.96 533.18,-45.45 530.81,-35.19"/>
<polygon fill="midnightblue" stroke="midnightblue" points="534.17,-34.15 528.51,-25.19 527.34,-35.73 534.17,-34.15"/>
</g>
<!-- Node22 -->
<g id="node22" class="node">
<title>Node22</title>
<g id="a_node22"><a xlink:title=" ">
<polygon fill="none" stroke="#bfbfbf" points="383,-6 383,-25 440,-25 440,-6 383,-6"/>
<text text-anchor="middle" x="411.5" y="-13" font-family="Helvetica,sans-Serif" font-size="10.00">Point.hpp</text>
</a>
</g>
</g>
<!-- Node17&#45;&gt;Node22 -->
<g id="edge26" class="edge">
<title>Node17&#45;&gt;Node22</title>
<path fill="none" stroke="midnightblue" d="M513.29,-67.4C490.78,-56.14 459.5,-40.5 437.58,-29.54"/>
<polygon fill="midnightblue" stroke="midnightblue" points="439.02,-26.35 428.51,-25.01 435.89,-32.61 439.02,-26.35"/>
</g>
<!-- Node23&#45;&gt;Node17 -->
<g id="edge28" class="edge">
<title>Node23&#45;&gt;Node17</title>
<path fill="none" stroke="midnightblue" d="M476.51,-134.4C487.93,-125.45 502.89,-113.74 515.58,-103.8"/>
<polygon fill="midnightblue" stroke="midnightblue" points="517.81,-106.5 523.53,-97.58 513.49,-100.99 517.81,-106.5"/>
</g>
<!-- Node26&#45;&gt;Node18 -->
<g id="edge33" class="edge">
<title>Node26&#45;&gt;Node18</title>
<path fill="none" stroke="midnightblue" d="M1102.88,-75.09C1041.06,-66.92 933.15,-51.59 830.89,-30.95"/>
<polygon fill="midnightblue" stroke="midnightblue" points="831.51,-27.51 821.01,-28.94 830.11,-34.37 831.51,-27.51"/>
</g>
<!-- Node26&#45;&gt;Node19 -->
<g id="edge34" class="edge">
<title>Node26&#45;&gt;Node19</title>
<path fill="none" stroke="midnightblue" d="M1117.42,-72.98C1077.52,-63.51 1011.07,-47.66 943.97,-31.1"/>
<polygon fill="midnightblue" stroke="midnightblue" points="944.62,-27.65 934.07,-28.65 942.94,-34.45 944.62,-27.65"/>
</g>
<!-- Node26&#45;&gt;Node20 -->
<g id="edge35" class="edge">
<title>Node26&#45;&gt;Node20</title>
<path fill="none" stroke="midnightblue" d="M1102.82,-77.84C1023.03,-71.6 863.15,-57.14 718.25,-30.97"/>
<polygon fill="midnightblue" stroke="midnightblue" points="718.76,-27.51 708.29,-29.15 717.5,-34.39 718.76,-27.51"/>
</g>
<!-- Node27 -->
<g id="node27" class="node">
<title>Node27</title>
<g id="a_node27"><a xlink:title=" ">
<polygon fill="none" stroke="#bfbfbf" points="1217,-6 1217,-25 1268,-25 1268,-6 1217,-6"/>
<text text-anchor="middle" x="1242.5" y="-13" font-family="Helvetica,sans-Serif" font-size="10.00">memory</text>
</a>
</g>
</g>
<!-- Node26&#45;&gt;Node27 -->
<g id="edge32" class="edge">
<title>Node26&#45;&gt;Node27</title>
<path fill="none" stroke="midnightblue" d="M1165.5,-72.73C1180.05,-62.11 1204.78,-44.05 1222.28,-31.26"/>
<polygon fill="midnightblue" stroke="midnightblue" points="1224.68,-33.85 1230.69,-25.13 1220.55,-28.2 1224.68,-33.85"/>
</g>
<!-- Node28 -->
<g id="node28" class="node">
<title>Node28</title>
<g id="a_node28"><a xlink:title=" ">
<polygon fill="none" stroke="#bfbfbf" points="1286.5,-0.5 1286.5,-30.5 1390.5,-30.5 1390.5,-0.5 1286.5,-0.5"/>
<text text-anchor="start" x="1294.5" y="-18.5" font-family="Helvetica,sans-Serif" font-size="10.00">boost/archive/binary</text>
<text text-anchor="middle" x="1338.5" y="-7.5" font-family="Helvetica,sans-Serif" font-size="10.00">_iarchive.hpp</text>
</a>
</g>
</g>
<!-- Node26&#45;&gt;Node28 -->
<g id="edge36" class="edge">
<title>Node26&#45;&gt;Node28</title>
<path fill="none" stroke="midnightblue" d="M1178.07,-72.87C1206.19,-62.99 1252.98,-46.55 1288.79,-33.97"/>
<polygon fill="midnightblue" stroke="midnightblue" points="1290.3,-37.15 1298.57,-30.53 1287.98,-30.54 1290.3,-37.15"/>
</g>
<!-- Node29 -->
<g id="node29" class="node">
<title>Node29</title>
<g id="a_node29"><a xlink:title=" ">
<polygon fill="none" stroke="#bfbfbf" points="1408.5,-0.5 1408.5,-30.5 1512.5,-30.5 1512.5,-0.5 1408.5,-0.5"/>
<text text-anchor="start" x="1416.5" y="-18.5" font-family="Helvetica,sans-Serif" font-size="10.00">boost/archive/binary</text>
<text text-anchor="middle" x="1460.5" y="-7.5" font-family="Helvetica,sans-Serif" font-size="10.00">_oarchive.hpp</text>
</a>
</g>
</g>
<!-- Node26&#45;&gt;Node29 -->
<g id="edge37" class="edge">
<title>Node26&#45;&gt;Node29</title>
<path fill="none" stroke="midnightblue" d="M1197.13,-72.97C1244.36,-63.63 1322.13,-48 1398.49,-31.19"/>
<polygon fill="midnightblue" stroke="midnightblue" points="1399.27,-34.6 1408.28,-29.02 1397.76,-27.76 1399.27,-34.6"/>
</g>
<!-- Node30 -->
<g id="node30" class="node">
<title>Node30</title>
<g id="a_node30"><a xlink:title=" ">
<polygon fill="none" stroke="#bfbfbf" points="952,-6 952,-25 1009,-25 1009,-6 952,-6"/>
<text text-anchor="middle" x="980.5" y="-13" font-family="Helvetica,sans-Serif" font-size="10.00">Color.hpp</text>
</a>
</g>
</g>
<!-- Node26&#45;&gt;Node30 -->
<g id="edge38" class="edge">
<title>Node26&#45;&gt;Node30</title>
<path fill="none" stroke="midnightblue" d="M1130.55,-72.97C1103.68,-62.96 1057.83,-45.86 1018.5,-31 1016.62,-30.29 1014.68,-29.56 1012.73,-28.82"/>
<polygon fill="midnightblue" stroke="midnightblue" points="1013.59,-25.4 1003,-25.11 1011.1,-31.94 1013.59,-25.4"/>
</g>
<!-- Node31 -->
<g id="node31" class="node">
<title>Node31</title>
<g id="a_node31"><a xlink:title=" ">
<polygon fill="none" stroke="#bfbfbf" points="1027,-6 1027,-25 1106,-25 1106,-6 1027,-6"/>
<text text-anchor="middle" x="1066.5" y="-13" font-family="Helvetica,sans-Serif" font-size="10.00">Transform.hpp</text>
</a>
</g>
</g>
<!-- Node26&#45;&gt;Node31 -->
<g id="edge39" class="edge">
<title>Node26&#45;&gt;Node31</title>
<path fill="none" stroke="midnightblue" d="M1141.77,-72.73C1127.55,-62.11 1103.37,-44.05 1086.26,-31.26"/>
<polygon fill="midnightblue" stroke="midnightblue" points="1088.15,-28.31 1078.05,-25.13 1083.96,-33.92 1088.15,-28.31"/>
</g>
<!-- Node32 -->
<g id="node32" class="node">
<title>Node32</title>
<g id="a_node32"><a xlink:title=" ">
<polygon fill="none" stroke="#bfbfbf" points="1124.5,-6 1124.5,-25 1198.5,-25 1198.5,-6 1124.5,-6"/>
<text text-anchor="middle" x="1161.5" y="-13" font-family="Helvetica,sans-Serif" font-size="10.00">UIObject.hpp</text>
</a>
</g>
</g>
<!-- Node26&#45;&gt;Node32 -->
<g id="edge40" class="edge">
<title>Node26&#45;&gt;Node32</title>
<path fill="none" stroke="midnightblue" d="M1154.58,-72.73C1155.75,-63.18 1157.67,-47.62 1159.19,-35.28"/>
<polygon fill="midnightblue" stroke="midnightblue" points="1162.69,-35.48 1160.44,-25.13 1155.74,-34.62 1162.69,-35.48"/>
</g>
<!-- Node33&#45;&gt;Node7 -->
<g id="edge43" class="edge">
<title>Node33&#45;&gt;Node7</title>
<path fill="none" stroke="midnightblue" d="M618.18,-313.47C595.43,-299.32 547.2,-271.17 502.5,-257 401.47,-224.98 368.69,-240.32 261.45,-221.22"/>
<polygon fill="midnightblue" stroke="midnightblue" points="262,-217.76 251.53,-219.4 260.73,-224.65 262,-217.76"/>
</g>
<!-- Node33&#45;&gt;Node9 -->
<g id="edge46" class="edge">
<title>Node33&#45;&gt;Node9</title>
<path fill="none" stroke="midnightblue" d="M598.38,-313.44C562.38,-304.14 504.73,-289.25 465.31,-279.06"/>
<polygon fill="midnightblue" stroke="midnightblue" points="466.02,-275.63 455.46,-276.52 464.27,-282.41 466.02,-275.63"/>
</g>
<!-- Node33&#45;&gt;Node11 -->
<g id="edge44" class="edge">
<title>Node33&#45;&gt;Node11</title>
<path fill="none" stroke="midnightblue" d="M625.89,-313.08C621.13,-305.53 614.18,-294.49 608.35,-285.23"/>
<polygon fill="midnightblue" stroke="midnightblue" points="611.3,-283.35 603.01,-276.75 605.38,-287.08 611.3,-283.35"/>
</g>
<!-- Node33&#45;&gt;Node26 -->
<g id="edge45" class="edge">
<title>Node33&#45;&gt;Node26</title>
<path fill="none" stroke="midnightblue" d="M694.31,-313.97C697.42,-313.63 700.49,-313.3 703.5,-313 754.95,-307.79 1132.38,-314.95 1167.5,-277 1212.67,-228.19 1179.84,-139.57 1162.45,-101.58"/>
<polygon fill="midnightblue" stroke="midnightblue" points="1165.49,-99.82 1158.04,-92.29 1159.17,-102.82 1165.49,-99.82"/>
</g>
<!-- Node34&#45;&gt;Node7 -->
<g id="edge48" class="edge">
<title>Node34&#45;&gt;Node7</title>
<path fill="none" stroke="midnightblue" d="M307.38,-313.15C299.71,-300.21 284.42,-275.66 268.5,-257 259.44,-246.38 248.09,-235.65 238.7,-227.33"/>
<polygon fill="midnightblue" stroke="midnightblue" points="240.91,-224.61 231.07,-220.7 236.33,-229.9 240.91,-224.61"/>
</g>
<!-- Node34&#45;&gt;Node9 -->
<g id="edge49" class="edge">
<title>Node34&#45;&gt;Node9</title>
<path fill="none" stroke="midnightblue" d="M330.17,-313.32C347.89,-304.62 375.4,-291.12 395.79,-281.11"/>
<polygon fill="midnightblue" stroke="midnightblue" points="397.44,-284.2 404.87,-276.65 394.35,-277.92 397.44,-284.2"/>
</g>
</g>
</svg>
