<?xml version="1.0" encoding="UTF-8" standalone="no"?>
<!DOCTYPE svg PUBLIC "-//W3C//DTD SVG 1.1//EN"
 "http://www.w3.org/Graphics/SVG/1.1/DTD/svg11.dtd">
<!-- Generated by graphviz version 2.44.0 ()
 -->
<!-- Title: src/Game/Game.cpp Pages: 1 -->
<!--zoomable 397 -->
<svg id="main" version="1.1" xmlns="http://www.w3.org/2000/svg" xmlns:xlink="http://www.w3.org/1999/xlink" xml:space="preserve" onload="init(evt)">
<style type="text/css"><![CDATA[
.edge:hover path { stroke: red; }
.edge:hover polygon { stroke: red; fill: red; }
]]></style>
<script type="text/javascript"><![CDATA[
var edges = document.getElementsByTagName('g');
if (edges && edges.length) {
  for (var i=0;i<edges.length;i++) {
    if (edges[i].id.substr(0,4)=='edge') {
      edges[i].setAttribute('class','edge');
    }
  }
}
]]></script>
        <defs>
                <circle id="rim" cx="0" cy="0" r="7"/>
                <circle id="rim2" cx="0" cy="0" r="3.5"/>
                <g id="zoomPlus">
                        <use xlink:href="#rim" fill="#404040">
                                <set attributeName="fill" to="#808080" begin="zoomplus.mouseover" end="zoomplus.mouseout"/>
                        </use>
                        <path d="M-4,0h8M0,-4v8" fill="none" stroke="white" stroke-width="1.5" pointer-events="none"/>
                </g>
                <g id="zoomMin">
                        <use xlink:href="#rim" fill="#404040">
                                <set attributeName="fill" to="#808080" begin="zoomminus.mouseover" end="zoomminus.mouseout"/>
                        </use>
                        <path d="M-4,0h8" fill="none" stroke="white" stroke-width="1.5" pointer-events="none"/>
                </g>
                <g id="dirArrow">
                        <path fill="none" stroke="white" stroke-width="1.5" d="M0,-3.0v7 M-2.5,-0.5L0,-3.0L2.5,-0.5"/>
                </g>
               <g id="resetDef">
                       <use xlink:href="#rim2" fill="#404040">
                               <set attributeName="fill" to="#808080" begin="reset.mouseover" end="reset.mouseout"/>
                       </use>
               </g>
        </defs>

<script type="text/javascript">
var viewWidth = 2349;
var viewHeight = 397;
var sectionId = 'dynsection-0';
</script>
<script xlink:href="svgpan.js"/>
<svg id="graph" class="graph">
<g id="viewport">
<title>src/Game/Game.cpp</title>
<!-- Node1 -->
<g id="node1" class="node">
<title>Node1</title>
<g id="a_node1"><a xlink:title=" ">
<polygon fill="#bfbfbf" stroke="black" points="1597.5,-369.5 1597.5,-388.5 1704.5,-388.5 1704.5,-369.5 1597.5,-369.5"/>
<text text-anchor="middle" x="1651" y="-376.5" font-family="Helvetica,sans-Serif" font-size="10.00">src/Game/Game.cpp</text>
</a>
</g>
</g>
<!-- Node2 -->
<g id="node2" class="node">
<title>Node2</title>
<g id="a_node2"><a xlink:href="Game_8hpp.html" target="_top" xlink:title=" ">
<polygon fill="none" stroke="black" points="1199.5,-257.5 1199.5,-276.5 1260.5,-276.5 1260.5,-257.5 1199.5,-257.5"/>
<text text-anchor="middle" x="1230" y="-264.5" font-family="Helvetica,sans-Serif" font-size="10.00">Game.hpp</text>
</a>
</g>
</g>
<!-- Node1&#45;&gt;Node2 -->
<g id="edge1" class="edge">
<title>Node1&#45;&gt;Node2</title>
<path fill="none" stroke="midnightblue" d="M1597.43,-376.93C1506.85,-374.26 1328.08,-364.97 1275,-333 1257.04,-322.18 1244.49,-301.13 1237.29,-285.91"/>
<polygon fill="midnightblue" stroke="midnightblue" points="1240.39,-284.25 1233.16,-276.5 1233.98,-287.07 1240.39,-284.25"/>
</g>
<!-- Node4 -->
<g id="node4" class="node">
<title>Node4</title>
<g id="a_node4"><a xlink:title=" ">
<polygon fill="none" stroke="#bfbfbf" points="0,-201.5 0,-220.5 152,-220.5 152,-201.5 0,-201.5"/>
<text text-anchor="middle" x="76" y="-208.5" font-family="Helvetica,sans-Serif" font-size="10.00">Builder/GameObjectBuilder.hpp</text>
</a>
</g>
</g>
<!-- Node1&#45;&gt;Node4 -->
<g id="edge3" class="edge">
<title>Node1&#45;&gt;Node4</title>
<path fill="none" stroke="midnightblue" d="M1597.3,-377.46C1456.55,-375.6 1065.46,-367.45 742,-333 589.28,-316.73 552.1,-304.51 401,-277 303.34,-259.22 189.71,-235.88 125.98,-222.56"/>
<polygon fill="midnightblue" stroke="midnightblue" points="126.7,-219.13 116.19,-220.5 125.26,-225.98 126.7,-219.13"/>
</g>
<!-- Node5 -->
<g id="node5" class="node">
<title>Node5</title>
<g id="a_node5"><a xlink:title=" ">
<polygon fill="none" stroke="#bfbfbf" points="170.5,-201.5 170.5,-220.5 295.5,-220.5 295.5,-201.5 170.5,-201.5"/>
<text text-anchor="middle" x="233" y="-208.5" font-family="Helvetica,sans-Serif" font-size="10.00">Builder/SceneBuilder.hpp</text>
</a>
</g>
</g>
<!-- Node1&#45;&gt;Node5 -->
<g id="edge4" class="edge">
<title>Node1&#45;&gt;Node5</title>
<path fill="none" stroke="midnightblue" d="M1597.21,-376.64C1432.07,-371.74 918.23,-351.16 500,-277 418.31,-262.51 324.39,-237.71 272.56,-223.3"/>
<polygon fill="midnightblue" stroke="midnightblue" points="273.34,-219.88 262.77,-220.56 271.46,-226.62 273.34,-219.88"/>
</g>
<!-- Node6 -->
<g id="node6" class="node">
<title>Node6</title>
<g id="a_node6"><a xlink:href="TileConfig_8hpp.html" target="_top" xlink:title=" ">
<polygon fill="none" stroke="black" points="509.5,-257.5 509.5,-276.5 586.5,-276.5 586.5,-257.5 509.5,-257.5"/>
<text text-anchor="middle" x="548" y="-264.5" font-family="Helvetica,sans-Serif" font-size="10.00">TileConfig.hpp</text>
</a>
</g>
</g>
<!-- Node1&#45;&gt;Node6 -->
<g id="edge5" class="edge">
<title>Node1&#45;&gt;Node6</title>
<path fill="none" stroke="midnightblue" d="M1597.43,-372.66C1408.78,-353.84 776.94,-290.83 596.5,-272.84"/>
<polygon fill="midnightblue" stroke="midnightblue" points="596.8,-269.35 586.51,-271.84 596.11,-276.32 596.8,-269.35"/>
</g>
<!-- Node24 -->
<g id="node24" class="node">
<title>Node24</title>
<g id="a_node24"><a xlink:title=" ">
<polygon fill="none" stroke="#bfbfbf" points="1296.5,-201.5 1296.5,-220.5 1457.5,-220.5 1457.5,-201.5 1296.5,-201.5"/>
<text text-anchor="middle" x="1377" y="-208.5" font-family="Helvetica,sans-Serif" font-size="10.00">Behaviour/CollisionBehaviour.hpp</text>
</a>
</g>
</g>
<!-- Node1&#45;&gt;Node24 -->
<g id="edge32" class="edge">
<title>Node1&#45;&gt;Node24</title>
<path fill="none" stroke="midnightblue" d="M1612.36,-369.45C1584.4,-362.26 1546.35,-350.34 1516,-333 1464.83,-303.77 1415.34,-253.97 1391.6,-228.33"/>
<polygon fill="midnightblue" stroke="midnightblue" points="1393.9,-225.65 1384.57,-220.62 1388.73,-230.37 1393.9,-225.65"/>
</g>
<!-- Node25 -->
<g id="node25" class="node">
<title>Node25</title>
<g id="a_node25"><a xlink:href="NetworkingServer_8hpp.html" target="_top" xlink:title=" ">
<polygon fill="none" stroke="black" points="2067.5,-257.5 2067.5,-276.5 2232.5,-276.5 2232.5,-257.5 2067.5,-257.5"/>
<text text-anchor="middle" x="2150" y="-264.5" font-family="Helvetica,sans-Serif" font-size="10.00">Networking/NetworkingServer.hpp</text>
</a>
</g>
</g>
<!-- Node1&#45;&gt;Node25 -->
<g id="edge33" class="edge">
<title>Node1&#45;&gt;Node25</title>
<path fill="none" stroke="midnightblue" d="M1704.78,-376.32C1823.22,-372.15 2098.68,-359.67 2131,-333 2144.44,-321.91 2148.69,-301.87 2149.88,-286.97"/>
<polygon fill="midnightblue" stroke="midnightblue" points="2153.38,-286.94 2150.3,-276.8 2146.39,-286.65 2153.38,-286.94"/>
</g>
<!-- Node28 -->
<g id="node28" class="node">
<title>Node28</title>
<g id="a_node28"><a xlink:href="NetworkingClient_8hpp.html" target="_top" xlink:title=" ">
<polygon fill="none" stroke="black" points="2179.5,-313.5 2179.5,-332.5 2340.5,-332.5 2340.5,-313.5 2179.5,-313.5"/>
<text text-anchor="middle" x="2260" y="-320.5" font-family="Helvetica,sans-Serif" font-size="10.00">Networking/NetworkingClient.hpp</text>
</a>
</g>
</g>
<!-- Node1&#45;&gt;Node28 -->
<g id="edge36" class="edge">
<title>Node1&#45;&gt;Node28</title>
<path fill="none" stroke="midnightblue" d="M1704.55,-373.41C1797.88,-365.38 1996.38,-348.21 2164,-333 2165.72,-332.84 2167.46,-332.69 2169.21,-332.53"/>
<polygon fill="midnightblue" stroke="midnightblue" points="2169.7,-336 2179.34,-331.6 2169.06,-329.02 2169.7,-336"/>
</g>
<!-- Node29 -->
<g id="node29" class="node">
<title>Node29</title>
<g id="a_node29"><a xlink:href="MainMenu_8hpp.html" target="_top" xlink:title=" ">
<polygon fill="none" stroke="black" points="2010,-313.5 2010,-332.5 2122,-332.5 2122,-313.5 2010,-313.5"/>
<text text-anchor="middle" x="2066" y="-320.5" font-family="Helvetica,sans-Serif" font-size="10.00">Levels/MainMenu.hpp</text>
</a>
</g>
</g>
<!-- Node1&#45;&gt;Node29 -->
<g id="edge38" class="edge">
<title>Node1&#45;&gt;Node29</title>
<path fill="none" stroke="midnightblue" d="M1704.69,-371.26C1771.38,-362.85 1888.95,-347.91 1999.95,-333.13"/>
<polygon fill="midnightblue" stroke="midnightblue" points="2000.54,-336.58 2009.98,-331.79 1999.61,-329.64 2000.54,-336.58"/>
</g>
<!-- Node30 -->
<g id="node30" class="node">
<title>Node30</title>
<g id="a_node30"><a xlink:title=" ">
<polygon fill="none" stroke="#bfbfbf" points="1859.5,-257.5 1859.5,-276.5 1960.5,-276.5 1960.5,-257.5 1859.5,-257.5"/>
<text text-anchor="middle" x="1910" y="-264.5" font-family="Helvetica,sans-Serif" font-size="10.00">UI/FPSCounter.hpp</text>
</a>
</g>
</g>
<!-- Node1&#45;&gt;Node30 -->
<g id="edge72" class="edge">
<title>Node1&#45;&gt;Node30</title>
<path fill="none" stroke="midnightblue" d="M1677.06,-369.41C1702.01,-360.94 1740.55,-347.25 1773,-333 1790.84,-325.17 1794.48,-321.51 1812,-313 1835.19,-301.73 1861.8,-289.57 1881.43,-280.73"/>
<polygon fill="midnightblue" stroke="midnightblue" points="1883.04,-283.84 1890.73,-276.55 1880.17,-277.45 1883.04,-283.84"/>
</g>
<!-- Node31 -->
<g id="node31" class="node">
<title>Node31</title>
<g id="a_node31"><a xlink:href="Level1_8hpp.html" target="_top" xlink:title=" ">
<polygon fill="none" stroke="black" points="1668,-313.5 1668,-332.5 1764,-332.5 1764,-313.5 1668,-313.5"/>
<text text-anchor="middle" x="1716" y="-320.5" font-family="Helvetica,sans-Serif" font-size="10.00">Levels/Level1.hpp</text>
</a>
</g>
</g>
<!-- Node1&#45;&gt;Node31 -->
<g id="edge41" class="edge">
<title>Node1&#45;&gt;Node31</title>
<path fill="none" stroke="midnightblue" d="M1661.44,-369.32C1671.15,-361.26 1685.82,-349.08 1697.5,-339.37"/>
<polygon fill="midnightblue" stroke="midnightblue" points="1699.91,-341.92 1705.37,-332.83 1695.44,-336.53 1699.91,-341.92"/>
</g>
<!-- Node41 -->
<g id="node41" class="node">
<title>Node41</title>
<g id="a_node41"><a xlink:href="Level2_8hpp.html" target="_top" xlink:title=" ">
<polygon fill="none" stroke="black" points="1524.5,-313.5 1524.5,-332.5 1649.5,-332.5 1649.5,-313.5 1524.5,-313.5"/>
<text text-anchor="middle" x="1587" y="-320.5" font-family="Helvetica,sans-Serif" font-size="10.00">Game/Levels/Level2.hpp</text>
</a>
</g>
</g>
<!-- Node1&#45;&gt;Node41 -->
<g id="edge64" class="edge">
<title>Node1&#45;&gt;Node41</title>
<path fill="none" stroke="midnightblue" d="M1640.72,-369.32C1631.16,-361.26 1616.72,-349.08 1605.22,-339.37"/>
<polygon fill="midnightblue" stroke="midnightblue" points="1607.37,-336.61 1597.47,-332.83 1602.86,-341.96 1607.37,-336.61"/>
</g>
<!-- Node42 -->
<g id="node42" class="node">
<title>Node42</title>
<g id="a_node42"><a xlink:href="GameOverScene_8hpp.html" target="_top" xlink:title=" ">
<polygon fill="none" stroke="black" points="1820.5,-313.5 1820.5,-332.5 1991.5,-332.5 1991.5,-313.5 1820.5,-313.5"/>
<text text-anchor="middle" x="1906" y="-320.5" font-family="Helvetica,sans-Serif" font-size="10.00">Game/Levels/GameOverScene.hpp</text>
</a>
</g>
</g>
<!-- Node1&#45;&gt;Node42 -->
<g id="edge69" class="edge">
<title>Node1&#45;&gt;Node42</title>
<path fill="none" stroke="midnightblue" d="M1691.41,-369.44C1735.98,-360 1807.77,-344.8 1855.89,-334.61"/>
<polygon fill="midnightblue" stroke="midnightblue" points="1856.73,-338.01 1865.78,-332.52 1855.28,-331.16 1856.73,-338.01"/>
</g>
<!-- Node3 -->
<g id="node3" class="node">
<title>Node3</title>
<g id="a_node3"><a xlink:title=" ">
<polygon fill="none" stroke="#bfbfbf" points="1182,-201.5 1182,-220.5 1278,-220.5 1278,-201.5 1182,-201.5"/>
<text text-anchor="middle" x="1230" y="-208.5" font-family="Helvetica,sans-Serif" font-size="10.00">Engine/Engine.hpp</text>
</a>
</g>
</g>
<!-- Node2&#45;&gt;Node3 -->
<g id="edge2" class="edge">
<title>Node2&#45;&gt;Node3</title>
<path fill="none" stroke="midnightblue" d="M1230,-257.08C1230,-250.01 1230,-239.86 1230,-230.99"/>
<polygon fill="midnightblue" stroke="midnightblue" points="1233.5,-230.75 1230,-220.75 1226.5,-230.75 1233.5,-230.75"/>
</g>
<!-- Node6&#45;&gt;Node4 -->
<g id="edge9" class="edge">
<title>Node6&#45;&gt;Node4</title>
<path fill="none" stroke="midnightblue" d="M509.37,-261.58C433.52,-252.9 263.52,-233.45 160.42,-221.66"/>
<polygon fill="midnightblue" stroke="midnightblue" points="160.68,-218.17 150.35,-220.51 159.89,-225.12 160.68,-218.17"/>
</g>
<!-- Node6&#45;&gt;Node5 -->
<g id="edge10" class="edge">
<title>Node6&#45;&gt;Node5</title>
<path fill="none" stroke="midnightblue" d="M509.37,-259.38C455.26,-250.1 356.39,-233.15 292.75,-222.24"/>
<polygon fill="midnightblue" stroke="midnightblue" points="293.3,-218.79 282.85,-220.55 292.11,-225.68 293.3,-218.79"/>
</g>
<!-- Node7 -->
<g id="node7" class="node">
<title>Node7</title>
<g id="a_node7"><a xlink:title=" ">
<polygon fill="none" stroke="#bfbfbf" points="352.5,-201.5 352.5,-220.5 411.5,-220.5 411.5,-201.5 352.5,-201.5"/>
<text text-anchor="middle" x="382" y="-208.5" font-family="Helvetica,sans-Serif" font-size="10.00">functional</text>
</a>
</g>
</g>
<!-- Node6&#45;&gt;Node7 -->
<g id="edge6" class="edge">
<title>Node6&#45;&gt;Node7</title>
<path fill="none" stroke="midnightblue" d="M521.7,-257.44C493.65,-248.32 449.06,-233.81 417.82,-223.65"/>
<polygon fill="midnightblue" stroke="midnightblue" points="418.77,-220.28 408.18,-220.52 416.61,-226.94 418.77,-220.28"/>
</g>
<!-- Node8 -->
<g id="node8" class="node">
<title>Node8</title>
<g id="a_node8"><a xlink:title=" ">
<polygon fill="none" stroke="#bfbfbf" points="429.5,-201.5 429.5,-220.5 464.5,-220.5 464.5,-201.5 429.5,-201.5"/>
<text text-anchor="middle" x="447" y="-208.5" font-family="Helvetica,sans-Serif" font-size="10.00">map</text>
</a>
</g>
</g>
<!-- Node6&#45;&gt;Node8 -->
<g id="edge7" class="edge">
<title>Node6&#45;&gt;Node8</title>
<path fill="none" stroke="midnightblue" d="M531.77,-257.32C515.65,-248.7 490.7,-235.36 472.04,-225.39"/>
<polygon fill="midnightblue" stroke="midnightblue" points="473.66,-222.28 463.19,-220.65 470.36,-228.46 473.66,-222.28"/>
</g>
<!-- Node9 -->
<g id="node9" class="node">
<title>Node9</title>
<g id="a_node9"><a xlink:title=" ">
<polygon fill="none" stroke="#bfbfbf" points="548.5,-73 548.5,-92 599.5,-92 599.5,-73 548.5,-73"/>
<text text-anchor="middle" x="574" y="-80" font-family="Helvetica,sans-Serif" font-size="10.00">memory</text>
</a>
</g>
</g>
<!-- Node6&#45;&gt;Node9 -->
<g id="edge8" class="edge">
<title>Node6&#45;&gt;Node9</title>
<path fill="none" stroke="midnightblue" d="M509.07,-263.13C455.52,-258.29 363.44,-246.41 343,-221 337.43,-214.07 338.35,-208.58 343,-201 385.89,-131.06 484.88,-101.14 538.29,-89.71"/>
<polygon fill="midnightblue" stroke="midnightblue" points="539.23,-93.09 548.33,-87.67 537.83,-86.23 539.23,-93.09"/>
</g>
<!-- Node10 -->
<g id="node10" class="node">
<title>Node10</title>
<g id="a_node10"><a xlink:title=" ">
<polygon fill="none" stroke="#bfbfbf" points="1006,-201.5 1006,-220.5 1164,-220.5 1164,-201.5 1006,-201.5"/>
<text text-anchor="middle" x="1085" y="-208.5" font-family="Helvetica,sans-Serif" font-size="10.00">Director/GameObjectFactory.hpp</text>
</a>
</g>
</g>
<!-- Node6&#45;&gt;Node10 -->
<g id="edge11" class="edge">
<title>Node6&#45;&gt;Node10</title>
<path fill="none" stroke="midnightblue" d="M586.62,-262.12C671.56,-253.57 876.49,-232.97 995.43,-221.01"/>
<polygon fill="midnightblue" stroke="midnightblue" points="996.01,-224.47 1005.61,-219.98 995.31,-217.5 996.01,-224.47"/>
</g>
<!-- Node11 -->
<g id="node11" class="node">
<title>Node11</title>
<g id="a_node11"><a xlink:href="CoinBehaviour_8hpp.html" target="_top" xlink:title=" ">
<polygon fill="none" stroke="black" points="482.5,-201.5 482.5,-220.5 613.5,-220.5 613.5,-201.5 482.5,-201.5"/>
<text text-anchor="middle" x="548" y="-208.5" font-family="Helvetica,sans-Serif" font-size="10.00">Scripts/CoinBehaviour.hpp</text>
</a>
</g>
</g>
<!-- Node6&#45;&gt;Node11 -->
<g id="edge12" class="edge">
<title>Node6&#45;&gt;Node11</title>
<path fill="none" stroke="midnightblue" d="M548,-257.08C548,-250.01 548,-239.86 548,-230.99"/>
<polygon fill="midnightblue" stroke="midnightblue" points="551.5,-230.75 548,-220.75 544.5,-230.75 551.5,-230.75"/>
</g>
<!-- Node13 -->
<g id="node13" class="node">
<title>Node13</title>
<g id="a_node13"><a xlink:href="CoinCounter_8hpp.html" target="_top" xlink:title=" ">
<polygon fill="none" stroke="black" points="885.5,-140 885.5,-159 994.5,-159 994.5,-140 885.5,-140"/>
<text text-anchor="middle" x="940" y="-147" font-family="Helvetica,sans-Serif" font-size="10.00">../UI/CoinCounter.hpp</text>
</a>
</g>
</g>
<!-- Node6&#45;&gt;Node13 -->
<g id="edge31" class="edge">
<title>Node6&#45;&gt;Node13</title>
<path fill="none" stroke="midnightblue" d="M586.52,-266.55C671.32,-266.96 870.55,-263.27 920,-221 934.78,-208.36 939.04,-185.67 940.08,-169.45"/>
<polygon fill="midnightblue" stroke="midnightblue" points="943.59,-169.1 940.36,-159.01 936.59,-168.91 943.59,-169.1"/>
</g>
<!-- Node22 -->
<g id="node22" class="node">
<title>Node22</title>
<g id="a_node22"><a xlink:href="FlagBehaviour_8hpp.html" target="_top" xlink:title=" ">
<polygon fill="none" stroke="black" points="780.5,-201.5 780.5,-220.5 911.5,-220.5 911.5,-201.5 780.5,-201.5"/>
<text text-anchor="middle" x="846" y="-208.5" font-family="Helvetica,sans-Serif" font-size="10.00">Scripts/FlagBehaviour.hpp</text>
</a>
</g>
</g>
<!-- Node6&#45;&gt;Node22 -->
<g id="edge27" class="edge">
<title>Node6&#45;&gt;Node22</title>
<path fill="none" stroke="midnightblue" d="M586.65,-259C638.16,-249.66 729.7,-233.07 789.1,-222.31"/>
<polygon fill="midnightblue" stroke="midnightblue" points="789.86,-225.73 799.08,-220.5 788.61,-218.84 789.86,-225.73"/>
</g>
<!-- Node23 -->
<g id="node23" class="node">
<title>Node23</title>
<g id="a_node23"><a xlink:href="StarBehaviour_8hpp.html" target="_top" xlink:title=" ">
<polygon fill="none" stroke="black" points="632,-201.5 632,-220.5 762,-220.5 762,-201.5 632,-201.5"/>
<text text-anchor="middle" x="697" y="-208.5" font-family="Helvetica,sans-Serif" font-size="10.00">Scripts/StarBehaviour.hpp</text>
</a>
</g>
</g>
<!-- Node6&#45;&gt;Node23 -->
<g id="edge29" class="edge">
<title>Node6&#45;&gt;Node23</title>
<path fill="none" stroke="midnightblue" d="M571.61,-257.44C596.46,-248.44 635.77,-234.19 663.75,-224.05"/>
<polygon fill="midnightblue" stroke="midnightblue" points="665.29,-227.21 673.5,-220.52 662.91,-220.63 665.29,-227.21"/>
</g>
<!-- Node12 -->
<g id="node12" class="node">
<title>Node12</title>
<g id="a_node12"><a xlink:title=" ">
<polygon fill="none" stroke="#bfbfbf" points="724,-140 724,-159 828,-159 828,-140 724,-140"/>
<text text-anchor="middle" x="776" y="-147" font-family="Helvetica,sans-Serif" font-size="10.00">BehaviourScript.hpp</text>
</a>
</g>
</g>
<!-- Node11&#45;&gt;Node12 -->
<g id="edge13" class="edge">
<title>Node11&#45;&gt;Node12</title>
<path fill="none" stroke="midnightblue" d="M580.67,-201.48C620.88,-190.98 689.26,-173.14 733.52,-161.59"/>
<polygon fill="midnightblue" stroke="midnightblue" points="734.6,-164.92 743.39,-159.01 732.83,-158.15 734.6,-164.92"/>
</g>
<!-- Node11&#45;&gt;Node13 -->
<g id="edge14" class="edge">
<title>Node11&#45;&gt;Node13</title>
<path fill="none" stroke="midnightblue" d="M604.16,-201.48C675.74,-190.61 799.23,-171.87 874.86,-160.39"/>
<polygon fill="midnightblue" stroke="midnightblue" points="875.84,-163.78 885.2,-158.82 874.79,-156.86 875.84,-163.78"/>
</g>
<!-- Node14 -->
<g id="node14" class="node">
<title>Node14</title>
<g id="a_node14"><a xlink:title=" ">
<polygon fill="none" stroke="#bfbfbf" points="884.5,-0.5 884.5,-30.5 979.5,-30.5 979.5,-0.5 884.5,-0.5"/>
<text text-anchor="start" x="892.5" y="-18.5" font-family="Helvetica,sans-Serif" font-size="10.00">boost/serialization</text>
<text text-anchor="middle" x="932" y="-7.5" font-family="Helvetica,sans-Serif" font-size="10.00">/access.hpp</text>
</a>
</g>
</g>
<!-- Node11&#45;&gt;Node14 -->
<g id="edge24" class="edge">
<title>Node11&#45;&gt;Node14</title>
<path fill="none" stroke="midnightblue" d="M543.73,-201.26C532.39,-176.65 504.66,-106.03 539,-67 560.79,-42.23 770.66,-26.22 874.46,-19.76"/>
<polygon fill="midnightblue" stroke="midnightblue" points="874.7,-23.25 884.46,-19.14 874.27,-16.26 874.7,-23.25"/>
</g>
<!-- Node15 -->
<g id="node15" class="node">
<title>Node15</title>
<g id="a_node15"><a xlink:title=" ">
<polygon fill="none" stroke="#bfbfbf" points="997.5,-0.5 997.5,-30.5 1092.5,-30.5 1092.5,-0.5 997.5,-0.5"/>
<text text-anchor="start" x="1005.5" y="-18.5" font-family="Helvetica,sans-Serif" font-size="10.00">boost/serialization</text>
<text text-anchor="middle" x="1045" y="-7.5" font-family="Helvetica,sans-Serif" font-size="10.00">/export.hpp</text>
</a>
</g>
</g>
<!-- Node11&#45;&gt;Node15 -->
<g id="edge25" class="edge">
<title>Node11&#45;&gt;Node15</title>
<path fill="none" stroke="midnightblue" d="M553.19,-201.3C569.11,-175.53 620.08,-99.37 685,-67 803.52,-7.9 852.36,-53.52 987.34,-30.89"/>
<polygon fill="midnightblue" stroke="midnightblue" points="987.97,-34.33 997.21,-29.14 986.75,-27.44 987.97,-34.33"/>
</g>
<!-- Node16 -->
<g id="node16" class="node">
<title>Node16</title>
<g id="a_node16"><a xlink:title=" ">
<polygon fill="none" stroke="#bfbfbf" points="618.5,-0.5 618.5,-30.5 713.5,-30.5 713.5,-0.5 618.5,-0.5"/>
<text text-anchor="start" x="626.5" y="-18.5" font-family="Helvetica,sans-Serif" font-size="10.00">boost/serialization</text>
<text text-anchor="middle" x="666" y="-7.5" font-family="Helvetica,sans-Serif" font-size="10.00">/shared_ptr.hpp</text>
</a>
</g>
</g>
<!-- Node11&#45;&gt;Node16 -->
<g id="edge26" class="edge">
<title>Node11&#45;&gt;Node16</title>
<path fill="none" stroke="midnightblue" d="M535.79,-201.24C525.65,-193.14 511.96,-180.11 506,-165 490.03,-124.48 480.25,-102.13 506,-67 529.2,-35.35 572.28,-23.03 607.9,-18.45"/>
<polygon fill="midnightblue" stroke="midnightblue" points="608.65,-21.89 618.21,-17.32 607.88,-14.94 608.65,-21.89"/>
</g>
<!-- Node13&#45;&gt;Node9 -->
<g id="edge15" class="edge">
<title>Node13&#45;&gt;Node9</title>
<path fill="none" stroke="midnightblue" d="M890.54,-139.99C833.15,-130.07 735.67,-113.11 652,-98 638.2,-95.51 623.05,-92.71 609.79,-90.23"/>
<polygon fill="midnightblue" stroke="midnightblue" points="610.11,-86.73 599.63,-88.33 608.82,-93.61 610.11,-86.73"/>
</g>
<!-- Node13&#45;&gt;Node14 -->
<g id="edge16" class="edge">
<title>Node13&#45;&gt;Node14</title>
<path fill="none" stroke="midnightblue" d="M942.71,-139.89C947.03,-124.98 954.57,-93.41 950,-67 948.44,-58 945.44,-48.48 942.32,-40.17"/>
<polygon fill="midnightblue" stroke="midnightblue" points="945.51,-38.72 938.55,-30.73 939.01,-41.31 945.51,-38.72"/>
</g>
<!-- Node13&#45;&gt;Node15 -->
<g id="edge17" class="edge">
<title>Node13&#45;&gt;Node15</title>
<path fill="none" stroke="midnightblue" d="M946.89,-139.84C963,-119.58 1003.56,-68.59 1027.18,-38.9"/>
<polygon fill="midnightblue" stroke="midnightblue" points="1030.15,-40.79 1033.64,-30.78 1024.67,-36.43 1030.15,-40.79"/>
</g>
<!-- Node13&#45;&gt;Node16 -->
<g id="edge18" class="edge">
<title>Node13&#45;&gt;Node16</title>
<path fill="none" stroke="midnightblue" d="M885.34,-140.88C814.78,-130.55 699.3,-111.82 685,-98 669.79,-83.29 665.74,-58.95 665.07,-40.69"/>
<polygon fill="midnightblue" stroke="midnightblue" points="668.57,-40.49 665.01,-30.51 661.57,-40.52 668.57,-40.49"/>
</g>
<!-- Node17 -->
<g id="node17" class="node">
<title>Node17</title>
<g id="a_node17"><a xlink:title=" ">
<polygon fill="none" stroke="#bfbfbf" points="1035,-67.5 1035,-97.5 1139,-97.5 1139,-67.5 1035,-67.5"/>
<text text-anchor="start" x="1043" y="-85.5" font-family="Helvetica,sans-Serif" font-size="10.00">boost/archive/binary</text>
<text text-anchor="middle" x="1087" y="-74.5" font-family="Helvetica,sans-Serif" font-size="10.00">_iarchive.hpp</text>
</a>
</g>
</g>
<!-- Node13&#45;&gt;Node17 -->
<g id="edge19" class="edge">
<title>Node13&#45;&gt;Node17</title>
<path fill="none" stroke="midnightblue" d="M959.52,-139.87C981.48,-130.16 1017.78,-114.11 1046.03,-101.61"/>
<polygon fill="midnightblue" stroke="midnightblue" points="1047.54,-104.77 1055.27,-97.53 1044.71,-98.37 1047.54,-104.77"/>
</g>
<!-- Node18 -->
<g id="node18" class="node">
<title>Node18</title>
<g id="a_node18"><a xlink:title=" ">
<polygon fill="none" stroke="#bfbfbf" points="1157,-67.5 1157,-97.5 1261,-97.5 1261,-67.5 1157,-67.5"/>
<text text-anchor="start" x="1165" y="-85.5" font-family="Helvetica,sans-Serif" font-size="10.00">boost/archive/binary</text>
<text text-anchor="middle" x="1209" y="-74.5" font-family="Helvetica,sans-Serif" font-size="10.00">_oarchive.hpp</text>
</a>
</g>
</g>
<!-- Node13&#45;&gt;Node18 -->
<g id="edge20" class="edge">
<title>Node13&#45;&gt;Node18</title>
<path fill="none" stroke="midnightblue" d="M975.44,-139.94C1019,-129.41 1093.67,-111.37 1146.85,-98.52"/>
<polygon fill="midnightblue" stroke="midnightblue" points="1147.95,-101.85 1156.85,-96.1 1146.3,-95.05 1147.95,-101.85"/>
</g>
<!-- Node19 -->
<g id="node19" class="node">
<title>Node19</title>
<g id="a_node19"><a xlink:title=" ">
<polygon fill="none" stroke="#bfbfbf" points="694.5,-73 694.5,-92 751.5,-92 751.5,-73 694.5,-73"/>
<text text-anchor="middle" x="723" y="-80" font-family="Helvetica,sans-Serif" font-size="10.00">Color.hpp</text>
</a>
</g>
</g>
<!-- Node13&#45;&gt;Node19 -->
<g id="edge21" class="edge">
<title>Node13&#45;&gt;Node19</title>
<path fill="none" stroke="midnightblue" d="M905.52,-139.92C869.05,-130.6 810.01,-114.77 760,-98 757.87,-97.29 755.69,-96.52 753.5,-95.73"/>
<polygon fill="midnightblue" stroke="midnightblue" points="754.59,-92.4 744,-92.15 752.12,-98.95 754.59,-92.4"/>
</g>
<!-- Node20 -->
<g id="node20" class="node">
<title>Node20</title>
<g id="a_node20"><a xlink:title=" ">
<polygon fill="none" stroke="#bfbfbf" points="769.5,-73 769.5,-92 848.5,-92 848.5,-73 769.5,-73"/>
<text text-anchor="middle" x="809" y="-80" font-family="Helvetica,sans-Serif" font-size="10.00">Transform.hpp</text>
</a>
</g>
</g>
<!-- Node13&#45;&gt;Node20 -->
<g id="edge22" class="edge">
<title>Node13&#45;&gt;Node20</title>
<path fill="none" stroke="midnightblue" d="M922.6,-139.87C900.39,-128.84 861.71,-109.66 835.74,-96.77"/>
<polygon fill="midnightblue" stroke="midnightblue" points="836.98,-93.48 826.47,-92.17 833.87,-99.75 836.98,-93.48"/>
</g>
<!-- Node21 -->
<g id="node21" class="node">
<title>Node21</title>
<g id="a_node21"><a xlink:title=" ">
<polygon fill="none" stroke="#bfbfbf" points="867,-73 867,-92 941,-92 941,-73 867,-73"/>
<text text-anchor="middle" x="904" y="-80" font-family="Helvetica,sans-Serif" font-size="10.00">UIObject.hpp</text>
</a>
</g>
</g>
<!-- Node13&#45;&gt;Node21 -->
<g id="edge23" class="edge">
<title>Node13&#45;&gt;Node21</title>
<path fill="none" stroke="midnightblue" d="M935.14,-139.73C929.69,-129.89 920.7,-113.66 913.78,-101.16"/>
<polygon fill="midnightblue" stroke="midnightblue" points="916.69,-99.18 908.78,-92.13 910.56,-102.57 916.69,-99.18"/>
</g>
<!-- Node22&#45;&gt;Node12 -->
<g id="edge28" class="edge">
<title>Node22&#45;&gt;Node12</title>
<path fill="none" stroke="midnightblue" d="M835.97,-201.48C824.95,-192.11 807.04,-176.88 793.66,-165.51"/>
<polygon fill="midnightblue" stroke="midnightblue" points="795.9,-162.82 786.01,-159.01 791.36,-168.15 795.9,-162.82"/>
</g>
<!-- Node23&#45;&gt;Node12 -->
<g id="edge30" class="edge">
<title>Node23&#45;&gt;Node12</title>
<path fill="none" stroke="midnightblue" d="M708.32,-201.48C720.87,-192.02 741.35,-176.6 756.5,-165.19"/>
<polygon fill="midnightblue" stroke="midnightblue" points="758.82,-167.82 764.7,-159.01 754.61,-162.23 758.82,-167.82"/>
</g>
<!-- Node26 -->
<g id="node26" class="node">
<title>Node26</title>
<g id="a_node26"><a xlink:title=" ">
<polygon fill="none" stroke="#bfbfbf" points="2129.5,-140 2129.5,-159 2170.5,-159 2170.5,-140 2129.5,-140"/>
<text text-anchor="middle" x="2150" y="-147" font-family="Helvetica,sans-Serif" font-size="10.00">string</text>
</a>
</g>
</g>
<!-- Node25&#45;&gt;Node26 -->
<g id="edge34" class="edge">
<title>Node25&#45;&gt;Node26</title>
<path fill="none" stroke="midnightblue" d="M2150,-257.32C2150,-238.76 2150,-194.84 2150,-169.47"/>
<polygon fill="midnightblue" stroke="midnightblue" points="2153.5,-169.28 2150,-159.28 2146.5,-169.28 2153.5,-169.28"/>
</g>
<!-- Node27 -->
<g id="node27" class="node">
<title>Node27</title>
<g id="a_node27"><a xlink:title=" ">
<polygon fill="none" stroke="#bfbfbf" points="2034,-201.5 2034,-220.5 2096,-220.5 2096,-201.5 2034,-201.5"/>
<text text-anchor="middle" x="2065" y="-208.5" font-family="Helvetica,sans-Serif" font-size="10.00">Scene.hpp</text>
</a>
</g>
</g>
<!-- Node25&#45;&gt;Node27 -->
<g id="edge35" class="edge">
<title>Node25&#45;&gt;Node27</title>
<path fill="none" stroke="midnightblue" d="M2136.34,-257.32C2123.08,-248.9 2102.73,-235.97 2087.15,-226.07"/>
<polygon fill="midnightblue" stroke="midnightblue" points="2088.94,-223.06 2078.62,-220.65 2085.19,-228.97 2088.94,-223.06"/>
</g>
<!-- Node28&#45;&gt;Node26 -->
<g id="edge37" class="edge">
<title>Node28&#45;&gt;Node26</title>
<path fill="none" stroke="midnightblue" d="M2258.81,-313.13C2256.8,-300.17 2251.94,-275.58 2242,-257 2222.36,-220.29 2188.11,-185.27 2167.4,-165.95"/>
<polygon fill="midnightblue" stroke="midnightblue" points="2169.67,-163.29 2159.93,-159.12 2164.95,-168.45 2169.67,-163.29"/>
</g>
<!-- Node29&#45;&gt;Node27 -->
<g id="edge39" class="edge">
<title>Node29&#45;&gt;Node27</title>
<path fill="none" stroke="midnightblue" d="M2064.26,-313.42C2062.53,-304.4 2059.99,-289.77 2059,-277 2057.8,-261.44 2059.62,-243.82 2061.57,-230.85"/>
<polygon fill="midnightblue" stroke="midnightblue" points="2065.05,-231.26 2063.24,-220.82 2058.14,-230.12 2065.05,-231.26"/>
</g>
<!-- Node29&#45;&gt;Node30 -->
<g id="edge40" class="edge">
<title>Node29&#45;&gt;Node30</title>
<path fill="none" stroke="midnightblue" d="M2041.28,-313.44C2015.15,-304.4 1973.74,-290.06 1944.42,-279.92"/>
<polygon fill="midnightblue" stroke="midnightblue" points="1945.2,-276.48 1934.6,-276.52 1942.91,-283.1 1945.2,-276.48"/>
</g>
<!-- Node31&#45;&gt;Node13 -->
<g id="edge62" class="edge">
<title>Node31&#45;&gt;Node13</title>
<path fill="none" stroke="midnightblue" d="M1724.77,-313.27C1739.54,-299.09 1770.94,-271.22 1803,-257 1881.14,-222.34 2045.97,-262.88 1987,-201 1978.49,-192.06 1231.84,-161.98 1004.78,-153.03"/>
<polygon fill="midnightblue" stroke="midnightblue" points="1004.81,-149.53 994.68,-152.63 1004.54,-156.53 1004.81,-149.53"/>
</g>
<!-- Node31&#45;&gt;Node27 -->
<g id="edge42" class="edge">
<title>Node31&#45;&gt;Node27</title>
<path fill="none" stroke="midnightblue" d="M1733.3,-313.38C1766.95,-296.66 1838.99,-261.09 1851,-257 1859.18,-254.22 1963.86,-232.65 2023.72,-220.41"/>
<polygon fill="midnightblue" stroke="midnightblue" points="2024.53,-223.82 2033.63,-218.39 2023.13,-216.96 2024.53,-223.82"/>
</g>
<!-- Node31&#45;&gt;Node30 -->
<g id="edge63" class="edge">
<title>Node31&#45;&gt;Node30</title>
<path fill="none" stroke="midnightblue" d="M1746.74,-313.44C1779.94,-304.2 1832.99,-289.44 1869.56,-279.26"/>
<polygon fill="midnightblue" stroke="midnightblue" points="1870.71,-282.57 1879.4,-276.52 1868.83,-275.83 1870.71,-282.57"/>
</g>
<!-- Node32 -->
<g id="node32" class="node">
<title>Node32</title>
<g id="a_node32"><a xlink:href="Level_8hpp.html" target="_top" xlink:title=" ">
<polygon fill="none" stroke="black" points="1583.5,-257.5 1583.5,-276.5 1642.5,-276.5 1642.5,-257.5 1583.5,-257.5"/>
<text text-anchor="middle" x="1613" y="-264.5" font-family="Helvetica,sans-Serif" font-size="10.00">Level.hpp</text>
</a>
</g>
</g>
<!-- Node31&#45;&gt;Node32 -->
<g id="edge43" class="edge">
<title>Node31&#45;&gt;Node32</title>
<path fill="none" stroke="midnightblue" d="M1699.45,-313.32C1683.01,-304.7 1657.57,-291.36 1638.53,-281.39"/>
<polygon fill="midnightblue" stroke="midnightblue" points="1639.99,-278.2 1629.51,-276.65 1636.74,-284.4 1639.99,-278.2"/>
</g>
<!-- Node32&#45;&gt;Node3 -->
<g id="edge47" class="edge">
<title>Node32&#45;&gt;Node3</title>
<path fill="none" stroke="midnightblue" d="M1583.31,-262.1C1527.6,-254.73 1403.38,-238.12 1288.23,-221.16"/>
<polygon fill="midnightblue" stroke="midnightblue" points="1288.6,-217.68 1278.19,-219.68 1287.57,-224.6 1288.6,-217.68"/>
</g>
<!-- Node32&#45;&gt;Node10 -->
<g id="edge60" class="edge">
<title>Node32&#45;&gt;Node10</title>
<path fill="none" stroke="midnightblue" d="M1583.48,-262.98C1506.17,-255.07 1295.38,-233.52 1174.1,-221.11"/>
<polygon fill="midnightblue" stroke="midnightblue" points="1174.4,-217.62 1164.09,-220.09 1173.69,-224.59 1174.4,-217.62"/>
</g>
<!-- Node32&#45;&gt;Node24 -->
<g id="edge61" class="edge">
<title>Node32&#45;&gt;Node24</title>
<path fill="none" stroke="midnightblue" d="M1583.11,-259.16C1543.13,-250.01 1471.79,-233.69 1424.43,-222.85"/>
<polygon fill="midnightblue" stroke="midnightblue" points="1424.94,-219.38 1414.42,-220.56 1423.38,-226.2 1424.94,-219.38"/>
</g>
<!-- Node32&#45;&gt;Node27 -->
<g id="edge44" class="edge">
<title>Node32&#45;&gt;Node27</title>
<path fill="none" stroke="midnightblue" d="M1642.66,-262.46C1720.97,-253.1 1933.43,-227.72 2023.62,-216.94"/>
<polygon fill="midnightblue" stroke="midnightblue" points="2024.23,-220.4 2033.74,-215.73 2023.4,-213.45 2024.23,-220.4"/>
</g>
<!-- Node33 -->
<g id="node33" class="node">
<title>Node33</title>
<g id="a_node33"><a xlink:href="Sprites_8hpp.html" target="_top" xlink:title=" ">
<polygon fill="none" stroke="black" points="1866.5,-201.5 1866.5,-220.5 1977.5,-220.5 1977.5,-201.5 1866.5,-201.5"/>
<text text-anchor="middle" x="1922" y="-208.5" font-family="Helvetica,sans-Serif" font-size="10.00">constants/Sprites.hpp</text>
</a>
</g>
</g>
<!-- Node32&#45;&gt;Node33 -->
<g id="edge45" class="edge">
<title>Node32&#45;&gt;Node33</title>
<path fill="none" stroke="midnightblue" d="M1642.63,-260.82C1693.24,-251.98 1797.26,-233.8 1863.11,-222.29"/>
<polygon fill="midnightblue" stroke="midnightblue" points="1864.09,-225.67 1873.33,-220.5 1862.88,-218.78 1864.09,-225.67"/>
</g>
<!-- Node34 -->
<g id="node34" class="node">
<title>Node34</title>
<g id="a_node34"><a xlink:title=" ">
<polygon fill="none" stroke="#bfbfbf" points="1584.5,-201.5 1584.5,-220.5 1693.5,-220.5 1693.5,-201.5 1584.5,-201.5"/>
<text text-anchor="middle" x="1639" y="-208.5" font-family="Helvetica,sans-Serif" font-size="10.00">Utility/InputEnum.hpp</text>
</a>
</g>
</g>
<!-- Node32&#45;&gt;Node34 -->
<g id="edge48" class="edge">
<title>Node32&#45;&gt;Node34</title>
<path fill="none" stroke="midnightblue" d="M1617.29,-257.08C1620.85,-249.69 1626.02,-238.95 1630.42,-229.81"/>
<polygon fill="midnightblue" stroke="midnightblue" points="1633.6,-231.28 1634.79,-220.75 1627.29,-228.24 1633.6,-231.28"/>
</g>
<!-- Node35 -->
<g id="node35" class="node">
<title>Node35</title>
<g id="a_node35"><a xlink:title=" ">
<polygon fill="none" stroke="#bfbfbf" points="1476,-201.5 1476,-220.5 1566,-220.5 1566,-201.5 1476,-201.5"/>
<text text-anchor="middle" x="1521" y="-208.5" font-family="Helvetica,sans-Serif" font-size="10.00">AudioSource.hpp</text>
</a>
</g>
</g>
<!-- Node32&#45;&gt;Node35 -->
<g id="edge49" class="edge">
<title>Node32&#45;&gt;Node35</title>
<path fill="none" stroke="midnightblue" d="M1598.22,-257.32C1583.73,-248.82 1561.43,-235.73 1544.51,-225.8"/>
<polygon fill="midnightblue" stroke="midnightblue" points="1546.14,-222.7 1535.74,-220.65 1542.6,-228.74 1546.14,-222.7"/>
</g>
<!-- Node36 -->
<g id="node36" class="node">
<title>Node36</title>
<g id="a_node36"><a xlink:href="MarioBehaviour_8hpp.html" target="_top" xlink:title=" ">
<polygon fill="none" stroke="black" points="1712,-201.5 1712,-220.5 1848,-220.5 1848,-201.5 1712,-201.5"/>
<text text-anchor="middle" x="1780" y="-208.5" font-family="Helvetica,sans-Serif" font-size="10.00">Scripts/MarioBehaviour.hpp</text>
</a>
</g>
</g>
<!-- Node32&#45;&gt;Node36 -->
<g id="edge50" class="edge">
<title>Node32&#45;&gt;Node36</title>
<path fill="none" stroke="midnightblue" d="M1639.46,-257.44C1667.68,-248.32 1712.54,-233.81 1743.97,-223.65"/>
<polygon fill="midnightblue" stroke="midnightblue" points="1745.22,-226.92 1753.66,-220.52 1743.07,-220.26 1745.22,-226.92"/>
</g>
<!-- Node33&#45;&gt;Node26 -->
<g id="edge46" class="edge">
<title>Node33&#45;&gt;Node26</title>
<path fill="none" stroke="midnightblue" d="M1954.67,-201.48C1998.69,-189.99 2076.48,-169.69 2119.41,-158.48"/>
<polygon fill="midnightblue" stroke="midnightblue" points="2120.49,-161.82 2129.28,-155.91 2118.72,-155.05 2120.49,-161.82"/>
</g>
<!-- Node36&#45;&gt;Node12 -->
<g id="edge51" class="edge">
<title>Node36&#45;&gt;Node12</title>
<path fill="none" stroke="midnightblue" d="M1711.59,-201.74C1708.69,-201.47 1705.82,-201.23 1703,-201 1336.27,-171.63 1242.29,-199.44 876,-165 863.6,-163.83 850.38,-162.2 837.75,-160.44"/>
<polygon fill="midnightblue" stroke="midnightblue" points="838.18,-156.97 827.78,-159.02 837.19,-163.9 838.18,-156.97"/>
</g>
<!-- Node37 -->
<g id="node37" class="node">
<title>Node37</title>
<g id="a_node37"><a xlink:href="MarioState_8hpp.html" target="_top" xlink:title=" ">
<polygon fill="none" stroke="black" points="1279.5,-67.5 1279.5,-97.5 1382.5,-97.5 1382.5,-67.5 1279.5,-67.5"/>
<text text-anchor="start" x="1287.5" y="-85.5" font-family="Helvetica,sans-Serif" font-size="10.00">Scripts/MarioStates</text>
<text text-anchor="middle" x="1331" y="-74.5" font-family="Helvetica,sans-Serif" font-size="10.00">/MarioState.hpp</text>
</a>
</g>
</g>
<!-- Node36&#45;&gt;Node37 -->
<g id="edge52" class="edge">
<title>Node36&#45;&gt;Node37</title>
<path fill="none" stroke="midnightblue" d="M1749.49,-201.4C1675.83,-180.65 1487.22,-127.51 1390.36,-100.23"/>
<polygon fill="midnightblue" stroke="midnightblue" points="1391.29,-96.85 1380.72,-97.51 1389.39,-103.59 1391.29,-96.85"/>
</g>
<!-- Node40 -->
<g id="node40" class="node">
<title>Node40</title>
<g id="a_node40"><a xlink:href="SmallMarioState_8hpp.html" target="_top" xlink:title=" ">
<polygon fill="none" stroke="black" points="1375,-134.5 1375,-164.5 1485,-164.5 1485,-134.5 1375,-134.5"/>
<text text-anchor="start" x="1383" y="-152.5" font-family="Helvetica,sans-Serif" font-size="10.00">Scripts/MarioStates</text>
<text text-anchor="middle" x="1430" y="-141.5" font-family="Helvetica,sans-Serif" font-size="10.00">/SmallMarioState.hpp</text>
</a>
</g>
</g>
<!-- Node36&#45;&gt;Node40 -->
<g id="edge58" class="edge">
<title>Node36&#45;&gt;Node40</title>
<path fill="none" stroke="midnightblue" d="M1729.85,-201.48C1668.19,-190.99 1563.36,-173.17 1495.41,-161.62"/>
<polygon fill="midnightblue" stroke="midnightblue" points="1495.7,-158.12 1485.25,-159.89 1494.52,-165.02 1495.7,-158.12"/>
</g>
<!-- Node37&#45;&gt;Node14 -->
<g id="edge53" class="edge">
<title>Node37&#45;&gt;Node14</title>
<path fill="none" stroke="midnightblue" d="M1279.5,-68.85C1276.29,-68.19 1273.11,-67.57 1270,-67 1148.85,-44.93 1113.84,-54.37 989.47,-31.14"/>
<polygon fill="midnightblue" stroke="midnightblue" points="990.04,-27.68 979.57,-29.25 988.74,-34.56 990.04,-27.68"/>
</g>
<!-- Node37&#45;&gt;Node15 -->
<g id="edge54" class="edge">
<title>Node37&#45;&gt;Node15</title>
<path fill="none" stroke="midnightblue" d="M1279.43,-69.19C1276.24,-68.45 1273.08,-67.71 1270,-67 1213.25,-53.89 1148.33,-39.37 1102.85,-29.27"/>
<polygon fill="midnightblue" stroke="midnightblue" points="1103.4,-25.81 1092.88,-27.06 1101.89,-32.65 1103.4,-25.81"/>
</g>
<!-- Node37&#45;&gt;Node16 -->
<g id="edge55" class="edge">
<title>Node37&#45;&gt;Node16</title>
<path fill="none" stroke="midnightblue" d="M1279.19,-68.63C1276.09,-68.03 1273.01,-67.48 1270,-67 1216.97,-58.53 864.44,-31.46 723.79,-20.83"/>
<polygon fill="midnightblue" stroke="midnightblue" points="723.87,-17.33 713.63,-20.07 723.34,-24.31 723.87,-17.33"/>
</g>
<!-- Node38 -->
<g id="node38" class="node">
<title>Node38</title>
<g id="a_node38"><a xlink:title=" ">
<polygon fill="none" stroke="#bfbfbf" points="1319.5,-6 1319.5,-25 1456.5,-25 1456.5,-6 1319.5,-6"/>
<text text-anchor="middle" x="1388" y="-13" font-family="Helvetica,sans-Serif" font-size="10.00">Texture/AnimatedSprite.hpp</text>
</a>
</g>
</g>
<!-- Node37&#45;&gt;Node38 -->
<g id="edge56" class="edge">
<title>Node37&#45;&gt;Node38</title>
<path fill="none" stroke="midnightblue" d="M1343.37,-67.4C1352.26,-57.26 1364.26,-43.57 1373.59,-32.94"/>
<polygon fill="midnightblue" stroke="midnightblue" points="1376.41,-35.02 1380.38,-25.19 1371.15,-30.41 1376.41,-35.02"/>
</g>
<!-- Node39 -->
<g id="node39" class="node">
<title>Node39</title>
<g id="a_node39"><a xlink:title=" ">
<polygon fill="none" stroke="#bfbfbf" points="1244.5,-6 1244.5,-25 1301.5,-25 1301.5,-6 1244.5,-6"/>
<text text-anchor="middle" x="1273" y="-13" font-family="Helvetica,sans-Serif" font-size="10.00">Point.hpp</text>
</a>
</g>
</g>
<!-- Node37&#45;&gt;Node39 -->
<g id="edge57" class="edge">
<title>Node37&#45;&gt;Node39</title>
<path fill="none" stroke="midnightblue" d="M1318.41,-67.4C1309.37,-57.26 1297.15,-43.57 1287.67,-32.94"/>
<polygon fill="midnightblue" stroke="midnightblue" points="1290.03,-30.33 1280.76,-25.19 1284.8,-34.99 1290.03,-30.33"/>
</g>
<!-- Node40&#45;&gt;Node37 -->
<g id="edge59" class="edge">
<title>Node40&#45;&gt;Node37</title>
<path fill="none" stroke="midnightblue" d="M1408.52,-134.4C1394.64,-125.28 1376.37,-113.29 1361.06,-103.24"/>
<polygon fill="midnightblue" stroke="midnightblue" points="1362.72,-100.14 1352.44,-97.58 1358.88,-105.99 1362.72,-100.14"/>
</g>
<!-- Node41&#45;&gt;Node13 -->
<g id="edge67" class="edge">
<title>Node41&#45;&gt;Node13</title>
<path fill="none" stroke="midnightblue" d="M1549.47,-313.44C1490.14,-300.11 1370.97,-274.15 1269,-257 1148.75,-236.78 1103.35,-280.66 997,-221 975.4,-208.88 958.82,-185.03 949.25,-168.44"/>
<polygon fill="midnightblue" stroke="midnightblue" points="952.08,-166.32 944.21,-159.22 945.93,-169.68 952.08,-166.32"/>
</g>
<!-- Node41&#45;&gt;Node27 -->
<g id="edge65" class="edge">
<title>Node41&#45;&gt;Node27</title>
<path fill="none" stroke="midnightblue" d="M1612.49,-313.43C1653.21,-299.98 1735.65,-273.71 1807,-257 1882.79,-239.25 1972.6,-225.12 2023.78,-217.7"/>
<polygon fill="midnightblue" stroke="midnightblue" points="2024.39,-221.15 2033.79,-216.26 2023.39,-214.22 2024.39,-221.15"/>
</g>
<!-- Node41&#45;&gt;Node30 -->
<g id="edge68" class="edge">
<title>Node41&#45;&gt;Node30</title>
<path fill="none" stroke="midnightblue" d="M1638.18,-313.44C1695.56,-303.85 1788.52,-288.31 1849.46,-278.12"/>
<polygon fill="midnightblue" stroke="midnightblue" points="1850.04,-281.57 1859.33,-276.47 1848.88,-274.67 1850.04,-281.57"/>
</g>
<!-- Node41&#45;&gt;Node32 -->
<g id="edge66" class="edge">
<title>Node41&#45;&gt;Node32</title>
<path fill="none" stroke="midnightblue" d="M1591.29,-313.08C1594.85,-305.69 1600.02,-294.95 1604.42,-285.81"/>
<polygon fill="midnightblue" stroke="midnightblue" points="1607.6,-287.28 1608.79,-276.75 1601.29,-284.24 1607.6,-287.28"/>
</g>
<!-- Node42&#45;&gt;Node27 -->
<g id="edge70" class="edge">
<title>Node42&#45;&gt;Node27</title>
<path fill="none" stroke="midnightblue" d="M1918.48,-313.37C1945.64,-294.57 2010.41,-249.77 2043.99,-226.53"/>
<polygon fill="midnightblue" stroke="midnightblue" points="2046.35,-229.16 2052.58,-220.59 2042.37,-223.4 2046.35,-229.16"/>
</g>
<!-- Node42&#45;&gt;Node30 -->
<g id="edge71" class="edge">
<title>Node42&#45;&gt;Node30</title>
<path fill="none" stroke="midnightblue" d="M1906.66,-313.08C1907.18,-306.01 1907.94,-295.86 1908.59,-286.99"/>
<polygon fill="midnightblue" stroke="midnightblue" points="1912.1,-286.98 1909.35,-276.75 1905.12,-286.47 1912.1,-286.98"/>
</g>
</g>
</svg>
        <g id="navigator" transform="translate(0 0)" fill="#404254">
                <rect fill="#f2f5e9" fill-opacity="0.5" stroke="#606060" stroke-width=".5" x="0" y="0" width="60" height="60"/>
                <use id="zoomplus" xlink:href="#zoomPlus" x="17" y="9" onmousedown="handleZoom(evt,'in')"/>
                <use id="zoomminus" xlink:href="#zoomMin" x="42" y="9" onmousedown="handleZoom(evt,'out')"/>
                <use id="reset" xlink:href="#resetDef" x="30" y="36" onmousedown="handleReset()"/>
                <g id="arrowUp" xlink:href="#dirArrow" transform="translate(30 24)" onmousedown="handlePan(0,-1)">
                  <use xlink:href="#rim" fill="#404040">
                        <set attributeName="fill" to="#808080" begin="arrowUp.mouseover" end="arrowUp.mouseout"/>
                  </use>
                  <path fill="none" stroke="white" stroke-width="1.5" d="M0,-3.0v7 M-2.5,-0.5L0,-3.0L2.5,-0.5"/>
                </g>
                <g id="arrowRight" xlink:href="#dirArrow" transform="rotate(90) translate(36 -43)" onmousedown="handlePan(1,0)">
                  <use xlink:href="#rim" fill="#404040">
                        <set attributeName="fill" to="#808080" begin="arrowRight.mouseover" end="arrowRight.mouseout"/>
                  </use>
                  <path fill="none" stroke="white" stroke-width="1.5" d="M0,-3.0v7 M-2.5,-0.5L0,-3.0L2.5,-0.5"/>
                </g>
                <g id="arrowDown" xlink:href="#dirArrow" transform="rotate(180) translate(-30 -48)" onmousedown="handlePan(0,1)">
                  <use xlink:href="#rim" fill="#404040">
                        <set attributeName="fill" to="#808080" begin="arrowDown.mouseover" end="arrowDown.mouseout"/>
                  </use>
                  <path fill="none" stroke="white" stroke-width="1.5" d="M0,-3.0v7 M-2.5,-0.5L0,-3.0L2.5,-0.5"/>
                </g>
                <g id="arrowLeft" xlink:href="#dirArrow" transform="rotate(270) translate(-36 17)" onmousedown="handlePan(-1,0)">
                  <use xlink:href="#rim" fill="#404040">
                        <set attributeName="fill" to="#808080" begin="arrowLeft.mouseover" end="arrowLeft.mouseout"/>
                  </use>
                  <path fill="none" stroke="white" stroke-width="1.5" d="M0,-3.0v7 M-2.5,-0.5L0,-3.0L2.5,-0.5"/>
                </g>
        </g>
        <svg viewBox="0 0 15 15" width="100%" height="30px" preserveAspectRatio="xMaxYMin meet">
         <g id="arrow_out" transform="scale(0.3 0.3)">
          <a xlink:href="Game_8cpp__incl_org.svg" target="_base">
           <rect id="button" ry="5" rx="5" y="6" x="6" height="38" width="38"
                fill="#f2f5e9" fill-opacity="0.5" stroke="#606060" stroke-width="1.0"/>
           <path id="arrow"
             d="M 11.500037,31.436501 C 11.940474,20.09759 22.043105,11.32322 32.158766,21.979434 L 37.068811,17.246167 C 37.068811,17.246167 37.088388,32 37.088388,32 L 22.160133,31.978069 C 22.160133,31.978069 26.997745,27.140456 26.997745,27.140456 C 18.528582,18.264221 13.291696,25.230495 11.500037,31.436501 z"
             style="fill:#404040;"/>
          </a>
         </g>
        </svg>
</svg>
