<?xml version="1.0" encoding="UTF-8" standalone="no"?>
<!DOCTYPE svg PUBLIC "-//W3C//DTD SVG 1.1//EN"
 "http://www.w3.org/Graphics/SVG/1.1/DTD/svg11.dtd">
<!-- Generated by graphviz version 2.44.0 ()
 -->
<!-- Title: src/Game/Game.cpp Pages: 1 -->
<!--zoomable 263 -->
<svg id="main" version="1.1" xmlns="http://www.w3.org/2000/svg" xmlns:xlink="http://www.w3.org/1999/xlink" xml:space="preserve" onload="init(evt)">
<style type="text/css"><![CDATA[
.edge:hover path { stroke: red; }
.edge:hover polygon { stroke: red; fill: red; }
]]></style>
<script type="text/javascript"><![CDATA[
var edges = document.getElementsByTagName('g');
if (edges && edges.length) {
  for (var i=0;i<edges.length;i++) {
    if (edges[i].id.substr(0,4)=='edge') {
      edges[i].setAttribute('class','edge');
    }
  }
}
]]></script>
        <defs>
                <circle id="rim" cx="0" cy="0" r="7"/>
                <circle id="rim2" cx="0" cy="0" r="3.5"/>
                <g id="zoomPlus">
                        <use xlink:href="#rim" fill="#404040">
                                <set attributeName="fill" to="#808080" begin="zoomplus.mouseover" end="zoomplus.mouseout"/>
                        </use>
                        <path d="M-4,0h8M0,-4v8" fill="none" stroke="white" stroke-width="1.5" pointer-events="none"/>
                </g>
                <g id="zoomMin">
                        <use xlink:href="#rim" fill="#404040">
                                <set attributeName="fill" to="#808080" begin="zoomminus.mouseover" end="zoomminus.mouseout"/>
                        </use>
                        <path d="M-4,0h8" fill="none" stroke="white" stroke-width="1.5" pointer-events="none"/>
                </g>
                <g id="dirArrow">
                        <path fill="none" stroke="white" stroke-width="1.5" d="M0,-3.0v7 M-2.5,-0.5L0,-3.0L2.5,-0.5"/>
                </g>
               <g id="resetDef">
                       <use xlink:href="#rim2" fill="#404040">
                               <set attributeName="fill" to="#808080" begin="reset.mouseover" end="reset.mouseout"/>
                       </use>
               </g>
        </defs>

<script type="text/javascript">
var viewWidth = 1542;
var viewHeight = 263;
var sectionId = 'dynsection-0';
</script>
<script xlink:href="svgpan.js"/>
<svg id="graph" class="graph">
<g id="viewport">
<title>src/Game/Game.cpp</title>
<!-- Node1 -->
<g id="node1" class="node">
<title>Node1</title>
<g id="a_node1"><a xlink:title=" ">
<polygon fill="#bfbfbf" stroke="black" points="734.5,-235.5 734.5,-254.5 841.5,-254.5 841.5,-235.5 734.5,-235.5"/>
<text text-anchor="middle" x="788" y="-242.5" font-family="Helvetica,sans-Serif" font-size="10.00">src/Game/Game.cpp</text>
</a>
</g>
</g>
<!-- Node2 -->
<g id="node2" class="node">
<title>Node2</title>
<g id="a_node2"><a xlink:href="Game_8hpp.html" target="_top" xlink:title=" ">
<polygon fill="none" stroke="black" points="92.5,-179.5 92.5,-198.5 153.5,-198.5 153.5,-179.5 92.5,-179.5"/>
<text text-anchor="middle" x="123" y="-186.5" font-family="Helvetica,sans-Serif" font-size="10.00">Game.hpp</text>
</a>
</g>
</g>
<!-- Node1&#45;&gt;Node2 -->
<g id="edge1" class="edge">
<title>Node1&#45;&gt;Node2</title>
<path fill="none" stroke="midnightblue" d="M734.42,-239.65C605.25,-229.16 278.83,-202.65 163.85,-193.32"/>
<polygon fill="midnightblue" stroke="midnightblue" points="163.96,-189.81 153.71,-192.49 163.4,-196.79 163.96,-189.81"/>
</g>
<!-- Node4 -->
<g id="node4" class="node">
<title>Node4</title>
<g id="a_node4"><a xlink:title=" ">
<polygon fill="none" stroke="#bfbfbf" points="114,-123.5 114,-142.5 266,-142.5 266,-123.5 114,-123.5"/>
<text text-anchor="middle" x="190" y="-130.5" font-family="Helvetica,sans-Serif" font-size="10.00">Builder/GameObjectBuilder.hpp</text>
</a>
</g>
</g>
<!-- Node1&#45;&gt;Node4 -->
<g id="edge3" class="edge">
<title>Node1&#45;&gt;Node4</title>
<path fill="none" stroke="midnightblue" d="M735.19,-235.48C681.46,-226.71 595.84,-212.47 522,-199 422.59,-180.86 306.85,-157.75 241.63,-144.54"/>
<polygon fill="midnightblue" stroke="midnightblue" points="242.1,-141.06 231.6,-142.5 240.71,-147.92 242.1,-141.06"/>
</g>
<!-- Node5 -->
<g id="node5" class="node">
<title>Node5</title>
<g id="a_node5"><a xlink:title=" ">
<polygon fill="none" stroke="#bfbfbf" points="284.5,-123.5 284.5,-142.5 409.5,-142.5 409.5,-123.5 284.5,-123.5"/>
<text text-anchor="middle" x="347" y="-130.5" font-family="Helvetica,sans-Serif" font-size="10.00">Builder/SceneBuilder.hpp</text>
</a>
</g>
</g>
<!-- Node1&#45;&gt;Node5 -->
<g id="edge4" class="edge">
<title>Node1&#45;&gt;Node5</title>
<path fill="none" stroke="midnightblue" d="M752.51,-235.48C715.25,-226.51 654.97,-211.92 603,-199 528.06,-180.37 440.94,-158.13 390.09,-145.08"/>
<polygon fill="midnightblue" stroke="midnightblue" points="390.67,-141.62 380.11,-142.52 388.93,-148.4 390.67,-141.62"/>
</g>
<!-- Node6 -->
<g id="node6" class="node">
<title>Node6</title>
<g id="a_node6"><a xlink:href="TileConfig_8hpp.html" target="_top" xlink:title=" ">
<polygon fill="none" stroke="black" points="612.5,-179.5 612.5,-198.5 689.5,-198.5 689.5,-179.5 612.5,-179.5"/>
<text text-anchor="middle" x="651" y="-186.5" font-family="Helvetica,sans-Serif" font-size="10.00">TileConfig.hpp</text>
</a>
</g>
</g>
<!-- Node1&#45;&gt;Node6 -->
<g id="edge5" class="edge">
<title>Node1&#45;&gt;Node6</title>
<path fill="none" stroke="midnightblue" d="M766.29,-235.44C743.65,-226.52 707.93,-212.44 682.25,-202.32"/>
<polygon fill="midnightblue" stroke="midnightblue" points="683.19,-198.93 672.61,-198.52 680.63,-205.44 683.19,-198.93"/>
</g>
<!-- Node24 -->
<g id="node24" class="node">
<title>Node24</title>
<g id="a_node24"><a xlink:title=" ">
<polygon fill="none" stroke="#bfbfbf" points="707.5,-179.5 707.5,-198.5 868.5,-198.5 868.5,-179.5 707.5,-179.5"/>
<text text-anchor="middle" x="788" y="-186.5" font-family="Helvetica,sans-Serif" font-size="10.00">Behaviour/CollisionBehaviour.hpp</text>
</a>
</g>
</g>
<!-- Node1&#45;&gt;Node24 -->
<g id="edge31" class="edge">
<title>Node1&#45;&gt;Node24</title>
<path fill="none" stroke="midnightblue" d="M788,-235.08C788,-228.01 788,-217.86 788,-208.99"/>
<polygon fill="midnightblue" stroke="midnightblue" points="791.5,-208.75 788,-198.75 784.5,-208.75 791.5,-208.75"/>
</g>
<!-- Node25 -->
<g id="node25" class="node">
<title>Node25</title>
<g id="a_node25"><a xlink:href="NetworkingServer_8hpp.html" target="_top" xlink:title=" ">
<polygon fill="none" stroke="black" points="1065.5,-179.5 1065.5,-198.5 1230.5,-198.5 1230.5,-179.5 1065.5,-179.5"/>
<text text-anchor="middle" x="1148" y="-186.5" font-family="Helvetica,sans-Serif" font-size="10.00">Networking/NetworkingServer.hpp</text>
</a>
</g>
</g>
<!-- Node1&#45;&gt;Node25 -->
<g id="edge32" class="edge">
<title>Node1&#45;&gt;Node25</title>
<path fill="none" stroke="midnightblue" d="M841.51,-235.97C905.35,-226.4 1012.14,-210.38 1081.3,-200"/>
<polygon fill="midnightblue" stroke="midnightblue" points="1081.86,-203.46 1091.23,-198.52 1080.82,-196.54 1081.86,-203.46"/>
</g>
<!-- Node28 -->
<g id="node28" class="node">
<title>Node28</title>
<g id="a_node28"><a xlink:href="NetworkingClient_8hpp.html" target="_top" xlink:title=" ">
<polygon fill="none" stroke="black" points="886.5,-179.5 886.5,-198.5 1047.5,-198.5 1047.5,-179.5 886.5,-179.5"/>
<text text-anchor="middle" x="967" y="-186.5" font-family="Helvetica,sans-Serif" font-size="10.00">Networking/NetworkingClient.hpp</text>
</a>
</g>
</g>
<!-- Node1&#45;&gt;Node28 -->
<g id="edge35" class="edge">
<title>Node1&#45;&gt;Node28</title>
<path fill="none" stroke="midnightblue" d="M816.36,-235.44C846.74,-226.28 895.11,-211.69 928.82,-201.52"/>
<polygon fill="midnightblue" stroke="midnightblue" points="930.21,-204.76 938.77,-198.52 928.18,-198.05 930.21,-204.76"/>
</g>
<!-- Node29 -->
<g id="node29" class="node">
<title>Node29</title>
<g id="a_node29"><a xlink:href="Level1_8hpp.html" target="_top" xlink:title=" ">
<polygon fill="none" stroke="black" points="1438,-179.5 1438,-198.5 1534,-198.5 1534,-179.5 1438,-179.5"/>
<text text-anchor="middle" x="1486" y="-186.5" font-family="Helvetica,sans-Serif" font-size="10.00">Levels/Level1.hpp</text>
</a>
</g>
</g>
<!-- Node1&#45;&gt;Node29 -->
<g id="edge37" class="edge">
<title>Node1&#45;&gt;Node29</title>
<path fill="none" stroke="midnightblue" d="M841.66,-241.75C951.81,-236.79 1211.33,-223.38 1428,-199 1428.1,-198.99 1428.2,-198.98 1428.3,-198.97"/>
<polygon fill="midnightblue" stroke="midnightblue" points="1428.44,-202.48 1437.93,-197.78 1427.58,-195.53 1428.44,-202.48"/>
</g>
<!-- Node30 -->
<g id="node30" class="node">
<title>Node30</title>
<g id="a_node30"><a xlink:href="GameOverScene_8hpp.html" target="_top" xlink:title=" ">
<polygon fill="none" stroke="black" points="1248.5,-179.5 1248.5,-198.5 1419.5,-198.5 1419.5,-179.5 1248.5,-179.5"/>
<text text-anchor="middle" x="1334" y="-186.5" font-family="Helvetica,sans-Serif" font-size="10.00">Game/Levels/GameOverScene.hpp</text>
</a>
</g>
</g>
<!-- Node1&#45;&gt;Node30 -->
<g id="edge39" class="edge">
<title>Node1&#45;&gt;Node30</title>
<path fill="none" stroke="midnightblue" d="M841.85,-238.67C933.9,-229.57 1122.73,-210.89 1237.86,-199.51"/>
<polygon fill="midnightblue" stroke="midnightblue" points="1238.48,-202.96 1248.08,-198.5 1237.79,-196 1238.48,-202.96"/>
</g>
<!-- Node3 -->
<g id="node3" class="node">
<title>Node3</title>
<g id="a_node3"><a xlink:title=" ">
<polygon fill="none" stroke="#bfbfbf" points="0,-123.5 0,-142.5 96,-142.5 96,-123.5 0,-123.5"/>
<text text-anchor="middle" x="48" y="-130.5" font-family="Helvetica,sans-Serif" font-size="10.00">Engine/Engine.hpp</text>
</a>
</g>
</g>
<!-- Node2&#45;&gt;Node3 -->
<g id="edge2" class="edge">
<title>Node2&#45;&gt;Node3</title>
<path fill="none" stroke="midnightblue" d="M110.95,-179.32C99.54,-171.11 82.17,-158.6 68.57,-148.81"/>
<polygon fill="midnightblue" stroke="midnightblue" points="70.43,-145.84 60.27,-142.83 66.34,-151.52 70.43,-145.84"/>
</g>
<!-- Node6&#45;&gt;Node4 -->
<g id="edge9" class="edge">
<title>Node6&#45;&gt;Node4</title>
<path fill="none" stroke="midnightblue" d="M612.49,-183.49C538.11,-174.78 373.21,-155.46 272.83,-143.7"/>
<polygon fill="midnightblue" stroke="midnightblue" points="273.07,-140.21 262.73,-142.52 272.25,-147.16 273.07,-140.21"/>
</g>
<!-- Node6&#45;&gt;Node5 -->
<g id="edge10" class="edge">
<title>Node6&#45;&gt;Node5</title>
<path fill="none" stroke="midnightblue" d="M612.5,-181.16C560.06,-171.85 465.74,-155.09 404.79,-144.27"/>
<polygon fill="midnightblue" stroke="midnightblue" points="405.39,-140.82 394.94,-142.51 404.17,-147.71 405.39,-140.82"/>
</g>
<!-- Node7 -->
<g id="node7" class="node">
<title>Node7</title>
<g id="a_node7"><a xlink:title=" ">
<polygon fill="none" stroke="#bfbfbf" points="644.5,-123.5 644.5,-142.5 703.5,-142.5 703.5,-123.5 644.5,-123.5"/>
<text text-anchor="middle" x="674" y="-130.5" font-family="Helvetica,sans-Serif" font-size="10.00">functional</text>
</a>
</g>
</g>
<!-- Node6&#45;&gt;Node7 -->
<g id="edge6" class="edge">
<title>Node6&#45;&gt;Node7</title>
<path fill="none" stroke="midnightblue" d="M654.8,-179.08C657.91,-171.77 662.42,-161.18 666.29,-152.1"/>
<polygon fill="midnightblue" stroke="midnightblue" points="669.57,-153.32 670.27,-142.75 663.13,-150.58 669.57,-153.32"/>
</g>
<!-- Node8 -->
<g id="node8" class="node">
<title>Node8</title>
<g id="a_node8"><a xlink:title=" ">
<polygon fill="none" stroke="#bfbfbf" points="721.5,-123.5 721.5,-142.5 756.5,-142.5 756.5,-123.5 721.5,-123.5"/>
<text text-anchor="middle" x="739" y="-130.5" font-family="Helvetica,sans-Serif" font-size="10.00">map</text>
</a>
</g>
</g>
<!-- Node6&#45;&gt;Node8 -->
<g id="edge7" class="edge">
<title>Node6&#45;&gt;Node8</title>
<path fill="none" stroke="midnightblue" d="M665.14,-179.32C678.87,-170.9 699.94,-157.97 716.06,-148.07"/>
<polygon fill="midnightblue" stroke="midnightblue" points="718.2,-150.87 724.9,-142.65 714.54,-144.9 718.2,-150.87"/>
</g>
<!-- Node9 -->
<g id="node9" class="node">
<title>Node9</title>
<g id="a_node9"><a xlink:title=" ">
<polygon fill="none" stroke="#bfbfbf" points="388.5,-6 388.5,-25 439.5,-25 439.5,-6 388.5,-6"/>
<text text-anchor="middle" x="414" y="-13" font-family="Helvetica,sans-Serif" font-size="10.00">memory</text>
</a>
</g>
</g>
<!-- Node6&#45;&gt;Node9 -->
<g id="edge8" class="edge">
<title>Node6&#45;&gt;Node9</title>
<path fill="none" stroke="midnightblue" d="M612.19,-183.49C562.32,-176.95 479.5,-163.36 457,-143 425.85,-114.81 417.25,-63.19 414.89,-35.4"/>
<polygon fill="midnightblue" stroke="midnightblue" points="418.36,-34.84 414.21,-25.09 411.37,-35.3 418.36,-34.84"/>
</g>
<!-- Node10 -->
<g id="node10" class="node">
<title>Node10</title>
<g id="a_node10"><a xlink:title=" ">
<polygon fill="none" stroke="#bfbfbf" points="466,-123.5 466,-142.5 626,-142.5 626,-123.5 466,-123.5"/>
<text text-anchor="middle" x="546" y="-130.5" font-family="Helvetica,sans-Serif" font-size="10.00">Director/GameObjectDirector.hpp</text>
</a>
</g>
</g>
<!-- Node6&#45;&gt;Node10 -->
<g id="edge11" class="edge">
<title>Node6&#45;&gt;Node10</title>
<path fill="none" stroke="midnightblue" d="M634.13,-179.32C617.29,-170.66 591.19,-157.24 571.76,-147.25"/>
<polygon fill="midnightblue" stroke="midnightblue" points="573.32,-144.12 562.83,-142.65 570.12,-150.34 573.32,-144.12"/>
</g>
<!-- Node11 -->
<g id="node11" class="node">
<title>Node11</title>
<g id="a_node11"><a xlink:href="CoinBehaviour_8hpp.html" target="_top" xlink:title=" ">
<polygon fill="none" stroke="black" points="774.5,-123.5 774.5,-142.5 905.5,-142.5 905.5,-123.5 774.5,-123.5"/>
<text text-anchor="middle" x="840" y="-130.5" font-family="Helvetica,sans-Serif" font-size="10.00">Scripts/CoinBehaviour.hpp</text>
</a>
</g>
</g>
<!-- Node6&#45;&gt;Node11 -->
<g id="edge12" class="edge">
<title>Node6&#45;&gt;Node11</title>
<path fill="none" stroke="midnightblue" d="M680.95,-179.44C713.16,-170.24 764.53,-155.56 800.14,-145.39"/>
<polygon fill="midnightblue" stroke="midnightblue" points="801.54,-148.63 810.19,-142.52 799.62,-141.9 801.54,-148.63"/>
</g>
<!-- Node22 -->
<g id="node22" class="node">
<title>Node22</title>
<g id="a_node22"><a xlink:href="FlagBehaviour_8hpp.html" target="_top" xlink:title=" ">
<polygon fill="none" stroke="black" points="1072.5,-123.5 1072.5,-142.5 1203.5,-142.5 1203.5,-123.5 1072.5,-123.5"/>
<text text-anchor="middle" x="1138" y="-130.5" font-family="Helvetica,sans-Serif" font-size="10.00">Scripts/FlagBehaviour.hpp</text>
</a>
</g>
</g>
<!-- Node6&#45;&gt;Node22 -->
<g id="edge27" class="edge">
<title>Node6&#45;&gt;Node22</title>
<path fill="none" stroke="midnightblue" d="M689.68,-180.3C692.49,-179.83 695.29,-179.39 698,-179 856.02,-156.13 899.2,-160.52 1061.79,-143.1"/>
<polygon fill="midnightblue" stroke="midnightblue" points="1062.59,-146.54 1072.16,-141.98 1061.84,-139.58 1062.59,-146.54"/>
</g>
<!-- Node23 -->
<g id="node23" class="node">
<title>Node23</title>
<g id="a_node23"><a xlink:href="StarBehaviour_8hpp.html" target="_top" xlink:title=" ">
<polygon fill="none" stroke="black" points="924,-123.5 924,-142.5 1054,-142.5 1054,-123.5 924,-123.5"/>
<text text-anchor="middle" x="989" y="-130.5" font-family="Helvetica,sans-Serif" font-size="10.00">Scripts/StarBehaviour.hpp</text>
</a>
</g>
</g>
<!-- Node6&#45;&gt;Node23 -->
<g id="edge29" class="edge">
<title>Node6&#45;&gt;Node23</title>
<path fill="none" stroke="midnightblue" d="M689.71,-180.47C692.51,-179.96 695.3,-179.47 698,-179 773.71,-165.9 860.83,-152.67 919.87,-143.98"/>
<polygon fill="midnightblue" stroke="midnightblue" points="920.44,-147.43 929.82,-142.52 919.42,-140.51 920.44,-147.43"/>
</g>
<!-- Node12 -->
<g id="node12" class="node">
<title>Node12</title>
<g id="a_node12"><a xlink:title=" ">
<polygon fill="none" stroke="#bfbfbf" points="961,-67.5 961,-86.5 1065,-86.5 1065,-67.5 961,-67.5"/>
<text text-anchor="middle" x="1013" y="-74.5" font-family="Helvetica,sans-Serif" font-size="10.00">BehaviourScript.hpp</text>
</a>
</g>
</g>
<!-- Node11&#45;&gt;Node12 -->
<g id="edge13" class="edge">
<title>Node11&#45;&gt;Node12</title>
<path fill="none" stroke="midnightblue" d="M867.41,-123.44C896.77,-114.28 943.52,-99.69 976.1,-89.52"/>
<polygon fill="midnightblue" stroke="midnightblue" points="977.21,-92.84 985.72,-86.52 975.13,-86.16 977.21,-92.84"/>
</g>
<!-- Node13 -->
<g id="node13" class="node">
<title>Node13</title>
<g id="a_node13"><a xlink:href="CoinCounter_8hpp.html" target="_top" xlink:title=" ">
<polygon fill="none" stroke="black" points="757.5,-67.5 757.5,-86.5 866.5,-86.5 866.5,-67.5 757.5,-67.5"/>
<text text-anchor="middle" x="812" y="-74.5" font-family="Helvetica,sans-Serif" font-size="10.00">../UI/CoinCounter.hpp</text>
</a>
</g>
</g>
<!-- Node11&#45;&gt;Node13 -->
<g id="edge14" class="edge">
<title>Node11&#45;&gt;Node13</title>
<path fill="none" stroke="midnightblue" d="M835.38,-123.08C831.54,-115.69 825.98,-104.95 821.24,-95.81"/>
<polygon fill="midnightblue" stroke="midnightblue" points="824.25,-94.02 816.54,-86.75 818.03,-97.24 824.25,-94.02"/>
</g>
<!-- Node14 -->
<g id="node14" class="node">
<title>Node14</title>
<g id="a_node14"><a xlink:title=" ">
<polygon fill="none" stroke="#bfbfbf" points="1192.5,-0.5 1192.5,-30.5 1287.5,-30.5 1287.5,-0.5 1192.5,-0.5"/>
<text text-anchor="start" x="1200.5" y="-18.5" font-family="Helvetica,sans-Serif" font-size="10.00">boost/serialization</text>
<text text-anchor="middle" x="1240" y="-7.5" font-family="Helvetica,sans-Serif" font-size="10.00">/access.hpp</text>
</a>
</g>
</g>
<!-- Node11&#45;&gt;Node14 -->
<g id="edge24" class="edge">
<title>Node11&#45;&gt;Node14</title>
<path fill="none" stroke="midnightblue" d="M854.97,-123.41C870.69,-114.38 896.12,-99.75 918,-87 933.15,-78.18 935.49,-72.9 952,-67 1046.89,-33.1 1079.24,-50.68 1182.6,-30.91"/>
<polygon fill="midnightblue" stroke="midnightblue" points="1183.36,-34.32 1192.49,-28.94 1182,-27.46 1183.36,-34.32"/>
</g>
<!-- Node15 -->
<g id="node15" class="node">
<title>Node15</title>
<g id="a_node15"><a xlink:title=" ">
<polygon fill="none" stroke="#bfbfbf" points="457.5,-0.5 457.5,-30.5 552.5,-30.5 552.5,-0.5 457.5,-0.5"/>
<text text-anchor="start" x="465.5" y="-18.5" font-family="Helvetica,sans-Serif" font-size="10.00">boost/serialization</text>
<text text-anchor="middle" x="505" y="-7.5" font-family="Helvetica,sans-Serif" font-size="10.00">/export.hpp</text>
</a>
</g>
</g>
<!-- Node11&#45;&gt;Node15 -->
<g id="edge25" class="edge">
<title>Node11&#45;&gt;Node15</title>
<path fill="none" stroke="midnightblue" d="M815.09,-123.41C760.35,-104.54 628.63,-59.13 555.71,-33.98"/>
<polygon fill="midnightblue" stroke="midnightblue" points="556.42,-30.53 545.82,-30.58 554.14,-37.14 556.42,-30.53"/>
</g>
<!-- Node16 -->
<g id="node16" class="node">
<title>Node16</title>
<g id="a_node16"><a xlink:title=" ">
<polygon fill="none" stroke="#bfbfbf" points="1079.5,-0.5 1079.5,-30.5 1174.5,-30.5 1174.5,-0.5 1079.5,-0.5"/>
<text text-anchor="start" x="1087.5" y="-18.5" font-family="Helvetica,sans-Serif" font-size="10.00">boost/serialization</text>
<text text-anchor="middle" x="1127" y="-7.5" font-family="Helvetica,sans-Serif" font-size="10.00">/shared_ptr.hpp</text>
</a>
</g>
</g>
<!-- Node11&#45;&gt;Node16 -->
<g id="edge26" class="edge">
<title>Node11&#45;&gt;Node16</title>
<path fill="none" stroke="midnightblue" d="M847.85,-123.38C861.12,-109.35 889.42,-81.7 919,-67 978.01,-37.67 1000.93,-46.58 1069.45,-31.02"/>
<polygon fill="midnightblue" stroke="midnightblue" points="1070.5,-34.37 1079.43,-28.66 1068.89,-27.56 1070.5,-34.37"/>
</g>
<!-- Node13&#45;&gt;Node9 -->
<g id="edge15" class="edge">
<title>Node13&#45;&gt;Node9</title>
<path fill="none" stroke="midnightblue" d="M757.44,-74.01C685.44,-70.31 555.29,-59.89 448,-31 445.7,-30.38 443.35,-29.64 441.02,-28.82"/>
<polygon fill="midnightblue" stroke="midnightblue" points="442.25,-25.54 431.66,-25.14 439.69,-32.05 442.25,-25.54"/>
</g>
<!-- Node13&#45;&gt;Node14 -->
<g id="edge16" class="edge">
<title>Node13&#45;&gt;Node14</title>
<path fill="none" stroke="midnightblue" d="M866.71,-71.58C937.4,-65.37 1064.37,-52.57 1182.28,-30.97"/>
<polygon fill="midnightblue" stroke="midnightblue" points="1183.01,-34.4 1192.21,-29.13 1181.73,-27.52 1183.01,-34.4"/>
</g>
<!-- Node13&#45;&gt;Node15 -->
<g id="edge17" class="edge">
<title>Node13&#45;&gt;Node15</title>
<path fill="none" stroke="midnightblue" d="M757.42,-67.44C708.7,-59.53 635.22,-46.91 562.81,-31.31"/>
<polygon fill="midnightblue" stroke="midnightblue" points="563.12,-27.79 552.6,-29.09 561.63,-34.63 563.12,-27.79"/>
</g>
<!-- Node13&#45;&gt;Node16 -->
<g id="edge18" class="edge">
<title>Node13&#45;&gt;Node16</title>
<path fill="none" stroke="midnightblue" d="M866.59,-67.72C916.72,-59.84 993.27,-47.1 1069.25,-31.06"/>
<polygon fill="midnightblue" stroke="midnightblue" points="1070.43,-34.39 1079.48,-28.88 1068.97,-27.54 1070.43,-34.39"/>
</g>
<!-- Node17 -->
<g id="node17" class="node">
<title>Node17</title>
<g id="a_node17"><a xlink:title=" ">
<polygon fill="none" stroke="#bfbfbf" points="760,-0.5 760,-30.5 864,-30.5 864,-0.5 760,-0.5"/>
<text text-anchor="start" x="768" y="-18.5" font-family="Helvetica,sans-Serif" font-size="10.00">boost/archive/binary</text>
<text text-anchor="middle" x="812" y="-7.5" font-family="Helvetica,sans-Serif" font-size="10.00">_iarchive.hpp</text>
</a>
</g>
</g>
<!-- Node13&#45;&gt;Node17 -->
<g id="edge19" class="edge">
<title>Node13&#45;&gt;Node17</title>
<path fill="none" stroke="midnightblue" d="M812,-67.48C812,-60.47 812,-50.19 812,-40.7"/>
<polygon fill="midnightblue" stroke="midnightblue" points="815.5,-40.52 812,-30.52 808.5,-40.52 815.5,-40.52"/>
</g>
<!-- Node18 -->
<g id="node18" class="node">
<title>Node18</title>
<g id="a_node18"><a xlink:title=" ">
<polygon fill="none" stroke="#bfbfbf" points="882,-0.5 882,-30.5 986,-30.5 986,-0.5 882,-0.5"/>
<text text-anchor="start" x="890" y="-18.5" font-family="Helvetica,sans-Serif" font-size="10.00">boost/archive/binary</text>
<text text-anchor="middle" x="934" y="-7.5" font-family="Helvetica,sans-Serif" font-size="10.00">_oarchive.hpp</text>
</a>
</g>
</g>
<!-- Node13&#45;&gt;Node18 -->
<g id="edge20" class="edge">
<title>Node13&#45;&gt;Node18</title>
<path fill="none" stroke="midnightblue" d="M829.48,-67.48C846.77,-59.04 873.81,-45.86 896.05,-35.01"/>
<polygon fill="midnightblue" stroke="midnightblue" points="897.79,-38.05 905.25,-30.52 894.72,-31.76 897.79,-38.05"/>
</g>
<!-- Node19 -->
<g id="node19" class="node">
<title>Node19</title>
<g id="a_node19"><a xlink:title=" ">
<polygon fill="none" stroke="#bfbfbf" points="1004.5,-6 1004.5,-25 1061.5,-25 1061.5,-6 1004.5,-6"/>
<text text-anchor="middle" x="1033" y="-13" font-family="Helvetica,sans-Serif" font-size="10.00">Color.hpp</text>
</a>
</g>
</g>
<!-- Node13&#45;&gt;Node19 -->
<g id="edge21" class="edge">
<title>Node13&#45;&gt;Node19</title>
<path fill="none" stroke="midnightblue" d="M852.74,-67.5C890.09,-59.34 946.75,-46.07 995,-31 997.42,-30.24 999.9,-29.42 1002.39,-28.55"/>
<polygon fill="midnightblue" stroke="midnightblue" points="1003.66,-31.81 1011.86,-25.1 1001.26,-25.24 1003.66,-31.81"/>
</g>
<!-- Node20 -->
<g id="node20" class="node">
<title>Node20</title>
<g id="a_node20"><a xlink:title=" ">
<polygon fill="none" stroke="#bfbfbf" points="570.5,-6 570.5,-25 649.5,-25 649.5,-6 570.5,-6"/>
<text text-anchor="middle" x="610" y="-13" font-family="Helvetica,sans-Serif" font-size="10.00">Transform.hpp</text>
</a>
</g>
</g>
<!-- Node13&#45;&gt;Node20 -->
<g id="edge22" class="edge">
<title>Node13&#45;&gt;Node20</title>
<path fill="none" stroke="midnightblue" d="M782.95,-67.47C752.17,-58.43 702.15,-43.73 659,-31 655.62,-30 652.11,-28.97 648.59,-27.93"/>
<polygon fill="midnightblue" stroke="midnightblue" points="649.34,-24.5 638.76,-25.02 647.35,-31.21 649.34,-24.5"/>
</g>
<!-- Node21 -->
<g id="node21" class="node">
<title>Node21</title>
<g id="a_node21"><a xlink:title=" ">
<polygon fill="none" stroke="#bfbfbf" points="668,-6 668,-25 742,-25 742,-6 668,-6"/>
<text text-anchor="middle" x="705" y="-13" font-family="Helvetica,sans-Serif" font-size="10.00">UIObject.hpp</text>
</a>
</g>
</g>
<!-- Node13&#45;&gt;Node21 -->
<g id="edge23" class="edge">
<title>Node13&#45;&gt;Node21</title>
<path fill="none" stroke="midnightblue" d="M796.67,-67.48C779.03,-57.67 749.84,-41.43 729.14,-29.92"/>
<polygon fill="midnightblue" stroke="midnightblue" points="730.74,-26.81 720.3,-25.01 727.34,-32.93 730.74,-26.81"/>
</g>
<!-- Node22&#45;&gt;Node12 -->
<g id="edge28" class="edge">
<title>Node22&#45;&gt;Node12</title>
<path fill="none" stroke="midnightblue" d="M1118.19,-123.44C1097.71,-114.6 1065.52,-100.69 1042.14,-90.59"/>
<polygon fill="midnightblue" stroke="midnightblue" points="1043.28,-87.27 1032.71,-86.52 1040.51,-93.7 1043.28,-87.27"/>
</g>
<!-- Node23&#45;&gt;Node12 -->
<g id="edge30" class="edge">
<title>Node23&#45;&gt;Node12</title>
<path fill="none" stroke="midnightblue" d="M992.96,-123.08C996.21,-115.77 1000.92,-105.18 1004.95,-96.1"/>
<polygon fill="midnightblue" stroke="midnightblue" points="1008.25,-97.31 1009.11,-86.75 1001.85,-94.47 1008.25,-97.31"/>
</g>
<!-- Node26 -->
<g id="node26" class="node">
<title>Node26</title>
<g id="a_node26"><a xlink:title=" ">
<polygon fill="none" stroke="#bfbfbf" points="1221.5,-123.5 1221.5,-142.5 1262.5,-142.5 1262.5,-123.5 1221.5,-123.5"/>
<text text-anchor="middle" x="1242" y="-130.5" font-family="Helvetica,sans-Serif" font-size="10.00">string</text>
</a>
</g>
</g>
<!-- Node25&#45;&gt;Node26 -->
<g id="edge33" class="edge">
<title>Node25&#45;&gt;Node26</title>
<path fill="none" stroke="midnightblue" d="M1163.1,-179.32C1177.9,-170.82 1200.69,-157.73 1217.98,-147.8"/>
<polygon fill="midnightblue" stroke="midnightblue" points="1220.01,-150.67 1226.93,-142.65 1216.52,-144.6 1220.01,-150.67"/>
</g>
<!-- Node27 -->
<g id="node27" class="node">
<title>Node27</title>
<g id="a_node27"><a xlink:title=" ">
<polygon fill="none" stroke="#bfbfbf" points="1303,-123.5 1303,-142.5 1365,-142.5 1365,-123.5 1303,-123.5"/>
<text text-anchor="middle" x="1334" y="-130.5" font-family="Helvetica,sans-Serif" font-size="10.00">Scene.hpp</text>
</a>
</g>
</g>
<!-- Node25&#45;&gt;Node27 -->
<g id="edge34" class="edge">
<title>Node25&#45;&gt;Node27</title>
<path fill="none" stroke="midnightblue" d="M1177.47,-179.44C1209.17,-170.24 1259.73,-155.56 1294.77,-145.39"/>
<polygon fill="midnightblue" stroke="midnightblue" points="1296.04,-148.67 1304.67,-142.52 1294.09,-141.94 1296.04,-148.67"/>
</g>
<!-- Node28&#45;&gt;Node26 -->
<g id="edge36" class="edge">
<title>Node28&#45;&gt;Node26</title>
<path fill="none" stroke="midnightblue" d="M1023.32,-179.46C1070.98,-171.83 1141.23,-159.61 1211.51,-142.89"/>
<polygon fill="midnightblue" stroke="midnightblue" points="1212.52,-146.24 1221.42,-140.5 1210.88,-139.44 1212.52,-146.24"/>
</g>
<!-- Node29&#45;&gt;Node27 -->
<g id="edge38" class="edge">
<title>Node29&#45;&gt;Node27</title>
<path fill="none" stroke="midnightblue" d="M1461.92,-179.44C1436.46,-170.4 1396.11,-156.06 1367.54,-145.92"/>
<polygon fill="midnightblue" stroke="midnightblue" points="1368.57,-142.57 1357.97,-142.52 1366.22,-149.16 1368.57,-142.57"/>
</g>
<!-- Node30&#45;&gt;Node27 -->
<g id="edge40" class="edge">
<title>Node30&#45;&gt;Node27</title>
<path fill="none" stroke="midnightblue" d="M1334,-179.08C1334,-172.01 1334,-161.86 1334,-152.99"/>
<polygon fill="midnightblue" stroke="midnightblue" points="1337.5,-152.75 1334,-142.75 1330.5,-152.75 1337.5,-152.75"/>
</g>
</g>
</svg>
        <g id="navigator" transform="translate(0 0)" fill="#404254">
                <rect fill="#f2f5e9" fill-opacity="0.5" stroke="#606060" stroke-width=".5" x="0" y="0" width="60" height="60"/>
                <use id="zoomplus" xlink:href="#zoomPlus" x="17" y="9" onmousedown="handleZoom(evt,'in')"/>
                <use id="zoomminus" xlink:href="#zoomMin" x="42" y="9" onmousedown="handleZoom(evt,'out')"/>
                <use id="reset" xlink:href="#resetDef" x="30" y="36" onmousedown="handleReset()"/>
                <g id="arrowUp" xlink:href="#dirArrow" transform="translate(30 24)" onmousedown="handlePan(0,-1)">
                  <use xlink:href="#rim" fill="#404040">
                        <set attributeName="fill" to="#808080" begin="arrowUp.mouseover" end="arrowUp.mouseout"/>
                  </use>
                  <path fill="none" stroke="white" stroke-width="1.5" d="M0,-3.0v7 M-2.5,-0.5L0,-3.0L2.5,-0.5"/>
                </g>
                <g id="arrowRight" xlink:href="#dirArrow" transform="rotate(90) translate(36 -43)" onmousedown="handlePan(1,0)">
                  <use xlink:href="#rim" fill="#404040">
                        <set attributeName="fill" to="#808080" begin="arrowRight.mouseover" end="arrowRight.mouseout"/>
                  </use>
                  <path fill="none" stroke="white" stroke-width="1.5" d="M0,-3.0v7 M-2.5,-0.5L0,-3.0L2.5,-0.5"/>
                </g>
                <g id="arrowDown" xlink:href="#dirArrow" transform="rotate(180) translate(-30 -48)" onmousedown="handlePan(0,1)">
                  <use xlink:href="#rim" fill="#404040">
                        <set attributeName="fill" to="#808080" begin="arrowDown.mouseover" end="arrowDown.mouseout"/>
                  </use>
                  <path fill="none" stroke="white" stroke-width="1.5" d="M0,-3.0v7 M-2.5,-0.5L0,-3.0L2.5,-0.5"/>
                </g>
                <g id="arrowLeft" xlink:href="#dirArrow" transform="rotate(270) translate(-36 17)" onmousedown="handlePan(-1,0)">
                  <use xlink:href="#rim" fill="#404040">
                        <set attributeName="fill" to="#808080" begin="arrowLeft.mouseover" end="arrowLeft.mouseout"/>
                  </use>
                  <path fill="none" stroke="white" stroke-width="1.5" d="M0,-3.0v7 M-2.5,-0.5L0,-3.0L2.5,-0.5"/>
                </g>
        </g>
        <svg viewBox="0 0 15 15" width="100%" height="30px" preserveAspectRatio="xMaxYMin meet">
         <g id="arrow_out" transform="scale(0.3 0.3)">
          <a xlink:href="Game_8cpp__incl_org.svg" target="_base">
           <rect id="button" ry="5" rx="5" y="6" x="6" height="38" width="38"
                fill="#f2f5e9" fill-opacity="0.5" stroke="#606060" stroke-width="1.0"/>
           <path id="arrow"
             d="M 11.500037,31.436501 C 11.940474,20.09759 22.043105,11.32322 32.158766,21.979434 L 37.068811,17.246167 C 37.068811,17.246167 37.088388,32 37.088388,32 L 22.160133,31.978069 C 22.160133,31.978069 26.997745,27.140456 26.997745,27.140456 C 18.528582,18.264221 13.291696,25.230495 11.500037,31.436501 z"
             style="fill:#404040;"/>
          </a>
         </g>
        </svg>
</svg>
