<?xml version="1.0" encoding="UTF-8" standalone="no"?>
<!DOCTYPE svg PUBLIC "-//W3C//DTD SVG 1.1//EN"
 "http://www.w3.org/Graphics/SVG/1.1/DTD/svg11.dtd">
<!-- Generated by graphviz version 2.44.0 ()
 -->
<!-- Title: src/Game/Levels/GameOverScene.cpp Pages: 1 -->
<svg width="793pt" height="151pt"
 viewBox="0.00 0.00 792.50 151.00" xmlns="http://www.w3.org/2000/svg" xmlns:xlink="http://www.w3.org/1999/xlink">
<g id="graph0" class="graph" transform="scale(1 1) rotate(0) translate(4 147)">
<title>src/Game/Levels/GameOverScene.cpp</title>
<!-- Node1 -->
<g id="node1" class="node">
<title>Node1</title>
<g id="a_node1"><a xlink:title=" ">
<polygon fill="#bfbfbf" stroke="black" points="321,-112.5 321,-142.5 463,-142.5 463,-112.5 321,-112.5"/>
<text text-anchor="start" x="329" y="-130.5" font-family="Helvetica,sans-Serif" font-size="10.00">src/Game/Levels/GameOver</text>
<text text-anchor="middle" x="392" y="-119.5" font-family="Helvetica,sans-Serif" font-size="10.00">Scene.cpp</text>
</a>
</g>
</g>
<!-- Node2 -->
<g id="node2" class="node">
<title>Node2</title>
<g id="a_node2"><a xlink:href="GameOverScene_8hpp.html" target="_top" xlink:title=" ">
<polygon fill="none" stroke="black" points="0,-56.5 0,-75.5 110,-75.5 110,-56.5 0,-56.5"/>
<text text-anchor="middle" x="55" y="-63.5" font-family="Helvetica,sans-Serif" font-size="10.00">GameOverScene.hpp</text>
</a>
</g>
</g>
<!-- Node1&#45;&gt;Node2 -->
<g id="edge1" class="edge">
<title>Node1&#45;&gt;Node2</title>
<path fill="none" stroke="midnightblue" d="M320.94,-113.95C259.19,-103.05 170.82,-87.45 113.18,-77.27"/>
<polygon fill="midnightblue" stroke="midnightblue" points="113.6,-73.79 103.15,-75.5 112.39,-80.69 113.6,-73.79"/>
</g>
<!-- Node4 -->
<g id="node4" class="node">
<title>Node4</title>
<g id="a_node4"><a xlink:title=" ">
<polygon fill="none" stroke="#bfbfbf" points="128.5,-56.5 128.5,-75.5 253.5,-75.5 253.5,-56.5 128.5,-56.5"/>
<text text-anchor="middle" x="191" y="-63.5" font-family="Helvetica,sans-Serif" font-size="10.00">Builder/SceneBuilder.hpp</text>
</a>
</g>
</g>
<!-- Node1&#45;&gt;Node4 -->
<g id="edge3" class="edge">
<title>Node1&#45;&gt;Node4</title>
<path fill="none" stroke="midnightblue" d="M344.62,-112.47C309.49,-102.08 262.21,-88.08 229.42,-78.37"/>
<polygon fill="midnightblue" stroke="midnightblue" points="230.32,-74.99 219.74,-75.51 228.33,-81.7 230.32,-74.99"/>
</g>
<!-- Node5 -->
<g id="node5" class="node">
<title>Node5</title>
<g id="a_node5"><a xlink:title=" ">
<polygon fill="none" stroke="#bfbfbf" points="272,-56.5 272,-75.5 368,-75.5 368,-56.5 272,-56.5"/>
<text text-anchor="middle" x="320" y="-63.5" font-family="Helvetica,sans-Serif" font-size="10.00">Engine/Engine.hpp</text>
</a>
</g>
</g>
<!-- Node1&#45;&gt;Node5 -->
<g id="edge4" class="edge">
<title>Node1&#45;&gt;Node5</title>
<path fill="none" stroke="midnightblue" d="M374.94,-112.4C363.94,-103.31 349.63,-91.49 338.38,-82.19"/>
<polygon fill="midnightblue" stroke="midnightblue" points="340.41,-79.33 330.48,-75.66 335.96,-84.73 340.41,-79.33"/>
</g>
<!-- Node6 -->
<g id="node6" class="node">
<title>Node6</title>
<g id="a_node6"><a xlink:title=" ">
<polygon fill="none" stroke="#bfbfbf" points="386,-56.5 386,-75.5 544,-75.5 544,-56.5 386,-56.5"/>
<text text-anchor="middle" x="465" y="-63.5" font-family="Helvetica,sans-Serif" font-size="10.00">Director/GameObjectFactory.hpp</text>
</a>
</g>
</g>
<!-- Node1&#45;&gt;Node6 -->
<g id="edge5" class="edge">
<title>Node1&#45;&gt;Node6</title>
<path fill="none" stroke="midnightblue" d="M409.3,-112.4C420.45,-103.31 434.95,-91.49 446.36,-82.19"/>
<polygon fill="midnightblue" stroke="midnightblue" points="448.84,-84.69 454.38,-75.66 444.42,-79.26 448.84,-84.69"/>
</g>
<!-- Node7 -->
<g id="node7" class="node">
<title>Node7</title>
<g id="a_node7"><a xlink:title=" ">
<polygon fill="none" stroke="#bfbfbf" points="561.5,-56.5 561.5,-75.5 618.5,-75.5 618.5,-56.5 561.5,-56.5"/>
<text text-anchor="middle" x="590" y="-63.5" font-family="Helvetica,sans-Serif" font-size="10.00">Color.hpp</text>
</a>
</g>
</g>
<!-- Node1&#45;&gt;Node7 -->
<g id="edge6" class="edge">
<title>Node1&#45;&gt;Node7</title>
<path fill="none" stroke="midnightblue" d="M438.67,-112.47C473.13,-102.12 519.46,-88.2 551.74,-78.5"/>
<polygon fill="midnightblue" stroke="midnightblue" points="553.12,-81.74 561.69,-75.51 551.11,-75.03 553.12,-81.74"/>
</g>
<!-- Node8 -->
<g id="node8" class="node">
<title>Node8</title>
<g id="a_node8"><a xlink:href="TimerBehaviour_8hpp.html" target="_top" xlink:title=" ">
<polygon fill="none" stroke="black" points="636.5,-56.5 636.5,-75.5 773.5,-75.5 773.5,-56.5 636.5,-56.5"/>
<text text-anchor="middle" x="705" y="-63.5" font-family="Helvetica,sans-Serif" font-size="10.00">Scripts/TimerBehaviour.hpp</text>
</a>
</g>
</g>
<!-- Node1&#45;&gt;Node8 -->
<g id="edge7" class="edge">
<title>Node1&#45;&gt;Node8</title>
<path fill="none" stroke="midnightblue" d="M463.02,-113C519.67,-102.23 597.87,-87.36 649.87,-77.48"/>
<polygon fill="midnightblue" stroke="midnightblue" points="650.73,-80.88 659.9,-75.57 649.42,-74 650.73,-80.88"/>
</g>
<!-- Node3 -->
<g id="node3" class="node">
<title>Node3</title>
<g id="a_node3"><a xlink:title=" ">
<polygon fill="none" stroke="#bfbfbf" points="24,-0.5 24,-19.5 86,-19.5 86,-0.5 24,-0.5"/>
<text text-anchor="middle" x="55" y="-7.5" font-family="Helvetica,sans-Serif" font-size="10.00">Scene.hpp</text>
</a>
</g>
</g>
<!-- Node2&#45;&gt;Node3 -->
<g id="edge2" class="edge">
<title>Node2&#45;&gt;Node3</title>
<path fill="none" stroke="midnightblue" d="M55,-56.08C55,-49.01 55,-38.86 55,-29.99"/>
<polygon fill="midnightblue" stroke="midnightblue" points="58.5,-29.75 55,-19.75 51.5,-29.75 58.5,-29.75"/>
</g>
<!-- Node9 -->
<g id="node9" class="node">
<title>Node9</title>
<g id="a_node9"><a xlink:title=" ">
<polygon fill="none" stroke="#bfbfbf" points="603,-0.5 603,-19.5 707,-19.5 707,-0.5 603,-0.5"/>
<text text-anchor="middle" x="655" y="-7.5" font-family="Helvetica,sans-Serif" font-size="10.00">BehaviourScript.hpp</text>
</a>
</g>
</g>
<!-- Node8&#45;&gt;Node9 -->
<g id="edge8" class="edge">
<title>Node8&#45;&gt;Node9</title>
<path fill="none" stroke="midnightblue" d="M696.74,-56.08C689.54,-48.3 678.89,-36.8 670.15,-27.37"/>
<polygon fill="midnightblue" stroke="midnightblue" points="672.47,-24.71 663.1,-19.75 667.33,-29.47 672.47,-24.71"/>
</g>
<!-- Node10 -->
<g id="node10" class="node">
<title>Node10</title>
<g id="a_node10"><a xlink:title=" ">
<polygon fill="none" stroke="#bfbfbf" points="725.5,-0.5 725.5,-19.5 784.5,-19.5 784.5,-0.5 725.5,-0.5"/>
<text text-anchor="middle" x="755" y="-7.5" font-family="Helvetica,sans-Serif" font-size="10.00">functional</text>
</a>
</g>
</g>
<!-- Node8&#45;&gt;Node10 -->
<g id="edge9" class="edge">
<title>Node8&#45;&gt;Node10</title>
<path fill="none" stroke="midnightblue" d="M713.26,-56.08C720.46,-48.3 731.11,-36.8 739.85,-27.37"/>
<polygon fill="midnightblue" stroke="midnightblue" points="742.67,-29.47 746.9,-19.75 737.53,-24.71 742.67,-29.47"/>
</g>
</g>
</svg>
