<?xml version="1.0" encoding="UTF-8" standalone="no"?>
<!DOCTYPE svg PUBLIC "-//W3C//DTD SVG 1.1//EN"
 "http://www.w3.org/Graphics/SVG/1.1/DTD/svg11.dtd">
<!-- Generated by graphviz version 2.44.0 ()
 -->
<!-- Title: src/Game/Game.cpp Pages: 1 -->
<svg width="1074pt" height="151pt"
 viewBox="0.00 0.00 1073.50 151.00" xmlns="http://www.w3.org/2000/svg" xmlns:xlink="http://www.w3.org/1999/xlink">
<g id="graph0" class="graph" transform="scale(1 1) rotate(0) translate(4 147)">
<title>src/Game/Game.cpp</title>
<!-- Node1 -->
<g id="node1" class="node">
<title>Node1</title>
<g id="a_node1"><a xlink:title=" ">
<polygon fill="#bfbfbf" stroke="black" points="426.5,-123.5 426.5,-142.5 533.5,-142.5 533.5,-123.5 426.5,-123.5"/>
<text text-anchor="middle" x="480" y="-130.5" font-family="Helvetica,sans-Serif" font-size="10.00">src/Game/Game.cpp</text>
</a>
</g>
</g>
<!-- Node2 -->
<g id="node2" class="node">
<title>Node2</title>
<g id="a_node2"><a xlink:href="Game_8hpp.html" target="_top" xlink:title=" ">
<polygon fill="none" stroke="black" points="89.5,-62 89.5,-81 150.5,-81 150.5,-62 89.5,-62"/>
<text text-anchor="middle" x="120" y="-69" font-family="Helvetica,sans-Serif" font-size="10.00">Game.hpp</text>
</a>
</g>
</g>
<!-- Node1&#45;&gt;Node2 -->
<g id="edge1" class="edge">
<title>Node1&#45;&gt;Node2</title>
<path fill="none" stroke="midnightblue" d="M428.42,-123.48C356.26,-111.55 226.65,-90.13 160.8,-79.24"/>
<polygon fill="midnightblue" stroke="midnightblue" points="161.23,-75.77 150.8,-77.59 160.09,-82.67 161.23,-75.77"/>
</g>
<!-- Node4 -->
<g id="node4" class="node">
<title>Node4</title>
<g id="a_node4"><a xlink:title=" ">
<polygon fill="none" stroke="#bfbfbf" points="114,-0.5 114,-19.5 266,-19.5 266,-0.5 114,-0.5"/>
<text text-anchor="middle" x="190" y="-7.5" font-family="Helvetica,sans-Serif" font-size="10.00">Builder/GameObjectBuilder.hpp</text>
</a>
</g>
</g>
<!-- Node1&#45;&gt;Node4 -->
<g id="edge3" class="edge">
<title>Node1&#45;&gt;Node4</title>
<path fill="none" stroke="midnightblue" d="M459.61,-123.49C409.4,-102.54 279.57,-48.37 220.31,-23.64"/>
<polygon fill="midnightblue" stroke="midnightblue" points="221.33,-20.28 210.76,-19.66 218.64,-26.74 221.33,-20.28"/>
</g>
<!-- Node5 -->
<g id="node5" class="node">
<title>Node5</title>
<g id="a_node5"><a xlink:title=" ">
<polygon fill="none" stroke="#bfbfbf" points="284.5,-0.5 284.5,-19.5 409.5,-19.5 409.5,-0.5 284.5,-0.5"/>
<text text-anchor="middle" x="347" y="-7.5" font-family="Helvetica,sans-Serif" font-size="10.00">Builder/SceneBuilder.hpp</text>
</a>
</g>
</g>
<!-- Node1&#45;&gt;Node5 -->
<g id="edge4" class="edge">
<title>Node1&#45;&gt;Node5</title>
<path fill="none" stroke="midnightblue" d="M469.93,-123.49C459.37,-114.53 442.37,-99.95 428,-87 405.31,-66.55 379.69,-42.31 363.45,-26.8"/>
<polygon fill="midnightblue" stroke="midnightblue" points="365.52,-23.94 355.88,-19.55 360.68,-29 365.52,-23.94"/>
</g>
<!-- Node6 -->
<g id="node6" class="node">
<title>Node6</title>
<g id="a_node6"><a xlink:href="TileConfig_8hpp.html" target="_top" xlink:title=" ">
<polygon fill="none" stroke="black" points="437.5,-62 437.5,-81 522.5,-81 522.5,-62 437.5,-62"/>
<text text-anchor="middle" x="480" y="-69" font-family="Helvetica,sans-Serif" font-size="10.00">../TileConfig.hpp</text>
</a>
</g>
</g>
<!-- Node1&#45;&gt;Node6 -->
<g id="edge5" class="edge">
<title>Node1&#45;&gt;Node6</title>
<path fill="none" stroke="midnightblue" d="M480,-123.48C480,-115.08 480,-101.98 480,-91.16"/>
<polygon fill="midnightblue" stroke="midnightblue" points="483.5,-91.01 480,-81.01 476.5,-91.01 483.5,-91.01"/>
</g>
<!-- Node11 -->
<g id="node11" class="node">
<title>Node11</title>
<g id="a_node11"><a xlink:title=" ">
<polygon fill="none" stroke="#bfbfbf" points="540.5,-62 540.5,-81 701.5,-81 701.5,-62 540.5,-62"/>
<text text-anchor="middle" x="621" y="-69" font-family="Helvetica,sans-Serif" font-size="10.00">Behaviour/CollisionBehaviour.hpp</text>
</a>
</g>
</g>
<!-- Node1&#45;&gt;Node11 -->
<g id="edge12" class="edge">
<title>Node1&#45;&gt;Node11</title>
<path fill="none" stroke="midnightblue" d="M500.2,-123.48C524.07,-113.4 564,-96.55 591.37,-85"/>
<polygon fill="midnightblue" stroke="midnightblue" points="592.98,-88.12 600.84,-81.01 590.26,-81.67 592.98,-88.12"/>
</g>
<!-- Node12 -->
<g id="node12" class="node">
<title>Node12</title>
<g id="a_node12"><a xlink:href="PlayerInputBehaviour_8hpp.html" target="_top" xlink:title=" ">
<polygon fill="none" stroke="black" points="720,-62 720,-81 888,-81 888,-62 720,-62"/>
<text text-anchor="middle" x="804" y="-69" font-family="Helvetica,sans-Serif" font-size="10.00">../Scripts/PlayerInputBehaviour.hpp</text>
</a>
</g>
</g>
<!-- Node1&#45;&gt;Node12 -->
<g id="edge13" class="edge">
<title>Node1&#45;&gt;Node12</title>
<path fill="none" stroke="midnightblue" d="M526.42,-123.48C584.77,-112.76 684.84,-94.38 747.55,-82.87"/>
<polygon fill="midnightblue" stroke="midnightblue" points="748.46,-86.26 757.66,-81.01 747.2,-79.37 748.46,-86.26"/>
</g>
<!-- Node14 -->
<g id="node14" class="node">
<title>Node14</title>
<g id="a_node14"><a xlink:href="DynamicAnimationBehaviour_8hpp.html" target="_top" xlink:title=" ">
<polygon fill="none" stroke="black" points="906.5,-56.5 906.5,-86.5 1045.5,-86.5 1045.5,-56.5 906.5,-56.5"/>
<text text-anchor="start" x="914.5" y="-74.5" font-family="Helvetica,sans-Serif" font-size="10.00">../Scripts/DynamicAnimation</text>
<text text-anchor="middle" x="976" y="-63.5" font-family="Helvetica,sans-Serif" font-size="10.00">Behaviour.hpp</text>
</a>
</g>
</g>
<!-- Node1&#45;&gt;Node14 -->
<g id="edge15" class="edge">
<title>Node1&#45;&gt;Node14</title>
<path fill="none" stroke="midnightblue" d="M533.81,-127.48C611.46,-120.67 759.66,-106.61 896.04,-87.07"/>
<polygon fill="midnightblue" stroke="midnightblue" points="896.86,-90.49 906.26,-85.59 895.86,-83.56 896.86,-90.49"/>
</g>
<!-- Node3 -->
<g id="node3" class="node">
<title>Node3</title>
<g id="a_node3"><a xlink:title=" ">
<polygon fill="none" stroke="#bfbfbf" points="0,-0.5 0,-19.5 96,-19.5 96,-0.5 0,-0.5"/>
<text text-anchor="middle" x="48" y="-7.5" font-family="Helvetica,sans-Serif" font-size="10.00">Engine/Engine.hpp</text>
</a>
</g>
</g>
<!-- Node2&#45;&gt;Node3 -->
<g id="edge2" class="edge">
<title>Node2&#45;&gt;Node3</title>
<path fill="none" stroke="midnightblue" d="M109.68,-61.98C98.35,-52.61 79.93,-37.38 66.16,-26.01"/>
<polygon fill="midnightblue" stroke="midnightblue" points="68.23,-23.18 58.3,-19.51 63.78,-28.58 68.23,-23.18"/>
</g>
<!-- Node6&#45;&gt;Node4 -->
<g id="edge9" class="edge">
<title>Node6&#45;&gt;Node4</title>
<path fill="none" stroke="midnightblue" d="M438.45,-61.98C386.55,-51.33 297.76,-33.11 241.57,-21.58"/>
<polygon fill="midnightblue" stroke="midnightblue" points="241.97,-18.09 231.47,-19.51 240.57,-24.95 241.97,-18.09"/>
</g>
<!-- Node6&#45;&gt;Node5 -->
<g id="edge10" class="edge">
<title>Node6&#45;&gt;Node5</title>
<path fill="none" stroke="midnightblue" d="M460.94,-61.98C438.53,-51.95 401.09,-35.2 375.29,-23.65"/>
<polygon fill="midnightblue" stroke="midnightblue" points="376.58,-20.4 366.02,-19.51 373.72,-26.79 376.58,-20.4"/>
</g>
<!-- Node7 -->
<g id="node7" class="node">
<title>Node7</title>
<g id="a_node7"><a xlink:title=" ">
<polygon fill="none" stroke="#bfbfbf" points="606.5,-0.5 606.5,-19.5 665.5,-19.5 665.5,-0.5 606.5,-0.5"/>
<text text-anchor="middle" x="636" y="-7.5" font-family="Helvetica,sans-Serif" font-size="10.00">functional</text>
</a>
</g>
</g>
<!-- Node6&#45;&gt;Node7 -->
<g id="edge6" class="edge">
<title>Node6&#45;&gt;Node7</title>
<path fill="none" stroke="midnightblue" d="M502.35,-61.98C528.99,-51.81 573.71,-34.76 604.01,-23.2"/>
<polygon fill="midnightblue" stroke="midnightblue" points="605.59,-26.34 613.69,-19.51 603.1,-19.8 605.59,-26.34"/>
</g>
<!-- Node8 -->
<g id="node8" class="node">
<title>Node8</title>
<g id="a_node8"><a xlink:title=" ">
<polygon fill="none" stroke="#bfbfbf" points="683.5,-0.5 683.5,-19.5 718.5,-19.5 718.5,-0.5 683.5,-0.5"/>
<text text-anchor="middle" x="701" y="-7.5" font-family="Helvetica,sans-Serif" font-size="10.00">map</text>
</a>
</g>
</g>
<!-- Node6&#45;&gt;Node8 -->
<g id="edge7" class="edge">
<title>Node6&#45;&gt;Node8</title>
<path fill="none" stroke="midnightblue" d="M509.35,-61.99C516.43,-59.98 523.98,-57.88 531,-56 591.34,-39.83 609.41,-38.47 673.54,-19.96"/>
<polygon fill="midnightblue" stroke="midnightblue" points="674.72,-23.26 683.34,-17.1 672.76,-16.54 674.72,-23.26"/>
</g>
<!-- Node9 -->
<g id="node9" class="node">
<title>Node9</title>
<g id="a_node9"><a xlink:title=" ">
<polygon fill="none" stroke="#bfbfbf" points="736.5,-0.5 736.5,-19.5 787.5,-19.5 787.5,-0.5 736.5,-0.5"/>
<text text-anchor="middle" x="762" y="-7.5" font-family="Helvetica,sans-Serif" font-size="10.00">memory</text>
</a>
</g>
</g>
<!-- Node6&#45;&gt;Node9 -->
<g id="edge8" class="edge">
<title>Node6&#45;&gt;Node9</title>
<path fill="none" stroke="midnightblue" d="M508.2,-61.96C515.58,-59.87 523.56,-57.74 531,-56 614.22,-36.57 638.79,-38.85 726.58,-19.95"/>
<polygon fill="midnightblue" stroke="midnightblue" points="727.41,-23.35 736.44,-17.79 725.92,-16.51 727.41,-23.35"/>
</g>
<!-- Node10 -->
<g id="node10" class="node">
<title>Node10</title>
<g id="a_node10"><a xlink:title=" ">
<polygon fill="none" stroke="#bfbfbf" points="428,-0.5 428,-19.5 588,-19.5 588,-0.5 428,-0.5"/>
<text text-anchor="middle" x="508" y="-7.5" font-family="Helvetica,sans-Serif" font-size="10.00">Director/GameObjectDirector.hpp</text>
</a>
</g>
</g>
<!-- Node6&#45;&gt;Node10 -->
<g id="edge11" class="edge">
<title>Node6&#45;&gt;Node10</title>
<path fill="none" stroke="midnightblue" d="M484.01,-61.98C488.09,-53.32 494.52,-39.65 499.7,-28.65"/>
<polygon fill="midnightblue" stroke="midnightblue" points="502.9,-30.05 504,-19.51 496.57,-27.07 502.9,-30.05"/>
</g>
<!-- Node13 -->
<g id="node13" class="node">
<title>Node13</title>
<g id="a_node13"><a xlink:title=" ">
<polygon fill="none" stroke="#bfbfbf" points="806,-0.5 806,-19.5 910,-19.5 910,-0.5 806,-0.5"/>
<text text-anchor="middle" x="858" y="-7.5" font-family="Helvetica,sans-Serif" font-size="10.00">BehaviourScript.hpp</text>
</a>
</g>
</g>
<!-- Node12&#45;&gt;Node13 -->
<g id="edge14" class="edge">
<title>Node12&#45;&gt;Node13</title>
<path fill="none" stroke="midnightblue" d="M811.74,-61.98C820,-52.87 833.28,-38.24 843.49,-26.98"/>
<polygon fill="midnightblue" stroke="midnightblue" points="846.15,-29.27 850.28,-19.51 840.97,-24.56 846.15,-29.27"/>
</g>
<!-- Node14&#45;&gt;Node13 -->
<g id="edge16" class="edge">
<title>Node14&#45;&gt;Node13</title>
<path fill="none" stroke="midnightblue" d="M948.04,-56.4C928.68,-46.64 903.09,-33.74 884.14,-24.18"/>
<polygon fill="midnightblue" stroke="midnightblue" points="885.67,-21.04 875.17,-19.66 882.52,-27.29 885.67,-21.04"/>
</g>
<!-- Node15 -->
<g id="node15" class="node">
<title>Node15</title>
<g id="a_node15"><a xlink:title=" ">
<polygon fill="none" stroke="#bfbfbf" points="928.5,-0.5 928.5,-19.5 1065.5,-19.5 1065.5,-0.5 928.5,-0.5"/>
<text text-anchor="middle" x="997" y="-7.5" font-family="Helvetica,sans-Serif" font-size="10.00">Texture/AnimatedSprite.hpp</text>
</a>
</g>
</g>
<!-- Node14&#45;&gt;Node15 -->
<g id="edge17" class="edge">
<title>Node14&#45;&gt;Node15</title>
<path fill="none" stroke="midnightblue" d="M980.98,-56.4C983.84,-48.29 987.47,-38.01 990.55,-29.28"/>
<polygon fill="midnightblue" stroke="midnightblue" points="993.92,-30.25 993.94,-19.66 987.32,-27.92 993.92,-30.25"/>
</g>
</g>
</svg>
