<?xml version="1.0" encoding="UTF-8" standalone="no"?>
<!DOCTYPE svg PUBLIC "-//W3C//DTD SVG 1.1//EN"
 "http://www.w3.org/Graphics/SVG/1.1/DTD/svg11.dtd">
<!-- Generated by graphviz version 2.44.0 ()
 -->
<!-- Title: src/Game/Game.cpp Pages: 1 -->
<!--zoomable 263 -->
<svg id="main" version="1.1" xmlns="http://www.w3.org/2000/svg" xmlns:xlink="http://www.w3.org/1999/xlink" xml:space="preserve" onload="init(evt)">
<style type="text/css"><![CDATA[
.edge:hover path { stroke: red; }
.edge:hover polygon { stroke: red; fill: red; }
]]></style>
<script type="text/javascript"><![CDATA[
var edges = document.getElementsByTagName('g');
if (edges && edges.length) {
  for (var i=0;i<edges.length;i++) {
    if (edges[i].id.substr(0,4)=='edge') {
      edges[i].setAttribute('class','edge');
    }
  }
}
]]></script>
        <defs>
                <circle id="rim" cx="0" cy="0" r="7"/>
                <circle id="rim2" cx="0" cy="0" r="3.5"/>
                <g id="zoomPlus">
                        <use xlink:href="#rim" fill="#404040">
                                <set attributeName="fill" to="#808080" begin="zoomplus.mouseover" end="zoomplus.mouseout"/>
                        </use>
                        <path d="M-4,0h8M0,-4v8" fill="none" stroke="white" stroke-width="1.5" pointer-events="none"/>
                </g>
                <g id="zoomMin">
                        <use xlink:href="#rim" fill="#404040">
                                <set attributeName="fill" to="#808080" begin="zoomminus.mouseover" end="zoomminus.mouseout"/>
                        </use>
                        <path d="M-4,0h8" fill="none" stroke="white" stroke-width="1.5" pointer-events="none"/>
                </g>
                <g id="dirArrow">
                        <path fill="none" stroke="white" stroke-width="1.5" d="M0,-3.0v7 M-2.5,-0.5L0,-3.0L2.5,-0.5"/>
                </g>
               <g id="resetDef">
                       <use xlink:href="#rim2" fill="#404040">
                               <set attributeName="fill" to="#808080" begin="reset.mouseover" end="reset.mouseout"/>
                       </use>
               </g>
        </defs>

<script type="text/javascript">
var viewWidth = 1803;
var viewHeight = 263;
var sectionId = 'dynsection-0';
</script>
<script xlink:href="svgpan.js"/>
<svg id="graph" class="graph">
<g id="viewport">
<title>src/Game/Game.cpp</title>
<!-- Node1 -->
<g id="node1" class="node">
<title>Node1</title>
<g id="a_node1"><a xlink:title=" ">
<polygon fill="#bfbfbf" stroke="black" points="953.5,-235.5 953.5,-254.5 1060.5,-254.5 1060.5,-235.5 953.5,-235.5"/>
<text text-anchor="middle" x="1007" y="-242.5" font-family="Helvetica,sans-Serif" font-size="10.00">src/Game/Game.cpp</text>
</a>
</g>
</g>
<!-- Node2 -->
<g id="node2" class="node">
<title>Node2</title>
<g id="a_node2"><a xlink:href="Game_8hpp.html" target="_top" xlink:title=" ">
<polygon fill="none" stroke="black" points="89.5,-179.5 89.5,-198.5 150.5,-198.5 150.5,-179.5 89.5,-179.5"/>
<text text-anchor="middle" x="120" y="-186.5" font-family="Helvetica,sans-Serif" font-size="10.00">Game.hpp</text>
</a>
</g>
</g>
<!-- Node1&#45;&gt;Node2 -->
<g id="edge1" class="edge">
<title>Node1&#45;&gt;Node2</title>
<path fill="none" stroke="midnightblue" d="M953.18,-240.72C790.41,-230.81 305.68,-201.3 161.13,-192.5"/>
<polygon fill="midnightblue" stroke="midnightblue" points="161.12,-189 150.93,-191.88 160.69,-195.98 161.12,-189"/>
</g>
<!-- Node4 -->
<g id="node4" class="node">
<title>Node4</title>
<g id="a_node4"><a xlink:title=" ">
<polygon fill="none" stroke="#bfbfbf" points="114,-123.5 114,-142.5 266,-142.5 266,-123.5 114,-123.5"/>
<text text-anchor="middle" x="190" y="-130.5" font-family="Helvetica,sans-Serif" font-size="10.00">Builder/GameObjectBuilder.hpp</text>
</a>
</g>
</g>
<!-- Node1&#45;&gt;Node4 -->
<g id="edge3" class="edge">
<title>Node1&#45;&gt;Node4</title>
<path fill="none" stroke="midnightblue" d="M953.39,-238.54C877.5,-230.67 734.46,-215.26 613,-199 483.98,-181.73 333.45,-157.65 251.27,-144.18"/>
<polygon fill="midnightblue" stroke="midnightblue" points="251.78,-140.72 241.35,-142.55 250.65,-147.62 251.78,-140.72"/>
</g>
<!-- Node5 -->
<g id="node5" class="node">
<title>Node5</title>
<g id="a_node5"><a xlink:title=" ">
<polygon fill="none" stroke="#bfbfbf" points="284.5,-123.5 284.5,-142.5 409.5,-142.5 409.5,-123.5 284.5,-123.5"/>
<text text-anchor="middle" x="347" y="-130.5" font-family="Helvetica,sans-Serif" font-size="10.00">Builder/SceneBuilder.hpp</text>
</a>
</g>
</g>
<!-- Node1&#45;&gt;Node5 -->
<g id="edge4" class="edge">
<title>Node1&#45;&gt;Node5</title>
<path fill="none" stroke="midnightblue" d="M954.72,-235.48C899.57,-226.47 810.16,-211.83 733,-199 617.68,-179.82 483.04,-157.07 407.13,-144.2"/>
<polygon fill="midnightblue" stroke="midnightblue" points="407.71,-140.75 397.26,-142.53 406.54,-147.65 407.71,-140.75"/>
</g>
<!-- Node6 -->
<g id="node6" class="node">
<title>Node6</title>
<g id="a_node6"><a xlink:href="TileConfig_8hpp.html" target="_top" xlink:title=" ">
<polygon fill="none" stroke="black" points="742.5,-179.5 742.5,-198.5 819.5,-198.5 819.5,-179.5 742.5,-179.5"/>
<text text-anchor="middle" x="781" y="-186.5" font-family="Helvetica,sans-Serif" font-size="10.00">TileConfig.hpp</text>
</a>
</g>
</g>
<!-- Node1&#45;&gt;Node6 -->
<g id="edge5" class="edge">
<title>Node1&#45;&gt;Node6</title>
<path fill="none" stroke="midnightblue" d="M971.19,-235.44C932.01,-226.08 869.12,-211.06 826.48,-200.87"/>
<polygon fill="midnightblue" stroke="midnightblue" points="827.18,-197.44 816.64,-198.52 825.56,-204.24 827.18,-197.44"/>
</g>
<!-- Node24 -->
<g id="node24" class="node">
<title>Node24</title>
<g id="a_node24"><a xlink:title=" ">
<polygon fill="none" stroke="#bfbfbf" points="837.5,-179.5 837.5,-198.5 998.5,-198.5 998.5,-179.5 837.5,-179.5"/>
<text text-anchor="middle" x="918" y="-186.5" font-family="Helvetica,sans-Serif" font-size="10.00">Behaviour/CollisionBehaviour.hpp</text>
</a>
</g>
</g>
<!-- Node1&#45;&gt;Node24 -->
<g id="edge32" class="edge">
<title>Node1&#45;&gt;Node24</title>
<path fill="none" stroke="midnightblue" d="M992.7,-235.32C978.82,-226.9 957.51,-213.97 941.2,-204.07"/>
<polygon fill="midnightblue" stroke="midnightblue" points="942.63,-200.85 932.26,-198.65 939,-206.83 942.63,-200.85"/>
</g>
<!-- Node25 -->
<g id="node25" class="node">
<title>Node25</title>
<g id="a_node25"><a xlink:href="NetworkingServer_8hpp.html" target="_top" xlink:title=" ">
<polygon fill="none" stroke="black" points="1195.5,-179.5 1195.5,-198.5 1360.5,-198.5 1360.5,-179.5 1195.5,-179.5"/>
<text text-anchor="middle" x="1278" y="-186.5" font-family="Helvetica,sans-Serif" font-size="10.00">Networking/NetworkingServer.hpp</text>
</a>
</g>
</g>
<!-- Node1&#45;&gt;Node25 -->
<g id="edge33" class="edge">
<title>Node1&#45;&gt;Node25</title>
<path fill="none" stroke="midnightblue" d="M1049.94,-235.44C1097.51,-225.96 1174.24,-210.67 1225.39,-200.48"/>
<polygon fill="midnightblue" stroke="midnightblue" points="1226.14,-203.9 1235.26,-198.52 1224.77,-197.04 1226.14,-203.9"/>
</g>
<!-- Node28 -->
<g id="node28" class="node">
<title>Node28</title>
<g id="a_node28"><a xlink:href="NetworkingClient_8hpp.html" target="_top" xlink:title=" ">
<polygon fill="none" stroke="black" points="1016.5,-179.5 1016.5,-198.5 1177.5,-198.5 1177.5,-179.5 1016.5,-179.5"/>
<text text-anchor="middle" x="1097" y="-186.5" font-family="Helvetica,sans-Serif" font-size="10.00">Networking/NetworkingClient.hpp</text>
</a>
</g>
</g>
<!-- Node1&#45;&gt;Node28 -->
<g id="edge36" class="edge">
<title>Node1&#45;&gt;Node28</title>
<path fill="none" stroke="midnightblue" d="M1021.46,-235.32C1035.5,-226.9 1057.05,-213.97 1073.54,-204.07"/>
<polygon fill="midnightblue" stroke="midnightblue" points="1075.8,-206.8 1082.58,-198.65 1072.2,-200.8 1075.8,-206.8"/>
</g>
<!-- Node29 -->
<g id="node29" class="node">
<title>Node29</title>
<g id="a_node29"><a xlink:href="MainMenu_8hpp.html" target="_top" xlink:title=" ">
<polygon fill="none" stroke="black" points="1683,-179.5 1683,-198.5 1795,-198.5 1795,-179.5 1683,-179.5"/>
<text text-anchor="middle" x="1739" y="-186.5" font-family="Helvetica,sans-Serif" font-size="10.00">Levels/MainMenu.hpp</text>
</a>
</g>
</g>
<!-- Node1&#45;&gt;Node29 -->
<g id="edge38" class="edge">
<title>Node1&#45;&gt;Node29</title>
<path fill="none" stroke="midnightblue" d="M1060.71,-241.66C1172.57,-236.5 1438.88,-222.79 1672.61,-199.08"/>
<polygon fill="midnightblue" stroke="midnightblue" points="1673.07,-202.55 1682.66,-198.05 1672.35,-195.58 1673.07,-202.55"/>
</g>
<!-- Node30 -->
<g id="node30" class="node">
<title>Node30</title>
<g id="a_node30"><a xlink:href="Level1_8hpp.html" target="_top" xlink:title=" ">
<polygon fill="none" stroke="black" points="1379,-179.5 1379,-198.5 1475,-198.5 1475,-179.5 1379,-179.5"/>
<text text-anchor="middle" x="1427" y="-186.5" font-family="Helvetica,sans-Serif" font-size="10.00">Levels/Level1.hpp</text>
</a>
</g>
</g>
<!-- Node1&#45;&gt;Node30 -->
<g id="edge40" class="edge">
<title>Node1&#45;&gt;Node30</title>
<path fill="none" stroke="midnightblue" d="M1060.58,-237.92C1129.46,-229.98 1253.02,-215.32 1368.72,-199.14"/>
<polygon fill="midnightblue" stroke="midnightblue" points="1369.4,-202.58 1378.81,-197.72 1368.43,-195.65 1369.4,-202.58"/>
</g>
<!-- Node31 -->
<g id="node31" class="node">
<title>Node31</title>
<g id="a_node31"><a xlink:href="GameOverScene_8hpp.html" target="_top" xlink:title=" ">
<polygon fill="none" stroke="black" points="1493.5,-179.5 1493.5,-198.5 1664.5,-198.5 1664.5,-179.5 1493.5,-179.5"/>
<text text-anchor="middle" x="1579" y="-186.5" font-family="Helvetica,sans-Serif" font-size="10.00">Game/Levels/GameOverScene.hpp</text>
</a>
</g>
</g>
<!-- Node1&#45;&gt;Node31 -->
<g id="edge42" class="edge">
<title>Node1&#45;&gt;Node31</title>
<path fill="none" stroke="midnightblue" d="M1060.65,-238.95C1147.13,-230.8 1322.98,-214.22 1483.25,-199.07"/>
<polygon fill="midnightblue" stroke="midnightblue" points="1483.67,-202.55 1493.3,-198.12 1483.01,-195.58 1483.67,-202.55"/>
</g>
<!-- Node3 -->
<g id="node3" class="node">
<title>Node3</title>
<g id="a_node3"><a xlink:title=" ">
<polygon fill="none" stroke="#bfbfbf" points="0,-123.5 0,-142.5 96,-142.5 96,-123.5 0,-123.5"/>
<text text-anchor="middle" x="48" y="-130.5" font-family="Helvetica,sans-Serif" font-size="10.00">Engine/Engine.hpp</text>
</a>
</g>
</g>
<!-- Node2&#45;&gt;Node3 -->
<g id="edge2" class="edge">
<title>Node2&#45;&gt;Node3</title>
<path fill="none" stroke="midnightblue" d="M108.43,-179.32C97.58,-171.18 81.12,-158.84 68.12,-149.09"/>
<polygon fill="midnightblue" stroke="midnightblue" points="69.88,-146.03 59.78,-142.83 65.68,-151.63 69.88,-146.03"/>
</g>
<!-- Node6&#45;&gt;Node4 -->
<g id="edge9" class="edge">
<title>Node6&#45;&gt;Node4</title>
<path fill="none" stroke="midnightblue" d="M742.26,-184.78C659.07,-177.81 456.93,-160.62 276.65,-143.15"/>
<polygon fill="midnightblue" stroke="midnightblue" points="276.74,-139.64 266.45,-142.16 276.06,-146.61 276.74,-139.64"/>
</g>
<!-- Node6&#45;&gt;Node5 -->
<g id="edge10" class="edge">
<title>Node6&#45;&gt;Node5</title>
<path fill="none" stroke="midnightblue" d="M742.42,-183.21C678,-175.22 544.13,-158.6 419.9,-143.11"/>
<polygon fill="midnightblue" stroke="midnightblue" points="420.18,-139.62 409.83,-141.86 419.32,-146.57 420.18,-139.62"/>
</g>
<!-- Node7 -->
<g id="node7" class="node">
<title>Node7</title>
<g id="a_node7"><a xlink:title=" ">
<polygon fill="none" stroke="#bfbfbf" points="874.5,-123.5 874.5,-142.5 933.5,-142.5 933.5,-123.5 874.5,-123.5"/>
<text text-anchor="middle" x="904" y="-130.5" font-family="Helvetica,sans-Serif" font-size="10.00">functional</text>
</a>
</g>
</g>
<!-- Node6&#45;&gt;Node7 -->
<g id="edge6" class="edge">
<title>Node6&#45;&gt;Node7</title>
<path fill="none" stroke="midnightblue" d="M800.49,-179.44C820.64,-170.6 852.32,-156.69 875.33,-146.59"/>
<polygon fill="midnightblue" stroke="midnightblue" points="876.85,-149.74 884.6,-142.52 874.04,-143.33 876.85,-149.74"/>
</g>
<!-- Node8 -->
<g id="node8" class="node">
<title>Node8</title>
<g id="a_node8"><a xlink:title=" ">
<polygon fill="none" stroke="#bfbfbf" points="951.5,-123.5 951.5,-142.5 986.5,-142.5 986.5,-123.5 951.5,-123.5"/>
<text text-anchor="middle" x="969" y="-130.5" font-family="Helvetica,sans-Serif" font-size="10.00">map</text>
</a>
</g>
</g>
<!-- Node6&#45;&gt;Node8 -->
<g id="edge7" class="edge">
<title>Node6&#45;&gt;Node8</title>
<path fill="none" stroke="midnightblue" d="M813.21,-179.5C843.83,-171.3 891.4,-158.29 941.59,-143.01"/>
<polygon fill="midnightblue" stroke="midnightblue" points="942.79,-146.31 951.32,-140.03 940.73,-139.61 942.79,-146.31"/>
</g>
<!-- Node9 -->
<g id="node9" class="node">
<title>Node9</title>
<g id="a_node9"><a xlink:title=" ">
<polygon fill="none" stroke="#bfbfbf" points="1388.5,-6 1388.5,-25 1439.5,-25 1439.5,-6 1388.5,-6"/>
<text text-anchor="middle" x="1414" y="-13" font-family="Helvetica,sans-Serif" font-size="10.00">memory</text>
</a>
</g>
</g>
<!-- Node6&#45;&gt;Node9 -->
<g id="edge8" class="edge">
<title>Node6&#45;&gt;Node9</title>
<path fill="none" stroke="midnightblue" d="M819.68,-180.29C822.49,-179.82 825.29,-179.39 828,-179 996.82,-154.94 1048.37,-197.37 1210,-143 1229.85,-136.32 1344.34,-62.12 1392.58,-30.56"/>
<polygon fill="midnightblue" stroke="midnightblue" points="1394.59,-33.43 1401.04,-25.02 1390.75,-27.57 1394.59,-33.43"/>
</g>
<!-- Node10 -->
<g id="node10" class="node">
<title>Node10</title>
<g id="a_node10"><a xlink:title=" ">
<polygon fill="none" stroke="#bfbfbf" points="1043,-123.5 1043,-142.5 1201,-142.5 1201,-123.5 1043,-123.5"/>
<text text-anchor="middle" x="1122" y="-130.5" font-family="Helvetica,sans-Serif" font-size="10.00">Director/GameObjectFactory.hpp</text>
</a>
</g>
</g>
<!-- Node6&#45;&gt;Node10 -->
<g id="edge11" class="edge">
<title>Node6&#45;&gt;Node10</title>
<path fill="none" stroke="midnightblue" d="M819.71,-180.47C822.51,-179.96 825.3,-179.47 828,-179 904.37,-165.85 992.23,-152.65 1051.87,-143.98"/>
<polygon fill="midnightblue" stroke="midnightblue" points="1052.53,-147.42 1061.93,-142.53 1051.53,-140.5 1052.53,-147.42"/>
</g>
<!-- Node11 -->
<g id="node11" class="node">
<title>Node11</title>
<g id="a_node11"><a xlink:href="CoinBehaviour_8hpp.html" target="_top" xlink:title=" ">
<polygon fill="none" stroke="black" points="725.5,-123.5 725.5,-142.5 856.5,-142.5 856.5,-123.5 725.5,-123.5"/>
<text text-anchor="middle" x="791" y="-130.5" font-family="Helvetica,sans-Serif" font-size="10.00">Scripts/CoinBehaviour.hpp</text>
</a>
</g>
</g>
<!-- Node6&#45;&gt;Node11 -->
<g id="edge12" class="edge">
<title>Node6&#45;&gt;Node11</title>
<path fill="none" stroke="midnightblue" d="M782.65,-179.08C783.98,-171.93 785.88,-161.64 787.54,-152.69"/>
<polygon fill="midnightblue" stroke="midnightblue" points="791,-153.22 789.38,-142.75 784.12,-151.95 791,-153.22"/>
</g>
<!-- Node13 -->
<g id="node13" class="node">
<title>Node13</title>
<g id="a_node13"><a xlink:href="CoinCounter_8hpp.html" target="_top" xlink:title=" ">
<polygon fill="none" stroke="black" points="959.5,-67.5 959.5,-86.5 1068.5,-86.5 1068.5,-67.5 959.5,-67.5"/>
<text text-anchor="middle" x="1014" y="-74.5" font-family="Helvetica,sans-Serif" font-size="10.00">../UI/CoinCounter.hpp</text>
</a>
</g>
</g>
<!-- Node6&#45;&gt;Node13 -->
<g id="edge31" class="edge">
<title>Node6&#45;&gt;Node13</title>
<path fill="none" stroke="midnightblue" d="M819.52,-180.42C880.26,-168.39 991.76,-146 995,-143 1007.66,-131.28 1012.05,-111.63 1013.49,-97"/>
<polygon fill="midnightblue" stroke="midnightblue" points="1017.01,-96.78 1014.11,-86.59 1010.02,-96.36 1017.01,-96.78"/>
</g>
<!-- Node22 -->
<g id="node22" class="node">
<title>Node22</title>
<g id="a_node22"><a xlink:href="FlagBehaviour_8hpp.html" target="_top" xlink:title=" ">
<polygon fill="none" stroke="black" points="576.5,-123.5 576.5,-142.5 707.5,-142.5 707.5,-123.5 576.5,-123.5"/>
<text text-anchor="middle" x="642" y="-130.5" font-family="Helvetica,sans-Serif" font-size="10.00">Scripts/FlagBehaviour.hpp</text>
</a>
</g>
</g>
<!-- Node6&#45;&gt;Node22 -->
<g id="edge27" class="edge">
<title>Node6&#45;&gt;Node22</title>
<path fill="none" stroke="midnightblue" d="M758.98,-179.44C735.9,-170.48 699.44,-156.31 673.36,-146.18"/>
<polygon fill="midnightblue" stroke="midnightblue" points="674.51,-142.88 663.92,-142.52 671.98,-149.4 674.51,-142.88"/>
</g>
<!-- Node23 -->
<g id="node23" class="node">
<title>Node23</title>
<g id="a_node23"><a xlink:href="StarBehaviour_8hpp.html" target="_top" xlink:title=" ">
<polygon fill="none" stroke="black" points="428,-123.5 428,-142.5 558,-142.5 558,-123.5 428,-123.5"/>
<text text-anchor="middle" x="493" y="-130.5" font-family="Helvetica,sans-Serif" font-size="10.00">Scripts/StarBehaviour.hpp</text>
</a>
</g>
</g>
<!-- Node6&#45;&gt;Node23 -->
<g id="edge29" class="edge">
<title>Node6&#45;&gt;Node23</title>
<path fill="none" stroke="midnightblue" d="M742.46,-180.77C692.57,-171.42 605.31,-155.06 548.35,-144.38"/>
<polygon fill="midnightblue" stroke="midnightblue" points="548.9,-140.92 538.43,-142.52 547.61,-147.8 548.9,-140.92"/>
</g>
<!-- Node12 -->
<g id="node12" class="node">
<title>Node12</title>
<g id="a_node12"><a xlink:title=" ">
<polygon fill="none" stroke="#bfbfbf" points="590,-67.5 590,-86.5 694,-86.5 694,-67.5 590,-67.5"/>
<text text-anchor="middle" x="642" y="-74.5" font-family="Helvetica,sans-Serif" font-size="10.00">BehaviourScript.hpp</text>
</a>
</g>
</g>
<!-- Node11&#45;&gt;Node12 -->
<g id="edge13" class="edge">
<title>Node11&#45;&gt;Node12</title>
<path fill="none" stroke="midnightblue" d="M767.39,-123.44C742.54,-114.44 703.23,-100.19 675.25,-90.05"/>
<polygon fill="midnightblue" stroke="midnightblue" points="676.09,-86.63 665.5,-86.52 673.71,-93.21 676.09,-86.63"/>
</g>
<!-- Node11&#45;&gt;Node13 -->
<g id="edge14" class="edge">
<title>Node11&#45;&gt;Node13</title>
<path fill="none" stroke="midnightblue" d="M826.34,-123.44C864.91,-114.1 926.78,-99.12 968.85,-88.93"/>
<polygon fill="midnightblue" stroke="midnightblue" points="969.93,-92.27 978.83,-86.52 968.29,-85.47 969.93,-92.27"/>
</g>
<!-- Node14 -->
<g id="node14" class="node">
<title>Node14</title>
<g id="a_node14"><a xlink:title=" ">
<polygon fill="none" stroke="#bfbfbf" points="766.5,-0.5 766.5,-30.5 861.5,-30.5 861.5,-0.5 766.5,-0.5"/>
<text text-anchor="start" x="774.5" y="-18.5" font-family="Helvetica,sans-Serif" font-size="10.00">boost/serialization</text>
<text text-anchor="middle" x="814" y="-7.5" font-family="Helvetica,sans-Serif" font-size="10.00">/access.hpp</text>
</a>
</g>
</g>
<!-- Node11&#45;&gt;Node14 -->
<g id="edge24" class="edge">
<title>Node11&#45;&gt;Node14</title>
<path fill="none" stroke="midnightblue" d="M792.73,-123.32C796.18,-105.97 804.05,-66.46 809.19,-40.66"/>
<polygon fill="midnightblue" stroke="midnightblue" points="812.68,-41.04 811.2,-30.55 805.82,-39.67 812.68,-41.04"/>
</g>
<!-- Node15 -->
<g id="node15" class="node">
<title>Node15</title>
<g id="a_node15"><a xlink:title=" ">
<polygon fill="none" stroke="#bfbfbf" points="540.5,-0.5 540.5,-30.5 635.5,-30.5 635.5,-0.5 540.5,-0.5"/>
<text text-anchor="start" x="548.5" y="-18.5" font-family="Helvetica,sans-Serif" font-size="10.00">boost/serialization</text>
<text text-anchor="middle" x="588" y="-7.5" font-family="Helvetica,sans-Serif" font-size="10.00">/export.hpp</text>
</a>
</g>
</g>
<!-- Node11&#45;&gt;Node15 -->
<g id="edge25" class="edge">
<title>Node11&#45;&gt;Node15</title>
<path fill="none" stroke="midnightblue" d="M780.95,-123.41C765.12,-110.15 733.08,-84.42 703,-67 681.48,-54.54 656.32,-43.16 635.02,-34.37"/>
<polygon fill="midnightblue" stroke="midnightblue" points="636.12,-31.04 625.54,-30.52 633.49,-37.52 636.12,-31.04"/>
</g>
<!-- Node16 -->
<g id="node16" class="node">
<title>Node16</title>
<g id="a_node16"><a xlink:title=" ">
<polygon fill="none" stroke="#bfbfbf" points="653.5,-0.5 653.5,-30.5 748.5,-30.5 748.5,-0.5 653.5,-0.5"/>
<text text-anchor="start" x="661.5" y="-18.5" font-family="Helvetica,sans-Serif" font-size="10.00">boost/serialization</text>
<text text-anchor="middle" x="701" y="-7.5" font-family="Helvetica,sans-Serif" font-size="10.00">/shared_ptr.hpp</text>
</a>
</g>
</g>
<!-- Node11&#45;&gt;Node16 -->
<g id="edge26" class="edge">
<title>Node11&#45;&gt;Node16</title>
<path fill="none" stroke="midnightblue" d="M785.13,-123.43C776.43,-110.84 759.48,-86.71 744,-67 736.49,-57.43 727.85,-47.16 720.3,-38.39"/>
<polygon fill="midnightblue" stroke="midnightblue" points="722.93,-36.09 713.73,-30.83 717.64,-40.68 722.93,-36.09"/>
</g>
<!-- Node13&#45;&gt;Node9 -->
<g id="edge15" class="edge">
<title>Node13&#45;&gt;Node9</title>
<path fill="none" stroke="midnightblue" d="M1068.55,-74.06C1140.88,-70.41 1271.96,-60.06 1380,-31 1382.3,-30.38 1384.65,-29.64 1386.98,-28.82"/>
<polygon fill="midnightblue" stroke="midnightblue" points="1388.31,-32.06 1396.34,-25.14 1385.75,-25.54 1388.31,-32.06"/>
</g>
<!-- Node13&#45;&gt;Node14 -->
<g id="edge16" class="edge">
<title>Node13&#45;&gt;Node14</title>
<path fill="none" stroke="midnightblue" d="M985.34,-67.48C955.6,-58.63 908.28,-44.55 870.9,-33.43"/>
<polygon fill="midnightblue" stroke="midnightblue" points="871.72,-30.02 861.14,-30.52 869.72,-36.73 871.72,-30.02"/>
</g>
<!-- Node13&#45;&gt;Node15 -->
<g id="edge17" class="edge">
<title>Node13&#45;&gt;Node15</title>
<path fill="none" stroke="midnightblue" d="M959.42,-71.64C888.91,-65.5 762.27,-52.77 645.39,-31.12"/>
<polygon fill="midnightblue" stroke="midnightblue" points="646.04,-27.68 635.56,-29.27 644.74,-34.56 646.04,-27.68"/>
</g>
<!-- Node13&#45;&gt;Node16 -->
<g id="edge18" class="edge">
<title>Node13&#45;&gt;Node16</title>
<path fill="none" stroke="midnightblue" d="M959.11,-67.69C909.15,-59.84 833.16,-47.16 758.62,-31.26"/>
<polygon fill="midnightblue" stroke="midnightblue" points="759.11,-27.79 748.6,-29.1 757.64,-34.63 759.11,-27.79"/>
</g>
<!-- Node17 -->
<g id="node17" class="node">
<title>Node17</title>
<g id="a_node17"><a xlink:title=" ">
<polygon fill="none" stroke="#bfbfbf" points="1069,-0.5 1069,-30.5 1173,-30.5 1173,-0.5 1069,-0.5"/>
<text text-anchor="start" x="1077" y="-18.5" font-family="Helvetica,sans-Serif" font-size="10.00">boost/archive/binary</text>
<text text-anchor="middle" x="1121" y="-7.5" font-family="Helvetica,sans-Serif" font-size="10.00">_iarchive.hpp</text>
</a>
</g>
</g>
<!-- Node13&#45;&gt;Node17 -->
<g id="edge19" class="edge">
<title>Node13&#45;&gt;Node17</title>
<path fill="none" stroke="midnightblue" d="M1029.33,-67.48C1044.3,-59.15 1067.58,-46.21 1086.93,-35.45"/>
<polygon fill="midnightblue" stroke="midnightblue" points="1088.74,-38.44 1095.78,-30.52 1085.34,-32.32 1088.74,-38.44"/>
</g>
<!-- Node18 -->
<g id="node18" class="node">
<title>Node18</title>
<g id="a_node18"><a xlink:title=" ">
<polygon fill="none" stroke="#bfbfbf" points="1191,-0.5 1191,-30.5 1295,-30.5 1295,-0.5 1191,-0.5"/>
<text text-anchor="start" x="1199" y="-18.5" font-family="Helvetica,sans-Serif" font-size="10.00">boost/archive/binary</text>
<text text-anchor="middle" x="1243" y="-7.5" font-family="Helvetica,sans-Serif" font-size="10.00">_oarchive.hpp</text>
</a>
</g>
</g>
<!-- Node13&#45;&gt;Node18 -->
<g id="edge20" class="edge">
<title>Node13&#45;&gt;Node18</title>
<path fill="none" stroke="midnightblue" d="M1046.81,-67.48C1081.69,-58.41 1137.67,-43.87 1180.93,-32.63"/>
<polygon fill="midnightblue" stroke="midnightblue" points="1181.99,-35.97 1190.79,-30.07 1180.23,-29.19 1181.99,-35.97"/>
</g>
<!-- Node19 -->
<g id="node19" class="node">
<title>Node19</title>
<g id="a_node19"><a xlink:title=" ">
<polygon fill="none" stroke="#bfbfbf" points="1313.5,-6 1313.5,-25 1370.5,-25 1370.5,-6 1313.5,-6"/>
<text text-anchor="middle" x="1342" y="-13" font-family="Helvetica,sans-Serif" font-size="10.00">Color.hpp</text>
</a>
</g>
</g>
<!-- Node13&#45;&gt;Node19 -->
<g id="edge21" class="edge">
<title>Node13&#45;&gt;Node19</title>
<path fill="none" stroke="midnightblue" d="M1068.69,-70.98C1127.52,-64.79 1223.48,-52.35 1304,-31 1306.66,-30.29 1309.39,-29.47 1312.11,-28.57"/>
<polygon fill="midnightblue" stroke="midnightblue" points="1313.51,-31.79 1321.75,-25.13 1311.15,-25.2 1313.51,-31.79"/>
</g>
<!-- Node20 -->
<g id="node20" class="node">
<title>Node20</title>
<g id="a_node20"><a xlink:title=" ">
<polygon fill="none" stroke="#bfbfbf" points="879.5,-6 879.5,-25 958.5,-25 958.5,-6 879.5,-6"/>
<text text-anchor="middle" x="919" y="-13" font-family="Helvetica,sans-Serif" font-size="10.00">Transform.hpp</text>
</a>
</g>
</g>
<!-- Node13&#45;&gt;Node20 -->
<g id="edge22" class="edge">
<title>Node13&#45;&gt;Node20</title>
<path fill="none" stroke="midnightblue" d="M1000.39,-67.48C984.94,-57.8 959.51,-41.87 941.18,-30.39"/>
<polygon fill="midnightblue" stroke="midnightblue" points="942.92,-27.35 932.59,-25.01 939.2,-33.28 942.92,-27.35"/>
</g>
<!-- Node21 -->
<g id="node21" class="node">
<title>Node21</title>
<g id="a_node21"><a xlink:title=" ">
<polygon fill="none" stroke="#bfbfbf" points="977,-6 977,-25 1051,-25 1051,-6 977,-6"/>
<text text-anchor="middle" x="1014" y="-13" font-family="Helvetica,sans-Serif" font-size="10.00">UIObject.hpp</text>
</a>
</g>
</g>
<!-- Node13&#45;&gt;Node21 -->
<g id="edge23" class="edge">
<title>Node13&#45;&gt;Node21</title>
<path fill="none" stroke="midnightblue" d="M1014,-67.48C1014,-59.08 1014,-45.98 1014,-35.16"/>
<polygon fill="midnightblue" stroke="midnightblue" points="1017.5,-35.01 1014,-25.01 1010.5,-35.01 1017.5,-35.01"/>
</g>
<!-- Node22&#45;&gt;Node12 -->
<g id="edge28" class="edge">
<title>Node22&#45;&gt;Node12</title>
<path fill="none" stroke="midnightblue" d="M642,-123.08C642,-116.01 642,-105.86 642,-96.99"/>
<polygon fill="midnightblue" stroke="midnightblue" points="645.5,-96.75 642,-86.75 638.5,-96.75 645.5,-96.75"/>
</g>
<!-- Node23&#45;&gt;Node12 -->
<g id="edge30" class="edge">
<title>Node23&#45;&gt;Node12</title>
<path fill="none" stroke="midnightblue" d="M516.61,-123.44C541.46,-114.44 580.77,-100.19 608.75,-90.05"/>
<polygon fill="midnightblue" stroke="midnightblue" points="610.29,-93.21 618.5,-86.52 607.91,-86.63 610.29,-93.21"/>
</g>
<!-- Node26 -->
<g id="node26" class="node">
<title>Node26</title>
<g id="a_node26"><a xlink:title=" ">
<polygon fill="none" stroke="#bfbfbf" points="1257.5,-123.5 1257.5,-142.5 1298.5,-142.5 1298.5,-123.5 1257.5,-123.5"/>
<text text-anchor="middle" x="1278" y="-130.5" font-family="Helvetica,sans-Serif" font-size="10.00">string</text>
</a>
</g>
</g>
<!-- Node25&#45;&gt;Node26 -->
<g id="edge34" class="edge">
<title>Node25&#45;&gt;Node26</title>
<path fill="none" stroke="midnightblue" d="M1278,-179.08C1278,-172.01 1278,-161.86 1278,-152.99"/>
<polygon fill="midnightblue" stroke="midnightblue" points="1281.5,-152.75 1278,-142.75 1274.5,-152.75 1281.5,-152.75"/>
</g>
<!-- Node27 -->
<g id="node27" class="node">
<title>Node27</title>
<g id="a_node27"><a xlink:title=" ">
<polygon fill="none" stroke="#bfbfbf" points="1472,-123.5 1472,-142.5 1534,-142.5 1534,-123.5 1472,-123.5"/>
<text text-anchor="middle" x="1503" y="-130.5" font-family="Helvetica,sans-Serif" font-size="10.00">Scene.hpp</text>
</a>
</g>
</g>
<!-- Node25&#45;&gt;Node27 -->
<g id="edge35" class="edge">
<title>Node25&#45;&gt;Node27</title>
<path fill="none" stroke="midnightblue" d="M1313.65,-179.44C1354.03,-169.75 1419.72,-153.99 1462.13,-143.81"/>
<polygon fill="midnightblue" stroke="midnightblue" points="1462.96,-147.21 1471.86,-141.47 1461.32,-140.4 1462.96,-147.21"/>
</g>
<!-- Node28&#45;&gt;Node26 -->
<g id="edge37" class="edge">
<title>Node28&#45;&gt;Node26</title>
<path fill="none" stroke="midnightblue" d="M1125.68,-179.44C1158.92,-169.53 1213.49,-153.25 1247.49,-143.1"/>
<polygon fill="midnightblue" stroke="midnightblue" points="1248.75,-146.38 1257.34,-140.16 1246.75,-139.67 1248.75,-146.38"/>
</g>
<!-- Node29&#45;&gt;Node27 -->
<g id="edge39" class="edge">
<title>Node29&#45;&gt;Node27</title>
<path fill="none" stroke="midnightblue" d="M1701.61,-179.44C1658.68,-169.62 1588.49,-153.56 1544.08,-143.4"/>
<polygon fill="midnightblue" stroke="midnightblue" points="1544.72,-139.96 1534.19,-141.14 1543.16,-146.78 1544.72,-139.96"/>
</g>
<!-- Node30&#45;&gt;Node27 -->
<g id="edge41" class="edge">
<title>Node30&#45;&gt;Node27</title>
<path fill="none" stroke="midnightblue" d="M1439.21,-179.32C1450.78,-171.11 1468.38,-158.6 1482.16,-148.81"/>
<polygon fill="midnightblue" stroke="midnightblue" points="1484.44,-151.48 1490.57,-142.83 1480.39,-145.77 1484.44,-151.48"/>
</g>
<!-- Node31&#45;&gt;Node27 -->
<g id="edge43" class="edge">
<title>Node31&#45;&gt;Node27</title>
<path fill="none" stroke="midnightblue" d="M1566.79,-179.32C1555.22,-171.11 1537.62,-158.6 1523.84,-148.81"/>
<polygon fill="midnightblue" stroke="midnightblue" points="1525.61,-145.77 1515.43,-142.83 1521.56,-151.48 1525.61,-145.77"/>
</g>
</g>
</svg>
        <g id="navigator" transform="translate(0 0)" fill="#404254">
                <rect fill="#f2f5e9" fill-opacity="0.5" stroke="#606060" stroke-width=".5" x="0" y="0" width="60" height="60"/>
                <use id="zoomplus" xlink:href="#zoomPlus" x="17" y="9" onmousedown="handleZoom(evt,'in')"/>
                <use id="zoomminus" xlink:href="#zoomMin" x="42" y="9" onmousedown="handleZoom(evt,'out')"/>
                <use id="reset" xlink:href="#resetDef" x="30" y="36" onmousedown="handleReset()"/>
                <g id="arrowUp" xlink:href="#dirArrow" transform="translate(30 24)" onmousedown="handlePan(0,-1)">
                  <use xlink:href="#rim" fill="#404040">
                        <set attributeName="fill" to="#808080" begin="arrowUp.mouseover" end="arrowUp.mouseout"/>
                  </use>
                  <path fill="none" stroke="white" stroke-width="1.5" d="M0,-3.0v7 M-2.5,-0.5L0,-3.0L2.5,-0.5"/>
                </g>
                <g id="arrowRight" xlink:href="#dirArrow" transform="rotate(90) translate(36 -43)" onmousedown="handlePan(1,0)">
                  <use xlink:href="#rim" fill="#404040">
                        <set attributeName="fill" to="#808080" begin="arrowRight.mouseover" end="arrowRight.mouseout"/>
                  </use>
                  <path fill="none" stroke="white" stroke-width="1.5" d="M0,-3.0v7 M-2.5,-0.5L0,-3.0L2.5,-0.5"/>
                </g>
                <g id="arrowDown" xlink:href="#dirArrow" transform="rotate(180) translate(-30 -48)" onmousedown="handlePan(0,1)">
                  <use xlink:href="#rim" fill="#404040">
                        <set attributeName="fill" to="#808080" begin="arrowDown.mouseover" end="arrowDown.mouseout"/>
                  </use>
                  <path fill="none" stroke="white" stroke-width="1.5" d="M0,-3.0v7 M-2.5,-0.5L0,-3.0L2.5,-0.5"/>
                </g>
                <g id="arrowLeft" xlink:href="#dirArrow" transform="rotate(270) translate(-36 17)" onmousedown="handlePan(-1,0)">
                  <use xlink:href="#rim" fill="#404040">
                        <set attributeName="fill" to="#808080" begin="arrowLeft.mouseover" end="arrowLeft.mouseout"/>
                  </use>
                  <path fill="none" stroke="white" stroke-width="1.5" d="M0,-3.0v7 M-2.5,-0.5L0,-3.0L2.5,-0.5"/>
                </g>
        </g>
        <svg viewBox="0 0 15 15" width="100%" height="30px" preserveAspectRatio="xMaxYMin meet">
         <g id="arrow_out" transform="scale(0.3 0.3)">
          <a xlink:href="Game_8cpp__incl_org.svg" target="_base">
           <rect id="button" ry="5" rx="5" y="6" x="6" height="38" width="38"
                fill="#f2f5e9" fill-opacity="0.5" stroke="#606060" stroke-width="1.0"/>
           <path id="arrow"
             d="M 11.500037,31.436501 C 11.940474,20.09759 22.043105,11.32322 32.158766,21.979434 L 37.068811,17.246167 C 37.068811,17.246167 37.088388,32 37.088388,32 L 22.160133,31.978069 C 22.160133,31.978069 26.997745,27.140456 26.997745,27.140456 C 18.528582,18.264221 13.291696,25.230495 11.500037,31.436501 z"
             style="fill:#404040;"/>
          </a>
         </g>
        </svg>
</svg>
