<?xml version="1.0" encoding="UTF-8" standalone="no"?>
<!DOCTYPE svg PUBLIC "-//W3C//DTD SVG 1.1//EN"
 "http://www.w3.org/Graphics/SVG/1.1/DTD/svg11.dtd">
<!-- Generated by graphviz version 2.44.0 ()
 -->
<!-- Title: src/Game/Game.cpp Pages: 1 -->
<svg width="1464pt" height="162pt"
 viewBox="0.00 0.00 1463.50 162.00" xmlns="http://www.w3.org/2000/svg" xmlns:xlink="http://www.w3.org/1999/xlink">
<g id="graph0" class="graph" transform="scale(1 1) rotate(0) translate(4 158)">
<title>src/Game/Game.cpp</title>
<!-- Node1 -->
<g id="node1" class="node">
<title>Node1</title>
<g id="a_node1"><a xlink:title=" ">
<polygon fill="#bfbfbf" stroke="black" points="618.5,-134.5 618.5,-153.5 725.5,-153.5 725.5,-134.5 618.5,-134.5"/>
<text text-anchor="middle" x="672" y="-141.5" font-family="Helvetica,sans-Serif" font-size="10.00">src/Game/Game.cpp</text>
</a>
</g>
</g>
<!-- Node2 -->
<g id="node2" class="node">
<title>Node2</title>
<g id="a_node2"><a xlink:href="Game_8hpp.html" target="_top" xlink:title=" ">
<polygon fill="none" stroke="black" points="56.5,-73 56.5,-92 117.5,-92 117.5,-73 56.5,-73"/>
<text text-anchor="middle" x="87" y="-80" font-family="Helvetica,sans-Serif" font-size="10.00">Game.hpp</text>
</a>
</g>
</g>
<!-- Node1&#45;&gt;Node2 -->
<g id="edge1" class="edge">
<title>Node1&#45;&gt;Node2</title>
<path fill="none" stroke="midnightblue" d="M618.27,-137.54C502.35,-125.75 230.92,-98.14 127.76,-87.65"/>
<polygon fill="midnightblue" stroke="midnightblue" points="128.04,-84.16 117.74,-86.63 127.33,-91.12 128.04,-84.16"/>
</g>
<!-- Node4 -->
<g id="node4" class="node">
<title>Node4</title>
<g id="a_node4"><a xlink:title=" ">
<polygon fill="none" stroke="#bfbfbf" points="114,-6 114,-25 266,-25 266,-6 114,-6"/>
<text text-anchor="middle" x="190" y="-13" font-family="Helvetica,sans-Serif" font-size="10.00">Builder/GameObjectBuilder.hpp</text>
</a>
</g>
</g>
<!-- Node1&#45;&gt;Node4 -->
<g id="edge3" class="edge">
<title>Node1&#45;&gt;Node4</title>
<path fill="none" stroke="midnightblue" d="M618.47,-136.33C566.27,-129.18 484.9,-116.33 416,-98 343.98,-78.84 262.4,-46.72 219.69,-29.07"/>
<polygon fill="midnightblue" stroke="midnightblue" points="220.77,-25.73 210.19,-25.12 218.08,-32.19 220.77,-25.73"/>
</g>
<!-- Node5 -->
<g id="node5" class="node">
<title>Node5</title>
<g id="a_node5"><a xlink:title=" ">
<polygon fill="none" stroke="#bfbfbf" points="284.5,-6 284.5,-25 409.5,-25 409.5,-6 284.5,-6"/>
<text text-anchor="middle" x="347" y="-13" font-family="Helvetica,sans-Serif" font-size="10.00">Builder/SceneBuilder.hpp</text>
</a>
</g>
</g>
<!-- Node1&#45;&gt;Node5 -->
<g id="edge4" class="edge">
<title>Node1&#45;&gt;Node5</title>
<path fill="none" stroke="midnightblue" d="M618.35,-135.97C577.61,-129.41 520.81,-117.63 474,-98 432.44,-80.57 389.39,-49.77 365.62,-31.43"/>
<polygon fill="midnightblue" stroke="midnightblue" points="367.52,-28.48 357.49,-25.07 363.21,-33.99 367.52,-28.48"/>
</g>
<!-- Node6 -->
<g id="node6" class="node">
<title>Node6</title>
<g id="a_node6"><a xlink:href="TileConfig_8hpp.html" target="_top" xlink:title=" ">
<polygon fill="none" stroke="black" points="483.5,-73 483.5,-92 560.5,-92 560.5,-73 483.5,-73"/>
<text text-anchor="middle" x="522" y="-80" font-family="Helvetica,sans-Serif" font-size="10.00">TileConfig.hpp</text>
</a>
</g>
</g>
<!-- Node1&#45;&gt;Node6 -->
<g id="edge5" class="edge">
<title>Node1&#45;&gt;Node6</title>
<path fill="none" stroke="midnightblue" d="M650.51,-134.48C624.89,-124.31 581.89,-107.26 552.76,-95.7"/>
<polygon fill="midnightblue" stroke="midnightblue" points="554.04,-92.44 543.45,-92.01 551.46,-98.95 554.04,-92.44"/>
</g>
<!-- Node11 -->
<g id="node11" class="node">
<title>Node11</title>
<g id="a_node11"><a xlink:title=" ">
<polygon fill="none" stroke="#bfbfbf" points="591.5,-73 591.5,-92 752.5,-92 752.5,-73 591.5,-73"/>
<text text-anchor="middle" x="672" y="-80" font-family="Helvetica,sans-Serif" font-size="10.00">Behaviour/CollisionBehaviour.hpp</text>
</a>
</g>
</g>
<!-- Node1&#45;&gt;Node11 -->
<g id="edge12" class="edge">
<title>Node1&#45;&gt;Node11</title>
<path fill="none" stroke="midnightblue" d="M672,-134.48C672,-126.08 672,-112.98 672,-102.16"/>
<polygon fill="midnightblue" stroke="midnightblue" points="675.5,-102.01 672,-92.01 668.5,-102.01 675.5,-102.01"/>
</g>
<!-- Node12 -->
<g id="node12" class="node">
<title>Node12</title>
<g id="a_node12"><a xlink:href="PlayerInputBehaviour_8hpp.html" target="_top" xlink:title=" ">
<polygon fill="none" stroke="black" points="932.5,-73 932.5,-92 1093.5,-92 1093.5,-73 932.5,-73"/>
<text text-anchor="middle" x="1013" y="-80" font-family="Helvetica,sans-Serif" font-size="10.00">Scripts/PlayerInputBehaviour.hpp</text>
</a>
</g>
</g>
<!-- Node1&#45;&gt;Node12 -->
<g id="edge13" class="edge">
<title>Node1&#45;&gt;Node12</title>
<path fill="none" stroke="midnightblue" d="M720.86,-134.48C782.39,-123.74 888.03,-105.31 954,-93.79"/>
<polygon fill="midnightblue" stroke="midnightblue" points="954.98,-97.18 964.23,-92.01 953.78,-90.28 954.98,-97.18"/>
</g>
<!-- Node16 -->
<g id="node16" class="node">
<title>Node16</title>
<g id="a_node16"><a xlink:href="DynamicAnimationBehaviour_8hpp.html" target="_top" xlink:title=" ">
<polygon fill="none" stroke="black" points="783.5,-67.5 783.5,-97.5 914.5,-97.5 914.5,-67.5 783.5,-67.5"/>
<text text-anchor="start" x="791.5" y="-85.5" font-family="Helvetica,sans-Serif" font-size="10.00">Scripts/DynamicAnimation</text>
<text text-anchor="middle" x="849" y="-74.5" font-family="Helvetica,sans-Serif" font-size="10.00">Behaviour.hpp</text>
</a>
</g>
</g>
<!-- Node1&#45;&gt;Node16 -->
<g id="edge17" class="edge">
<title>Node1&#45;&gt;Node16</title>
<path fill="none" stroke="midnightblue" d="M697.36,-134.48C723.46,-125.7 764.85,-111.79 797.8,-100.71"/>
<polygon fill="midnightblue" stroke="midnightblue" points="798.92,-104.03 807.28,-97.52 796.69,-97.39 798.92,-104.03"/>
</g>
<!-- Node18 -->
<g id="node18" class="node">
<title>Node18</title>
<g id="a_node18"><a xlink:href="NetworkingServer_8hpp.html" target="_top" xlink:title=" ">
<polygon fill="none" stroke="black" points="1290.5,-73 1290.5,-92 1455.5,-92 1455.5,-73 1290.5,-73"/>
<text text-anchor="middle" x="1373" y="-80" font-family="Helvetica,sans-Serif" font-size="10.00">Networking/NetworkingServer.hpp</text>
</a>
</g>
</g>
<!-- Node1&#45;&gt;Node18 -->
<g id="edge20" class="edge">
<title>Node1&#45;&gt;Node18</title>
<path fill="none" stroke="midnightblue" d="M725.91,-140.51C832.3,-135.28 1076.69,-121.61 1281,-98 1291.7,-96.76 1303.06,-95.19 1314.01,-93.54"/>
<polygon fill="midnightblue" stroke="midnightblue" points="1314.58,-96.99 1323.92,-92 1313.51,-90.07 1314.58,-96.99"/>
</g>
<!-- Node20 -->
<g id="node20" class="node">
<title>Node20</title>
<g id="a_node20"><a xlink:href="NetworkingClient_8hpp.html" target="_top" xlink:title=" ">
<polygon fill="none" stroke="black" points="1111.5,-73 1111.5,-92 1272.5,-92 1272.5,-73 1111.5,-73"/>
<text text-anchor="middle" x="1192" y="-80" font-family="Helvetica,sans-Serif" font-size="10.00">Networking/NetworkingClient.hpp</text>
</a>
</g>
</g>
<!-- Node1&#45;&gt;Node20 -->
<g id="edge22" class="edge">
<title>Node1&#45;&gt;Node20</title>
<path fill="none" stroke="midnightblue" d="M725.74,-138.34C807.25,-131.06 966.95,-115.93 1102,-98 1111.77,-96.7 1122.1,-95.18 1132.16,-93.62"/>
<polygon fill="midnightblue" stroke="midnightblue" points="1132.76,-97.07 1142.09,-92.05 1131.66,-90.15 1132.76,-97.07"/>
</g>
<!-- Node3 -->
<g id="node3" class="node">
<title>Node3</title>
<g id="a_node3"><a xlink:title=" ">
<polygon fill="none" stroke="#bfbfbf" points="0,-6 0,-25 96,-25 96,-6 0,-6"/>
<text text-anchor="middle" x="48" y="-13" font-family="Helvetica,sans-Serif" font-size="10.00">Engine/Engine.hpp</text>
</a>
</g>
</g>
<!-- Node2&#45;&gt;Node3 -->
<g id="edge2" class="edge">
<title>Node2&#45;&gt;Node3</title>
<path fill="none" stroke="midnightblue" d="M81.74,-72.73C75.78,-62.79 65.9,-46.34 58.37,-33.79"/>
<polygon fill="midnightblue" stroke="midnightblue" points="61.32,-31.9 53.18,-25.13 55.32,-35.5 61.32,-31.9"/>
</g>
<!-- Node6&#45;&gt;Node4 -->
<g id="edge9" class="edge">
<title>Node6&#45;&gt;Node4</title>
<path fill="none" stroke="midnightblue" d="M483.27,-73.92C423.96,-62.31 310.5,-40.09 243.42,-26.96"/>
<polygon fill="midnightblue" stroke="midnightblue" points="243.96,-23.5 233.47,-25.01 242.61,-30.37 243.96,-23.5"/>
</g>
<!-- Node6&#45;&gt;Node5 -->
<g id="edge10" class="edge">
<title>Node6&#45;&gt;Node5</title>
<path fill="none" stroke="midnightblue" d="M498.76,-72.87C468.21,-61.52 414.37,-41.52 379.72,-28.65"/>
<polygon fill="midnightblue" stroke="midnightblue" points="380.65,-25.26 370.06,-25.06 378.21,-31.83 380.65,-25.26"/>
</g>
<!-- Node7 -->
<g id="node7" class="node">
<title>Node7</title>
<g id="a_node7"><a xlink:title=" ">
<polygon fill="none" stroke="#bfbfbf" points="427.5,-6 427.5,-25 486.5,-25 486.5,-6 427.5,-6"/>
<text text-anchor="middle" x="457" y="-13" font-family="Helvetica,sans-Serif" font-size="10.00">functional</text>
</a>
</g>
</g>
<!-- Node6&#45;&gt;Node7 -->
<g id="edge6" class="edge">
<title>Node6&#45;&gt;Node7</title>
<path fill="none" stroke="midnightblue" d="M513.23,-72.73C502.9,-62.4 485.54,-45.04 472.83,-32.33"/>
<polygon fill="midnightblue" stroke="midnightblue" points="475.17,-29.72 465.63,-25.13 470.22,-34.67 475.17,-29.72"/>
</g>
<!-- Node8 -->
<g id="node8" class="node">
<title>Node8</title>
<g id="a_node8"><a xlink:title=" ">
<polygon fill="none" stroke="#bfbfbf" points="504.5,-6 504.5,-25 539.5,-25 539.5,-6 504.5,-6"/>
<text text-anchor="middle" x="522" y="-13" font-family="Helvetica,sans-Serif" font-size="10.00">map</text>
</a>
</g>
</g>
<!-- Node6&#45;&gt;Node8 -->
<g id="edge7" class="edge">
<title>Node6&#45;&gt;Node8</title>
<path fill="none" stroke="midnightblue" d="M522,-72.73C522,-63.18 522,-47.62 522,-35.28"/>
<polygon fill="midnightblue" stroke="midnightblue" points="525.5,-35.13 522,-25.13 518.5,-35.13 525.5,-35.13"/>
</g>
<!-- Node9 -->
<g id="node9" class="node">
<title>Node9</title>
<g id="a_node9"><a xlink:title=" ">
<polygon fill="none" stroke="#bfbfbf" points="557.5,-6 557.5,-25 608.5,-25 608.5,-6 557.5,-6"/>
<text text-anchor="middle" x="583" y="-13" font-family="Helvetica,sans-Serif" font-size="10.00">memory</text>
</a>
</g>
</g>
<!-- Node6&#45;&gt;Node9 -->
<g id="edge8" class="edge">
<title>Node6&#45;&gt;Node9</title>
<path fill="none" stroke="midnightblue" d="M530.23,-72.73C539.83,-62.5 555.91,-45.36 567.8,-32.69"/>
<polygon fill="midnightblue" stroke="midnightblue" points="570.61,-34.81 574.9,-25.13 565.51,-30.02 570.61,-34.81"/>
</g>
<!-- Node10 -->
<g id="node10" class="node">
<title>Node10</title>
<g id="a_node10"><a xlink:title=" ">
<polygon fill="none" stroke="#bfbfbf" points="627,-6 627,-25 787,-25 787,-6 627,-6"/>
<text text-anchor="middle" x="707" y="-13" font-family="Helvetica,sans-Serif" font-size="10.00">Director/GameObjectDirector.hpp</text>
</a>
</g>
</g>
<!-- Node6&#45;&gt;Node10 -->
<g id="edge11" class="edge">
<title>Node6&#45;&gt;Node10</title>
<path fill="none" stroke="midnightblue" d="M546.57,-72.87C579,-61.47 636.27,-41.35 672.88,-28.49"/>
<polygon fill="midnightblue" stroke="midnightblue" points="674.35,-31.68 682.63,-25.06 672.03,-25.08 674.35,-31.68"/>
</g>
<!-- Node13 -->
<g id="node13" class="node">
<title>Node13</title>
<g id="a_node13"><a xlink:title=" ">
<polygon fill="none" stroke="#bfbfbf" points="961,-6 961,-25 1065,-25 1065,-6 961,-6"/>
<text text-anchor="middle" x="1013" y="-13" font-family="Helvetica,sans-Serif" font-size="10.00">BehaviourScript.hpp</text>
</a>
</g>
</g>
<!-- Node12&#45;&gt;Node13 -->
<g id="edge14" class="edge">
<title>Node12&#45;&gt;Node13</title>
<path fill="none" stroke="midnightblue" d="M1013,-72.73C1013,-63.18 1013,-47.62 1013,-35.28"/>
<polygon fill="midnightblue" stroke="midnightblue" points="1016.5,-35.13 1013,-25.13 1009.5,-35.13 1016.5,-35.13"/>
</g>
<!-- Node14 -->
<g id="node14" class="node">
<title>Node14</title>
<g id="a_node14"><a xlink:title=" ">
<polygon fill="none" stroke="#bfbfbf" points="1083.5,-0.5 1083.5,-30.5 1178.5,-30.5 1178.5,-0.5 1083.5,-0.5"/>
<text text-anchor="start" x="1091.5" y="-18.5" font-family="Helvetica,sans-Serif" font-size="10.00">boost/serialization</text>
<text text-anchor="middle" x="1131" y="-7.5" font-family="Helvetica,sans-Serif" font-size="10.00">/access.hpp</text>
</a>
</g>
</g>
<!-- Node12&#45;&gt;Node14 -->
<g id="edge15" class="edge">
<title>Node12&#45;&gt;Node14</title>
<path fill="none" stroke="midnightblue" d="M1028.91,-72.73C1046.16,-63.23 1074.22,-47.78 1096.56,-35.47"/>
<polygon fill="midnightblue" stroke="midnightblue" points="1098.35,-38.48 1105.42,-30.59 1094.98,-32.35 1098.35,-38.48"/>
</g>
<!-- Node15 -->
<g id="node15" class="node">
<title>Node15</title>
<g id="a_node15"><a xlink:title=" ">
<polygon fill="none" stroke="#bfbfbf" points="1196.5,-0.5 1196.5,-30.5 1291.5,-30.5 1291.5,-0.5 1196.5,-0.5"/>
<text text-anchor="start" x="1204.5" y="-18.5" font-family="Helvetica,sans-Serif" font-size="10.00">boost/serialization</text>
<text text-anchor="middle" x="1244" y="-7.5" font-family="Helvetica,sans-Serif" font-size="10.00">/export.hpp</text>
</a>
</g>
</g>
<!-- Node12&#45;&gt;Node15 -->
<g id="edge16" class="edge">
<title>Node12&#45;&gt;Node15</title>
<path fill="none" stroke="midnightblue" d="M1043.68,-72.87C1080.03,-62.64 1141.39,-45.37 1186.64,-32.64"/>
<polygon fill="midnightblue" stroke="midnightblue" points="1187.64,-35.99 1196.32,-29.92 1185.75,-29.26 1187.64,-35.99"/>
</g>
<!-- Node16&#45;&gt;Node13 -->
<g id="edge18" class="edge">
<title>Node16&#45;&gt;Node13</title>
<path fill="none" stroke="midnightblue" d="M884.59,-67.4C913.62,-55.89 954.22,-39.8 981.95,-28.81"/>
<polygon fill="midnightblue" stroke="midnightblue" points="983.53,-31.95 991.54,-25.01 980.95,-25.44 983.53,-31.95"/>
</g>
<!-- Node17 -->
<g id="node17" class="node">
<title>Node17</title>
<g id="a_node17"><a xlink:title=" ">
<polygon fill="none" stroke="#bfbfbf" points="805.5,-6 805.5,-25 942.5,-25 942.5,-6 805.5,-6"/>
<text text-anchor="middle" x="874" y="-13" font-family="Helvetica,sans-Serif" font-size="10.00">Texture/AnimatedSprite.hpp</text>
</a>
</g>
</g>
<!-- Node16&#45;&gt;Node17 -->
<g id="edge19" class="edge">
<title>Node16&#45;&gt;Node17</title>
<path fill="none" stroke="midnightblue" d="M854.42,-67.4C858.13,-57.76 863.07,-44.91 867.06,-34.54"/>
<polygon fill="midnightblue" stroke="midnightblue" points="870.33,-35.78 870.66,-25.19 863.8,-33.27 870.33,-35.78"/>
</g>
<!-- Node19 -->
<g id="node19" class="node">
<title>Node19</title>
<g id="a_node19"><a xlink:title=" ">
<polygon fill="none" stroke="#bfbfbf" points="1331.5,-6 1331.5,-25 1372.5,-25 1372.5,-6 1331.5,-6"/>
<text text-anchor="middle" x="1352" y="-13" font-family="Helvetica,sans-Serif" font-size="10.00">string</text>
</a>
</g>
</g>
<!-- Node18&#45;&gt;Node19 -->
<g id="edge21" class="edge">
<title>Node18&#45;&gt;Node19</title>
<path fill="none" stroke="midnightblue" d="M1370.17,-72.73C1367.05,-63.09 1361.95,-47.3 1357.95,-34.91"/>
<polygon fill="midnightblue" stroke="midnightblue" points="1361.19,-33.57 1354.79,-25.13 1354.53,-35.72 1361.19,-33.57"/>
</g>
<!-- Node20&#45;&gt;Node19 -->
<g id="edge23" class="edge">
<title>Node20&#45;&gt;Node19</title>
<path fill="none" stroke="midnightblue" d="M1213.25,-72.87C1241.09,-61.56 1290.1,-41.65 1321.79,-28.77"/>
<polygon fill="midnightblue" stroke="midnightblue" points="1323.48,-31.86 1331.43,-24.86 1320.84,-25.38 1323.48,-31.86"/>
</g>
</g>
</svg>
