<?xml version="1.0" encoding="UTF-8" standalone="no"?>
<!DOCTYPE svg PUBLIC "-//W3C//DTD SVG 1.1//EN"
 "http://www.w3.org/Graphics/SVG/1.1/DTD/svg11.dtd">
<!-- Generated by graphviz version 2.44.0 ()
 -->
<!-- Title: src/Game/Game.cpp Pages: 1 -->
<svg width="1861pt" height="274pt"
 viewBox="0.00 0.00 1861.00 274.00" xmlns="http://www.w3.org/2000/svg" xmlns:xlink="http://www.w3.org/1999/xlink">
<g id="graph0" class="graph" transform="scale(1 1) rotate(0) translate(4 270)">
<title>src/Game/Game.cpp</title>
<!-- Node1 -->
<g id="node1" class="node">
<title>Node1</title>
<g id="a_node1"><a xlink:title=" ">
<polygon fill="#bfbfbf" stroke="black" points="944.5,-246.5 944.5,-265.5 1051.5,-265.5 1051.5,-246.5 944.5,-246.5"/>
<text text-anchor="middle" x="998" y="-253.5" font-family="Helvetica,sans-Serif" font-size="10.00">src/Game/Game.cpp</text>
</a>
</g>
</g>
<!-- Node2 -->
<g id="node2" class="node">
<title>Node2</title>
<g id="a_node2"><a xlink:href="Game_8hpp.html" target="_top" xlink:title=" ">
<polygon fill="none" stroke="black" points="78.5,-185 78.5,-204 139.5,-204 139.5,-185 78.5,-185"/>
<text text-anchor="middle" x="109" y="-192" font-family="Helvetica,sans-Serif" font-size="10.00">Game.hpp</text>
</a>
</g>
</g>
<!-- Node1&#45;&gt;Node2 -->
<g id="edge1" class="edge">
<title>Node1&#45;&gt;Node2</title>
<path fill="none" stroke="midnightblue" d="M944.39,-251.41C781.42,-240.5 294.2,-207.9 149.78,-198.23"/>
<polygon fill="midnightblue" stroke="midnightblue" points="149.8,-194.72 139.59,-197.55 149.33,-201.71 149.8,-194.72"/>
</g>
<!-- Node4 -->
<g id="node4" class="node">
<title>Node4</title>
<g id="a_node4"><a xlink:title=" ">
<polygon fill="none" stroke="#bfbfbf" points="114,-123.5 114,-142.5 266,-142.5 266,-123.5 114,-123.5"/>
<text text-anchor="middle" x="190" y="-130.5" font-family="Helvetica,sans-Serif" font-size="10.00">Builder/GameObjectBuilder.hpp</text>
</a>
</g>
</g>
<!-- Node1&#45;&gt;Node4 -->
<g id="edge3" class="edge">
<title>Node1&#45;&gt;Node4</title>
<path fill="none" stroke="midnightblue" d="M944.47,-252.49C854.62,-247.73 667.96,-235.5 512,-210 409.11,-193.18 290.26,-162.01 229.8,-145.29"/>
<polygon fill="midnightblue" stroke="midnightblue" points="230.48,-141.85 219.91,-142.54 228.6,-148.59 230.48,-141.85"/>
</g>
<!-- Node5 -->
<g id="node5" class="node">
<title>Node5</title>
<g id="a_node5"><a xlink:title=" ">
<polygon fill="none" stroke="#bfbfbf" points="284.5,-123.5 284.5,-142.5 409.5,-142.5 409.5,-123.5 284.5,-123.5"/>
<text text-anchor="middle" x="347" y="-130.5" font-family="Helvetica,sans-Serif" font-size="10.00">Builder/SceneBuilder.hpp</text>
</a>
</g>
</g>
<!-- Node1&#45;&gt;Node5 -->
<g id="edge4" class="edge">
<title>Node1&#45;&gt;Node5</title>
<path fill="none" stroke="midnightblue" d="M944.32,-250.11C875.36,-243.37 752.13,-229.77 648,-210 552.84,-191.94 442.95,-161.78 385.91,-145.41"/>
<polygon fill="midnightblue" stroke="midnightblue" points="386.8,-142.03 376.22,-142.62 384.86,-148.75 386.8,-142.03"/>
</g>
<!-- Node6 -->
<g id="node6" class="node">
<title>Node6</title>
<g id="a_node6"><a xlink:href="TileConfig_8hpp.html" target="_top" xlink:title=" ">
<polygon fill="none" stroke="black" points="657.5,-185 657.5,-204 734.5,-204 734.5,-185 657.5,-185"/>
<text text-anchor="middle" x="696" y="-192" font-family="Helvetica,sans-Serif" font-size="10.00">TileConfig.hpp</text>
</a>
</g>
</g>
<!-- Node1&#45;&gt;Node6 -->
<g id="edge5" class="edge">
<title>Node1&#45;&gt;Node6</title>
<path fill="none" stroke="midnightblue" d="M954.73,-246.48C899.19,-235.53 803.07,-216.59 744.92,-205.14"/>
<polygon fill="midnightblue" stroke="midnightblue" points="745.36,-201.66 734.88,-203.16 744.01,-208.53 745.36,-201.66"/>
</g>
<!-- Node23 -->
<g id="node23" class="node">
<title>Node23</title>
<g id="a_node23"><a xlink:title=" ">
<polygon fill="none" stroke="#bfbfbf" points="1026.5,-185 1026.5,-204 1187.5,-204 1187.5,-185 1026.5,-185"/>
<text text-anchor="middle" x="1107" y="-192" font-family="Helvetica,sans-Serif" font-size="10.00">Behaviour/CollisionBehaviour.hpp</text>
</a>
</g>
</g>
<!-- Node1&#45;&gt;Node23 -->
<g id="edge29" class="edge">
<title>Node1&#45;&gt;Node23</title>
<path fill="none" stroke="midnightblue" d="M1013.62,-246.48C1031.59,-236.67 1061.32,-220.43 1082.41,-208.92"/>
<polygon fill="midnightblue" stroke="midnightblue" points="1084.31,-211.87 1091.41,-204.01 1080.96,-205.73 1084.31,-211.87"/>
</g>
<!-- Node24 -->
<g id="node24" class="node">
<title>Node24</title>
<g id="a_node24"><a xlink:href="PlayerInputBehaviour_8hpp.html" target="_top" xlink:title=" ">
<polygon fill="none" stroke="black" points="1267.5,-123.5 1267.5,-142.5 1428.5,-142.5 1428.5,-123.5 1267.5,-123.5"/>
<text text-anchor="middle" x="1348" y="-130.5" font-family="Helvetica,sans-Serif" font-size="10.00">Scripts/PlayerInputBehaviour.hpp</text>
</a>
</g>
</g>
<!-- Node1&#45;&gt;Node24 -->
<g id="edge30" class="edge">
<title>Node1&#45;&gt;Node24</title>
<path fill="none" stroke="midnightblue" d="M997.32,-246.39C996.59,-230.46 997.55,-196.42 1017,-179 1026,-170.94 1163.59,-154.3 1258.52,-143.67"/>
<polygon fill="midnightblue" stroke="midnightblue" points="1259.16,-147.12 1268.71,-142.53 1258.39,-140.16 1259.16,-147.12"/>
</g>
<!-- Node25 -->
<g id="node25" class="node">
<title>Node25</title>
<g id="a_node25"><a xlink:href="DynamicAnimationBehaviour_8hpp.html" target="_top" xlink:title=" ">
<polygon fill="none" stroke="black" points="838.5,-179.5 838.5,-209.5 969.5,-209.5 969.5,-179.5 838.5,-179.5"/>
<text text-anchor="start" x="846.5" y="-197.5" font-family="Helvetica,sans-Serif" font-size="10.00">Scripts/DynamicAnimation</text>
<text text-anchor="middle" x="904" y="-186.5" font-family="Helvetica,sans-Serif" font-size="10.00">Behaviour.hpp</text>
</a>
</g>
</g>
<!-- Node1&#45;&gt;Node25 -->
<g id="edge34" class="edge">
<title>Node1&#45;&gt;Node25</title>
<path fill="none" stroke="midnightblue" d="M984.53,-246.48C971.56,-238.27 951.49,-225.56 934.62,-214.88"/>
<polygon fill="midnightblue" stroke="midnightblue" points="936.48,-211.91 926.15,-209.52 932.73,-217.83 936.48,-211.91"/>
</g>
<!-- Node27 -->
<g id="node27" class="node">
<title>Node27</title>
<g id="a_node27"><a xlink:href="NetworkingServer_8hpp.html" target="_top" xlink:title=" ">
<polygon fill="none" stroke="black" points="1384.5,-185 1384.5,-204 1549.5,-204 1549.5,-185 1384.5,-185"/>
<text text-anchor="middle" x="1467" y="-192" font-family="Helvetica,sans-Serif" font-size="10.00">Networking/NetworkingServer.hpp</text>
</a>
</g>
</g>
<!-- Node1&#45;&gt;Node27 -->
<g id="edge37" class="edge">
<title>Node1&#45;&gt;Node27</title>
<path fill="none" stroke="midnightblue" d="M1051.77,-249.22C1124.99,-241.21 1260.08,-225.91 1375,-210 1384.73,-208.65 1395.02,-207.13 1405.06,-205.59"/>
<polygon fill="midnightblue" stroke="midnightblue" points="1405.65,-209.04 1414.99,-204.05 1404.57,-202.12 1405.65,-209.04"/>
</g>
<!-- Node30 -->
<g id="node30" class="node">
<title>Node30</title>
<g id="a_node30"><a xlink:href="NetworkingClient_8hpp.html" target="_top" xlink:title=" ">
<polygon fill="none" stroke="black" points="1205.5,-185 1205.5,-204 1366.5,-204 1366.5,-185 1205.5,-185"/>
<text text-anchor="middle" x="1286" y="-192" font-family="Helvetica,sans-Serif" font-size="10.00">Networking/NetworkingClient.hpp</text>
</a>
</g>
</g>
<!-- Node1&#45;&gt;Node30 -->
<g id="edge40" class="edge">
<title>Node1&#45;&gt;Node30</title>
<path fill="none" stroke="midnightblue" d="M1039.26,-246.48C1090.8,-235.83 1178.98,-217.61 1234.79,-206.08"/>
<polygon fill="midnightblue" stroke="midnightblue" points="1235.73,-209.46 1244.81,-204.01 1234.31,-202.6 1235.73,-209.46"/>
</g>
<!-- Node31 -->
<g id="node31" class="node">
<title>Node31</title>
<g id="a_node31"><a xlink:href="Level1_8hpp.html" target="_top" xlink:title=" ">
<polygon fill="none" stroke="black" points="1757,-185 1757,-204 1853,-204 1853,-185 1757,-185"/>
<text text-anchor="middle" x="1805" y="-192" font-family="Helvetica,sans-Serif" font-size="10.00">Levels/Level1.hpp</text>
</a>
</g>
</g>
<!-- Node1&#45;&gt;Node31 -->
<g id="edge42" class="edge">
<title>Node1&#45;&gt;Node31</title>
<path fill="none" stroke="midnightblue" d="M1051.95,-255.17C1175.62,-254.81 1488.84,-249.68 1747,-210 1752.98,-209.08 1759.25,-207.83 1765.35,-206.44"/>
<polygon fill="midnightblue" stroke="midnightblue" points="1766.51,-209.76 1775.41,-204.02 1764.87,-202.96 1766.51,-209.76"/>
</g>
<!-- Node32 -->
<g id="node32" class="node">
<title>Node32</title>
<g id="a_node32"><a xlink:href="GameOverScene_8hpp.html" target="_top" xlink:title=" ">
<polygon fill="none" stroke="black" points="1567.5,-185 1567.5,-204 1738.5,-204 1738.5,-185 1567.5,-185"/>
<text text-anchor="middle" x="1653" y="-192" font-family="Helvetica,sans-Serif" font-size="10.00">Game/Levels/GameOverScene.hpp</text>
</a>
</g>
</g>
<!-- Node1&#45;&gt;Node32 -->
<g id="edge44" class="edge">
<title>Node1&#45;&gt;Node32</title>
<path fill="none" stroke="midnightblue" d="M1051.79,-251.96C1151.73,-246.02 1372.71,-231.56 1558,-210 1568.78,-208.75 1580.23,-207.19 1591.29,-205.57"/>
<polygon fill="midnightblue" stroke="midnightblue" points="1591.95,-209.01 1601.32,-204.07 1590.91,-202.09 1591.95,-209.01"/>
</g>
<!-- Node3 -->
<g id="node3" class="node">
<title>Node3</title>
<g id="a_node3"><a xlink:title=" ">
<polygon fill="none" stroke="#bfbfbf" points="0,-123.5 0,-142.5 96,-142.5 96,-123.5 0,-123.5"/>
<text text-anchor="middle" x="48" y="-130.5" font-family="Helvetica,sans-Serif" font-size="10.00">Engine/Engine.hpp</text>
</a>
</g>
</g>
<!-- Node2&#45;&gt;Node3 -->
<g id="edge2" class="edge">
<title>Node2&#45;&gt;Node3</title>
<path fill="none" stroke="midnightblue" d="M100.26,-184.98C90.84,-175.78 75.64,-160.96 64.05,-149.66"/>
<polygon fill="midnightblue" stroke="midnightblue" points="66.33,-146.99 56.72,-142.51 61.44,-152 66.33,-146.99"/>
</g>
<!-- Node6&#45;&gt;Node4 -->
<g id="edge9" class="edge">
<title>Node6&#45;&gt;Node4</title>
<path fill="none" stroke="midnightblue" d="M657.14,-188.93C575.22,-179.3 383.32,-156.73 272.64,-143.72"/>
<polygon fill="midnightblue" stroke="midnightblue" points="272.86,-140.22 262.52,-142.53 272.04,-147.17 272.86,-140.22"/>
</g>
<!-- Node6&#45;&gt;Node5 -->
<g id="edge10" class="edge">
<title>Node6&#45;&gt;Node5</title>
<path fill="none" stroke="midnightblue" d="M657.32,-186.91C596.76,-176.58 479.09,-156.52 407.33,-144.29"/>
<polygon fill="midnightblue" stroke="midnightblue" points="407.54,-140.77 397.09,-142.54 406.36,-147.67 407.54,-140.77"/>
</g>
<!-- Node7 -->
<g id="node7" class="node">
<title>Node7</title>
<g id="a_node7"><a xlink:title=" ">
<polygon fill="none" stroke="#bfbfbf" points="794.5,-123.5 794.5,-142.5 853.5,-142.5 853.5,-123.5 794.5,-123.5"/>
<text text-anchor="middle" x="824" y="-130.5" font-family="Helvetica,sans-Serif" font-size="10.00">functional</text>
</a>
</g>
</g>
<!-- Node6&#45;&gt;Node7 -->
<g id="edge6" class="edge">
<title>Node6&#45;&gt;Node7</title>
<path fill="none" stroke="midnightblue" d="M714.34,-184.98C735.82,-174.99 771.62,-158.35 796.45,-146.81"/>
<polygon fill="midnightblue" stroke="midnightblue" points="798.1,-149.9 805.69,-142.51 795.15,-143.55 798.1,-149.9"/>
</g>
<!-- Node8 -->
<g id="node8" class="node">
<title>Node8</title>
<g id="a_node8"><a xlink:title=" ">
<polygon fill="none" stroke="#bfbfbf" points="871.5,-123.5 871.5,-142.5 906.5,-142.5 906.5,-123.5 871.5,-123.5"/>
<text text-anchor="middle" x="889" y="-130.5" font-family="Helvetica,sans-Serif" font-size="10.00">map</text>
</a>
</g>
</g>
<!-- Node6&#45;&gt;Node8 -->
<g id="edge7" class="edge">
<title>Node6&#45;&gt;Node8</title>
<path fill="none" stroke="midnightblue" d="M724.86,-184.97C756.15,-175.67 807.79,-160.16 861.59,-143.07"/>
<polygon fill="midnightblue" stroke="midnightblue" points="862.84,-146.34 871.3,-139.97 860.71,-139.68 862.84,-146.34"/>
</g>
<!-- Node9 -->
<g id="node9" class="node">
<title>Node9</title>
<g id="a_node9"><a xlink:title=" ">
<polygon fill="none" stroke="#bfbfbf" points="412.5,-6 412.5,-25 463.5,-25 463.5,-6 412.5,-6"/>
<text text-anchor="middle" x="438" y="-13" font-family="Helvetica,sans-Serif" font-size="10.00">memory</text>
</a>
</g>
</g>
<!-- Node6&#45;&gt;Node9 -->
<g id="edge8" class="edge">
<title>Node6&#45;&gt;Node9</title>
<path fill="none" stroke="midnightblue" d="M657.26,-187.77C593.16,-177.94 470.67,-157.5 457,-143 429.54,-113.87 431.33,-63.05 434.79,-35.52"/>
<polygon fill="midnightblue" stroke="midnightblue" points="438.31,-35.68 436.3,-25.28 431.38,-34.67 438.31,-35.68"/>
</g>
<!-- Node10 -->
<g id="node10" class="node">
<title>Node10</title>
<g id="a_node10"><a xlink:title=" ">
<polygon fill="none" stroke="#bfbfbf" points="616,-123.5 616,-142.5 776,-142.5 776,-123.5 616,-123.5"/>
<text text-anchor="middle" x="696" y="-130.5" font-family="Helvetica,sans-Serif" font-size="10.00">Director/GameObjectDirector.hpp</text>
</a>
</g>
</g>
<!-- Node6&#45;&gt;Node10 -->
<g id="edge11" class="edge">
<title>Node6&#45;&gt;Node10</title>
<path fill="none" stroke="midnightblue" d="M696,-184.98C696,-176.58 696,-163.48 696,-152.66"/>
<polygon fill="midnightblue" stroke="midnightblue" points="699.5,-152.51 696,-142.51 692.5,-152.51 699.5,-152.51"/>
</g>
<!-- Node11 -->
<g id="node11" class="node">
<title>Node11</title>
<g id="a_node11"><a xlink:href="CoinBehaviour_8hpp.html" target="_top" xlink:title=" ">
<polygon fill="none" stroke="black" points="466.5,-123.5 466.5,-142.5 597.5,-142.5 597.5,-123.5 466.5,-123.5"/>
<text text-anchor="middle" x="532" y="-130.5" font-family="Helvetica,sans-Serif" font-size="10.00">Scripts/CoinBehaviour.hpp</text>
</a>
</g>
</g>
<!-- Node6&#45;&gt;Node11 -->
<g id="edge12" class="edge">
<title>Node6&#45;&gt;Node11</title>
<path fill="none" stroke="midnightblue" d="M672.5,-184.98C644.37,-174.77 597.07,-157.61 565.21,-146.05"/>
<polygon fill="midnightblue" stroke="midnightblue" points="566.05,-142.63 555.45,-142.51 563.66,-149.21 566.05,-142.63"/>
</g>
<!-- Node22 -->
<g id="node22" class="node">
<title>Node22</title>
<g id="a_node22"><a xlink:href="FlagBehaviour_8hpp.html" target="_top" xlink:title=" ">
<polygon fill="none" stroke="black" points="924.5,-123.5 924.5,-142.5 1055.5,-142.5 1055.5,-123.5 924.5,-123.5"/>
<text text-anchor="middle" x="990" y="-130.5" font-family="Helvetica,sans-Serif" font-size="10.00">Scripts/FlagBehaviour.hpp</text>
</a>
</g>
</g>
<!-- Node6&#45;&gt;Node22 -->
<g id="edge27" class="edge">
<title>Node6&#45;&gt;Node22</title>
<path fill="none" stroke="midnightblue" d="M734.74,-185.66C786.81,-175.12 879.55,-156.35 937.75,-144.57"/>
<polygon fill="midnightblue" stroke="midnightblue" points="938.74,-147.95 947.85,-142.53 937.35,-141.08 938.74,-147.95"/>
</g>
<!-- Node12 -->
<g id="node12" class="node">
<title>Node12</title>
<g id="a_node12"><a xlink:title=" ">
<polygon fill="none" stroke="#bfbfbf" points="985,-67.5 985,-86.5 1089,-86.5 1089,-67.5 985,-67.5"/>
<text text-anchor="middle" x="1037" y="-74.5" font-family="Helvetica,sans-Serif" font-size="10.00">BehaviourScript.hpp</text>
</a>
</g>
</g>
<!-- Node11&#45;&gt;Node12 -->
<g id="edge13" class="edge">
<title>Node11&#45;&gt;Node12</title>
<path fill="none" stroke="midnightblue" d="M597.84,-124.03C600.94,-123.67 604,-123.33 607,-123 766.39,-105.45 806.67,-105.08 966,-87 968.84,-86.68 971.73,-86.34 974.66,-86"/>
<polygon fill="midnightblue" stroke="midnightblue" points="975.16,-89.46 984.67,-84.79 974.33,-82.51 975.16,-89.46"/>
</g>
<!-- Node13 -->
<g id="node13" class="node">
<title>Node13</title>
<g id="a_node13"><a xlink:href="CoinCounter_8hpp.html" target="_top" xlink:title=" ">
<polygon fill="none" stroke="black" points="716.5,-67.5 716.5,-86.5 825.5,-86.5 825.5,-67.5 716.5,-67.5"/>
<text text-anchor="middle" x="771" y="-74.5" font-family="Helvetica,sans-Serif" font-size="10.00">../UI/CoinCounter.hpp</text>
</a>
</g>
</g>
<!-- Node11&#45;&gt;Node13 -->
<g id="edge14" class="edge">
<title>Node11&#45;&gt;Node13</title>
<path fill="none" stroke="midnightblue" d="M569.87,-123.44C611.48,-114.04 678.37,-98.93 723.47,-88.74"/>
<polygon fill="midnightblue" stroke="midnightblue" points="724.32,-92.13 733.31,-86.52 722.78,-85.31 724.32,-92.13"/>
</g>
<!-- Node14 -->
<g id="node14" class="node">
<title>Node14</title>
<g id="a_node14"><a xlink:title=" ">
<polygon fill="none" stroke="#bfbfbf" points="1217.5,-0.5 1217.5,-30.5 1312.5,-30.5 1312.5,-0.5 1217.5,-0.5"/>
<text text-anchor="start" x="1225.5" y="-18.5" font-family="Helvetica,sans-Serif" font-size="10.00">boost/serialization</text>
<text text-anchor="middle" x="1265" y="-7.5" font-family="Helvetica,sans-Serif" font-size="10.00">/access.hpp</text>
</a>
</g>
</g>
<!-- Node11&#45;&gt;Node14 -->
<g id="edge24" class="edge">
<title>Node11&#45;&gt;Node14</title>
<path fill="none" stroke="midnightblue" d="M597.67,-124.06C701.25,-111.52 891.67,-88.4 899,-87 933.73,-80.39 941.38,-74.16 976,-67 1075.09,-46.5 1104.03,-51.55 1207.57,-30.95"/>
<polygon fill="midnightblue" stroke="midnightblue" points="1208.38,-34.36 1217.49,-28.95 1207,-27.5 1208.38,-34.36"/>
</g>
<!-- Node15 -->
<g id="node15" class="node">
<title>Node15</title>
<g id="a_node15"><a xlink:title=" ">
<polygon fill="none" stroke="#bfbfbf" points="1104.5,-0.5 1104.5,-30.5 1199.5,-30.5 1199.5,-0.5 1104.5,-0.5"/>
<text text-anchor="start" x="1112.5" y="-18.5" font-family="Helvetica,sans-Serif" font-size="10.00">boost/serialization</text>
<text text-anchor="middle" x="1152" y="-7.5" font-family="Helvetica,sans-Serif" font-size="10.00">/export.hpp</text>
</a>
</g>
</g>
<!-- Node11&#45;&gt;Node15 -->
<g id="edge25" class="edge">
<title>Node11&#45;&gt;Node15</title>
<path fill="none" stroke="midnightblue" d="M597.29,-123.49C658.59,-115.21 752.77,-101.75 834,-87 947.54,-66.38 977.85,-58.51 1094.41,-31.1"/>
<polygon fill="midnightblue" stroke="midnightblue" points="1095.51,-34.43 1104.45,-28.74 1093.91,-27.62 1095.51,-34.43"/>
</g>
<!-- Node16 -->
<g id="node16" class="node">
<title>Node16</title>
<g id="a_node16"><a xlink:title=" ">
<polygon fill="none" stroke="#bfbfbf" points="481.5,-0.5 481.5,-30.5 576.5,-30.5 576.5,-0.5 481.5,-0.5"/>
<text text-anchor="start" x="489.5" y="-18.5" font-family="Helvetica,sans-Serif" font-size="10.00">boost/serialization</text>
<text text-anchor="middle" x="529" y="-7.5" font-family="Helvetica,sans-Serif" font-size="10.00">/shared_ptr.hpp</text>
</a>
</g>
</g>
<!-- Node11&#45;&gt;Node16 -->
<g id="edge26" class="edge">
<title>Node11&#45;&gt;Node16</title>
<path fill="none" stroke="midnightblue" d="M531.77,-123.32C531.32,-105.97 530.3,-66.46 529.63,-40.66"/>
<polygon fill="midnightblue" stroke="midnightblue" points="533.12,-40.45 529.36,-30.55 526.13,-40.63 533.12,-40.45"/>
</g>
<!-- Node13&#45;&gt;Node9 -->
<g id="edge15" class="edge">
<title>Node13&#45;&gt;Node9</title>
<path fill="none" stroke="midnightblue" d="M716.38,-71.96C655.76,-66.53 555.46,-54.66 472,-31 469.71,-30.35 467.37,-29.58 465.04,-28.75"/>
<polygon fill="midnightblue" stroke="midnightblue" points="466.28,-25.48 455.69,-25.05 463.7,-31.98 466.28,-25.48"/>
</g>
<!-- Node13&#45;&gt;Node14 -->
<g id="edge16" class="edge">
<title>Node13&#45;&gt;Node14</title>
<path fill="none" stroke="midnightblue" d="M825.52,-72.96C906.62,-67.87 1063.92,-55.83 1206.95,-31.01"/>
<polygon fill="midnightblue" stroke="midnightblue" points="1207.98,-34.38 1217.22,-29.2 1206.76,-27.48 1207.98,-34.38"/>
</g>
<!-- Node13&#45;&gt;Node15 -->
<g id="edge17" class="edge">
<title>Node13&#45;&gt;Node15</title>
<path fill="none" stroke="midnightblue" d="M825.77,-70.27C888.36,-63.31 994.01,-50.28 1094.2,-31.02"/>
<polygon fill="midnightblue" stroke="midnightblue" points="1095.05,-34.42 1104.19,-29.07 1093.71,-27.55 1095.05,-34.42"/>
</g>
<!-- Node13&#45;&gt;Node16 -->
<g id="edge18" class="edge">
<title>Node13&#45;&gt;Node16</title>
<path fill="none" stroke="midnightblue" d="M735.51,-67.48C700.28,-59.01 644.49,-45.51 586.63,-31.14"/>
<polygon fill="midnightblue" stroke="midnightblue" points="587.13,-27.66 576.58,-28.64 585.44,-34.45 587.13,-27.66"/>
</g>
<!-- Node17 -->
<g id="node17" class="node">
<title>Node17</title>
<g id="a_node17"><a xlink:title=" ">
<polygon fill="none" stroke="#bfbfbf" points="595,-0.5 595,-30.5 699,-30.5 699,-0.5 595,-0.5"/>
<text text-anchor="start" x="603" y="-18.5" font-family="Helvetica,sans-Serif" font-size="10.00">boost/archive/binary</text>
<text text-anchor="middle" x="647" y="-7.5" font-family="Helvetica,sans-Serif" font-size="10.00">_iarchive.hpp</text>
</a>
</g>
</g>
<!-- Node13&#45;&gt;Node17 -->
<g id="edge19" class="edge">
<title>Node13&#45;&gt;Node17</title>
<path fill="none" stroke="midnightblue" d="M753.23,-67.48C735.58,-59 707.93,-45.74 685.27,-34.86"/>
<polygon fill="midnightblue" stroke="midnightblue" points="686.75,-31.69 676.22,-30.52 683.73,-38 686.75,-31.69"/>
</g>
<!-- Node18 -->
<g id="node18" class="node">
<title>Node18</title>
<g id="a_node18"><a xlink:title=" ">
<polygon fill="none" stroke="#bfbfbf" points="717,-0.5 717,-30.5 821,-30.5 821,-0.5 717,-0.5"/>
<text text-anchor="start" x="725" y="-18.5" font-family="Helvetica,sans-Serif" font-size="10.00">boost/archive/binary</text>
<text text-anchor="middle" x="769" y="-7.5" font-family="Helvetica,sans-Serif" font-size="10.00">_oarchive.hpp</text>
</a>
</g>
</g>
<!-- Node13&#45;&gt;Node18 -->
<g id="edge20" class="edge">
<title>Node13&#45;&gt;Node18</title>
<path fill="none" stroke="midnightblue" d="M770.71,-67.48C770.48,-60.47 770.13,-50.19 769.81,-40.7"/>
<polygon fill="midnightblue" stroke="midnightblue" points="773.31,-40.4 769.47,-30.52 766.31,-40.63 773.31,-40.4"/>
</g>
<!-- Node19 -->
<g id="node19" class="node">
<title>Node19</title>
<g id="a_node19"><a xlink:title=" ">
<polygon fill="none" stroke="#bfbfbf" points="839.5,-6 839.5,-25 896.5,-25 896.5,-6 839.5,-6"/>
<text text-anchor="middle" x="868" y="-13" font-family="Helvetica,sans-Serif" font-size="10.00">Color.hpp</text>
</a>
</g>
</g>
<!-- Node13&#45;&gt;Node19 -->
<g id="edge21" class="edge">
<title>Node13&#45;&gt;Node19</title>
<path fill="none" stroke="midnightblue" d="M784.9,-67.48C800.67,-57.8 826.64,-41.87 845.35,-30.39"/>
<polygon fill="midnightblue" stroke="midnightblue" points="847.43,-33.22 854.13,-25.01 843.77,-27.25 847.43,-33.22"/>
</g>
<!-- Node20 -->
<g id="node20" class="node">
<title>Node20</title>
<g id="a_node20"><a xlink:title=" ">
<polygon fill="none" stroke="#bfbfbf" points="914.5,-6 914.5,-25 993.5,-25 993.5,-6 914.5,-6"/>
<text text-anchor="middle" x="954" y="-13" font-family="Helvetica,sans-Serif" font-size="10.00">Transform.hpp</text>
</a>
</g>
</g>
<!-- Node13&#45;&gt;Node20 -->
<g id="edge22" class="edge">
<title>Node13&#45;&gt;Node20</title>
<path fill="none" stroke="midnightblue" d="M797.22,-67.48C829.02,-57.14 882.77,-39.66 918.32,-28.1"/>
<polygon fill="midnightblue" stroke="midnightblue" points="919.4,-31.43 927.83,-25.01 917.24,-24.77 919.4,-31.43"/>
</g>
<!-- Node21 -->
<g id="node21" class="node">
<title>Node21</title>
<g id="a_node21"><a xlink:title=" ">
<polygon fill="none" stroke="#bfbfbf" points="1012,-6 1012,-25 1086,-25 1086,-6 1012,-6"/>
<text text-anchor="middle" x="1049" y="-13" font-family="Helvetica,sans-Serif" font-size="10.00">UIObject.hpp</text>
</a>
</g>
</g>
<!-- Node13&#45;&gt;Node21 -->
<g id="edge23" class="edge">
<title>Node13&#45;&gt;Node21</title>
<path fill="none" stroke="midnightblue" d="M823.19,-67.47C870.24,-59.4 941.17,-46.26 1002,-31 1005.61,-30.09 1009.35,-29.08 1013.07,-28.01"/>
<polygon fill="midnightblue" stroke="midnightblue" points="1014.2,-31.33 1022.79,-25.13 1012.21,-24.62 1014.2,-31.33"/>
</g>
<!-- Node22&#45;&gt;Node12 -->
<g id="edge28" class="edge">
<title>Node22&#45;&gt;Node12</title>
<path fill="none" stroke="midnightblue" d="M997.76,-123.08C1004.54,-115.3 1014.54,-103.8 1022.76,-94.37"/>
<polygon fill="midnightblue" stroke="midnightblue" points="1025.46,-96.59 1029.38,-86.75 1020.18,-92 1025.46,-96.59"/>
</g>
<!-- Node24&#45;&gt;Node12 -->
<g id="edge31" class="edge">
<title>Node24&#45;&gt;Node12</title>
<path fill="none" stroke="midnightblue" d="M1298.72,-123.44C1243.67,-113.89 1154.6,-98.42 1095.92,-88.23"/>
<polygon fill="midnightblue" stroke="midnightblue" points="1096.5,-84.78 1086.05,-86.52 1095.3,-91.68 1096.5,-84.78"/>
</g>
<!-- Node24&#45;&gt;Node14 -->
<g id="edge32" class="edge">
<title>Node24&#45;&gt;Node14</title>
<path fill="none" stroke="midnightblue" d="M1341.76,-123.32C1329.01,-105.58 1299.62,-64.68 1281.13,-38.95"/>
<polygon fill="midnightblue" stroke="midnightblue" points="1283.77,-36.62 1275.09,-30.55 1278.09,-40.71 1283.77,-36.62"/>
</g>
<!-- Node24&#45;&gt;Node15 -->
<g id="edge33" class="edge">
<title>Node24&#45;&gt;Node15</title>
<path fill="none" stroke="midnightblue" d="M1333.27,-123.32C1301.85,-104.8 1227.63,-61.07 1184.53,-35.67"/>
<polygon fill="midnightblue" stroke="midnightblue" points="1186.23,-32.61 1175.83,-30.55 1182.67,-38.64 1186.23,-32.61"/>
</g>
<!-- Node25&#45;&gt;Node12 -->
<g id="edge35" class="edge">
<title>Node25&#45;&gt;Node12</title>
<path fill="none" stroke="midnightblue" d="M969.65,-180.95C1008.52,-172.03 1052.38,-158.86 1064,-143 1074.89,-128.15 1063.6,-108.25 1052.47,-94.4"/>
<polygon fill="midnightblue" stroke="midnightblue" points="1054.95,-91.92 1045.76,-86.66 1049.66,-96.51 1054.95,-91.92"/>
</g>
<!-- Node26 -->
<g id="node26" class="node">
<title>Node26</title>
<g id="a_node26"><a xlink:title=" ">
<polygon fill="none" stroke="#bfbfbf" points="1112.5,-123.5 1112.5,-142.5 1249.5,-142.5 1249.5,-123.5 1112.5,-123.5"/>
<text text-anchor="middle" x="1181" y="-130.5" font-family="Helvetica,sans-Serif" font-size="10.00">Texture/AnimatedSprite.hpp</text>
</a>
</g>
</g>
<!-- Node25&#45;&gt;Node26 -->
<g id="edge36" class="edge">
<title>Node25&#45;&gt;Node26</title>
<path fill="none" stroke="midnightblue" d="M969.29,-179.47C1018.96,-168.81 1086.25,-154.35 1131.52,-144.63"/>
<polygon fill="midnightblue" stroke="midnightblue" points="1132.36,-148.03 1141.4,-142.51 1130.89,-141.18 1132.36,-148.03"/>
</g>
<!-- Node28 -->
<g id="node28" class="node">
<title>Node28</title>
<g id="a_node28"><a xlink:title=" ">
<polygon fill="none" stroke="#bfbfbf" points="1446.5,-123.5 1446.5,-142.5 1487.5,-142.5 1487.5,-123.5 1446.5,-123.5"/>
<text text-anchor="middle" x="1467" y="-130.5" font-family="Helvetica,sans-Serif" font-size="10.00">string</text>
</a>
</g>
</g>
<!-- Node27&#45;&gt;Node28 -->
<g id="edge38" class="edge">
<title>Node27&#45;&gt;Node28</title>
<path fill="none" stroke="midnightblue" d="M1467,-184.98C1467,-176.58 1467,-163.48 1467,-152.66"/>
<polygon fill="midnightblue" stroke="midnightblue" points="1470.5,-152.51 1467,-142.51 1463.5,-152.51 1470.5,-152.51"/>
</g>
<!-- Node29 -->
<g id="node29" class="node">
<title>Node29</title>
<g id="a_node29"><a xlink:title=" ">
<polygon fill="none" stroke="#bfbfbf" points="1622,-123.5 1622,-142.5 1684,-142.5 1684,-123.5 1622,-123.5"/>
<text text-anchor="middle" x="1653" y="-130.5" font-family="Helvetica,sans-Serif" font-size="10.00">Scene.hpp</text>
</a>
</g>
</g>
<!-- Node27&#45;&gt;Node29 -->
<g id="edge39" class="edge">
<title>Node27&#45;&gt;Node29</title>
<path fill="none" stroke="midnightblue" d="M1493.65,-184.98C1525.97,-174.64 1580.6,-157.16 1616.73,-145.6"/>
<polygon fill="midnightblue" stroke="midnightblue" points="1617.94,-148.89 1626.4,-142.51 1615.81,-142.22 1617.94,-148.89"/>
</g>
<!-- Node30&#45;&gt;Node28 -->
<g id="edge41" class="edge">
<title>Node30&#45;&gt;Node28</title>
<path fill="none" stroke="midnightblue" d="M1311.93,-184.98C1344.94,-174.12 1401.86,-155.41 1436.79,-143.93"/>
<polygon fill="midnightblue" stroke="midnightblue" points="1438.04,-147.2 1446.45,-140.76 1435.85,-140.55 1438.04,-147.2"/>
</g>
<!-- Node31&#45;&gt;Node29 -->
<g id="edge43" class="edge">
<title>Node31&#45;&gt;Node29</title>
<path fill="none" stroke="midnightblue" d="M1783.22,-184.98C1757.26,-174.81 1713.69,-157.76 1684.17,-146.2"/>
<polygon fill="midnightblue" stroke="midnightblue" points="1685.33,-142.9 1674.74,-142.51 1682.77,-149.41 1685.33,-142.9"/>
</g>
<!-- Node32&#45;&gt;Node29 -->
<g id="edge45" class="edge">
<title>Node32&#45;&gt;Node29</title>
<path fill="none" stroke="midnightblue" d="M1653,-184.98C1653,-176.58 1653,-163.48 1653,-152.66"/>
<polygon fill="midnightblue" stroke="midnightblue" points="1656.5,-152.51 1653,-142.51 1649.5,-152.51 1656.5,-152.51"/>
</g>
</g>
</svg>
