<?xml version="1.0" encoding="UTF-8" standalone="no"?>
<!DOCTYPE svg PUBLIC "-//W3C//DTD SVG 1.1//EN"
 "http://www.w3.org/Graphics/SVG/1.1/DTD/svg11.dtd">
<!-- Generated by graphviz version 2.44.0 ()
 -->
<!-- Title: src/Game/Levels/GameOverScene.cpp Pages: 1 -->
<svg width="787pt" height="151pt"
 viewBox="0.00 0.00 786.50 151.00" xmlns="http://www.w3.org/2000/svg" xmlns:xlink="http://www.w3.org/1999/xlink">
<g id="graph0" class="graph" transform="scale(1 1) rotate(0) translate(4 147)">
<title>src/Game/Levels/GameOverScene.cpp</title>
<!-- Node1 -->
<g id="node1" class="node">
<title>Node1</title>
<g id="a_node1"><a xlink:title=" ">
<polygon fill="#bfbfbf" stroke="black" points="322,-112.5 322,-142.5 464,-142.5 464,-112.5 322,-112.5"/>
<text text-anchor="start" x="330" y="-130.5" font-family="Helvetica,sans-Serif" font-size="10.00">src/Game/Levels/GameOver</text>
<text text-anchor="middle" x="393" y="-119.5" font-family="Helvetica,sans-Serif" font-size="10.00">Scene.cpp</text>
</a>
</g>
</g>
<!-- Node2 -->
<g id="node2" class="node">
<title>Node2</title>
<g id="a_node2"><a xlink:href="GameOverScene_8hpp.html" target="_top" xlink:title=" ">
<polygon fill="none" stroke="black" points="0,-56.5 0,-75.5 110,-75.5 110,-56.5 0,-56.5"/>
<text text-anchor="middle" x="55" y="-63.5" font-family="Helvetica,sans-Serif" font-size="10.00">GameOverScene.hpp</text>
</a>
</g>
</g>
<!-- Node1&#45;&gt;Node2 -->
<g id="edge1" class="edge">
<title>Node1&#45;&gt;Node2</title>
<path fill="none" stroke="midnightblue" d="M321.73,-113.95C259.79,-103.05 171.17,-87.45 113.36,-77.27"/>
<polygon fill="midnightblue" stroke="midnightblue" points="113.75,-73.79 103.29,-75.5 112.53,-80.68 113.75,-73.79"/>
</g>
<!-- Node4 -->
<g id="node4" class="node">
<title>Node4</title>
<g id="a_node4"><a xlink:title=" ">
<polygon fill="none" stroke="#bfbfbf" points="128.5,-56.5 128.5,-75.5 253.5,-75.5 253.5,-56.5 128.5,-56.5"/>
<text text-anchor="middle" x="191" y="-63.5" font-family="Helvetica,sans-Serif" font-size="10.00">Builder/SceneBuilder.hpp</text>
</a>
</g>
</g>
<!-- Node1&#45;&gt;Node4 -->
<g id="edge3" class="edge">
<title>Node1&#45;&gt;Node4</title>
<path fill="none" stroke="midnightblue" d="M345.38,-112.47C310.08,-102.08 262.56,-88.08 229.61,-78.37"/>
<polygon fill="midnightblue" stroke="midnightblue" points="230.46,-74.97 219.88,-75.51 228.48,-81.69 230.46,-74.97"/>
</g>
<!-- Node5 -->
<g id="node5" class="node">
<title>Node5</title>
<g id="a_node5"><a xlink:title=" ">
<polygon fill="none" stroke="#bfbfbf" points="272,-56.5 272,-75.5 368,-75.5 368,-56.5 272,-56.5"/>
<text text-anchor="middle" x="320" y="-63.5" font-family="Helvetica,sans-Serif" font-size="10.00">Engine/Engine.hpp</text>
</a>
</g>
</g>
<!-- Node1&#45;&gt;Node5 -->
<g id="edge4" class="edge">
<title>Node1&#45;&gt;Node5</title>
<path fill="none" stroke="midnightblue" d="M375.7,-112.4C364.55,-103.31 350.05,-91.49 338.64,-82.19"/>
<polygon fill="midnightblue" stroke="midnightblue" points="340.58,-79.26 330.62,-75.66 336.16,-84.69 340.58,-79.26"/>
</g>
<!-- Node6 -->
<g id="node6" class="node">
<title>Node6</title>
<g id="a_node6"><a xlink:title=" ">
<polygon fill="none" stroke="#bfbfbf" points="386,-56.5 386,-75.5 546,-75.5 546,-56.5 386,-56.5"/>
<text text-anchor="middle" x="466" y="-63.5" font-family="Helvetica,sans-Serif" font-size="10.00">Director/GameObjectDirector.hpp</text>
</a>
</g>
</g>
<!-- Node1&#45;&gt;Node6 -->
<g id="edge5" class="edge">
<title>Node1&#45;&gt;Node6</title>
<path fill="none" stroke="midnightblue" d="M410.3,-112.4C421.45,-103.31 435.95,-91.49 447.36,-82.19"/>
<polygon fill="midnightblue" stroke="midnightblue" points="449.84,-84.69 455.38,-75.66 445.42,-79.26 449.84,-84.69"/>
</g>
<!-- Node7 -->
<g id="node7" class="node">
<title>Node7</title>
<g id="a_node7"><a xlink:title=" ">
<polygon fill="none" stroke="#bfbfbf" points="564.5,-56.5 564.5,-75.5 621.5,-75.5 621.5,-56.5 564.5,-56.5"/>
<text text-anchor="middle" x="593" y="-63.5" font-family="Helvetica,sans-Serif" font-size="10.00">Color.hpp</text>
</a>
</g>
</g>
<!-- Node1&#45;&gt;Node7 -->
<g id="edge6" class="edge">
<title>Node1&#45;&gt;Node7</title>
<path fill="none" stroke="midnightblue" d="M440.14,-112.47C475.1,-102.08 522.15,-88.08 554.77,-78.37"/>
<polygon fill="midnightblue" stroke="midnightblue" points="555.82,-81.71 564.41,-75.51 553.82,-75 555.82,-81.71"/>
</g>
<!-- Node8 -->
<g id="node8" class="node">
<title>Node8</title>
<g id="a_node8"><a xlink:href="TimerScript_8hpp.html" target="_top" xlink:title=" ">
<polygon fill="none" stroke="black" points="639.5,-56.5 639.5,-75.5 758.5,-75.5 758.5,-56.5 639.5,-56.5"/>
<text text-anchor="middle" x="699" y="-63.5" font-family="Helvetica,sans-Serif" font-size="10.00">Scripts/TimerScript.hpp</text>
</a>
</g>
</g>
<!-- Node1&#45;&gt;Node8 -->
<g id="edge7" class="edge">
<title>Node1&#45;&gt;Node8</title>
<path fill="none" stroke="midnightblue" d="M464.36,-112.62C519.54,-101.89 594.76,-87.27 645.01,-77.5"/>
<polygon fill="midnightblue" stroke="midnightblue" points="645.88,-80.89 655.03,-75.55 644.54,-74.02 645.88,-80.89"/>
</g>
<!-- Node3 -->
<g id="node3" class="node">
<title>Node3</title>
<g id="a_node3"><a xlink:title=" ">
<polygon fill="none" stroke="#bfbfbf" points="24,-0.5 24,-19.5 86,-19.5 86,-0.5 24,-0.5"/>
<text text-anchor="middle" x="55" y="-7.5" font-family="Helvetica,sans-Serif" font-size="10.00">Scene.hpp</text>
</a>
</g>
</g>
<!-- Node2&#45;&gt;Node3 -->
<g id="edge2" class="edge">
<title>Node2&#45;&gt;Node3</title>
<path fill="none" stroke="midnightblue" d="M55,-56.08C55,-49.01 55,-38.86 55,-29.99"/>
<polygon fill="midnightblue" stroke="midnightblue" points="58.5,-29.75 55,-19.75 51.5,-29.75 58.5,-29.75"/>
</g>
<!-- Node9 -->
<g id="node9" class="node">
<title>Node9</title>
<g id="a_node9"><a xlink:title=" ">
<polygon fill="none" stroke="#bfbfbf" points="597,-0.5 597,-19.5 701,-19.5 701,-0.5 597,-0.5"/>
<text text-anchor="middle" x="649" y="-7.5" font-family="Helvetica,sans-Serif" font-size="10.00">BehaviourScript.hpp</text>
</a>
</g>
</g>
<!-- Node8&#45;&gt;Node9 -->
<g id="edge8" class="edge">
<title>Node8&#45;&gt;Node9</title>
<path fill="none" stroke="midnightblue" d="M690.74,-56.08C683.54,-48.3 672.89,-36.8 664.15,-27.37"/>
<polygon fill="midnightblue" stroke="midnightblue" points="666.47,-24.71 657.1,-19.75 661.33,-29.47 666.47,-24.71"/>
</g>
<!-- Node10 -->
<g id="node10" class="node">
<title>Node10</title>
<g id="a_node10"><a xlink:title=" ">
<polygon fill="none" stroke="#bfbfbf" points="719.5,-0.5 719.5,-19.5 778.5,-19.5 778.5,-0.5 719.5,-0.5"/>
<text text-anchor="middle" x="749" y="-7.5" font-family="Helvetica,sans-Serif" font-size="10.00">functional</text>
</a>
</g>
</g>
<!-- Node8&#45;&gt;Node10 -->
<g id="edge9" class="edge">
<title>Node8&#45;&gt;Node10</title>
<path fill="none" stroke="midnightblue" d="M707.26,-56.08C714.46,-48.3 725.11,-36.8 733.85,-27.37"/>
<polygon fill="midnightblue" stroke="midnightblue" points="736.67,-29.47 740.9,-19.75 731.53,-24.71 736.67,-29.47"/>
</g>
</g>
</svg>
