<?xml version="1.0" encoding="UTF-8" standalone="no"?>
<!DOCTYPE svg PUBLIC "-//W3C//DTD SVG 1.1//EN"
 "http://www.w3.org/Graphics/SVG/1.1/DTD/svg11.dtd">
<!-- Generated by graphviz version 2.44.0 ()
 -->
<!-- Title: src/Game/Game.cpp Pages: 1 -->
<svg width="115pt" height="140pt"
 viewBox="0.00 0.00 115.00 140.00" xmlns="http://www.w3.org/2000/svg" xmlns:xlink="http://www.w3.org/1999/xlink">
<g id="graph0" class="graph" transform="scale(1 1) rotate(0) translate(4 136)">
<title>src/Game/Game.cpp</title>
<!-- Node1 -->
<g id="node1" class="node">
<title>Node1</title>
<g id="a_node1"><a xlink:title=" ">
<polygon fill="#bfbfbf" stroke="black" points="0,-112.5 0,-131.5 107,-131.5 107,-112.5 0,-112.5"/>
<text text-anchor="middle" x="53.5" y="-119.5" font-family="Helvetica,sans-Serif" font-size="10.00">src/Game/Game.cpp</text>
</a>
</g>
</g>
<!-- Node2 -->
<g id="node2" class="node">
<title>Node2</title>
<g id="a_node2"><a xlink:href="Game_8hpp.html" target="_top" xlink:title=" ">
<polygon fill="none" stroke="black" points="23,-56.5 23,-75.5 84,-75.5 84,-56.5 23,-56.5"/>
<text text-anchor="middle" x="53.5" y="-63.5" font-family="Helvetica,sans-Serif" font-size="10.00">Game.hpp</text>
</a>
</g>
</g>
<!-- Node1&#45;&gt;Node2 -->
<g id="edge1" class="edge">
<title>Node1&#45;&gt;Node2</title>
<path fill="none" stroke="midnightblue" d="M53.5,-112.08C53.5,-105.01 53.5,-94.86 53.5,-85.99"/>
<polygon fill="midnightblue" stroke="midnightblue" points="57,-85.75 53.5,-75.75 50,-85.75 57,-85.75"/>
</g>
<!-- Node3 -->
<g id="node3" class="node">
<title>Node3</title>
<g id="a_node3"><a xlink:title=" ">
<polygon fill="none" stroke="#bfbfbf" points="5.5,-0.5 5.5,-19.5 101.5,-19.5 101.5,-0.5 5.5,-0.5"/>
<text text-anchor="middle" x="53.5" y="-7.5" font-family="Helvetica,sans-Serif" font-size="10.00">Engine/Engine.hpp</text>
</a>
</g>
</g>
<!-- Node2&#45;&gt;Node3 -->
<g id="edge2" class="edge">
<title>Node2&#45;&gt;Node3</title>
<path fill="none" stroke="midnightblue" d="M53.5,-56.08C53.5,-49.01 53.5,-38.86 53.5,-29.99"/>
<polygon fill="midnightblue" stroke="midnightblue" points="57,-29.75 53.5,-19.75 50,-29.75 57,-29.75"/>
</g>
</g>
</svg>
