<?xml version="1.0" encoding="UTF-8" standalone="no"?>
<!DOCTYPE svg PUBLIC "-//W3C//DTD SVG 1.1//EN"
 "http://www.w3.org/Graphics/SVG/1.1/DTD/svg11.dtd">
<!-- Generated by graphviz version 2.44.0 ()
 -->
<!-- Title: Graphical Class Hierarchy Pages: 1 -->
<svg width="325pt" height="204pt"
 viewBox="0.00 0.00 325.00 203.50" xmlns="http://www.w3.org/2000/svg" xmlns:xlink="http://www.w3.org/1999/xlink">
<g id="graph0" class="graph" transform="scale(1 1) rotate(0) translate(4 199.5)">
<title>Graphical Class Hierarchy</title>
<!-- Node1 -->
<g id="node1" class="node">
<title>Node1</title>
<g id="a_node1"><a xlink:title=" ">
<polygon fill="none" stroke="#bfbfbf" points="0,-88.5 0,-107.5 108,-107.5 108,-88.5 0,-88.5"/>
<text text-anchor="middle" x="54" y="-95.5" font-family="Helvetica,sans-Serif" font-size="10.00">spic::BehaviourScript</text>
</a>
</g>
</g>
<!-- Node0 -->
<g id="node2" class="node">
<title>Node0</title>
<g id="a_node2"><a xlink:href="classPlatformerGame_1_1DynamicAnimationBehaviour.html" target="_top" xlink:title=" ">
<polygon fill="none" stroke="black" points="144,-165 144,-195 317,-195 317,-165 144,-165"/>
<text text-anchor="start" x="152" y="-183" font-family="Helvetica,sans-Serif" font-size="10.00">PlatformerGame::DynamicAnimation</text>
<text text-anchor="middle" x="230.5" y="-172" font-family="Helvetica,sans-Serif" font-size="10.00">Behaviour</text>
</a>
</g>
</g>
<!-- Node1&#45;&gt;Node0 -->
<g id="edge1" class="edge">
<title>Node1&#45;&gt;Node0</title>
<path fill="none" stroke="midnightblue" d="M75.6,-113.61C93.04,-126.22 119.11,-143.67 144,-155 152.16,-158.72 161.02,-162.03 169.83,-164.94"/>
<polygon fill="midnightblue" stroke="midnightblue" points="77.44,-110.62 67.31,-107.51 73.29,-116.26 77.44,-110.62"/>
</g>
<!-- Node3 -->
<g id="node3" class="node">
<title>Node3</title>
<g id="a_node3"><a xlink:href="classPlatformerGame_1_1FlagBehaviour.html" target="_top" xlink:title=" ">
<polygon fill="none" stroke="black" points="153,-126.5 153,-145.5 308,-145.5 308,-126.5 153,-126.5"/>
<text text-anchor="middle" x="230.5" y="-133.5" font-family="Helvetica,sans-Serif" font-size="10.00">PlatformerGame::FlagBehaviour</text>
</a>
</g>
</g>
<!-- Node1&#45;&gt;Node3 -->
<g id="edge2" class="edge">
<title>Node1&#45;&gt;Node3</title>
<path fill="none" stroke="midnightblue" d="M108.97,-109.75C133.64,-115.13 162.49,-121.41 185.78,-126.48"/>
<polygon fill="midnightblue" stroke="midnightblue" points="109.55,-106.3 99.03,-107.59 108.06,-113.14 109.55,-106.3"/>
</g>
<!-- Node4 -->
<g id="node4" class="node">
<title>Node4</title>
<g id="a_node4"><a xlink:href="classPlatformerGame_1_1MarioBehaviour.html" target="_top" xlink:title=" ">
<polygon fill="none" stroke="black" points="150.5,-88.5 150.5,-107.5 310.5,-107.5 310.5,-88.5 150.5,-88.5"/>
<text text-anchor="middle" x="230.5" y="-95.5" font-family="Helvetica,sans-Serif" font-size="10.00">PlatformerGame::MarioBehaviour</text>
</a>
</g>
</g>
<!-- Node1&#45;&gt;Node4 -->
<g id="edge3" class="edge">
<title>Node1&#45;&gt;Node4</title>
<path fill="none" stroke="midnightblue" d="M118.43,-98C128.75,-98 139.54,-98 150.18,-98"/>
<polygon fill="midnightblue" stroke="midnightblue" points="118.3,-94.5 108.3,-98 118.3,-101.5 118.3,-94.5"/>
</g>
<!-- Node5 -->
<g id="node5" class="node">
<title>Node5</title>
<g id="a_node5"><a xlink:href="classPlatformerGame_1_1PlayerInputBehaviour.html" target="_top" xlink:title=" ">
<polygon fill="none" stroke="black" points="160,-39 160,-69 301,-69 301,-39 160,-39"/>
<text text-anchor="start" x="168" y="-57" font-family="Helvetica,sans-Serif" font-size="10.00">PlatformerGame::PlayerInput</text>
<text text-anchor="middle" x="230.5" y="-46" font-family="Helvetica,sans-Serif" font-size="10.00">Behaviour</text>
</a>
</g>
</g>
<!-- Node1&#45;&gt;Node5 -->
<g id="edge4" class="edge">
<title>Node1&#45;&gt;Node5</title>
<path fill="none" stroke="midnightblue" d="M102.69,-85.97C123.39,-80.75 147.86,-74.59 169.75,-69.07"/>
<polygon fill="midnightblue" stroke="midnightblue" points="101.7,-82.61 92.86,-88.45 103.42,-89.4 101.7,-82.61"/>
</g>
<!-- Node6 -->
<g id="node6" class="node">
<title>Node6</title>
<g id="a_node6"><a xlink:href="classPlatformerGame_1_1TimerScript.html" target="_top" xlink:title=" ">
<polygon fill="none" stroke="black" points="159,-0.5 159,-19.5 302,-19.5 302,-0.5 159,-0.5"/>
<text text-anchor="middle" x="230.5" y="-7.5" font-family="Helvetica,sans-Serif" font-size="10.00">PlatformerGame::TimerScript</text>
</a>
</g>
</g>
<!-- Node1&#45;&gt;Node6 -->
<g id="edge5" class="edge">
<title>Node1&#45;&gt;Node6</title>
<path fill="none" stroke="midnightblue" d="M72.16,-81.28C89.08,-65.73 116.35,-43.06 144,-30 153.1,-25.7 163.19,-22.29 173.15,-19.6"/>
<polygon fill="midnightblue" stroke="midnightblue" points="69.62,-78.87 64.73,-88.27 74.42,-83.97 69.62,-78.87"/>
</g>
</g>
</svg>
