<?xml version="1.0" encoding="UTF-8" standalone="no"?>
<!DOCTYPE svg PUBLIC "-//W3C//DTD SVG 1.1//EN"
 "http://www.w3.org/Graphics/SVG/1.1/DTD/svg11.dtd">
<!-- Generated by graphviz version 2.44.0 ()
 -->
<!-- Title: Graphical Class Hierarchy Pages: 1 -->
<svg width="313pt" height="180pt"
 viewBox="0.00 0.00 313.00 180.00" xmlns="http://www.w3.org/2000/svg" xmlns:xlink="http://www.w3.org/1999/xlink">
<g id="graph0" class="graph" transform="scale(1 1) rotate(0) translate(4 176)">
<title>Graphical Class Hierarchy</title>
<!-- Node1 -->
<g id="node1" class="node">
<title>Node1</title>
<g id="a_node1"><a xlink:title=" ">
<polygon fill="none" stroke="#bfbfbf" points="0,-76.5 0,-95.5 108,-95.5 108,-76.5 0,-76.5"/>
<text text-anchor="middle" x="54" y="-83.5" font-family="Helvetica,sans-Serif" font-size="10.00">spic::BehaviourScript</text>
</a>
</g>
</g>
<!-- Node0 -->
<g id="node2" class="node">
<title>Node0</title>
<g id="a_node2"><a xlink:href="classPlatformerGame_1_1CoinBehaviour.html" target="_top" xlink:title=" ">
<polygon fill="none" stroke="black" points="147,-152.5 147,-171.5 302,-171.5 302,-152.5 147,-152.5"/>
<text text-anchor="middle" x="224.5" y="-159.5" font-family="Helvetica,sans-Serif" font-size="10.00">PlatformerGame::CoinBehaviour</text>
</a>
</g>
</g>
<!-- Node1&#45;&gt;Node0 -->
<g id="edge1" class="edge">
<title>Node1&#45;&gt;Node0</title>
<path fill="none" stroke="midnightblue" d="M75.16,-101.72C92.51,-114.54 118.69,-132.24 144,-143 152.88,-146.78 162.65,-149.89 172.22,-152.42"/>
<polygon fill="midnightblue" stroke="midnightblue" points="77.03,-98.74 66.94,-95.52 72.81,-104.33 77.03,-98.74"/>
</g>
<!-- Node3 -->
<g id="node3" class="node">
<title>Node3</title>
<g id="a_node3"><a xlink:href="classPlatformerGame_1_1FlagBehaviour.html" target="_top" xlink:title=" ">
<polygon fill="none" stroke="black" points="147,-114.5 147,-133.5 302,-133.5 302,-114.5 147,-114.5"/>
<text text-anchor="middle" x="224.5" y="-121.5" font-family="Helvetica,sans-Serif" font-size="10.00">PlatformerGame::FlagBehaviour</text>
</a>
</g>
</g>
<!-- Node1&#45;&gt;Node3 -->
<g id="edge2" class="edge">
<title>Node1&#45;&gt;Node3</title>
<path fill="none" stroke="midnightblue" d="M107.43,-97.82C131.19,-103.18 158.9,-109.43 181.29,-114.48"/>
<polygon fill="midnightblue" stroke="midnightblue" points="108.04,-94.37 97.52,-95.59 106.5,-101.2 108.04,-94.37"/>
</g>
<!-- Node4 -->
<g id="node4" class="node">
<title>Node4</title>
<g id="a_node4"><a xlink:href="classPlatformerGame_1_1MarioBehaviour.html" target="_top" xlink:title=" ">
<polygon fill="none" stroke="black" points="144.5,-76.5 144.5,-95.5 304.5,-95.5 304.5,-76.5 144.5,-76.5"/>
<text text-anchor="middle" x="224.5" y="-83.5" font-family="Helvetica,sans-Serif" font-size="10.00">PlatformerGame::MarioBehaviour</text>
</a>
</g>
</g>
<!-- Node1&#45;&gt;Node4 -->
<g id="edge3" class="edge">
<title>Node1&#45;&gt;Node4</title>
<path fill="none" stroke="midnightblue" d="M118.46,-86C126.92,-86 135.68,-86 144.37,-86"/>
<polygon fill="midnightblue" stroke="midnightblue" points="118.31,-82.5 108.31,-86 118.31,-89.5 118.31,-82.5"/>
</g>
<!-- Node5 -->
<g id="node5" class="node">
<title>Node5</title>
<g id="a_node5"><a xlink:href="classPlatformerGame_1_1StarBehaviour.html" target="_top" xlink:title=" ">
<polygon fill="none" stroke="black" points="147.5,-38.5 147.5,-57.5 301.5,-57.5 301.5,-38.5 147.5,-38.5"/>
<text text-anchor="middle" x="224.5" y="-45.5" font-family="Helvetica,sans-Serif" font-size="10.00">PlatformerGame::StarBehaviour</text>
</a>
</g>
</g>
<!-- Node1&#45;&gt;Node5 -->
<g id="edge4" class="edge">
<title>Node1&#45;&gt;Node5</title>
<path fill="none" stroke="midnightblue" d="M107.43,-74.18C131.19,-68.82 158.9,-62.57 181.29,-57.52"/>
<polygon fill="midnightblue" stroke="midnightblue" points="106.5,-70.8 97.52,-76.41 108.04,-77.63 106.5,-70.8"/>
</g>
<!-- Node6 -->
<g id="node6" class="node">
<title>Node6</title>
<g id="a_node6"><a xlink:href="classPlatformerGame_1_1TimerBehaviour.html" target="_top" xlink:title=" ">
<polygon fill="none" stroke="black" points="144,-0.5 144,-19.5 305,-19.5 305,-0.5 144,-0.5"/>
<text text-anchor="middle" x="224.5" y="-7.5" font-family="Helvetica,sans-Serif" font-size="10.00">PlatformerGame::TimerBehaviour</text>
</a>
</g>
</g>
<!-- Node1&#45;&gt;Node6 -->
<g id="edge5" class="edge">
<title>Node1&#45;&gt;Node6</title>
<path fill="none" stroke="midnightblue" d="M75.16,-70.28C92.51,-57.46 118.69,-39.76 144,-29 152.88,-25.22 162.65,-22.11 172.22,-19.58"/>
<polygon fill="midnightblue" stroke="midnightblue" points="72.81,-67.67 66.94,-76.48 77.03,-73.26 72.81,-67.67"/>
</g>
</g>
</svg>
