<?xml version="1.0" encoding="UTF-8" standalone="no"?>
<!DOCTYPE svg PUBLIC "-//W3C//DTD SVG 1.1//EN"
 "http://www.w3.org/Graphics/SVG/1.1/DTD/svg11.dtd">
<!-- Generated by graphviz version 2.44.0 ()
 -->
<!-- Title: Graphical Class Hierarchy Pages: 1 -->
<svg width="325pt" height="127pt"
 viewBox="0.00 0.00 325.00 127.00" xmlns="http://www.w3.org/2000/svg" xmlns:xlink="http://www.w3.org/1999/xlink">
<g id="graph0" class="graph" transform="scale(1 1) rotate(0) translate(4 123)">
<title>Graphical Class Hierarchy</title>
<!-- Node1 -->
<g id="node1" class="node">
<title>Node1</title>
<g id="a_node1"><a xlink:title=" ">
<polygon fill="none" stroke="#bfbfbf" points="0,-50 0,-69 108,-69 108,-50 0,-50"/>
<text text-anchor="middle" x="54" y="-57" font-family="Helvetica,sans-Serif" font-size="10.00">spic::BehaviourScript</text>
</a>
</g>
</g>
<!-- Node0 -->
<g id="node2" class="node">
<title>Node0</title>
<g id="a_node2"><a xlink:href="classPlatformerGame_1_1DynamicAnimationBehaviour.html" target="_top" xlink:title=" ">
<polygon fill="none" stroke="black" points="144,-88.5 144,-118.5 317,-118.5 317,-88.5 144,-88.5"/>
<text text-anchor="start" x="152" y="-106.5" font-family="Helvetica,sans-Serif" font-size="10.00">PlatformerGame::DynamicAnimation</text>
<text text-anchor="middle" x="230.5" y="-95.5" font-family="Helvetica,sans-Serif" font-size="10.00">Behaviour</text>
</a>
</g>
</g>
<!-- Node1&#45;&gt;Node0 -->
<g id="edge1" class="edge">
<title>Node1&#45;&gt;Node0</title>
<path fill="none" stroke="midnightblue" d="M102.69,-71.53C123.39,-76.75 147.86,-82.91 169.75,-88.43"/>
<polygon fill="midnightblue" stroke="midnightblue" points="103.42,-68.1 92.86,-69.05 101.7,-74.89 103.42,-68.1"/>
</g>
<!-- Node3 -->
<g id="node3" class="node">
<title>Node3</title>
<g id="a_node3"><a xlink:href="classPlatformerGame_1_1FlagBehaviour.html" target="_top" xlink:title=" ">
<polygon fill="none" stroke="black" points="153,-50 153,-69 308,-69 308,-50 153,-50"/>
<text text-anchor="middle" x="230.5" y="-57" font-family="Helvetica,sans-Serif" font-size="10.00">PlatformerGame::FlagBehaviour</text>
</a>
</g>
</g>
<!-- Node1&#45;&gt;Node3 -->
<g id="edge2" class="edge">
<title>Node1&#45;&gt;Node3</title>
<path fill="none" stroke="midnightblue" d="M118.38,-59.5C129.54,-59.5 141.27,-59.5 152.76,-59.5"/>
<polygon fill="midnightblue" stroke="midnightblue" points="118.3,-56 108.3,-59.5 118.3,-63 118.3,-56"/>
</g>
<!-- Node4 -->
<g id="node4" class="node">
<title>Node4</title>
<g id="a_node4"><a xlink:href="classPlatformerGame_1_1PlayerInputBehaviour.html" target="_top" xlink:title=" ">
<polygon fill="none" stroke="black" points="160,-0.5 160,-30.5 301,-30.5 301,-0.5 160,-0.5"/>
<text text-anchor="start" x="168" y="-18.5" font-family="Helvetica,sans-Serif" font-size="10.00">PlatformerGame::PlayerInput</text>
<text text-anchor="middle" x="230.5" y="-7.5" font-family="Helvetica,sans-Serif" font-size="10.00">Behaviour</text>
</a>
</g>
</g>
<!-- Node1&#45;&gt;Node4 -->
<g id="edge3" class="edge">
<title>Node1&#45;&gt;Node4</title>
<path fill="none" stroke="midnightblue" d="M102.69,-47.47C123.39,-42.25 147.86,-36.09 169.75,-30.57"/>
<polygon fill="midnightblue" stroke="midnightblue" points="101.7,-44.11 92.86,-49.95 103.42,-50.9 101.7,-44.11"/>
</g>
</g>
</svg>
