<?xml version="1.0" encoding="UTF-8" standalone="no"?>
<!DOCTYPE svg PUBLIC "-//W3C//DTD SVG 1.1//EN"
 "http://www.w3.org/Graphics/SVG/1.1/DTD/svg11.dtd">
<!-- Generated by graphviz version 2.44.0 ()
 -->
<!-- Title: Graphical Class Hierarchy Pages: 1 -->
<svg width="325pt" height="242pt"
 viewBox="0.00 0.00 325.00 242.00" xmlns="http://www.w3.org/2000/svg" xmlns:xlink="http://www.w3.org/1999/xlink">
<g id="graph0" class="graph" transform="scale(1 1) rotate(0) translate(4 238)">
<title>Graphical Class Hierarchy</title>
<!-- Node1 -->
<g id="node1" class="node">
<title>Node1</title>
<g id="a_node1"><a xlink:title=" ">
<polygon fill="none" stroke="#bfbfbf" points="0,-107.5 0,-126.5 108,-126.5 108,-107.5 0,-107.5"/>
<text text-anchor="middle" x="54" y="-114.5" font-family="Helvetica,sans-Serif" font-size="10.00">spic::BehaviourScript</text>
</a>
</g>
</g>
<!-- Node0 -->
<g id="node2" class="node">
<title>Node0</title>
<g id="a_node2"><a xlink:href="classPlatformerGame_1_1CoinBehaviour.html" target="_top" xlink:title=" ">
<polygon fill="none" stroke="black" points="153,-214.5 153,-233.5 308,-233.5 308,-214.5 153,-214.5"/>
<text text-anchor="middle" x="230.5" y="-221.5" font-family="Helvetica,sans-Serif" font-size="10.00">PlatformerGame::CoinBehaviour</text>
</a>
</g>
</g>
<!-- Node1&#45;&gt;Node0 -->
<g id="edge1" class="edge">
<title>Node1&#45;&gt;Node0</title>
<path fill="none" stroke="midnightblue" d="M67.92,-134.81C83.6,-155.04 111.93,-187.51 144,-205 151.08,-208.86 158.89,-211.93 166.82,-214.38"/>
<polygon fill="midnightblue" stroke="midnightblue" points="70.64,-132.6 61.83,-126.72 65.05,-136.81 70.64,-132.6"/>
</g>
<!-- Node3 -->
<g id="node3" class="node">
<title>Node3</title>
<g id="a_node3"><a xlink:href="classPlatformerGame_1_1DynamicAnimationBehaviour.html" target="_top" xlink:title=" ">
<polygon fill="none" stroke="black" points="144,-165 144,-195 317,-195 317,-165 144,-165"/>
<text text-anchor="start" x="152" y="-183" font-family="Helvetica,sans-Serif" font-size="10.00">PlatformerGame::DynamicAnimation</text>
<text text-anchor="middle" x="230.5" y="-172" font-family="Helvetica,sans-Serif" font-size="10.00">Behaviour</text>
</a>
</g>
</g>
<!-- Node1&#45;&gt;Node3 -->
<g id="edge2" class="edge">
<title>Node1&#45;&gt;Node3</title>
<path fill="none" stroke="midnightblue" d="M85.03,-130.88C102.12,-138.51 124.04,-147.85 144,-155 153.75,-158.49 164.26,-161.87 174.45,-164.96"/>
<polygon fill="midnightblue" stroke="midnightblue" points="86.14,-127.54 75.58,-126.62 83.26,-133.92 86.14,-127.54"/>
</g>
<!-- Node4 -->
<g id="node4" class="node">
<title>Node4</title>
<g id="a_node4"><a xlink:href="classPlatformerGame_1_1FlagBehaviour.html" target="_top" xlink:title=" ">
<polygon fill="none" stroke="black" points="153,-126.5 153,-145.5 308,-145.5 308,-126.5 153,-126.5"/>
<text text-anchor="middle" x="230.5" y="-133.5" font-family="Helvetica,sans-Serif" font-size="10.00">PlatformerGame::FlagBehaviour</text>
</a>
</g>
</g>
<!-- Node1&#45;&gt;Node4 -->
<g id="edge3" class="edge">
<title>Node1&#45;&gt;Node4</title>
<path fill="none" stroke="midnightblue" d="M118.38,-123.9C129.54,-125.12 141.27,-126.39 152.76,-127.64"/>
<polygon fill="midnightblue" stroke="midnightblue" points="118.62,-120.41 108.3,-122.8 117.87,-127.37 118.62,-120.41"/>
</g>
<!-- Node5 -->
<g id="node5" class="node">
<title>Node5</title>
<g id="a_node5"><a xlink:href="classPlatformerGame_1_1MarioBehaviour.html" target="_top" xlink:title=" ">
<polygon fill="none" stroke="black" points="150.5,-88.5 150.5,-107.5 310.5,-107.5 310.5,-88.5 150.5,-88.5"/>
<text text-anchor="middle" x="230.5" y="-95.5" font-family="Helvetica,sans-Serif" font-size="10.00">PlatformerGame::MarioBehaviour</text>
</a>
</g>
</g>
<!-- Node1&#45;&gt;Node5 -->
<g id="edge4" class="edge">
<title>Node1&#45;&gt;Node5</title>
<path fill="none" stroke="midnightblue" d="M118.43,-110.09C128.75,-108.97 139.54,-107.79 150.18,-106.64"/>
<polygon fill="midnightblue" stroke="midnightblue" points="117.87,-106.63 108.3,-111.2 118.62,-113.59 117.87,-106.63"/>
</g>
<!-- Node6 -->
<g id="node6" class="node">
<title>Node6</title>
<g id="a_node6"><a xlink:href="classPlatformerGame_1_1PlayerInputBehaviour.html" target="_top" xlink:title=" ">
<polygon fill="none" stroke="black" points="160,-39 160,-69 301,-69 301,-39 160,-39"/>
<text text-anchor="start" x="168" y="-57" font-family="Helvetica,sans-Serif" font-size="10.00">PlatformerGame::PlayerInput</text>
<text text-anchor="middle" x="230.5" y="-46" font-family="Helvetica,sans-Serif" font-size="10.00">Behaviour</text>
</a>
</g>
</g>
<!-- Node1&#45;&gt;Node6 -->
<g id="edge5" class="edge">
<title>Node1&#45;&gt;Node6</title>
<path fill="none" stroke="midnightblue" d="M85.03,-103.12C102.12,-95.49 124.04,-86.15 144,-79 153.75,-75.51 164.26,-72.13 174.45,-69.04"/>
<polygon fill="midnightblue" stroke="midnightblue" points="83.26,-100.08 75.58,-107.38 86.14,-106.46 83.26,-100.08"/>
</g>
<!-- Node7 -->
<g id="node7" class="node">
<title>Node7</title>
<g id="a_node7"><a xlink:href="classPlatformerGame_1_1TimerScript.html" target="_top" xlink:title=" ">
<polygon fill="none" stroke="black" points="159,-0.5 159,-19.5 302,-19.5 302,-0.5 159,-0.5"/>
<text text-anchor="middle" x="230.5" y="-7.5" font-family="Helvetica,sans-Serif" font-size="10.00">PlatformerGame::TimerScript</text>
</a>
</g>
</g>
<!-- Node1&#45;&gt;Node7 -->
<g id="edge6" class="edge">
<title>Node1&#45;&gt;Node7</title>
<path fill="none" stroke="midnightblue" d="M68,-99.46C83.75,-79.52 112.15,-47.48 144,-30 151.88,-25.67 160.68,-22.28 169.54,-19.62"/>
<polygon fill="midnightblue" stroke="midnightblue" points="65.2,-97.37 61.87,-107.43 70.75,-101.64 65.2,-97.37"/>
</g>
</g>
</svg>
