<?xml version="1.0" encoding="UTF-8" standalone="no"?>
<!DOCTYPE svg PUBLIC "-//W3C//DTD SVG 1.1//EN"
 "http://www.w3.org/Graphics/SVG/1.1/DTD/svg11.dtd">
<!-- Generated by graphviz version 2.44.0 ()
 -->
<!-- Title: src/Game/Levels/Level1.cpp Pages: 1 -->
<!--zoomable 218 -->
<svg id="main" version="1.1" xmlns="http://www.w3.org/2000/svg" xmlns:xlink="http://www.w3.org/1999/xlink" xml:space="preserve" onload="init(evt)">
<style type="text/css"><![CDATA[
.edge:hover path { stroke: red; }
.edge:hover polygon { stroke: red; fill: red; }
]]></style>
<script type="text/javascript"><![CDATA[
var edges = document.getElementsByTagName('g');
if (edges && edges.length) {
  for (var i=0;i<edges.length;i++) {
    if (edges[i].id.substr(0,4)=='edge') {
      edges[i].setAttribute('class','edge');
    }
  }
}
]]></script>
        <defs>
                <circle id="rim" cx="0" cy="0" r="7"/>
                <circle id="rim2" cx="0" cy="0" r="3.5"/>
                <g id="zoomPlus">
                        <use xlink:href="#rim" fill="#404040">
                                <set attributeName="fill" to="#808080" begin="zoomplus.mouseover" end="zoomplus.mouseout"/>
                        </use>
                        <path d="M-4,0h8M0,-4v8" fill="none" stroke="white" stroke-width="1.5" pointer-events="none"/>
                </g>
                <g id="zoomMin">
                        <use xlink:href="#rim" fill="#404040">
                                <set attributeName="fill" to="#808080" begin="zoomminus.mouseover" end="zoomminus.mouseout"/>
                        </use>
                        <path d="M-4,0h8" fill="none" stroke="white" stroke-width="1.5" pointer-events="none"/>
                </g>
                <g id="dirArrow">
                        <path fill="none" stroke="white" stroke-width="1.5" d="M0,-3.0v7 M-2.5,-0.5L0,-3.0L2.5,-0.5"/>
                </g>
               <g id="resetDef">
                       <use xlink:href="#rim2" fill="#404040">
                               <set attributeName="fill" to="#808080" begin="reset.mouseover" end="reset.mouseout"/>
                       </use>
               </g>
        </defs>

<script type="text/javascript">
var viewWidth = 1669;
var viewHeight = 218;
var sectionId = 'dynsection-0';
</script>
<script xlink:href="svgpan.js"/>
<svg id="graph" class="graph">
<g id="viewport">
<title>src/Game/Levels/Level1.cpp</title>
<!-- Node1 -->
<g id="node1" class="node">
<title>Node1</title>
<g id="a_node1"><a xlink:title=" ">
<polygon fill="#bfbfbf" stroke="black" points="459,-190.5 459,-209.5 601,-209.5 601,-190.5 459,-190.5"/>
<text text-anchor="middle" x="530" y="-197.5" font-family="Helvetica,sans-Serif" font-size="10.00">src/Game/Levels/Level1.cpp</text>
</a>
</g>
</g>
<!-- Node2 -->
<g id="node2" class="node">
<title>Node2</title>
<g id="a_node2"><a xlink:href="Level1_8hpp.html" target="_top" xlink:title=" ">
<polygon fill="none" stroke="black" points="0,-129 0,-148 64,-148 64,-129 0,-129"/>
<text text-anchor="middle" x="32" y="-136" font-family="Helvetica,sans-Serif" font-size="10.00">Level1.hpp</text>
</a>
</g>
</g>
<!-- Node1&#45;&gt;Node2 -->
<g id="edge1" class="edge">
<title>Node1&#45;&gt;Node2</title>
<path fill="none" stroke="midnightblue" d="M458.7,-197.3C368.07,-193.93 207.24,-183.88 73,-154 69.58,-153.24 66.05,-152.28 62.57,-151.21"/>
<polygon fill="midnightblue" stroke="midnightblue" points="63.59,-147.86 52.99,-148.02 61.37,-154.5 63.59,-147.86"/>
</g>
<!-- Node4 -->
<g id="node4" class="node">
<title>Node4</title>
<g id="a_node4"><a xlink:title=" ">
<polygon fill="none" stroke="#bfbfbf" points="82.5,-129 82.5,-148 243.5,-148 243.5,-129 82.5,-129"/>
<text text-anchor="middle" x="163" y="-136" font-family="Helvetica,sans-Serif" font-size="10.00">Behaviour/CollisionBehaviour.hpp</text>
</a>
</g>
</g>
<!-- Node1&#45;&gt;Node4 -->
<g id="edge3" class="edge">
<title>Node1&#45;&gt;Node4</title>
<path fill="none" stroke="midnightblue" d="M477.42,-190.48C410.92,-179.69 296.57,-161.15 225.63,-149.65"/>
<polygon fill="midnightblue" stroke="midnightblue" points="225.92,-146.15 215.48,-148.01 224.8,-153.06 225.92,-146.15"/>
</g>
<!-- Node5 -->
<g id="node5" class="node">
<title>Node5</title>
<g id="a_node5"><a xlink:title=" ">
<polygon fill="none" stroke="#bfbfbf" points="595,-62 595,-81 755,-81 755,-62 595,-62"/>
<text text-anchor="middle" x="675" y="-69" font-family="Helvetica,sans-Serif" font-size="10.00">Director/GameObjectDirector.hpp</text>
</a>
</g>
</g>
<!-- Node1&#45;&gt;Node5 -->
<g id="edge4" class="edge">
<title>Node1&#45;&gt;Node5</title>
<path fill="none" stroke="midnightblue" d="M601.03,-193.08C627.12,-187.13 654.32,-175.69 671,-154 684.73,-136.14 682.95,-109.03 679.63,-91.04"/>
<polygon fill="midnightblue" stroke="midnightblue" points="683.03,-90.22 677.48,-81.19 676.19,-91.71 683.03,-90.22"/>
</g>
<!-- Node6 -->
<g id="node6" class="node">
<title>Node6</title>
<g id="a_node6"><a xlink:title=" ">
<polygon fill="none" stroke="#bfbfbf" points="416,-129 416,-148 512,-148 512,-129 416,-129"/>
<text text-anchor="middle" x="464" y="-136" font-family="Helvetica,sans-Serif" font-size="10.00">Engine/Engine.hpp</text>
</a>
</g>
</g>
<!-- Node1&#45;&gt;Node6 -->
<g id="edge5" class="edge">
<title>Node1&#45;&gt;Node6</title>
<path fill="none" stroke="midnightblue" d="M520.54,-190.48C510.25,-181.2 493.58,-166.17 481.01,-154.83"/>
<polygon fill="midnightblue" stroke="midnightblue" points="483.21,-152.11 473.44,-148.01 478.52,-157.3 483.21,-152.11"/>
</g>
<!-- Node7 -->
<g id="node7" class="node">
<title>Node7</title>
<g id="a_node7"><a xlink:href="DynamicAnimationBehaviour_8hpp.html" target="_top" xlink:title=" ">
<polygon fill="none" stroke="black" points="530.5,-123.5 530.5,-153.5 661.5,-153.5 661.5,-123.5 530.5,-123.5"/>
<text text-anchor="start" x="538.5" y="-141.5" font-family="Helvetica,sans-Serif" font-size="10.00">Scripts/DynamicAnimation</text>
<text text-anchor="middle" x="596" y="-130.5" font-family="Helvetica,sans-Serif" font-size="10.00">Behaviour.hpp</text>
</a>
</g>
</g>
<!-- Node1&#45;&gt;Node7 -->
<g id="edge6" class="edge">
<title>Node1&#45;&gt;Node7</title>
<path fill="none" stroke="midnightblue" d="M539.46,-190.48C548.14,-182.64 561.38,-170.71 572.86,-160.37"/>
<polygon fill="midnightblue" stroke="midnightblue" points="575.36,-162.82 580.45,-153.52 570.67,-157.62 575.36,-162.82"/>
</g>
<!-- Node10 -->
<g id="node10" class="node">
<title>Node10</title>
<g id="a_node10"><a xlink:href="PlayerInputBehaviour_8hpp.html" target="_top" xlink:title=" ">
<polygon fill="none" stroke="black" points="1458.5,-129 1458.5,-148 1619.5,-148 1619.5,-129 1458.5,-129"/>
<text text-anchor="middle" x="1539" y="-136" font-family="Helvetica,sans-Serif" font-size="10.00">Scripts/PlayerInputBehaviour.hpp</text>
</a>
</g>
</g>
<!-- Node1&#45;&gt;Node10 -->
<g id="edge9" class="edge">
<title>Node1&#45;&gt;Node10</title>
<path fill="none" stroke="midnightblue" d="M601.35,-194.79C780.58,-184.22 1249.51,-156.57 1448.07,-144.86"/>
<polygon fill="midnightblue" stroke="midnightblue" points="1448.4,-148.35 1458.18,-144.27 1447.99,-141.36 1448.4,-148.35"/>
</g>
<!-- Node13 -->
<g id="node13" class="node">
<title>Node13</title>
<g id="a_node13"><a xlink:href="TileConfig_8hpp.html" target="_top" xlink:title=" ">
<polygon fill="none" stroke="black" points="969.5,-129 969.5,-148 1046.5,-148 1046.5,-129 969.5,-129"/>
<text text-anchor="middle" x="1008" y="-136" font-family="Helvetica,sans-Serif" font-size="10.00">TileConfig.hpp</text>
</a>
</g>
</g>
<!-- Node1&#45;&gt;Node13 -->
<g id="edge13" class="edge">
<title>Node1&#45;&gt;Node13</title>
<path fill="none" stroke="midnightblue" d="M598.49,-190.48C696.35,-178.29 873.79,-156.21 959.32,-145.56"/>
<polygon fill="midnightblue" stroke="midnightblue" points="959.8,-149.03 969.29,-144.32 958.93,-142.08 959.8,-149.03"/>
</g>
<!-- Node20 -->
<g id="node20" class="node">
<title>Node20</title>
<g id="a_node20"><a xlink:href="MarioBehaviour_8hpp.html" target="_top" xlink:title=" ">
<polygon fill="none" stroke="black" points="262,-129 262,-148 398,-148 398,-129 262,-129"/>
<text text-anchor="middle" x="330" y="-136" font-family="Helvetica,sans-Serif" font-size="10.00">Scripts/MarioBehaviour.hpp</text>
</a>
</g>
</g>
<!-- Node1&#45;&gt;Node20 -->
<g id="edge22" class="edge">
<title>Node1&#45;&gt;Node20</title>
<path fill="none" stroke="midnightblue" d="M501.34,-190.48C466.44,-180.09 407.35,-162.51 368.5,-150.95"/>
<polygon fill="midnightblue" stroke="midnightblue" points="369.18,-147.51 358.6,-148.01 367.19,-154.22 369.18,-147.51"/>
</g>
<!-- Node3 -->
<g id="node3" class="node">
<title>Node3</title>
<g id="a_node3"><a xlink:title=" ">
<polygon fill="none" stroke="#bfbfbf" points="1,-62 1,-81 63,-81 63,-62 1,-62"/>
<text text-anchor="middle" x="32" y="-69" font-family="Helvetica,sans-Serif" font-size="10.00">Scene.hpp</text>
</a>
</g>
</g>
<!-- Node2&#45;&gt;Node3 -->
<g id="edge2" class="edge">
<title>Node2&#45;&gt;Node3</title>
<path fill="none" stroke="midnightblue" d="M32,-128.73C32,-119.18 32,-103.62 32,-91.28"/>
<polygon fill="midnightblue" stroke="midnightblue" points="35.5,-91.13 32,-81.13 28.5,-91.13 35.5,-91.13"/>
</g>
<!-- Node8 -->
<g id="node8" class="node">
<title>Node8</title>
<g id="a_node8"><a xlink:title=" ">
<polygon fill="none" stroke="#bfbfbf" points="651,-0.5 651,-19.5 755,-19.5 755,-0.5 651,-0.5"/>
<text text-anchor="middle" x="703" y="-7.5" font-family="Helvetica,sans-Serif" font-size="10.00">BehaviourScript.hpp</text>
</a>
</g>
</g>
<!-- Node7&#45;&gt;Node8 -->
<g id="edge7" class="edge">
<title>Node7&#45;&gt;Node8</title>
<path fill="none" stroke="midnightblue" d="M588.99,-123.46C581.4,-106.05 572.12,-76.21 586,-56 598.66,-37.57 620,-26.69 641.01,-20.26"/>
<polygon fill="midnightblue" stroke="midnightblue" points="642.22,-23.55 650.94,-17.53 640.37,-16.81 642.22,-23.55"/>
</g>
<!-- Node9 -->
<g id="node9" class="node">
<title>Node9</title>
<g id="a_node9"><a xlink:title=" ">
<polygon fill="none" stroke="#bfbfbf" points="401.5,-62 401.5,-81 538.5,-81 538.5,-62 401.5,-62"/>
<text text-anchor="middle" x="470" y="-69" font-family="Helvetica,sans-Serif" font-size="10.00">Texture/AnimatedSprite.hpp</text>
</a>
</g>
</g>
<!-- Node7&#45;&gt;Node9 -->
<g id="edge8" class="edge">
<title>Node7&#45;&gt;Node9</title>
<path fill="none" stroke="midnightblue" d="M568.66,-123.4C546.94,-112.19 516.8,-96.64 495.56,-85.69"/>
<polygon fill="midnightblue" stroke="midnightblue" points="496.98,-82.48 486.49,-81.01 493.77,-88.7 496.98,-82.48"/>
</g>
<!-- Node10&#45;&gt;Node8 -->
<g id="edge10" class="edge">
<title>Node10&#45;&gt;Node8</title>
<path fill="none" stroke="midnightblue" d="M1570.09,-128.93C1613.44,-115.57 1683.48,-87.95 1653,-56 1622.34,-23.85 971.66,-13.95 765.24,-11.61"/>
<polygon fill="midnightblue" stroke="midnightblue" points="765.21,-8.11 755.18,-11.5 765.14,-15.11 765.21,-8.11"/>
</g>
<!-- Node11 -->
<g id="node11" class="node">
<title>Node11</title>
<g id="a_node11"><a xlink:title=" ">
<polygon fill="none" stroke="#bfbfbf" points="1548.5,-56.5 1548.5,-86.5 1643.5,-86.5 1643.5,-56.5 1548.5,-56.5"/>
<text text-anchor="start" x="1556.5" y="-74.5" font-family="Helvetica,sans-Serif" font-size="10.00">boost/serialization</text>
<text text-anchor="middle" x="1596" y="-63.5" font-family="Helvetica,sans-Serif" font-size="10.00">/access.hpp</text>
</a>
</g>
</g>
<!-- Node10&#45;&gt;Node11 -->
<g id="edge11" class="edge">
<title>Node10&#45;&gt;Node11</title>
<path fill="none" stroke="midnightblue" d="M1546.69,-128.73C1554.39,-119.95 1566.55,-106.08 1576.87,-94.31"/>
<polygon fill="midnightblue" stroke="midnightblue" points="1579.68,-96.42 1583.65,-86.59 1574.42,-91.8 1579.68,-96.42"/>
</g>
<!-- Node12 -->
<g id="node12" class="node">
<title>Node12</title>
<g id="a_node12"><a xlink:title=" ">
<polygon fill="none" stroke="#bfbfbf" points="1435.5,-56.5 1435.5,-86.5 1530.5,-86.5 1530.5,-56.5 1435.5,-56.5"/>
<text text-anchor="start" x="1443.5" y="-74.5" font-family="Helvetica,sans-Serif" font-size="10.00">boost/serialization</text>
<text text-anchor="middle" x="1483" y="-63.5" font-family="Helvetica,sans-Serif" font-size="10.00">/export.hpp</text>
</a>
</g>
</g>
<!-- Node10&#45;&gt;Node12 -->
<g id="edge12" class="edge">
<title>Node10&#45;&gt;Node12</title>
<path fill="none" stroke="midnightblue" d="M1531.45,-128.73C1523.88,-119.95 1511.93,-106.08 1501.79,-94.31"/>
<polygon fill="midnightblue" stroke="midnightblue" points="1504.32,-91.88 1495.14,-86.59 1499.01,-96.45 1504.32,-91.88"/>
</g>
<!-- Node13&#45;&gt;Node5 -->
<g id="edge19" class="edge">
<title>Node13&#45;&gt;Node5</title>
<path fill="none" stroke="midnightblue" d="M969.48,-129.98C910.12,-118.39 796.12,-96.14 728.7,-82.98"/>
<polygon fill="midnightblue" stroke="midnightblue" points="729.19,-79.51 718.7,-81.03 727.84,-86.38 729.19,-79.51"/>
</g>
<!-- Node14 -->
<g id="node14" class="node">
<title>Node14</title>
<g id="a_node14"><a xlink:title=" ">
<polygon fill="none" stroke="#bfbfbf" points="1305.5,-62 1305.5,-81 1364.5,-81 1364.5,-62 1305.5,-62"/>
<text text-anchor="middle" x="1335" y="-69" font-family="Helvetica,sans-Serif" font-size="10.00">functional</text>
</a>
</g>
</g>
<!-- Node13&#45;&gt;Node14 -->
<g id="edge14" class="edge">
<title>Node13&#45;&gt;Node14</title>
<path fill="none" stroke="midnightblue" d="M1046.85,-133.11C1102.83,-126.25 1209.1,-111.21 1297,-87 1299.65,-86.27 1302.38,-85.43 1305.09,-84.52"/>
<polygon fill="midnightblue" stroke="midnightblue" points="1306.5,-87.73 1314.73,-81.06 1304.13,-81.14 1306.5,-87.73"/>
</g>
<!-- Node15 -->
<g id="node15" class="node">
<title>Node15</title>
<g id="a_node15"><a xlink:title=" ">
<polygon fill="none" stroke="#bfbfbf" points="1382.5,-62 1382.5,-81 1417.5,-81 1417.5,-62 1382.5,-62"/>
<text text-anchor="middle" x="1400" y="-69" font-family="Helvetica,sans-Serif" font-size="10.00">map</text>
</a>
</g>
</g>
<!-- Node13&#45;&gt;Node15 -->
<g id="edge15" class="edge">
<title>Node13&#45;&gt;Node15</title>
<path fill="none" stroke="midnightblue" d="M1046.73,-136.83C1114.71,-134.64 1259.19,-125.42 1374,-87 1375.24,-86.58 1376.49,-86.11 1377.73,-85.59"/>
<polygon fill="midnightblue" stroke="midnightblue" points="1379.54,-88.6 1386.95,-81.02 1376.43,-82.33 1379.54,-88.6"/>
</g>
<!-- Node16 -->
<g id="node16" class="node">
<title>Node16</title>
<g id="a_node16"><a xlink:title=" ">
<polygon fill="none" stroke="#bfbfbf" points="922.5,-62 922.5,-81 973.5,-81 973.5,-62 922.5,-62"/>
<text text-anchor="middle" x="948" y="-69" font-family="Helvetica,sans-Serif" font-size="10.00">memory</text>
</a>
</g>
</g>
<!-- Node13&#45;&gt;Node16 -->
<g id="edge16" class="edge">
<title>Node13&#45;&gt;Node16</title>
<path fill="none" stroke="midnightblue" d="M999.91,-128.73C990.46,-118.5 974.64,-101.36 962.95,-88.69"/>
<polygon fill="midnightblue" stroke="midnightblue" points="965.32,-86.1 955.96,-81.13 960.17,-90.85 965.32,-86.1"/>
</g>
<!-- Node17 -->
<g id="node17" class="node">
<title>Node17</title>
<g id="a_node17"><a xlink:title=" ">
<polygon fill="none" stroke="#bfbfbf" points="992,-62 992,-81 1144,-81 1144,-62 992,-62"/>
<text text-anchor="middle" x="1068" y="-69" font-family="Helvetica,sans-Serif" font-size="10.00">Builder/GameObjectBuilder.hpp</text>
</a>
</g>
</g>
<!-- Node13&#45;&gt;Node17 -->
<g id="edge17" class="edge">
<title>Node13&#45;&gt;Node17</title>
<path fill="none" stroke="midnightblue" d="M1016.09,-128.73C1025.54,-118.5 1041.36,-101.36 1053.05,-88.69"/>
<polygon fill="midnightblue" stroke="midnightblue" points="1055.83,-90.85 1060.04,-81.13 1050.68,-86.1 1055.83,-90.85"/>
</g>
<!-- Node18 -->
<g id="node18" class="node">
<title>Node18</title>
<g id="a_node18"><a xlink:title=" ">
<polygon fill="none" stroke="#bfbfbf" points="1162.5,-62 1162.5,-81 1287.5,-81 1287.5,-62 1162.5,-62"/>
<text text-anchor="middle" x="1225" y="-69" font-family="Helvetica,sans-Serif" font-size="10.00">Builder/SceneBuilder.hpp</text>
</a>
</g>
</g>
<!-- Node13&#45;&gt;Node18 -->
<g id="edge18" class="edge">
<title>Node13&#45;&gt;Node18</title>
<path fill="none" stroke="midnightblue" d="M1036.82,-128.87C1075.35,-117.33 1143.76,-96.84 1186.62,-84"/>
<polygon fill="midnightblue" stroke="midnightblue" points="1187.84,-87.29 1196.41,-81.06 1185.83,-80.58 1187.84,-87.29"/>
</g>
<!-- Node19 -->
<g id="node19" class="node">
<title>Node19</title>
<g id="a_node19"><a xlink:href="FlagBehaviour_8hpp.html" target="_top" xlink:title=" ">
<polygon fill="none" stroke="black" points="773.5,-62 773.5,-81 904.5,-81 904.5,-62 773.5,-62"/>
<text text-anchor="middle" x="839" y="-69" font-family="Helvetica,sans-Serif" font-size="10.00">Scripts/FlagBehaviour.hpp</text>
</a>
</g>
</g>
<!-- Node13&#45;&gt;Node19 -->
<g id="edge20" class="edge">
<title>Node13&#45;&gt;Node19</title>
<path fill="none" stroke="midnightblue" d="M985.56,-128.87C956.18,-117.57 904.51,-97.7 871.03,-84.82"/>
<polygon fill="midnightblue" stroke="midnightblue" points="871.86,-81.39 861.27,-81.06 869.34,-87.92 871.86,-81.39"/>
</g>
<!-- Node19&#45;&gt;Node8 -->
<g id="edge21" class="edge">
<title>Node19&#45;&gt;Node8</title>
<path fill="none" stroke="midnightblue" d="M819.51,-61.98C796.59,-51.95 758.31,-35.2 731.92,-23.65"/>
<polygon fill="midnightblue" stroke="midnightblue" points="733.01,-20.31 722.45,-19.51 730.21,-26.72 733.01,-20.31"/>
</g>
<!-- Node20&#45;&gt;Node8 -->
<g id="edge23" class="edge">
<title>Node20&#45;&gt;Node8</title>
<path fill="none" stroke="midnightblue" d="M333.9,-128.82C342.09,-111.67 362.88,-73.58 393,-56 433.9,-32.12 562.65,-19.9 640.78,-14.53"/>
<polygon fill="midnightblue" stroke="midnightblue" points="641.24,-18.01 650.98,-13.85 640.77,-11.03 641.24,-18.01"/>
</g>
</g>
</svg>
        <g id="navigator" transform="translate(0 0)" fill="#404254">
                <rect fill="#f2f5e9" fill-opacity="0.5" stroke="#606060" stroke-width=".5" x="0" y="0" width="60" height="60"/>
                <use id="zoomplus" xlink:href="#zoomPlus" x="17" y="9" onmousedown="handleZoom(evt,'in')"/>
                <use id="zoomminus" xlink:href="#zoomMin" x="42" y="9" onmousedown="handleZoom(evt,'out')"/>
                <use id="reset" xlink:href="#resetDef" x="30" y="36" onmousedown="handleReset()"/>
                <g id="arrowUp" xlink:href="#dirArrow" transform="translate(30 24)" onmousedown="handlePan(0,-1)">
                  <use xlink:href="#rim" fill="#404040">
                        <set attributeName="fill" to="#808080" begin="arrowUp.mouseover" end="arrowUp.mouseout"/>
                  </use>
                  <path fill="none" stroke="white" stroke-width="1.5" d="M0,-3.0v7 M-2.5,-0.5L0,-3.0L2.5,-0.5"/>
                </g>
                <g id="arrowRight" xlink:href="#dirArrow" transform="rotate(90) translate(36 -43)" onmousedown="handlePan(1,0)">
                  <use xlink:href="#rim" fill="#404040">
                        <set attributeName="fill" to="#808080" begin="arrowRight.mouseover" end="arrowRight.mouseout"/>
                  </use>
                  <path fill="none" stroke="white" stroke-width="1.5" d="M0,-3.0v7 M-2.5,-0.5L0,-3.0L2.5,-0.5"/>
                </g>
                <g id="arrowDown" xlink:href="#dirArrow" transform="rotate(180) translate(-30 -48)" onmousedown="handlePan(0,1)">
                  <use xlink:href="#rim" fill="#404040">
                        <set attributeName="fill" to="#808080" begin="arrowDown.mouseover" end="arrowDown.mouseout"/>
                  </use>
                  <path fill="none" stroke="white" stroke-width="1.5" d="M0,-3.0v7 M-2.5,-0.5L0,-3.0L2.5,-0.5"/>
                </g>
                <g id="arrowLeft" xlink:href="#dirArrow" transform="rotate(270) translate(-36 17)" onmousedown="handlePan(-1,0)">
                  <use xlink:href="#rim" fill="#404040">
                        <set attributeName="fill" to="#808080" begin="arrowLeft.mouseover" end="arrowLeft.mouseout"/>
                  </use>
                  <path fill="none" stroke="white" stroke-width="1.5" d="M0,-3.0v7 M-2.5,-0.5L0,-3.0L2.5,-0.5"/>
                </g>
        </g>
        <svg viewBox="0 0 15 15" width="100%" height="30px" preserveAspectRatio="xMaxYMin meet">
         <g id="arrow_out" transform="scale(0.3 0.3)">
          <a xlink:href="Level1_8cpp__incl_org.svg" target="_base">
           <rect id="button" ry="5" rx="5" y="6" x="6" height="38" width="38"
                fill="#f2f5e9" fill-opacity="0.5" stroke="#606060" stroke-width="1.0"/>
           <path id="arrow"
             d="M 11.500037,31.436501 C 11.940474,20.09759 22.043105,11.32322 32.158766,21.979434 L 37.068811,17.246167 C 37.068811,17.246167 37.088388,32 37.088388,32 L 22.160133,31.978069 C 22.160133,31.978069 26.997745,27.140456 26.997745,27.140456 C 18.528582,18.264221 13.291696,25.230495 11.500037,31.436501 z"
             style="fill:#404040;"/>
          </a>
         </g>
        </svg>
</svg>
