<?xml version="1.0" encoding="UTF-8" standalone="no"?>
<!DOCTYPE svg PUBLIC "-//W3C//DTD SVG 1.1//EN"
 "http://www.w3.org/Graphics/SVG/1.1/DTD/svg11.dtd">
<!-- Generated by graphviz version 2.44.0 ()
 -->
<!-- Title: src/Game/Levels/Level2.cpp Pages: 1 -->
<!--zoomable 397 -->
<svg id="main" version="1.1" xmlns="http://www.w3.org/2000/svg" xmlns:xlink="http://www.w3.org/1999/xlink" xml:space="preserve" onload="init(evt)">
<style type="text/css"><![CDATA[
.edge:hover path { stroke: red; }
.edge:hover polygon { stroke: red; fill: red; }
]]></style>
<script type="text/javascript"><![CDATA[
var edges = document.getElementsByTagName('g');
if (edges && edges.length) {
  for (var i=0;i<edges.length;i++) {
    if (edges[i].id.substr(0,4)=='edge') {
      edges[i].setAttribute('class','edge');
    }
  }
}
]]></script>
        <defs>
                <circle id="rim" cx="0" cy="0" r="7"/>
                <circle id="rim2" cx="0" cy="0" r="3.5"/>
                <g id="zoomPlus">
                        <use xlink:href="#rim" fill="#404040">
                                <set attributeName="fill" to="#808080" begin="zoomplus.mouseover" end="zoomplus.mouseout"/>
                        </use>
                        <path d="M-4,0h8M0,-4v8" fill="none" stroke="white" stroke-width="1.5" pointer-events="none"/>
                </g>
                <g id="zoomMin">
                        <use xlink:href="#rim" fill="#404040">
                                <set attributeName="fill" to="#808080" begin="zoomminus.mouseover" end="zoomminus.mouseout"/>
                        </use>
                        <path d="M-4,0h8" fill="none" stroke="white" stroke-width="1.5" pointer-events="none"/>
                </g>
                <g id="dirArrow">
                        <path fill="none" stroke="white" stroke-width="1.5" d="M0,-3.0v7 M-2.5,-0.5L0,-3.0L2.5,-0.5"/>
                </g>
               <g id="resetDef">
                       <use xlink:href="#rim2" fill="#404040">
                               <set attributeName="fill" to="#808080" begin="reset.mouseover" end="reset.mouseout"/>
                       </use>
               </g>
        </defs>

<script type="text/javascript">
var viewWidth = 1623;
var viewHeight = 397;
var sectionId = 'dynsection-0';
</script>
<script xlink:href="svgpan.js"/>
<svg id="graph" class="graph">
<g id="viewport">
<title>src/Game/Levels/Level2.cpp</title>
<!-- Node1 -->
<g id="node1" class="node">
<title>Node1</title>
<g id="a_node1"><a xlink:title=" ">
<polygon fill="#bfbfbf" stroke="black" points="1134.5,-369.5 1134.5,-388.5 1276.5,-388.5 1276.5,-369.5 1134.5,-369.5"/>
<text text-anchor="middle" x="1205.5" y="-376.5" font-family="Helvetica,sans-Serif" font-size="10.00">src/Game/Levels/Level2.cpp</text>
</a>
</g>
</g>
<!-- Node2 -->
<g id="node2" class="node">
<title>Node2</title>
<g id="a_node2"><a xlink:href="Level2_8hpp.html" target="_top" xlink:title=" ">
<polygon fill="none" stroke="black" points="1015.5,-313.5 1015.5,-332.5 1079.5,-332.5 1079.5,-313.5 1015.5,-313.5"/>
<text text-anchor="middle" x="1047.5" y="-320.5" font-family="Helvetica,sans-Serif" font-size="10.00">Level2.hpp</text>
</a>
</g>
</g>
<!-- Node1&#45;&gt;Node2 -->
<g id="edge1" class="edge">
<title>Node1&#45;&gt;Node2</title>
<path fill="none" stroke="midnightblue" d="M1180.46,-369.44C1153.88,-360.36 1111.69,-345.94 1081.98,-335.78"/>
<polygon fill="midnightblue" stroke="midnightblue" points="1083.01,-332.44 1072.42,-332.52 1080.75,-339.06 1083.01,-332.44"/>
</g>
<!-- Node7 -->
<g id="node7" class="node">
<title>Node7</title>
<g id="a_node7"><a xlink:title=" ">
<polygon fill="none" stroke="#bfbfbf" points="1084.5,-201.5 1084.5,-220.5 1180.5,-220.5 1180.5,-201.5 1084.5,-201.5"/>
<text text-anchor="middle" x="1132.5" y="-208.5" font-family="Helvetica,sans-Serif" font-size="10.00">Engine/Engine.hpp</text>
</a>
</g>
</g>
<!-- Node1&#45;&gt;Node7 -->
<g id="edge33" class="edge">
<title>Node1&#45;&gt;Node7</title>
<path fill="none" stroke="midnightblue" d="M1206.13,-369.42C1207.26,-348.63 1207.8,-294.55 1186.5,-257 1179.37,-244.44 1167.29,-233.87 1156.37,-226.14"/>
<polygon fill="midnightblue" stroke="midnightblue" points="1158.23,-223.18 1147.96,-220.57 1154.36,-229.01 1158.23,-223.18"/>
</g>
<!-- Node29 -->
<g id="node29" class="node">
<title>Node29</title>
<g id="a_node29"><a xlink:href="TileConfig_8hpp.html" target="_top" xlink:title=" ">
<polygon fill="none" stroke="black" points="1203,-201.5 1203,-220.5 1280,-220.5 1280,-201.5 1203,-201.5"/>
<text text-anchor="middle" x="1241.5" y="-208.5" font-family="Helvetica,sans-Serif" font-size="10.00">TileConfig.hpp</text>
</a>
</g>
</g>
<!-- Node1&#45;&gt;Node29 -->
<g id="edge34" class="edge">
<title>Node1&#45;&gt;Node29</title>
<path fill="none" stroke="midnightblue" d="M1208.5,-369.46C1211.57,-360.47 1216.34,-345.87 1219.5,-333 1228.29,-297.18 1235.24,-254.61 1238.82,-230.71"/>
<polygon fill="midnightblue" stroke="midnightblue" points="1242.32,-230.99 1240.31,-220.58 1235.39,-229.97 1242.32,-230.99"/>
</g>
<!-- Node3 -->
<g id="node3" class="node">
<title>Node3</title>
<g id="a_node3"><a xlink:title=" ">
<polygon fill="none" stroke="#bfbfbf" points="842.5,-201.5 842.5,-220.5 904.5,-220.5 904.5,-201.5 842.5,-201.5"/>
<text text-anchor="middle" x="873.5" y="-208.5" font-family="Helvetica,sans-Serif" font-size="10.00">Scene.hpp</text>
</a>
</g>
</g>
<!-- Node2&#45;&gt;Node3 -->
<g id="edge2" class="edge">
<title>Node2&#45;&gt;Node3</title>
<path fill="none" stroke="midnightblue" d="M1033.85,-313.37C1003.86,-294.41 932.03,-249 895.55,-225.94"/>
<polygon fill="midnightblue" stroke="midnightblue" points="897.41,-222.98 887.09,-220.59 893.67,-228.89 897.41,-222.98"/>
</g>
<!-- Node4 -->
<g id="node4" class="node">
<title>Node4</title>
<g id="a_node4"><a xlink:href="Level_8hpp.html" target="_top" xlink:title=" ">
<polygon fill="none" stroke="black" points="499,-257.5 499,-276.5 558,-276.5 558,-257.5 499,-257.5"/>
<text text-anchor="middle" x="528.5" y="-264.5" font-family="Helvetica,sans-Serif" font-size="10.00">Level.hpp</text>
</a>
</g>
</g>
<!-- Node2&#45;&gt;Node4 -->
<g id="edge3" class="edge">
<title>Node2&#45;&gt;Node4</title>
<path fill="none" stroke="midnightblue" d="M1015.43,-318.66C924.91,-309.24 667.61,-282.47 568.29,-272.14"/>
<polygon fill="midnightblue" stroke="midnightblue" points="568.39,-268.63 558.08,-271.08 567.67,-275.59 568.39,-268.63"/>
</g>
<!-- Node21 -->
<g id="node21" class="node">
<title>Node21</title>
<g id="a_node21"><a xlink:href="CoinCounter_8hpp.html" target="_top" xlink:title=" ">
<polygon fill="none" stroke="black" points="1060,-73 1060,-92 1161,-92 1161,-73 1060,-73"/>
<text text-anchor="middle" x="1110.5" y="-80" font-family="Helvetica,sans-Serif" font-size="10.00">UI/CoinCounter.hpp</text>
</a>
</g>
</g>
<!-- Node2&#45;&gt;Node21 -->
<g id="edge22" class="edge">
<title>Node2&#45;&gt;Node21</title>
<path fill="none" stroke="midnightblue" d="M1049.29,-313.45C1053.48,-293.6 1064.42,-242.9 1075.5,-201 1084.8,-165.81 1097.3,-125.2 1104.57,-102.11"/>
<polygon fill="midnightblue" stroke="midnightblue" points="1107.99,-102.88 1107.68,-92.29 1101.32,-100.77 1107.99,-102.88"/>
</g>
<!-- Node28 -->
<g id="node28" class="node">
<title>Node28</title>
<g id="a_node28"><a xlink:title=" ">
<polygon fill="none" stroke="#bfbfbf" points="1076,-257.5 1076,-276.5 1177,-276.5 1177,-257.5 1076,-257.5"/>
<text text-anchor="middle" x="1126.5" y="-264.5" font-family="Helvetica,sans-Serif" font-size="10.00">UI/FPSCounter.hpp</text>
</a>
</g>
</g>
<!-- Node2&#45;&gt;Node28 -->
<g id="edge32" class="edge">
<title>Node2&#45;&gt;Node28</title>
<path fill="none" stroke="midnightblue" d="M1060.19,-313.32C1072.4,-304.98 1091.08,-292.21 1105.5,-282.35"/>
<polygon fill="midnightblue" stroke="midnightblue" points="1107.56,-285.19 1113.84,-276.65 1103.61,-279.41 1107.56,-285.19"/>
</g>
<!-- Node4&#45;&gt;Node3 -->
<g id="edge4" class="edge">
<title>Node4&#45;&gt;Node3</title>
<path fill="none" stroke="midnightblue" d="M558.21,-261.35C619.78,-251.71 761.4,-229.55 831.96,-218.5"/>
<polygon fill="midnightblue" stroke="midnightblue" points="832.91,-221.9 842.25,-216.89 831.83,-214.98 832.91,-221.9"/>
</g>
<!-- Node5 -->
<g id="node5" class="node">
<title>Node5</title>
<g id="a_node5"><a xlink:href="Sprites_8hpp.html" target="_top" xlink:title=" ">
<polygon fill="none" stroke="black" points="0,-201.5 0,-220.5 111,-220.5 111,-201.5 0,-201.5"/>
<text text-anchor="middle" x="55.5" y="-208.5" font-family="Helvetica,sans-Serif" font-size="10.00">constants/Sprites.hpp</text>
</a>
</g>
</g>
<!-- Node4&#45;&gt;Node5 -->
<g id="edge5" class="edge">
<title>Node4&#45;&gt;Node5</title>
<path fill="none" stroke="midnightblue" d="M498.95,-263.06C433.09,-256.43 269.03,-239.56 121.48,-221.22"/>
<polygon fill="midnightblue" stroke="midnightblue" points="121.69,-217.72 111.33,-219.95 120.82,-224.67 121.69,-217.72"/>
</g>
<!-- Node4&#45;&gt;Node7 -->
<g id="edge7" class="edge">
<title>Node4&#45;&gt;Node7</title>
<path fill="none" stroke="midnightblue" d="M558.04,-263.36C652.38,-254.92 947.59,-228.53 1074.05,-217.23"/>
<polygon fill="midnightblue" stroke="midnightblue" points="1074.66,-220.69 1084.31,-216.31 1074.04,-213.71 1074.66,-220.69"/>
</g>
<!-- Node8 -->
<g id="node8" class="node">
<title>Node8</title>
<g id="a_node8"><a xlink:title=" ">
<polygon fill="none" stroke="#bfbfbf" points="129,-201.5 129,-220.5 238,-220.5 238,-201.5 129,-201.5"/>
<text text-anchor="middle" x="183.5" y="-208.5" font-family="Helvetica,sans-Serif" font-size="10.00">Utility/InputEnum.hpp</text>
</a>
</g>
</g>
<!-- Node4&#45;&gt;Node8 -->
<g id="edge8" class="edge">
<title>Node4&#45;&gt;Node8</title>
<path fill="none" stroke="midnightblue" d="M498.79,-261.35C443.37,-252.68 323.09,-233.85 248.15,-222.12"/>
<polygon fill="midnightblue" stroke="midnightblue" points="248.31,-218.6 237.89,-220.51 247.23,-225.52 248.31,-218.6"/>
</g>
<!-- Node9 -->
<g id="node9" class="node">
<title>Node9</title>
<g id="a_node9"><a xlink:title=" ">
<polygon fill="none" stroke="#bfbfbf" points="256.5,-201.5 256.5,-220.5 346.5,-220.5 346.5,-201.5 256.5,-201.5"/>
<text text-anchor="middle" x="301.5" y="-208.5" font-family="Helvetica,sans-Serif" font-size="10.00">AudioSource.hpp</text>
</a>
</g>
</g>
<!-- Node4&#45;&gt;Node9 -->
<g id="edge9" class="edge">
<title>Node4&#45;&gt;Node9</title>
<path fill="none" stroke="midnightblue" d="M498.82,-258.94C460.28,-249.77 392.59,-233.67 347.4,-222.92"/>
<polygon fill="midnightblue" stroke="midnightblue" points="348.09,-219.49 337.55,-220.58 346.47,-226.3 348.09,-219.49"/>
</g>
<!-- Node10 -->
<g id="node10" class="node">
<title>Node10</title>
<g id="a_node10"><a xlink:href="MarioBehaviour_8hpp.html" target="_top" xlink:title=" ">
<polygon fill="none" stroke="black" points="364.5,-201.5 364.5,-220.5 500.5,-220.5 500.5,-201.5 364.5,-201.5"/>
<text text-anchor="middle" x="432.5" y="-208.5" font-family="Helvetica,sans-Serif" font-size="10.00">Scripts/MarioBehaviour.hpp</text>
</a>
</g>
</g>
<!-- Node4&#45;&gt;Node10 -->
<g id="edge10" class="edge">
<title>Node4&#45;&gt;Node10</title>
<path fill="none" stroke="midnightblue" d="M513.08,-257.32C497.96,-248.82 474.68,-235.73 457.03,-225.8"/>
<polygon fill="midnightblue" stroke="midnightblue" points="458.32,-222.51 447.89,-220.65 454.89,-228.61 458.32,-222.51"/>
</g>
<!-- Node19 -->
<g id="node19" class="node">
<title>Node19</title>
<g id="a_node19"><a xlink:title=" ">
<polygon fill="none" stroke="#bfbfbf" points="449.5,-140 449.5,-159 607.5,-159 607.5,-140 449.5,-140"/>
<text text-anchor="middle" x="528.5" y="-147" font-family="Helvetica,sans-Serif" font-size="10.00">Director/GameObjectFactory.hpp</text>
</a>
</g>
</g>
<!-- Node4&#45;&gt;Node19 -->
<g id="edge20" class="edge">
<title>Node4&#45;&gt;Node19</title>
<path fill="none" stroke="midnightblue" d="M528.5,-257.32C528.5,-238.76 528.5,-194.84 528.5,-169.47"/>
<polygon fill="midnightblue" stroke="midnightblue" points="532,-169.28 528.5,-159.28 525,-169.28 532,-169.28"/>
</g>
<!-- Node20 -->
<g id="node20" class="node">
<title>Node20</title>
<g id="a_node20"><a xlink:title=" ">
<polygon fill="none" stroke="#bfbfbf" points="557,-201.5 557,-220.5 718,-220.5 718,-201.5 557,-201.5"/>
<text text-anchor="middle" x="637.5" y="-208.5" font-family="Helvetica,sans-Serif" font-size="10.00">Behaviour/CollisionBehaviour.hpp</text>
</a>
</g>
</g>
<!-- Node4&#45;&gt;Node20 -->
<g id="edge21" class="edge">
<title>Node4&#45;&gt;Node20</title>
<path fill="none" stroke="midnightblue" d="M546.01,-257.32C563.57,-248.62 590.83,-235.12 611.03,-225.11"/>
<polygon fill="midnightblue" stroke="midnightblue" points="612.62,-228.23 620.03,-220.65 609.52,-221.96 612.62,-228.23"/>
</g>
<!-- Node6 -->
<g id="node6" class="node">
<title>Node6</title>
<g id="a_node6"><a xlink:title=" ">
<polygon fill="none" stroke="#bfbfbf" points="35,-140 35,-159 76,-159 76,-140 35,-140"/>
<text text-anchor="middle" x="55.5" y="-147" font-family="Helvetica,sans-Serif" font-size="10.00">string</text>
</a>
</g>
</g>
<!-- Node5&#45;&gt;Node6 -->
<g id="edge6" class="edge">
<title>Node5&#45;&gt;Node6</title>
<path fill="none" stroke="midnightblue" d="M55.5,-201.48C55.5,-193.08 55.5,-179.98 55.5,-169.16"/>
<polygon fill="midnightblue" stroke="midnightblue" points="59,-169.01 55.5,-159.01 52,-169.01 59,-169.01"/>
</g>
<!-- Node11 -->
<g id="node11" class="node">
<title>Node11</title>
<g id="a_node11"><a xlink:title=" ">
<polygon fill="none" stroke="#bfbfbf" points="729.5,-73 729.5,-92 833.5,-92 833.5,-73 729.5,-73"/>
<text text-anchor="middle" x="781.5" y="-80" font-family="Helvetica,sans-Serif" font-size="10.00">BehaviourScript.hpp</text>
</a>
</g>
</g>
<!-- Node10&#45;&gt;Node11 -->
<g id="edge11" class="edge">
<title>Node10&#45;&gt;Node11</title>
<path fill="none" stroke="midnightblue" d="M430.39,-201.33C427.14,-185.59 422.96,-152.29 440.5,-134 445.3,-128.99 622.07,-104.74 719.15,-91.75"/>
<polygon fill="midnightblue" stroke="midnightblue" points="719.7,-95.21 729.15,-90.42 718.78,-88.27 719.7,-95.21"/>
</g>
<!-- Node12 -->
<g id="node12" class="node">
<title>Node12</title>
<g id="a_node12"><a xlink:href="MarioState_8hpp.html" target="_top" xlink:title=" ">
<polygon fill="none" stroke="black" points="556,-67.5 556,-97.5 659,-97.5 659,-67.5 556,-67.5"/>
<text text-anchor="start" x="564" y="-85.5" font-family="Helvetica,sans-Serif" font-size="10.00">Scripts/MarioStates</text>
<text text-anchor="middle" x="607.5" y="-74.5" font-family="Helvetica,sans-Serif" font-size="10.00">/MarioState.hpp</text>
</a>
</g>
</g>
<!-- Node10&#45;&gt;Node12 -->
<g id="edge12" class="edge">
<title>Node10&#45;&gt;Node12</title>
<path fill="none" stroke="midnightblue" d="M368.85,-201.49C312.19,-191.32 242.8,-170.87 274.5,-134 308.75,-94.16 458.99,-85.37 545.51,-83.67"/>
<polygon fill="midnightblue" stroke="midnightblue" points="545.8,-87.16 555.73,-83.49 545.68,-80.16 545.8,-87.16"/>
</g>
<!-- Node18 -->
<g id="node18" class="node">
<title>Node18</title>
<g id="a_node18"><a xlink:href="SmallMarioState_8hpp.html" target="_top" xlink:title=" ">
<polygon fill="none" stroke="black" points="283.5,-134.5 283.5,-164.5 393.5,-164.5 393.5,-134.5 283.5,-134.5"/>
<text text-anchor="start" x="291.5" y="-152.5" font-family="Helvetica,sans-Serif" font-size="10.00">Scripts/MarioStates</text>
<text text-anchor="middle" x="338.5" y="-141.5" font-family="Helvetica,sans-Serif" font-size="10.00">/SmallMarioState.hpp</text>
</a>
</g>
</g>
<!-- Node10&#45;&gt;Node18 -->
<g id="edge18" class="edge">
<title>Node10&#45;&gt;Node18</title>
<path fill="none" stroke="midnightblue" d="M419.03,-201.48C406.06,-193.27 385.99,-180.56 369.12,-169.88"/>
<polygon fill="midnightblue" stroke="midnightblue" points="370.98,-166.91 360.65,-164.52 367.23,-172.83 370.98,-166.91"/>
</g>
<!-- Node13 -->
<g id="node13" class="node">
<title>Node13</title>
<g id="a_node13"><a xlink:title=" ">
<polygon fill="none" stroke="#bfbfbf" points="880,-0.5 880,-30.5 975,-30.5 975,-0.5 880,-0.5"/>
<text text-anchor="start" x="888" y="-18.5" font-family="Helvetica,sans-Serif" font-size="10.00">boost/serialization</text>
<text text-anchor="middle" x="927.5" y="-7.5" font-family="Helvetica,sans-Serif" font-size="10.00">/access.hpp</text>
</a>
</g>
</g>
<!-- Node12&#45;&gt;Node13 -->
<g id="edge13" class="edge">
<title>Node12&#45;&gt;Node13</title>
<path fill="none" stroke="midnightblue" d="M659.3,-72.61C710.49,-63.59 791.24,-48.76 869.82,-31.3"/>
<polygon fill="midnightblue" stroke="midnightblue" points="870.9,-34.65 879.89,-29.05 869.37,-27.82 870.9,-34.65"/>
</g>
<!-- Node14 -->
<g id="node14" class="node">
<title>Node14</title>
<g id="a_node14"><a xlink:title=" ">
<polygon fill="none" stroke="#bfbfbf" points="654,-0.5 654,-30.5 749,-30.5 749,-0.5 654,-0.5"/>
<text text-anchor="start" x="662" y="-18.5" font-family="Helvetica,sans-Serif" font-size="10.00">boost/serialization</text>
<text text-anchor="middle" x="701.5" y="-7.5" font-family="Helvetica,sans-Serif" font-size="10.00">/export.hpp</text>
</a>
</g>
</g>
<!-- Node12&#45;&gt;Node14 -->
<g id="edge14" class="edge">
<title>Node12&#45;&gt;Node14</title>
<path fill="none" stroke="midnightblue" d="M627.9,-67.4C640.95,-58.37 658.1,-46.51 672.55,-36.52"/>
<polygon fill="midnightblue" stroke="midnightblue" points="674.91,-39.14 681.14,-30.58 670.93,-33.39 674.91,-39.14"/>
</g>
<!-- Node15 -->
<g id="node15" class="node">
<title>Node15</title>
<g id="a_node15"><a xlink:title=" ">
<polygon fill="none" stroke="#bfbfbf" points="767,-0.5 767,-30.5 862,-30.5 862,-0.5 767,-0.5"/>
<text text-anchor="start" x="775" y="-18.5" font-family="Helvetica,sans-Serif" font-size="10.00">boost/serialization</text>
<text text-anchor="middle" x="814.5" y="-7.5" font-family="Helvetica,sans-Serif" font-size="10.00">/shared_ptr.hpp</text>
</a>
</g>
</g>
<!-- Node12&#45;&gt;Node15 -->
<g id="edge15" class="edge">
<title>Node12&#45;&gt;Node15</title>
<path fill="none" stroke="midnightblue" d="M652.16,-67.48C683.75,-57.56 726.28,-44.2 759.89,-33.65"/>
<polygon fill="midnightblue" stroke="midnightblue" points="761.07,-36.95 769.56,-30.61 758.97,-30.27 761.07,-36.95"/>
</g>
<!-- Node16 -->
<g id="node16" class="node">
<title>Node16</title>
<g id="a_node16"><a xlink:title=" ">
<polygon fill="none" stroke="#bfbfbf" points="424,-6 424,-25 561,-25 561,-6 424,-6"/>
<text text-anchor="middle" x="492.5" y="-13" font-family="Helvetica,sans-Serif" font-size="10.00">Texture/AnimatedSprite.hpp</text>
</a>
</g>
</g>
<!-- Node12&#45;&gt;Node16 -->
<g id="edge16" class="edge">
<title>Node12&#45;&gt;Node16</title>
<path fill="none" stroke="midnightblue" d="M582.55,-67.4C562.9,-56.29 535.71,-40.92 516.35,-29.98"/>
<polygon fill="midnightblue" stroke="midnightblue" points="517.98,-26.88 507.55,-25.01 514.53,-32.97 517.98,-26.88"/>
</g>
<!-- Node17 -->
<g id="node17" class="node">
<title>Node17</title>
<g id="a_node17"><a xlink:title=" ">
<polygon fill="none" stroke="#bfbfbf" points="579,-6 579,-25 636,-25 636,-6 579,-6"/>
<text text-anchor="middle" x="607.5" y="-13" font-family="Helvetica,sans-Serif" font-size="10.00">Point.hpp</text>
</a>
</g>
</g>
<!-- Node12&#45;&gt;Node17 -->
<g id="edge17" class="edge">
<title>Node12&#45;&gt;Node17</title>
<path fill="none" stroke="midnightblue" d="M607.5,-67.4C607.5,-58.06 607.5,-45.71 607.5,-35.52"/>
<polygon fill="midnightblue" stroke="midnightblue" points="611,-35.19 607.5,-25.19 604,-35.19 611,-35.19"/>
</g>
<!-- Node18&#45;&gt;Node12 -->
<g id="edge19" class="edge">
<title>Node18&#45;&gt;Node12</title>
<path fill="none" stroke="midnightblue" d="M393.59,-135.19C437.83,-124.5 499.95,-109.49 545.85,-98.4"/>
<polygon fill="midnightblue" stroke="midnightblue" points="546.78,-101.77 555.68,-96.02 545.14,-94.97 546.78,-101.77"/>
</g>
<!-- Node21&#45;&gt;Node13 -->
<g id="edge24" class="edge">
<title>Node21&#45;&gt;Node13</title>
<path fill="none" stroke="midnightblue" d="M1086.2,-72.87C1058.38,-62.99 1012.1,-46.55 976.67,-33.97"/>
<polygon fill="midnightblue" stroke="midnightblue" points="977.59,-30.58 966.99,-30.53 975.25,-37.17 977.59,-30.58"/>
</g>
<!-- Node21&#45;&gt;Node14 -->
<g id="edge25" class="edge">
<title>Node21&#45;&gt;Node14</title>
<path fill="none" stroke="midnightblue" d="M1059.79,-75.95C993.07,-68.26 872.03,-53 759.16,-31"/>
<polygon fill="midnightblue" stroke="midnightblue" points="759.8,-27.56 749.31,-29.06 758.44,-34.42 759.8,-27.56"/>
</g>
<!-- Node21&#45;&gt;Node15 -->
<g id="edge26" class="edge">
<title>Node21&#45;&gt;Node15</title>
<path fill="none" stroke="midnightblue" d="M1067.64,-72.99C1021.78,-63.77 946.66,-48.31 872.09,-31.08"/>
<polygon fill="midnightblue" stroke="midnightblue" points="872.58,-27.6 862.05,-28.75 871,-34.42 872.58,-27.6"/>
</g>
<!-- Node22 -->
<g id="node22" class="node">
<title>Node22</title>
<g id="a_node22"><a xlink:title=" ">
<polygon fill="none" stroke="#bfbfbf" points="1502,-6 1502,-25 1553,-25 1553,-6 1502,-6"/>
<text text-anchor="middle" x="1527.5" y="-13" font-family="Helvetica,sans-Serif" font-size="10.00">memory</text>
</a>
</g>
</g>
<!-- Node21&#45;&gt;Node22 -->
<g id="edge23" class="edge">
<title>Node21&#45;&gt;Node22</title>
<path fill="none" stroke="midnightblue" d="M1161.25,-79.2C1235.41,-74.85 1377.22,-62.82 1493.5,-31 1495.8,-30.37 1498.14,-29.62 1500.48,-28.79"/>
<polygon fill="midnightblue" stroke="midnightblue" points="1501.81,-32.03 1509.83,-25.11 1499.24,-25.52 1501.81,-32.03"/>
</g>
<!-- Node23 -->
<g id="node23" class="node">
<title>Node23</title>
<g id="a_node23"><a xlink:title=" ">
<polygon fill="none" stroke="#bfbfbf" points="1085.5,-0.5 1085.5,-30.5 1189.5,-30.5 1189.5,-0.5 1085.5,-0.5"/>
<text text-anchor="start" x="1093.5" y="-18.5" font-family="Helvetica,sans-Serif" font-size="10.00">boost/archive/binary</text>
<text text-anchor="middle" x="1137.5" y="-7.5" font-family="Helvetica,sans-Serif" font-size="10.00">_iarchive.hpp</text>
</a>
</g>
</g>
<!-- Node21&#45;&gt;Node23 -->
<g id="edge27" class="edge">
<title>Node21&#45;&gt;Node23</title>
<path fill="none" stroke="midnightblue" d="M1114.14,-72.73C1117.61,-64.37 1123,-51.4 1127.73,-40.02"/>
<polygon fill="midnightblue" stroke="midnightblue" points="1131.04,-41.17 1131.65,-30.59 1124.58,-38.48 1131.04,-41.17"/>
</g>
<!-- Node24 -->
<g id="node24" class="node">
<title>Node24</title>
<g id="a_node24"><a xlink:title=" ">
<polygon fill="none" stroke="#bfbfbf" points="1207.5,-0.5 1207.5,-30.5 1311.5,-30.5 1311.5,-0.5 1207.5,-0.5"/>
<text text-anchor="start" x="1215.5" y="-18.5" font-family="Helvetica,sans-Serif" font-size="10.00">boost/archive/binary</text>
<text text-anchor="middle" x="1259.5" y="-7.5" font-family="Helvetica,sans-Serif" font-size="10.00">_oarchive.hpp</text>
</a>
</g>
</g>
<!-- Node21&#45;&gt;Node24 -->
<g id="edge28" class="edge">
<title>Node21&#45;&gt;Node24</title>
<path fill="none" stroke="midnightblue" d="M1130.29,-72.87C1152.55,-63.16 1189.33,-47.11 1217.98,-34.61"/>
<polygon fill="midnightblue" stroke="midnightblue" points="1219.58,-37.73 1227.34,-30.53 1216.78,-31.32 1219.58,-37.73"/>
</g>
<!-- Node25 -->
<g id="node25" class="node">
<title>Node25</title>
<g id="a_node25"><a xlink:title=" ">
<polygon fill="none" stroke="#bfbfbf" points="1330,-6 1330,-25 1387,-25 1387,-6 1330,-6"/>
<text text-anchor="middle" x="1358.5" y="-13" font-family="Helvetica,sans-Serif" font-size="10.00">Color.hpp</text>
</a>
</g>
</g>
<!-- Node21&#45;&gt;Node25 -->
<g id="edge29" class="edge">
<title>Node21&#45;&gt;Node25</title>
<path fill="none" stroke="midnightblue" d="M1153.17,-72.92C1195.91,-63.94 1263.37,-48.69 1320.5,-31 1322.92,-30.25 1325.41,-29.43 1327.9,-28.56"/>
<polygon fill="midnightblue" stroke="midnightblue" points="1329.17,-31.83 1337.36,-25.12 1326.77,-25.25 1329.17,-31.83"/>
</g>
<!-- Node26 -->
<g id="node26" class="node">
<title>Node26</title>
<g id="a_node26"><a xlink:title=" ">
<polygon fill="none" stroke="#bfbfbf" points="1405,-6 1405,-25 1484,-25 1484,-6 1405,-6"/>
<text text-anchor="middle" x="1444.5" y="-13" font-family="Helvetica,sans-Serif" font-size="10.00">Transform.hpp</text>
</a>
</g>
</g>
<!-- Node21&#45;&gt;Node26 -->
<g id="edge30" class="edge">
<title>Node21&#45;&gt;Node26</title>
<path fill="none" stroke="midnightblue" d="M1161.24,-74.4C1218.71,-65.93 1314.96,-50.44 1396.5,-31 1400.39,-30.07 1404.43,-29.01 1408.44,-27.89"/>
<polygon fill="midnightblue" stroke="midnightblue" points="1409.62,-31.2 1418.25,-25.04 1407.67,-24.47 1409.62,-31.2"/>
</g>
<!-- Node27 -->
<g id="node27" class="node">
<title>Node27</title>
<g id="a_node27"><a xlink:title=" ">
<polygon fill="none" stroke="#bfbfbf" points="993.5,-6 993.5,-25 1067.5,-25 1067.5,-6 993.5,-6"/>
<text text-anchor="middle" x="1030.5" y="-13" font-family="Helvetica,sans-Serif" font-size="10.00">UIObject.hpp</text>
</a>
</g>
</g>
<!-- Node21&#45;&gt;Node27 -->
<g id="edge31" class="edge">
<title>Node21&#45;&gt;Node27</title>
<path fill="none" stroke="midnightblue" d="M1099.71,-72.73C1086.76,-62.21 1064.81,-44.38 1049.11,-31.62"/>
<polygon fill="midnightblue" stroke="midnightblue" points="1051.09,-28.72 1041.12,-25.13 1046.67,-34.15 1051.09,-28.72"/>
</g>
<!-- Node29&#45;&gt;Node19 -->
<g id="edge40" class="edge">
<title>Node29&#45;&gt;Node19</title>
<path fill="none" stroke="midnightblue" d="M1202.95,-202.85C1198.43,-202.15 1193.87,-201.51 1189.5,-201 936.52,-171.24 870.62,-193.51 617.5,-165 607.13,-163.83 596.12,-162.29 585.51,-160.64"/>
<polygon fill="midnightblue" stroke="midnightblue" points="585.92,-157.16 575.49,-159.05 584.82,-164.08 585.92,-157.16"/>
</g>
<!-- Node29&#45;&gt;Node21 -->
<g id="edge51" class="edge">
<title>Node29&#45;&gt;Node21</title>
<path fill="none" stroke="midnightblue" d="M1280.12,-209.7C1358.59,-207.8 1524.85,-196.51 1470.5,-134 1432.43,-90.22 1263.35,-83.28 1171.08,-82.84"/>
<polygon fill="midnightblue" stroke="midnightblue" points="1171.05,-79.34 1161.04,-82.82 1171.03,-86.34 1171.05,-79.34"/>
</g>
<!-- Node29&#45;&gt;Node22 -->
<g id="edge37" class="edge">
<title>Node29&#45;&gt;Node22</title>
<path fill="none" stroke="midnightblue" d="M1280.31,-207.97C1342.3,-203.92 1459.72,-192.74 1489.5,-165 1526.1,-130.92 1529.44,-66.85 1528.63,-35.19"/>
<polygon fill="midnightblue" stroke="midnightblue" points="1532.12,-34.95 1528.2,-25.1 1525.13,-35.25 1532.12,-34.95"/>
</g>
<!-- Node30 -->
<g id="node30" class="node">
<title>Node30</title>
<g id="a_node30"><a xlink:title=" ">
<polygon fill="none" stroke="#bfbfbf" points="1556,-140 1556,-159 1615,-159 1615,-140 1556,-140"/>
<text text-anchor="middle" x="1585.5" y="-147" font-family="Helvetica,sans-Serif" font-size="10.00">functional</text>
</a>
</g>
</g>
<!-- Node29&#45;&gt;Node30 -->
<g id="edge35" class="edge">
<title>Node29&#45;&gt;Node30</title>
<path fill="none" stroke="midnightblue" d="M1280.26,-206.31C1337.81,-200.35 1449.02,-187.01 1541.5,-165 1544.97,-164.17 1548.56,-163.2 1552.12,-162.15"/>
<polygon fill="midnightblue" stroke="midnightblue" points="1553.46,-165.4 1561.96,-159.07 1551.37,-158.72 1553.46,-165.4"/>
</g>
<!-- Node31 -->
<g id="node31" class="node">
<title>Node31</title>
<g id="a_node31"><a xlink:title=" ">
<polygon fill="none" stroke="#bfbfbf" points="1112,-140 1112,-159 1147,-159 1147,-140 1112,-140"/>
<text text-anchor="middle" x="1129.5" y="-147" font-family="Helvetica,sans-Serif" font-size="10.00">map</text>
</a>
</g>
</g>
<!-- Node29&#45;&gt;Node31 -->
<g id="edge36" class="edge">
<title>Node29&#45;&gt;Node31</title>
<path fill="none" stroke="midnightblue" d="M1225.19,-201.4C1208.07,-192.37 1180.37,-177.73 1156.5,-165 1155.83,-164.64 1155.15,-164.28 1154.47,-163.92"/>
<polygon fill="midnightblue" stroke="midnightblue" points="1155.95,-160.74 1145.48,-159.1 1152.64,-166.91 1155.95,-160.74"/>
</g>
<!-- Node32 -->
<g id="node32" class="node">
<title>Node32</title>
<g id="a_node32"><a xlink:title=" ">
<polygon fill="none" stroke="#bfbfbf" points="1165.5,-140 1165.5,-159 1317.5,-159 1317.5,-140 1165.5,-140"/>
<text text-anchor="middle" x="1241.5" y="-147" font-family="Helvetica,sans-Serif" font-size="10.00">Builder/GameObjectBuilder.hpp</text>
</a>
</g>
</g>
<!-- Node29&#45;&gt;Node32 -->
<g id="edge38" class="edge">
<title>Node29&#45;&gt;Node32</title>
<path fill="none" stroke="midnightblue" d="M1241.5,-201.48C1241.5,-193.08 1241.5,-179.98 1241.5,-169.16"/>
<polygon fill="midnightblue" stroke="midnightblue" points="1245,-169.01 1241.5,-159.01 1238,-169.01 1245,-169.01"/>
</g>
<!-- Node33 -->
<g id="node33" class="node">
<title>Node33</title>
<g id="a_node33"><a xlink:title=" ">
<polygon fill="none" stroke="#bfbfbf" points="1336,-140 1336,-159 1461,-159 1461,-140 1336,-140"/>
<text text-anchor="middle" x="1398.5" y="-147" font-family="Helvetica,sans-Serif" font-size="10.00">Builder/SceneBuilder.hpp</text>
</a>
</g>
</g>
<!-- Node29&#45;&gt;Node33 -->
<g id="edge39" class="edge">
<title>Node29&#45;&gt;Node33</title>
<path fill="none" stroke="midnightblue" d="M1263.99,-201.48C1290.81,-191.31 1335.82,-174.26 1366.31,-162.7"/>
<polygon fill="midnightblue" stroke="midnightblue" points="1367.94,-165.83 1376.05,-159.01 1365.46,-159.28 1367.94,-165.83"/>
</g>
<!-- Node34 -->
<g id="node34" class="node">
<title>Node34</title>
<g id="a_node34"><a xlink:href="CoinBehaviour_8hpp.html" target="_top" xlink:title=" ">
<polygon fill="none" stroke="black" points="924,-140 924,-159 1055,-159 1055,-140 924,-140"/>
<text text-anchor="middle" x="989.5" y="-147" font-family="Helvetica,sans-Serif" font-size="10.00">Scripts/CoinBehaviour.hpp</text>
</a>
</g>
</g>
<!-- Node29&#45;&gt;Node34 -->
<g id="edge41" class="edge">
<title>Node29&#45;&gt;Node34</title>
<path fill="none" stroke="midnightblue" d="M1205.39,-201.48C1160.67,-190.92 1084.42,-172.91 1035.53,-161.37"/>
<polygon fill="midnightblue" stroke="midnightblue" points="1036.08,-157.9 1025.54,-159.01 1034.47,-164.71 1036.08,-157.9"/>
</g>
<!-- Node35 -->
<g id="node35" class="node">
<title>Node35</title>
<g id="a_node35"><a xlink:href="FlagBehaviour_8hpp.html" target="_top" xlink:title=" ">
<polygon fill="none" stroke="black" points="626,-140 626,-159 757,-159 757,-140 626,-140"/>
<text text-anchor="middle" x="691.5" y="-147" font-family="Helvetica,sans-Serif" font-size="10.00">Scripts/FlagBehaviour.hpp</text>
</a>
</g>
</g>
<!-- Node29&#45;&gt;Node35 -->
<g id="edge47" class="edge">
<title>Node29&#45;&gt;Node35</title>
<path fill="none" stroke="midnightblue" d="M1202.94,-202.94C1198.42,-202.23 1193.86,-201.56 1189.5,-201 1002.37,-176.89 953.39,-190.94 766.5,-165 758.38,-163.87 749.8,-162.44 741.46,-160.92"/>
<polygon fill="midnightblue" stroke="midnightblue" points="741.93,-157.45 731.46,-159.04 740.64,-164.33 741.93,-157.45"/>
</g>
<!-- Node36 -->
<g id="node36" class="node">
<title>Node36</title>
<g id="a_node36"><a xlink:href="StarBehaviour_8hpp.html" target="_top" xlink:title=" ">
<polygon fill="none" stroke="black" points="775.5,-140 775.5,-159 905.5,-159 905.5,-140 775.5,-140"/>
<text text-anchor="middle" x="840.5" y="-147" font-family="Helvetica,sans-Serif" font-size="10.00">Scripts/StarBehaviour.hpp</text>
</a>
</g>
</g>
<!-- Node29&#45;&gt;Node36 -->
<g id="edge49" class="edge">
<title>Node29&#45;&gt;Node36</title>
<path fill="none" stroke="midnightblue" d="M1202.91,-203.14C1198.39,-202.39 1193.85,-201.66 1189.5,-201 1068.07,-182.52 1036.74,-184.67 915.5,-165 907.86,-163.76 899.81,-162.33 891.92,-160.87"/>
<polygon fill="midnightblue" stroke="midnightblue" points="892.55,-157.42 882.07,-159 891.25,-164.3 892.55,-157.42"/>
</g>
<!-- Node34&#45;&gt;Node11 -->
<g id="edge42" class="edge">
<title>Node34&#45;&gt;Node11</title>
<path fill="none" stroke="midnightblue" d="M961.88,-139.87C925.02,-128.35 859.65,-107.92 818.55,-95.08"/>
<polygon fill="midnightblue" stroke="midnightblue" points="819.49,-91.71 808.9,-92.06 817.4,-98.39 819.49,-91.71"/>
</g>
<!-- Node34&#45;&gt;Node13 -->
<g id="edge44" class="edge">
<title>Node34&#45;&gt;Node13</title>
<path fill="none" stroke="midnightblue" d="M985.43,-139.84C976.04,-119.85 952.58,-69.9 938.57,-40.06"/>
<polygon fill="midnightblue" stroke="midnightblue" points="941.63,-38.35 934.21,-30.78 935.29,-41.32 941.63,-38.35"/>
</g>
<!-- Node34&#45;&gt;Node14 -->
<g id="edge45" class="edge">
<title>Node34&#45;&gt;Node14</title>
<path fill="none" stroke="midnightblue" d="M967.88,-139.94C945.74,-130.81 910.69,-115.29 882.5,-98 863.33,-86.24 862.22,-77.81 842.5,-67 816.32,-52.64 785.26,-41.01 758.96,-32.54"/>
<polygon fill="midnightblue" stroke="midnightblue" points="759.72,-29.11 749.13,-29.45 757.62,-35.78 759.72,-29.11"/>
</g>
<!-- Node34&#45;&gt;Node15 -->
<g id="edge46" class="edge">
<title>Node34&#45;&gt;Node15</title>
<path fill="none" stroke="midnightblue" d="M978.29,-139.89C958.84,-124.97 917.58,-93.39 882.5,-67 869.13,-56.95 854.22,-45.86 841.77,-36.64"/>
<polygon fill="midnightblue" stroke="midnightblue" points="843.72,-33.72 833.6,-30.59 839.55,-39.35 843.72,-33.72"/>
</g>
<!-- Node34&#45;&gt;Node21 -->
<g id="edge43" class="edge">
<title>Node34&#45;&gt;Node21</title>
<path fill="none" stroke="midnightblue" d="M1005.82,-139.73C1026.32,-128.72 1061.7,-109.71 1085.59,-96.88"/>
<polygon fill="midnightblue" stroke="midnightblue" points="1087.29,-99.94 1094.44,-92.13 1083.97,-93.78 1087.29,-99.94"/>
</g>
<!-- Node35&#45;&gt;Node11 -->
<g id="edge48" class="edge">
<title>Node35&#45;&gt;Node11</title>
<path fill="none" stroke="midnightblue" d="M703.64,-139.73C718.35,-129.11 743.36,-111.05 761.06,-98.26"/>
<polygon fill="midnightblue" stroke="midnightblue" points="763.5,-100.82 769.55,-92.13 759.4,-95.14 763.5,-100.82"/>
</g>
<!-- Node36&#45;&gt;Node11 -->
<g id="edge50" class="edge">
<title>Node36&#45;&gt;Node11</title>
<path fill="none" stroke="midnightblue" d="M832.54,-139.73C823.25,-129.5 807.7,-112.36 796.2,-99.69"/>
<polygon fill="midnightblue" stroke="midnightblue" points="798.64,-97.18 789.33,-92.13 793.46,-101.88 798.64,-97.18"/>
</g>
</g>
</svg>
        <g id="navigator" transform="translate(0 0)" fill="#404254">
                <rect fill="#f2f5e9" fill-opacity="0.5" stroke="#606060" stroke-width=".5" x="0" y="0" width="60" height="60"/>
                <use id="zoomplus" xlink:href="#zoomPlus" x="17" y="9" onmousedown="handleZoom(evt,'in')"/>
                <use id="zoomminus" xlink:href="#zoomMin" x="42" y="9" onmousedown="handleZoom(evt,'out')"/>
                <use id="reset" xlink:href="#resetDef" x="30" y="36" onmousedown="handleReset()"/>
                <g id="arrowUp" xlink:href="#dirArrow" transform="translate(30 24)" onmousedown="handlePan(0,-1)">
                  <use xlink:href="#rim" fill="#404040">
                        <set attributeName="fill" to="#808080" begin="arrowUp.mouseover" end="arrowUp.mouseout"/>
                  </use>
                  <path fill="none" stroke="white" stroke-width="1.5" d="M0,-3.0v7 M-2.5,-0.5L0,-3.0L2.5,-0.5"/>
                </g>
                <g id="arrowRight" xlink:href="#dirArrow" transform="rotate(90) translate(36 -43)" onmousedown="handlePan(1,0)">
                  <use xlink:href="#rim" fill="#404040">
                        <set attributeName="fill" to="#808080" begin="arrowRight.mouseover" end="arrowRight.mouseout"/>
                  </use>
                  <path fill="none" stroke="white" stroke-width="1.5" d="M0,-3.0v7 M-2.5,-0.5L0,-3.0L2.5,-0.5"/>
                </g>
                <g id="arrowDown" xlink:href="#dirArrow" transform="rotate(180) translate(-30 -48)" onmousedown="handlePan(0,1)">
                  <use xlink:href="#rim" fill="#404040">
                        <set attributeName="fill" to="#808080" begin="arrowDown.mouseover" end="arrowDown.mouseout"/>
                  </use>
                  <path fill="none" stroke="white" stroke-width="1.5" d="M0,-3.0v7 M-2.5,-0.5L0,-3.0L2.5,-0.5"/>
                </g>
                <g id="arrowLeft" xlink:href="#dirArrow" transform="rotate(270) translate(-36 17)" onmousedown="handlePan(-1,0)">
                  <use xlink:href="#rim" fill="#404040">
                        <set attributeName="fill" to="#808080" begin="arrowLeft.mouseover" end="arrowLeft.mouseout"/>
                  </use>
                  <path fill="none" stroke="white" stroke-width="1.5" d="M0,-3.0v7 M-2.5,-0.5L0,-3.0L2.5,-0.5"/>
                </g>
        </g>
        <svg viewBox="0 0 15 15" width="100%" height="30px" preserveAspectRatio="xMaxYMin meet">
         <g id="arrow_out" transform="scale(0.3 0.3)">
          <a xlink:href="Level2_8cpp__incl_org.svg" target="_base">
           <rect id="button" ry="5" rx="5" y="6" x="6" height="38" width="38"
                fill="#f2f5e9" fill-opacity="0.5" stroke="#606060" stroke-width="1.0"/>
           <path id="arrow"
             d="M 11.500037,31.436501 C 11.940474,20.09759 22.043105,11.32322 32.158766,21.979434 L 37.068811,17.246167 C 37.068811,17.246167 37.088388,32 37.088388,32 L 22.160133,31.978069 C 22.160133,31.978069 26.997745,27.140456 26.997745,27.140456 C 18.528582,18.264221 13.291696,25.230495 11.500037,31.436501 z"
             style="fill:#404040;"/>
          </a>
         </g>
        </svg>
</svg>
