<?xml version="1.0" encoding="UTF-8" standalone="no"?>
<!DOCTYPE svg PUBLIC "-//W3C//DTD SVG 1.1//EN"
 "http://www.w3.org/Graphics/SVG/1.1/DTD/svg11.dtd">
<!-- Generated by graphviz version 2.44.0 ()
 -->
<!-- Title: src/Game/Levels/Level1.cpp Pages: 1 -->
<svg width="1570pt" height="274pt"
 viewBox="0.00 0.00 1570.00 274.00" xmlns="http://www.w3.org/2000/svg" xmlns:xlink="http://www.w3.org/1999/xlink">
<g id="graph0" class="graph" transform="scale(1 1) rotate(0) translate(4 270)">
<title>src/Game/Levels/Level1.cpp</title>
<!-- Node1 -->
<g id="node1" class="node">
<title>Node1</title>
<g id="a_node1"><a xlink:title=" ">
<polygon fill="#bfbfbf" stroke="black" points="882,-246.5 882,-265.5 1024,-265.5 1024,-246.5 882,-246.5"/>
<text text-anchor="middle" x="953" y="-253.5" font-family="Helvetica,sans-Serif" font-size="10.00">src/Game/Levels/Level1.cpp</text>
</a>
</g>
</g>
<!-- Node2 -->
<g id="node2" class="node">
<title>Node2</title>
<g id="a_node2"><a xlink:href="Level1_8hpp.html" target="_top" xlink:title=" ">
<polygon fill="none" stroke="black" points="218,-185 218,-204 282,-204 282,-185 218,-185"/>
<text text-anchor="middle" x="250" y="-192" font-family="Helvetica,sans-Serif" font-size="10.00">Level1.hpp</text>
</a>
</g>
</g>
<!-- Node1&#45;&gt;Node2 -->
<g id="edge1" class="edge">
<title>Node1&#45;&gt;Node2</title>
<path fill="none" stroke="midnightblue" d="M881.72,-248.97C736.19,-236.65 408.79,-208.94 292.21,-199.07"/>
<polygon fill="midnightblue" stroke="midnightblue" points="292.5,-195.58 282.24,-198.23 291.91,-202.56 292.5,-195.58"/>
</g>
<!-- Node4 -->
<g id="node4" class="node">
<title>Node4</title>
<g id="a_node4"><a xlink:title=" ">
<polygon fill="none" stroke="#bfbfbf" points="470.5,-185 470.5,-204 631.5,-204 631.5,-185 470.5,-185"/>
<text text-anchor="middle" x="551" y="-192" font-family="Helvetica,sans-Serif" font-size="10.00">Behaviour/CollisionBehaviour.hpp</text>
</a>
</g>
</g>
<!-- Node1&#45;&gt;Node4 -->
<g id="edge3" class="edge">
<title>Node1&#45;&gt;Node4</title>
<path fill="none" stroke="midnightblue" d="M894.13,-246.48C832.32,-237.5 732.31,-222.91 646,-210 636.51,-208.58 626.49,-207.07 616.65,-205.57"/>
<polygon fill="midnightblue" stroke="midnightblue" points="616.91,-202.07 606.5,-204.03 615.86,-208.99 616.91,-202.07"/>
</g>
<!-- Node5 -->
<g id="node5" class="node">
<title>Node5</title>
<g id="a_node5"><a xlink:title=" ">
<polygon fill="none" stroke="#bfbfbf" points="80,-123.5 80,-142.5 240,-142.5 240,-123.5 80,-123.5"/>
<text text-anchor="middle" x="160" y="-130.5" font-family="Helvetica,sans-Serif" font-size="10.00">Director/GameObjectDirector.hpp</text>
</a>
</g>
</g>
<!-- Node1&#45;&gt;Node5 -->
<g id="edge4" class="edge">
<title>Node1&#45;&gt;Node5</title>
<path fill="none" stroke="midnightblue" d="M881.81,-253.11C824.79,-249.33 743.9,-238.76 679,-210 658.76,-201.03 660.55,-187.25 640,-179 561.79,-147.61 350.94,-151.1 250.31,-143.03"/>
<polygon fill="midnightblue" stroke="midnightblue" points="250.32,-139.52 240.05,-142.13 249.71,-146.49 250.32,-139.52"/>
</g>
<!-- Node6 -->
<g id="node6" class="node">
<title>Node6</title>
<g id="a_node6"><a xlink:title=" ">
<polygon fill="none" stroke="#bfbfbf" points="1238,-185 1238,-204 1334,-204 1334,-185 1238,-185"/>
<text text-anchor="middle" x="1286" y="-192" font-family="Helvetica,sans-Serif" font-size="10.00">Engine/Engine.hpp</text>
</a>
</g>
</g>
<!-- Node1&#45;&gt;Node6 -->
<g id="edge5" class="edge">
<title>Node1&#45;&gt;Node6</title>
<path fill="none" stroke="midnightblue" d="M1014.95,-246.48C1071.07,-238.39 1155.92,-225.22 1229,-210 1234.06,-208.95 1239.34,-207.74 1244.56,-206.49"/>
<polygon fill="midnightblue" stroke="midnightblue" points="1245.59,-209.84 1254.46,-204.05 1243.91,-203.05 1245.59,-209.84"/>
</g>
<!-- Node7 -->
<g id="node7" class="node">
<title>Node7</title>
<g id="a_node7"><a xlink:href="DynamicAnimationBehaviour_8hpp.html" target="_top" xlink:title=" ">
<polygon fill="none" stroke="black" points="934.5,-179.5 934.5,-209.5 1065.5,-209.5 1065.5,-179.5 934.5,-179.5"/>
<text text-anchor="start" x="942.5" y="-197.5" font-family="Helvetica,sans-Serif" font-size="10.00">Scripts/DynamicAnimation</text>
<text text-anchor="middle" x="1000" y="-186.5" font-family="Helvetica,sans-Serif" font-size="10.00">Behaviour.hpp</text>
</a>
</g>
</g>
<!-- Node1&#45;&gt;Node7 -->
<g id="edge6" class="edge">
<title>Node1&#45;&gt;Node7</title>
<path fill="none" stroke="midnightblue" d="M959.73,-246.48C965.68,-238.94 974.62,-227.63 982.57,-217.57"/>
<polygon fill="midnightblue" stroke="midnightblue" points="985.47,-219.54 988.92,-209.52 979.98,-215.2 985.47,-219.54"/>
</g>
<!-- Node10 -->
<g id="node10" class="node">
<title>Node10</title>
<g id="a_node10"><a xlink:href="PlayerInputBehaviour_8hpp.html" target="_top" xlink:title=" ">
<polygon fill="none" stroke="black" points="888.5,-123.5 888.5,-142.5 1049.5,-142.5 1049.5,-123.5 888.5,-123.5"/>
<text text-anchor="middle" x="969" y="-130.5" font-family="Helvetica,sans-Serif" font-size="10.00">Scripts/PlayerInputBehaviour.hpp</text>
</a>
</g>
</g>
<!-- Node1&#45;&gt;Node10 -->
<g id="edge9" class="edge">
<title>Node1&#45;&gt;Node10</title>
<path fill="none" stroke="midnightblue" d="M945.59,-246.41C938.72,-237.84 928.99,-223.98 925,-210 921.21,-196.75 919.8,-191.76 925,-179 929.8,-167.23 939.33,-156.86 948.29,-149.05"/>
<polygon fill="midnightblue" stroke="midnightblue" points="950.65,-151.64 956.22,-142.63 946.25,-146.2 950.65,-151.64"/>
</g>
<!-- Node13 -->
<g id="node13" class="node">
<title>Node13</title>
<g id="a_node13"><a xlink:href="TileConfig_8hpp.html" target="_top" xlink:title=" ">
<polygon fill="none" stroke="black" points="688.5,-185 688.5,-204 765.5,-204 765.5,-185 688.5,-185"/>
<text text-anchor="middle" x="727" y="-192" font-family="Helvetica,sans-Serif" font-size="10.00">TileConfig.hpp</text>
</a>
</g>
</g>
<!-- Node1&#45;&gt;Node13 -->
<g id="edge13" class="edge">
<title>Node1&#45;&gt;Node13</title>
<path fill="none" stroke="midnightblue" d="M920.62,-246.48C880.76,-235.98 812.98,-218.14 769.11,-206.59"/>
<polygon fill="midnightblue" stroke="midnightblue" points="769.88,-203.17 759.32,-204.01 768.1,-209.94 769.88,-203.17"/>
</g>
<!-- Node28 -->
<g id="node28" class="node">
<title>Node28</title>
<g id="a_node28"><a xlink:title=" ">
<polygon fill="none" stroke="#bfbfbf" points="1352.5,-185 1352.5,-204 1453.5,-204 1453.5,-185 1352.5,-185"/>
<text text-anchor="middle" x="1403" y="-192" font-family="Helvetica,sans-Serif" font-size="10.00">UI/FPSCounter.hpp</text>
</a>
</g>
</g>
<!-- Node1&#45;&gt;Node28 -->
<g id="edge37" class="edge">
<title>Node1&#45;&gt;Node28</title>
<path fill="none" stroke="midnightblue" d="M1024.19,-249.42C1102.66,-242.65 1232.45,-229.66 1343,-210 1348.81,-208.97 1354.9,-207.71 1360.88,-206.36"/>
<polygon fill="midnightblue" stroke="midnightblue" points="1361.83,-209.74 1370.77,-204.06 1360.23,-202.92 1361.83,-209.74"/>
</g>
<!-- Node29 -->
<g id="node29" class="node">
<title>Node29</title>
<g id="a_node29"><a xlink:title=" ">
<polygon fill="none" stroke="#bfbfbf" points="1472,-185 1472,-204 1562,-204 1562,-185 1472,-185"/>
<text text-anchor="middle" x="1517" y="-192" font-family="Helvetica,sans-Serif" font-size="10.00">AudioSource.hpp</text>
</a>
</g>
</g>
<!-- Node1&#45;&gt;Node29 -->
<g id="edge38" class="edge">
<title>Node1&#45;&gt;Node29</title>
<path fill="none" stroke="midnightblue" d="M1024.05,-252.64C1123.06,-248.47 1307.86,-237.46 1463,-210 1468.18,-209.08 1473.6,-207.9 1478.9,-206.61"/>
<polygon fill="midnightblue" stroke="midnightblue" points="1480.09,-209.92 1488.9,-204.04 1478.35,-203.14 1480.09,-209.92"/>
</g>
<!-- Node30 -->
<g id="node30" class="node">
<title>Node30</title>
<g id="a_node30"><a xlink:href="MarioBehaviour_8hpp.html" target="_top" xlink:title=" ">
<polygon fill="none" stroke="black" points="1084,-185 1084,-204 1220,-204 1220,-185 1084,-185"/>
<text text-anchor="middle" x="1152" y="-192" font-family="Helvetica,sans-Serif" font-size="10.00">Scripts/MarioBehaviour.hpp</text>
</a>
</g>
</g>
<!-- Node1&#45;&gt;Node30 -->
<g id="edge39" class="edge">
<title>Node1&#45;&gt;Node30</title>
<path fill="none" stroke="midnightblue" d="M981.51,-246.48C1016.24,-236.09 1075.04,-218.51 1113.69,-206.95"/>
<polygon fill="midnightblue" stroke="midnightblue" points="1114.96,-210.23 1123.54,-204.01 1112.96,-203.52 1114.96,-210.23"/>
</g>
<!-- Node3 -->
<g id="node3" class="node">
<title>Node3</title>
<g id="a_node3"><a xlink:title=" ">
<polygon fill="none" stroke="#bfbfbf" points="0,-123.5 0,-142.5 62,-142.5 62,-123.5 0,-123.5"/>
<text text-anchor="middle" x="31" y="-130.5" font-family="Helvetica,sans-Serif" font-size="10.00">Scene.hpp</text>
</a>
</g>
</g>
<!-- Node2&#45;&gt;Node3 -->
<g id="edge2" class="edge">
<title>Node2&#45;&gt;Node3</title>
<path fill="none" stroke="midnightblue" d="M218.62,-184.98C180.08,-174.5 114.59,-156.71 72.08,-145.16"/>
<polygon fill="midnightblue" stroke="midnightblue" points="72.89,-141.75 62.32,-142.51 71.05,-148.51 72.89,-141.75"/>
</g>
<!-- Node8 -->
<g id="node8" class="node">
<title>Node8</title>
<g id="a_node8"><a xlink:title=" ">
<polygon fill="none" stroke="#bfbfbf" points="1081,-67.5 1081,-86.5 1185,-86.5 1185,-67.5 1081,-67.5"/>
<text text-anchor="middle" x="1133" y="-74.5" font-family="Helvetica,sans-Serif" font-size="10.00">BehaviourScript.hpp</text>
</a>
</g>
</g>
<!-- Node7&#45;&gt;Node8 -->
<g id="edge7" class="edge">
<title>Node7&#45;&gt;Node8</title>
<path fill="none" stroke="midnightblue" d="M1065.55,-179.62C1124.8,-166.77 1203.45,-148.79 1208,-143 1224.48,-122.04 1193.63,-102.67 1166.65,-90.62"/>
<polygon fill="midnightblue" stroke="midnightblue" points="1167.92,-87.36 1157.35,-86.68 1165.19,-93.81 1167.92,-87.36"/>
</g>
<!-- Node9 -->
<g id="node9" class="node">
<title>Node9</title>
<g id="a_node9"><a xlink:title=" ">
<polygon fill="none" stroke="#bfbfbf" points="1255.5,-123.5 1255.5,-142.5 1392.5,-142.5 1392.5,-123.5 1255.5,-123.5"/>
<text text-anchor="middle" x="1324" y="-130.5" font-family="Helvetica,sans-Serif" font-size="10.00">Texture/AnimatedSprite.hpp</text>
</a>
</g>
</g>
<!-- Node7&#45;&gt;Node9 -->
<g id="edge8" class="edge">
<title>Node7&#45;&gt;Node9</title>
<path fill="none" stroke="midnightblue" d="M1065.84,-180.72C1068.94,-180.14 1072,-179.56 1075,-179 1140.24,-166.8 1215.21,-153.32 1265.69,-144.33"/>
<polygon fill="midnightblue" stroke="midnightblue" points="1266.54,-147.74 1275.77,-142.54 1265.31,-140.84 1266.54,-147.74"/>
</g>
<!-- Node10&#45;&gt;Node8 -->
<g id="edge10" class="edge">
<title>Node10&#45;&gt;Node8</title>
<path fill="none" stroke="midnightblue" d="M994.99,-123.44C1022.7,-114.32 1066.75,-99.81 1097.62,-89.65"/>
<polygon fill="midnightblue" stroke="midnightblue" points="1098.73,-92.97 1107.14,-86.52 1096.54,-86.32 1098.73,-92.97"/>
</g>
<!-- Node11 -->
<g id="node11" class="node">
<title>Node11</title>
<g id="a_node11"><a xlink:title=" ">
<polygon fill="none" stroke="#bfbfbf" points="795.5,-0.5 795.5,-30.5 890.5,-30.5 890.5,-0.5 795.5,-0.5"/>
<text text-anchor="start" x="803.5" y="-18.5" font-family="Helvetica,sans-Serif" font-size="10.00">boost/serialization</text>
<text text-anchor="middle" x="843" y="-7.5" font-family="Helvetica,sans-Serif" font-size="10.00">/access.hpp</text>
</a>
</g>
</g>
<!-- Node10&#45;&gt;Node11 -->
<g id="edge11" class="edge">
<title>Node10&#45;&gt;Node11</title>
<path fill="none" stroke="midnightblue" d="M959.53,-123.32C939.84,-105.27 894,-63.25 866.04,-37.62"/>
<polygon fill="midnightblue" stroke="midnightblue" points="868.06,-34.72 858.32,-30.55 863.33,-39.88 868.06,-34.72"/>
</g>
<!-- Node12 -->
<g id="node12" class="node">
<title>Node12</title>
<g id="a_node12"><a xlink:title=" ">
<polygon fill="none" stroke="#bfbfbf" points="908.5,-0.5 908.5,-30.5 1003.5,-30.5 1003.5,-0.5 908.5,-0.5"/>
<text text-anchor="start" x="916.5" y="-18.5" font-family="Helvetica,sans-Serif" font-size="10.00">boost/serialization</text>
<text text-anchor="middle" x="956" y="-7.5" font-family="Helvetica,sans-Serif" font-size="10.00">/export.hpp</text>
</a>
</g>
</g>
<!-- Node10&#45;&gt;Node12 -->
<g id="edge12" class="edge">
<title>Node10&#45;&gt;Node12</title>
<path fill="none" stroke="midnightblue" d="M968.02,-123.32C966.07,-105.97 961.62,-66.46 958.72,-40.66"/>
<polygon fill="midnightblue" stroke="midnightblue" points="962.18,-40.09 957.58,-30.55 955.22,-40.87 962.18,-40.09"/>
</g>
<!-- Node13&#45;&gt;Node5 -->
<g id="edge19" class="edge">
<title>Node13&#45;&gt;Node5</title>
<path fill="none" stroke="midnightblue" d="M699.44,-184.93C691.31,-182.69 682.36,-180.48 674,-179 490.55,-146.42 439.49,-160.05 250.06,-143.07"/>
<polygon fill="midnightblue" stroke="midnightblue" points="250.32,-139.58 240.05,-142.16 249.69,-146.55 250.32,-139.58"/>
</g>
<!-- Node14 -->
<g id="node14" class="node">
<title>Node14</title>
<g id="a_node14"><a xlink:title=" ">
<polygon fill="none" stroke="#bfbfbf" points="811.5,-123.5 811.5,-142.5 870.5,-142.5 870.5,-123.5 811.5,-123.5"/>
<text text-anchor="middle" x="841" y="-130.5" font-family="Helvetica,sans-Serif" font-size="10.00">functional</text>
</a>
</g>
</g>
<!-- Node13&#45;&gt;Node14 -->
<g id="edge14" class="edge">
<title>Node13&#45;&gt;Node14</title>
<path fill="none" stroke="midnightblue" d="M743.33,-184.98C762.21,-175.12 793.51,-158.79 815.58,-147.27"/>
<polygon fill="midnightblue" stroke="midnightblue" points="817.45,-150.24 824.7,-142.51 814.21,-144.03 817.45,-150.24"/>
</g>
<!-- Node15 -->
<g id="node15" class="node">
<title>Node15</title>
<g id="a_node15"><a xlink:title=" ">
<polygon fill="none" stroke="#bfbfbf" points="758.5,-123.5 758.5,-142.5 793.5,-142.5 793.5,-123.5 758.5,-123.5"/>
<text text-anchor="middle" x="776" y="-130.5" font-family="Helvetica,sans-Serif" font-size="10.00">map</text>
</a>
</g>
</g>
<!-- Node13&#45;&gt;Node15 -->
<g id="edge15" class="edge">
<title>Node13&#45;&gt;Node15</title>
<path fill="none" stroke="midnightblue" d="M734.02,-184.98C741.44,-175.96 753.33,-161.52 762.57,-150.31"/>
<polygon fill="midnightblue" stroke="midnightblue" points="765.34,-152.45 768.99,-142.51 759.93,-148 765.34,-152.45"/>
</g>
<!-- Node16 -->
<g id="node16" class="node">
<title>Node16</title>
<g id="a_node16"><a xlink:title=" ">
<polygon fill="none" stroke="#bfbfbf" points="103.5,-6 103.5,-25 154.5,-25 154.5,-6 103.5,-6"/>
<text text-anchor="middle" x="129" y="-13" font-family="Helvetica,sans-Serif" font-size="10.00">memory</text>
</a>
</g>
</g>
<!-- Node13&#45;&gt;Node16 -->
<g id="edge16" class="edge">
<title>Node13&#45;&gt;Node16</title>
<path fill="none" stroke="midnightblue" d="M697.97,-184.98C690.22,-182.87 681.83,-180.72 674,-179 578.5,-158.07 549.66,-174.16 457,-143 438.91,-136.92 436.46,-130.7 419,-123 308.76,-74.38 276.35,-74.51 164,-31 162.36,-30.36 160.67,-29.7 158.97,-29.02"/>
<polygon fill="midnightblue" stroke="midnightblue" points="159.88,-25.61 149.29,-25.09 157.24,-32.1 159.88,-25.61"/>
</g>
<!-- Node17 -->
<g id="node17" class="node">
<title>Node17</title>
<g id="a_node17"><a xlink:title=" ">
<polygon fill="none" stroke="#bfbfbf" points="258,-123.5 258,-142.5 410,-142.5 410,-123.5 258,-123.5"/>
<text text-anchor="middle" x="334" y="-130.5" font-family="Helvetica,sans-Serif" font-size="10.00">Builder/GameObjectBuilder.hpp</text>
</a>
</g>
</g>
<!-- Node13&#45;&gt;Node17 -->
<g id="edge17" class="edge">
<title>Node13&#45;&gt;Node17</title>
<path fill="none" stroke="midnightblue" d="M698.56,-184.96C690.66,-182.79 682.04,-180.62 674,-179 626.47,-169.4 501.79,-153.8 417.37,-143.72"/>
<polygon fill="midnightblue" stroke="midnightblue" points="417.62,-140.23 407.28,-142.52 416.8,-147.18 417.62,-140.23"/>
</g>
<!-- Node18 -->
<g id="node18" class="node">
<title>Node18</title>
<g id="a_node18"><a xlink:title=" ">
<polygon fill="none" stroke="#bfbfbf" points="615.5,-123.5 615.5,-142.5 740.5,-142.5 740.5,-123.5 615.5,-123.5"/>
<text text-anchor="middle" x="678" y="-130.5" font-family="Helvetica,sans-Serif" font-size="10.00">Builder/SceneBuilder.hpp</text>
</a>
</g>
</g>
<!-- Node13&#45;&gt;Node18 -->
<g id="edge18" class="edge">
<title>Node13&#45;&gt;Node18</title>
<path fill="none" stroke="midnightblue" d="M719.98,-184.98C712.56,-175.96 700.67,-161.52 691.43,-150.31"/>
<polygon fill="midnightblue" stroke="midnightblue" points="694.07,-148 685.01,-142.51 688.66,-152.45 694.07,-148"/>
</g>
<!-- Node19 -->
<g id="node19" class="node">
<title>Node19</title>
<g id="a_node19"><a xlink:href="CoinBehaviour_8hpp.html" target="_top" xlink:title=" ">
<polygon fill="none" stroke="black" points="466.5,-123.5 466.5,-142.5 597.5,-142.5 597.5,-123.5 466.5,-123.5"/>
<text text-anchor="middle" x="532" y="-130.5" font-family="Helvetica,sans-Serif" font-size="10.00">Scripts/CoinBehaviour.hpp</text>
</a>
</g>
</g>
<!-- Node13&#45;&gt;Node19 -->
<g id="edge20" class="edge">
<title>Node13&#45;&gt;Node19</title>
<path fill="none" stroke="midnightblue" d="M699.06,-184.98C665.03,-174.59 607.42,-157.01 569.54,-145.45"/>
<polygon fill="midnightblue" stroke="midnightblue" points="570.47,-142.08 559.89,-142.51 568.43,-148.78 570.47,-142.08"/>
</g>
<!-- Node27 -->
<g id="node27" class="node">
<title>Node27</title>
<g id="a_node27"><a xlink:href="FlagBehaviour_8hpp.html" target="_top" xlink:title=" ">
<polygon fill="none" stroke="black" points="1067.5,-123.5 1067.5,-142.5 1198.5,-142.5 1198.5,-123.5 1067.5,-123.5"/>
<text text-anchor="middle" x="1133" y="-130.5" font-family="Helvetica,sans-Serif" font-size="10.00">Scripts/FlagBehaviour.hpp</text>
</a>
</g>
</g>
<!-- Node13&#45;&gt;Node27 -->
<g id="edge35" class="edge">
<title>Node13&#45;&gt;Node27</title>
<path fill="none" stroke="midnightblue" d="M765.56,-187.85C834.39,-177.76 979.21,-156.54 1065.06,-143.96"/>
<polygon fill="midnightblue" stroke="midnightblue" points="1065.58,-147.42 1074.97,-142.5 1064.57,-140.49 1065.58,-147.42"/>
</g>
<!-- Node19&#45;&gt;Node8 -->
<g id="edge21" class="edge">
<title>Node19&#45;&gt;Node8</title>
<path fill="none" stroke="midnightblue" d="M597.75,-123.88C600.54,-123.57 603.3,-123.28 606,-123 773.83,-105.63 972.24,-90.01 1070.86,-82.58"/>
<polygon fill="midnightblue" stroke="midnightblue" points="1071.25,-86.06 1080.96,-81.82 1070.72,-79.08 1071.25,-86.06"/>
</g>
<!-- Node19&#45;&gt;Node11 -->
<g id="edge32" class="edge">
<title>Node19&#45;&gt;Node11</title>
<path fill="none" stroke="midnightblue" d="M555.12,-123.41C605.84,-104.58 727.72,-59.31 795.51,-34.14"/>
<polygon fill="midnightblue" stroke="midnightblue" points="796.94,-37.34 805.1,-30.58 794.51,-30.78 796.94,-37.34"/>
</g>
<!-- Node19&#45;&gt;Node12 -->
<g id="edge33" class="edge">
<title>Node19&#45;&gt;Node12</title>
<path fill="none" stroke="midnightblue" d="M563.52,-123.41C634.56,-104.06 807.99,-56.82 898.66,-32.12"/>
<polygon fill="midnightblue" stroke="midnightblue" points="899.77,-35.45 908.49,-29.44 897.93,-28.69 899.77,-35.45"/>
</g>
<!-- Node20 -->
<g id="node20" class="node">
<title>Node20</title>
<g id="a_node20"><a xlink:href="CoinCounter_8hpp.html" target="_top" xlink:title=" ">
<polygon fill="none" stroke="black" points="477.5,-67.5 477.5,-86.5 586.5,-86.5 586.5,-67.5 477.5,-67.5"/>
<text text-anchor="middle" x="532" y="-74.5" font-family="Helvetica,sans-Serif" font-size="10.00">../UI/CoinCounter.hpp</text>
</a>
</g>
</g>
<!-- Node19&#45;&gt;Node20 -->
<g id="edge22" class="edge">
<title>Node19&#45;&gt;Node20</title>
<path fill="none" stroke="midnightblue" d="M532,-123.08C532,-116.01 532,-105.86 532,-96.99"/>
<polygon fill="midnightblue" stroke="midnightblue" points="535.5,-96.75 532,-86.75 528.5,-96.75 535.5,-96.75"/>
</g>
<!-- Node21 -->
<g id="node21" class="node">
<title>Node21</title>
<g id="a_node21"><a xlink:title=" ">
<polygon fill="none" stroke="#bfbfbf" points="682.5,-0.5 682.5,-30.5 777.5,-30.5 777.5,-0.5 682.5,-0.5"/>
<text text-anchor="start" x="690.5" y="-18.5" font-family="Helvetica,sans-Serif" font-size="10.00">boost/serialization</text>
<text text-anchor="middle" x="730" y="-7.5" font-family="Helvetica,sans-Serif" font-size="10.00">/shared_ptr.hpp</text>
</a>
</g>
</g>
<!-- Node19&#45;&gt;Node21 -->
<g id="edge34" class="edge">
<title>Node19&#45;&gt;Node21</title>
<path fill="none" stroke="midnightblue" d="M546.88,-123.32C578.62,-104.8 653.6,-61.07 697.14,-35.67"/>
<polygon fill="midnightblue" stroke="midnightblue" points="699.05,-38.61 705.92,-30.55 695.52,-32.56 699.05,-38.61"/>
</g>
<!-- Node20&#45;&gt;Node11 -->
<g id="edge24" class="edge">
<title>Node20&#45;&gt;Node11</title>
<path fill="none" stroke="midnightblue" d="M586.73,-67.5C636.11,-59.56 710.93,-46.87 785.44,-31.02"/>
<polygon fill="midnightblue" stroke="midnightblue" points="786.43,-34.39 795.48,-28.87 784.96,-27.54 786.43,-34.39"/>
</g>
<!-- Node20&#45;&gt;Node12 -->
<g id="edge25" class="edge">
<title>Node20&#45;&gt;Node12</title>
<path fill="none" stroke="midnightblue" d="M586.74,-71.48C656.72,-65.21 781.73,-52.39 898.06,-31.02"/>
<polygon fill="midnightblue" stroke="midnightblue" points="899.01,-34.4 908.2,-29.13 897.73,-27.52 899.01,-34.4"/>
</g>
<!-- Node20&#45;&gt;Node16 -->
<g id="edge23" class="edge">
<title>Node20&#45;&gt;Node16</title>
<path fill="none" stroke="midnightblue" d="M477.3,-69.71C378.47,-58.28 178.94,-34.93 164,-31 161.55,-30.36 159.05,-29.58 156.56,-28.72"/>
<polygon fill="midnightblue" stroke="midnightblue" points="157.79,-25.44 147.2,-25.14 155.29,-31.98 157.79,-25.44"/>
</g>
<!-- Node20&#45;&gt;Node21 -->
<g id="edge26" class="edge">
<title>Node20&#45;&gt;Node21</title>
<path fill="none" stroke="midnightblue" d="M560.37,-67.48C589.82,-58.63 636.66,-44.55 673.67,-33.43"/>
<polygon fill="midnightblue" stroke="midnightblue" points="674.77,-36.75 683.34,-30.52 672.75,-30.05 674.77,-36.75"/>
</g>
<!-- Node22 -->
<g id="node22" class="node">
<title>Node22</title>
<g id="a_node22"><a xlink:title=" ">
<polygon fill="none" stroke="#bfbfbf" points="173,-0.5 173,-30.5 277,-30.5 277,-0.5 173,-0.5"/>
<text text-anchor="start" x="181" y="-18.5" font-family="Helvetica,sans-Serif" font-size="10.00">boost/archive/binary</text>
<text text-anchor="middle" x="225" y="-7.5" font-family="Helvetica,sans-Serif" font-size="10.00">_iarchive.hpp</text>
</a>
</g>
</g>
<!-- Node20&#45;&gt;Node22 -->
<g id="edge27" class="edge">
<title>Node20&#45;&gt;Node22</title>
<path fill="none" stroke="midnightblue" d="M480.96,-67.47C433.25,-59.31 359.78,-46.29 287,-31.15"/>
<polygon fill="midnightblue" stroke="midnightblue" points="287.71,-27.72 277.2,-29.1 286.27,-34.57 287.71,-27.72"/>
</g>
<!-- Node23 -->
<g id="node23" class="node">
<title>Node23</title>
<g id="a_node23"><a xlink:title=" ">
<polygon fill="none" stroke="#bfbfbf" points="295,-0.5 295,-30.5 399,-30.5 399,-0.5 295,-0.5"/>
<text text-anchor="start" x="303" y="-18.5" font-family="Helvetica,sans-Serif" font-size="10.00">boost/archive/binary</text>
<text text-anchor="middle" x="347" y="-7.5" font-family="Helvetica,sans-Serif" font-size="10.00">_oarchive.hpp</text>
</a>
</g>
</g>
<!-- Node20&#45;&gt;Node23 -->
<g id="edge28" class="edge">
<title>Node20&#45;&gt;Node23</title>
<path fill="none" stroke="midnightblue" d="M505.49,-67.48C478.21,-58.7 434.95,-44.79 400.52,-33.71"/>
<polygon fill="midnightblue" stroke="midnightblue" points="401.19,-30.25 390.6,-30.52 399.05,-36.92 401.19,-30.25"/>
</g>
<!-- Node24 -->
<g id="node24" class="node">
<title>Node24</title>
<g id="a_node24"><a xlink:title=" ">
<polygon fill="none" stroke="#bfbfbf" points="417.5,-6 417.5,-25 474.5,-25 474.5,-6 417.5,-6"/>
<text text-anchor="middle" x="446" y="-13" font-family="Helvetica,sans-Serif" font-size="10.00">Color.hpp</text>
</a>
</g>
</g>
<!-- Node20&#45;&gt;Node24 -->
<g id="edge29" class="edge">
<title>Node20&#45;&gt;Node24</title>
<path fill="none" stroke="midnightblue" d="M519.68,-67.48C505.88,-57.93 483.3,-42.31 466.77,-30.87"/>
<polygon fill="midnightblue" stroke="midnightblue" points="468.51,-27.82 458.3,-25.01 464.53,-33.58 468.51,-27.82"/>
</g>
<!-- Node25 -->
<g id="node25" class="node">
<title>Node25</title>
<g id="a_node25"><a xlink:title=" ">
<polygon fill="none" stroke="#bfbfbf" points="492.5,-6 492.5,-25 571.5,-25 571.5,-6 492.5,-6"/>
<text text-anchor="middle" x="532" y="-13" font-family="Helvetica,sans-Serif" font-size="10.00">Transform.hpp</text>
</a>
</g>
</g>
<!-- Node20&#45;&gt;Node25 -->
<g id="edge30" class="edge">
<title>Node20&#45;&gt;Node25</title>
<path fill="none" stroke="midnightblue" d="M532,-67.48C532,-59.08 532,-45.98 532,-35.16"/>
<polygon fill="midnightblue" stroke="midnightblue" points="535.5,-35.01 532,-25.01 528.5,-35.01 535.5,-35.01"/>
</g>
<!-- Node26 -->
<g id="node26" class="node">
<title>Node26</title>
<g id="a_node26"><a xlink:title=" ">
<polygon fill="none" stroke="#bfbfbf" points="590,-6 590,-25 664,-25 664,-6 590,-6"/>
<text text-anchor="middle" x="627" y="-13" font-family="Helvetica,sans-Serif" font-size="10.00">UIObject.hpp</text>
</a>
</g>
</g>
<!-- Node20&#45;&gt;Node26 -->
<g id="edge31" class="edge">
<title>Node20&#45;&gt;Node26</title>
<path fill="none" stroke="midnightblue" d="M545.61,-67.48C561.06,-57.8 586.49,-41.87 604.82,-30.39"/>
<polygon fill="midnightblue" stroke="midnightblue" points="606.8,-33.28 613.41,-25.01 603.08,-27.35 606.8,-33.28"/>
</g>
<!-- Node27&#45;&gt;Node8 -->
<g id="edge36" class="edge">
<title>Node27&#45;&gt;Node8</title>
<path fill="none" stroke="midnightblue" d="M1133,-123.08C1133,-116.01 1133,-105.86 1133,-96.99"/>
<polygon fill="midnightblue" stroke="midnightblue" points="1136.5,-96.75 1133,-86.75 1129.5,-96.75 1136.5,-96.75"/>
</g>
<!-- Node30&#45;&gt;Node8 -->
<g id="edge40" class="edge">
<title>Node30&#45;&gt;Node8</title>
<path fill="none" stroke="midnightblue" d="M1196.05,-184.96C1267.37,-171.1 1400.36,-145.01 1402,-143 1407.63,-136.12 1407.74,-129.78 1402,-123 1376.05,-92.34 1266.35,-82.56 1195.3,-79.44"/>
<polygon fill="midnightblue" stroke="midnightblue" points="1195.25,-75.94 1185.12,-79.03 1194.97,-82.93 1195.25,-75.94"/>
</g>
</g>
</svg>
