<?xml version="1.0" encoding="UTF-8" standalone="no"?>
<!DOCTYPE svg PUBLIC "-//W3C//DTD SVG 1.1//EN"
 "http://www.w3.org/Graphics/SVG/1.1/DTD/svg11.dtd">
<!-- Generated by graphviz version 2.44.0 ()
 -->
<!-- Title: src/Game/Levels/Level1.cpp Pages: 1 -->
<svg width="2248pt" height="408pt"
 viewBox="0.00 0.00 2247.50 408.00" xmlns="http://www.w3.org/2000/svg" xmlns:xlink="http://www.w3.org/1999/xlink">
<g id="graph0" class="graph" transform="scale(1 1) rotate(0) translate(4 404)">
<title>src/Game/Levels/Level1.cpp</title>
<!-- Node1 -->
<g id="node1" class="node">
<title>Node1</title>
<g id="a_node1"><a xlink:title=" ">
<polygon fill="#bfbfbf" stroke="black" points="917,-380.5 917,-399.5 1059,-399.5 1059,-380.5 917,-380.5"/>
<text text-anchor="middle" x="988" y="-387.5" font-family="Helvetica,sans-Serif" font-size="10.00">src/Game/Levels/Level1.cpp</text>
</a>
</g>
</g>
<!-- Node2 -->
<g id="node2" class="node">
<title>Node2</title>
<g id="a_node2"><a xlink:href="Level1_8hpp.html" target="_top" xlink:title=" ">
<polygon fill="none" stroke="black" points="463,-324.5 463,-343.5 527,-343.5 527,-324.5 463,-324.5"/>
<text text-anchor="middle" x="495" y="-331.5" font-family="Helvetica,sans-Serif" font-size="10.00">Level1.hpp</text>
</a>
</g>
</g>
<!-- Node1&#45;&gt;Node2 -->
<g id="edge1" class="edge">
<title>Node1&#45;&gt;Node2</title>
<path fill="none" stroke="midnightblue" d="M916.84,-381.21C812.66,-369.79 621.83,-348.89 537.27,-339.63"/>
<polygon fill="midnightblue" stroke="midnightblue" points="537.58,-336.14 527.25,-338.53 536.81,-343.1 537.58,-336.14"/>
</g>
<!-- Node7 -->
<g id="node7" class="node">
<title>Node7</title>
<g id="a_node7"><a xlink:title=" ">
<polygon fill="none" stroke="#bfbfbf" points="0,-207 0,-226 96,-226 96,-207 0,-207"/>
<text text-anchor="middle" x="48" y="-214" font-family="Helvetica,sans-Serif" font-size="10.00">Engine/Engine.hpp</text>
</a>
</g>
</g>
<!-- Node1&#45;&gt;Node7 -->
<g id="edge35" class="edge">
<title>Node1&#45;&gt;Node7</title>
<path fill="none" stroke="midnightblue" d="M916.92,-387.92C813.94,-385.25 617.67,-376 454,-344 310.65,-315.98 146.38,-255.71 79.14,-229.78"/>
<polygon fill="midnightblue" stroke="midnightblue" points="80.16,-226.42 69.57,-226.07 77.63,-232.95 80.16,-226.42"/>
</g>
<!-- Node19 -->
<g id="node19" class="node">
<title>Node19</title>
<g id="a_node19"><a xlink:title=" ">
<polygon fill="none" stroke="#bfbfbf" points="1079,-207 1079,-226 1237,-226 1237,-207 1079,-207"/>
<text text-anchor="middle" x="1158" y="-214" font-family="Helvetica,sans-Serif" font-size="10.00">Director/GameObjectFactory.hpp</text>
</a>
</g>
</g>
<!-- Node1&#45;&gt;Node19 -->
<g id="edge34" class="edge">
<title>Node1&#45;&gt;Node19</title>
<path fill="none" stroke="midnightblue" d="M1059.29,-384.11C1088.06,-378.43 1119.09,-366.92 1139,-344 1165.25,-313.78 1163.95,-263.4 1160.89,-236.23"/>
<polygon fill="midnightblue" stroke="midnightblue" points="1164.33,-235.59 1159.54,-226.14 1157.39,-236.51 1164.33,-235.59"/>
</g>
<!-- Node20 -->
<g id="node20" class="node">
<title>Node20</title>
<g id="a_node20"><a xlink:title=" ">
<polygon fill="none" stroke="#bfbfbf" points="712.5,-207 712.5,-226 873.5,-226 873.5,-207 712.5,-207"/>
<text text-anchor="middle" x="793" y="-214" font-family="Helvetica,sans-Serif" font-size="10.00">Behaviour/CollisionBehaviour.hpp</text>
</a>
</g>
</g>
<!-- Node1&#45;&gt;Node20 -->
<g id="edge33" class="edge">
<title>Node1&#45;&gt;Node20</title>
<path fill="none" stroke="midnightblue" d="M978.33,-380.5C947.34,-353.24 850.17,-267.78 810.32,-232.73"/>
<polygon fill="midnightblue" stroke="midnightblue" points="812.55,-230.03 802.73,-226.06 807.93,-235.29 812.55,-230.03"/>
</g>
<!-- Node29 -->
<g id="node29" class="node">
<title>Node29</title>
<g id="a_node29"><a xlink:href="TileConfig_8hpp.html" target="_top" xlink:title=" ">
<polygon fill="none" stroke="black" points="1692.5,-268.5 1692.5,-287.5 1769.5,-287.5 1769.5,-268.5 1692.5,-268.5"/>
<text text-anchor="middle" x="1731" y="-275.5" font-family="Helvetica,sans-Serif" font-size="10.00">TileConfig.hpp</text>
</a>
</g>
</g>
<!-- Node1&#45;&gt;Node29 -->
<g id="edge36" class="edge">
<title>Node1&#45;&gt;Node29</title>
<path fill="none" stroke="midnightblue" d="M1033.33,-380.49C1071.02,-372.81 1125.77,-360.23 1172,-344 1191.89,-337.02 1194.64,-329.44 1215,-324 1302.32,-300.66 1570.66,-286.23 1681.9,-281.11"/>
<polygon fill="midnightblue" stroke="midnightblue" points="1682.33,-284.59 1692.16,-280.64 1682.01,-277.6 1682.33,-284.59"/>
</g>
<!-- Node37 -->
<g id="node37" class="node">
<title>Node37</title>
<g id="a_node37"><a xlink:href="EnemyAttackBehaviour_8hpp.html" target="_top" xlink:title=" ">
<polygon fill="none" stroke="black" points="960,-324.5 960,-343.5 1130,-343.5 1130,-324.5 960,-324.5"/>
<text text-anchor="middle" x="1045" y="-331.5" font-family="Helvetica,sans-Serif" font-size="10.00">Scripts/EnemyAttackBehaviour.hpp</text>
</a>
</g>
</g>
<!-- Node1&#45;&gt;Node37 -->
<g id="edge54" class="edge">
<title>Node1&#45;&gt;Node37</title>
<path fill="none" stroke="midnightblue" d="M997.16,-380.32C1005.5,-372.42 1018.03,-360.55 1028.18,-350.94"/>
<polygon fill="midnightblue" stroke="midnightblue" points="1030.82,-353.25 1035.68,-343.83 1026.01,-348.17 1030.82,-353.25"/>
</g>
<!-- Node38 -->
<g id="node38" class="node">
<title>Node38</title>
<g id="a_node38"><a xlink:href="DynamicAnimationBehaviour_8hpp.html" target="_top" xlink:title=" ">
<polygon fill="none" stroke="black" points="891.5,-201.5 891.5,-231.5 1022.5,-231.5 1022.5,-201.5 891.5,-201.5"/>
<text text-anchor="start" x="899.5" y="-219.5" font-family="Helvetica,sans-Serif" font-size="10.00">Scripts/DynamicAnimation</text>
<text text-anchor="middle" x="957" y="-208.5" font-family="Helvetica,sans-Serif" font-size="10.00">Behaviour.hpp</text>
</a>
</g>
</g>
<!-- Node1&#45;&gt;Node38 -->
<g id="edge56" class="edge">
<title>Node1&#45;&gt;Node38</title>
<path fill="none" stroke="midnightblue" d="M977.56,-380.24C968.58,-371.97 956.25,-358.66 951,-344 938.81,-309.98 944.75,-267.5 950.56,-241.45"/>
<polygon fill="midnightblue" stroke="midnightblue" points="953.97,-242.22 952.9,-231.68 947.17,-240.59 953.97,-242.22"/>
</g>
<!-- Node39 -->
<g id="node39" class="node">
<title>Node39</title>
<g id="a_node39"><a xlink:title=" ">
<polygon fill="none" stroke="#bfbfbf" points="1223.5,-324.5 1223.5,-343.5 1372.5,-343.5 1372.5,-324.5 1223.5,-324.5"/>
<text text-anchor="middle" x="1298" y="-331.5" font-family="Helvetica,sans-Serif" font-size="10.00">Physics/ForceDrivenEntity.hpp</text>
</a>
</g>
</g>
<!-- Node1&#45;&gt;Node39 -->
<g id="edge59" class="edge">
<title>Node1&#45;&gt;Node39</title>
<path fill="none" stroke="midnightblue" d="M1037.12,-380.44C1091.88,-370.9 1180.41,-355.48 1238.91,-345.29"/>
<polygon fill="midnightblue" stroke="midnightblue" points="1239.86,-348.68 1249.11,-343.52 1238.66,-341.78 1239.86,-348.68"/>
</g>
<!-- Node3 -->
<g id="node3" class="node">
<title>Node3</title>
<g id="a_node3"><a xlink:title=" ">
<polygon fill="none" stroke="#bfbfbf" points="114,-207 114,-226 176,-226 176,-207 114,-207"/>
<text text-anchor="middle" x="145" y="-214" font-family="Helvetica,sans-Serif" font-size="10.00">Scene.hpp</text>
</a>
</g>
</g>
<!-- Node2&#45;&gt;Node3 -->
<g id="edge2" class="edge">
<title>Node2&#45;&gt;Node3</title>
<path fill="none" stroke="midnightblue" d="M462.71,-324.55C430.63,-315.98 380.13,-302.01 337,-288 268.13,-265.62 251.94,-257.06 184,-232 181.91,-231.23 179.75,-230.43 177.58,-229.63"/>
<polygon fill="midnightblue" stroke="midnightblue" points="178.68,-226.3 168.09,-226.11 176.25,-232.87 178.68,-226.3"/>
</g>
<!-- Node4 -->
<g id="node4" class="node">
<title>Node4</title>
<g id="a_node4"><a xlink:href="Level_8hpp.html" target="_top" xlink:title=" ">
<polygon fill="none" stroke="black" points="465.5,-268.5 465.5,-287.5 524.5,-287.5 524.5,-268.5 465.5,-268.5"/>
<text text-anchor="middle" x="495" y="-275.5" font-family="Helvetica,sans-Serif" font-size="10.00">Level.hpp</text>
</a>
</g>
</g>
<!-- Node2&#45;&gt;Node4 -->
<g id="edge3" class="edge">
<title>Node2&#45;&gt;Node4</title>
<path fill="none" stroke="midnightblue" d="M495,-324.08C495,-317.01 495,-306.86 495,-297.99"/>
<polygon fill="midnightblue" stroke="midnightblue" points="498.5,-297.75 495,-287.75 491.5,-297.75 498.5,-297.75"/>
</g>
<!-- Node21 -->
<g id="node21" class="node">
<title>Node21</title>
<g id="a_node21"><a xlink:href="CoinCounter_8hpp.html" target="_top" xlink:title=" ">
<polygon fill="none" stroke="black" points="1879.5,-140 1879.5,-159 1980.5,-159 1980.5,-140 1879.5,-140"/>
<text text-anchor="middle" x="1930" y="-147" font-family="Helvetica,sans-Serif" font-size="10.00">UI/CoinCounter.hpp</text>
</a>
</g>
</g>
<!-- Node2&#45;&gt;Node21 -->
<g id="edge22" class="edge">
<title>Node2&#45;&gt;Node21</title>
<path fill="none" stroke="midnightblue" d="M527.2,-332.36C700.62,-328.86 1525.08,-311.23 1779,-288 1947.69,-272.56 2045.37,-360.28 2156,-232 2205.1,-175.07 2073.04,-157.91 1990.57,-152.73"/>
<polygon fill="midnightblue" stroke="midnightblue" points="1990.72,-149.23 1980.53,-152.14 1990.31,-156.22 1990.72,-149.23"/>
</g>
<!-- Node28 -->
<g id="node28" class="node">
<title>Node28</title>
<g id="a_node28"><a xlink:title=" ">
<polygon fill="none" stroke="#bfbfbf" points="346.5,-268.5 346.5,-287.5 447.5,-287.5 447.5,-268.5 346.5,-268.5"/>
<text text-anchor="middle" x="397" y="-275.5" font-family="Helvetica,sans-Serif" font-size="10.00">UI/FPSCounter.hpp</text>
</a>
</g>
</g>
<!-- Node2&#45;&gt;Node28 -->
<g id="edge32" class="edge">
<title>Node2&#45;&gt;Node28</title>
<path fill="none" stroke="midnightblue" d="M479.25,-324.32C463.68,-315.74 439.62,-302.49 421.54,-292.52"/>
<polygon fill="midnightblue" stroke="midnightblue" points="423.15,-289.42 412.71,-287.65 419.78,-295.55 423.15,-289.42"/>
</g>
<!-- Node4&#45;&gt;Node3 -->
<g id="edge4" class="edge">
<title>Node4&#45;&gt;Node3</title>
<path fill="none" stroke="midnightblue" d="M465.25,-269.83C462.13,-269.17 459.01,-268.54 456,-268 336.01,-246.27 302.34,-261.43 184,-232 181.01,-231.26 177.94,-230.36 174.89,-229.38"/>
<polygon fill="midnightblue" stroke="midnightblue" points="175.97,-226.05 165.37,-226.06 173.66,-232.66 175.97,-226.05"/>
</g>
<!-- Node5 -->
<g id="node5" class="node">
<title>Node5</title>
<g id="a_node5"><a xlink:href="Sprites_8hpp.html" target="_top" xlink:title=" ">
<polygon fill="none" stroke="black" points="193.5,-207 193.5,-226 304.5,-226 304.5,-207 193.5,-207"/>
<text text-anchor="middle" x="249" y="-214" font-family="Helvetica,sans-Serif" font-size="10.00">constants/Sprites.hpp</text>
</a>
</g>
</g>
<!-- Node4&#45;&gt;Node5 -->
<g id="edge5" class="edge">
<title>Node4&#45;&gt;Node5</title>
<path fill="none" stroke="midnightblue" d="M465.33,-269.82C422.77,-259.53 344.04,-240.49 294.21,-228.43"/>
<polygon fill="midnightblue" stroke="midnightblue" points="294.88,-225 284.34,-226.05 293.24,-231.8 294.88,-225"/>
</g>
<!-- Node4&#45;&gt;Node7 -->
<g id="edge7" class="edge">
<title>Node4&#45;&gt;Node7</title>
<path fill="none" stroke="midnightblue" d="M465.27,-269.74C462.15,-269.1 459.02,-268.5 456,-268 301.3,-242.32 259.41,-259.4 105,-232 99.47,-231.02 93.69,-229.79 88.01,-228.46"/>
<polygon fill="midnightblue" stroke="midnightblue" points="88.54,-224.99 77.99,-226.01 86.87,-231.79 88.54,-224.99"/>
</g>
<!-- Node8 -->
<g id="node8" class="node">
<title>Node8</title>
<g id="a_node8"><a xlink:title=" ">
<polygon fill="none" stroke="#bfbfbf" points="322.5,-207 322.5,-226 431.5,-226 431.5,-207 322.5,-207"/>
<text text-anchor="middle" x="377" y="-214" font-family="Helvetica,sans-Serif" font-size="10.00">Utility/InputEnum.hpp</text>
</a>
</g>
</g>
<!-- Node4&#45;&gt;Node8 -->
<g id="edge8" class="edge">
<title>Node4&#45;&gt;Node8</title>
<path fill="none" stroke="midnightblue" d="M478.09,-268.48C458.47,-258.58 425.87,-242.14 403.01,-230.62"/>
<polygon fill="midnightblue" stroke="midnightblue" points="404.38,-227.39 393.88,-226.01 401.23,-233.64 404.38,-227.39"/>
</g>
<!-- Node9 -->
<g id="node9" class="node">
<title>Node9</title>
<g id="a_node9"><a xlink:title=" ">
<polygon fill="none" stroke="#bfbfbf" points="450,-207 450,-226 540,-226 540,-207 450,-207"/>
<text text-anchor="middle" x="495" y="-214" font-family="Helvetica,sans-Serif" font-size="10.00">AudioSource.hpp</text>
</a>
</g>
</g>
<!-- Node4&#45;&gt;Node9 -->
<g id="edge9" class="edge">
<title>Node4&#45;&gt;Node9</title>
<path fill="none" stroke="midnightblue" d="M495,-268.48C495,-260.08 495,-246.98 495,-236.16"/>
<polygon fill="midnightblue" stroke="midnightblue" points="498.5,-236.01 495,-226.01 491.5,-236.01 498.5,-236.01"/>
</g>
<!-- Node10 -->
<g id="node10" class="node">
<title>Node10</title>
<g id="a_node10"><a xlink:href="MarioBehaviour_8hpp.html" target="_top" xlink:title=" ">
<polygon fill="none" stroke="black" points="558,-207 558,-226 694,-226 694,-207 558,-207"/>
<text text-anchor="middle" x="626" y="-214" font-family="Helvetica,sans-Serif" font-size="10.00">Scripts/MarioBehaviour.hpp</text>
</a>
</g>
</g>
<!-- Node4&#45;&gt;Node10 -->
<g id="edge10" class="edge">
<title>Node4&#45;&gt;Node10</title>
<path fill="none" stroke="midnightblue" d="M513.77,-268.48C535.85,-258.45 572.72,-241.7 598.14,-230.15"/>
<polygon fill="midnightblue" stroke="midnightblue" points="599.61,-233.33 607.27,-226.01 596.71,-226.96 599.61,-233.33"/>
</g>
<!-- Node4&#45;&gt;Node19 -->
<g id="edge20" class="edge">
<title>Node4&#45;&gt;Node19</title>
<path fill="none" stroke="midnightblue" d="M524.72,-274.83C606,-268.84 838.82,-251.2 1032,-232 1046.6,-230.55 1062.13,-228.87 1077.13,-227.18"/>
<polygon fill="midnightblue" stroke="midnightblue" points="1077.86,-230.62 1087.4,-226.01 1077.07,-223.67 1077.86,-230.62"/>
</g>
<!-- Node4&#45;&gt;Node20 -->
<g id="edge21" class="edge">
<title>Node4&#45;&gt;Node20</title>
<path fill="none" stroke="midnightblue" d="M524.66,-271.08C574.94,-261.04 677.52,-240.56 740.27,-228.03"/>
<polygon fill="midnightblue" stroke="midnightblue" points="741.24,-231.4 750.36,-226.01 739.87,-224.54 741.24,-231.4"/>
</g>
<!-- Node6 -->
<g id="node6" class="node">
<title>Node6</title>
<g id="a_node6"><a xlink:title=" ">
<polygon fill="none" stroke="#bfbfbf" points="228.5,-140 228.5,-159 269.5,-159 269.5,-140 228.5,-140"/>
<text text-anchor="middle" x="249" y="-147" font-family="Helvetica,sans-Serif" font-size="10.00">string</text>
</a>
</g>
</g>
<!-- Node5&#45;&gt;Node6 -->
<g id="edge6" class="edge">
<title>Node5&#45;&gt;Node6</title>
<path fill="none" stroke="midnightblue" d="M249,-206.73C249,-197.18 249,-181.62 249,-169.28"/>
<polygon fill="midnightblue" stroke="midnightblue" points="252.5,-169.13 249,-159.13 245.5,-169.13 252.5,-169.13"/>
</g>
<!-- Node11 -->
<g id="node11" class="node">
<title>Node11</title>
<g id="a_node11"><a xlink:title=" ">
<polygon fill="none" stroke="#bfbfbf" points="1142,-140 1142,-159 1246,-159 1246,-140 1142,-140"/>
<text text-anchor="middle" x="1194" y="-147" font-family="Helvetica,sans-Serif" font-size="10.00">BehaviourScript.hpp</text>
</a>
</g>
</g>
<!-- Node10&#45;&gt;Node11 -->
<g id="edge11" class="edge">
<title>Node10&#45;&gt;Node11</title>
<path fill="none" stroke="midnightblue" d="M667.85,-206.96C679.22,-204.82 691.56,-202.66 703,-201 856.46,-178.7 1038.32,-162.69 1131.73,-155.22"/>
<polygon fill="midnightblue" stroke="midnightblue" points="1132.17,-158.7 1141.86,-154.42 1131.62,-151.72 1132.17,-158.7"/>
</g>
<!-- Node12 -->
<g id="node12" class="node">
<title>Node12</title>
<g id="a_node12"><a xlink:href="MarioState_8hpp.html" target="_top" xlink:title=" ">
<polygon fill="none" stroke="black" points="1213.5,-67.5 1213.5,-97.5 1316.5,-97.5 1316.5,-67.5 1213.5,-67.5"/>
<text text-anchor="start" x="1221.5" y="-85.5" font-family="Helvetica,sans-Serif" font-size="10.00">Scripts/MarioStates</text>
<text text-anchor="middle" x="1265" y="-74.5" font-family="Helvetica,sans-Serif" font-size="10.00">/MarioState.hpp</text>
</a>
</g>
</g>
<!-- Node10&#45;&gt;Node12 -->
<g id="edge12" class="edge">
<title>Node10&#45;&gt;Node12</title>
<path fill="none" stroke="midnightblue" d="M667.43,-206.94C776.76,-184.36 1073.47,-123.07 1203.05,-96.3"/>
<polygon fill="midnightblue" stroke="midnightblue" points="1204.12,-99.65 1213.2,-94.2 1202.7,-92.79 1204.12,-99.65"/>
</g>
<!-- Node18 -->
<g id="node18" class="node">
<title>Node18</title>
<g id="a_node18"><a xlink:href="SmallMarioState_8hpp.html" target="_top" xlink:title=" ">
<polygon fill="none" stroke="black" points="642,-134.5 642,-164.5 752,-164.5 752,-134.5 642,-134.5"/>
<text text-anchor="start" x="650" y="-152.5" font-family="Helvetica,sans-Serif" font-size="10.00">Scripts/MarioStates</text>
<text text-anchor="middle" x="697" y="-141.5" font-family="Helvetica,sans-Serif" font-size="10.00">/SmallMarioState.hpp</text>
</a>
</g>
</g>
<!-- Node10&#45;&gt;Node18 -->
<g id="edge18" class="edge">
<title>Node10&#45;&gt;Node18</title>
<path fill="none" stroke="midnightblue" d="M635.58,-206.73C645.36,-197.78 660.91,-183.54 673.91,-171.63"/>
<polygon fill="midnightblue" stroke="midnightblue" points="676.6,-173.92 681.61,-164.59 671.87,-168.76 676.6,-173.92"/>
</g>
<!-- Node13 -->
<g id="node13" class="node">
<title>Node13</title>
<g id="a_node13"><a xlink:title=" ">
<polygon fill="none" stroke="#bfbfbf" points="1340.5,-0.5 1340.5,-30.5 1435.5,-30.5 1435.5,-0.5 1340.5,-0.5"/>
<text text-anchor="start" x="1348.5" y="-18.5" font-family="Helvetica,sans-Serif" font-size="10.00">boost/serialization</text>
<text text-anchor="middle" x="1388" y="-7.5" font-family="Helvetica,sans-Serif" font-size="10.00">/access.hpp</text>
</a>
</g>
</g>
<!-- Node12&#45;&gt;Node13 -->
<g id="edge13" class="edge">
<title>Node12&#45;&gt;Node13</title>
<path fill="none" stroke="midnightblue" d="M1291.69,-67.4C1309.5,-57.98 1333.12,-45.5 1352.51,-35.26"/>
<polygon fill="midnightblue" stroke="midnightblue" points="1354.16,-38.34 1361.36,-30.58 1350.89,-32.15 1354.16,-38.34"/>
</g>
<!-- Node14 -->
<g id="node14" class="node">
<title>Node14</title>
<g id="a_node14"><a xlink:title=" ">
<polygon fill="none" stroke="#bfbfbf" points="2033.5,-0.5 2033.5,-30.5 2128.5,-30.5 2128.5,-0.5 2033.5,-0.5"/>
<text text-anchor="start" x="2041.5" y="-18.5" font-family="Helvetica,sans-Serif" font-size="10.00">boost/serialization</text>
<text text-anchor="middle" x="2081" y="-7.5" font-family="Helvetica,sans-Serif" font-size="10.00">/export.hpp</text>
</a>
</g>
</g>
<!-- Node12&#45;&gt;Node14 -->
<g id="edge14" class="edge">
<title>Node12&#45;&gt;Node14</title>
<path fill="none" stroke="midnightblue" d="M1316.66,-77.38C1461.61,-65.84 1871.42,-33.19 2023.37,-21.09"/>
<polygon fill="midnightblue" stroke="midnightblue" points="2023.74,-24.57 2033.43,-20.29 2023.18,-17.59 2023.74,-24.57"/>
</g>
<!-- Node15 -->
<g id="node15" class="node">
<title>Node15</title>
<g id="a_node15"><a xlink:title=" ">
<polygon fill="none" stroke="#bfbfbf" points="1453.5,-0.5 1453.5,-30.5 1548.5,-30.5 1548.5,-0.5 1453.5,-0.5"/>
<text text-anchor="start" x="1461.5" y="-18.5" font-family="Helvetica,sans-Serif" font-size="10.00">boost/serialization</text>
<text text-anchor="middle" x="1501" y="-7.5" font-family="Helvetica,sans-Serif" font-size="10.00">/shared_ptr.hpp</text>
</a>
</g>
</g>
<!-- Node12&#45;&gt;Node15 -->
<g id="edge15" class="edge">
<title>Node12&#45;&gt;Node15</title>
<path fill="none" stroke="midnightblue" d="M1315.92,-67.48C1353.52,-57.12 1404.73,-43.02 1443.75,-32.27"/>
<polygon fill="midnightblue" stroke="midnightblue" points="1444.68,-35.64 1453.39,-29.61 1442.82,-28.89 1444.68,-35.64"/>
</g>
<!-- Node16 -->
<g id="node16" class="node">
<title>Node16</title>
<g id="a_node16"><a xlink:title=" ">
<polygon fill="none" stroke="#bfbfbf" points="1023.5,-6 1023.5,-25 1160.5,-25 1160.5,-6 1023.5,-6"/>
<text text-anchor="middle" x="1092" y="-13" font-family="Helvetica,sans-Serif" font-size="10.00">Texture/AnimatedSprite.hpp</text>
</a>
</g>
</g>
<!-- Node12&#45;&gt;Node16 -->
<g id="edge16" class="edge">
<title>Node12&#45;&gt;Node16</title>
<path fill="none" stroke="midnightblue" d="M1227.46,-67.4C1196.7,-55.84 1153.63,-39.66 1124.37,-28.66"/>
<polygon fill="midnightblue" stroke="midnightblue" points="1125.23,-25.25 1114.64,-25.01 1122.77,-31.8 1125.23,-25.25"/>
</g>
<!-- Node17 -->
<g id="node17" class="node">
<title>Node17</title>
<g id="a_node17"><a xlink:title=" ">
<polygon fill="none" stroke="#bfbfbf" points="1236.5,-6 1236.5,-25 1293.5,-25 1293.5,-6 1236.5,-6"/>
<text text-anchor="middle" x="1265" y="-13" font-family="Helvetica,sans-Serif" font-size="10.00">Point.hpp</text>
</a>
</g>
</g>
<!-- Node12&#45;&gt;Node17 -->
<g id="edge17" class="edge">
<title>Node12&#45;&gt;Node17</title>
<path fill="none" stroke="midnightblue" d="M1265,-67.4C1265,-58.06 1265,-45.71 1265,-35.52"/>
<polygon fill="midnightblue" stroke="midnightblue" points="1268.5,-35.19 1265,-25.19 1261.5,-35.19 1268.5,-35.19"/>
</g>
<!-- Node18&#45;&gt;Node12 -->
<g id="edge19" class="edge">
<title>Node18&#45;&gt;Node12</title>
<path fill="none" stroke="midnightblue" d="M752.24,-142.18C858.75,-129.99 1091.84,-103.32 1203.28,-90.56"/>
<polygon fill="midnightblue" stroke="midnightblue" points="1203.81,-94.03 1213.35,-89.41 1203.02,-87.07 1203.81,-94.03"/>
</g>
<!-- Node21&#45;&gt;Node13 -->
<g id="edge24" class="edge">
<title>Node21&#45;&gt;Node13</title>
<path fill="none" stroke="midnightblue" d="M1879.31,-145.17C1783.83,-138.43 1580.98,-121.77 1515,-98 1475.98,-83.94 1436.64,-56.1 1412.31,-36.9"/>
<polygon fill="midnightblue" stroke="midnightblue" points="1414.34,-34.04 1404.35,-30.5 1409.96,-39.5 1414.34,-34.04"/>
</g>
<!-- Node21&#45;&gt;Node14 -->
<g id="edge25" class="edge">
<title>Node21&#45;&gt;Node14</title>
<path fill="none" stroke="midnightblue" d="M1978.46,-140C2005.03,-132.97 2036.62,-120.35 2057,-98 2071.31,-82.31 2077.11,-58.5 2079.45,-40.66"/>
<polygon fill="midnightblue" stroke="midnightblue" points="2082.94,-41.01 2080.49,-30.7 2075.97,-40.28 2082.94,-41.01"/>
</g>
<!-- Node21&#45;&gt;Node15 -->
<g id="edge26" class="edge">
<title>Node21&#45;&gt;Node15</title>
<path fill="none" stroke="midnightblue" d="M1953.88,-140C1989.81,-125.97 2050.86,-96.58 2024,-67 1993.18,-33.06 1688.18,-21.28 1558.67,-17.79"/>
<polygon fill="midnightblue" stroke="midnightblue" points="1558.64,-14.29 1548.55,-17.52 1558.45,-21.28 1558.64,-14.29"/>
</g>
<!-- Node22 -->
<g id="node22" class="node">
<title>Node22</title>
<g id="a_node22"><a xlink:title=" ">
<polygon fill="none" stroke="#bfbfbf" points="2188.5,-73 2188.5,-92 2239.5,-92 2239.5,-73 2188.5,-73"/>
<text text-anchor="middle" x="2214" y="-80" font-family="Helvetica,sans-Serif" font-size="10.00">memory</text>
</a>
</g>
</g>
<!-- Node21&#45;&gt;Node22 -->
<g id="edge23" class="edge">
<title>Node21&#45;&gt;Node22</title>
<path fill="none" stroke="midnightblue" d="M1967.42,-139.94C2022.46,-127.34 2124.55,-103.97 2178.49,-91.63"/>
<polygon fill="midnightblue" stroke="midnightblue" points="2179.32,-95.03 2188.29,-89.38 2177.76,-88.2 2179.32,-95.03"/>
</g>
<!-- Node23 -->
<g id="node23" class="node">
<title>Node23</title>
<g id="a_node23"><a xlink:title=" ">
<polygon fill="none" stroke="#bfbfbf" points="1524,-67.5 1524,-97.5 1628,-97.5 1628,-67.5 1524,-67.5"/>
<text text-anchor="start" x="1532" y="-85.5" font-family="Helvetica,sans-Serif" font-size="10.00">boost/archive/binary</text>
<text text-anchor="middle" x="1576" y="-74.5" font-family="Helvetica,sans-Serif" font-size="10.00">_iarchive.hpp</text>
</a>
</g>
</g>
<!-- Node21&#45;&gt;Node23 -->
<g id="edge27" class="edge">
<title>Node21&#45;&gt;Node23</title>
<path fill="none" stroke="midnightblue" d="M1879.27,-140.75C1822.76,-131.89 1728.5,-116.46 1638.06,-98.15"/>
<polygon fill="midnightblue" stroke="midnightblue" points="1638.69,-94.7 1628.2,-96.13 1637.29,-101.56 1638.69,-94.7"/>
</g>
<!-- Node24 -->
<g id="node24" class="node">
<title>Node24</title>
<g id="a_node24"><a xlink:title=" ">
<polygon fill="none" stroke="#bfbfbf" points="1646,-67.5 1646,-97.5 1750,-97.5 1750,-67.5 1646,-67.5"/>
<text text-anchor="start" x="1654" y="-85.5" font-family="Helvetica,sans-Serif" font-size="10.00">boost/archive/binary</text>
<text text-anchor="middle" x="1698" y="-74.5" font-family="Helvetica,sans-Serif" font-size="10.00">_oarchive.hpp</text>
</a>
</g>
</g>
<!-- Node21&#45;&gt;Node24 -->
<g id="edge28" class="edge">
<title>Node21&#45;&gt;Node24</title>
<path fill="none" stroke="midnightblue" d="M1899.19,-139.87C1863.25,-129.8 1802.99,-112.91 1757.77,-100.24"/>
<polygon fill="midnightblue" stroke="midnightblue" points="1758.64,-96.86 1748.07,-97.53 1756.75,-103.6 1758.64,-96.86"/>
</g>
<!-- Node25 -->
<g id="node25" class="node">
<title>Node25</title>
<g id="a_node25"><a xlink:title=" ">
<polygon fill="none" stroke="#bfbfbf" points="1768.5,-73 1768.5,-92 1825.5,-92 1825.5,-73 1768.5,-73"/>
<text text-anchor="middle" x="1797" y="-80" font-family="Helvetica,sans-Serif" font-size="10.00">Color.hpp</text>
</a>
</g>
</g>
<!-- Node21&#45;&gt;Node25 -->
<g id="edge29" class="edge">
<title>Node21&#45;&gt;Node25</title>
<path fill="none" stroke="midnightblue" d="M1912.34,-139.87C1889.68,-128.8 1850.17,-109.49 1823.8,-96.6"/>
<polygon fill="midnightblue" stroke="midnightblue" points="1825.26,-93.41 1814.73,-92.17 1822.18,-99.7 1825.26,-93.41"/>
</g>
<!-- Node26 -->
<g id="node26" class="node">
<title>Node26</title>
<g id="a_node26"><a xlink:title=" ">
<polygon fill="none" stroke="#bfbfbf" points="1843.5,-73 1843.5,-92 1922.5,-92 1922.5,-73 1843.5,-73"/>
<text text-anchor="middle" x="1883" y="-80" font-family="Helvetica,sans-Serif" font-size="10.00">Transform.hpp</text>
</a>
</g>
</g>
<!-- Node21&#45;&gt;Node26 -->
<g id="edge30" class="edge">
<title>Node21&#45;&gt;Node26</title>
<path fill="none" stroke="midnightblue" d="M1923.66,-139.73C1916.4,-129.7 1904.34,-113.01 1895.24,-100.42"/>
<polygon fill="midnightblue" stroke="midnightblue" points="1897.93,-98.18 1889.24,-92.13 1892.26,-102.28 1897.93,-98.18"/>
</g>
<!-- Node27 -->
<g id="node27" class="node">
<title>Node27</title>
<g id="a_node27"><a xlink:title=" ">
<polygon fill="none" stroke="#bfbfbf" points="1941,-73 1941,-92 2015,-92 2015,-73 1941,-73"/>
<text text-anchor="middle" x="1978" y="-80" font-family="Helvetica,sans-Serif" font-size="10.00">UIObject.hpp</text>
</a>
</g>
</g>
<!-- Node21&#45;&gt;Node27 -->
<g id="edge31" class="edge">
<title>Node21&#45;&gt;Node27</title>
<path fill="none" stroke="midnightblue" d="M1936.47,-139.73C1943.89,-129.7 1956.2,-113.01 1965.5,-100.42"/>
<polygon fill="midnightblue" stroke="midnightblue" points="1968.5,-102.25 1971.63,-92.13 1962.87,-98.09 1968.5,-102.25"/>
</g>
<!-- Node29&#45;&gt;Node19 -->
<g id="edge42" class="edge">
<title>Node29&#45;&gt;Node19</title>
<path fill="none" stroke="midnightblue" d="M1692.23,-274.34C1609.87,-268.48 1411.44,-253.28 1246,-232 1236.21,-230.74 1225.84,-229.21 1215.78,-227.62"/>
<polygon fill="midnightblue" stroke="midnightblue" points="1216.29,-224.16 1205.86,-226.02 1215.18,-231.07 1216.29,-224.16"/>
</g>
<!-- Node29&#45;&gt;Node21 -->
<g id="edge53" class="edge">
<title>Node29&#45;&gt;Node21</title>
<path fill="none" stroke="midnightblue" d="M1769.68,-275.59C1866.39,-271.68 2112.73,-259.11 2137,-232 2182.49,-181.19 2066.75,-161.7 1990.55,-154.49"/>
<polygon fill="midnightblue" stroke="midnightblue" points="1990.82,-151 1980.55,-153.6 1990.19,-157.98 1990.82,-151"/>
</g>
<!-- Node29&#45;&gt;Node22 -->
<g id="edge39" class="edge">
<title>Node29&#45;&gt;Node22</title>
<path fill="none" stroke="midnightblue" d="M1769.83,-275.17C1868.94,-270.2 2125.63,-255.18 2156,-232 2197.34,-200.44 2209.24,-135.19 2212.65,-102.72"/>
<polygon fill="midnightblue" stroke="midnightblue" points="2216.17,-102.64 2213.56,-92.37 2209.2,-102.02 2216.17,-102.64"/>
</g>
<!-- Node30 -->
<g id="node30" class="node">
<title>Node30</title>
<g id="a_node30"><a xlink:title=" ">
<polygon fill="none" stroke="#bfbfbf" points="1701.5,-207 1701.5,-226 1760.5,-226 1760.5,-207 1701.5,-207"/>
<text text-anchor="middle" x="1731" y="-214" font-family="Helvetica,sans-Serif" font-size="10.00">functional</text>
</a>
</g>
</g>
<!-- Node29&#45;&gt;Node30 -->
<g id="edge37" class="edge">
<title>Node29&#45;&gt;Node30</title>
<path fill="none" stroke="midnightblue" d="M1731,-268.48C1731,-260.08 1731,-246.98 1731,-236.16"/>
<polygon fill="midnightblue" stroke="midnightblue" points="1734.5,-236.01 1731,-226.01 1727.5,-236.01 1734.5,-236.01"/>
</g>
<!-- Node31 -->
<g id="node31" class="node">
<title>Node31</title>
<g id="a_node31"><a xlink:title=" ">
<polygon fill="none" stroke="#bfbfbf" points="1778.5,-207 1778.5,-226 1813.5,-226 1813.5,-207 1778.5,-207"/>
<text text-anchor="middle" x="1796" y="-214" font-family="Helvetica,sans-Serif" font-size="10.00">map</text>
</a>
</g>
</g>
<!-- Node29&#45;&gt;Node31 -->
<g id="edge38" class="edge">
<title>Node29&#45;&gt;Node31</title>
<path fill="none" stroke="midnightblue" d="M1740.31,-268.48C1750.45,-259.2 1766.86,-244.17 1779.25,-232.83"/>
<polygon fill="midnightblue" stroke="midnightblue" points="1781.69,-235.34 1786.7,-226.01 1776.96,-230.18 1781.69,-235.34"/>
</g>
<!-- Node32 -->
<g id="node32" class="node">
<title>Node32</title>
<g id="a_node32"><a xlink:title=" ">
<polygon fill="none" stroke="#bfbfbf" points="1832,-207 1832,-226 1984,-226 1984,-207 1832,-207"/>
<text text-anchor="middle" x="1908" y="-214" font-family="Helvetica,sans-Serif" font-size="10.00">Builder/GameObjectBuilder.hpp</text>
</a>
</g>
</g>
<!-- Node29&#45;&gt;Node32 -->
<g id="edge40" class="edge">
<title>Node29&#45;&gt;Node32</title>
<path fill="none" stroke="midnightblue" d="M1756.36,-268.48C1786.98,-258.18 1838.66,-240.81 1873.05,-229.25"/>
<polygon fill="midnightblue" stroke="midnightblue" points="1874.32,-232.51 1882.69,-226.01 1872.09,-225.88 1874.32,-232.51"/>
</g>
<!-- Node33 -->
<g id="node33" class="node">
<title>Node33</title>
<g id="a_node33"><a xlink:title=" ">
<polygon fill="none" stroke="#bfbfbf" points="2002.5,-207 2002.5,-226 2127.5,-226 2127.5,-207 2002.5,-207"/>
<text text-anchor="middle" x="2065" y="-214" font-family="Helvetica,sans-Serif" font-size="10.00">Builder/SceneBuilder.hpp</text>
</a>
</g>
</g>
<!-- Node29&#45;&gt;Node33 -->
<g id="edge41" class="edge">
<title>Node29&#45;&gt;Node33</title>
<path fill="none" stroke="midnightblue" d="M1769.68,-270.71C1820.86,-262.31 1913.83,-246.77 1993,-232 1999.65,-230.76 2006.64,-229.41 2013.54,-228.05"/>
<polygon fill="midnightblue" stroke="midnightblue" points="2014.41,-231.44 2023.54,-226.06 2013.05,-224.58 2014.41,-231.44"/>
</g>
<!-- Node34 -->
<g id="node34" class="node">
<title>Node34</title>
<g id="a_node34"><a xlink:href="CoinBehaviour_8hpp.html" target="_top" xlink:title=" ">
<polygon fill="none" stroke="black" points="1552.5,-207 1552.5,-226 1683.5,-226 1683.5,-207 1552.5,-207"/>
<text text-anchor="middle" x="1618" y="-214" font-family="Helvetica,sans-Serif" font-size="10.00">Scripts/CoinBehaviour.hpp</text>
</a>
</g>
</g>
<!-- Node29&#45;&gt;Node34 -->
<g id="edge43" class="edge">
<title>Node29&#45;&gt;Node34</title>
<path fill="none" stroke="midnightblue" d="M1714.81,-268.48C1696.1,-258.62 1665.08,-242.29 1643.2,-230.77"/>
<polygon fill="midnightblue" stroke="midnightblue" points="1644.64,-227.57 1634.16,-226.01 1641.38,-233.77 1644.64,-227.57"/>
</g>
<!-- Node35 -->
<g id="node35" class="node">
<title>Node35</title>
<g id="a_node35"><a xlink:href="FlagBehaviour_8hpp.html" target="_top" xlink:title=" ">
<polygon fill="none" stroke="black" points="1403.5,-207 1403.5,-226 1534.5,-226 1534.5,-207 1403.5,-207"/>
<text text-anchor="middle" x="1469" y="-214" font-family="Helvetica,sans-Serif" font-size="10.00">Scripts/FlagBehaviour.hpp</text>
</a>
</g>
</g>
<!-- Node29&#45;&gt;Node35 -->
<g id="edge49" class="edge">
<title>Node29&#45;&gt;Node35</title>
<path fill="none" stroke="midnightblue" d="M1693.46,-268.48C1646.77,-257.87 1567.02,-239.76 1516.22,-228.22"/>
<polygon fill="midnightblue" stroke="midnightblue" points="1517,-224.81 1506.47,-226.01 1515.45,-231.64 1517,-224.81"/>
</g>
<!-- Node36 -->
<g id="node36" class="node">
<title>Node36</title>
<g id="a_node36"><a xlink:href="StarBehaviour_8hpp.html" target="_top" xlink:title=" ">
<polygon fill="none" stroke="black" points="1255,-207 1255,-226 1385,-226 1385,-207 1255,-207"/>
<text text-anchor="middle" x="1320" y="-214" font-family="Helvetica,sans-Serif" font-size="10.00">Scripts/StarBehaviour.hpp</text>
</a>
</g>
</g>
<!-- Node29&#45;&gt;Node36 -->
<g id="edge51" class="edge">
<title>Node29&#45;&gt;Node36</title>
<path fill="none" stroke="midnightblue" d="M1692.34,-272.56C1629.73,-265.2 1502.31,-249.54 1395,-232 1387.54,-230.78 1379.68,-229.38 1371.97,-227.95"/>
<polygon fill="midnightblue" stroke="midnightblue" points="1372.45,-224.48 1361.97,-226.06 1371.14,-231.36 1372.45,-224.48"/>
</g>
<!-- Node34&#45;&gt;Node11 -->
<g id="edge44" class="edge">
<title>Node34&#45;&gt;Node11</title>
<path fill="none" stroke="midnightblue" d="M1576.19,-206.93C1565.7,-204.88 1554.45,-202.78 1544,-201 1443.48,-183.91 1326.08,-167.74 1256,-158.49"/>
<polygon fill="midnightblue" stroke="midnightblue" points="1256.39,-155.01 1246.01,-157.18 1255.47,-161.95 1256.39,-155.01"/>
</g>
<!-- Node34&#45;&gt;Node13 -->
<g id="edge46" class="edge">
<title>Node34&#45;&gt;Node13</title>
<path fill="none" stroke="midnightblue" d="M1601.87,-206.9C1584.43,-197.38 1556.02,-181.21 1533,-165 1494.8,-138.1 1484.61,-131.45 1452,-98 1433.93,-79.46 1415.95,-56.01 1403.67,-39.03"/>
<polygon fill="midnightblue" stroke="midnightblue" points="1406.45,-36.91 1397.8,-30.8 1400.76,-40.97 1406.45,-36.91"/>
</g>
<!-- Node34&#45;&gt;Node14 -->
<g id="edge47" class="edge">
<title>Node34&#45;&gt;Node14</title>
<path fill="none" stroke="midnightblue" d="M1659.17,-207C1670.14,-204.88 1681.99,-202.73 1693,-201 1824.36,-180.37 1866.67,-214.69 1990,-165 2035.92,-146.5 2056.36,-142.03 2079,-98 2088.03,-80.45 2087.81,-57.83 2085.75,-40.88"/>
<polygon fill="midnightblue" stroke="midnightblue" points="2089.16,-40.03 2084.2,-30.67 2082.24,-41.08 2089.16,-40.03"/>
</g>
<!-- Node34&#45;&gt;Node15 -->
<g id="edge48" class="edge">
<title>Node34&#45;&gt;Node15</title>
<path fill="none" stroke="midnightblue" d="M1607.12,-206.8C1585.61,-188.93 1537.77,-145.75 1515,-98 1506.43,-80.03 1503.04,-57.63 1501.73,-40.86"/>
<polygon fill="midnightblue" stroke="midnightblue" points="1505.22,-40.53 1501.13,-30.75 1498.23,-40.94 1505.22,-40.53"/>
</g>
<!-- Node34&#45;&gt;Node21 -->
<g id="edge45" class="edge">
<title>Node34&#45;&gt;Node21</title>
<path fill="none" stroke="midnightblue" d="M1659.11,-206.94C1715.69,-195.15 1817.53,-173.93 1878.94,-161.14"/>
<polygon fill="midnightblue" stroke="midnightblue" points="1879.72,-164.55 1888.8,-159.08 1878.3,-157.7 1879.72,-164.55"/>
</g>
<!-- Node35&#45;&gt;Node11 -->
<g id="edge50" class="edge">
<title>Node35&#45;&gt;Node11</title>
<path fill="none" stroke="midnightblue" d="M1432.77,-206.94C1383.3,-195.24 1294.61,-174.28 1240.35,-161.46"/>
<polygon fill="midnightblue" stroke="midnightblue" points="1240.85,-157.98 1230.31,-159.08 1239.24,-164.79 1240.85,-157.98"/>
</g>
<!-- Node36&#45;&gt;Node11 -->
<g id="edge52" class="edge">
<title>Node36&#45;&gt;Node11</title>
<path fill="none" stroke="midnightblue" d="M1303.27,-206.87C1281.9,-195.84 1244.7,-176.66 1219.72,-163.77"/>
<polygon fill="midnightblue" stroke="midnightblue" points="1221.29,-160.64 1210.8,-159.17 1218.08,-166.86 1221.29,-160.64"/>
</g>
<!-- Node37&#45;&gt;Node11 -->
<g id="edge55" class="edge">
<title>Node37&#45;&gt;Node11</title>
<path fill="none" stroke="midnightblue" d="M1044.04,-324.45C1041.95,-301.61 1039.43,-238.37 1070,-201 1086.03,-181.4 1110.87,-169.34 1134.12,-161.94"/>
<polygon fill="midnightblue" stroke="midnightblue" points="1135.35,-165.23 1143.96,-159.05 1133.38,-158.52 1135.35,-165.23"/>
</g>
<!-- Node38&#45;&gt;Node11 -->
<g id="edge57" class="edge">
<title>Node38&#45;&gt;Node11</title>
<path fill="none" stroke="midnightblue" d="M1008.13,-201.48C1051.54,-189.57 1113,-172.72 1153.17,-161.7"/>
<polygon fill="midnightblue" stroke="midnightblue" points="1154.19,-165.05 1162.9,-159.03 1152.33,-158.3 1154.19,-165.05"/>
</g>
<!-- Node38&#45;&gt;Node16 -->
<g id="edge58" class="edge">
<title>Node38&#45;&gt;Node16</title>
<path fill="none" stroke="midnightblue" d="M966.71,-201.19C990.9,-165.53 1053.79,-72.82 1080.13,-34"/>
<polygon fill="midnightblue" stroke="midnightblue" points="1083.27,-35.6 1085.99,-25.36 1077.48,-31.67 1083.27,-35.6"/>
</g>
</g>
</svg>
