<?xml version="1.0" encoding="UTF-8" standalone="no"?>
<!DOCTYPE svg PUBLIC "-//W3C//DTD SVG 1.1//EN"
 "http://www.w3.org/Graphics/SVG/1.1/DTD/svg11.dtd">
<!-- Generated by graphviz version 2.44.0 ()
 -->
<!-- Title: src/Game/Levels/Level1.cpp Pages: 1 -->
<svg width="1704pt" height="397pt"
 viewBox="0.00 0.00 1703.50 397.00" xmlns="http://www.w3.org/2000/svg" xmlns:xlink="http://www.w3.org/1999/xlink">
<g id="graph0" class="graph" transform="scale(1 1) rotate(0) translate(4 393)">
<title>src/Game/Levels/Level1.cpp</title>
<!-- Node1 -->
<g id="node1" class="node">
<title>Node1</title>
<g id="a_node1"><a xlink:title=" ">
<polygon fill="#bfbfbf" stroke="black" points="918,-369.5 918,-388.5 1060,-388.5 1060,-369.5 918,-369.5"/>
<text text-anchor="middle" x="989" y="-376.5" font-family="Helvetica,sans-Serif" font-size="10.00">src/Game/Levels/Level1.cpp</text>
</a>
</g>
</g>
<!-- Node2 -->
<g id="node2" class="node">
<title>Node2</title>
<g id="a_node2"><a xlink:href="Level1_8hpp.html" target="_top" xlink:title=" ">
<polygon fill="none" stroke="black" points="618,-313.5 618,-332.5 682,-332.5 682,-313.5 618,-313.5"/>
<text text-anchor="middle" x="650" y="-320.5" font-family="Helvetica,sans-Serif" font-size="10.00">Level1.hpp</text>
</a>
</g>
</g>
<!-- Node1&#45;&gt;Node2 -->
<g id="edge1" class="edge">
<title>Node1&#45;&gt;Node2</title>
<path fill="none" stroke="midnightblue" d="M935.28,-369.44C867.87,-358.7 753.64,-340.51 692.16,-330.72"/>
<polygon fill="midnightblue" stroke="midnightblue" points="692.47,-327.22 682.04,-329.1 691.37,-334.13 692.47,-327.22"/>
</g>
<!-- Node7 -->
<g id="node7" class="node">
<title>Node7</title>
<g id="a_node7"><a xlink:title=" ">
<polygon fill="none" stroke="#bfbfbf" points="678,-201.5 678,-220.5 774,-220.5 774,-201.5 678,-201.5"/>
<text text-anchor="middle" x="726" y="-208.5" font-family="Helvetica,sans-Serif" font-size="10.00">Engine/Engine.hpp</text>
</a>
</g>
</g>
<!-- Node1&#45;&gt;Node7 -->
<g id="edge35" class="edge">
<title>Node1&#45;&gt;Node7</title>
<path fill="none" stroke="midnightblue" d="M975.23,-369.31C932.36,-342.25 800.98,-259.32 748.24,-226.04"/>
<polygon fill="midnightblue" stroke="midnightblue" points="749.96,-222.98 739.63,-220.61 746.22,-228.9 749.96,-222.98"/>
</g>
<!-- Node19 -->
<g id="node19" class="node">
<title>Node19</title>
<g id="a_node19"><a xlink:title=" ">
<polygon fill="none" stroke="#bfbfbf" points="531,-140 531,-159 689,-159 689,-140 531,-140"/>
<text text-anchor="middle" x="610" y="-147" font-family="Helvetica,sans-Serif" font-size="10.00">Director/GameObjectFactory.hpp</text>
</a>
</g>
</g>
<!-- Node1&#45;&gt;Node19 -->
<g id="edge34" class="edge">
<title>Node1&#45;&gt;Node19</title>
<path fill="none" stroke="midnightblue" d="M999.86,-369.28C1032.95,-341.74 1127.3,-255.19 1078,-201 1049.46,-169.63 740.06,-170.45 698,-165 688.21,-163.73 677.84,-162.2 667.78,-160.6"/>
<polygon fill="midnightblue" stroke="midnightblue" points="668.3,-157.14 657.87,-159 667.18,-164.05 668.3,-157.14"/>
</g>
<!-- Node20 -->
<g id="node20" class="node">
<title>Node20</title>
<g id="a_node20"><a xlink:title=" ">
<polygon fill="none" stroke="#bfbfbf" points="908.5,-201.5 908.5,-220.5 1069.5,-220.5 1069.5,-201.5 908.5,-201.5"/>
<text text-anchor="middle" x="989" y="-208.5" font-family="Helvetica,sans-Serif" font-size="10.00">Behaviour/CollisionBehaviour.hpp</text>
</a>
</g>
</g>
<!-- Node1&#45;&gt;Node20 -->
<g id="edge33" class="edge">
<title>Node1&#45;&gt;Node20</title>
<path fill="none" stroke="midnightblue" d="M989,-369.08C989,-342.95 989,-266.21 989,-230.58"/>
<polygon fill="midnightblue" stroke="midnightblue" points="992.5,-230.57 989,-220.57 985.5,-230.57 992.5,-230.57"/>
</g>
<!-- Node29 -->
<g id="node29" class="node">
<title>Node29</title>
<g id="a_node29"><a xlink:href="TileConfig_8hpp.html" target="_top" xlink:title=" ">
<polygon fill="none" stroke="black" points="1164.5,-201.5 1164.5,-220.5 1241.5,-220.5 1241.5,-201.5 1164.5,-201.5"/>
<text text-anchor="middle" x="1203" y="-208.5" font-family="Helvetica,sans-Serif" font-size="10.00">TileConfig.hpp</text>
</a>
</g>
</g>
<!-- Node1&#45;&gt;Node29 -->
<g id="edge36" class="edge">
<title>Node1&#45;&gt;Node29</title>
<path fill="none" stroke="midnightblue" d="M1029.51,-369.45C1054.98,-362.63 1087.53,-351.16 1112,-333 1150.2,-304.65 1179.87,-255.91 1193.98,-229.78"/>
<polygon fill="midnightblue" stroke="midnightblue" points="1197.21,-231.15 1198.76,-220.67 1191.01,-227.9 1197.21,-231.15"/>
</g>
<!-- Node3 -->
<g id="node3" class="node">
<title>Node3</title>
<g id="a_node3"><a xlink:title=" ">
<polygon fill="none" stroke="#bfbfbf" points="0,-201.5 0,-220.5 62,-220.5 62,-201.5 0,-201.5"/>
<text text-anchor="middle" x="31" y="-208.5" font-family="Helvetica,sans-Serif" font-size="10.00">Scene.hpp</text>
</a>
</g>
</g>
<!-- Node2&#45;&gt;Node3 -->
<g id="edge2" class="edge">
<title>Node2&#45;&gt;Node3</title>
<path fill="none" stroke="midnightblue" d="M617.89,-316.96C531.4,-303.27 286.21,-263.67 72.25,-221.18"/>
<polygon fill="midnightblue" stroke="midnightblue" points="72.9,-217.74 62.41,-219.22 71.54,-224.61 72.9,-217.74"/>
</g>
<!-- Node4 -->
<g id="node4" class="node">
<title>Node4</title>
<g id="a_node4"><a xlink:href="Level_8hpp.html" target="_top" xlink:title=" ">
<polygon fill="none" stroke="black" points="484.5,-257.5 484.5,-276.5 543.5,-276.5 543.5,-257.5 484.5,-257.5"/>
<text text-anchor="middle" x="514" y="-264.5" font-family="Helvetica,sans-Serif" font-size="10.00">Level.hpp</text>
</a>
</g>
</g>
<!-- Node2&#45;&gt;Node4 -->
<g id="edge3" class="edge">
<title>Node2&#45;&gt;Node4</title>
<path fill="none" stroke="midnightblue" d="M628.45,-313.44C605.97,-304.52 570.51,-290.44 545.02,-280.32"/>
<polygon fill="midnightblue" stroke="midnightblue" points="546.03,-276.95 535.45,-276.52 543.45,-283.46 546.03,-276.95"/>
</g>
<!-- Node21 -->
<g id="node21" class="node">
<title>Node21</title>
<g id="a_node21"><a xlink:href="CoinCounter_8hpp.html" target="_top" xlink:title=" ">
<polygon fill="none" stroke="black" points="1111.5,-73 1111.5,-92 1212.5,-92 1212.5,-73 1111.5,-73"/>
<text text-anchor="middle" x="1162" y="-80" font-family="Helvetica,sans-Serif" font-size="10.00">UI/CoinCounter.hpp</text>
</a>
</g>
</g>
<!-- Node2&#45;&gt;Node21 -->
<g id="edge22" class="edge">
<title>Node2&#45;&gt;Node21</title>
<path fill="none" stroke="midnightblue" d="M663.69,-313.46C700.3,-291.03 804.15,-230.22 899,-201 951.8,-184.73 1104.77,-202.87 1145,-165 1161.91,-149.08 1164.29,-121.05 1163.72,-102.37"/>
<polygon fill="midnightblue" stroke="midnightblue" points="1167.2,-101.91 1163.08,-92.14 1160.21,-102.34 1167.2,-101.91"/>
</g>
<!-- Node28 -->
<g id="node28" class="node">
<title>Node28</title>
<g id="a_node28"><a xlink:title=" ">
<polygon fill="none" stroke="#bfbfbf" points="599.5,-257.5 599.5,-276.5 700.5,-276.5 700.5,-257.5 599.5,-257.5"/>
<text text-anchor="middle" x="650" y="-264.5" font-family="Helvetica,sans-Serif" font-size="10.00">UI/FPSCounter.hpp</text>
</a>
</g>
</g>
<!-- Node2&#45;&gt;Node28 -->
<g id="edge32" class="edge">
<title>Node2&#45;&gt;Node28</title>
<path fill="none" stroke="midnightblue" d="M650,-313.08C650,-306.01 650,-295.86 650,-286.99"/>
<polygon fill="midnightblue" stroke="midnightblue" points="653.5,-286.75 650,-276.75 646.5,-286.75 653.5,-286.75"/>
</g>
<!-- Node4&#45;&gt;Node3 -->
<g id="edge4" class="edge">
<title>Node4&#45;&gt;Node3</title>
<path fill="none" stroke="midnightblue" d="M484.29,-264.22C414.24,-259.76 233.14,-246.69 72.44,-221.06"/>
<polygon fill="midnightblue" stroke="midnightblue" points="72.8,-217.57 62.37,-219.43 71.69,-224.48 72.8,-217.57"/>
</g>
<!-- Node5 -->
<g id="node5" class="node">
<title>Node5</title>
<g id="a_node5"><a xlink:href="Sprites_8hpp.html" target="_top" xlink:title=" ">
<polygon fill="none" stroke="black" points="316.5,-201.5 316.5,-220.5 427.5,-220.5 427.5,-201.5 316.5,-201.5"/>
<text text-anchor="middle" x="372" y="-208.5" font-family="Helvetica,sans-Serif" font-size="10.00">constants/Sprites.hpp</text>
</a>
</g>
</g>
<!-- Node4&#45;&gt;Node5 -->
<g id="edge5" class="edge">
<title>Node4&#45;&gt;Node5</title>
<path fill="none" stroke="midnightblue" d="M491.5,-257.44C467.92,-248.48 430.68,-234.31 404.04,-224.18"/>
<polygon fill="midnightblue" stroke="midnightblue" points="404.99,-220.8 394.4,-220.52 402.5,-227.34 404.99,-220.8"/>
</g>
<!-- Node4&#45;&gt;Node7 -->
<g id="edge7" class="edge">
<title>Node4&#45;&gt;Node7</title>
<path fill="none" stroke="midnightblue" d="M543.92,-258.38C580.09,-249.17 641.23,-233.59 682.58,-223.06"/>
<polygon fill="midnightblue" stroke="midnightblue" points="683.55,-226.42 692.38,-220.56 681.83,-219.64 683.55,-226.42"/>
</g>
<!-- Node8 -->
<g id="node8" class="node">
<title>Node8</title>
<g id="a_node8"><a xlink:title=" ">
<polygon fill="none" stroke="#bfbfbf" points="80.5,-201.5 80.5,-220.5 189.5,-220.5 189.5,-201.5 80.5,-201.5"/>
<text text-anchor="middle" x="135" y="-208.5" font-family="Helvetica,sans-Serif" font-size="10.00">Utility/InputEnum.hpp</text>
</a>
</g>
</g>
<!-- Node4&#45;&gt;Node8 -->
<g id="edge8" class="edge">
<title>Node4&#45;&gt;Node8</title>
<path fill="none" stroke="midnightblue" d="M484.26,-261.76C423.28,-253.07 282.86,-233.07 199.84,-221.24"/>
<polygon fill="midnightblue" stroke="midnightblue" points="200.15,-217.75 189.76,-219.8 199.16,-224.68 200.15,-217.75"/>
</g>
<!-- Node9 -->
<g id="node9" class="node">
<title>Node9</title>
<g id="a_node9"><a xlink:title=" ">
<polygon fill="none" stroke="#bfbfbf" points="208,-201.5 208,-220.5 298,-220.5 298,-201.5 208,-201.5"/>
<text text-anchor="middle" x="253" y="-208.5" font-family="Helvetica,sans-Serif" font-size="10.00">AudioSource.hpp</text>
</a>
</g>
</g>
<!-- Node4&#45;&gt;Node9 -->
<g id="edge9" class="edge">
<title>Node4&#45;&gt;Node9</title>
<path fill="none" stroke="midnightblue" d="M484.31,-259.86C440.51,-250.79 357.95,-233.71 304.24,-222.6"/>
<polygon fill="midnightblue" stroke="midnightblue" points="304.73,-219.13 294.23,-220.53 303.31,-225.98 304.73,-219.13"/>
</g>
<!-- Node10 -->
<g id="node10" class="node">
<title>Node10</title>
<g id="a_node10"><a xlink:href="MarioBehaviour_8hpp.html" target="_top" xlink:title=" ">
<polygon fill="none" stroke="black" points="446,-201.5 446,-220.5 582,-220.5 582,-201.5 446,-201.5"/>
<text text-anchor="middle" x="514" y="-208.5" font-family="Helvetica,sans-Serif" font-size="10.00">Scripts/MarioBehaviour.hpp</text>
</a>
</g>
</g>
<!-- Node4&#45;&gt;Node10 -->
<g id="edge10" class="edge">
<title>Node4&#45;&gt;Node10</title>
<path fill="none" stroke="midnightblue" d="M514,-257.08C514,-250.01 514,-239.86 514,-230.99"/>
<polygon fill="midnightblue" stroke="midnightblue" points="517.5,-230.75 514,-220.75 510.5,-230.75 517.5,-230.75"/>
</g>
<!-- Node4&#45;&gt;Node19 -->
<g id="edge20" class="edge">
<title>Node4&#45;&gt;Node19</title>
<path fill="none" stroke="midnightblue" d="M538.63,-257.42C555.73,-250.24 577.74,-238.35 591,-221 602.41,-206.07 606.98,-184.8 608.8,-169.53"/>
<polygon fill="midnightblue" stroke="midnightblue" points="612.32,-169.5 609.73,-159.23 605.34,-168.87 612.32,-169.5"/>
</g>
<!-- Node4&#45;&gt;Node20 -->
<g id="edge21" class="edge">
<title>Node4&#45;&gt;Node20</title>
<path fill="none" stroke="midnightblue" d="M543.59,-262.46C557.65,-260.78 574.69,-258.77 590,-257 697.58,-244.56 821.53,-230.65 902.36,-221.63"/>
<polygon fill="midnightblue" stroke="midnightblue" points="902.94,-225.09 912.49,-220.5 902.17,-218.13 902.94,-225.09"/>
</g>
<!-- Node6 -->
<g id="node6" class="node">
<title>Node6</title>
<g id="a_node6"><a xlink:title=" ">
<polygon fill="none" stroke="#bfbfbf" points="267.5,-140 267.5,-159 308.5,-159 308.5,-140 267.5,-140"/>
<text text-anchor="middle" x="288" y="-147" font-family="Helvetica,sans-Serif" font-size="10.00">string</text>
</a>
</g>
</g>
<!-- Node5&#45;&gt;Node6 -->
<g id="edge6" class="edge">
<title>Node5&#45;&gt;Node6</title>
<path fill="none" stroke="midnightblue" d="M359.96,-201.48C346.49,-191.93 324.43,-176.31 308.28,-164.87"/>
<polygon fill="midnightblue" stroke="midnightblue" points="310.2,-161.93 300.01,-159.01 306.15,-167.65 310.2,-161.93"/>
</g>
<!-- Node11 -->
<g id="node11" class="node">
<title>Node11</title>
<g id="a_node11"><a xlink:title=" ">
<polygon fill="none" stroke="#bfbfbf" points="730,-73 730,-92 834,-92 834,-73 730,-73"/>
<text text-anchor="middle" x="782" y="-80" font-family="Helvetica,sans-Serif" font-size="10.00">BehaviourScript.hpp</text>
</a>
</g>
</g>
<!-- Node10&#45;&gt;Node11 -->
<g id="edge11" class="edge">
<title>Node10&#45;&gt;Node11</title>
<path fill="none" stroke="midnightblue" d="M511.97,-201.4C508.85,-185.79 504.88,-152.68 522,-134 535.32,-119.47 647.4,-101.75 719.99,-91.63"/>
<polygon fill="midnightblue" stroke="midnightblue" points="720.53,-95.09 729.96,-90.26 719.57,-88.16 720.53,-95.09"/>
</g>
<!-- Node12 -->
<g id="node12" class="node">
<title>Node12</title>
<g id="a_node12"><a xlink:href="MarioState_8hpp.html" target="_top" xlink:title=" ">
<polygon fill="none" stroke="black" points="540.5,-67.5 540.5,-97.5 643.5,-97.5 643.5,-67.5 540.5,-67.5"/>
<text text-anchor="start" x="548.5" y="-85.5" font-family="Helvetica,sans-Serif" font-size="10.00">Scripts/MarioStates</text>
<text text-anchor="middle" x="592" y="-74.5" font-family="Helvetica,sans-Serif" font-size="10.00">/MarioState.hpp</text>
</a>
</g>
</g>
<!-- Node10&#45;&gt;Node12 -->
<g id="edge12" class="edge">
<title>Node10&#45;&gt;Node12</title>
<path fill="none" stroke="midnightblue" d="M506.72,-201.45C495.14,-186.76 475.19,-156.16 489,-134 498.6,-118.6 514.42,-107.77 530.8,-100.2"/>
<polygon fill="midnightblue" stroke="midnightblue" points="532.63,-103.23 540.48,-96.11 529.9,-96.78 532.63,-103.23"/>
</g>
<!-- Node18 -->
<g id="node18" class="node">
<title>Node18</title>
<g id="a_node18"><a xlink:href="SmallMarioState_8hpp.html" target="_top" xlink:title=" ">
<polygon fill="none" stroke="black" points="327,-134.5 327,-164.5 437,-164.5 437,-134.5 327,-134.5"/>
<text text-anchor="start" x="335" y="-152.5" font-family="Helvetica,sans-Serif" font-size="10.00">Scripts/MarioStates</text>
<text text-anchor="middle" x="382" y="-141.5" font-family="Helvetica,sans-Serif" font-size="10.00">/SmallMarioState.hpp</text>
</a>
</g>
</g>
<!-- Node10&#45;&gt;Node18 -->
<g id="edge18" class="edge">
<title>Node10&#45;&gt;Node18</title>
<path fill="none" stroke="midnightblue" d="M495.09,-201.48C476.21,-192.96 446.6,-179.62 422.42,-168.72"/>
<polygon fill="midnightblue" stroke="midnightblue" points="423.66,-165.44 413.11,-164.52 420.79,-171.82 423.66,-165.44"/>
</g>
<!-- Node13 -->
<g id="node13" class="node">
<title>Node13</title>
<g id="a_node13"><a xlink:title=" ">
<polygon fill="none" stroke="#bfbfbf" points="904.5,-0.5 904.5,-30.5 999.5,-30.5 999.5,-0.5 904.5,-0.5"/>
<text text-anchor="start" x="912.5" y="-18.5" font-family="Helvetica,sans-Serif" font-size="10.00">boost/serialization</text>
<text text-anchor="middle" x="952" y="-7.5" font-family="Helvetica,sans-Serif" font-size="10.00">/access.hpp</text>
</a>
</g>
</g>
<!-- Node12&#45;&gt;Node13 -->
<g id="edge13" class="edge">
<title>Node12&#45;&gt;Node13</title>
<path fill="none" stroke="midnightblue" d="M643.71,-74.23C702.16,-65.72 800.32,-50.51 894.5,-30.99"/>
<polygon fill="midnightblue" stroke="midnightblue" points="895.41,-34.38 904.48,-28.91 893.98,-27.53 895.41,-34.38"/>
</g>
<!-- Node14 -->
<g id="node14" class="node">
<title>Node14</title>
<g id="a_node14"><a xlink:title=" ">
<polygon fill="none" stroke="#bfbfbf" points="678.5,-0.5 678.5,-30.5 773.5,-30.5 773.5,-0.5 678.5,-0.5"/>
<text text-anchor="start" x="686.5" y="-18.5" font-family="Helvetica,sans-Serif" font-size="10.00">boost/serialization</text>
<text text-anchor="middle" x="726" y="-7.5" font-family="Helvetica,sans-Serif" font-size="10.00">/export.hpp</text>
</a>
</g>
</g>
<!-- Node12&#45;&gt;Node14 -->
<g id="edge14" class="edge">
<title>Node12&#45;&gt;Node14</title>
<path fill="none" stroke="midnightblue" d="M621.08,-67.4C640.65,-57.9 666.68,-45.28 687.91,-34.98"/>
<polygon fill="midnightblue" stroke="midnightblue" points="689.51,-38.09 696.98,-30.58 686.46,-31.79 689.51,-38.09"/>
</g>
<!-- Node15 -->
<g id="node15" class="node">
<title>Node15</title>
<g id="a_node15"><a xlink:title=" ">
<polygon fill="none" stroke="#bfbfbf" points="791.5,-0.5 791.5,-30.5 886.5,-30.5 886.5,-0.5 791.5,-0.5"/>
<text text-anchor="start" x="799.5" y="-18.5" font-family="Helvetica,sans-Serif" font-size="10.00">boost/serialization</text>
<text text-anchor="middle" x="839" y="-7.5" font-family="Helvetica,sans-Serif" font-size="10.00">/shared_ptr.hpp</text>
</a>
</g>
</g>
<!-- Node12&#45;&gt;Node15 -->
<g id="edge15" class="edge">
<title>Node12&#45;&gt;Node15</title>
<path fill="none" stroke="midnightblue" d="M643.78,-67.87C684.12,-57.26 740.07,-42.53 781.74,-31.57"/>
<polygon fill="midnightblue" stroke="midnightblue" points="782.69,-34.94 791.47,-29.01 780.91,-28.17 782.69,-34.94"/>
</g>
<!-- Node16 -->
<g id="node16" class="node">
<title>Node16</title>
<g id="a_node16"><a xlink:title=" ">
<polygon fill="none" stroke="#bfbfbf" points="523.5,-6 523.5,-25 660.5,-25 660.5,-6 523.5,-6"/>
<text text-anchor="middle" x="592" y="-13" font-family="Helvetica,sans-Serif" font-size="10.00">Texture/AnimatedSprite.hpp</text>
</a>
</g>
</g>
<!-- Node12&#45;&gt;Node16 -->
<g id="edge16" class="edge">
<title>Node12&#45;&gt;Node16</title>
<path fill="none" stroke="midnightblue" d="M592,-67.4C592,-58.06 592,-45.71 592,-35.52"/>
<polygon fill="midnightblue" stroke="midnightblue" points="595.5,-35.19 592,-25.19 588.5,-35.19 595.5,-35.19"/>
</g>
<!-- Node17 -->
<g id="node17" class="node">
<title>Node17</title>
<g id="a_node17"><a xlink:title=" ">
<polygon fill="none" stroke="#bfbfbf" points="448.5,-6 448.5,-25 505.5,-25 505.5,-6 448.5,-6"/>
<text text-anchor="middle" x="477" y="-13" font-family="Helvetica,sans-Serif" font-size="10.00">Point.hpp</text>
</a>
</g>
</g>
<!-- Node12&#45;&gt;Node17 -->
<g id="edge17" class="edge">
<title>Node12&#45;&gt;Node17</title>
<path fill="none" stroke="midnightblue" d="M567.05,-67.4C547.4,-56.29 520.21,-40.92 500.85,-29.98"/>
<polygon fill="midnightblue" stroke="midnightblue" points="502.48,-26.88 492.05,-25.01 499.03,-32.97 502.48,-26.88"/>
</g>
<!-- Node18&#45;&gt;Node12 -->
<g id="edge19" class="edge">
<title>Node18&#45;&gt;Node12</title>
<path fill="none" stroke="midnightblue" d="M427.31,-134.48C459.35,-124.56 502.5,-111.2 536.6,-100.65"/>
<polygon fill="midnightblue" stroke="midnightblue" points="537.89,-103.91 546.41,-97.61 535.82,-97.22 537.89,-103.91"/>
</g>
<!-- Node21&#45;&gt;Node13 -->
<g id="edge24" class="edge">
<title>Node21&#45;&gt;Node13</title>
<path fill="none" stroke="midnightblue" d="M1134.11,-72.87C1101.85,-62.88 1047.94,-46.2 1007.13,-33.56"/>
<polygon fill="midnightblue" stroke="midnightblue" points="1007.91,-30.14 997.32,-30.53 1005.84,-36.83 1007.91,-30.14"/>
</g>
<!-- Node21&#45;&gt;Node14 -->
<g id="edge25" class="edge">
<title>Node21&#45;&gt;Node14</title>
<path fill="none" stroke="midnightblue" d="M1111.28,-76.74C1040.05,-69.61 906.22,-54.64 783.51,-31.16"/>
<polygon fill="midnightblue" stroke="midnightblue" points="784.05,-27.7 773.57,-29.24 782.72,-34.57 784.05,-27.7"/>
</g>
<!-- Node21&#45;&gt;Node15 -->
<g id="edge26" class="edge">
<title>Node21&#45;&gt;Node15</title>
<path fill="none" stroke="midnightblue" d="M1111.6,-73C1059.87,-64.04 976.84,-49.02 896.4,-31.24"/>
<polygon fill="midnightblue" stroke="midnightblue" points="897.13,-27.81 886.61,-29.06 895.61,-34.65 897.13,-27.81"/>
</g>
<!-- Node22 -->
<g id="node22" class="node">
<title>Node22</title>
<g id="a_node22"><a xlink:title=" ">
<polygon fill="none" stroke="#bfbfbf" points="1526.5,-6 1526.5,-25 1577.5,-25 1577.5,-6 1526.5,-6"/>
<text text-anchor="middle" x="1552" y="-13" font-family="Helvetica,sans-Serif" font-size="10.00">memory</text>
</a>
</g>
</g>
<!-- Node21&#45;&gt;Node22 -->
<g id="edge23" class="edge">
<title>Node21&#45;&gt;Node22</title>
<path fill="none" stroke="midnightblue" d="M1197.3,-72.98C1206.9,-70.84 1217.32,-68.68 1227,-67 1355.41,-44.79 1392.17,-64.89 1518,-31 1520.3,-30.38 1522.65,-29.64 1524.98,-28.81"/>
<polygon fill="midnightblue" stroke="midnightblue" points="1526.31,-32.05 1534.34,-25.14 1523.75,-25.54 1526.31,-32.05"/>
</g>
<!-- Node23 -->
<g id="node23" class="node">
<title>Node23</title>
<g id="a_node23"><a xlink:title=" ">
<polygon fill="none" stroke="#bfbfbf" points="1110,-0.5 1110,-30.5 1214,-30.5 1214,-0.5 1110,-0.5"/>
<text text-anchor="start" x="1118" y="-18.5" font-family="Helvetica,sans-Serif" font-size="10.00">boost/archive/binary</text>
<text text-anchor="middle" x="1162" y="-7.5" font-family="Helvetica,sans-Serif" font-size="10.00">_iarchive.hpp</text>
</a>
</g>
</g>
<!-- Node21&#45;&gt;Node23 -->
<g id="edge27" class="edge">
<title>Node21&#45;&gt;Node23</title>
<path fill="none" stroke="midnightblue" d="M1162,-72.73C1162,-64.54 1162,-51.92 1162,-40.71"/>
<polygon fill="midnightblue" stroke="midnightblue" points="1165.5,-40.59 1162,-30.59 1158.5,-40.59 1165.5,-40.59"/>
</g>
<!-- Node24 -->
<g id="node24" class="node">
<title>Node24</title>
<g id="a_node24"><a xlink:title=" ">
<polygon fill="none" stroke="#bfbfbf" points="1232,-0.5 1232,-30.5 1336,-30.5 1336,-0.5 1232,-0.5"/>
<text text-anchor="start" x="1240" y="-18.5" font-family="Helvetica,sans-Serif" font-size="10.00">boost/archive/binary</text>
<text text-anchor="middle" x="1284" y="-7.5" font-family="Helvetica,sans-Serif" font-size="10.00">_oarchive.hpp</text>
</a>
</g>
</g>
<!-- Node21&#45;&gt;Node24 -->
<g id="edge28" class="edge">
<title>Node21&#45;&gt;Node24</title>
<path fill="none" stroke="midnightblue" d="M1178.2,-72.87C1196.05,-63.36 1225.32,-47.77 1248.55,-35.39"/>
<polygon fill="midnightblue" stroke="midnightblue" points="1250.26,-38.44 1257.44,-30.65 1246.97,-32.26 1250.26,-38.44"/>
</g>
<!-- Node25 -->
<g id="node25" class="node">
<title>Node25</title>
<g id="a_node25"><a xlink:title=" ">
<polygon fill="none" stroke="#bfbfbf" points="1354.5,-6 1354.5,-25 1411.5,-25 1411.5,-6 1354.5,-6"/>
<text text-anchor="middle" x="1383" y="-13" font-family="Helvetica,sans-Serif" font-size="10.00">Color.hpp</text>
</a>
</g>
</g>
<!-- Node21&#45;&gt;Node25 -->
<g id="edge29" class="edge">
<title>Node21&#45;&gt;Node25</title>
<path fill="none" stroke="midnightblue" d="M1196.7,-72.98C1233.72,-63.64 1293.95,-47.74 1345,-31 1347.26,-30.26 1349.59,-29.46 1351.93,-28.63"/>
<polygon fill="midnightblue" stroke="midnightblue" points="1353.25,-31.88 1361.42,-25.14 1350.83,-25.31 1353.25,-31.88"/>
</g>
<!-- Node26 -->
<g id="node26" class="node">
<title>Node26</title>
<g id="a_node26"><a xlink:title=" ">
<polygon fill="none" stroke="#bfbfbf" points="1429.5,-6 1429.5,-25 1508.5,-25 1508.5,-6 1429.5,-6"/>
<text text-anchor="middle" x="1469" y="-13" font-family="Helvetica,sans-Serif" font-size="10.00">Transform.hpp</text>
</a>
</g>
</g>
<!-- Node21&#45;&gt;Node26 -->
<g id="edge30" class="edge">
<title>Node21&#45;&gt;Node26</title>
<path fill="none" stroke="midnightblue" d="M1199.07,-72.99C1208.19,-70.96 1217.94,-68.85 1227,-67 1312.92,-49.45 1335.79,-51.71 1421,-31 1424.89,-30.06 1428.92,-28.98 1432.93,-27.86"/>
<polygon fill="midnightblue" stroke="midnightblue" points="1434.11,-31.16 1442.74,-25 1432.16,-24.44 1434.11,-31.16"/>
</g>
<!-- Node27 -->
<g id="node27" class="node">
<title>Node27</title>
<g id="a_node27"><a xlink:title=" ">
<polygon fill="none" stroke="#bfbfbf" points="1018,-6 1018,-25 1092,-25 1092,-6 1018,-6"/>
<text text-anchor="middle" x="1055" y="-13" font-family="Helvetica,sans-Serif" font-size="10.00">UIObject.hpp</text>
</a>
</g>
</g>
<!-- Node21&#45;&gt;Node27 -->
<g id="edge31" class="edge">
<title>Node21&#45;&gt;Node27</title>
<path fill="none" stroke="midnightblue" d="M1147.57,-72.73C1129.68,-61.87 1098.98,-43.22 1077.87,-30.39"/>
<polygon fill="midnightblue" stroke="midnightblue" points="1079.57,-27.33 1069.2,-25.13 1075.93,-33.31 1079.57,-27.33"/>
</g>
<!-- Node29&#45;&gt;Node19 -->
<g id="edge42" class="edge">
<title>Node29&#45;&gt;Node19</title>
<path fill="none" stroke="midnightblue" d="M1164.49,-206.09C1148.29,-204.47 1129.23,-202.6 1112,-201 928.1,-183.91 881.25,-188.03 698,-165 688.21,-163.77 677.83,-162.25 667.78,-160.67"/>
<polygon fill="midnightblue" stroke="midnightblue" points="668.29,-157.21 657.86,-159.07 667.17,-164.12 668.29,-157.21"/>
</g>
<!-- Node29&#45;&gt;Node21 -->
<g id="edge53" class="edge">
<title>Node29&#45;&gt;Node21</title>
<path fill="none" stroke="midnightblue" d="M1200.25,-201.09C1195.84,-186.88 1186.9,-158.2 1179,-134 1175.5,-123.26 1171.47,-111.29 1168.22,-101.69"/>
<polygon fill="midnightblue" stroke="midnightblue" points="1171.47,-100.4 1164.94,-92.06 1164.85,-102.66 1171.47,-100.4"/>
</g>
<!-- Node29&#45;&gt;Node22 -->
<g id="edge39" class="edge">
<title>Node29&#45;&gt;Node22</title>
<path fill="none" stroke="midnightblue" d="M1207.57,-201.26C1216.11,-185.71 1235.9,-153.09 1261,-134 1358.96,-59.52 1404.29,-78.03 1518,-31 1519.59,-30.34 1521.22,-29.66 1522.86,-28.98"/>
<polygon fill="midnightblue" stroke="midnightblue" points="1524.4,-32.12 1532.25,-25.01 1521.68,-25.68 1524.4,-32.12"/>
</g>
<!-- Node30 -->
<g id="node30" class="node">
<title>Node30</title>
<g id="a_node30"><a xlink:title=" ">
<polygon fill="none" stroke="#bfbfbf" points="1269.5,-140 1269.5,-159 1328.5,-159 1328.5,-140 1269.5,-140"/>
<text text-anchor="middle" x="1299" y="-147" font-family="Helvetica,sans-Serif" font-size="10.00">functional</text>
</a>
</g>
</g>
<!-- Node29&#45;&gt;Node30 -->
<g id="edge37" class="edge">
<title>Node29&#45;&gt;Node30</title>
<path fill="none" stroke="midnightblue" d="M1216.75,-201.48C1232.37,-191.8 1258.06,-175.87 1276.58,-164.39"/>
<polygon fill="midnightblue" stroke="midnightblue" points="1278.62,-167.25 1285.27,-159.01 1274.93,-161.3 1278.62,-167.25"/>
</g>
<!-- Node31 -->
<g id="node31" class="node">
<title>Node31</title>
<g id="a_node31"><a xlink:title=" ">
<polygon fill="none" stroke="#bfbfbf" points="1346.5,-140 1346.5,-159 1381.5,-159 1381.5,-140 1346.5,-140"/>
<text text-anchor="middle" x="1364" y="-147" font-family="Helvetica,sans-Serif" font-size="10.00">map</text>
</a>
</g>
</g>
<!-- Node29&#45;&gt;Node31 -->
<g id="edge38" class="edge">
<title>Node29&#45;&gt;Node31</title>
<path fill="none" stroke="midnightblue" d="M1233.91,-201.49C1261.68,-193.43 1303.3,-180.3 1338,-165 1338.85,-164.63 1339.71,-164.23 1340.57,-163.83"/>
<polygon fill="midnightblue" stroke="midnightblue" points="1342.39,-166.82 1349.67,-159.12 1339.18,-160.6 1342.39,-166.82"/>
</g>
<!-- Node32 -->
<g id="node32" class="node">
<title>Node32</title>
<g id="a_node32"><a xlink:title=" ">
<polygon fill="none" stroke="#bfbfbf" points="1400,-140 1400,-159 1552,-159 1552,-140 1400,-140"/>
<text text-anchor="middle" x="1476" y="-147" font-family="Helvetica,sans-Serif" font-size="10.00">Builder/GameObjectBuilder.hpp</text>
</a>
</g>
</g>
<!-- Node29&#45;&gt;Node32 -->
<g id="edge40" class="edge">
<title>Node29&#45;&gt;Node32</title>
<path fill="none" stroke="midnightblue" d="M1241.54,-201.6C1290.14,-191.01 1373.77,-172.78 1426.9,-161.2"/>
<polygon fill="midnightblue" stroke="midnightblue" points="1427.75,-164.6 1436.78,-159.05 1426.26,-157.76 1427.75,-164.6"/>
</g>
<!-- Node33 -->
<g id="node33" class="node">
<title>Node33</title>
<g id="a_node33"><a xlink:title=" ">
<polygon fill="none" stroke="#bfbfbf" points="1570.5,-140 1570.5,-159 1695.5,-159 1695.5,-140 1570.5,-140"/>
<text text-anchor="middle" x="1633" y="-147" font-family="Helvetica,sans-Serif" font-size="10.00">Builder/SceneBuilder.hpp</text>
</a>
</g>
</g>
<!-- Node29&#45;&gt;Node33 -->
<g id="edge41" class="edge">
<title>Node29&#45;&gt;Node33</title>
<path fill="none" stroke="midnightblue" d="M1241.54,-206.1C1307.29,-199.23 1445.24,-183.91 1561,-165 1568.35,-163.8 1576.09,-162.39 1583.67,-160.93"/>
<polygon fill="midnightblue" stroke="midnightblue" points="1584.35,-164.37 1593.48,-159 1583,-157.5 1584.35,-164.37"/>
</g>
<!-- Node34 -->
<g id="node34" class="node">
<title>Node34</title>
<g id="a_node34"><a xlink:href="CoinBehaviour_8hpp.html" target="_top" xlink:title=" ">
<polygon fill="none" stroke="black" points="1005.5,-140 1005.5,-159 1136.5,-159 1136.5,-140 1005.5,-140"/>
<text text-anchor="middle" x="1071" y="-147" font-family="Helvetica,sans-Serif" font-size="10.00">Scripts/CoinBehaviour.hpp</text>
</a>
</g>
</g>
<!-- Node29&#45;&gt;Node34 -->
<g id="edge43" class="edge">
<title>Node29&#45;&gt;Node34</title>
<path fill="none" stroke="midnightblue" d="M1184.09,-201.48C1161.84,-191.45 1124.69,-174.7 1099.07,-163.15"/>
<polygon fill="midnightblue" stroke="midnightblue" points="1100.43,-159.93 1089.88,-159.01 1097.56,-166.31 1100.43,-159.93"/>
</g>
<!-- Node35 -->
<g id="node35" class="node">
<title>Node35</title>
<g id="a_node35"><a xlink:href="FlagBehaviour_8hpp.html" target="_top" xlink:title=" ">
<polygon fill="none" stroke="black" points="707.5,-140 707.5,-159 838.5,-159 838.5,-140 707.5,-140"/>
<text text-anchor="middle" x="773" y="-147" font-family="Helvetica,sans-Serif" font-size="10.00">Scripts/FlagBehaviour.hpp</text>
</a>
</g>
</g>
<!-- Node29&#45;&gt;Node35 -->
<g id="edge49" class="edge">
<title>Node29&#45;&gt;Node35</title>
<path fill="none" stroke="midnightblue" d="M1164.27,-205.92C1098.9,-198.86 962.56,-183.32 848,-165 840.36,-163.78 832.3,-162.36 824.42,-160.9"/>
<polygon fill="midnightblue" stroke="midnightblue" points="825.05,-157.45 814.57,-159.03 823.74,-164.33 825.05,-157.45"/>
</g>
<!-- Node36 -->
<g id="node36" class="node">
<title>Node36</title>
<g id="a_node36"><a xlink:href="StarBehaviour_8hpp.html" target="_top" xlink:title=" ">
<polygon fill="none" stroke="black" points="857,-140 857,-159 987,-159 987,-140 857,-140"/>
<text text-anchor="middle" x="922" y="-147" font-family="Helvetica,sans-Serif" font-size="10.00">Scripts/StarBehaviour.hpp</text>
</a>
</g>
</g>
<!-- Node29&#45;&gt;Node36 -->
<g id="edge51" class="edge">
<title>Node29&#45;&gt;Node36</title>
<path fill="none" stroke="midnightblue" d="M1164.22,-201.79C1114.19,-191.2 1027.06,-172.75 972.07,-161.1"/>
<polygon fill="midnightblue" stroke="midnightblue" points="972.7,-157.66 962.19,-159.01 971.25,-164.51 972.7,-157.66"/>
</g>
<!-- Node34&#45;&gt;Node11 -->
<g id="edge44" class="edge">
<title>Node34&#45;&gt;Node11</title>
<path fill="none" stroke="midnightblue" d="M1032.92,-139.94C980.72,-128.2 886.95,-107.11 830.01,-94.3"/>
<polygon fill="midnightblue" stroke="midnightblue" points="830.69,-90.86 820.16,-92.08 829.15,-97.69 830.69,-90.86"/>
</g>
<!-- Node34&#45;&gt;Node13 -->
<g id="edge46" class="edge">
<title>Node34&#45;&gt;Node13</title>
<path fill="none" stroke="midnightblue" d="M1063.19,-139.84C1044.85,-119.5 998.57,-68.16 971.85,-38.52"/>
<polygon fill="midnightblue" stroke="midnightblue" points="974.17,-35.87 964.88,-30.78 968.97,-40.55 974.17,-35.87"/>
</g>
<!-- Node34&#45;&gt;Node14 -->
<g id="edge47" class="edge">
<title>Node34&#45;&gt;Node14</title>
<path fill="none" stroke="midnightblue" d="M1046.63,-139.98C1018.63,-130.12 971.35,-113.29 931,-98 875.13,-76.82 811.23,-51.19 769.83,-34.4"/>
<polygon fill="midnightblue" stroke="midnightblue" points="770.91,-31.06 760.33,-30.54 768.27,-37.54 770.91,-31.06"/>
</g>
<!-- Node34&#45;&gt;Node15 -->
<g id="edge48" class="edge">
<title>Node34&#45;&gt;Node15</title>
<path fill="none" stroke="midnightblue" d="M1055.78,-139.84C1018.78,-118.79 923.46,-64.55 872.42,-35.52"/>
<polygon fill="midnightblue" stroke="midnightblue" points="874.15,-32.47 863.73,-30.57 870.69,-38.56 874.15,-32.47"/>
</g>
<!-- Node34&#45;&gt;Node21 -->
<g id="edge45" class="edge">
<title>Node34&#45;&gt;Node21</title>
<path fill="none" stroke="midnightblue" d="M1083.27,-139.73C1098.15,-129.11 1123.43,-111.05 1141.33,-98.26"/>
<polygon fill="midnightblue" stroke="midnightblue" points="1143.82,-100.79 1149.92,-92.13 1139.75,-95.09 1143.82,-100.79"/>
</g>
<!-- Node35&#45;&gt;Node11 -->
<g id="edge50" class="edge">
<title>Node35&#45;&gt;Node11</title>
<path fill="none" stroke="midnightblue" d="M774.21,-139.73C775.54,-130.18 777.69,-114.62 779.4,-102.28"/>
<polygon fill="midnightblue" stroke="midnightblue" points="782.9,-102.51 780.81,-92.13 775.97,-101.55 782.9,-102.51"/>
</g>
<!-- Node36&#45;&gt;Node11 -->
<g id="edge52" class="edge">
<title>Node36&#45;&gt;Node11</title>
<path fill="none" stroke="midnightblue" d="M903.41,-139.87C879.46,-128.75 837.61,-109.32 809.85,-96.43"/>
<polygon fill="midnightblue" stroke="midnightblue" points="811.21,-93.2 800.67,-92.17 808.26,-99.55 811.21,-93.2"/>
</g>
</g>
</svg>
