<?xml version="1.0" encoding="UTF-8" standalone="no"?>
<!DOCTYPE svg PUBLIC "-//W3C//DTD SVG 1.1//EN"
 "http://www.w3.org/Graphics/SVG/1.1/DTD/svg11.dtd">
<!-- Generated by graphviz version 2.44.0 ()
 -->
<!-- Title: src/Game/Levels/Level1.cpp Pages: 1 -->
<!--zoomable 285 -->
<svg id="main" version="1.1" xmlns="http://www.w3.org/2000/svg" xmlns:xlink="http://www.w3.org/1999/xlink" xml:space="preserve" onload="init(evt)">
<style type="text/css"><![CDATA[
.edge:hover path { stroke: red; }
.edge:hover polygon { stroke: red; fill: red; }
]]></style>
<script type="text/javascript"><![CDATA[
var edges = document.getElementsByTagName('g');
if (edges && edges.length) {
  for (var i=0;i<edges.length;i++) {
    if (edges[i].id.substr(0,4)=='edge') {
      edges[i].setAttribute('class','edge');
    }
  }
}
]]></script>
        <defs>
                <circle id="rim" cx="0" cy="0" r="7"/>
                <circle id="rim2" cx="0" cy="0" r="3.5"/>
                <g id="zoomPlus">
                        <use xlink:href="#rim" fill="#404040">
                                <set attributeName="fill" to="#808080" begin="zoomplus.mouseover" end="zoomplus.mouseout"/>
                        </use>
                        <path d="M-4,0h8M0,-4v8" fill="none" stroke="white" stroke-width="1.5" pointer-events="none"/>
                </g>
                <g id="zoomMin">
                        <use xlink:href="#rim" fill="#404040">
                                <set attributeName="fill" to="#808080" begin="zoomminus.mouseover" end="zoomminus.mouseout"/>
                        </use>
                        <path d="M-4,0h8" fill="none" stroke="white" stroke-width="1.5" pointer-events="none"/>
                </g>
                <g id="dirArrow">
                        <path fill="none" stroke="white" stroke-width="1.5" d="M0,-3.0v7 M-2.5,-0.5L0,-3.0L2.5,-0.5"/>
                </g>
               <g id="resetDef">
                       <use xlink:href="#rim2" fill="#404040">
                               <set attributeName="fill" to="#808080" begin="reset.mouseover" end="reset.mouseout"/>
                       </use>
               </g>
        </defs>

<script type="text/javascript">
var viewWidth = 1396;
var viewHeight = 285;
var sectionId = 'dynsection-0';
</script>
<script xlink:href="svgpan.js"/>
<svg id="graph" class="graph">
<g id="viewport">
<title>src/Game/Levels/Level1.cpp</title>
<!-- Node1 -->
<g id="node1" class="node">
<title>Node1</title>
<g id="a_node1"><a xlink:title=" ">
<polygon fill="#bfbfbf" stroke="black" points="384,-257.5 384,-276.5 526,-276.5 526,-257.5 384,-257.5"/>
<text text-anchor="middle" x="455" y="-264.5" font-family="Helvetica,sans-Serif" font-size="10.00">src/Game/Levels/Level1.cpp</text>
</a>
</g>
</g>
<!-- Node2 -->
<g id="node2" class="node">
<title>Node2</title>
<g id="a_node2"><a xlink:href="Level1_8hpp.html" target="_top" xlink:title=" ">
<polygon fill="none" stroke="black" points="27,-201.5 27,-220.5 91,-220.5 91,-201.5 27,-201.5"/>
<text text-anchor="middle" x="59" y="-208.5" font-family="Helvetica,sans-Serif" font-size="10.00">Level1.hpp</text>
</a>
</g>
</g>
<!-- Node1&#45;&gt;Node2 -->
<g id="edge1" class="edge">
<title>Node1&#45;&gt;Node2</title>
<path fill="none" stroke="midnightblue" d="M392.25,-257.44C310.94,-246.35 171.32,-227.32 101.44,-217.79"/>
<polygon fill="midnightblue" stroke="midnightblue" points="101.63,-214.28 91.25,-216.4 100.68,-221.22 101.63,-214.28"/>
</g>
<!-- Node4 -->
<g id="node4" class="node">
<title>Node4</title>
<g id="a_node4"><a xlink:title=" ">
<polygon fill="none" stroke="#bfbfbf" points="137.5,-201.5 137.5,-220.5 298.5,-220.5 298.5,-201.5 137.5,-201.5"/>
<text text-anchor="middle" x="218" y="-208.5" font-family="Helvetica,sans-Serif" font-size="10.00">Behaviour/CollisionBehaviour.hpp</text>
</a>
</g>
</g>
<!-- Node1&#45;&gt;Node4 -->
<g id="edge3" class="edge">
<title>Node1&#45;&gt;Node4</title>
<path fill="none" stroke="midnightblue" d="M417.45,-257.44C376.19,-248.04 309.86,-232.93 265.13,-222.74"/>
<polygon fill="midnightblue" stroke="midnightblue" points="265.91,-219.33 255.38,-220.52 264.35,-226.15 265.91,-219.33"/>
</g>
<!-- Node5 -->
<g id="node5" class="node">
<title>Node5</title>
<g id="a_node5"><a xlink:title=" ">
<polygon fill="none" stroke="#bfbfbf" points="80,-140 80,-159 240,-159 240,-140 80,-140"/>
<text text-anchor="middle" x="160" y="-147" font-family="Helvetica,sans-Serif" font-size="10.00">Director/GameObjectDirector.hpp</text>
</a>
</g>
</g>
<!-- Node1&#45;&gt;Node5 -->
<g id="edge4" class="edge">
<title>Node1&#45;&gt;Node5</title>
<path fill="none" stroke="midnightblue" d="M432.64,-257.39C410.44,-248.7 375.55,-234.65 346,-221 328.32,-212.83 324.92,-208.63 307,-201 270.86,-185.62 228.3,-171.4 198.3,-162"/>
<polygon fill="midnightblue" stroke="midnightblue" points="199.22,-158.62 188.63,-159 197.15,-165.31 199.22,-158.62"/>
</g>
<!-- Node6 -->
<g id="node6" class="node">
<title>Node6</title>
<g id="a_node6"><a xlink:title=" ">
<polygon fill="none" stroke="#bfbfbf" points="355,-201.5 355,-220.5 451,-220.5 451,-201.5 355,-201.5"/>
<text text-anchor="middle" x="403" y="-208.5" font-family="Helvetica,sans-Serif" font-size="10.00">Engine/Engine.hpp</text>
</a>
</g>
</g>
<!-- Node1&#45;&gt;Node6 -->
<g id="edge5" class="edge">
<title>Node1&#45;&gt;Node6</title>
<path fill="none" stroke="midnightblue" d="M446.41,-257.08C438.84,-249.22 427.62,-237.57 418.49,-228.08"/>
<polygon fill="midnightblue" stroke="midnightblue" points="420.88,-225.53 411.43,-220.75 415.84,-230.38 420.88,-225.53"/>
</g>
<!-- Node7 -->
<g id="node7" class="node">
<title>Node7</title>
<g id="a_node7"><a xlink:href="TileConfig_8hpp.html" target="_top" xlink:title=" ">
<polygon fill="none" stroke="black" points="469.5,-201.5 469.5,-220.5 546.5,-220.5 546.5,-201.5 469.5,-201.5"/>
<text text-anchor="middle" x="508" y="-208.5" font-family="Helvetica,sans-Serif" font-size="10.00">TileConfig.hpp</text>
</a>
</g>
</g>
<!-- Node1&#45;&gt;Node7 -->
<g id="edge6" class="edge">
<title>Node1&#45;&gt;Node7</title>
<path fill="none" stroke="midnightblue" d="M463.75,-257.08C471.47,-249.22 482.9,-237.57 492.22,-228.08"/>
<polygon fill="midnightblue" stroke="midnightblue" points="494.9,-230.34 499.41,-220.75 489.91,-225.44 494.9,-230.34"/>
</g>
<!-- Node26 -->
<g id="node26" class="node">
<title>Node26</title>
<g id="a_node26"><a xlink:title=" ">
<polygon fill="none" stroke="#bfbfbf" points="564.5,-201.5 564.5,-220.5 665.5,-220.5 665.5,-201.5 564.5,-201.5"/>
<text text-anchor="middle" x="615" y="-208.5" font-family="Helvetica,sans-Serif" font-size="10.00">UI/FPSCounter.hpp</text>
</a>
</g>
</g>
<!-- Node1&#45;&gt;Node26 -->
<g id="edge33" class="edge">
<title>Node1&#45;&gt;Node26</title>
<path fill="none" stroke="midnightblue" d="M480.35,-257.44C507.27,-248.36 550,-233.94 580.09,-223.78"/>
<polygon fill="midnightblue" stroke="midnightblue" points="581.41,-227.03 589.77,-220.52 579.17,-220.4 581.41,-227.03"/>
</g>
<!-- Node27 -->
<g id="node27" class="node">
<title>Node27</title>
<g id="a_node27"><a xlink:title=" ">
<polygon fill="none" stroke="#bfbfbf" points="684,-201.5 684,-220.5 774,-220.5 774,-201.5 684,-201.5"/>
<text text-anchor="middle" x="729" y="-208.5" font-family="Helvetica,sans-Serif" font-size="10.00">AudioSource.hpp</text>
</a>
</g>
</g>
<!-- Node1&#45;&gt;Node27 -->
<g id="edge34" class="edge">
<title>Node1&#45;&gt;Node27</title>
<path fill="none" stroke="midnightblue" d="M498.42,-257.44C546.52,-247.96 624.09,-232.67 675.81,-222.48"/>
<polygon fill="midnightblue" stroke="midnightblue" points="676.65,-225.88 685.79,-220.52 675.3,-219.02 676.65,-225.88"/>
</g>
<!-- Node28 -->
<g id="node28" class="node">
<title>Node28</title>
<g id="a_node28"><a xlink:href="MarioBehaviour_8hpp.html" target="_top" xlink:title=" ">
<polygon fill="none" stroke="black" points="1208,-201.5 1208,-220.5 1344,-220.5 1344,-201.5 1208,-201.5"/>
<text text-anchor="middle" x="1276" y="-208.5" font-family="Helvetica,sans-Serif" font-size="10.00">Scripts/MarioBehaviour.hpp</text>
</a>
</g>
</g>
<!-- Node1&#45;&gt;Node28 -->
<g id="edge35" class="edge">
<title>Node1&#45;&gt;Node28</title>
<path fill="none" stroke="midnightblue" d="M526.06,-261.33C679.01,-251.27 1038.39,-227.63 1197.66,-217.15"/>
<polygon fill="midnightblue" stroke="midnightblue" points="1198.1,-220.63 1207.85,-216.48 1197.64,-213.65 1198.1,-220.63"/>
</g>
<!-- Node3 -->
<g id="node3" class="node">
<title>Node3</title>
<g id="a_node3"><a xlink:title=" ">
<polygon fill="none" stroke="#bfbfbf" points="0,-140 0,-159 62,-159 62,-140 0,-140"/>
<text text-anchor="middle" x="31" y="-147" font-family="Helvetica,sans-Serif" font-size="10.00">Scene.hpp</text>
</a>
</g>
</g>
<!-- Node2&#45;&gt;Node3 -->
<g id="edge2" class="edge">
<title>Node2&#45;&gt;Node3</title>
<path fill="none" stroke="midnightblue" d="M54.99,-201.48C50.91,-192.82 44.48,-179.15 39.3,-168.15"/>
<polygon fill="midnightblue" stroke="midnightblue" points="42.43,-166.57 35,-159.01 36.1,-169.55 42.43,-166.57"/>
</g>
<!-- Node7&#45;&gt;Node5 -->
<g id="edge12" class="edge">
<title>Node7&#45;&gt;Node5</title>
<path fill="none" stroke="midnightblue" d="M469.5,-202.72C466.29,-202.13 463.09,-201.55 460,-201 378.03,-186.42 283.26,-170.65 222.54,-160.68"/>
<polygon fill="midnightblue" stroke="midnightblue" points="222.78,-157.17 212.35,-159.01 221.65,-164.08 222.78,-157.17"/>
</g>
<!-- Node8 -->
<g id="node8" class="node">
<title>Node8</title>
<g id="a_node8"><a xlink:title=" ">
<polygon fill="none" stroke="#bfbfbf" points="478.5,-140 478.5,-159 537.5,-159 537.5,-140 478.5,-140"/>
<text text-anchor="middle" x="508" y="-147" font-family="Helvetica,sans-Serif" font-size="10.00">functional</text>
</a>
</g>
</g>
<!-- Node7&#45;&gt;Node8 -->
<g id="edge7" class="edge">
<title>Node7&#45;&gt;Node8</title>
<path fill="none" stroke="midnightblue" d="M508,-201.48C508,-193.08 508,-179.98 508,-169.16"/>
<polygon fill="midnightblue" stroke="midnightblue" points="511.5,-169.01 508,-159.01 504.5,-169.01 511.5,-169.01"/>
</g>
<!-- Node9 -->
<g id="node9" class="node">
<title>Node9</title>
<g id="a_node9"><a xlink:title=" ">
<polygon fill="none" stroke="#bfbfbf" points="704.5,-140 704.5,-159 739.5,-159 739.5,-140 704.5,-140"/>
<text text-anchor="middle" x="722" y="-147" font-family="Helvetica,sans-Serif" font-size="10.00">map</text>
</a>
</g>
</g>
<!-- Node7&#45;&gt;Node9 -->
<g id="edge8" class="edge">
<title>Node7&#45;&gt;Node9</title>
<path fill="none" stroke="midnightblue" d="M546.52,-201.95C592.98,-192.03 668.17,-175.24 695,-165 696.2,-164.54 697.42,-164.04 698.64,-163.51"/>
<polygon fill="midnightblue" stroke="midnightblue" points="700.32,-166.58 707.75,-159.03 697.23,-160.3 700.32,-166.58"/>
</g>
<!-- Node10 -->
<g id="node10" class="node">
<title>Node10</title>
<g id="a_node10"><a xlink:title=" ">
<polygon fill="none" stroke="#bfbfbf" points="83.5,-6 83.5,-25 134.5,-25 134.5,-6 83.5,-6"/>
<text text-anchor="middle" x="109" y="-13" font-family="Helvetica,sans-Serif" font-size="10.00">memory</text>
</a>
</g>
</g>
<!-- Node7&#45;&gt;Node10 -->
<g id="edge9" class="edge">
<title>Node7&#45;&gt;Node10</title>
<path fill="none" stroke="midnightblue" d="M496.59,-201.48C476.29,-186.55 432.23,-155.26 392,-134 286.11,-78.05 253.42,-77.38 143,-31 141.59,-30.41 140.16,-29.8 138.71,-29.19"/>
<polygon fill="midnightblue" stroke="midnightblue" points="139.69,-25.81 129.12,-25.12 136.96,-32.25 139.69,-25.81"/>
</g>
<!-- Node11 -->
<g id="node11" class="node">
<title>Node11</title>
<g id="a_node11"><a xlink:title=" ">
<polygon fill="none" stroke="#bfbfbf" points="1055,-140 1055,-159 1207,-159 1207,-140 1055,-140"/>
<text text-anchor="middle" x="1131" y="-147" font-family="Helvetica,sans-Serif" font-size="10.00">Builder/GameObjectBuilder.hpp</text>
</a>
</g>
</g>
<!-- Node7&#45;&gt;Node11 -->
<g id="edge10" class="edge">
<title>Node7&#45;&gt;Node11</title>
<path fill="none" stroke="midnightblue" d="M546.67,-202.23C549.48,-201.77 552.28,-201.36 555,-201 771.93,-172.38 828.79,-191.43 1046,-165 1055.6,-163.83 1065.76,-162.33 1075.59,-160.74"/>
<polygon fill="midnightblue" stroke="midnightblue" points="1076.39,-164.15 1085.68,-159.06 1075.24,-157.25 1076.39,-164.15"/>
</g>
<!-- Node12 -->
<g id="node12" class="node">
<title>Node12</title>
<g id="a_node12"><a xlink:title=" ">
<polygon fill="none" stroke="#bfbfbf" points="258.5,-140 258.5,-159 383.5,-159 383.5,-140 258.5,-140"/>
<text text-anchor="middle" x="321" y="-147" font-family="Helvetica,sans-Serif" font-size="10.00">Builder/SceneBuilder.hpp</text>
</a>
</g>
</g>
<!-- Node7&#45;&gt;Node12 -->
<g id="edge11" class="edge">
<title>Node7&#45;&gt;Node12</title>
<path fill="none" stroke="midnightblue" d="M481.21,-201.48C448.71,-191.14 393.79,-173.66 357.46,-162.1"/>
<polygon fill="midnightblue" stroke="midnightblue" points="358.33,-158.71 347.74,-159.01 356.21,-165.38 358.33,-158.71"/>
</g>
<!-- Node13 -->
<g id="node13" class="node">
<title>Node13</title>
<g id="a_node13"><a xlink:href="CoinBehaviour_8hpp.html" target="_top" xlink:title=" ">
<polygon fill="none" stroke="black" points="555.5,-140 555.5,-159 686.5,-159 686.5,-140 555.5,-140"/>
<text text-anchor="middle" x="621" y="-147" font-family="Helvetica,sans-Serif" font-size="10.00">Scripts/CoinBehaviour.hpp</text>
</a>
</g>
</g>
<!-- Node7&#45;&gt;Node13 -->
<g id="edge13" class="edge">
<title>Node7&#45;&gt;Node13</title>
<path fill="none" stroke="midnightblue" d="M524.19,-201.48C542.9,-191.62 573.92,-175.29 595.8,-163.77"/>
<polygon fill="midnightblue" stroke="midnightblue" points="597.62,-166.77 604.84,-159.01 594.36,-160.57 597.62,-166.77"/>
</g>
<!-- Node15 -->
<g id="node15" class="node">
<title>Node15</title>
<g id="a_node15"><a xlink:href="CoinCounter_8hpp.html" target="_top" xlink:title=" ">
<polygon fill="none" stroke="black" points="461.5,-73 461.5,-92 570.5,-92 570.5,-73 461.5,-73"/>
<text text-anchor="middle" x="516" y="-80" font-family="Helvetica,sans-Serif" font-size="10.00">../UI/CoinCounter.hpp</text>
</a>
</g>
</g>
<!-- Node7&#45;&gt;Node15 -->
<g id="edge32" class="edge">
<title>Node7&#45;&gt;Node15</title>
<path fill="none" stroke="midnightblue" d="M497.01,-201.37C487.55,-193.17 474.56,-179.92 469,-165 464.18,-152.09 463.96,-146.82 469,-134 474.47,-120.1 485.75,-107.77 495.9,-98.76"/>
<polygon fill="midnightblue" stroke="midnightblue" points="498.22,-101.39 503.66,-92.29 493.73,-96.01 498.22,-101.39"/>
</g>
<!-- Node24 -->
<g id="node24" class="node">
<title>Node24</title>
<g id="a_node24"><a xlink:href="FlagBehaviour_8hpp.html" target="_top" xlink:title=" ">
<polygon fill="none" stroke="black" points="757.5,-140 757.5,-159 888.5,-159 888.5,-140 757.5,-140"/>
<text text-anchor="middle" x="823" y="-147" font-family="Helvetica,sans-Serif" font-size="10.00">Scripts/FlagBehaviour.hpp</text>
</a>
</g>
</g>
<!-- Node7&#45;&gt;Node24 -->
<g id="edge28" class="edge">
<title>Node7&#45;&gt;Node24</title>
<path fill="none" stroke="midnightblue" d="M546.73,-202.57C549.53,-202.04 552.31,-201.51 555,-201 640.74,-184.79 662.28,-181.28 748,-165 754.74,-163.72 761.82,-162.36 768.83,-161.02"/>
<polygon fill="midnightblue" stroke="midnightblue" points="769.83,-164.39 778.99,-159.06 768.51,-157.51 769.83,-164.39"/>
</g>
<!-- Node25 -->
<g id="node25" class="node">
<title>Node25</title>
<g id="a_node25"><a xlink:href="StarBehaviour_8hpp.html" target="_top" xlink:title=" ">
<polygon fill="none" stroke="black" points="907,-140 907,-159 1037,-159 1037,-140 907,-140"/>
<text text-anchor="middle" x="972" y="-147" font-family="Helvetica,sans-Serif" font-size="10.00">Scripts/StarBehaviour.hpp</text>
</a>
</g>
</g>
<!-- Node7&#45;&gt;Node25 -->
<g id="edge30" class="edge">
<title>Node7&#45;&gt;Node25</title>
<path fill="none" stroke="midnightblue" d="M546.68,-202.32C549.49,-201.85 552.29,-201.4 555,-201 706.63,-178.57 746.42,-187.76 898,-165 905.74,-163.84 913.9,-162.43 921.86,-160.95"/>
<polygon fill="midnightblue" stroke="midnightblue" points="922.62,-164.37 931.79,-159.05 921.31,-157.49 922.62,-164.37"/>
</g>
<!-- Node14 -->
<g id="node14" class="node">
<title>Node14</title>
<g id="a_node14"><a xlink:title=" ">
<polygon fill="none" stroke="#bfbfbf" points="833,-73 833,-92 937,-92 937,-73 833,-73"/>
<text text-anchor="middle" x="885" y="-80" font-family="Helvetica,sans-Serif" font-size="10.00">BehaviourScript.hpp</text>
</a>
</g>
</g>
<!-- Node13&#45;&gt;Node14 -->
<g id="edge14" class="edge">
<title>Node13&#45;&gt;Node14</title>
<path fill="none" stroke="midnightblue" d="M655.78,-139.94C703.17,-128.27 788.06,-107.37 840.17,-94.54"/>
<polygon fill="midnightblue" stroke="midnightblue" points="841.26,-97.87 850.14,-92.08 839.59,-91.08 841.26,-97.87"/>
</g>
<!-- Node13&#45;&gt;Node15 -->
<g id="edge15" class="edge">
<title>Node13&#45;&gt;Node15</title>
<path fill="none" stroke="midnightblue" d="M606.84,-139.73C589.29,-128.87 559.16,-110.22 538.44,-97.39"/>
<polygon fill="midnightblue" stroke="midnightblue" points="540.28,-94.41 529.94,-92.13 536.6,-100.37 540.28,-94.41"/>
</g>
<!-- Node16 -->
<g id="node16" class="node">
<title>Node16</title>
<g id="a_node16"><a xlink:title=" ">
<polygon fill="none" stroke="#bfbfbf" points="887.5,-0.5 887.5,-30.5 982.5,-30.5 982.5,-0.5 887.5,-0.5"/>
<text text-anchor="start" x="895.5" y="-18.5" font-family="Helvetica,sans-Serif" font-size="10.00">boost/serialization</text>
<text text-anchor="middle" x="935" y="-7.5" font-family="Helvetica,sans-Serif" font-size="10.00">/access.hpp</text>
</a>
</g>
</g>
<!-- Node13&#45;&gt;Node16 -->
<g id="edge25" class="edge">
<title>Node13&#45;&gt;Node16</title>
<path fill="none" stroke="midnightblue" d="M641.6,-139.84C692.19,-118.57 823.37,-63.43 891.89,-34.62"/>
<polygon fill="midnightblue" stroke="midnightblue" points="893.66,-37.67 901.53,-30.57 890.95,-31.22 893.66,-37.67"/>
</g>
<!-- Node17 -->
<g id="node17" class="node">
<title>Node17</title>
<g id="a_node17"><a xlink:title=" ">
<polygon fill="none" stroke="#bfbfbf" points="661.5,-0.5 661.5,-30.5 756.5,-30.5 756.5,-0.5 661.5,-0.5"/>
<text text-anchor="start" x="669.5" y="-18.5" font-family="Helvetica,sans-Serif" font-size="10.00">boost/serialization</text>
<text text-anchor="middle" x="709" y="-7.5" font-family="Helvetica,sans-Serif" font-size="10.00">/export.hpp</text>
</a>
</g>
</g>
<!-- Node13&#45;&gt;Node17 -->
<g id="edge26" class="edge">
<title>Node13&#45;&gt;Node17</title>
<path fill="none" stroke="midnightblue" d="M626.77,-139.84C640.22,-119.67 673.98,-69.03 693.81,-39.29"/>
<polygon fill="midnightblue" stroke="midnightblue" points="696.84,-41.05 699.48,-30.78 691.02,-37.16 696.84,-41.05"/>
</g>
<!-- Node18 -->
<g id="node18" class="node">
<title>Node18</title>
<g id="a_node18"><a xlink:title=" ">
<polygon fill="none" stroke="#bfbfbf" points="774.5,-0.5 774.5,-30.5 869.5,-30.5 869.5,-0.5 774.5,-0.5"/>
<text text-anchor="start" x="782.5" y="-18.5" font-family="Helvetica,sans-Serif" font-size="10.00">boost/serialization</text>
<text text-anchor="middle" x="822" y="-7.5" font-family="Helvetica,sans-Serif" font-size="10.00">/shared_ptr.hpp</text>
</a>
</g>
</g>
<!-- Node13&#45;&gt;Node18 -->
<g id="edge27" class="edge">
<title>Node13&#45;&gt;Node18</title>
<path fill="none" stroke="midnightblue" d="M634.19,-139.84C665.97,-118.97 747.46,-65.45 791.94,-36.24"/>
<polygon fill="midnightblue" stroke="midnightblue" points="794.14,-38.99 800.57,-30.57 790.29,-33.14 794.14,-38.99"/>
</g>
<!-- Node15&#45;&gt;Node10 -->
<g id="edge16" class="edge">
<title>Node15&#45;&gt;Node10</title>
<path fill="none" stroke="midnightblue" d="M465.12,-73C452.36,-70.95 438.69,-68.83 426,-67 300.51,-48.91 265.37,-64.19 143,-31 140.7,-30.38 138.35,-29.63 136.02,-28.81"/>
<polygon fill="midnightblue" stroke="midnightblue" points="137.25,-25.53 126.67,-25.13 134.69,-32.05 137.25,-25.53"/>
</g>
<!-- Node15&#45;&gt;Node16 -->
<g id="edge17" class="edge">
<title>Node15&#45;&gt;Node16</title>
<path fill="none" stroke="midnightblue" d="M570.75,-75.87C640.08,-68.3 763.33,-53.38 877.47,-31.18"/>
<polygon fill="midnightblue" stroke="midnightblue" points="878.29,-34.58 887.43,-29.22 876.94,-27.71 878.29,-34.58"/>
</g>
<!-- Node15&#45;&gt;Node17 -->
<g id="edge18" class="edge">
<title>Node15&#45;&gt;Node17</title>
<path fill="none" stroke="midnightblue" d="M541.63,-72.87C571.09,-62.95 620.19,-46.41 657.62,-33.81"/>
<polygon fill="midnightblue" stroke="midnightblue" points="658.99,-37.04 667.35,-30.53 656.75,-30.4 658.99,-37.04"/>
</g>
<!-- Node15&#45;&gt;Node18 -->
<g id="edge19" class="edge">
<title>Node15&#45;&gt;Node18</title>
<path fill="none" stroke="midnightblue" d="M561.58,-72.95C609.57,-63.8 687.54,-48.48 764.58,-31.03"/>
<polygon fill="midnightblue" stroke="midnightblue" points="765.48,-34.41 774.46,-28.78 763.93,-27.59 765.48,-34.41"/>
</g>
<!-- Node19 -->
<g id="node19" class="node">
<title>Node19</title>
<g id="a_node19"><a xlink:title=" ">
<polygon fill="none" stroke="#bfbfbf" points="342,-0.5 342,-30.5 446,-30.5 446,-0.5 342,-0.5"/>
<text text-anchor="start" x="350" y="-18.5" font-family="Helvetica,sans-Serif" font-size="10.00">boost/archive/binary</text>
<text text-anchor="middle" x="394" y="-7.5" font-family="Helvetica,sans-Serif" font-size="10.00">_iarchive.hpp</text>
</a>
</g>
</g>
<!-- Node15&#45;&gt;Node19 -->
<g id="edge20" class="edge">
<title>Node15&#45;&gt;Node19</title>
<path fill="none" stroke="midnightblue" d="M499.8,-72.87C481.95,-63.36 452.68,-47.77 429.45,-35.39"/>
<polygon fill="midnightblue" stroke="midnightblue" points="431.03,-32.26 420.56,-30.65 427.74,-38.44 431.03,-32.26"/>
</g>
<!-- Node20 -->
<g id="node20" class="node">
<title>Node20</title>
<g id="a_node20"><a xlink:title=" ">
<polygon fill="none" stroke="#bfbfbf" points="464,-0.5 464,-30.5 568,-30.5 568,-0.5 464,-0.5"/>
<text text-anchor="start" x="472" y="-18.5" font-family="Helvetica,sans-Serif" font-size="10.00">boost/archive/binary</text>
<text text-anchor="middle" x="516" y="-7.5" font-family="Helvetica,sans-Serif" font-size="10.00">_oarchive.hpp</text>
</a>
</g>
</g>
<!-- Node15&#45;&gt;Node20 -->
<g id="edge21" class="edge">
<title>Node15&#45;&gt;Node20</title>
<path fill="none" stroke="midnightblue" d="M516,-72.73C516,-64.54 516,-51.92 516,-40.71"/>
<polygon fill="midnightblue" stroke="midnightblue" points="519.5,-40.59 516,-30.59 512.5,-40.59 519.5,-40.59"/>
</g>
<!-- Node21 -->
<g id="node21" class="node">
<title>Node21</title>
<g id="a_node21"><a xlink:title=" ">
<polygon fill="none" stroke="#bfbfbf" points="586.5,-6 586.5,-25 643.5,-25 643.5,-6 586.5,-6"/>
<text text-anchor="middle" x="615" y="-13" font-family="Helvetica,sans-Serif" font-size="10.00">Color.hpp</text>
</a>
</g>
</g>
<!-- Node15&#45;&gt;Node21 -->
<g id="edge22" class="edge">
<title>Node15&#45;&gt;Node21</title>
<path fill="none" stroke="midnightblue" d="M529.35,-72.73C545.75,-61.96 573.8,-43.55 593.31,-30.74"/>
<polygon fill="midnightblue" stroke="midnightblue" points="595.42,-33.54 601.86,-25.13 591.58,-27.69 595.42,-33.54"/>
</g>
<!-- Node22 -->
<g id="node22" class="node">
<title>Node22</title>
<g id="a_node22"><a xlink:title=" ">
<polygon fill="none" stroke="#bfbfbf" points="152.5,-6 152.5,-25 231.5,-25 231.5,-6 152.5,-6"/>
<text text-anchor="middle" x="192" y="-13" font-family="Helvetica,sans-Serif" font-size="10.00">Transform.hpp</text>
</a>
</g>
</g>
<!-- Node15&#45;&gt;Node22 -->
<g id="edge23" class="edge">
<title>Node15&#45;&gt;Node22</title>
<path fill="none" stroke="midnightblue" d="M466.1,-72.99C398.9,-61.42 282.9,-41.02 241,-31 237.08,-30.06 233.02,-29 228.97,-27.89"/>
<polygon fill="midnightblue" stroke="midnightblue" points="229.65,-24.45 219.08,-25.07 227.73,-31.18 229.65,-24.45"/>
</g>
<!-- Node23 -->
<g id="node23" class="node">
<title>Node23</title>
<g id="a_node23"><a xlink:title=" ">
<polygon fill="none" stroke="#bfbfbf" points="250,-6 250,-25 324,-25 324,-6 250,-6"/>
<text text-anchor="middle" x="287" y="-13" font-family="Helvetica,sans-Serif" font-size="10.00">UIObject.hpp</text>
</a>
</g>
</g>
<!-- Node15&#45;&gt;Node23 -->
<g id="edge24" class="edge">
<title>Node15&#45;&gt;Node23</title>
<path fill="none" stroke="midnightblue" d="M483.5,-72.91C446.84,-63.13 385.47,-46.5 333,-31 329.87,-30.07 326.62,-29.09 323.37,-28.1"/>
<polygon fill="midnightblue" stroke="midnightblue" points="324.29,-24.72 313.71,-25.1 322.22,-31.41 324.29,-24.72"/>
</g>
<!-- Node24&#45;&gt;Node14 -->
<g id="edge29" class="edge">
<title>Node24&#45;&gt;Node14</title>
<path fill="none" stroke="midnightblue" d="M831.36,-139.73C841.12,-129.5 857.47,-112.36 869.55,-99.69"/>
<polygon fill="midnightblue" stroke="midnightblue" points="872.4,-101.78 876.77,-92.13 867.34,-96.95 872.4,-101.78"/>
</g>
<!-- Node25&#45;&gt;Node14 -->
<g id="edge31" class="edge">
<title>Node25&#45;&gt;Node14</title>
<path fill="none" stroke="midnightblue" d="M960.27,-139.73C946.05,-129.11 921.87,-111.05 904.76,-98.26"/>
<polygon fill="midnightblue" stroke="midnightblue" points="906.65,-95.31 896.55,-92.13 902.46,-100.92 906.65,-95.31"/>
</g>
<!-- Node28&#45;&gt;Node14 -->
<g id="edge36" class="edge">
<title>Node28&#45;&gt;Node14</title>
<path fill="none" stroke="midnightblue" d="M1271.86,-201.17C1263.7,-184.87 1243.9,-150.23 1216,-134 1204.5,-127.31 1040.06,-104.35 947.39,-91.82"/>
<polygon fill="midnightblue" stroke="midnightblue" points="947.66,-88.32 937.28,-90.45 946.72,-95.26 947.66,-88.32"/>
</g>
<!-- Node29 -->
<g id="node29" class="node">
<title>Node29</title>
<g id="a_node29"><a xlink:href="MarioState_8hpp.html" target="_top" xlink:title=" ">
<polygon fill="none" stroke="black" points="1017.5,-67.5 1017.5,-97.5 1120.5,-97.5 1120.5,-67.5 1017.5,-67.5"/>
<text text-anchor="start" x="1025.5" y="-85.5" font-family="Helvetica,sans-Serif" font-size="10.00">Scripts/MarioStates</text>
<text text-anchor="middle" x="1069" y="-74.5" font-family="Helvetica,sans-Serif" font-size="10.00">/MarioState.hpp</text>
</a>
</g>
</g>
<!-- Node28&#45;&gt;Node29 -->
<g id="edge37" class="edge">
<title>Node28&#45;&gt;Node29</title>
<path fill="none" stroke="midnightblue" d="M1325.77,-201.45C1346.83,-195.1 1369.37,-184.09 1382,-165 1389.6,-153.51 1390.93,-144.49 1382,-134 1350.39,-96.88 1212.61,-86.95 1130.76,-84.36"/>
<polygon fill="midnightblue" stroke="midnightblue" points="1130.68,-80.85 1120.58,-84.06 1130.47,-87.85 1130.68,-80.85"/>
</g>
<!-- Node32 -->
<g id="node32" class="node">
<title>Node32</title>
<g id="a_node32"><a xlink:href="SmallMarioState_8hpp.html" target="_top" xlink:title=" ">
<polygon fill="none" stroke="black" points="1263,-134.5 1263,-164.5 1373,-164.5 1373,-134.5 1263,-134.5"/>
<text text-anchor="start" x="1271" y="-152.5" font-family="Helvetica,sans-Serif" font-size="10.00">Scripts/MarioStates</text>
<text text-anchor="middle" x="1318" y="-141.5" font-family="Helvetica,sans-Serif" font-size="10.00">/SmallMarioState.hpp</text>
</a>
</g>
</g>
<!-- Node28&#45;&gt;Node32 -->
<g id="edge43" class="edge">
<title>Node28&#45;&gt;Node32</title>
<path fill="none" stroke="midnightblue" d="M1282.02,-201.48C1287.28,-194.02 1295.16,-182.85 1302.21,-172.87"/>
<polygon fill="midnightblue" stroke="midnightblue" points="1305.19,-174.71 1308.1,-164.52 1299.48,-170.67 1305.19,-174.71"/>
</g>
<!-- Node29&#45;&gt;Node16 -->
<g id="edge38" class="edge">
<title>Node29&#45;&gt;Node16</title>
<path fill="none" stroke="midnightblue" d="M1039.92,-67.4C1020.35,-57.9 994.32,-45.28 973.09,-34.98"/>
<polygon fill="midnightblue" stroke="midnightblue" points="974.54,-31.79 964.02,-30.58 971.49,-38.09 974.54,-31.79"/>
</g>
<!-- Node29&#45;&gt;Node17 -->
<g id="edge39" class="edge">
<title>Node29&#45;&gt;Node17</title>
<path fill="none" stroke="midnightblue" d="M1017.37,-74.35C958.75,-65.91 860.09,-50.76 766.51,-31.22"/>
<polygon fill="midnightblue" stroke="midnightblue" points="767.1,-27.77 756.59,-29.13 765.65,-34.62 767.1,-27.77"/>
</g>
<!-- Node29&#45;&gt;Node18 -->
<g id="edge40" class="edge">
<title>Node29&#45;&gt;Node18</title>
<path fill="none" stroke="midnightblue" d="M1017.22,-67.87C976.88,-57.26 920.93,-42.53 879.26,-31.57"/>
<polygon fill="midnightblue" stroke="midnightblue" points="880.09,-28.17 869.53,-29.01 878.31,-34.94 880.09,-28.17"/>
</g>
<!-- Node30 -->
<g id="node30" class="node">
<title>Node30</title>
<g id="a_node30"><a xlink:title=" ">
<polygon fill="none" stroke="#bfbfbf" points="1000.5,-6 1000.5,-25 1137.5,-25 1137.5,-6 1000.5,-6"/>
<text text-anchor="middle" x="1069" y="-13" font-family="Helvetica,sans-Serif" font-size="10.00">Texture/AnimatedSprite.hpp</text>
</a>
</g>
</g>
<!-- Node29&#45;&gt;Node30 -->
<g id="edge41" class="edge">
<title>Node29&#45;&gt;Node30</title>
<path fill="none" stroke="midnightblue" d="M1069,-67.4C1069,-58.06 1069,-45.71 1069,-35.52"/>
<polygon fill="midnightblue" stroke="midnightblue" points="1072.5,-35.19 1069,-25.19 1065.5,-35.19 1072.5,-35.19"/>
</g>
<!-- Node31 -->
<g id="node31" class="node">
<title>Node31</title>
<g id="a_node31"><a xlink:title=" ">
<polygon fill="none" stroke="#bfbfbf" points="1155.5,-6 1155.5,-25 1212.5,-25 1212.5,-6 1155.5,-6"/>
<text text-anchor="middle" x="1184" y="-13" font-family="Helvetica,sans-Serif" font-size="10.00">Point.hpp</text>
</a>
</g>
</g>
<!-- Node29&#45;&gt;Node31 -->
<g id="edge42" class="edge">
<title>Node29&#45;&gt;Node31</title>
<path fill="none" stroke="midnightblue" d="M1093.95,-67.4C1113.6,-56.29 1140.79,-40.92 1160.15,-29.98"/>
<polygon fill="midnightblue" stroke="midnightblue" points="1161.97,-32.97 1168.95,-25.01 1158.52,-26.88 1161.97,-32.97"/>
</g>
<!-- Node32&#45;&gt;Node29 -->
<g id="edge44" class="edge">
<title>Node32&#45;&gt;Node29</title>
<path fill="none" stroke="midnightblue" d="M1264.28,-134.48C1225.05,-124.24 1171.79,-110.33 1130.8,-99.63"/>
<polygon fill="midnightblue" stroke="midnightblue" points="1131.48,-96.19 1120.92,-97.05 1129.71,-102.97 1131.48,-96.19"/>
</g>
</g>
</svg>
        <g id="navigator" transform="translate(0 0)" fill="#404254">
                <rect fill="#f2f5e9" fill-opacity="0.5" stroke="#606060" stroke-width=".5" x="0" y="0" width="60" height="60"/>
                <use id="zoomplus" xlink:href="#zoomPlus" x="17" y="9" onmousedown="handleZoom(evt,'in')"/>
                <use id="zoomminus" xlink:href="#zoomMin" x="42" y="9" onmousedown="handleZoom(evt,'out')"/>
                <use id="reset" xlink:href="#resetDef" x="30" y="36" onmousedown="handleReset()"/>
                <g id="arrowUp" xlink:href="#dirArrow" transform="translate(30 24)" onmousedown="handlePan(0,-1)">
                  <use xlink:href="#rim" fill="#404040">
                        <set attributeName="fill" to="#808080" begin="arrowUp.mouseover" end="arrowUp.mouseout"/>
                  </use>
                  <path fill="none" stroke="white" stroke-width="1.5" d="M0,-3.0v7 M-2.5,-0.5L0,-3.0L2.5,-0.5"/>
                </g>
                <g id="arrowRight" xlink:href="#dirArrow" transform="rotate(90) translate(36 -43)" onmousedown="handlePan(1,0)">
                  <use xlink:href="#rim" fill="#404040">
                        <set attributeName="fill" to="#808080" begin="arrowRight.mouseover" end="arrowRight.mouseout"/>
                  </use>
                  <path fill="none" stroke="white" stroke-width="1.5" d="M0,-3.0v7 M-2.5,-0.5L0,-3.0L2.5,-0.5"/>
                </g>
                <g id="arrowDown" xlink:href="#dirArrow" transform="rotate(180) translate(-30 -48)" onmousedown="handlePan(0,1)">
                  <use xlink:href="#rim" fill="#404040">
                        <set attributeName="fill" to="#808080" begin="arrowDown.mouseover" end="arrowDown.mouseout"/>
                  </use>
                  <path fill="none" stroke="white" stroke-width="1.5" d="M0,-3.0v7 M-2.5,-0.5L0,-3.0L2.5,-0.5"/>
                </g>
                <g id="arrowLeft" xlink:href="#dirArrow" transform="rotate(270) translate(-36 17)" onmousedown="handlePan(-1,0)">
                  <use xlink:href="#rim" fill="#404040">
                        <set attributeName="fill" to="#808080" begin="arrowLeft.mouseover" end="arrowLeft.mouseout"/>
                  </use>
                  <path fill="none" stroke="white" stroke-width="1.5" d="M0,-3.0v7 M-2.5,-0.5L0,-3.0L2.5,-0.5"/>
                </g>
        </g>
        <svg viewBox="0 0 15 15" width="100%" height="30px" preserveAspectRatio="xMaxYMin meet">
         <g id="arrow_out" transform="scale(0.3 0.3)">
          <a xlink:href="Level1_8cpp__incl_org.svg" target="_base">
           <rect id="button" ry="5" rx="5" y="6" x="6" height="38" width="38"
                fill="#f2f5e9" fill-opacity="0.5" stroke="#606060" stroke-width="1.0"/>
           <path id="arrow"
             d="M 11.500037,31.436501 C 11.940474,20.09759 22.043105,11.32322 32.158766,21.979434 L 37.068811,17.246167 C 37.068811,17.246167 37.088388,32 37.088388,32 L 22.160133,31.978069 C 22.160133,31.978069 26.997745,27.140456 26.997745,27.140456 C 18.528582,18.264221 13.291696,25.230495 11.500037,31.436501 z"
             style="fill:#404040;"/>
          </a>
         </g>
        </svg>
</svg>
