<?xml version="1.0" encoding="UTF-8" standalone="no"?>
<!DOCTYPE svg PUBLIC "-//W3C//DTD SVG 1.1//EN"
 "http://www.w3.org/Graphics/SVG/1.1/DTD/svg11.dtd">
<!-- Generated by graphviz version 2.44.0 ()
 -->
<!-- Title: src/Game/Levels/Level1.cpp Pages: 1 -->
<svg width="1496pt" height="285pt"
 viewBox="0.00 0.00 1495.50 285.00" xmlns="http://www.w3.org/2000/svg" xmlns:xlink="http://www.w3.org/1999/xlink">
<g id="graph0" class="graph" transform="scale(1 1) rotate(0) translate(4 281)">
<title>src/Game/Levels/Level1.cpp</title>
<!-- Node1 -->
<g id="node1" class="node">
<title>Node1</title>
<g id="a_node1"><a xlink:title=" ">
<polygon fill="#bfbfbf" stroke="black" points="529,-257.5 529,-276.5 671,-276.5 671,-257.5 529,-257.5"/>
<text text-anchor="middle" x="600" y="-264.5" font-family="Helvetica,sans-Serif" font-size="10.00">src/Game/Levels/Level1.cpp</text>
</a>
</g>
</g>
<!-- Node2 -->
<g id="node2" class="node">
<title>Node2</title>
<g id="a_node2"><a xlink:href="Level1_8hpp.html" target="_top" xlink:title=" ">
<polygon fill="none" stroke="black" points="101,-201.5 101,-220.5 165,-220.5 165,-201.5 101,-201.5"/>
<text text-anchor="middle" x="133" y="-208.5" font-family="Helvetica,sans-Serif" font-size="10.00">Level1.hpp</text>
</a>
</g>
</g>
<!-- Node1&#45;&gt;Node2 -->
<g id="edge1" class="edge">
<title>Node1&#45;&gt;Node2</title>
<path fill="none" stroke="midnightblue" d="M528.82,-257.77C430.34,-246.38 255.62,-226.18 175.41,-216.9"/>
<polygon fill="midnightblue" stroke="midnightblue" points="175.52,-213.39 165.19,-215.72 174.72,-220.35 175.52,-213.39"/>
</g>
<!-- Node4 -->
<g id="node4" class="node">
<title>Node4</title>
<g id="a_node4"><a xlink:title=" ">
<polygon fill="none" stroke="#bfbfbf" points="229.5,-201.5 229.5,-220.5 390.5,-220.5 390.5,-201.5 229.5,-201.5"/>
<text text-anchor="middle" x="310" y="-208.5" font-family="Helvetica,sans-Serif" font-size="10.00">Behaviour/CollisionBehaviour.hpp</text>
</a>
</g>
</g>
<!-- Node1&#45;&gt;Node4 -->
<g id="edge3" class="edge">
<title>Node1&#45;&gt;Node4</title>
<path fill="none" stroke="midnightblue" d="M554.05,-257.44C502.93,-247.92 420.35,-232.55 365.62,-222.36"/>
<polygon fill="midnightblue" stroke="midnightblue" points="366.21,-218.91 355.74,-220.52 364.93,-225.79 366.21,-218.91"/>
</g>
<!-- Node5 -->
<g id="node5" class="node">
<title>Node5</title>
<g id="a_node5"><a xlink:title=" ">
<polygon fill="none" stroke="#bfbfbf" points="80,-140 80,-159 240,-159 240,-140 80,-140"/>
<text text-anchor="middle" x="160" y="-147" font-family="Helvetica,sans-Serif" font-size="10.00">Director/GameObjectDirector.hpp</text>
</a>
</g>
</g>
<!-- Node1&#45;&gt;Node5 -->
<g id="edge4" class="edge">
<title>Node1&#45;&gt;Node5</title>
<path fill="none" stroke="midnightblue" d="M560.65,-257.44C527.39,-249.64 478.78,-236.93 438,-221 419.86,-213.91 417.36,-207.52 399,-201 366.22,-189.37 277.35,-171.91 217.7,-160.87"/>
<polygon fill="midnightblue" stroke="midnightblue" points="218.13,-157.39 207.66,-159.02 216.86,-164.27 218.13,-157.39"/>
</g>
<!-- Node6 -->
<g id="node6" class="node">
<title>Node6</title>
<g id="a_node6"><a xlink:title=" ">
<polygon fill="none" stroke="#bfbfbf" points="447,-201.5 447,-220.5 543,-220.5 543,-201.5 447,-201.5"/>
<text text-anchor="middle" x="495" y="-208.5" font-family="Helvetica,sans-Serif" font-size="10.00">Engine/Engine.hpp</text>
</a>
</g>
</g>
<!-- Node1&#45;&gt;Node6 -->
<g id="edge5" class="edge">
<title>Node1&#45;&gt;Node6</title>
<path fill="none" stroke="midnightblue" d="M583.13,-257.32C566.29,-248.66 540.19,-235.24 520.76,-225.25"/>
<polygon fill="midnightblue" stroke="midnightblue" points="522.32,-222.12 511.83,-220.65 519.12,-228.34 522.32,-222.12"/>
</g>
<!-- Node7 -->
<g id="node7" class="node">
<title>Node7</title>
<g id="a_node7"><a xlink:href="TileConfig_8hpp.html" target="_top" xlink:title=" ">
<polygon fill="none" stroke="black" points="561.5,-201.5 561.5,-220.5 638.5,-220.5 638.5,-201.5 561.5,-201.5"/>
<text text-anchor="middle" x="600" y="-208.5" font-family="Helvetica,sans-Serif" font-size="10.00">TileConfig.hpp</text>
</a>
</g>
</g>
<!-- Node1&#45;&gt;Node7 -->
<g id="edge6" class="edge">
<title>Node1&#45;&gt;Node7</title>
<path fill="none" stroke="midnightblue" d="M600,-257.08C600,-250.01 600,-239.86 600,-230.99"/>
<polygon fill="midnightblue" stroke="midnightblue" points="603.5,-230.75 600,-220.75 596.5,-230.75 603.5,-230.75"/>
</g>
<!-- Node26 -->
<g id="node26" class="node">
<title>Node26</title>
<g id="a_node26"><a xlink:title=" ">
<polygon fill="none" stroke="#bfbfbf" points="656.5,-201.5 656.5,-220.5 757.5,-220.5 757.5,-201.5 656.5,-201.5"/>
<text text-anchor="middle" x="707" y="-208.5" font-family="Helvetica,sans-Serif" font-size="10.00">UI/FPSCounter.hpp</text>
</a>
</g>
</g>
<!-- Node1&#45;&gt;Node26 -->
<g id="edge33" class="edge">
<title>Node1&#45;&gt;Node26</title>
<path fill="none" stroke="midnightblue" d="M617.19,-257.32C634.35,-248.66 660.95,-235.24 680.75,-225.25"/>
<polygon fill="midnightblue" stroke="midnightblue" points="682.5,-228.28 689.85,-220.65 679.35,-222.04 682.5,-228.28"/>
</g>
<!-- Node27 -->
<g id="node27" class="node">
<title>Node27</title>
<g id="a_node27"><a xlink:title=" ">
<polygon fill="none" stroke="#bfbfbf" points="776,-201.5 776,-220.5 866,-220.5 866,-201.5 776,-201.5"/>
<text text-anchor="middle" x="821" y="-208.5" font-family="Helvetica,sans-Serif" font-size="10.00">AudioSource.hpp</text>
</a>
</g>
</g>
<!-- Node1&#45;&gt;Node27 -->
<g id="edge34" class="edge">
<title>Node1&#45;&gt;Node27</title>
<path fill="none" stroke="midnightblue" d="M635.02,-257.44C673.25,-248.1 734.57,-233.12 776.26,-222.93"/>
<polygon fill="midnightblue" stroke="midnightblue" points="777.26,-226.29 786.15,-220.52 775.6,-219.49 777.26,-226.29"/>
</g>
<!-- Node28 -->
<g id="node28" class="node">
<title>Node28</title>
<g id="a_node28"><a xlink:href="MarioBehaviour_8hpp.html" target="_top" xlink:title=" ">
<polygon fill="none" stroke="black" points="1186,-201.5 1186,-220.5 1322,-220.5 1322,-201.5 1186,-201.5"/>
<text text-anchor="middle" x="1254" y="-208.5" font-family="Helvetica,sans-Serif" font-size="10.00">Scripts/MarioBehaviour.hpp</text>
</a>
</g>
</g>
<!-- Node1&#45;&gt;Node28 -->
<g id="edge35" class="edge">
<title>Node1&#45;&gt;Node28</title>
<path fill="none" stroke="midnightblue" d="M671.23,-260.12C794.69,-249.92 1047.44,-229.06 1175.67,-218.47"/>
<polygon fill="midnightblue" stroke="midnightblue" points="1176.13,-221.94 1185.81,-217.63 1175.55,-214.97 1176.13,-221.94"/>
</g>
<!-- Node33 -->
<g id="node33" class="node">
<title>Node33</title>
<g id="a_node33"><a xlink:href="Sprites_8hpp.html" target="_top" xlink:title=" ">
<polygon fill="none" stroke="black" points="1376.5,-201.5 1376.5,-220.5 1487.5,-220.5 1487.5,-201.5 1376.5,-201.5"/>
<text text-anchor="middle" x="1432" y="-208.5" font-family="Helvetica,sans-Serif" font-size="10.00">constants/Sprites.hpp</text>
</a>
</g>
</g>
<!-- Node1&#45;&gt;Node33 -->
<g id="edge45" class="edge">
<title>Node1&#45;&gt;Node33</title>
<path fill="none" stroke="midnightblue" d="M671.12,-262.27C801.86,-255.27 1089.15,-239.22 1331,-221 1342.4,-220.14 1354.53,-219.14 1366.27,-218.12"/>
<polygon fill="midnightblue" stroke="midnightblue" points="1366.8,-221.59 1376.46,-217.22 1366.19,-214.61 1366.8,-221.59"/>
</g>
<!-- Node3 -->
<g id="node3" class="node">
<title>Node3</title>
<g id="a_node3"><a xlink:title=" ">
<polygon fill="none" stroke="#bfbfbf" points="0,-140 0,-159 62,-159 62,-140 0,-140"/>
<text text-anchor="middle" x="31" y="-147" font-family="Helvetica,sans-Serif" font-size="10.00">Scene.hpp</text>
</a>
</g>
</g>
<!-- Node2&#45;&gt;Node3 -->
<g id="edge2" class="edge">
<title>Node2&#45;&gt;Node3</title>
<path fill="none" stroke="midnightblue" d="M118.39,-201.48C101.65,-191.71 74,-175.58 54.28,-164.08"/>
<polygon fill="midnightblue" stroke="midnightblue" points="55.99,-161.02 45.59,-159.01 52.46,-167.07 55.99,-161.02"/>
</g>
<!-- Node7&#45;&gt;Node5 -->
<g id="edge12" class="edge">
<title>Node7&#45;&gt;Node5</title>
<path fill="none" stroke="midnightblue" d="M561.27,-202.51C558.13,-201.97 555.02,-201.46 552,-201 417.95,-180.49 383.29,-183.91 249,-165 239.57,-163.67 229.59,-162.16 219.86,-160.62"/>
<polygon fill="midnightblue" stroke="midnightblue" points="220.27,-157.14 209.84,-159.01 219.16,-164.05 220.27,-157.14"/>
</g>
<!-- Node8 -->
<g id="node8" class="node">
<title>Node8</title>
<g id="a_node8"><a xlink:title=" ">
<polygon fill="none" stroke="#bfbfbf" points="627.5,-140 627.5,-159 686.5,-159 686.5,-140 627.5,-140"/>
<text text-anchor="middle" x="657" y="-147" font-family="Helvetica,sans-Serif" font-size="10.00">functional</text>
</a>
</g>
</g>
<!-- Node7&#45;&gt;Node8 -->
<g id="edge7" class="edge">
<title>Node7&#45;&gt;Node8</title>
<path fill="none" stroke="midnightblue" d="M608.17,-201.48C616.89,-192.37 630.9,-177.74 641.69,-166.48"/>
<polygon fill="midnightblue" stroke="midnightblue" points="644.46,-168.65 648.85,-159.01 639.4,-163.81 644.46,-168.65"/>
</g>
<!-- Node9 -->
<g id="node9" class="node">
<title>Node9</title>
<g id="a_node9"><a xlink:title=" ">
<polygon fill="none" stroke="#bfbfbf" points="704.5,-140 704.5,-159 739.5,-159 739.5,-140 704.5,-140"/>
<text text-anchor="middle" x="722" y="-147" font-family="Helvetica,sans-Serif" font-size="10.00">map</text>
</a>
</g>
</g>
<!-- Node7&#45;&gt;Node9 -->
<g id="edge8" class="edge">
<title>Node7&#45;&gt;Node9</title>
<path fill="none" stroke="midnightblue" d="M618.7,-201.48C637.96,-192.63 668.77,-178.24 695,-165 695.81,-164.59 696.63,-164.17 697.46,-163.75"/>
<polygon fill="midnightblue" stroke="midnightblue" points="699.14,-166.82 706.37,-159.07 695.88,-160.62 699.14,-166.82"/>
</g>
<!-- Node10 -->
<g id="node10" class="node">
<title>Node10</title>
<g id="a_node10"><a xlink:title=" ">
<polygon fill="none" stroke="#bfbfbf" points="114.5,-6 114.5,-25 165.5,-25 165.5,-6 114.5,-6"/>
<text text-anchor="middle" x="140" y="-13" font-family="Helvetica,sans-Serif" font-size="10.00">memory</text>
</a>
</g>
</g>
<!-- Node7&#45;&gt;Node10 -->
<g id="edge9" class="edge">
<title>Node7&#45;&gt;Node10</title>
<path fill="none" stroke="midnightblue" d="M569.86,-201.48C541.25,-193.13 497.21,-179.55 460,-165 452.56,-162.09 244.71,-65.29 168.05,-29.57"/>
<polygon fill="midnightblue" stroke="midnightblue" points="169.09,-26.2 158.55,-25.14 166.13,-32.54 169.09,-26.2"/>
</g>
<!-- Node11 -->
<g id="node11" class="node">
<title>Node11</title>
<g id="a_node11"><a xlink:title=" ">
<polygon fill="none" stroke="#bfbfbf" points="758,-140 758,-159 910,-159 910,-140 758,-140"/>
<text text-anchor="middle" x="834" y="-147" font-family="Helvetica,sans-Serif" font-size="10.00">Builder/GameObjectBuilder.hpp</text>
</a>
</g>
</g>
<!-- Node7&#45;&gt;Node11 -->
<g id="edge10" class="edge">
<title>Node7&#45;&gt;Node11</title>
<path fill="none" stroke="midnightblue" d="M633.53,-201.48C674.88,-190.96 745.27,-173.06 790.68,-161.51"/>
<polygon fill="midnightblue" stroke="midnightblue" points="791.71,-164.87 800.54,-159.01 789.98,-158.08 791.71,-164.87"/>
</g>
<!-- Node12 -->
<g id="node12" class="node">
<title>Node12</title>
<g id="a_node12"><a xlink:title=" ">
<polygon fill="none" stroke="#bfbfbf" points="258.5,-140 258.5,-159 383.5,-159 383.5,-140 258.5,-140"/>
<text text-anchor="middle" x="321" y="-147" font-family="Helvetica,sans-Serif" font-size="10.00">Builder/SceneBuilder.hpp</text>
</a>
</g>
</g>
<!-- Node7&#45;&gt;Node12 -->
<g id="edge11" class="edge">
<title>Node7&#45;&gt;Node12</title>
<path fill="none" stroke="midnightblue" d="M561.5,-201.79C511.82,-191.2 425.32,-172.75 370.72,-161.1"/>
<polygon fill="midnightblue" stroke="midnightblue" points="371.42,-157.67 360.91,-159.01 369.96,-164.52 371.42,-157.67"/>
</g>
<!-- Node13 -->
<g id="node13" class="node">
<title>Node13</title>
<g id="a_node13"><a xlink:href="CoinBehaviour_8hpp.html" target="_top" xlink:title=" ">
<polygon fill="none" stroke="black" points="478.5,-140 478.5,-159 609.5,-159 609.5,-140 478.5,-140"/>
<text text-anchor="middle" x="544" y="-147" font-family="Helvetica,sans-Serif" font-size="10.00">Scripts/CoinBehaviour.hpp</text>
</a>
</g>
</g>
<!-- Node7&#45;&gt;Node13 -->
<g id="edge13" class="edge">
<title>Node7&#45;&gt;Node13</title>
<path fill="none" stroke="midnightblue" d="M591.98,-201.48C583.41,-192.37 569.64,-177.74 559.04,-166.48"/>
<polygon fill="midnightblue" stroke="midnightblue" points="561.41,-163.89 552.01,-159.01 556.31,-168.69 561.41,-163.89"/>
</g>
<!-- Node15 -->
<g id="node15" class="node">
<title>Node15</title>
<g id="a_node15"><a xlink:href="CoinCounter_8hpp.html" target="_top" xlink:title=" ">
<polygon fill="none" stroke="black" points="489.5,-73 489.5,-92 598.5,-92 598.5,-73 489.5,-73"/>
<text text-anchor="middle" x="544" y="-80" font-family="Helvetica,sans-Serif" font-size="10.00">../UI/CoinCounter.hpp</text>
</a>
</g>
</g>
<!-- Node7&#45;&gt;Node15 -->
<g id="edge32" class="edge">
<title>Node7&#45;&gt;Node15</title>
<path fill="none" stroke="midnightblue" d="M561.3,-201.91C526.75,-193.81 479.97,-180.36 469,-165 461,-153.79 462.53,-146.16 469,-134 478.06,-116.97 495.71,-104.66 511.6,-96.45"/>
<polygon fill="midnightblue" stroke="midnightblue" points="513.18,-99.57 520.68,-92.09 510.15,-93.26 513.18,-99.57"/>
</g>
<!-- Node24 -->
<g id="node24" class="node">
<title>Node24</title>
<g id="a_node24"><a xlink:href="FlagBehaviour_8hpp.html" target="_top" xlink:title=" ">
<polygon fill="none" stroke="black" points="1076.5,-140 1076.5,-159 1207.5,-159 1207.5,-140 1076.5,-140"/>
<text text-anchor="middle" x="1142" y="-147" font-family="Helvetica,sans-Serif" font-size="10.00">Scripts/FlagBehaviour.hpp</text>
</a>
</g>
</g>
<!-- Node7&#45;&gt;Node24 -->
<g id="edge28" class="edge">
<title>Node7&#45;&gt;Node24</title>
<path fill="none" stroke="midnightblue" d="M638.68,-202.26C641.49,-201.8 644.28,-201.38 647,-201 832.59,-175.35 881.44,-190.82 1067,-165 1075.12,-163.87 1083.7,-162.44 1092.04,-160.92"/>
<polygon fill="midnightblue" stroke="midnightblue" points="1092.86,-164.33 1102.04,-159.04 1091.56,-157.45 1092.86,-164.33"/>
</g>
<!-- Node25 -->
<g id="node25" class="node">
<title>Node25</title>
<g id="a_node25"><a xlink:href="StarBehaviour_8hpp.html" target="_top" xlink:title=" ">
<polygon fill="none" stroke="black" points="928,-140 928,-159 1058,-159 1058,-140 928,-140"/>
<text text-anchor="middle" x="993" y="-147" font-family="Helvetica,sans-Serif" font-size="10.00">Scripts/StarBehaviour.hpp</text>
</a>
</g>
</g>
<!-- Node7&#45;&gt;Node25 -->
<g id="edge30" class="edge">
<title>Node7&#45;&gt;Node25</title>
<path fill="none" stroke="midnightblue" d="M638.7,-202.41C641.5,-201.91 644.29,-201.44 647,-201 767.38,-181.52 798.66,-184.73 919,-165 926.46,-163.78 934.31,-162.37 942.01,-160.92"/>
<polygon fill="midnightblue" stroke="midnightblue" points="942.82,-164.33 951.98,-159.01 941.5,-157.45 942.82,-164.33"/>
</g>
<!-- Node14 -->
<g id="node14" class="node">
<title>Node14</title>
<g id="a_node14"><a xlink:title=" ">
<polygon fill="none" stroke="#bfbfbf" points="941,-73 941,-92 1045,-92 1045,-73 941,-73"/>
<text text-anchor="middle" x="993" y="-80" font-family="Helvetica,sans-Serif" font-size="10.00">BehaviourScript.hpp</text>
</a>
</g>
</g>
<!-- Node13&#45;&gt;Node14 -->
<g id="edge14" class="edge">
<title>Node13&#45;&gt;Node14</title>
<path fill="none" stroke="midnightblue" d="M584.61,-139.96C595.43,-137.85 607.14,-135.7 618,-134 753.29,-112.82 788.86,-120.1 924,-98 930.9,-96.87 938.15,-95.53 945.26,-94.11"/>
<polygon fill="midnightblue" stroke="midnightblue" points="946.42,-97.45 955.51,-92.02 945.02,-90.59 946.42,-97.45"/>
</g>
<!-- Node13&#45;&gt;Node15 -->
<g id="edge15" class="edge">
<title>Node13&#45;&gt;Node15</title>
<path fill="none" stroke="midnightblue" d="M544,-139.73C544,-130.18 544,-114.62 544,-102.28"/>
<polygon fill="midnightblue" stroke="midnightblue" points="547.5,-102.13 544,-92.13 540.5,-102.13 547.5,-102.13"/>
</g>
<!-- Node16 -->
<g id="node16" class="node">
<title>Node16</title>
<g id="a_node16"><a xlink:title=" ">
<polygon fill="none" stroke="#bfbfbf" points="692.5,-0.5 692.5,-30.5 787.5,-30.5 787.5,-0.5 692.5,-0.5"/>
<text text-anchor="start" x="700.5" y="-18.5" font-family="Helvetica,sans-Serif" font-size="10.00">boost/serialization</text>
<text text-anchor="middle" x="740" y="-7.5" font-family="Helvetica,sans-Serif" font-size="10.00">/access.hpp</text>
</a>
</g>
</g>
<!-- Node13&#45;&gt;Node16 -->
<g id="edge25" class="edge">
<title>Node13&#45;&gt;Node16</title>
<path fill="none" stroke="midnightblue" d="M556.86,-139.84C587.85,-118.97 667.32,-65.45 710.68,-36.24"/>
<polygon fill="midnightblue" stroke="midnightblue" points="712.77,-39.06 719.11,-30.57 708.86,-33.25 712.77,-39.06"/>
</g>
<!-- Node17 -->
<g id="node17" class="node">
<title>Node17</title>
<g id="a_node17"><a xlink:title=" ">
<polygon fill="none" stroke="#bfbfbf" points="805.5,-0.5 805.5,-30.5 900.5,-30.5 900.5,-0.5 805.5,-0.5"/>
<text text-anchor="start" x="813.5" y="-18.5" font-family="Helvetica,sans-Serif" font-size="10.00">boost/serialization</text>
<text text-anchor="middle" x="853" y="-7.5" font-family="Helvetica,sans-Serif" font-size="10.00">/export.hpp</text>
</a>
</g>
</g>
<!-- Node13&#45;&gt;Node17 -->
<g id="edge26" class="edge">
<title>Node13&#45;&gt;Node17</title>
<path fill="none" stroke="midnightblue" d="M564.27,-139.84C614.06,-118.57 743.14,-63.43 810.58,-34.62"/>
<polygon fill="midnightblue" stroke="midnightblue" points="812.24,-37.72 820.06,-30.57 809.49,-31.28 812.24,-37.72"/>
</g>
<!-- Node18 -->
<g id="node18" class="node">
<title>Node18</title>
<g id="a_node18"><a xlink:title=" ">
<polygon fill="none" stroke="#bfbfbf" points="918.5,-0.5 918.5,-30.5 1013.5,-30.5 1013.5,-0.5 918.5,-0.5"/>
<text text-anchor="start" x="926.5" y="-18.5" font-family="Helvetica,sans-Serif" font-size="10.00">boost/serialization</text>
<text text-anchor="middle" x="966" y="-7.5" font-family="Helvetica,sans-Serif" font-size="10.00">/shared_ptr.hpp</text>
</a>
</g>
</g>
<!-- Node13&#45;&gt;Node18 -->
<g id="edge27" class="edge">
<title>Node13&#45;&gt;Node18</title>
<path fill="none" stroke="midnightblue" d="M573.37,-139.93C607.12,-130.03 664.16,-113.16 713,-98 782.56,-76.41 862.51,-50.46 913.6,-33.74"/>
<polygon fill="midnightblue" stroke="midnightblue" points="914.7,-37.06 923.11,-30.62 912.52,-30.41 914.7,-37.06"/>
</g>
<!-- Node15&#45;&gt;Node10 -->
<g id="edge16" class="edge">
<title>Node15&#45;&gt;Node10</title>
<path fill="none" stroke="midnightblue" d="M489.35,-74.81C394.04,-63.02 204.69,-39.04 175,-31 172.56,-30.34 170.06,-29.55 167.57,-28.68"/>
<polygon fill="midnightblue" stroke="midnightblue" points="168.81,-25.41 158.22,-25.08 166.29,-31.94 168.81,-25.41"/>
</g>
<!-- Node15&#45;&gt;Node16 -->
<g id="edge17" class="edge">
<title>Node15&#45;&gt;Node16</title>
<path fill="none" stroke="midnightblue" d="M570.03,-72.87C599.95,-62.95 649.81,-46.41 687.82,-33.81"/>
<polygon fill="midnightblue" stroke="midnightblue" points="689.31,-37 697.7,-30.53 687.11,-30.35 689.31,-37"/>
</g>
<!-- Node15&#45;&gt;Node17 -->
<g id="edge18" class="edge">
<title>Node15&#45;&gt;Node17</title>
<path fill="none" stroke="midnightblue" d="M590.14,-72.99C638.71,-63.87 717.62,-48.58 795.48,-31.05"/>
<polygon fill="midnightblue" stroke="midnightblue" points="796.48,-34.41 805.46,-28.79 794.93,-27.58 796.48,-34.41"/>
</g>
<!-- Node15&#45;&gt;Node18 -->
<g id="edge19" class="edge">
<title>Node15&#45;&gt;Node18</title>
<path fill="none" stroke="midnightblue" d="M598.73,-75.86C668.37,-68.25 792.48,-53.26 908.11,-31.04"/>
<polygon fill="midnightblue" stroke="midnightblue" points="909.05,-34.42 918.19,-29.07 907.71,-27.55 909.05,-34.42"/>
</g>
<!-- Node19 -->
<g id="node19" class="node">
<title>Node19</title>
<g id="a_node19"><a xlink:title=" ">
<polygon fill="none" stroke="#bfbfbf" points="276,-0.5 276,-30.5 380,-30.5 380,-0.5 276,-0.5"/>
<text text-anchor="start" x="284" y="-18.5" font-family="Helvetica,sans-Serif" font-size="10.00">boost/archive/binary</text>
<text text-anchor="middle" x="328" y="-7.5" font-family="Helvetica,sans-Serif" font-size="10.00">_iarchive.hpp</text>
</a>
</g>
</g>
<!-- Node15&#45;&gt;Node19 -->
<g id="edge20" class="edge">
<title>Node15&#45;&gt;Node19</title>
<path fill="none" stroke="midnightblue" d="M515.32,-72.87C482.06,-62.86 426.45,-46.13 384.44,-33.48"/>
<polygon fill="midnightblue" stroke="midnightblue" points="385.2,-30.06 374.62,-30.53 383.18,-36.76 385.2,-30.06"/>
</g>
<!-- Node20 -->
<g id="node20" class="node">
<title>Node20</title>
<g id="a_node20"><a xlink:title=" ">
<polygon fill="none" stroke="#bfbfbf" points="398,-0.5 398,-30.5 502,-30.5 502,-0.5 398,-0.5"/>
<text text-anchor="start" x="406" y="-18.5" font-family="Helvetica,sans-Serif" font-size="10.00">boost/archive/binary</text>
<text text-anchor="middle" x="450" y="-7.5" font-family="Helvetica,sans-Serif" font-size="10.00">_oarchive.hpp</text>
</a>
</g>
</g>
<!-- Node15&#45;&gt;Node20 -->
<g id="edge21" class="edge">
<title>Node15&#45;&gt;Node20</title>
<path fill="none" stroke="midnightblue" d="M531.32,-72.73C517.89,-63.44 496.22,-48.46 478.63,-36.3"/>
<polygon fill="midnightblue" stroke="midnightblue" points="480.59,-33.4 470.37,-30.59 476.61,-39.16 480.59,-33.4"/>
</g>
<!-- Node21 -->
<g id="node21" class="node">
<title>Node21</title>
<g id="a_node21"><a xlink:title=" ">
<polygon fill="none" stroke="#bfbfbf" points="520.5,-6 520.5,-25 577.5,-25 577.5,-6 520.5,-6"/>
<text text-anchor="middle" x="549" y="-13" font-family="Helvetica,sans-Serif" font-size="10.00">Color.hpp</text>
</a>
</g>
</g>
<!-- Node15&#45;&gt;Node21 -->
<g id="edge22" class="edge">
<title>Node15&#45;&gt;Node21</title>
<path fill="none" stroke="midnightblue" d="M544.67,-72.73C545.41,-63.18 546.61,-47.62 547.56,-35.28"/>
<polygon fill="midnightblue" stroke="midnightblue" points="551.06,-35.37 548.34,-25.13 544.08,-34.83 551.06,-35.37"/>
</g>
<!-- Node22 -->
<g id="node22" class="node">
<title>Node22</title>
<g id="a_node22"><a xlink:title=" ">
<polygon fill="none" stroke="#bfbfbf" points="595.5,-6 595.5,-25 674.5,-25 674.5,-6 595.5,-6"/>
<text text-anchor="middle" x="635" y="-13" font-family="Helvetica,sans-Serif" font-size="10.00">Transform.hpp</text>
</a>
</g>
</g>
<!-- Node15&#45;&gt;Node22 -->
<g id="edge23" class="edge">
<title>Node15&#45;&gt;Node22</title>
<path fill="none" stroke="midnightblue" d="M556.27,-72.73C571.15,-62.11 596.43,-44.05 614.33,-31.26"/>
<polygon fill="midnightblue" stroke="midnightblue" points="616.82,-33.79 622.92,-25.13 612.75,-28.09 616.82,-33.79"/>
</g>
<!-- Node23 -->
<g id="node23" class="node">
<title>Node23</title>
<g id="a_node23"><a xlink:title=" ">
<polygon fill="none" stroke="#bfbfbf" points="184,-6 184,-25 258,-25 258,-6 184,-6"/>
<text text-anchor="middle" x="221" y="-13" font-family="Helvetica,sans-Serif" font-size="10.00">UIObject.hpp</text>
</a>
</g>
</g>
<!-- Node15&#45;&gt;Node23 -->
<g id="edge24" class="edge">
<title>Node15&#45;&gt;Node23</title>
<path fill="none" stroke="midnightblue" d="M489.43,-73.62C433.26,-65.02 343.39,-49.92 267,-31 263.37,-30.1 259.61,-29.08 255.88,-27.99"/>
<polygon fill="midnightblue" stroke="midnightblue" points="256.73,-24.6 246.15,-25.05 254.7,-31.3 256.73,-24.6"/>
</g>
<!-- Node24&#45;&gt;Node14 -->
<g id="edge29" class="edge">
<title>Node24&#45;&gt;Node14</title>
<path fill="none" stroke="midnightblue" d="M1122.21,-139.87C1096.61,-128.7 1051.79,-109.15 1022.25,-96.26"/>
<polygon fill="midnightblue" stroke="midnightblue" points="1023.43,-92.96 1012.87,-92.17 1020.63,-99.37 1023.43,-92.96"/>
</g>
<!-- Node25&#45;&gt;Node14 -->
<g id="edge31" class="edge">
<title>Node25&#45;&gt;Node14</title>
<path fill="none" stroke="midnightblue" d="M993,-139.73C993,-130.18 993,-114.62 993,-102.28"/>
<polygon fill="midnightblue" stroke="midnightblue" points="996.5,-102.13 993,-92.13 989.5,-102.13 996.5,-102.13"/>
</g>
<!-- Node28&#45;&gt;Node14 -->
<g id="edge36" class="edge">
<title>Node28&#45;&gt;Node14</title>
<path fill="none" stroke="midnightblue" d="M1252.37,-201.4C1248.87,-185.48 1239.12,-151.46 1217,-134 1159.11,-88.3 1126.91,-114.4 1055,-98 1049.88,-96.83 1044.52,-95.6 1039.19,-94.36"/>
<polygon fill="midnightblue" stroke="midnightblue" points="1039.58,-90.86 1029.05,-92 1037.99,-97.68 1039.58,-90.86"/>
</g>
<!-- Node29 -->
<g id="node29" class="node">
<title>Node29</title>
<g id="a_node29"><a xlink:href="MarioState_8hpp.html" target="_top" xlink:title=" ">
<polygon fill="none" stroke="black" points="1063.5,-67.5 1063.5,-97.5 1166.5,-97.5 1166.5,-67.5 1063.5,-67.5"/>
<text text-anchor="start" x="1071.5" y="-85.5" font-family="Helvetica,sans-Serif" font-size="10.00">Scripts/MarioStates</text>
<text text-anchor="middle" x="1115" y="-74.5" font-family="Helvetica,sans-Serif" font-size="10.00">/MarioState.hpp</text>
</a>
</g>
</g>
<!-- Node28&#45;&gt;Node29 -->
<g id="edge37" class="edge">
<title>Node28&#45;&gt;Node29</title>
<path fill="none" stroke="midnightblue" d="M1297.86,-201.45C1345.45,-190.24 1411.12,-167.92 1383,-134 1357.33,-103.04 1247.69,-90.93 1176.85,-86.29"/>
<polygon fill="midnightblue" stroke="midnightblue" points="1176.89,-82.78 1166.69,-85.66 1176.46,-89.77 1176.89,-82.78"/>
</g>
<!-- Node32 -->
<g id="node32" class="node">
<title>Node32</title>
<g id="a_node32"><a xlink:href="SmallMarioState_8hpp.html" target="_top" xlink:title=" ">
<polygon fill="none" stroke="black" points="1264,-134.5 1264,-164.5 1374,-164.5 1374,-134.5 1264,-134.5"/>
<text text-anchor="start" x="1272" y="-152.5" font-family="Helvetica,sans-Serif" font-size="10.00">Scripts/MarioStates</text>
<text text-anchor="middle" x="1319" y="-141.5" font-family="Helvetica,sans-Serif" font-size="10.00">/SmallMarioState.hpp</text>
</a>
</g>
</g>
<!-- Node28&#45;&gt;Node32 -->
<g id="edge43" class="edge">
<title>Node28&#45;&gt;Node32</title>
<path fill="none" stroke="midnightblue" d="M1263.31,-201.48C1271.87,-193.64 1284.9,-181.71 1296.21,-171.37"/>
<polygon fill="midnightblue" stroke="midnightblue" points="1298.67,-173.86 1303.68,-164.52 1293.94,-168.69 1298.67,-173.86"/>
</g>
<!-- Node29&#45;&gt;Node16 -->
<g id="edge38" class="edge">
<title>Node29&#45;&gt;Node16</title>
<path fill="none" stroke="midnightblue" d="M1063.49,-68.89C1060.28,-68.22 1057.1,-67.58 1054,-67 943.44,-46.19 911.36,-53.12 797.72,-31.21"/>
<polygon fill="midnightblue" stroke="midnightblue" points="798.06,-27.71 787.57,-29.21 796.71,-34.57 798.06,-27.71"/>
</g>
<!-- Node29&#45;&gt;Node17 -->
<g id="edge39" class="edge">
<title>Node29&#45;&gt;Node17</title>
<path fill="none" stroke="midnightblue" d="M1063.31,-69.03C1023.9,-59.47 968.01,-45.82 910.62,-31.39"/>
<polygon fill="midnightblue" stroke="midnightblue" points="911.2,-27.93 900.65,-28.88 909.49,-34.72 911.2,-27.93"/>
</g>
<!-- Node29&#45;&gt;Node18 -->
<g id="edge40" class="edge">
<title>Node29&#45;&gt;Node18</title>
<path fill="none" stroke="midnightblue" d="M1082.67,-67.4C1060.7,-57.81 1031.44,-45.05 1007.72,-34.7"/>
<polygon fill="midnightblue" stroke="midnightblue" points="1008.83,-31.37 998.27,-30.58 1006.03,-37.78 1008.83,-31.37"/>
</g>
<!-- Node30 -->
<g id="node30" class="node">
<title>Node30</title>
<g id="a_node30"><a xlink:title=" ">
<polygon fill="none" stroke="#bfbfbf" points="1041.5,-6 1041.5,-25 1178.5,-25 1178.5,-6 1041.5,-6"/>
<text text-anchor="middle" x="1110" y="-13" font-family="Helvetica,sans-Serif" font-size="10.00">Texture/AnimatedSprite.hpp</text>
</a>
</g>
</g>
<!-- Node29&#45;&gt;Node30 -->
<g id="edge41" class="edge">
<title>Node29&#45;&gt;Node30</title>
<path fill="none" stroke="midnightblue" d="M1113.92,-67.4C1113.19,-57.96 1112.23,-45.45 1111.44,-35.19"/>
<polygon fill="midnightblue" stroke="midnightblue" points="1114.93,-34.9 1110.67,-25.19 1107.95,-35.43 1114.93,-34.9"/>
</g>
<!-- Node31 -->
<g id="node31" class="node">
<title>Node31</title>
<g id="a_node31"><a xlink:title=" ">
<polygon fill="none" stroke="#bfbfbf" points="1196.5,-6 1196.5,-25 1253.5,-25 1253.5,-6 1196.5,-6"/>
<text text-anchor="middle" x="1225" y="-13" font-family="Helvetica,sans-Serif" font-size="10.00">Point.hpp</text>
</a>
</g>
</g>
<!-- Node29&#45;&gt;Node31 -->
<g id="edge42" class="edge">
<title>Node29&#45;&gt;Node31</title>
<path fill="none" stroke="midnightblue" d="M1138.87,-67.4C1157.57,-56.34 1183.44,-41.06 1201.93,-30.13"/>
<polygon fill="midnightblue" stroke="midnightblue" points="1203.77,-33.11 1210.6,-25.01 1200.21,-27.08 1203.77,-33.11"/>
</g>
<!-- Node32&#45;&gt;Node29 -->
<g id="edge44" class="edge">
<title>Node32&#45;&gt;Node29</title>
<path fill="none" stroke="midnightblue" d="M1274.99,-134.48C1243.86,-124.56 1201.94,-111.2 1168.82,-100.65"/>
<polygon fill="midnightblue" stroke="midnightblue" points="1169.88,-97.31 1159.29,-97.61 1167.75,-103.98 1169.88,-97.31"/>
</g>
<!-- Node34 -->
<g id="node34" class="node">
<title>Node34</title>
<g id="a_node34"><a xlink:title=" ">
<polygon fill="none" stroke="#bfbfbf" points="1430.5,-140 1430.5,-159 1471.5,-159 1471.5,-140 1430.5,-140"/>
<text text-anchor="middle" x="1451" y="-147" font-family="Helvetica,sans-Serif" font-size="10.00">string</text>
</a>
</g>
</g>
<!-- Node33&#45;&gt;Node34 -->
<g id="edge46" class="edge">
<title>Node33&#45;&gt;Node34</title>
<path fill="none" stroke="midnightblue" d="M1434.72,-201.48C1437.43,-192.99 1441.67,-179.7 1445.15,-168.82"/>
<polygon fill="midnightblue" stroke="midnightblue" points="1448.57,-169.6 1448.28,-159.01 1441.91,-167.47 1448.57,-169.6"/>
</g>
</g>
</svg>
