<?xml version="1.0" encoding="UTF-8" standalone="no"?>
<!DOCTYPE svg PUBLIC "-//W3C//DTD SVG 1.1//EN"
 "http://www.w3.org/Graphics/SVG/1.1/DTD/svg11.dtd">
<!-- Generated by graphviz version 2.44.0 ()
 -->
<!-- Title: src/Game/Levels/Level.hpp Pages: 1 -->
<svg width="436pt" height="140pt"
 viewBox="0.00 0.00 436.00 140.00" xmlns="http://www.w3.org/2000/svg" xmlns:xlink="http://www.w3.org/1999/xlink">
<g id="graph0" class="graph" transform="scale(1 1) rotate(0) translate(4 136)">
<title>src/Game/Levels/Level.hpp</title>
<!-- Node1 -->
<g id="node1" class="node">
<title>Node1</title>
<g id="a_node1"><a xlink:title=" ">
<polygon fill="#bfbfbf" stroke="black" points="145.5,-112.5 145.5,-131.5 282.5,-131.5 282.5,-112.5 145.5,-112.5"/>
<text text-anchor="middle" x="214" y="-119.5" font-family="Helvetica,sans-Serif" font-size="10.00">src/Game/Levels/Level.hpp</text>
</a>
</g>
</g>
<!-- Node2 -->
<g id="node2" class="node">
<title>Node2</title>
<g id="a_node2"><a xlink:href="Level1_8hpp.html" target="_top" xlink:title=" ">
<polygon fill="none" stroke="black" points="63,-56.5 63,-75.5 205,-75.5 205,-56.5 63,-56.5"/>
<text text-anchor="middle" x="134" y="-63.5" font-family="Helvetica,sans-Serif" font-size="10.00">src/Game/Levels/Level1.hpp</text>
</a>
</g>
</g>
<!-- Node1&#45;&gt;Node2 -->
<g id="edge1" class="edge">
<title>Node1&#45;&gt;Node2</title>
<path fill="none" stroke="midnightblue" d="M192.7,-106.62C178.08,-96.76 159.17,-83.99 146.82,-75.65"/>
<polygon fill="midnightblue" stroke="midnightblue" points="190.9,-109.63 201.15,-112.32 194.82,-103.83 190.9,-109.63"/>
</g>
<!-- Node5 -->
<g id="node5" class="node">
<title>Node5</title>
<g id="a_node5"><a xlink:href="Level2_8hpp.html" target="_top" xlink:title=" ">
<polygon fill="none" stroke="black" points="223,-56.5 223,-75.5 365,-75.5 365,-56.5 223,-56.5"/>
<text text-anchor="middle" x="294" y="-63.5" font-family="Helvetica,sans-Serif" font-size="10.00">src/Game/Levels/Level2.hpp</text>
</a>
</g>
</g>
<!-- Node1&#45;&gt;Node5 -->
<g id="edge4" class="edge">
<title>Node1&#45;&gt;Node5</title>
<path fill="none" stroke="midnightblue" d="M235.3,-106.62C249.92,-96.76 268.83,-83.99 281.18,-75.65"/>
<polygon fill="midnightblue" stroke="midnightblue" points="233.18,-103.83 226.85,-112.32 237.1,-109.63 233.18,-103.83"/>
</g>
<!-- Node3 -->
<g id="node3" class="node">
<title>Node3</title>
<g id="a_node3"><a xlink:href="Game_8cpp.html" target="_top" xlink:title=" ">
<polygon fill="none" stroke="black" points="160.5,-0.5 160.5,-19.5 267.5,-19.5 267.5,-0.5 160.5,-0.5"/>
<text text-anchor="middle" x="214" y="-7.5" font-family="Helvetica,sans-Serif" font-size="10.00">src/Game/Game.cpp</text>
</a>
</g>
</g>
<!-- Node2&#45;&gt;Node3 -->
<g id="edge2" class="edge">
<title>Node2&#45;&gt;Node3</title>
<path fill="none" stroke="midnightblue" d="M155.3,-50.62C169.92,-40.76 188.83,-27.99 201.18,-19.65"/>
<polygon fill="midnightblue" stroke="midnightblue" points="153.18,-47.83 146.85,-56.32 157.1,-53.63 153.18,-47.83"/>
</g>
<!-- Node4 -->
<g id="node4" class="node">
<title>Node4</title>
<g id="a_node4"><a xlink:href="Level1_8cpp.html" target="_top" xlink:title=" ">
<polygon fill="none" stroke="black" points="0,-0.5 0,-19.5 142,-19.5 142,-0.5 0,-0.5"/>
<text text-anchor="middle" x="71" y="-7.5" font-family="Helvetica,sans-Serif" font-size="10.00">src/Game/Levels/Level1.cpp</text>
</a>
</g>
</g>
<!-- Node2&#45;&gt;Node4 -->
<g id="edge3" class="edge">
<title>Node2&#45;&gt;Node4</title>
<path fill="none" stroke="midnightblue" d="M115.96,-49.54C104.73,-39.91 90.68,-27.87 81.31,-19.83"/>
<polygon fill="midnightblue" stroke="midnightblue" points="114.01,-52.47 123.88,-56.32 118.56,-47.16 114.01,-52.47"/>
</g>
<!-- Node5&#45;&gt;Node3 -->
<g id="edge5" class="edge">
<title>Node5&#45;&gt;Node3</title>
<path fill="none" stroke="midnightblue" d="M272.7,-50.62C258.08,-40.76 239.17,-27.99 226.82,-19.65"/>
<polygon fill="midnightblue" stroke="midnightblue" points="270.9,-53.63 281.15,-56.32 274.82,-47.83 270.9,-53.63"/>
</g>
<!-- Node6 -->
<g id="node6" class="node">
<title>Node6</title>
<g id="a_node6"><a xlink:href="Level2_8cpp.html" target="_top" xlink:title=" ">
<polygon fill="none" stroke="black" points="286,-0.5 286,-19.5 428,-19.5 428,-0.5 286,-0.5"/>
<text text-anchor="middle" x="357" y="-7.5" font-family="Helvetica,sans-Serif" font-size="10.00">src/Game/Levels/Level2.cpp</text>
</a>
</g>
</g>
<!-- Node5&#45;&gt;Node6 -->
<g id="edge6" class="edge">
<title>Node5&#45;&gt;Node6</title>
<path fill="none" stroke="midnightblue" d="M312.04,-49.54C323.27,-39.91 337.32,-27.87 346.69,-19.83"/>
<polygon fill="midnightblue" stroke="midnightblue" points="309.44,-47.16 304.12,-56.32 313.99,-52.47 309.44,-47.16"/>
</g>
</g>
</svg>
