<?xml version="1.0" encoding="UTF-8" standalone="no"?>
<!DOCTYPE svg PUBLIC "-//W3C//DTD SVG 1.1//EN"
 "http://www.w3.org/Graphics/SVG/1.1/DTD/svg11.dtd">
<!-- Generated by graphviz version 2.44.0 ()
 -->
<!-- Title: src/Game/Levels/Level1.cpp Pages: 1 -->
<!--zoomable 285 -->
<svg id="main" version="1.1" xmlns="http://www.w3.org/2000/svg" xmlns:xlink="http://www.w3.org/1999/xlink" xml:space="preserve" onload="init(evt)">
<style type="text/css"><![CDATA[
.edge:hover path { stroke: red; }
.edge:hover polygon { stroke: red; fill: red; }
]]></style>
<script type="text/javascript"><![CDATA[
var edges = document.getElementsByTagName('g');
if (edges && edges.length) {
  for (var i=0;i<edges.length;i++) {
    if (edges[i].id.substr(0,4)=='edge') {
      edges[i].setAttribute('class','edge');
    }
  }
}
]]></script>
        <defs>
                <circle id="rim" cx="0" cy="0" r="7"/>
                <circle id="rim2" cx="0" cy="0" r="3.5"/>
                <g id="zoomPlus">
                        <use xlink:href="#rim" fill="#404040">
                                <set attributeName="fill" to="#808080" begin="zoomplus.mouseover" end="zoomplus.mouseout"/>
                        </use>
                        <path d="M-4,0h8M0,-4v8" fill="none" stroke="white" stroke-width="1.5" pointer-events="none"/>
                </g>
                <g id="zoomMin">
                        <use xlink:href="#rim" fill="#404040">
                                <set attributeName="fill" to="#808080" begin="zoomminus.mouseover" end="zoomminus.mouseout"/>
                        </use>
                        <path d="M-4,0h8" fill="none" stroke="white" stroke-width="1.5" pointer-events="none"/>
                </g>
                <g id="dirArrow">
                        <path fill="none" stroke="white" stroke-width="1.5" d="M0,-3.0v7 M-2.5,-0.5L0,-3.0L2.5,-0.5"/>
                </g>
               <g id="resetDef">
                       <use xlink:href="#rim2" fill="#404040">
                               <set attributeName="fill" to="#808080" begin="reset.mouseover" end="reset.mouseout"/>
                       </use>
               </g>
        </defs>

<script type="text/javascript">
var viewWidth = 1493;
var viewHeight = 285;
var sectionId = 'dynsection-0';
</script>
<script xlink:href="svgpan.js"/>
<svg id="graph" class="graph">
<g id="viewport">
<title>src/Game/Levels/Level1.cpp</title>
<!-- Node1 -->
<g id="node1" class="node">
<title>Node1</title>
<g id="a_node1"><a xlink:title=" ">
<polygon fill="#bfbfbf" stroke="black" points="526,-257.5 526,-276.5 668,-276.5 668,-257.5 526,-257.5"/>
<text text-anchor="middle" x="597" y="-264.5" font-family="Helvetica,sans-Serif" font-size="10.00">src/Game/Levels/Level1.cpp</text>
</a>
</g>
</g>
<!-- Node2 -->
<g id="node2" class="node">
<title>Node2</title>
<g id="a_node2"><a xlink:href="Level1_8hpp.html" target="_top" xlink:title=" ">
<polygon fill="none" stroke="black" points="100,-201.5 100,-220.5 164,-220.5 164,-201.5 100,-201.5"/>
<text text-anchor="middle" x="132" y="-208.5" font-family="Helvetica,sans-Serif" font-size="10.00">Level1.hpp</text>
</a>
</g>
</g>
<!-- Node1&#45;&gt;Node2 -->
<g id="edge1" class="edge">
<title>Node1&#45;&gt;Node2</title>
<path fill="none" stroke="midnightblue" d="M525.87,-257.74C427.75,-246.34 253.95,-226.16 174.17,-216.9"/>
<polygon fill="midnightblue" stroke="midnightblue" points="174.35,-213.39 164.01,-215.72 173.54,-220.35 174.35,-213.39"/>
</g>
<!-- Node4 -->
<g id="node4" class="node">
<title>Node4</title>
<g id="a_node4"><a xlink:title=" ">
<polygon fill="none" stroke="#bfbfbf" points="226.5,-201.5 226.5,-220.5 387.5,-220.5 387.5,-201.5 226.5,-201.5"/>
<text text-anchor="middle" x="307" y="-208.5" font-family="Helvetica,sans-Serif" font-size="10.00">Behaviour/CollisionBehaviour.hpp</text>
</a>
</g>
</g>
<!-- Node1&#45;&gt;Node4 -->
<g id="edge3" class="edge">
<title>Node1&#45;&gt;Node4</title>
<path fill="none" stroke="midnightblue" d="M551.05,-257.44C499.93,-247.92 417.35,-232.55 362.62,-222.36"/>
<polygon fill="midnightblue" stroke="midnightblue" points="363.21,-218.91 352.74,-220.52 361.93,-225.79 363.21,-218.91"/>
</g>
<!-- Node5 -->
<g id="node5" class="node">
<title>Node5</title>
<g id="a_node5"><a xlink:title=" ">
<polygon fill="none" stroke="#bfbfbf" points="80,-140 80,-159 238,-159 238,-140 80,-140"/>
<text text-anchor="middle" x="159" y="-147" font-family="Helvetica,sans-Serif" font-size="10.00">Director/GameObjectFactory.hpp</text>
</a>
</g>
</g>
<!-- Node1&#45;&gt;Node5 -->
<g id="edge4" class="edge">
<title>Node1&#45;&gt;Node5</title>
<path fill="none" stroke="midnightblue" d="M557.65,-257.44C524.39,-249.64 475.78,-236.93 435,-221 416.86,-213.91 414.35,-207.53 396,-201 363.5,-189.43 275.36,-171.96 216.22,-160.89"/>
<polygon fill="midnightblue" stroke="midnightblue" points="216.74,-157.43 206.26,-159.04 215.45,-164.31 216.74,-157.43"/>
</g>
<!-- Node6 -->
<g id="node6" class="node">
<title>Node6</title>
<g id="a_node6"><a xlink:title=" ">
<polygon fill="none" stroke="#bfbfbf" points="444,-201.5 444,-220.5 540,-220.5 540,-201.5 444,-201.5"/>
<text text-anchor="middle" x="492" y="-208.5" font-family="Helvetica,sans-Serif" font-size="10.00">Engine/Engine.hpp</text>
</a>
</g>
</g>
<!-- Node1&#45;&gt;Node6 -->
<g id="edge5" class="edge">
<title>Node1&#45;&gt;Node6</title>
<path fill="none" stroke="midnightblue" d="M580.13,-257.32C563.29,-248.66 537.19,-235.24 517.76,-225.25"/>
<polygon fill="midnightblue" stroke="midnightblue" points="519.32,-222.12 508.83,-220.65 516.12,-228.34 519.32,-222.12"/>
</g>
<!-- Node7 -->
<g id="node7" class="node">
<title>Node7</title>
<g id="a_node7"><a xlink:href="TileConfig_8hpp.html" target="_top" xlink:title=" ">
<polygon fill="none" stroke="black" points="558.5,-201.5 558.5,-220.5 635.5,-220.5 635.5,-201.5 558.5,-201.5"/>
<text text-anchor="middle" x="597" y="-208.5" font-family="Helvetica,sans-Serif" font-size="10.00">TileConfig.hpp</text>
</a>
</g>
</g>
<!-- Node1&#45;&gt;Node7 -->
<g id="edge6" class="edge">
<title>Node1&#45;&gt;Node7</title>
<path fill="none" stroke="midnightblue" d="M597,-257.08C597,-250.01 597,-239.86 597,-230.99"/>
<polygon fill="midnightblue" stroke="midnightblue" points="600.5,-230.75 597,-220.75 593.5,-230.75 600.5,-230.75"/>
</g>
<!-- Node26 -->
<g id="node26" class="node">
<title>Node26</title>
<g id="a_node26"><a xlink:title=" ">
<polygon fill="none" stroke="#bfbfbf" points="653.5,-201.5 653.5,-220.5 754.5,-220.5 754.5,-201.5 653.5,-201.5"/>
<text text-anchor="middle" x="704" y="-208.5" font-family="Helvetica,sans-Serif" font-size="10.00">UI/FPSCounter.hpp</text>
</a>
</g>
</g>
<!-- Node1&#45;&gt;Node26 -->
<g id="edge33" class="edge">
<title>Node1&#45;&gt;Node26</title>
<path fill="none" stroke="midnightblue" d="M614.19,-257.32C631.35,-248.66 657.95,-235.24 677.75,-225.25"/>
<polygon fill="midnightblue" stroke="midnightblue" points="679.5,-228.28 686.85,-220.65 676.35,-222.04 679.5,-228.28"/>
</g>
<!-- Node27 -->
<g id="node27" class="node">
<title>Node27</title>
<g id="a_node27"><a xlink:title=" ">
<polygon fill="none" stroke="#bfbfbf" points="773,-201.5 773,-220.5 863,-220.5 863,-201.5 773,-201.5"/>
<text text-anchor="middle" x="818" y="-208.5" font-family="Helvetica,sans-Serif" font-size="10.00">AudioSource.hpp</text>
</a>
</g>
</g>
<!-- Node1&#45;&gt;Node27 -->
<g id="edge34" class="edge">
<title>Node1&#45;&gt;Node27</title>
<path fill="none" stroke="midnightblue" d="M632.02,-257.44C670.25,-248.1 731.57,-233.12 773.26,-222.93"/>
<polygon fill="midnightblue" stroke="midnightblue" points="774.26,-226.29 783.15,-220.52 772.6,-219.49 774.26,-226.29"/>
</g>
<!-- Node28 -->
<g id="node28" class="node">
<title>Node28</title>
<g id="a_node28"><a xlink:href="MarioBehaviour_8hpp.html" target="_top" xlink:title=" ">
<polygon fill="none" stroke="black" points="1183,-201.5 1183,-220.5 1319,-220.5 1319,-201.5 1183,-201.5"/>
<text text-anchor="middle" x="1251" y="-208.5" font-family="Helvetica,sans-Serif" font-size="10.00">Scripts/MarioBehaviour.hpp</text>
</a>
</g>
</g>
<!-- Node1&#45;&gt;Node28 -->
<g id="edge35" class="edge">
<title>Node1&#45;&gt;Node28</title>
<path fill="none" stroke="midnightblue" d="M668.23,-260.12C791.69,-249.92 1044.44,-229.06 1172.67,-218.47"/>
<polygon fill="midnightblue" stroke="midnightblue" points="1173.13,-221.94 1182.81,-217.63 1172.55,-214.97 1173.13,-221.94"/>
</g>
<!-- Node33 -->
<g id="node33" class="node">
<title>Node33</title>
<g id="a_node33"><a xlink:href="Sprites_8hpp.html" target="_top" xlink:title=" ">
<polygon fill="none" stroke="black" points="1373.5,-201.5 1373.5,-220.5 1484.5,-220.5 1484.5,-201.5 1373.5,-201.5"/>
<text text-anchor="middle" x="1429" y="-208.5" font-family="Helvetica,sans-Serif" font-size="10.00">constants/Sprites.hpp</text>
</a>
</g>
</g>
<!-- Node1&#45;&gt;Node33 -->
<g id="edge45" class="edge">
<title>Node1&#45;&gt;Node33</title>
<path fill="none" stroke="midnightblue" d="M668.12,-262.27C798.86,-255.27 1086.15,-239.22 1328,-221 1339.4,-220.14 1351.53,-219.14 1363.27,-218.12"/>
<polygon fill="midnightblue" stroke="midnightblue" points="1363.8,-221.59 1373.46,-217.22 1363.19,-214.61 1363.8,-221.59"/>
</g>
<!-- Node3 -->
<g id="node3" class="node">
<title>Node3</title>
<g id="a_node3"><a xlink:title=" ">
<polygon fill="none" stroke="#bfbfbf" points="0,-140 0,-159 62,-159 62,-140 0,-140"/>
<text text-anchor="middle" x="31" y="-147" font-family="Helvetica,sans-Serif" font-size="10.00">Scene.hpp</text>
</a>
</g>
</g>
<!-- Node2&#45;&gt;Node3 -->
<g id="edge2" class="edge">
<title>Node2&#45;&gt;Node3</title>
<path fill="none" stroke="midnightblue" d="M117.53,-201.48C101.03,-191.75 73.82,-175.73 54.32,-164.24"/>
<polygon fill="midnightblue" stroke="midnightblue" points="55.84,-161.07 45.44,-159.01 52.28,-167.1 55.84,-161.07"/>
</g>
<!-- Node7&#45;&gt;Node5 -->
<g id="edge12" class="edge">
<title>Node7&#45;&gt;Node5</title>
<path fill="none" stroke="midnightblue" d="M558.27,-202.51C555.13,-201.97 552.02,-201.46 549,-201 414.95,-180.49 380.25,-184.15 246,-165 236.87,-163.7 227.22,-162.21 217.81,-160.69"/>
<polygon fill="midnightblue" stroke="midnightblue" points="218.15,-157.19 207.71,-159.03 217.01,-164.1 218.15,-157.19"/>
</g>
<!-- Node8 -->
<g id="node8" class="node">
<title>Node8</title>
<g id="a_node8"><a xlink:title=" ">
<polygon fill="none" stroke="#bfbfbf" points="624.5,-140 624.5,-159 683.5,-159 683.5,-140 624.5,-140"/>
<text text-anchor="middle" x="654" y="-147" font-family="Helvetica,sans-Serif" font-size="10.00">functional</text>
</a>
</g>
</g>
<!-- Node7&#45;&gt;Node8 -->
<g id="edge7" class="edge">
<title>Node7&#45;&gt;Node8</title>
<path fill="none" stroke="midnightblue" d="M605.17,-201.48C613.89,-192.37 627.9,-177.74 638.69,-166.48"/>
<polygon fill="midnightblue" stroke="midnightblue" points="641.46,-168.65 645.85,-159.01 636.4,-163.81 641.46,-168.65"/>
</g>
<!-- Node9 -->
<g id="node9" class="node">
<title>Node9</title>
<g id="a_node9"><a xlink:title=" ">
<polygon fill="none" stroke="#bfbfbf" points="701.5,-140 701.5,-159 736.5,-159 736.5,-140 701.5,-140"/>
<text text-anchor="middle" x="719" y="-147" font-family="Helvetica,sans-Serif" font-size="10.00">map</text>
</a>
</g>
</g>
<!-- Node7&#45;&gt;Node9 -->
<g id="edge8" class="edge">
<title>Node7&#45;&gt;Node9</title>
<path fill="none" stroke="midnightblue" d="M615.7,-201.48C634.96,-192.63 665.77,-178.24 692,-165 692.81,-164.59 693.63,-164.17 694.46,-163.75"/>
<polygon fill="midnightblue" stroke="midnightblue" points="696.14,-166.82 703.37,-159.07 692.88,-160.62 696.14,-166.82"/>
</g>
<!-- Node10 -->
<g id="node10" class="node">
<title>Node10</title>
<g id="a_node10"><a xlink:title=" ">
<polygon fill="none" stroke="#bfbfbf" points="111.5,-6 111.5,-25 162.5,-25 162.5,-6 111.5,-6"/>
<text text-anchor="middle" x="137" y="-13" font-family="Helvetica,sans-Serif" font-size="10.00">memory</text>
</a>
</g>
</g>
<!-- Node7&#45;&gt;Node10 -->
<g id="edge9" class="edge">
<title>Node7&#45;&gt;Node10</title>
<path fill="none" stroke="midnightblue" d="M566.86,-201.48C538.25,-193.13 494.21,-179.55 457,-165 449.56,-162.09 241.71,-65.29 165.05,-29.57"/>
<polygon fill="midnightblue" stroke="midnightblue" points="166.09,-26.2 155.55,-25.14 163.13,-32.54 166.09,-26.2"/>
</g>
<!-- Node11 -->
<g id="node11" class="node">
<title>Node11</title>
<g id="a_node11"><a xlink:title=" ">
<polygon fill="none" stroke="#bfbfbf" points="755,-140 755,-159 907,-159 907,-140 755,-140"/>
<text text-anchor="middle" x="831" y="-147" font-family="Helvetica,sans-Serif" font-size="10.00">Builder/GameObjectBuilder.hpp</text>
</a>
</g>
</g>
<!-- Node7&#45;&gt;Node11 -->
<g id="edge10" class="edge">
<title>Node7&#45;&gt;Node11</title>
<path fill="none" stroke="midnightblue" d="M630.53,-201.48C671.88,-190.96 742.27,-173.06 787.68,-161.51"/>
<polygon fill="midnightblue" stroke="midnightblue" points="788.71,-164.87 797.54,-159.01 786.98,-158.08 788.71,-164.87"/>
</g>
<!-- Node12 -->
<g id="node12" class="node">
<title>Node12</title>
<g id="a_node12"><a xlink:title=" ">
<polygon fill="none" stroke="#bfbfbf" points="255.5,-140 255.5,-159 380.5,-159 380.5,-140 255.5,-140"/>
<text text-anchor="middle" x="318" y="-147" font-family="Helvetica,sans-Serif" font-size="10.00">Builder/SceneBuilder.hpp</text>
</a>
</g>
</g>
<!-- Node7&#45;&gt;Node12 -->
<g id="edge11" class="edge">
<title>Node7&#45;&gt;Node12</title>
<path fill="none" stroke="midnightblue" d="M558.5,-201.79C508.82,-191.2 422.32,-172.75 367.72,-161.1"/>
<polygon fill="midnightblue" stroke="midnightblue" points="368.42,-157.67 357.91,-159.01 366.96,-164.52 368.42,-157.67"/>
</g>
<!-- Node13 -->
<g id="node13" class="node">
<title>Node13</title>
<g id="a_node13"><a xlink:href="CoinBehaviour_8hpp.html" target="_top" xlink:title=" ">
<polygon fill="none" stroke="black" points="475.5,-140 475.5,-159 606.5,-159 606.5,-140 475.5,-140"/>
<text text-anchor="middle" x="541" y="-147" font-family="Helvetica,sans-Serif" font-size="10.00">Scripts/CoinBehaviour.hpp</text>
</a>
</g>
</g>
<!-- Node7&#45;&gt;Node13 -->
<g id="edge13" class="edge">
<title>Node7&#45;&gt;Node13</title>
<path fill="none" stroke="midnightblue" d="M588.98,-201.48C580.41,-192.37 566.64,-177.74 556.04,-166.48"/>
<polygon fill="midnightblue" stroke="midnightblue" points="558.41,-163.89 549.01,-159.01 553.31,-168.69 558.41,-163.89"/>
</g>
<!-- Node15 -->
<g id="node15" class="node">
<title>Node15</title>
<g id="a_node15"><a xlink:href="CoinCounter_8hpp.html" target="_top" xlink:title=" ">
<polygon fill="none" stroke="black" points="486.5,-73 486.5,-92 595.5,-92 595.5,-73 486.5,-73"/>
<text text-anchor="middle" x="541" y="-80" font-family="Helvetica,sans-Serif" font-size="10.00">../UI/CoinCounter.hpp</text>
</a>
</g>
</g>
<!-- Node7&#45;&gt;Node15 -->
<g id="edge32" class="edge">
<title>Node7&#45;&gt;Node15</title>
<path fill="none" stroke="midnightblue" d="M558.3,-201.91C523.75,-193.81 476.97,-180.36 466,-165 458,-153.79 459.53,-146.16 466,-134 475.06,-116.97 492.71,-104.66 508.6,-96.45"/>
<polygon fill="midnightblue" stroke="midnightblue" points="510.18,-99.57 517.68,-92.09 507.15,-93.26 510.18,-99.57"/>
</g>
<!-- Node24 -->
<g id="node24" class="node">
<title>Node24</title>
<g id="a_node24"><a xlink:href="FlagBehaviour_8hpp.html" target="_top" xlink:title=" ">
<polygon fill="none" stroke="black" points="1073.5,-140 1073.5,-159 1204.5,-159 1204.5,-140 1073.5,-140"/>
<text text-anchor="middle" x="1139" y="-147" font-family="Helvetica,sans-Serif" font-size="10.00">Scripts/FlagBehaviour.hpp</text>
</a>
</g>
</g>
<!-- Node7&#45;&gt;Node24 -->
<g id="edge28" class="edge">
<title>Node7&#45;&gt;Node24</title>
<path fill="none" stroke="midnightblue" d="M635.68,-202.26C638.49,-201.8 641.28,-201.38 644,-201 829.59,-175.35 878.44,-190.82 1064,-165 1072.12,-163.87 1080.7,-162.44 1089.04,-160.92"/>
<polygon fill="midnightblue" stroke="midnightblue" points="1089.86,-164.33 1099.04,-159.04 1088.56,-157.45 1089.86,-164.33"/>
</g>
<!-- Node25 -->
<g id="node25" class="node">
<title>Node25</title>
<g id="a_node25"><a xlink:href="StarBehaviour_8hpp.html" target="_top" xlink:title=" ">
<polygon fill="none" stroke="black" points="925,-140 925,-159 1055,-159 1055,-140 925,-140"/>
<text text-anchor="middle" x="990" y="-147" font-family="Helvetica,sans-Serif" font-size="10.00">Scripts/StarBehaviour.hpp</text>
</a>
</g>
</g>
<!-- Node7&#45;&gt;Node25 -->
<g id="edge30" class="edge">
<title>Node7&#45;&gt;Node25</title>
<path fill="none" stroke="midnightblue" d="M635.7,-202.41C638.5,-201.91 641.29,-201.44 644,-201 764.38,-181.52 795.66,-184.73 916,-165 923.46,-163.78 931.31,-162.37 939.01,-160.92"/>
<polygon fill="midnightblue" stroke="midnightblue" points="939.82,-164.33 948.98,-159.01 938.5,-157.45 939.82,-164.33"/>
</g>
<!-- Node14 -->
<g id="node14" class="node">
<title>Node14</title>
<g id="a_node14"><a xlink:title=" ">
<polygon fill="none" stroke="#bfbfbf" points="938,-73 938,-92 1042,-92 1042,-73 938,-73"/>
<text text-anchor="middle" x="990" y="-80" font-family="Helvetica,sans-Serif" font-size="10.00">BehaviourScript.hpp</text>
</a>
</g>
</g>
<!-- Node13&#45;&gt;Node14 -->
<g id="edge14" class="edge">
<title>Node13&#45;&gt;Node14</title>
<path fill="none" stroke="midnightblue" d="M581.61,-139.96C592.43,-137.85 604.14,-135.7 615,-134 750.29,-112.82 785.86,-120.1 921,-98 927.9,-96.87 935.15,-95.53 942.26,-94.11"/>
<polygon fill="midnightblue" stroke="midnightblue" points="943.42,-97.45 952.51,-92.02 942.02,-90.59 943.42,-97.45"/>
</g>
<!-- Node13&#45;&gt;Node15 -->
<g id="edge15" class="edge">
<title>Node13&#45;&gt;Node15</title>
<path fill="none" stroke="midnightblue" d="M541,-139.73C541,-130.18 541,-114.62 541,-102.28"/>
<polygon fill="midnightblue" stroke="midnightblue" points="544.5,-102.13 541,-92.13 537.5,-102.13 544.5,-102.13"/>
</g>
<!-- Node16 -->
<g id="node16" class="node">
<title>Node16</title>
<g id="a_node16"><a xlink:title=" ">
<polygon fill="none" stroke="#bfbfbf" points="689.5,-0.5 689.5,-30.5 784.5,-30.5 784.5,-0.5 689.5,-0.5"/>
<text text-anchor="start" x="697.5" y="-18.5" font-family="Helvetica,sans-Serif" font-size="10.00">boost/serialization</text>
<text text-anchor="middle" x="737" y="-7.5" font-family="Helvetica,sans-Serif" font-size="10.00">/access.hpp</text>
</a>
</g>
</g>
<!-- Node13&#45;&gt;Node16 -->
<g id="edge25" class="edge">
<title>Node13&#45;&gt;Node16</title>
<path fill="none" stroke="midnightblue" d="M553.86,-139.84C584.85,-118.97 664.32,-65.45 707.68,-36.24"/>
<polygon fill="midnightblue" stroke="midnightblue" points="709.77,-39.06 716.11,-30.57 705.86,-33.25 709.77,-39.06"/>
</g>
<!-- Node17 -->
<g id="node17" class="node">
<title>Node17</title>
<g id="a_node17"><a xlink:title=" ">
<polygon fill="none" stroke="#bfbfbf" points="802.5,-0.5 802.5,-30.5 897.5,-30.5 897.5,-0.5 802.5,-0.5"/>
<text text-anchor="start" x="810.5" y="-18.5" font-family="Helvetica,sans-Serif" font-size="10.00">boost/serialization</text>
<text text-anchor="middle" x="850" y="-7.5" font-family="Helvetica,sans-Serif" font-size="10.00">/export.hpp</text>
</a>
</g>
</g>
<!-- Node13&#45;&gt;Node17 -->
<g id="edge26" class="edge">
<title>Node13&#45;&gt;Node17</title>
<path fill="none" stroke="midnightblue" d="M561.27,-139.84C611.06,-118.57 740.14,-63.43 807.58,-34.62"/>
<polygon fill="midnightblue" stroke="midnightblue" points="809.24,-37.72 817.06,-30.57 806.49,-31.28 809.24,-37.72"/>
</g>
<!-- Node18 -->
<g id="node18" class="node">
<title>Node18</title>
<g id="a_node18"><a xlink:title=" ">
<polygon fill="none" stroke="#bfbfbf" points="915.5,-0.5 915.5,-30.5 1010.5,-30.5 1010.5,-0.5 915.5,-0.5"/>
<text text-anchor="start" x="923.5" y="-18.5" font-family="Helvetica,sans-Serif" font-size="10.00">boost/serialization</text>
<text text-anchor="middle" x="963" y="-7.5" font-family="Helvetica,sans-Serif" font-size="10.00">/shared_ptr.hpp</text>
</a>
</g>
</g>
<!-- Node13&#45;&gt;Node18 -->
<g id="edge27" class="edge">
<title>Node13&#45;&gt;Node18</title>
<path fill="none" stroke="midnightblue" d="M570.37,-139.93C604.12,-130.03 661.16,-113.16 710,-98 779.56,-76.41 859.51,-50.46 910.6,-33.74"/>
<polygon fill="midnightblue" stroke="midnightblue" points="911.7,-37.06 920.11,-30.62 909.52,-30.41 911.7,-37.06"/>
</g>
<!-- Node15&#45;&gt;Node10 -->
<g id="edge16" class="edge">
<title>Node15&#45;&gt;Node10</title>
<path fill="none" stroke="midnightblue" d="M486.35,-74.81C391.04,-63.02 201.69,-39.04 172,-31 169.56,-30.34 167.06,-29.55 164.57,-28.68"/>
<polygon fill="midnightblue" stroke="midnightblue" points="165.81,-25.41 155.22,-25.08 163.29,-31.94 165.81,-25.41"/>
</g>
<!-- Node15&#45;&gt;Node16 -->
<g id="edge17" class="edge">
<title>Node15&#45;&gt;Node16</title>
<path fill="none" stroke="midnightblue" d="M567.03,-72.87C596.95,-62.95 646.81,-46.41 684.82,-33.81"/>
<polygon fill="midnightblue" stroke="midnightblue" points="686.31,-37 694.7,-30.53 684.11,-30.35 686.31,-37"/>
</g>
<!-- Node15&#45;&gt;Node17 -->
<g id="edge18" class="edge">
<title>Node15&#45;&gt;Node17</title>
<path fill="none" stroke="midnightblue" d="M587.14,-72.99C635.71,-63.87 714.62,-48.58 792.48,-31.05"/>
<polygon fill="midnightblue" stroke="midnightblue" points="793.48,-34.41 802.46,-28.79 791.93,-27.58 793.48,-34.41"/>
</g>
<!-- Node15&#45;&gt;Node18 -->
<g id="edge19" class="edge">
<title>Node15&#45;&gt;Node18</title>
<path fill="none" stroke="midnightblue" d="M595.73,-75.86C665.37,-68.25 789.48,-53.26 905.11,-31.04"/>
<polygon fill="midnightblue" stroke="midnightblue" points="906.05,-34.42 915.19,-29.07 904.71,-27.55 906.05,-34.42"/>
</g>
<!-- Node19 -->
<g id="node19" class="node">
<title>Node19</title>
<g id="a_node19"><a xlink:title=" ">
<polygon fill="none" stroke="#bfbfbf" points="273,-0.5 273,-30.5 377,-30.5 377,-0.5 273,-0.5"/>
<text text-anchor="start" x="281" y="-18.5" font-family="Helvetica,sans-Serif" font-size="10.00">boost/archive/binary</text>
<text text-anchor="middle" x="325" y="-7.5" font-family="Helvetica,sans-Serif" font-size="10.00">_iarchive.hpp</text>
</a>
</g>
</g>
<!-- Node15&#45;&gt;Node19 -->
<g id="edge20" class="edge">
<title>Node15&#45;&gt;Node19</title>
<path fill="none" stroke="midnightblue" d="M512.32,-72.87C479.06,-62.86 423.45,-46.13 381.44,-33.48"/>
<polygon fill="midnightblue" stroke="midnightblue" points="382.2,-30.06 371.62,-30.53 380.18,-36.76 382.2,-30.06"/>
</g>
<!-- Node20 -->
<g id="node20" class="node">
<title>Node20</title>
<g id="a_node20"><a xlink:title=" ">
<polygon fill="none" stroke="#bfbfbf" points="395,-0.5 395,-30.5 499,-30.5 499,-0.5 395,-0.5"/>
<text text-anchor="start" x="403" y="-18.5" font-family="Helvetica,sans-Serif" font-size="10.00">boost/archive/binary</text>
<text text-anchor="middle" x="447" y="-7.5" font-family="Helvetica,sans-Serif" font-size="10.00">_oarchive.hpp</text>
</a>
</g>
</g>
<!-- Node15&#45;&gt;Node20 -->
<g id="edge21" class="edge">
<title>Node15&#45;&gt;Node20</title>
<path fill="none" stroke="midnightblue" d="M528.32,-72.73C514.89,-63.44 493.22,-48.46 475.63,-36.3"/>
<polygon fill="midnightblue" stroke="midnightblue" points="477.59,-33.4 467.37,-30.59 473.61,-39.16 477.59,-33.4"/>
</g>
<!-- Node21 -->
<g id="node21" class="node">
<title>Node21</title>
<g id="a_node21"><a xlink:title=" ">
<polygon fill="none" stroke="#bfbfbf" points="517.5,-6 517.5,-25 574.5,-25 574.5,-6 517.5,-6"/>
<text text-anchor="middle" x="546" y="-13" font-family="Helvetica,sans-Serif" font-size="10.00">Color.hpp</text>
</a>
</g>
</g>
<!-- Node15&#45;&gt;Node21 -->
<g id="edge22" class="edge">
<title>Node15&#45;&gt;Node21</title>
<path fill="none" stroke="midnightblue" d="M541.67,-72.73C542.41,-63.18 543.61,-47.62 544.56,-35.28"/>
<polygon fill="midnightblue" stroke="midnightblue" points="548.06,-35.37 545.34,-25.13 541.08,-34.83 548.06,-35.37"/>
</g>
<!-- Node22 -->
<g id="node22" class="node">
<title>Node22</title>
<g id="a_node22"><a xlink:title=" ">
<polygon fill="none" stroke="#bfbfbf" points="592.5,-6 592.5,-25 671.5,-25 671.5,-6 592.5,-6"/>
<text text-anchor="middle" x="632" y="-13" font-family="Helvetica,sans-Serif" font-size="10.00">Transform.hpp</text>
</a>
</g>
</g>
<!-- Node15&#45;&gt;Node22 -->
<g id="edge23" class="edge">
<title>Node15&#45;&gt;Node22</title>
<path fill="none" stroke="midnightblue" d="M553.27,-72.73C568.15,-62.11 593.43,-44.05 611.33,-31.26"/>
<polygon fill="midnightblue" stroke="midnightblue" points="613.82,-33.79 619.92,-25.13 609.75,-28.09 613.82,-33.79"/>
</g>
<!-- Node23 -->
<g id="node23" class="node">
<title>Node23</title>
<g id="a_node23"><a xlink:title=" ">
<polygon fill="none" stroke="#bfbfbf" points="181,-6 181,-25 255,-25 255,-6 181,-6"/>
<text text-anchor="middle" x="218" y="-13" font-family="Helvetica,sans-Serif" font-size="10.00">UIObject.hpp</text>
</a>
</g>
</g>
<!-- Node15&#45;&gt;Node23 -->
<g id="edge24" class="edge">
<title>Node15&#45;&gt;Node23</title>
<path fill="none" stroke="midnightblue" d="M486.43,-73.62C430.26,-65.02 340.39,-49.92 264,-31 260.37,-30.1 256.61,-29.08 252.88,-27.99"/>
<polygon fill="midnightblue" stroke="midnightblue" points="253.73,-24.6 243.15,-25.05 251.7,-31.3 253.73,-24.6"/>
</g>
<!-- Node24&#45;&gt;Node14 -->
<g id="edge29" class="edge">
<title>Node24&#45;&gt;Node14</title>
<path fill="none" stroke="midnightblue" d="M1119.21,-139.87C1093.61,-128.7 1048.79,-109.15 1019.25,-96.26"/>
<polygon fill="midnightblue" stroke="midnightblue" points="1020.43,-92.96 1009.87,-92.17 1017.63,-99.37 1020.43,-92.96"/>
</g>
<!-- Node25&#45;&gt;Node14 -->
<g id="edge31" class="edge">
<title>Node25&#45;&gt;Node14</title>
<path fill="none" stroke="midnightblue" d="M990,-139.73C990,-130.18 990,-114.62 990,-102.28"/>
<polygon fill="midnightblue" stroke="midnightblue" points="993.5,-102.13 990,-92.13 986.5,-102.13 993.5,-102.13"/>
</g>
<!-- Node28&#45;&gt;Node14 -->
<g id="edge36" class="edge">
<title>Node28&#45;&gt;Node14</title>
<path fill="none" stroke="midnightblue" d="M1249.37,-201.4C1245.87,-185.48 1236.12,-151.46 1214,-134 1156.11,-88.3 1123.91,-114.4 1052,-98 1046.88,-96.83 1041.52,-95.6 1036.19,-94.36"/>
<polygon fill="midnightblue" stroke="midnightblue" points="1036.58,-90.86 1026.05,-92 1034.99,-97.68 1036.58,-90.86"/>
</g>
<!-- Node29 -->
<g id="node29" class="node">
<title>Node29</title>
<g id="a_node29"><a xlink:href="MarioState_8hpp.html" target="_top" xlink:title=" ">
<polygon fill="none" stroke="black" points="1060.5,-67.5 1060.5,-97.5 1163.5,-97.5 1163.5,-67.5 1060.5,-67.5"/>
<text text-anchor="start" x="1068.5" y="-85.5" font-family="Helvetica,sans-Serif" font-size="10.00">Scripts/MarioStates</text>
<text text-anchor="middle" x="1112" y="-74.5" font-family="Helvetica,sans-Serif" font-size="10.00">/MarioState.hpp</text>
</a>
</g>
</g>
<!-- Node28&#45;&gt;Node29 -->
<g id="edge37" class="edge">
<title>Node28&#45;&gt;Node29</title>
<path fill="none" stroke="midnightblue" d="M1294.86,-201.45C1342.45,-190.24 1408.12,-167.92 1380,-134 1354.33,-103.04 1244.69,-90.93 1173.85,-86.29"/>
<polygon fill="midnightblue" stroke="midnightblue" points="1173.89,-82.78 1163.69,-85.66 1173.46,-89.77 1173.89,-82.78"/>
</g>
<!-- Node32 -->
<g id="node32" class="node">
<title>Node32</title>
<g id="a_node32"><a xlink:href="SmallMarioState_8hpp.html" target="_top" xlink:title=" ">
<polygon fill="none" stroke="black" points="1261,-134.5 1261,-164.5 1371,-164.5 1371,-134.5 1261,-134.5"/>
<text text-anchor="start" x="1269" y="-152.5" font-family="Helvetica,sans-Serif" font-size="10.00">Scripts/MarioStates</text>
<text text-anchor="middle" x="1316" y="-141.5" font-family="Helvetica,sans-Serif" font-size="10.00">/SmallMarioState.hpp</text>
</a>
</g>
</g>
<!-- Node28&#45;&gt;Node32 -->
<g id="edge43" class="edge">
<title>Node28&#45;&gt;Node32</title>
<path fill="none" stroke="midnightblue" d="M1260.31,-201.48C1268.87,-193.64 1281.9,-181.71 1293.21,-171.37"/>
<polygon fill="midnightblue" stroke="midnightblue" points="1295.67,-173.86 1300.68,-164.52 1290.94,-168.69 1295.67,-173.86"/>
</g>
<!-- Node29&#45;&gt;Node16 -->
<g id="edge38" class="edge">
<title>Node29&#45;&gt;Node16</title>
<path fill="none" stroke="midnightblue" d="M1060.49,-68.89C1057.28,-68.22 1054.1,-67.58 1051,-67 940.44,-46.19 908.36,-53.12 794.72,-31.21"/>
<polygon fill="midnightblue" stroke="midnightblue" points="795.06,-27.71 784.57,-29.21 793.71,-34.57 795.06,-27.71"/>
</g>
<!-- Node29&#45;&gt;Node17 -->
<g id="edge39" class="edge">
<title>Node29&#45;&gt;Node17</title>
<path fill="none" stroke="midnightblue" d="M1060.31,-69.03C1020.9,-59.47 965.01,-45.82 907.62,-31.39"/>
<polygon fill="midnightblue" stroke="midnightblue" points="908.2,-27.93 897.65,-28.88 906.49,-34.72 908.2,-27.93"/>
</g>
<!-- Node29&#45;&gt;Node18 -->
<g id="edge40" class="edge">
<title>Node29&#45;&gt;Node18</title>
<path fill="none" stroke="midnightblue" d="M1079.67,-67.4C1057.7,-57.81 1028.44,-45.05 1004.72,-34.7"/>
<polygon fill="midnightblue" stroke="midnightblue" points="1005.83,-31.37 995.27,-30.58 1003.03,-37.78 1005.83,-31.37"/>
</g>
<!-- Node30 -->
<g id="node30" class="node">
<title>Node30</title>
<g id="a_node30"><a xlink:title=" ">
<polygon fill="none" stroke="#bfbfbf" points="1038.5,-6 1038.5,-25 1175.5,-25 1175.5,-6 1038.5,-6"/>
<text text-anchor="middle" x="1107" y="-13" font-family="Helvetica,sans-Serif" font-size="10.00">Texture/AnimatedSprite.hpp</text>
</a>
</g>
</g>
<!-- Node29&#45;&gt;Node30 -->
<g id="edge41" class="edge">
<title>Node29&#45;&gt;Node30</title>
<path fill="none" stroke="midnightblue" d="M1110.92,-67.4C1110.19,-57.96 1109.23,-45.45 1108.44,-35.19"/>
<polygon fill="midnightblue" stroke="midnightblue" points="1111.93,-34.9 1107.67,-25.19 1104.95,-35.43 1111.93,-34.9"/>
</g>
<!-- Node31 -->
<g id="node31" class="node">
<title>Node31</title>
<g id="a_node31"><a xlink:title=" ">
<polygon fill="none" stroke="#bfbfbf" points="1193.5,-6 1193.5,-25 1250.5,-25 1250.5,-6 1193.5,-6"/>
<text text-anchor="middle" x="1222" y="-13" font-family="Helvetica,sans-Serif" font-size="10.00">Point.hpp</text>
</a>
</g>
</g>
<!-- Node29&#45;&gt;Node31 -->
<g id="edge42" class="edge">
<title>Node29&#45;&gt;Node31</title>
<path fill="none" stroke="midnightblue" d="M1135.87,-67.4C1154.57,-56.34 1180.44,-41.06 1198.93,-30.13"/>
<polygon fill="midnightblue" stroke="midnightblue" points="1200.77,-33.11 1207.6,-25.01 1197.21,-27.08 1200.77,-33.11"/>
</g>
<!-- Node32&#45;&gt;Node29 -->
<g id="edge44" class="edge">
<title>Node32&#45;&gt;Node29</title>
<path fill="none" stroke="midnightblue" d="M1271.99,-134.48C1240.86,-124.56 1198.94,-111.2 1165.82,-100.65"/>
<polygon fill="midnightblue" stroke="midnightblue" points="1166.88,-97.31 1156.29,-97.61 1164.75,-103.98 1166.88,-97.31"/>
</g>
<!-- Node34 -->
<g id="node34" class="node">
<title>Node34</title>
<g id="a_node34"><a xlink:title=" ">
<polygon fill="none" stroke="#bfbfbf" points="1427.5,-140 1427.5,-159 1468.5,-159 1468.5,-140 1427.5,-140"/>
<text text-anchor="middle" x="1448" y="-147" font-family="Helvetica,sans-Serif" font-size="10.00">string</text>
</a>
</g>
</g>
<!-- Node33&#45;&gt;Node34 -->
<g id="edge46" class="edge">
<title>Node33&#45;&gt;Node34</title>
<path fill="none" stroke="midnightblue" d="M1431.72,-201.48C1434.43,-192.99 1438.67,-179.7 1442.15,-168.82"/>
<polygon fill="midnightblue" stroke="midnightblue" points="1445.57,-169.6 1445.28,-159.01 1438.91,-167.47 1445.57,-169.6"/>
</g>
</g>
</svg>
        <g id="navigator" transform="translate(0 0)" fill="#404254">
                <rect fill="#f2f5e9" fill-opacity="0.5" stroke="#606060" stroke-width=".5" x="0" y="0" width="60" height="60"/>
                <use id="zoomplus" xlink:href="#zoomPlus" x="17" y="9" onmousedown="handleZoom(evt,'in')"/>
                <use id="zoomminus" xlink:href="#zoomMin" x="42" y="9" onmousedown="handleZoom(evt,'out')"/>
                <use id="reset" xlink:href="#resetDef" x="30" y="36" onmousedown="handleReset()"/>
                <g id="arrowUp" xlink:href="#dirArrow" transform="translate(30 24)" onmousedown="handlePan(0,-1)">
                  <use xlink:href="#rim" fill="#404040">
                        <set attributeName="fill" to="#808080" begin="arrowUp.mouseover" end="arrowUp.mouseout"/>
                  </use>
                  <path fill="none" stroke="white" stroke-width="1.5" d="M0,-3.0v7 M-2.5,-0.5L0,-3.0L2.5,-0.5"/>
                </g>
                <g id="arrowRight" xlink:href="#dirArrow" transform="rotate(90) translate(36 -43)" onmousedown="handlePan(1,0)">
                  <use xlink:href="#rim" fill="#404040">
                        <set attributeName="fill" to="#808080" begin="arrowRight.mouseover" end="arrowRight.mouseout"/>
                  </use>
                  <path fill="none" stroke="white" stroke-width="1.5" d="M0,-3.0v7 M-2.5,-0.5L0,-3.0L2.5,-0.5"/>
                </g>
                <g id="arrowDown" xlink:href="#dirArrow" transform="rotate(180) translate(-30 -48)" onmousedown="handlePan(0,1)">
                  <use xlink:href="#rim" fill="#404040">
                        <set attributeName="fill" to="#808080" begin="arrowDown.mouseover" end="arrowDown.mouseout"/>
                  </use>
                  <path fill="none" stroke="white" stroke-width="1.5" d="M0,-3.0v7 M-2.5,-0.5L0,-3.0L2.5,-0.5"/>
                </g>
                <g id="arrowLeft" xlink:href="#dirArrow" transform="rotate(270) translate(-36 17)" onmousedown="handlePan(-1,0)">
                  <use xlink:href="#rim" fill="#404040">
                        <set attributeName="fill" to="#808080" begin="arrowLeft.mouseover" end="arrowLeft.mouseout"/>
                  </use>
                  <path fill="none" stroke="white" stroke-width="1.5" d="M0,-3.0v7 M-2.5,-0.5L0,-3.0L2.5,-0.5"/>
                </g>
        </g>
        <svg viewBox="0 0 15 15" width="100%" height="30px" preserveAspectRatio="xMaxYMin meet">
         <g id="arrow_out" transform="scale(0.3 0.3)">
          <a xlink:href="Level1_8cpp__incl_org.svg" target="_base">
           <rect id="button" ry="5" rx="5" y="6" x="6" height="38" width="38"
                fill="#f2f5e9" fill-opacity="0.5" stroke="#606060" stroke-width="1.0"/>
           <path id="arrow"
             d="M 11.500037,31.436501 C 11.940474,20.09759 22.043105,11.32322 32.158766,21.979434 L 37.068811,17.246167 C 37.068811,17.246167 37.088388,32 37.088388,32 L 22.160133,31.978069 C 22.160133,31.978069 26.997745,27.140456 26.997745,27.140456 C 18.528582,18.264221 13.291696,25.230495 11.500037,31.436501 z"
             style="fill:#404040;"/>
          </a>
         </g>
        </svg>
</svg>
