<?xml version="1.0" encoding="UTF-8" standalone="no"?>
<!DOCTYPE svg PUBLIC "-//W3C//DTD SVG 1.1//EN"
 "http://www.w3.org/Graphics/SVG/1.1/DTD/svg11.dtd">
<!-- Generated by graphviz version 2.44.0 ()
 -->
<!-- Title: src/Game/Levels/Level1.cpp Pages: 1 -->
<!--zoomable 218 -->
<svg id="main" version="1.1" xmlns="http://www.w3.org/2000/svg" xmlns:xlink="http://www.w3.org/1999/xlink" xml:space="preserve" onload="init(evt)">
<style type="text/css"><![CDATA[
.edge:hover path { stroke: red; }
.edge:hover polygon { stroke: red; fill: red; }
]]></style>
<script type="text/javascript"><![CDATA[
var edges = document.getElementsByTagName('g');
if (edges && edges.length) {
  for (var i=0;i<edges.length;i++) {
    if (edges[i].id.substr(0,4)=='edge') {
      edges[i].setAttribute('class','edge');
    }
  }
}
]]></script>
        <defs>
                <circle id="rim" cx="0" cy="0" r="7"/>
                <circle id="rim2" cx="0" cy="0" r="3.5"/>
                <g id="zoomPlus">
                        <use xlink:href="#rim" fill="#404040">
                                <set attributeName="fill" to="#808080" begin="zoomplus.mouseover" end="zoomplus.mouseout"/>
                        </use>
                        <path d="M-4,0h8M0,-4v8" fill="none" stroke="white" stroke-width="1.5" pointer-events="none"/>
                </g>
                <g id="zoomMin">
                        <use xlink:href="#rim" fill="#404040">
                                <set attributeName="fill" to="#808080" begin="zoomminus.mouseover" end="zoomminus.mouseout"/>
                        </use>
                        <path d="M-4,0h8" fill="none" stroke="white" stroke-width="1.5" pointer-events="none"/>
                </g>
                <g id="dirArrow">
                        <path fill="none" stroke="white" stroke-width="1.5" d="M0,-3.0v7 M-2.5,-0.5L0,-3.0L2.5,-0.5"/>
                </g>
               <g id="resetDef">
                       <use xlink:href="#rim2" fill="#404040">
                               <set attributeName="fill" to="#808080" begin="reset.mouseover" end="reset.mouseout"/>
                       </use>
               </g>
        </defs>

<script type="text/javascript">
var viewWidth = 1512;
var viewHeight = 218;
var sectionId = 'dynsection-0';
</script>
<script xlink:href="svgpan.js"/>
<svg id="graph" class="graph">
<g id="viewport">
<title>src/Game/Levels/Level1.cpp</title>
<!-- Node1 -->
<g id="node1" class="node">
<title>Node1</title>
<g id="a_node1"><a xlink:title=" ">
<polygon fill="#bfbfbf" stroke="black" points="811,-190.5 811,-209.5 953,-209.5 953,-190.5 811,-190.5"/>
<text text-anchor="middle" x="882" y="-197.5" font-family="Helvetica,sans-Serif" font-size="10.00">src/Game/Levels/Level1.cpp</text>
</a>
</g>
</g>
<!-- Node2 -->
<g id="node2" class="node">
<title>Node2</title>
<g id="a_node2"><a xlink:href="Level1_8hpp.html" target="_top" xlink:title=" ">
<polygon fill="none" stroke="black" points="97,-129 97,-148 161,-148 161,-129 97,-129"/>
<text text-anchor="middle" x="129" y="-136" font-family="Helvetica,sans-Serif" font-size="10.00">Level1.hpp</text>
</a>
</g>
</g>
<!-- Node1&#45;&gt;Node2 -->
<g id="edge1" class="edge">
<title>Node1&#45;&gt;Node2</title>
<path fill="none" stroke="midnightblue" d="M810.57,-194.48C696.01,-187.07 464.16,-171.42 268,-154 235.53,-151.12 198.86,-147.27 171.34,-144.26"/>
<polygon fill="midnightblue" stroke="midnightblue" points="171.6,-140.77 161.27,-143.15 170.83,-147.72 171.6,-140.77"/>
</g>
<!-- Node4 -->
<g id="node4" class="node">
<title>Node4</title>
<g id="a_node4"><a xlink:title=" ">
<polygon fill="none" stroke="#bfbfbf" points="277.5,-129 277.5,-148 438.5,-148 438.5,-129 277.5,-129"/>
<text text-anchor="middle" x="358" y="-136" font-family="Helvetica,sans-Serif" font-size="10.00">Behaviour/CollisionBehaviour.hpp</text>
</a>
</g>
</g>
<!-- Node1&#45;&gt;Node4 -->
<g id="edge3" class="edge">
<title>Node1&#45;&gt;Node4</title>
<path fill="none" stroke="midnightblue" d="M810.91,-192.57C725.71,-184.63 578.71,-170.18 453,-154 442.72,-152.68 431.83,-151.14 421.24,-149.58"/>
<polygon fill="midnightblue" stroke="midnightblue" points="421.61,-146.09 411.2,-148.07 420.57,-153.01 421.61,-146.09"/>
</g>
<!-- Node5 -->
<g id="node5" class="node">
<title>Node5</title>
<g id="a_node5"><a xlink:title=" ">
<polygon fill="none" stroke="#bfbfbf" points="80,-62 80,-81 240,-81 240,-62 80,-62"/>
<text text-anchor="middle" x="160" y="-69" font-family="Helvetica,sans-Serif" font-size="10.00">Director/GameObjectDirector.hpp</text>
</a>
</g>
</g>
<!-- Node1&#45;&gt;Node5 -->
<g id="edge4" class="edge">
<title>Node1&#45;&gt;Node5</title>
<path fill="none" stroke="midnightblue" d="M810.78,-195.62C713.08,-190.18 543.06,-177.61 486,-154 465.54,-145.53 467.19,-132.09 447,-123 436.81,-118.41 303.96,-96.1 222.63,-82.72"/>
<polygon fill="midnightblue" stroke="midnightblue" points="222.93,-79.22 212.49,-81.05 221.79,-86.13 222.93,-79.22"/>
</g>
<!-- Node6 -->
<g id="node6" class="node">
<title>Node6</title>
<g id="a_node6"><a xlink:title=" ">
<polygon fill="none" stroke="#bfbfbf" points="1300,-129 1300,-148 1396,-148 1396,-129 1300,-129"/>
<text text-anchor="middle" x="1348" y="-136" font-family="Helvetica,sans-Serif" font-size="10.00">Engine/Engine.hpp</text>
</a>
</g>
</g>
<!-- Node1&#45;&gt;Node6 -->
<g id="edge5" class="edge">
<title>Node1&#45;&gt;Node6</title>
<path fill="none" stroke="midnightblue" d="M953.37,-194.18C1035.33,-187.95 1173.62,-175.28 1291,-154 1296.46,-153.01 1302.18,-151.79 1307.79,-150.47"/>
<polygon fill="midnightblue" stroke="midnightblue" points="1308.82,-153.82 1317.7,-148.04 1307.16,-147.02 1308.82,-153.82"/>
</g>
<!-- Node7 -->
<g id="node7" class="node">
<title>Node7</title>
<g id="a_node7"><a xlink:href="DynamicAnimationBehaviour_8hpp.html" target="_top" xlink:title=" ">
<polygon fill="none" stroke="black" points="816.5,-123.5 816.5,-153.5 947.5,-153.5 947.5,-123.5 816.5,-123.5"/>
<text text-anchor="start" x="824.5" y="-141.5" font-family="Helvetica,sans-Serif" font-size="10.00">Scripts/DynamicAnimation</text>
<text text-anchor="middle" x="882" y="-130.5" font-family="Helvetica,sans-Serif" font-size="10.00">Behaviour.hpp</text>
</a>
</g>
</g>
<!-- Node1&#45;&gt;Node7 -->
<g id="edge6" class="edge">
<title>Node1&#45;&gt;Node7</title>
<path fill="none" stroke="midnightblue" d="M882,-190.48C882,-183.47 882,-173.19 882,-163.7"/>
<polygon fill="midnightblue" stroke="midnightblue" points="885.5,-163.52 882,-153.52 878.5,-163.52 885.5,-163.52"/>
</g>
<!-- Node10 -->
<g id="node10" class="node">
<title>Node10</title>
<g id="a_node10"><a xlink:href="PlayerInputBehaviour_8hpp.html" target="_top" xlink:title=" ">
<polygon fill="none" stroke="black" points="1120.5,-129 1120.5,-148 1281.5,-148 1281.5,-129 1120.5,-129"/>
<text text-anchor="middle" x="1201" y="-136" font-family="Helvetica,sans-Serif" font-size="10.00">Scripts/PlayerInputBehaviour.hpp</text>
</a>
</g>
</g>
<!-- Node1&#45;&gt;Node10 -->
<g id="edge9" class="edge">
<title>Node1&#45;&gt;Node10</title>
<path fill="none" stroke="midnightblue" d="M927.7,-190.48C985.15,-179.76 1083.68,-161.38 1145.42,-149.87"/>
<polygon fill="midnightblue" stroke="midnightblue" points="1146.19,-153.28 1155.38,-148.01 1144.91,-146.4 1146.19,-153.28"/>
</g>
<!-- Node13 -->
<g id="node13" class="node">
<title>Node13</title>
<g id="a_node13"><a xlink:href="TileConfig_8hpp.html" target="_top" xlink:title=" ">
<polygon fill="none" stroke="black" points="495.5,-129 495.5,-148 572.5,-148 572.5,-129 495.5,-129"/>
<text text-anchor="middle" x="534" y="-136" font-family="Helvetica,sans-Serif" font-size="10.00">TileConfig.hpp</text>
</a>
</g>
</g>
<!-- Node1&#45;&gt;Node13 -->
<g id="edge13" class="edge">
<title>Node1&#45;&gt;Node13</title>
<path fill="none" stroke="midnightblue" d="M832.14,-190.48C765.69,-179.11 648.83,-159.13 582.88,-147.86"/>
<polygon fill="midnightblue" stroke="midnightblue" points="583.19,-144.36 572.75,-146.12 582.01,-151.26 583.19,-144.36"/>
</g>
<!-- Node20 -->
<g id="node20" class="node">
<title>Node20</title>
<g id="a_node20"><a xlink:title=" ">
<polygon fill="none" stroke="#bfbfbf" points="1414,-129 1414,-148 1504,-148 1504,-129 1414,-129"/>
<text text-anchor="middle" x="1459" y="-136" font-family="Helvetica,sans-Serif" font-size="10.00">AudioSource.hpp</text>
</a>
</g>
</g>
<!-- Node1&#45;&gt;Node20 -->
<g id="edge22" class="edge">
<title>Node1&#45;&gt;Node20</title>
<path fill="none" stroke="midnightblue" d="M953.15,-196.85C1054.26,-192.91 1245.01,-182.14 1405,-154 1410.19,-153.09 1415.6,-151.91 1420.91,-150.62"/>
<polygon fill="midnightblue" stroke="midnightblue" points="1422.09,-153.93 1430.9,-148.05 1420.35,-147.15 1422.09,-153.93"/>
</g>
<!-- Node21 -->
<g id="node21" class="node">
<title>Node21</title>
<g id="a_node21"><a xlink:href="MarioBehaviour_8hpp.html" target="_top" xlink:title=" ">
<polygon fill="none" stroke="black" points="966,-129 966,-148 1102,-148 1102,-129 966,-129"/>
<text text-anchor="middle" x="1034" y="-136" font-family="Helvetica,sans-Serif" font-size="10.00">Scripts/MarioBehaviour.hpp</text>
</a>
</g>
</g>
<!-- Node1&#45;&gt;Node21 -->
<g id="edge23" class="edge">
<title>Node1&#45;&gt;Node21</title>
<path fill="none" stroke="midnightblue" d="M903.78,-190.48C929.74,-180.31 973.31,-163.26 1002.83,-151.7"/>
<polygon fill="midnightblue" stroke="midnightblue" points="1004.23,-154.91 1012.26,-148.01 1001.67,-148.4 1004.23,-154.91"/>
</g>
<!-- Node3 -->
<g id="node3" class="node">
<title>Node3</title>
<g id="a_node3"><a xlink:title=" ">
<polygon fill="none" stroke="#bfbfbf" points="0,-62 0,-81 62,-81 62,-62 0,-62"/>
<text text-anchor="middle" x="31" y="-69" font-family="Helvetica,sans-Serif" font-size="10.00">Scene.hpp</text>
</a>
</g>
</g>
<!-- Node2&#45;&gt;Node3 -->
<g id="edge2" class="edge">
<title>Node2&#45;&gt;Node3</title>
<path fill="none" stroke="midnightblue" d="M115.78,-128.73C99.55,-117.96 71.78,-99.55 52.47,-86.74"/>
<polygon fill="midnightblue" stroke="midnightblue" points="54.28,-83.74 44.01,-81.13 50.41,-89.57 54.28,-83.74"/>
</g>
<!-- Node8 -->
<g id="node8" class="node">
<title>Node8</title>
<g id="a_node8"><a xlink:title=" ">
<polygon fill="none" stroke="#bfbfbf" points="976,-0.5 976,-19.5 1080,-19.5 1080,-0.5 976,-0.5"/>
<text text-anchor="middle" x="1028" y="-7.5" font-family="Helvetica,sans-Serif" font-size="10.00">BehaviourScript.hpp</text>
</a>
</g>
</g>
<!-- Node7&#45;&gt;Node8 -->
<g id="edge7" class="edge">
<title>Node7&#45;&gt;Node8</title>
<path fill="none" stroke="midnightblue" d="M891.54,-123.22C903.65,-105.83 925.89,-76.28 950,-56 965.16,-43.25 984.42,-32.1 1000.01,-24.08"/>
<polygon fill="midnightblue" stroke="midnightblue" points="1001.78,-27.11 1009.17,-19.51 998.66,-20.85 1001.78,-27.11"/>
</g>
<!-- Node9 -->
<g id="node9" class="node">
<title>Node9</title>
<g id="a_node9"><a xlink:title=" ">
<polygon fill="none" stroke="#bfbfbf" points="959.5,-62 959.5,-81 1096.5,-81 1096.5,-62 959.5,-62"/>
<text text-anchor="middle" x="1028" y="-69" font-family="Helvetica,sans-Serif" font-size="10.00">Texture/AnimatedSprite.hpp</text>
</a>
</g>
</g>
<!-- Node7&#45;&gt;Node9 -->
<g id="edge8" class="edge">
<title>Node7&#45;&gt;Node9</title>
<path fill="none" stroke="midnightblue" d="M913.68,-123.4C939.3,-111.99 975.04,-96.08 999.7,-85.1"/>
<polygon fill="midnightblue" stroke="midnightblue" points="1001.18,-88.27 1008.89,-81.01 998.33,-81.88 1001.18,-88.27"/>
</g>
<!-- Node10&#45;&gt;Node8 -->
<g id="edge10" class="edge">
<title>Node10&#45;&gt;Node8</title>
<path fill="none" stroke="midnightblue" d="M1194.41,-128.91C1181.79,-112.89 1152.71,-78.1 1122,-56 1103.24,-42.5 1079.8,-31.27 1061.02,-23.4"/>
<polygon fill="midnightblue" stroke="midnightblue" points="1062.25,-20.13 1051.67,-19.6 1059.62,-26.61 1062.25,-20.13"/>
</g>
<!-- Node11 -->
<g id="node11" class="node">
<title>Node11</title>
<g id="a_node11"><a xlink:title=" ">
<polygon fill="none" stroke="#bfbfbf" points="1191.5,-56.5 1191.5,-86.5 1286.5,-86.5 1286.5,-56.5 1191.5,-56.5"/>
<text text-anchor="start" x="1199.5" y="-74.5" font-family="Helvetica,sans-Serif" font-size="10.00">boost/serialization</text>
<text text-anchor="middle" x="1239" y="-63.5" font-family="Helvetica,sans-Serif" font-size="10.00">/access.hpp</text>
</a>
</g>
</g>
<!-- Node10&#45;&gt;Node11 -->
<g id="edge11" class="edge">
<title>Node10&#45;&gt;Node11</title>
<path fill="none" stroke="midnightblue" d="M1206.12,-128.73C1211.11,-120.2 1218.9,-106.87 1225.65,-95.33"/>
<polygon fill="midnightblue" stroke="midnightblue" points="1228.74,-96.99 1230.76,-86.59 1222.69,-93.46 1228.74,-96.99"/>
</g>
<!-- Node12 -->
<g id="node12" class="node">
<title>Node12</title>
<g id="a_node12"><a xlink:title=" ">
<polygon fill="none" stroke="#bfbfbf" points="1304.5,-56.5 1304.5,-86.5 1399.5,-86.5 1399.5,-56.5 1304.5,-56.5"/>
<text text-anchor="start" x="1312.5" y="-74.5" font-family="Helvetica,sans-Serif" font-size="10.00">boost/serialization</text>
<text text-anchor="middle" x="1352" y="-63.5" font-family="Helvetica,sans-Serif" font-size="10.00">/export.hpp</text>
</a>
</g>
</g>
<!-- Node10&#45;&gt;Node12 -->
<g id="edge12" class="edge">
<title>Node10&#45;&gt;Node12</title>
<path fill="none" stroke="midnightblue" d="M1221.05,-128.87C1243.61,-119.16 1280.89,-103.11 1309.92,-90.61"/>
<polygon fill="midnightblue" stroke="midnightblue" points="1311.61,-93.7 1319.41,-86.53 1308.84,-87.27 1311.61,-93.7"/>
</g>
<!-- Node13&#45;&gt;Node5 -->
<g id="edge19" class="edge">
<title>Node13&#45;&gt;Node5</title>
<path fill="none" stroke="midnightblue" d="M504.99,-128.93C497.24,-126.81 488.84,-124.67 481,-123 378.96,-101.2 352.05,-103.39 249,-87 240.24,-85.61 230.99,-84.12 221.91,-82.65"/>
<polygon fill="midnightblue" stroke="midnightblue" points="222.19,-79.15 211.76,-81 221.07,-86.06 222.19,-79.15"/>
</g>
<!-- Node14 -->
<g id="node14" class="node">
<title>Node14</title>
<g id="a_node14"><a xlink:title=" ">
<polygon fill="none" stroke="#bfbfbf" points="258.5,-62 258.5,-81 317.5,-81 317.5,-62 258.5,-62"/>
<text text-anchor="middle" x="288" y="-69" font-family="Helvetica,sans-Serif" font-size="10.00">functional</text>
</a>
</g>
</g>
<!-- Node13&#45;&gt;Node14 -->
<g id="edge14" class="edge">
<title>Node13&#45;&gt;Node14</title>
<path fill="none" stroke="midnightblue" d="M503.5,-128.94C496.15,-126.94 488.31,-124.85 481,-123 412.43,-105.67 393.64,-107.65 326,-87 323.58,-86.26 321.09,-85.44 318.6,-84.58"/>
<polygon fill="midnightblue" stroke="midnightblue" points="319.72,-81.27 309.13,-81.15 317.33,-87.85 319.72,-81.27"/>
</g>
<!-- Node15 -->
<g id="node15" class="node">
<title>Node15</title>
<g id="a_node15"><a xlink:title=" ">
<polygon fill="none" stroke="#bfbfbf" points="335.5,-62 335.5,-81 370.5,-81 370.5,-62 335.5,-62"/>
<text text-anchor="middle" x="353" y="-69" font-family="Helvetica,sans-Serif" font-size="10.00">map</text>
</a>
</g>
</g>
<!-- Node13&#45;&gt;Node15 -->
<g id="edge15" class="edge">
<title>Node13&#45;&gt;Node15</title>
<path fill="none" stroke="midnightblue" d="M501.56,-128.92C469.73,-120.04 420.11,-104.96 379,-87 378.15,-86.63 377.29,-86.24 376.43,-85.83"/>
<polygon fill="midnightblue" stroke="midnightblue" points="377.82,-82.61 367.32,-81.14 374.61,-88.83 377.82,-82.61"/>
</g>
<!-- Node16 -->
<g id="node16" class="node">
<title>Node16</title>
<g id="a_node16"><a xlink:title=" ">
<polygon fill="none" stroke="#bfbfbf" points="388.5,-62 388.5,-81 439.5,-81 439.5,-62 388.5,-62"/>
<text text-anchor="middle" x="414" y="-69" font-family="Helvetica,sans-Serif" font-size="10.00">memory</text>
</a>
</g>
</g>
<!-- Node13&#45;&gt;Node16 -->
<g id="edge16" class="edge">
<title>Node13&#45;&gt;Node16</title>
<path fill="none" stroke="midnightblue" d="M517.82,-128.73C497.57,-117.77 462.7,-98.88 439.01,-86.05"/>
<polygon fill="midnightblue" stroke="midnightblue" points="440.39,-82.81 429.93,-81.13 437.05,-88.97 440.39,-82.81"/>
</g>
<!-- Node17 -->
<g id="node17" class="node">
<title>Node17</title>
<g id="a_node17"><a xlink:title=" ">
<polygon fill="none" stroke="#bfbfbf" points="458,-62 458,-81 610,-81 610,-62 458,-62"/>
<text text-anchor="middle" x="534" y="-69" font-family="Helvetica,sans-Serif" font-size="10.00">Builder/GameObjectBuilder.hpp</text>
</a>
</g>
</g>
<!-- Node13&#45;&gt;Node17 -->
<g id="edge17" class="edge">
<title>Node13&#45;&gt;Node17</title>
<path fill="none" stroke="midnightblue" d="M534,-128.73C534,-119.18 534,-103.62 534,-91.28"/>
<polygon fill="midnightblue" stroke="midnightblue" points="537.5,-91.13 534,-81.13 530.5,-91.13 537.5,-91.13"/>
</g>
<!-- Node18 -->
<g id="node18" class="node">
<title>Node18</title>
<g id="a_node18"><a xlink:title=" ">
<polygon fill="none" stroke="#bfbfbf" points="628.5,-62 628.5,-81 753.5,-81 753.5,-62 628.5,-62"/>
<text text-anchor="middle" x="691" y="-69" font-family="Helvetica,sans-Serif" font-size="10.00">Builder/SceneBuilder.hpp</text>
</a>
</g>
</g>
<!-- Node13&#45;&gt;Node18 -->
<g id="edge18" class="edge">
<title>Node13&#45;&gt;Node18</title>
<path fill="none" stroke="midnightblue" d="M554.85,-128.87C581.94,-117.65 629.46,-97.98 660.58,-85.09"/>
<polygon fill="midnightblue" stroke="midnightblue" points="662.16,-88.23 670.07,-81.17 659.49,-81.76 662.16,-88.23"/>
</g>
<!-- Node19 -->
<g id="node19" class="node">
<title>Node19</title>
<g id="a_node19"><a xlink:href="FlagBehaviour_8hpp.html" target="_top" xlink:title=" ">
<polygon fill="none" stroke="black" points="771.5,-62 771.5,-81 902.5,-81 902.5,-62 771.5,-62"/>
<text text-anchor="middle" x="837" y="-69" font-family="Helvetica,sans-Serif" font-size="10.00">Scripts/FlagBehaviour.hpp</text>
</a>
</g>
</g>
<!-- Node13&#45;&gt;Node19 -->
<g id="edge20" class="edge">
<title>Node13&#45;&gt;Node19</title>
<path fill="none" stroke="midnightblue" d="M572.68,-129.2C627.28,-117.49 726.97,-96.1 787.08,-83.21"/>
<polygon fill="midnightblue" stroke="midnightblue" points="788.06,-86.58 797.1,-81.06 786.59,-79.73 788.06,-86.58"/>
</g>
<!-- Node19&#45;&gt;Node8 -->
<g id="edge21" class="edge">
<title>Node19&#45;&gt;Node8</title>
<path fill="none" stroke="midnightblue" d="M864.37,-61.98C897.55,-51.64 953.65,-34.16 990.76,-22.6"/>
<polygon fill="midnightblue" stroke="midnightblue" points="992.18,-25.82 1000.69,-19.51 990.1,-19.14 992.18,-25.82"/>
</g>
<!-- Node21&#45;&gt;Node8 -->
<g id="edge24" class="edge">
<title>Node21&#45;&gt;Node8</title>
<path fill="none" stroke="midnightblue" d="M1055.43,-128.91C1072.31,-120.85 1094.67,-107.03 1105,-87 1111.32,-74.76 1111.86,-67.95 1105,-56 1096.38,-40.99 1080.61,-30.5 1065.57,-23.46"/>
<polygon fill="midnightblue" stroke="midnightblue" points="1066.94,-20.24 1056.37,-19.51 1064.18,-26.67 1066.94,-20.24"/>
</g>
</g>
</svg>
        <g id="navigator" transform="translate(0 0)" fill="#404254">
                <rect fill="#f2f5e9" fill-opacity="0.5" stroke="#606060" stroke-width=".5" x="0" y="0" width="60" height="60"/>
                <use id="zoomplus" xlink:href="#zoomPlus" x="17" y="9" onmousedown="handleZoom(evt,'in')"/>
                <use id="zoomminus" xlink:href="#zoomMin" x="42" y="9" onmousedown="handleZoom(evt,'out')"/>
                <use id="reset" xlink:href="#resetDef" x="30" y="36" onmousedown="handleReset()"/>
                <g id="arrowUp" xlink:href="#dirArrow" transform="translate(30 24)" onmousedown="handlePan(0,-1)">
                  <use xlink:href="#rim" fill="#404040">
                        <set attributeName="fill" to="#808080" begin="arrowUp.mouseover" end="arrowUp.mouseout"/>
                  </use>
                  <path fill="none" stroke="white" stroke-width="1.5" d="M0,-3.0v7 M-2.5,-0.5L0,-3.0L2.5,-0.5"/>
                </g>
                <g id="arrowRight" xlink:href="#dirArrow" transform="rotate(90) translate(36 -43)" onmousedown="handlePan(1,0)">
                  <use xlink:href="#rim" fill="#404040">
                        <set attributeName="fill" to="#808080" begin="arrowRight.mouseover" end="arrowRight.mouseout"/>
                  </use>
                  <path fill="none" stroke="white" stroke-width="1.5" d="M0,-3.0v7 M-2.5,-0.5L0,-3.0L2.5,-0.5"/>
                </g>
                <g id="arrowDown" xlink:href="#dirArrow" transform="rotate(180) translate(-30 -48)" onmousedown="handlePan(0,1)">
                  <use xlink:href="#rim" fill="#404040">
                        <set attributeName="fill" to="#808080" begin="arrowDown.mouseover" end="arrowDown.mouseout"/>
                  </use>
                  <path fill="none" stroke="white" stroke-width="1.5" d="M0,-3.0v7 M-2.5,-0.5L0,-3.0L2.5,-0.5"/>
                </g>
                <g id="arrowLeft" xlink:href="#dirArrow" transform="rotate(270) translate(-36 17)" onmousedown="handlePan(-1,0)">
                  <use xlink:href="#rim" fill="#404040">
                        <set attributeName="fill" to="#808080" begin="arrowLeft.mouseover" end="arrowLeft.mouseout"/>
                  </use>
                  <path fill="none" stroke="white" stroke-width="1.5" d="M0,-3.0v7 M-2.5,-0.5L0,-3.0L2.5,-0.5"/>
                </g>
        </g>
        <svg viewBox="0 0 15 15" width="100%" height="30px" preserveAspectRatio="xMaxYMin meet">
         <g id="arrow_out" transform="scale(0.3 0.3)">
          <a xlink:href="Level1_8cpp__incl_org.svg" target="_base">
           <rect id="button" ry="5" rx="5" y="6" x="6" height="38" width="38"
                fill="#f2f5e9" fill-opacity="0.5" stroke="#606060" stroke-width="1.0"/>
           <path id="arrow"
             d="M 11.500037,31.436501 C 11.940474,20.09759 22.043105,11.32322 32.158766,21.979434 L 37.068811,17.246167 C 37.068811,17.246167 37.088388,32 37.088388,32 L 22.160133,31.978069 C 22.160133,31.978069 26.997745,27.140456 26.997745,27.140456 C 18.528582,18.264221 13.291696,25.230495 11.500037,31.436501 z"
             style="fill:#404040;"/>
          </a>
         </g>
        </svg>
</svg>
