<?xml version="1.0" encoding="UTF-8" standalone="no"?>
<!DOCTYPE svg PUBLIC "-//W3C//DTD SVG 1.1//EN"
 "http://www.w3.org/Graphics/SVG/1.1/DTD/svg11.dtd">
<!-- Generated by graphviz version 2.44.0 ()
 -->
<!-- Title: src/Game/Levels/Level1.cpp Pages: 1 -->
<!--zoomable 285 -->
<svg id="main" version="1.1" xmlns="http://www.w3.org/2000/svg" xmlns:xlink="http://www.w3.org/1999/xlink" xml:space="preserve" onload="init(evt)">
<style type="text/css"><![CDATA[
.edge:hover path { stroke: red; }
.edge:hover polygon { stroke: red; fill: red; }
]]></style>
<script type="text/javascript"><![CDATA[
var edges = document.getElementsByTagName('g');
if (edges && edges.length) {
  for (var i=0;i<edges.length;i++) {
    if (edges[i].id.substr(0,4)=='edge') {
      edges[i].setAttribute('class','edge');
    }
  }
}
]]></script>
        <defs>
                <circle id="rim" cx="0" cy="0" r="7"/>
                <circle id="rim2" cx="0" cy="0" r="3.5"/>
                <g id="zoomPlus">
                        <use xlink:href="#rim" fill="#404040">
                                <set attributeName="fill" to="#808080" begin="zoomplus.mouseover" end="zoomplus.mouseout"/>
                        </use>
                        <path d="M-4,0h8M0,-4v8" fill="none" stroke="white" stroke-width="1.5" pointer-events="none"/>
                </g>
                <g id="zoomMin">
                        <use xlink:href="#rim" fill="#404040">
                                <set attributeName="fill" to="#808080" begin="zoomminus.mouseover" end="zoomminus.mouseout"/>
                        </use>
                        <path d="M-4,0h8" fill="none" stroke="white" stroke-width="1.5" pointer-events="none"/>
                </g>
                <g id="dirArrow">
                        <path fill="none" stroke="white" stroke-width="1.5" d="M0,-3.0v7 M-2.5,-0.5L0,-3.0L2.5,-0.5"/>
                </g>
               <g id="resetDef">
                       <use xlink:href="#rim2" fill="#404040">
                               <set attributeName="fill" to="#808080" begin="reset.mouseover" end="reset.mouseout"/>
                       </use>
               </g>
        </defs>

<script type="text/javascript">
var viewWidth = 1382;
var viewHeight = 285;
var sectionId = 'dynsection-0';
</script>
<script xlink:href="svgpan.js"/>
<svg id="graph" class="graph">
<g id="viewport">
<title>src/Game/Levels/Level1.cpp</title>
<!-- Node1 -->
<g id="node1" class="node">
<title>Node1</title>
<g id="a_node1"><a xlink:title=" ">
<polygon fill="#bfbfbf" stroke="black" points="564,-257.5 564,-276.5 706,-276.5 706,-257.5 564,-257.5"/>
<text text-anchor="middle" x="635" y="-264.5" font-family="Helvetica,sans-Serif" font-size="10.00">src/Game/Levels/Level1.cpp</text>
</a>
</g>
</g>
<!-- Node2 -->
<g id="node2" class="node">
<title>Node2</title>
<g id="a_node2"><a xlink:href="Level1_8hpp.html" target="_top" xlink:title=" ">
<polygon fill="none" stroke="black" points="157,-201.5 157,-220.5 221,-220.5 221,-201.5 157,-201.5"/>
<text text-anchor="middle" x="189" y="-208.5" font-family="Helvetica,sans-Serif" font-size="10.00">Level1.hpp</text>
</a>
</g>
</g>
<!-- Node1&#45;&gt;Node2 -->
<g id="edge1" class="edge">
<title>Node1&#45;&gt;Node2</title>
<path fill="none" stroke="midnightblue" d="M564.33,-257.44C470.61,-246.1 308.13,-226.42 231.43,-217.14"/>
<polygon fill="midnightblue" stroke="midnightblue" points="231.53,-213.62 221.19,-215.9 230.69,-220.57 231.53,-213.62"/>
</g>
<!-- Node4 -->
<g id="node4" class="node">
<title>Node4</title>
<g id="a_node4"><a xlink:title=" ">
<polygon fill="none" stroke="#bfbfbf" points="316.5,-201.5 316.5,-220.5 477.5,-220.5 477.5,-201.5 316.5,-201.5"/>
<text text-anchor="middle" x="397" y="-208.5" font-family="Helvetica,sans-Serif" font-size="10.00">Behaviour/CollisionBehaviour.hpp</text>
</a>
</g>
</g>
<!-- Node1&#45;&gt;Node4 -->
<g id="edge3" class="edge">
<title>Node1&#45;&gt;Node4</title>
<path fill="none" stroke="midnightblue" d="M597.29,-257.44C555.86,-248.04 489.24,-232.93 444.33,-222.74"/>
<polygon fill="midnightblue" stroke="midnightblue" points="445.06,-219.32 434.54,-220.52 443.51,-226.14 445.06,-219.32"/>
</g>
<!-- Node5 -->
<g id="node5" class="node">
<title>Node5</title>
<g id="a_node5"><a xlink:title=" ">
<polygon fill="none" stroke="#bfbfbf" points="80,-140 80,-159 240,-159 240,-140 80,-140"/>
<text text-anchor="middle" x="160" y="-147" font-family="Helvetica,sans-Serif" font-size="10.00">Director/GameObjectDirector.hpp</text>
</a>
</g>
</g>
<!-- Node1&#45;&gt;Node5 -->
<g id="edge4" class="edge">
<title>Node1&#45;&gt;Node5</title>
<path fill="none" stroke="midnightblue" d="M612.43,-257.42C590.02,-248.75 554.81,-234.71 525,-221 507.3,-212.86 504.54,-206.99 486,-201 384.61,-168.27 354.25,-181.57 249,-165 240.24,-163.62 230.99,-162.14 221.91,-160.67"/>
<polygon fill="midnightblue" stroke="midnightblue" points="222.18,-157.17 211.75,-159.03 221.06,-164.08 222.18,-157.17"/>
</g>
<!-- Node6 -->
<g id="node6" class="node">
<title>Node6</title>
<g id="a_node6"><a xlink:title=" ">
<polygon fill="none" stroke="#bfbfbf" points="784,-201.5 784,-220.5 880,-220.5 880,-201.5 784,-201.5"/>
<text text-anchor="middle" x="832" y="-208.5" font-family="Helvetica,sans-Serif" font-size="10.00">Engine/Engine.hpp</text>
</a>
</g>
</g>
<!-- Node1&#45;&gt;Node6 -->
<g id="edge5" class="edge">
<title>Node1&#45;&gt;Node6</title>
<path fill="none" stroke="midnightblue" d="M666.22,-257.44C699.93,-248.2 753.8,-233.44 790.93,-223.26"/>
<polygon fill="midnightblue" stroke="midnightblue" points="792.21,-226.54 800.93,-220.52 790.36,-219.78 792.21,-226.54"/>
</g>
<!-- Node7 -->
<g id="node7" class="node">
<title>Node7</title>
<g id="a_node7"><a xlink:href="TileConfig_8hpp.html" target="_top" xlink:title=" ">
<polygon fill="none" stroke="black" points="534.5,-201.5 534.5,-220.5 611.5,-220.5 611.5,-201.5 534.5,-201.5"/>
<text text-anchor="middle" x="573" y="-208.5" font-family="Helvetica,sans-Serif" font-size="10.00">TileConfig.hpp</text>
</a>
</g>
</g>
<!-- Node1&#45;&gt;Node7 -->
<g id="edge6" class="edge">
<title>Node1&#45;&gt;Node7</title>
<path fill="none" stroke="midnightblue" d="M625.04,-257.32C615.87,-249.34 602.06,-237.31 590.97,-227.65"/>
<polygon fill="midnightblue" stroke="midnightblue" points="592.98,-224.76 583.14,-220.83 588.38,-230.04 592.98,-224.76"/>
</g>
<!-- Node26 -->
<g id="node26" class="node">
<title>Node26</title>
<g id="a_node26"><a xlink:title=" ">
<polygon fill="none" stroke="#bfbfbf" points="898.5,-201.5 898.5,-220.5 999.5,-220.5 999.5,-201.5 898.5,-201.5"/>
<text text-anchor="middle" x="949" y="-208.5" font-family="Helvetica,sans-Serif" font-size="10.00">UI/FPSCounter.hpp</text>
</a>
</g>
</g>
<!-- Node1&#45;&gt;Node26 -->
<g id="edge32" class="edge">
<title>Node1&#45;&gt;Node26</title>
<path fill="none" stroke="midnightblue" d="M684.75,-257.44C740.33,-247.89 830.26,-232.42 889.52,-222.23"/>
<polygon fill="midnightblue" stroke="midnightblue" points="890.22,-225.66 899.48,-220.52 889.03,-218.76 890.22,-225.66"/>
</g>
<!-- Node27 -->
<g id="node27" class="node">
<title>Node27</title>
<g id="a_node27"><a xlink:title=" ">
<polygon fill="none" stroke="#bfbfbf" points="1018,-201.5 1018,-220.5 1108,-220.5 1108,-201.5 1018,-201.5"/>
<text text-anchor="middle" x="1063" y="-208.5" font-family="Helvetica,sans-Serif" font-size="10.00">AudioSource.hpp</text>
</a>
</g>
</g>
<!-- Node1&#45;&gt;Node27 -->
<g id="edge33" class="edge">
<title>Node1&#45;&gt;Node27</title>
<path fill="none" stroke="midnightblue" d="M706.13,-258.41C779.26,-250.39 896.68,-236.91 1007.89,-221.1"/>
<polygon fill="midnightblue" stroke="midnightblue" points="1008.54,-224.55 1017.94,-219.67 1007.55,-217.62 1008.54,-224.55"/>
</g>
<!-- Node28 -->
<g id="node28" class="node">
<title>Node28</title>
<g id="a_node28"><a xlink:href="MarioBehaviour_8hpp.html" target="_top" xlink:title=" ">
<polygon fill="none" stroke="black" points="630,-201.5 630,-220.5 766,-220.5 766,-201.5 630,-201.5"/>
<text text-anchor="middle" x="698" y="-208.5" font-family="Helvetica,sans-Serif" font-size="10.00">Scripts/MarioBehaviour.hpp</text>
</a>
</g>
</g>
<!-- Node1&#45;&gt;Node28 -->
<g id="edge34" class="edge">
<title>Node1&#45;&gt;Node28</title>
<path fill="none" stroke="midnightblue" d="M645.12,-257.32C654.53,-249.26 668.74,-237.08 680.07,-227.37"/>
<polygon fill="midnightblue" stroke="midnightblue" points="682.38,-230 687.69,-220.83 677.82,-224.68 682.38,-230"/>
</g>
<!-- Node3 -->
<g id="node3" class="node">
<title>Node3</title>
<g id="a_node3"><a xlink:title=" ">
<polygon fill="none" stroke="#bfbfbf" points="0,-140 0,-159 62,-159 62,-140 0,-140"/>
<text text-anchor="middle" x="31" y="-147" font-family="Helvetica,sans-Serif" font-size="10.00">Scene.hpp</text>
</a>
</g>
</g>
<!-- Node2&#45;&gt;Node3 -->
<g id="edge2" class="edge">
<title>Node2&#45;&gt;Node3</title>
<path fill="none" stroke="midnightblue" d="M166.36,-201.48C139.26,-191.27 93.69,-174.11 63,-162.55"/>
<polygon fill="midnightblue" stroke="midnightblue" points="64.19,-159.26 53.6,-159.01 61.72,-165.81 64.19,-159.26"/>
</g>
<!-- Node7&#45;&gt;Node5 -->
<g id="edge12" class="edge">
<title>Node7&#45;&gt;Node5</title>
<path fill="none" stroke="midnightblue" d="M534.24,-203.25C529.45,-202.47 524.61,-201.7 520,-201 399.86,-182.83 369.2,-182.77 249,-165 239.9,-163.65 230.29,-162.16 220.88,-160.66"/>
<polygon fill="midnightblue" stroke="midnightblue" points="221.22,-157.17 210.79,-159.04 220.11,-164.08 221.22,-157.17"/>
</g>
<!-- Node8 -->
<g id="node8" class="node">
<title>Node8</title>
<g id="a_node8"><a xlink:title=" ">
<polygon fill="none" stroke="#bfbfbf" points="258.5,-140 258.5,-159 317.5,-159 317.5,-140 258.5,-140"/>
<text text-anchor="middle" x="288" y="-147" font-family="Helvetica,sans-Serif" font-size="10.00">functional</text>
</a>
</g>
</g>
<!-- Node7&#45;&gt;Node8 -->
<g id="edge7" class="edge">
<title>Node7&#45;&gt;Node8</title>
<path fill="none" stroke="midnightblue" d="M534.41,-203.37C470.02,-192.25 345.76,-170.52 326,-165 323.35,-164.26 320.63,-163.41 317.91,-162.5"/>
<polygon fill="midnightblue" stroke="midnightblue" points="318.87,-159.12 308.28,-159.03 316.5,-165.71 318.87,-159.12"/>
</g>
<!-- Node9 -->
<g id="node9" class="node">
<title>Node9</title>
<g id="a_node9"><a xlink:title=" ">
<polygon fill="none" stroke="#bfbfbf" points="335.5,-140 335.5,-159 370.5,-159 370.5,-140 335.5,-140"/>
<text text-anchor="middle" x="353" y="-147" font-family="Helvetica,sans-Serif" font-size="10.00">map</text>
</a>
</g>
</g>
<!-- Node7&#45;&gt;Node9 -->
<g id="edge8" class="edge">
<title>Node7&#45;&gt;Node9</title>
<path fill="none" stroke="midnightblue" d="M534.22,-202.97C495.78,-195.47 435.48,-182.3 385,-165 383.33,-164.43 381.64,-163.8 379.94,-163.14"/>
<polygon fill="midnightblue" stroke="midnightblue" points="380.94,-159.76 370.36,-159.09 378.21,-166.21 380.94,-159.76"/>
</g>
<!-- Node10 -->
<g id="node10" class="node">
<title>Node10</title>
<g id="a_node10"><a xlink:title=" ">
<polygon fill="none" stroke="#bfbfbf" points="117.5,-6 117.5,-25 168.5,-25 168.5,-6 117.5,-6"/>
<text text-anchor="middle" x="143" y="-13" font-family="Helvetica,sans-Serif" font-size="10.00">memory</text>
</a>
</g>
</g>
<!-- Node7&#45;&gt;Node10 -->
<g id="edge9" class="edge">
<title>Node7&#45;&gt;Node10</title>
<path fill="none" stroke="midnightblue" d="M534.49,-203.17C502.14,-196.43 455.34,-184.3 418,-165 398.33,-154.83 397.68,-145.89 379,-134 341.47,-110.11 224.85,-54.75 170.9,-29.49"/>
<polygon fill="midnightblue" stroke="midnightblue" points="172.13,-26.2 161.59,-25.13 169.16,-32.54 172.13,-26.2"/>
</g>
<!-- Node11 -->
<g id="node11" class="node">
<title>Node11</title>
<g id="a_node11"><a xlink:title=" ">
<polygon fill="none" stroke="#bfbfbf" points="577,-140 577,-159 729,-159 729,-140 577,-140"/>
<text text-anchor="middle" x="653" y="-147" font-family="Helvetica,sans-Serif" font-size="10.00">Builder/GameObjectBuilder.hpp</text>
</a>
</g>
</g>
<!-- Node7&#45;&gt;Node11 -->
<g id="edge10" class="edge">
<title>Node7&#45;&gt;Node11</title>
<path fill="none" stroke="midnightblue" d="M584.46,-201.48C597.17,-192.02 617.91,-176.6 633.25,-165.19"/>
<polygon fill="midnightblue" stroke="midnightblue" points="635.62,-167.79 641.56,-159.01 631.45,-162.17 635.62,-167.79"/>
</g>
<!-- Node12 -->
<g id="node12" class="node">
<title>Node12</title>
<g id="a_node12"><a xlink:title=" ">
<polygon fill="none" stroke="#bfbfbf" points="747.5,-140 747.5,-159 872.5,-159 872.5,-140 747.5,-140"/>
<text text-anchor="middle" x="810" y="-147" font-family="Helvetica,sans-Serif" font-size="10.00">Builder/SceneBuilder.hpp</text>
</a>
</g>
</g>
<!-- Node7&#45;&gt;Node12 -->
<g id="edge11" class="edge">
<title>Node7&#45;&gt;Node12</title>
<path fill="none" stroke="midnightblue" d="M606.96,-201.48C648.84,-190.96 720.13,-173.06 766.13,-161.51"/>
<polygon fill="midnightblue" stroke="midnightblue" points="767.26,-164.84 776.11,-159.01 765.56,-158.05 767.26,-164.84"/>
</g>
<!-- Node13 -->
<g id="node13" class="node">
<title>Node13</title>
<g id="a_node13"><a xlink:href="CoinBehaviour_8hpp.html" target="_top" xlink:title=" ">
<polygon fill="none" stroke="black" points="427.5,-140 427.5,-159 558.5,-159 558.5,-140 427.5,-140"/>
<text text-anchor="middle" x="493" y="-147" font-family="Helvetica,sans-Serif" font-size="10.00">Scripts/CoinBehaviour.hpp</text>
</a>
</g>
</g>
<!-- Node7&#45;&gt;Node13 -->
<g id="edge13" class="edge">
<title>Node7&#45;&gt;Node13</title>
<path fill="none" stroke="midnightblue" d="M561.54,-201.48C548.83,-192.02 528.09,-176.6 512.75,-165.19"/>
<polygon fill="midnightblue" stroke="midnightblue" points="514.55,-162.17 504.44,-159.01 510.38,-167.79 514.55,-162.17"/>
</g>
<!-- Node24 -->
<g id="node24" class="node">
<title>Node24</title>
<g id="a_node24"><a xlink:href="FlagBehaviour_8hpp.html" target="_top" xlink:title=" ">
<polygon fill="none" stroke="black" points="890.5,-140 890.5,-159 1021.5,-159 1021.5,-140 890.5,-140"/>
<text text-anchor="middle" x="956" y="-147" font-family="Helvetica,sans-Serif" font-size="10.00">Scripts/FlagBehaviour.hpp</text>
</a>
</g>
</g>
<!-- Node7&#45;&gt;Node24 -->
<g id="edge28" class="edge">
<title>Node7&#45;&gt;Node24</title>
<path fill="none" stroke="midnightblue" d="M611.74,-202.57C614.87,-202.02 617.99,-201.49 621,-201 736.14,-182.25 765.91,-184.08 881,-165 888.46,-163.76 896.32,-162.36 904.02,-160.92"/>
<polygon fill="midnightblue" stroke="midnightblue" points="904.85,-164.33 914.02,-159.03 903.55,-157.45 904.85,-164.33"/>
</g>
<!-- Node25 -->
<g id="node25" class="node">
<title>Node25</title>
<g id="a_node25"><a xlink:href="StarBehaviour_8hpp.html" target="_top" xlink:title=" ">
<polygon fill="none" stroke="black" points="1040,-140 1040,-159 1170,-159 1170,-140 1040,-140"/>
<text text-anchor="middle" x="1105" y="-147" font-family="Helvetica,sans-Serif" font-size="10.00">Scripts/StarBehaviour.hpp</text>
</a>
</g>
</g>
<!-- Node7&#45;&gt;Node25 -->
<g id="edge30" class="edge">
<title>Node7&#45;&gt;Node25</title>
<path fill="none" stroke="midnightblue" d="M611.72,-202.4C614.85,-201.89 617.98,-201.42 621,-201 802.22,-176.11 849.88,-190.62 1031,-165 1039.02,-163.87 1047.48,-162.43 1055.71,-160.91"/>
<polygon fill="midnightblue" stroke="midnightblue" points="1056.41,-164.34 1065.57,-159.03 1055.1,-157.47 1056.41,-164.34"/>
</g>
<!-- Node14 -->
<g id="node14" class="node">
<title>Node14</title>
<g id="a_node14"><a xlink:title=" ">
<polygon fill="none" stroke="#bfbfbf" points="904,-73 904,-92 1008,-92 1008,-73 904,-73"/>
<text text-anchor="middle" x="956" y="-80" font-family="Helvetica,sans-Serif" font-size="10.00">BehaviourScript.hpp</text>
</a>
</g>
</g>
<!-- Node13&#45;&gt;Node14 -->
<g id="edge14" class="edge">
<title>Node13&#45;&gt;Node14</title>
<path fill="none" stroke="midnightblue" d="M534.16,-139.96C545.13,-137.84 556.99,-135.7 568,-134 705.96,-112.74 742.02,-119.09 880,-98 887.84,-96.8 896.11,-95.38 904.19,-93.91"/>
<polygon fill="midnightblue" stroke="midnightblue" points="905.09,-97.3 914.28,-92.03 903.81,-90.42 905.09,-97.3"/>
</g>
<!-- Node15 -->
<g id="node15" class="node">
<title>Node15</title>
<g id="a_node15"><a xlink:href="CoinCounter_8hpp.html" target="_top" xlink:title=" ">
<polygon fill="none" stroke="black" points="444.5,-73 444.5,-92 553.5,-92 553.5,-73 444.5,-73"/>
<text text-anchor="middle" x="499" y="-80" font-family="Helvetica,sans-Serif" font-size="10.00">../UI/CoinCounter.hpp</text>
</a>
</g>
</g>
<!-- Node13&#45;&gt;Node15 -->
<g id="edge15" class="edge">
<title>Node13&#45;&gt;Node15</title>
<path fill="none" stroke="midnightblue" d="M493.81,-139.73C494.69,-130.18 496.13,-114.62 497.27,-102.28"/>
<polygon fill="midnightblue" stroke="midnightblue" points="500.77,-102.41 498.2,-92.13 493.8,-101.76 500.77,-102.41"/>
</g>
<!-- Node16 -->
<g id="node16" class="node">
<title>Node16</title>
<g id="a_node16"><a xlink:title=" ">
<polygon fill="none" stroke="#bfbfbf" points="695.5,-0.5 695.5,-30.5 790.5,-30.5 790.5,-0.5 695.5,-0.5"/>
<text text-anchor="start" x="703.5" y="-18.5" font-family="Helvetica,sans-Serif" font-size="10.00">boost/serialization</text>
<text text-anchor="middle" x="743" y="-7.5" font-family="Helvetica,sans-Serif" font-size="10.00">/access.hpp</text>
</a>
</g>
</g>
<!-- Node13&#45;&gt;Node16 -->
<g id="edge25" class="edge">
<title>Node13&#45;&gt;Node16</title>
<path fill="none" stroke="midnightblue" d="M509.4,-139.84C549.35,-118.75 652.41,-64.33 707.32,-35.34"/>
<polygon fill="midnightblue" stroke="midnightblue" points="709.14,-38.34 716.35,-30.57 705.87,-32.15 709.14,-38.34"/>
</g>
<!-- Node17 -->
<g id="node17" class="node">
<title>Node17</title>
<g id="a_node17"><a xlink:title=" ">
<polygon fill="none" stroke="#bfbfbf" points="921.5,-0.5 921.5,-30.5 1016.5,-30.5 1016.5,-0.5 921.5,-0.5"/>
<text text-anchor="start" x="929.5" y="-18.5" font-family="Helvetica,sans-Serif" font-size="10.00">boost/serialization</text>
<text text-anchor="middle" x="969" y="-7.5" font-family="Helvetica,sans-Serif" font-size="10.00">/export.hpp</text>
</a>
</g>
</g>
<!-- Node13&#45;&gt;Node17 -->
<g id="edge26" class="edge">
<title>Node13&#45;&gt;Node17</title>
<path fill="none" stroke="midnightblue" d="M527.07,-139.93C565.87,-130.09 631.12,-113.34 687,-98 765.12,-76.55 854.95,-50.32 911.83,-33.51"/>
<polygon fill="midnightblue" stroke="midnightblue" points="913.11,-36.78 921.71,-30.59 911.13,-30.07 913.11,-36.78"/>
</g>
<!-- Node18 -->
<g id="node18" class="node">
<title>Node18</title>
<g id="a_node18"><a xlink:title=" ">
<polygon fill="none" stroke="#bfbfbf" points="808.5,-0.5 808.5,-30.5 903.5,-30.5 903.5,-0.5 808.5,-0.5"/>
<text text-anchor="start" x="816.5" y="-18.5" font-family="Helvetica,sans-Serif" font-size="10.00">boost/serialization</text>
<text text-anchor="middle" x="856" y="-7.5" font-family="Helvetica,sans-Serif" font-size="10.00">/shared_ptr.hpp</text>
</a>
</g>
</g>
<!-- Node13&#45;&gt;Node18 -->
<g id="edge27" class="edge">
<title>Node13&#45;&gt;Node18</title>
<path fill="none" stroke="midnightblue" d="M516.61,-139.93C544.27,-129.88 591.46,-112.74 632,-98 692.51,-76 762.21,-50.64 807.57,-34.13"/>
<polygon fill="midnightblue" stroke="midnightblue" points="808.95,-37.35 817.15,-30.64 806.56,-30.77 808.95,-37.35"/>
</g>
<!-- Node15&#45;&gt;Node10 -->
<g id="edge16" class="edge">
<title>Node15&#45;&gt;Node10</title>
<path fill="none" stroke="midnightblue" d="M449,-72.93C437.2,-70.95 424.66,-68.87 413,-67 308.24,-50.18 279.05,-60.04 177,-31 174.71,-30.35 172.37,-29.58 170.04,-28.74"/>
<polygon fill="midnightblue" stroke="midnightblue" points="171.28,-25.47 160.69,-25.04 168.7,-31.98 171.28,-25.47"/>
</g>
<!-- Node15&#45;&gt;Node16 -->
<g id="edge17" class="edge">
<title>Node15&#45;&gt;Node16</title>
<path fill="none" stroke="midnightblue" d="M531.15,-72.94C570.38,-62.49 637.41,-44.63 685.57,-31.8"/>
<polygon fill="midnightblue" stroke="midnightblue" points="686.48,-35.18 695.25,-29.22 684.68,-28.41 686.48,-35.18"/>
</g>
<!-- Node15&#45;&gt;Node17 -->
<g id="edge18" class="edge">
<title>Node15&#45;&gt;Node17</title>
<path fill="none" stroke="midnightblue" d="M553.6,-77.15C631.2,-70.47 777.92,-55.94 911.44,-31.15"/>
<polygon fill="midnightblue" stroke="midnightblue" points="912.26,-34.56 921.44,-29.27 910.96,-27.68 912.26,-34.56"/>
</g>
<!-- Node15&#45;&gt;Node18 -->
<g id="edge19" class="edge">
<title>Node15&#45;&gt;Node18</title>
<path fill="none" stroke="midnightblue" d="M553.72,-73.67C611.93,-65.04 706.89,-50.06 798.49,-31"/>
<polygon fill="midnightblue" stroke="midnightblue" points="799.42,-34.38 808.48,-28.9 797.98,-27.53 799.42,-34.38"/>
</g>
<!-- Node19 -->
<g id="node19" class="node">
<title>Node19</title>
<g id="a_node19"><a xlink:title=" ">
<polygon fill="none" stroke="#bfbfbf" points="451,-0.5 451,-30.5 555,-30.5 555,-0.5 451,-0.5"/>
<text text-anchor="start" x="459" y="-18.5" font-family="Helvetica,sans-Serif" font-size="10.00">boost/archive/binary</text>
<text text-anchor="middle" x="503" y="-7.5" font-family="Helvetica,sans-Serif" font-size="10.00">_iarchive.hpp</text>
</a>
</g>
</g>
<!-- Node15&#45;&gt;Node19 -->
<g id="edge20" class="edge">
<title>Node15&#45;&gt;Node19</title>
<path fill="none" stroke="midnightblue" d="M499.54,-72.73C500.04,-64.54 500.82,-51.92 501.51,-40.71"/>
<polygon fill="midnightblue" stroke="midnightblue" points="505.01,-40.79 502.13,-30.59 498.03,-40.36 505.01,-40.79"/>
</g>
<!-- Node20 -->
<g id="node20" class="node">
<title>Node20</title>
<g id="a_node20"><a xlink:title=" ">
<polygon fill="none" stroke="#bfbfbf" points="573,-0.5 573,-30.5 677,-30.5 677,-0.5 573,-0.5"/>
<text text-anchor="start" x="581" y="-18.5" font-family="Helvetica,sans-Serif" font-size="10.00">boost/archive/binary</text>
<text text-anchor="middle" x="625" y="-7.5" font-family="Helvetica,sans-Serif" font-size="10.00">_oarchive.hpp</text>
</a>
</g>
</g>
<!-- Node15&#45;&gt;Node20 -->
<g id="edge21" class="edge">
<title>Node15&#45;&gt;Node20</title>
<path fill="none" stroke="midnightblue" d="M515.73,-72.87C534.17,-63.36 564.39,-47.77 588.38,-35.39"/>
<polygon fill="midnightblue" stroke="midnightblue" points="590.29,-38.35 597.57,-30.65 587.08,-32.13 590.29,-38.35"/>
</g>
<!-- Node21 -->
<g id="node21" class="node">
<title>Node21</title>
<g id="a_node21"><a xlink:title=" ">
<polygon fill="none" stroke="#bfbfbf" points="186.5,-6 186.5,-25 243.5,-25 243.5,-6 186.5,-6"/>
<text text-anchor="middle" x="215" y="-13" font-family="Helvetica,sans-Serif" font-size="10.00">Color.hpp</text>
</a>
</g>
</g>
<!-- Node15&#45;&gt;Node21 -->
<g id="edge22" class="edge">
<title>Node15&#45;&gt;Node21</title>
<path fill="none" stroke="midnightblue" d="M452.53,-72.99C391.83,-61.7 288.93,-41.92 252,-31 249.57,-30.28 247.07,-29.47 244.58,-28.61"/>
<polygon fill="midnightblue" stroke="midnightblue" points="245.73,-25.3 235.14,-25.11 243.3,-31.87 245.73,-25.3"/>
</g>
<!-- Node22 -->
<g id="node22" class="node">
<title>Node22</title>
<g id="a_node22"><a xlink:title=" ">
<polygon fill="none" stroke="#bfbfbf" points="261.5,-6 261.5,-25 340.5,-25 340.5,-6 261.5,-6"/>
<text text-anchor="middle" x="301" y="-13" font-family="Helvetica,sans-Serif" font-size="10.00">Transform.hpp</text>
</a>
</g>
</g>
<!-- Node15&#45;&gt;Node22 -->
<g id="edge23" class="edge">
<title>Node15&#45;&gt;Node22</title>
<path fill="none" stroke="midnightblue" d="M472.71,-72.87C437.77,-61.4 375.92,-41.09 336.76,-28.24"/>
<polygon fill="midnightblue" stroke="midnightblue" points="337.68,-24.86 327.09,-25.06 335.5,-31.51 337.68,-24.86"/>
</g>
<!-- Node23 -->
<g id="node23" class="node">
<title>Node23</title>
<g id="a_node23"><a xlink:title=" ">
<polygon fill="none" stroke="#bfbfbf" points="359,-6 359,-25 433,-25 433,-6 359,-6"/>
<text text-anchor="middle" x="396" y="-13" font-family="Helvetica,sans-Serif" font-size="10.00">UIObject.hpp</text>
</a>
</g>
</g>
<!-- Node15&#45;&gt;Node23 -->
<g id="edge24" class="edge">
<title>Node15&#45;&gt;Node23</title>
<path fill="none" stroke="midnightblue" d="M485.11,-72.73C467.97,-61.92 438.6,-43.38 418.29,-30.57"/>
<polygon fill="midnightblue" stroke="midnightblue" points="420,-27.5 409.67,-25.13 416.26,-33.42 420,-27.5"/>
</g>
<!-- Node24&#45;&gt;Node14 -->
<g id="edge29" class="edge">
<title>Node24&#45;&gt;Node14</title>
<path fill="none" stroke="midnightblue" d="M956,-139.73C956,-130.18 956,-114.62 956,-102.28"/>
<polygon fill="midnightblue" stroke="midnightblue" points="959.5,-102.13 956,-92.13 952.5,-102.13 959.5,-102.13"/>
</g>
<!-- Node25&#45;&gt;Node14 -->
<g id="edge31" class="edge">
<title>Node25&#45;&gt;Node14</title>
<path fill="none" stroke="midnightblue" d="M1085.21,-139.87C1059.61,-128.7 1014.79,-109.15 985.25,-96.26"/>
<polygon fill="midnightblue" stroke="midnightblue" points="986.43,-92.96 975.87,-92.17 983.63,-99.37 986.43,-92.96"/>
</g>
<!-- Node28&#45;&gt;Node14 -->
<g id="edge35" class="edge">
<title>Node28&#45;&gt;Node14</title>
<path fill="none" stroke="midnightblue" d="M766.01,-201.95C769.05,-201.62 772.05,-201.3 775,-201 819.83,-196.38 1148.58,-198.25 1179,-165 1265.91,-70 1252.4,-151.61 1018,-98 1012.94,-96.84 1007.66,-95.62 1002.4,-94.4"/>
<polygon fill="midnightblue" stroke="midnightblue" points="1002.91,-90.93 992.38,-92.07 1001.32,-97.75 1002.91,-90.93"/>
</g>
<!-- Node29 -->
<g id="node29" class="node">
<title>Node29</title>
<g id="a_node29"><a xlink:href="MarioState_8hpp.html" target="_top" xlink:title=" ">
<polygon fill="none" stroke="black" points="1026.5,-67.5 1026.5,-97.5 1129.5,-97.5 1129.5,-67.5 1026.5,-67.5"/>
<text text-anchor="start" x="1034.5" y="-85.5" font-family="Helvetica,sans-Serif" font-size="10.00">Scripts/MarioStates</text>
<text text-anchor="middle" x="1078" y="-74.5" font-family="Helvetica,sans-Serif" font-size="10.00">/MarioState.hpp</text>
</a>
</g>
</g>
<!-- Node28&#45;&gt;Node29 -->
<g id="edge36" class="edge">
<title>Node28&#45;&gt;Node29</title>
<path fill="none" stroke="midnightblue" d="M766.01,-201.93C769.05,-201.61 772.05,-201.29 775,-201 823.04,-196.2 1175.31,-200.52 1208,-165 1235.28,-135.36 1184.95,-112.29 1139.2,-98.38"/>
<polygon fill="midnightblue" stroke="midnightblue" points="1140.11,-95 1129.53,-95.55 1138.14,-101.72 1140.11,-95"/>
</g>
<!-- Node32 -->
<g id="node32" class="node">
<title>Node32</title>
<g id="a_node32"><a xlink:href="SmallMarioState_8hpp.html" target="_top" xlink:title=" ">
<polygon fill="none" stroke="black" points="1264,-134.5 1264,-164.5 1374,-164.5 1374,-134.5 1264,-134.5"/>
<text text-anchor="start" x="1272" y="-152.5" font-family="Helvetica,sans-Serif" font-size="10.00">Scripts/MarioStates</text>
<text text-anchor="middle" x="1319" y="-141.5" font-family="Helvetica,sans-Serif" font-size="10.00">/SmallMarioState.hpp</text>
</a>
</g>
</g>
<!-- Node28&#45;&gt;Node32 -->
<g id="edge42" class="edge">
<title>Node28&#45;&gt;Node32</title>
<path fill="none" stroke="midnightblue" d="M766,-201.9C769.04,-201.59 772.05,-201.28 775,-201 985.74,-180.71 1040.4,-194.83 1250,-165 1251.26,-164.82 1252.53,-164.63 1253.81,-164.43"/>
<polygon fill="midnightblue" stroke="midnightblue" points="1254.46,-167.87 1263.75,-162.78 1253.31,-160.97 1254.46,-167.87"/>
</g>
<!-- Node29&#45;&gt;Node16 -->
<g id="edge37" class="edge">
<title>Node29&#45;&gt;Node16</title>
<path fill="none" stroke="midnightblue" d="M1026.47,-68.98C1023.27,-68.29 1020.09,-67.62 1017,-67 923.83,-48.26 896.8,-51.11 800.45,-31.2"/>
<polygon fill="midnightblue" stroke="midnightblue" points="801.1,-27.76 790.59,-29.13 799.66,-34.61 801.1,-27.76"/>
</g>
<!-- Node29&#45;&gt;Node17 -->
<g id="edge38" class="edge">
<title>Node29&#45;&gt;Node17</title>
<path fill="none" stroke="midnightblue" d="M1054.35,-67.4C1038.92,-58.2 1018.58,-46.07 1001.62,-35.95"/>
<polygon fill="midnightblue" stroke="midnightblue" points="1002.99,-32.69 992.61,-30.58 999.4,-38.7 1002.99,-32.69"/>
</g>
<!-- Node29&#45;&gt;Node18 -->
<g id="edge39" class="edge">
<title>Node29&#45;&gt;Node18</title>
<path fill="none" stroke="midnightblue" d="M1030.1,-67.48C995.96,-57.48 949.9,-43.99 913.73,-33.4"/>
<polygon fill="midnightblue" stroke="midnightblue" points="914.39,-29.95 903.81,-30.5 912.43,-36.67 914.39,-29.95"/>
</g>
<!-- Node30 -->
<g id="node30" class="node">
<title>Node30</title>
<g id="a_node30"><a xlink:title=" ">
<polygon fill="none" stroke="#bfbfbf" points="1121.5,-6 1121.5,-25 1258.5,-25 1258.5,-6 1121.5,-6"/>
<text text-anchor="middle" x="1190" y="-13" font-family="Helvetica,sans-Serif" font-size="10.00">Texture/AnimatedSprite.hpp</text>
</a>
</g>
</g>
<!-- Node29&#45;&gt;Node30 -->
<g id="edge40" class="edge">
<title>Node29&#45;&gt;Node30</title>
<path fill="none" stroke="midnightblue" d="M1102.3,-67.4C1121.35,-56.34 1147.68,-41.06 1166.51,-30.13"/>
<polygon fill="midnightblue" stroke="midnightblue" points="1168.45,-33.05 1175.34,-25.01 1164.94,-27 1168.45,-33.05"/>
</g>
<!-- Node31 -->
<g id="node31" class="node">
<title>Node31</title>
<g id="a_node31"><a xlink:title=" ">
<polygon fill="none" stroke="#bfbfbf" points="1046.5,-6 1046.5,-25 1103.5,-25 1103.5,-6 1046.5,-6"/>
<text text-anchor="middle" x="1075" y="-13" font-family="Helvetica,sans-Serif" font-size="10.00">Point.hpp</text>
</a>
</g>
</g>
<!-- Node29&#45;&gt;Node31 -->
<g id="edge41" class="edge">
<title>Node29&#45;&gt;Node31</title>
<path fill="none" stroke="midnightblue" d="M1077.35,-67.4C1076.91,-57.96 1076.34,-45.45 1075.86,-35.19"/>
<polygon fill="midnightblue" stroke="midnightblue" points="1079.36,-35.02 1075.4,-25.19 1072.37,-35.35 1079.36,-35.02"/>
</g>
<!-- Node32&#45;&gt;Node29 -->
<g id="edge43" class="edge">
<title>Node32&#45;&gt;Node29</title>
<path fill="none" stroke="midnightblue" d="M1267,-134.48C1229.63,-124.4 1179.08,-110.76 1139.67,-100.13"/>
<polygon fill="midnightblue" stroke="midnightblue" points="1140.47,-96.72 1129.9,-97.5 1138.65,-103.48 1140.47,-96.72"/>
</g>
</g>
</svg>
        <g id="navigator" transform="translate(0 0)" fill="#404254">
                <rect fill="#f2f5e9" fill-opacity="0.5" stroke="#606060" stroke-width=".5" x="0" y="0" width="60" height="60"/>
                <use id="zoomplus" xlink:href="#zoomPlus" x="17" y="9" onmousedown="handleZoom(evt,'in')"/>
                <use id="zoomminus" xlink:href="#zoomMin" x="42" y="9" onmousedown="handleZoom(evt,'out')"/>
                <use id="reset" xlink:href="#resetDef" x="30" y="36" onmousedown="handleReset()"/>
                <g id="arrowUp" xlink:href="#dirArrow" transform="translate(30 24)" onmousedown="handlePan(0,-1)">
                  <use xlink:href="#rim" fill="#404040">
                        <set attributeName="fill" to="#808080" begin="arrowUp.mouseover" end="arrowUp.mouseout"/>
                  </use>
                  <path fill="none" stroke="white" stroke-width="1.5" d="M0,-3.0v7 M-2.5,-0.5L0,-3.0L2.5,-0.5"/>
                </g>
                <g id="arrowRight" xlink:href="#dirArrow" transform="rotate(90) translate(36 -43)" onmousedown="handlePan(1,0)">
                  <use xlink:href="#rim" fill="#404040">
                        <set attributeName="fill" to="#808080" begin="arrowRight.mouseover" end="arrowRight.mouseout"/>
                  </use>
                  <path fill="none" stroke="white" stroke-width="1.5" d="M0,-3.0v7 M-2.5,-0.5L0,-3.0L2.5,-0.5"/>
                </g>
                <g id="arrowDown" xlink:href="#dirArrow" transform="rotate(180) translate(-30 -48)" onmousedown="handlePan(0,1)">
                  <use xlink:href="#rim" fill="#404040">
                        <set attributeName="fill" to="#808080" begin="arrowDown.mouseover" end="arrowDown.mouseout"/>
                  </use>
                  <path fill="none" stroke="white" stroke-width="1.5" d="M0,-3.0v7 M-2.5,-0.5L0,-3.0L2.5,-0.5"/>
                </g>
                <g id="arrowLeft" xlink:href="#dirArrow" transform="rotate(270) translate(-36 17)" onmousedown="handlePan(-1,0)">
                  <use xlink:href="#rim" fill="#404040">
                        <set attributeName="fill" to="#808080" begin="arrowLeft.mouseover" end="arrowLeft.mouseout"/>
                  </use>
                  <path fill="none" stroke="white" stroke-width="1.5" d="M0,-3.0v7 M-2.5,-0.5L0,-3.0L2.5,-0.5"/>
                </g>
        </g>
        <svg viewBox="0 0 15 15" width="100%" height="30px" preserveAspectRatio="xMaxYMin meet">
         <g id="arrow_out" transform="scale(0.3 0.3)">
          <a xlink:href="Level1_8cpp__incl_org.svg" target="_base">
           <rect id="button" ry="5" rx="5" y="6" x="6" height="38" width="38"
                fill="#f2f5e9" fill-opacity="0.5" stroke="#606060" stroke-width="1.0"/>
           <path id="arrow"
             d="M 11.500037,31.436501 C 11.940474,20.09759 22.043105,11.32322 32.158766,21.979434 L 37.068811,17.246167 C 37.068811,17.246167 37.088388,32 37.088388,32 L 22.160133,31.978069 C 22.160133,31.978069 26.997745,27.140456 26.997745,27.140456 C 18.528582,18.264221 13.291696,25.230495 11.500037,31.436501 z"
             style="fill:#404040;"/>
          </a>
         </g>
        </svg>
</svg>
