<?xml version="1.0" encoding="UTF-8" standalone="no"?>
<!DOCTYPE svg PUBLIC "-//W3C//DTD SVG 1.1//EN"
 "http://www.w3.org/Graphics/SVG/1.1/DTD/svg11.dtd">
<!-- Generated by graphviz version 2.44.0 ()
 -->
<!-- Title: src/Game/Levels/Level2.hpp Pages: 1 -->
<!--zoomable 341 -->
<svg id="main" version="1.1" xmlns="http://www.w3.org/2000/svg" xmlns:xlink="http://www.w3.org/1999/xlink" xml:space="preserve" onload="init(evt)">
<style type="text/css"><![CDATA[
.edge:hover path { stroke: red; }
.edge:hover polygon { stroke: red; fill: red; }
]]></style>
<script type="text/javascript"><![CDATA[
var edges = document.getElementsByTagName('g');
if (edges && edges.length) {
  for (var i=0;i<edges.length;i++) {
    if (edges[i].id.substr(0,4)=='edge') {
      edges[i].setAttribute('class','edge');
    }
  }
}
]]></script>
        <defs>
                <circle id="rim" cx="0" cy="0" r="7"/>
                <circle id="rim2" cx="0" cy="0" r="3.5"/>
                <g id="zoomPlus">
                        <use xlink:href="#rim" fill="#404040">
                                <set attributeName="fill" to="#808080" begin="zoomplus.mouseover" end="zoomplus.mouseout"/>
                        </use>
                        <path d="M-4,0h8M0,-4v8" fill="none" stroke="white" stroke-width="1.5" pointer-events="none"/>
                </g>
                <g id="zoomMin">
                        <use xlink:href="#rim" fill="#404040">
                                <set attributeName="fill" to="#808080" begin="zoomminus.mouseover" end="zoomminus.mouseout"/>
                        </use>
                        <path d="M-4,0h8" fill="none" stroke="white" stroke-width="1.5" pointer-events="none"/>
                </g>
                <g id="dirArrow">
                        <path fill="none" stroke="white" stroke-width="1.5" d="M0,-3.0v7 M-2.5,-0.5L0,-3.0L2.5,-0.5"/>
                </g>
               <g id="resetDef">
                       <use xlink:href="#rim2" fill="#404040">
                               <set attributeName="fill" to="#808080" begin="reset.mouseover" end="reset.mouseout"/>
                       </use>
               </g>
        </defs>

<script type="text/javascript">
var viewWidth = 1547;
var viewHeight = 341;
var sectionId = 'dynsection-0';
</script>
<script xlink:href="svgpan.js"/>
<svg id="graph" class="graph">
<g id="viewport">
<title>src/Game/Levels/Level2.hpp</title>
<!-- Node1 -->
<g id="node1" class="node">
<title>Node1</title>
<g id="a_node1"><a xlink:title=" ">
<polygon fill="#bfbfbf" stroke="black" points="747,-313.5 747,-332.5 889,-332.5 889,-313.5 747,-313.5"/>
<text text-anchor="middle" x="818" y="-320.5" font-family="Helvetica,sans-Serif" font-size="10.00">src/Game/Levels/Level2.hpp</text>
</a>
</g>
</g>
<!-- Node2 -->
<g id="node2" class="node">
<title>Node2</title>
<g id="a_node2"><a xlink:title=" ">
<polygon fill="none" stroke="#bfbfbf" points="0,-201.5 0,-220.5 62,-220.5 62,-201.5 0,-201.5"/>
<text text-anchor="middle" x="31" y="-208.5" font-family="Helvetica,sans-Serif" font-size="10.00">Scene.hpp</text>
</a>
</g>
</g>
<!-- Node1&#45;&gt;Node2 -->
<g id="edge1" class="edge">
<title>Node1&#45;&gt;Node2</title>
<path fill="none" stroke="midnightblue" d="M746.87,-314.47C615.44,-300.1 325.59,-266.27 72.51,-221.15"/>
<polygon fill="midnightblue" stroke="midnightblue" points="72.85,-217.65 62.39,-219.33 71.62,-224.54 72.85,-217.65"/>
</g>
<!-- Node3 -->
<g id="node3" class="node">
<title>Node3</title>
<g id="a_node3"><a xlink:href="Level_8hpp.html" target="_top" xlink:title=" ">
<polygon fill="none" stroke="black" points="528.5,-257.5 528.5,-276.5 587.5,-276.5 587.5,-257.5 528.5,-257.5"/>
<text text-anchor="middle" x="558" y="-264.5" font-family="Helvetica,sans-Serif" font-size="10.00">Level.hpp</text>
</a>
</g>
</g>
<!-- Node1&#45;&gt;Node3 -->
<g id="edge2" class="edge">
<title>Node1&#45;&gt;Node3</title>
<path fill="none" stroke="midnightblue" d="M776.8,-313.44C727.61,-303.23 645.91,-286.26 597.49,-276.2"/>
<polygon fill="midnightblue" stroke="midnightblue" points="598.19,-272.77 587.68,-274.16 596.76,-279.63 598.19,-272.77"/>
</g>
<!-- Node20 -->
<g id="node20" class="node">
<title>Node20</title>
<g id="a_node20"><a xlink:href="CoinCounter_8hpp.html" target="_top" xlink:title=" ">
<polygon fill="none" stroke="black" points="1035.5,-73 1035.5,-92 1136.5,-92 1136.5,-73 1035.5,-73"/>
<text text-anchor="middle" x="1086" y="-80" font-family="Helvetica,sans-Serif" font-size="10.00">UI/CoinCounter.hpp</text>
</a>
</g>
</g>
<!-- Node1&#45;&gt;Node20 -->
<g id="edge21" class="edge">
<title>Node1&#45;&gt;Node20</title>
<path fill="none" stroke="midnightblue" d="M877.33,-313.5C933.14,-302.26 1014.71,-276.88 1060,-221 1087.97,-186.5 1089.25,-131.15 1087.7,-102.33"/>
<polygon fill="midnightblue" stroke="midnightblue" points="1091.17,-101.77 1086.96,-92.05 1084.18,-102.27 1091.17,-101.77"/>
</g>
<!-- Node27 -->
<g id="node27" class="node">
<title>Node27</title>
<g id="a_node27"><a xlink:title=" ">
<polygon fill="none" stroke="#bfbfbf" points="1107.5,-257.5 1107.5,-276.5 1208.5,-276.5 1208.5,-257.5 1107.5,-257.5"/>
<text text-anchor="middle" x="1158" y="-264.5" font-family="Helvetica,sans-Serif" font-size="10.00">UI/FPSCounter.hpp</text>
</a>
</g>
</g>
<!-- Node1&#45;&gt;Node27 -->
<g id="edge31" class="edge">
<title>Node1&#45;&gt;Node27</title>
<path fill="none" stroke="midnightblue" d="M871.87,-313.44C933.28,-303.69 1033.42,-287.79 1097.47,-277.61"/>
<polygon fill="midnightblue" stroke="midnightblue" points="1098.1,-281.06 1107.43,-276.03 1097,-274.14 1098.1,-281.06"/>
</g>
<!-- Node3&#45;&gt;Node2 -->
<g id="edge3" class="edge">
<title>Node3&#45;&gt;Node2</title>
<path fill="none" stroke="midnightblue" d="M528.47,-264.6C453.71,-260.78 250.86,-248.66 72.46,-221.04"/>
<polygon fill="midnightblue" stroke="midnightblue" points="72.79,-217.55 62.37,-219.46 71.71,-224.47 72.79,-217.55"/>
</g>
<!-- Node4 -->
<g id="node4" class="node">
<title>Node4</title>
<g id="a_node4"><a xlink:href="Sprites_8hpp.html" target="_top" xlink:title=" ">
<polygon fill="none" stroke="black" points="259.5,-201.5 259.5,-220.5 370.5,-220.5 370.5,-201.5 259.5,-201.5"/>
<text text-anchor="middle" x="315" y="-208.5" font-family="Helvetica,sans-Serif" font-size="10.00">constants/Sprites.hpp</text>
</a>
</g>
</g>
<!-- Node3&#45;&gt;Node4 -->
<g id="edge4" class="edge">
<title>Node3&#45;&gt;Node4</title>
<path fill="none" stroke="midnightblue" d="M528.2,-259.38C487.06,-250.24 412.38,-233.64 363.23,-222.72"/>
<polygon fill="midnightblue" stroke="midnightblue" points="363.97,-219.3 353.45,-220.55 362.46,-226.13 363.97,-219.3"/>
</g>
<!-- Node6 -->
<g id="node6" class="node">
<title>Node6</title>
<g id="a_node6"><a xlink:title=" ">
<polygon fill="none" stroke="#bfbfbf" points="389,-201.5 389,-220.5 485,-220.5 485,-201.5 389,-201.5"/>
<text text-anchor="middle" x="437" y="-208.5" font-family="Helvetica,sans-Serif" font-size="10.00">Engine/Engine.hpp</text>
</a>
</g>
</g>
<!-- Node3&#45;&gt;Node6 -->
<g id="edge6" class="edge">
<title>Node3&#45;&gt;Node6</title>
<path fill="none" stroke="midnightblue" d="M538.83,-257.44C519.09,-248.64 488.11,-234.81 465.51,-224.72"/>
<polygon fill="midnightblue" stroke="midnightblue" points="466.64,-221.4 456.08,-220.52 463.79,-227.79 466.64,-221.4"/>
</g>
<!-- Node7 -->
<g id="node7" class="node">
<title>Node7</title>
<g id="a_node7"><a xlink:title=" ">
<polygon fill="none" stroke="#bfbfbf" points="503.5,-201.5 503.5,-220.5 612.5,-220.5 612.5,-201.5 503.5,-201.5"/>
<text text-anchor="middle" x="558" y="-208.5" font-family="Helvetica,sans-Serif" font-size="10.00">Utility/InputEnum.hpp</text>
</a>
</g>
</g>
<!-- Node3&#45;&gt;Node7 -->
<g id="edge7" class="edge">
<title>Node3&#45;&gt;Node7</title>
<path fill="none" stroke="midnightblue" d="M558,-257.08C558,-250.01 558,-239.86 558,-230.99"/>
<polygon fill="midnightblue" stroke="midnightblue" points="561.5,-230.75 558,-220.75 554.5,-230.75 561.5,-230.75"/>
</g>
<!-- Node8 -->
<g id="node8" class="node">
<title>Node8</title>
<g id="a_node8"><a xlink:title=" ">
<polygon fill="none" stroke="#bfbfbf" points="631,-201.5 631,-220.5 721,-220.5 721,-201.5 631,-201.5"/>
<text text-anchor="middle" x="676" y="-208.5" font-family="Helvetica,sans-Serif" font-size="10.00">AudioSource.hpp</text>
</a>
</g>
</g>
<!-- Node3&#45;&gt;Node8 -->
<g id="edge8" class="edge">
<title>Node3&#45;&gt;Node8</title>
<path fill="none" stroke="midnightblue" d="M576.7,-257.44C595.94,-248.64 626.15,-234.81 648.2,-224.72"/>
<polygon fill="midnightblue" stroke="midnightblue" points="649.75,-227.86 657.39,-220.52 646.84,-221.5 649.75,-227.86"/>
</g>
<!-- Node9 -->
<g id="node9" class="node">
<title>Node9</title>
<g id="a_node9"><a xlink:href="MarioBehaviour_8hpp.html" target="_top" xlink:title=" ">
<polygon fill="none" stroke="black" points="739,-201.5 739,-220.5 875,-220.5 875,-201.5 739,-201.5"/>
<text text-anchor="middle" x="807" y="-208.5" font-family="Helvetica,sans-Serif" font-size="10.00">Scripts/MarioBehaviour.hpp</text>
</a>
</g>
</g>
<!-- Node3&#45;&gt;Node9 -->
<g id="edge9" class="edge">
<title>Node3&#45;&gt;Node9</title>
<path fill="none" stroke="midnightblue" d="M587.54,-259.59C629.57,-250.48 707.14,-233.66 757.9,-222.65"/>
<polygon fill="midnightblue" stroke="midnightblue" points="758.64,-226.07 767.67,-220.53 757.16,-219.23 758.64,-226.07"/>
</g>
<!-- Node18 -->
<g id="node18" class="node">
<title>Node18</title>
<g id="a_node18"><a xlink:title=" ">
<polygon fill="none" stroke="#bfbfbf" points="893,-201.5 893,-220.5 1051,-220.5 1051,-201.5 893,-201.5"/>
<text text-anchor="middle" x="972" y="-208.5" font-family="Helvetica,sans-Serif" font-size="10.00">Director/GameObjectFactory.hpp</text>
</a>
</g>
</g>
<!-- Node3&#45;&gt;Node18 -->
<g id="edge19" class="edge">
<title>Node3&#45;&gt;Node18</title>
<path fill="none" stroke="midnightblue" d="M587.77,-262.12C651.75,-253.77 804.01,-233.91 896.5,-221.85"/>
<polygon fill="midnightblue" stroke="midnightblue" points="897.18,-225.29 906.64,-220.52 896.27,-218.35 897.18,-225.29"/>
</g>
<!-- Node19 -->
<g id="node19" class="node">
<title>Node19</title>
<g id="a_node19"><a xlink:title=" ">
<polygon fill="none" stroke="#bfbfbf" points="80.5,-201.5 80.5,-220.5 241.5,-220.5 241.5,-201.5 80.5,-201.5"/>
<text text-anchor="middle" x="161" y="-208.5" font-family="Helvetica,sans-Serif" font-size="10.00">Behaviour/CollisionBehaviour.hpp</text>
</a>
</g>
</g>
<!-- Node3&#45;&gt;Node19 -->
<g id="edge20" class="edge">
<title>Node3&#45;&gt;Node19</title>
<path fill="none" stroke="midnightblue" d="M528.48,-261.99C466.63,-253.57 321.83,-233.88 233.59,-221.87"/>
<polygon fill="midnightblue" stroke="midnightblue" points="234.02,-218.4 223.64,-220.52 233.08,-225.34 234.02,-218.4"/>
</g>
<!-- Node5 -->
<g id="node5" class="node">
<title>Node5</title>
<g id="a_node5"><a xlink:title=" ">
<polygon fill="none" stroke="#bfbfbf" points="294.5,-140 294.5,-159 335.5,-159 335.5,-140 294.5,-140"/>
<text text-anchor="middle" x="315" y="-147" font-family="Helvetica,sans-Serif" font-size="10.00">string</text>
</a>
</g>
</g>
<!-- Node4&#45;&gt;Node5 -->
<g id="edge5" class="edge">
<title>Node4&#45;&gt;Node5</title>
<path fill="none" stroke="midnightblue" d="M315,-201.48C315,-193.08 315,-179.98 315,-169.16"/>
<polygon fill="midnightblue" stroke="midnightblue" points="318.5,-169.01 315,-159.01 311.5,-169.01 318.5,-169.01"/>
</g>
<!-- Node10 -->
<g id="node10" class="node">
<title>Node10</title>
<g id="a_node10"><a xlink:title=" ">
<polygon fill="none" stroke="#bfbfbf" points="742,-140 742,-159 846,-159 846,-140 742,-140"/>
<text text-anchor="middle" x="794" y="-147" font-family="Helvetica,sans-Serif" font-size="10.00">BehaviourScript.hpp</text>
</a>
</g>
</g>
<!-- Node9&#45;&gt;Node10 -->
<g id="edge10" class="edge">
<title>Node9&#45;&gt;Node10</title>
<path fill="none" stroke="midnightblue" d="M805.14,-201.48C803.28,-192.99 800.38,-179.7 798,-168.82"/>
<polygon fill="midnightblue" stroke="midnightblue" points="801.41,-168.03 795.86,-159.01 794.57,-169.53 801.41,-168.03"/>
</g>
<!-- Node11 -->
<g id="node11" class="node">
<title>Node11</title>
<g id="a_node11"><a xlink:href="MarioState_8hpp.html" target="_top" xlink:title=" ">
<polygon fill="none" stroke="black" points="662.5,-67.5 662.5,-97.5 765.5,-97.5 765.5,-67.5 662.5,-67.5"/>
<text text-anchor="start" x="670.5" y="-85.5" font-family="Helvetica,sans-Serif" font-size="10.00">Scripts/MarioStates</text>
<text text-anchor="middle" x="714" y="-74.5" font-family="Helvetica,sans-Serif" font-size="10.00">/MarioState.hpp</text>
</a>
</g>
</g>
<!-- Node9&#45;&gt;Node11 -->
<g id="edge11" class="edge">
<title>Node9&#45;&gt;Node11</title>
<path fill="none" stroke="midnightblue" d="M783.5,-201.46C766.92,-194.25 745.52,-182.29 733,-165 720.98,-148.4 716.44,-125.34 714.78,-107.98"/>
<polygon fill="midnightblue" stroke="midnightblue" points="718.24,-107.26 714.06,-97.53 711.26,-107.75 718.24,-107.26"/>
</g>
<!-- Node17 -->
<g id="node17" class="node">
<title>Node17</title>
<g id="a_node17"><a xlink:href="SmallMarioState_8hpp.html" target="_top" xlink:title=" ">
<polygon fill="none" stroke="black" points="864,-134.5 864,-164.5 974,-164.5 974,-134.5 864,-134.5"/>
<text text-anchor="start" x="872" y="-152.5" font-family="Helvetica,sans-Serif" font-size="10.00">Scripts/MarioStates</text>
<text text-anchor="middle" x="919" y="-141.5" font-family="Helvetica,sans-Serif" font-size="10.00">/SmallMarioState.hpp</text>
</a>
</g>
</g>
<!-- Node9&#45;&gt;Node17 -->
<g id="edge17" class="edge">
<title>Node9&#45;&gt;Node17</title>
<path fill="none" stroke="midnightblue" d="M823.05,-201.48C838.78,-193.12 863.3,-180.09 883.61,-169.3"/>
<polygon fill="midnightblue" stroke="midnightblue" points="885.41,-172.31 892.6,-164.52 882.13,-166.12 885.41,-172.31"/>
</g>
<!-- Node12 -->
<g id="node12" class="node">
<title>Node12</title>
<g id="a_node12"><a xlink:title=" ">
<polygon fill="none" stroke="#bfbfbf" points="639.5,-0.5 639.5,-30.5 734.5,-30.5 734.5,-0.5 639.5,-0.5"/>
<text text-anchor="start" x="647.5" y="-18.5" font-family="Helvetica,sans-Serif" font-size="10.00">boost/serialization</text>
<text text-anchor="middle" x="687" y="-7.5" font-family="Helvetica,sans-Serif" font-size="10.00">/access.hpp</text>
</a>
</g>
</g>
<!-- Node11&#45;&gt;Node12 -->
<g id="edge12" class="edge">
<title>Node11&#45;&gt;Node12</title>
<path fill="none" stroke="midnightblue" d="M708.14,-67.4C704.82,-59.39 700.57,-49.16 696.75,-39.98"/>
<polygon fill="midnightblue" stroke="midnightblue" points="699.92,-38.47 692.85,-30.58 693.45,-41.15 699.92,-38.47"/>
</g>
<!-- Node13 -->
<g id="node13" class="node">
<title>Node13</title>
<g id="a_node13"><a xlink:title=" ">
<polygon fill="none" stroke="#bfbfbf" points="752.5,-0.5 752.5,-30.5 847.5,-30.5 847.5,-0.5 752.5,-0.5"/>
<text text-anchor="start" x="760.5" y="-18.5" font-family="Helvetica,sans-Serif" font-size="10.00">boost/serialization</text>
<text text-anchor="middle" x="800" y="-7.5" font-family="Helvetica,sans-Serif" font-size="10.00">/export.hpp</text>
</a>
</g>
</g>
<!-- Node11&#45;&gt;Node13 -->
<g id="edge13" class="edge">
<title>Node11&#45;&gt;Node13</title>
<path fill="none" stroke="midnightblue" d="M732.66,-67.4C744.49,-58.45 759.99,-46.74 773.14,-36.8"/>
<polygon fill="midnightblue" stroke="midnightblue" points="775.51,-39.4 781.38,-30.58 771.29,-33.81 775.51,-39.4"/>
</g>
<!-- Node14 -->
<g id="node14" class="node">
<title>Node14</title>
<g id="a_node14"><a xlink:title=" ">
<polygon fill="none" stroke="#bfbfbf" points="865.5,-0.5 865.5,-30.5 960.5,-30.5 960.5,-0.5 865.5,-0.5"/>
<text text-anchor="start" x="873.5" y="-18.5" font-family="Helvetica,sans-Serif" font-size="10.00">boost/serialization</text>
<text text-anchor="middle" x="913" y="-7.5" font-family="Helvetica,sans-Serif" font-size="10.00">/shared_ptr.hpp</text>
</a>
</g>
</g>
<!-- Node11&#45;&gt;Node14 -->
<g id="edge14" class="edge">
<title>Node11&#45;&gt;Node14</title>
<path fill="none" stroke="midnightblue" d="M757.18,-67.4C787.43,-57.52 828.03,-44.25 860.21,-33.74"/>
<polygon fill="midnightblue" stroke="midnightblue" points="861.49,-37.01 869.9,-30.58 859.31,-30.35 861.49,-37.01"/>
</g>
<!-- Node15 -->
<g id="node15" class="node">
<title>Node15</title>
<g id="a_node15"><a xlink:title=" ">
<polygon fill="none" stroke="#bfbfbf" points="484.5,-6 484.5,-25 621.5,-25 621.5,-6 484.5,-6"/>
<text text-anchor="middle" x="553" y="-13" font-family="Helvetica,sans-Serif" font-size="10.00">Texture/AnimatedSprite.hpp</text>
</a>
</g>
</g>
<!-- Node11&#45;&gt;Node15 -->
<g id="edge15" class="edge">
<title>Node11&#45;&gt;Node15</title>
<path fill="none" stroke="midnightblue" d="M679.07,-67.4C650.57,-55.89 610.71,-39.8 583.48,-28.81"/>
<polygon fill="midnightblue" stroke="midnightblue" points="584.65,-25.51 574.07,-25.01 582.03,-32 584.65,-25.51"/>
</g>
<!-- Node16 -->
<g id="node16" class="node">
<title>Node16</title>
<g id="a_node16"><a xlink:title=" ">
<polygon fill="none" stroke="#bfbfbf" points="409.5,-6 409.5,-25 466.5,-25 466.5,-6 409.5,-6"/>
<text text-anchor="middle" x="438" y="-13" font-family="Helvetica,sans-Serif" font-size="10.00">Point.hpp</text>
</a>
</g>
</g>
<!-- Node11&#45;&gt;Node16 -->
<g id="edge16" class="edge">
<title>Node11&#45;&gt;Node16</title>
<path fill="none" stroke="midnightblue" d="M662.1,-73.09C613.26,-64.58 538.38,-49.97 475,-31 472.57,-30.27 470.08,-29.46 467.59,-28.59"/>
<polygon fill="midnightblue" stroke="midnightblue" points="468.74,-25.28 458.14,-25.09 466.31,-31.85 468.74,-25.28"/>
</g>
<!-- Node17&#45;&gt;Node11 -->
<g id="edge18" class="edge">
<title>Node17&#45;&gt;Node11</title>
<path fill="none" stroke="midnightblue" d="M874.77,-134.48C843.49,-124.56 801.36,-111.2 768.08,-100.65"/>
<polygon fill="midnightblue" stroke="midnightblue" points="769.09,-97.3 758.5,-97.61 766.98,-103.97 769.09,-97.3"/>
</g>
<!-- Node20&#45;&gt;Node12 -->
<g id="edge23" class="edge">
<title>Node20&#45;&gt;Node12</title>
<path fill="none" stroke="midnightblue" d="M1035.31,-75.66C970.25,-67.81 853.77,-52.52 744.39,-30.94"/>
<polygon fill="midnightblue" stroke="midnightblue" points="744.99,-27.49 734.5,-28.97 743.62,-34.36 744.99,-27.49"/>
</g>
<!-- Node20&#45;&gt;Node13 -->
<g id="edge24" class="edge">
<title>Node20&#45;&gt;Node13</title>
<path fill="none" stroke="midnightblue" d="M1045.37,-72.95C1001.58,-63.65 929.59,-48.09 857.7,-31.12"/>
<polygon fill="midnightblue" stroke="midnightblue" points="858.1,-27.62 847.56,-28.72 856.48,-34.43 858.1,-27.62"/>
</g>
<!-- Node20&#45;&gt;Node14 -->
<g id="edge25" class="edge">
<title>Node20&#45;&gt;Node14</title>
<path fill="none" stroke="midnightblue" d="M1063.03,-72.87C1036.84,-63.03 993.35,-46.69 959.92,-34.13"/>
<polygon fill="midnightblue" stroke="midnightblue" points="960.93,-30.77 950.34,-30.53 958.47,-37.32 960.93,-30.77"/>
</g>
<!-- Node21 -->
<g id="node21" class="node">
<title>Node21</title>
<g id="a_node21"><a xlink:title=" ">
<polygon fill="none" stroke="#bfbfbf" points="1243.5,-6 1243.5,-25 1294.5,-25 1294.5,-6 1243.5,-6"/>
<text text-anchor="middle" x="1269" y="-13" font-family="Helvetica,sans-Serif" font-size="10.00">memory</text>
</a>
</g>
</g>
<!-- Node20&#45;&gt;Node21 -->
<g id="edge22" class="edge">
<title>Node20&#45;&gt;Node21</title>
<path fill="none" stroke="midnightblue" d="M1112.65,-72.98C1142.42,-63.32 1191.96,-46.86 1234,-31 1235.85,-30.3 1237.74,-29.57 1239.65,-28.82"/>
<polygon fill="midnightblue" stroke="midnightblue" points="1241.14,-31.99 1249.1,-25 1238.52,-25.5 1241.14,-31.99"/>
</g>
<!-- Node22 -->
<g id="node22" class="node">
<title>Node22</title>
<g id="a_node22"><a xlink:title=" ">
<polygon fill="none" stroke="#bfbfbf" points="1313,-0.5 1313,-30.5 1417,-30.5 1417,-0.5 1313,-0.5"/>
<text text-anchor="start" x="1321" y="-18.5" font-family="Helvetica,sans-Serif" font-size="10.00">boost/archive/binary</text>
<text text-anchor="middle" x="1365" y="-7.5" font-family="Helvetica,sans-Serif" font-size="10.00">_iarchive.hpp</text>
</a>
</g>
</g>
<!-- Node20&#45;&gt;Node22 -->
<g id="edge26" class="edge">
<title>Node20&#45;&gt;Node22</title>
<path fill="none" stroke="midnightblue" d="M1123.04,-72.99C1164.48,-63.45 1233.87,-47.43 1303.01,-31.23"/>
<polygon fill="midnightblue" stroke="midnightblue" points="1303.82,-34.63 1312.76,-28.94 1302.23,-27.81 1303.82,-34.63"/>
</g>
<!-- Node23 -->
<g id="node23" class="node">
<title>Node23</title>
<g id="a_node23"><a xlink:title=" ">
<polygon fill="none" stroke="#bfbfbf" points="1435,-0.5 1435,-30.5 1539,-30.5 1539,-0.5 1435,-0.5"/>
<text text-anchor="start" x="1443" y="-18.5" font-family="Helvetica,sans-Serif" font-size="10.00">boost/archive/binary</text>
<text text-anchor="middle" x="1487" y="-7.5" font-family="Helvetica,sans-Serif" font-size="10.00">_oarchive.hpp</text>
</a>
</g>
</g>
<!-- Node20&#45;&gt;Node23 -->
<g id="edge27" class="edge">
<title>Node20&#45;&gt;Node23</title>
<path fill="none" stroke="midnightblue" d="M1136.63,-75.36C1201.25,-67.22 1316.64,-51.66 1424.72,-31.15"/>
<polygon fill="midnightblue" stroke="midnightblue" points="1425.66,-34.53 1434.82,-29.21 1424.34,-27.66 1425.66,-34.53"/>
</g>
<!-- Node24 -->
<g id="node24" class="node">
<title>Node24</title>
<g id="a_node24"><a xlink:title=" ">
<polygon fill="none" stroke="#bfbfbf" points="978.5,-6 978.5,-25 1035.5,-25 1035.5,-6 978.5,-6"/>
<text text-anchor="middle" x="1007" y="-13" font-family="Helvetica,sans-Serif" font-size="10.00">Color.hpp</text>
</a>
</g>
</g>
<!-- Node20&#45;&gt;Node24 -->
<g id="edge28" class="edge">
<title>Node20&#45;&gt;Node24</title>
<path fill="none" stroke="midnightblue" d="M1075.35,-72.73C1062.55,-62.21 1040.88,-44.38 1025.37,-31.62"/>
<polygon fill="midnightblue" stroke="midnightblue" points="1027.43,-28.78 1017.49,-25.13 1022.98,-34.18 1027.43,-28.78"/>
</g>
<!-- Node25 -->
<g id="node25" class="node">
<title>Node25</title>
<g id="a_node25"><a xlink:title=" ">
<polygon fill="none" stroke="#bfbfbf" points="1053.5,-6 1053.5,-25 1132.5,-25 1132.5,-6 1053.5,-6"/>
<text text-anchor="middle" x="1093" y="-13" font-family="Helvetica,sans-Serif" font-size="10.00">Transform.hpp</text>
</a>
</g>
</g>
<!-- Node20&#45;&gt;Node25 -->
<g id="edge29" class="edge">
<title>Node20&#45;&gt;Node25</title>
<path fill="none" stroke="midnightblue" d="M1086.94,-72.73C1087.97,-63.18 1089.65,-47.62 1090.98,-35.28"/>
<polygon fill="midnightblue" stroke="midnightblue" points="1094.48,-35.44 1092.07,-25.13 1087.52,-34.7 1094.48,-35.44"/>
</g>
<!-- Node26 -->
<g id="node26" class="node">
<title>Node26</title>
<g id="a_node26"><a xlink:title=" ">
<polygon fill="none" stroke="#bfbfbf" points="1151,-6 1151,-25 1225,-25 1225,-6 1151,-6"/>
<text text-anchor="middle" x="1188" y="-13" font-family="Helvetica,sans-Serif" font-size="10.00">UIObject.hpp</text>
</a>
</g>
</g>
<!-- Node20&#45;&gt;Node26 -->
<g id="edge30" class="edge">
<title>Node20&#45;&gt;Node26</title>
<path fill="none" stroke="midnightblue" d="M1099.76,-72.73C1116.73,-61.92 1145.81,-43.38 1165.93,-30.57"/>
<polygon fill="midnightblue" stroke="midnightblue" points="1167.91,-33.45 1174.46,-25.13 1164.15,-27.55 1167.91,-33.45"/>
</g>
</g>
</svg>
        <g id="navigator" transform="translate(0 0)" fill="#404254">
                <rect fill="#f2f5e9" fill-opacity="0.5" stroke="#606060" stroke-width=".5" x="0" y="0" width="60" height="60"/>
                <use id="zoomplus" xlink:href="#zoomPlus" x="17" y="9" onmousedown="handleZoom(evt,'in')"/>
                <use id="zoomminus" xlink:href="#zoomMin" x="42" y="9" onmousedown="handleZoom(evt,'out')"/>
                <use id="reset" xlink:href="#resetDef" x="30" y="36" onmousedown="handleReset()"/>
                <g id="arrowUp" xlink:href="#dirArrow" transform="translate(30 24)" onmousedown="handlePan(0,-1)">
                  <use xlink:href="#rim" fill="#404040">
                        <set attributeName="fill" to="#808080" begin="arrowUp.mouseover" end="arrowUp.mouseout"/>
                  </use>
                  <path fill="none" stroke="white" stroke-width="1.5" d="M0,-3.0v7 M-2.5,-0.5L0,-3.0L2.5,-0.5"/>
                </g>
                <g id="arrowRight" xlink:href="#dirArrow" transform="rotate(90) translate(36 -43)" onmousedown="handlePan(1,0)">
                  <use xlink:href="#rim" fill="#404040">
                        <set attributeName="fill" to="#808080" begin="arrowRight.mouseover" end="arrowRight.mouseout"/>
                  </use>
                  <path fill="none" stroke="white" stroke-width="1.5" d="M0,-3.0v7 M-2.5,-0.5L0,-3.0L2.5,-0.5"/>
                </g>
                <g id="arrowDown" xlink:href="#dirArrow" transform="rotate(180) translate(-30 -48)" onmousedown="handlePan(0,1)">
                  <use xlink:href="#rim" fill="#404040">
                        <set attributeName="fill" to="#808080" begin="arrowDown.mouseover" end="arrowDown.mouseout"/>
                  </use>
                  <path fill="none" stroke="white" stroke-width="1.5" d="M0,-3.0v7 M-2.5,-0.5L0,-3.0L2.5,-0.5"/>
                </g>
                <g id="arrowLeft" xlink:href="#dirArrow" transform="rotate(270) translate(-36 17)" onmousedown="handlePan(-1,0)">
                  <use xlink:href="#rim" fill="#404040">
                        <set attributeName="fill" to="#808080" begin="arrowLeft.mouseover" end="arrowLeft.mouseout"/>
                  </use>
                  <path fill="none" stroke="white" stroke-width="1.5" d="M0,-3.0v7 M-2.5,-0.5L0,-3.0L2.5,-0.5"/>
                </g>
        </g>
        <svg viewBox="0 0 15 15" width="100%" height="30px" preserveAspectRatio="xMaxYMin meet">
         <g id="arrow_out" transform="scale(0.3 0.3)">
          <a xlink:href="Level2_8hpp__incl_org.svg" target="_base">
           <rect id="button" ry="5" rx="5" y="6" x="6" height="38" width="38"
                fill="#f2f5e9" fill-opacity="0.5" stroke="#606060" stroke-width="1.0"/>
           <path id="arrow"
             d="M 11.500037,31.436501 C 11.940474,20.09759 22.043105,11.32322 32.158766,21.979434 L 37.068811,17.246167 C 37.068811,17.246167 37.088388,32 37.088388,32 L 22.160133,31.978069 C 22.160133,31.978069 26.997745,27.140456 26.997745,27.140456 C 18.528582,18.264221 13.291696,25.230495 11.500037,31.436501 z"
             style="fill:#404040;"/>
          </a>
         </g>
        </svg>
</svg>
