<svg xmlns="http://www.w3.org/2000/svg" xmlns:xlink="http://www.w3.org/1999/xlink" width="1412" height="380" viewBox="0 0 1058.5 285"><g id="graph0" class="graph" transform="scale(1 1) rotate(0) translate(4 281)"><title>src/Game/Levels/Level.hpp</title><g id="node1" class="node"><title>Node1</title><g id="a_node1"><a><polygon fill="#bfbfbf" stroke="#000" points="368.5 -257.5 368.5 -276.5 505.5 -276.5 505.5 -257.5 368.5 -257.5"/><text x="437" y="-264.5" font-family="Helvetica,sans-Serif" font-size="10" text-anchor="middle">src/Game/Levels/Level.hpp</text></a></g></g><g id="node2" class="node"><title>Node2</title><g id="a_node2"><a><polygon fill="none" stroke="#bfbfbf" points="0 -201.5 0 -220.5 62 -220.5 62 -201.5 0 -201.5"/><text x="31" y="-208.5" font-family="Helvetica,sans-Serif" font-size="10" text-anchor="middle">Scene.hpp</text></a></g></g><g id="edge1" class="edge"><title>Node1-&gt;Node2</title><path fill="none" stroke="#191970" d="M368.37,-259.75C296.63,-252.74 180.65,-240.01 72.16,-221.24"/><polygon fill="#191970" stroke="#191970" points="72.47 -217.74 62.02 -219.47 71.27 -224.64 72.47 -217.74"/></g><g id="node3" class="node"><title>Node3</title><g id="a_node3"><a target="_top" xlink:href="Sprites_8hpp.html"><polygon fill="none" stroke="#000" points="79.5 -201.5 79.5 -220.5 190.5 -220.5 190.5 -201.5 79.5 -201.5"/><text x="135" y="-208.5" font-family="Helvetica,sans-Serif" font-size="10" text-anchor="middle">constants/Sprites.hpp</text></a></g></g><g id="edge2" class="edge"><title>Node1-&gt;Node3</title><path fill="none" stroke="#191970" d="M389.15,-257.44C335.8,-247.9 249.56,-232.48 192.56,-222.29"/><polygon fill="#191970" stroke="#191970" points="193.09 -218.83 182.63 -220.52 191.86 -225.72 193.09 -218.83"/></g><g id="node5" class="node"><title>Node5</title><g id="a_node5"><a><polygon fill="none" stroke="#bfbfbf" points="209 -201.5 209 -220.5 305 -220.5 305 -201.5 209 -201.5"/><text x="257" y="-208.5" font-family="Helvetica,sans-Serif" font-size="10" text-anchor="middle">Engine/Engine.hpp</text></a></g></g><g id="edge4" class="edge"><title>Node1-&gt;Node5</title><path fill="none" stroke="#191970" d="M408.48,-257.44C377.93,-248.28 329.29,-233.69 295.4,-223.52"/><polygon fill="#191970" stroke="#191970" points="295.97 -220.04 285.39 -220.52 293.96 -226.74 295.97 -220.04"/></g><g id="node6" class="node"><title>Node6</title><g id="a_node6"><a><polygon fill="none" stroke="#bfbfbf" points="323.5 -201.5 323.5 -220.5 432.5 -220.5 432.5 -201.5 323.5 -201.5"/><text x="378" y="-208.5" font-family="Helvetica,sans-Serif" font-size="10" text-anchor="middle">Utility/InputEnum.hpp</text></a></g></g><g id="edge5" class="edge"><title>Node1-&gt;Node6</title><path fill="none" stroke="#191970" d="M427.52,-257.32C418.8,-249.34 405.66,-237.31 395.1,-227.65"/><polygon fill="#191970" stroke="#191970" points="397.39 -225 387.65 -220.83 392.67 -230.17 397.39 -225"/></g><g id="node7" class="node"><title>Node7</title><g id="a_node7"><a><polygon fill="none" stroke="#bfbfbf" points="451 -201.5 451 -220.5 541 -220.5 541 -201.5 451 -201.5"/><text x="496" y="-208.5" font-family="Helvetica,sans-Serif" font-size="10" text-anchor="middle">AudioSource.hpp</text></a></g></g><g id="edge6" class="edge"><title>Node1-&gt;Node7</title><path fill="none" stroke="#191970" d="M446.48,-257.32C455.2,-249.34 468.34,-237.31 478.9,-227.65"/><polygon fill="#191970" stroke="#191970" points="481.33 -230.17 486.35 -220.83 476.61 -225 481.33 -230.17"/></g><g id="node8" class="node"><title>Node8</title><g id="a_node8"><a target="_top" xlink:href="MarioBehaviour_8hpp.html"><polygon fill="none" stroke="#000" points="559 -201.5 559 -220.5 695 -220.5 695 -201.5 559 -201.5"/><text x="627" y="-208.5" font-family="Helvetica,sans-Serif" font-size="10" text-anchor="middle">Scripts/MarioBehaviour.hpp</text></a></g></g><g id="edge7" class="edge"><title>Node1-&gt;Node8</title><path fill="none" stroke="#191970" d="M467.11,-257.44C499.63,-248.2 551.58,-233.44 587.39,-223.26"/><polygon fill="#191970" stroke="#191970" points="588.37 -226.62 597.03 -220.52 586.46 -219.88 588.37 -226.62"/></g><g id="node17" class="node"><title>Node17</title><g id="a_node17"><a><polygon fill="none" stroke="#bfbfbf" points="713 -201.5 713 -220.5 871 -220.5 871 -201.5 713 -201.5"/><text x="792" y="-208.5" font-family="Helvetica,sans-Serif" font-size="10" text-anchor="middle">Director/GameObjectFactory.hpp</text></a></g></g><g id="edge17" class="edge"><title>Node1-&gt;Node17</title><path fill="none" stroke="#191970" d="M493.25,-257.44C556.48,-247.83 659.02,-232.23 725.99,-222.04"/><polygon fill="#191970" stroke="#191970" points="726.65 -225.48 736.01 -220.52 725.6 -218.56 726.65 -225.48"/></g><g id="node18" class="node"><title>Node18</title><g id="a_node18"><a><polygon fill="none" stroke="#bfbfbf" points="889.5 -201.5 889.5 -220.5 1050.5 -220.5 1050.5 -201.5 889.5 -201.5"/><text x="970" y="-208.5" font-family="Helvetica,sans-Serif" font-size="10" text-anchor="middle">Behaviour/CollisionBehaviour.hpp</text></a></g></g><g id="edge18" class="edge"><title>Node1-&gt;Node18</title><path fill="none" stroke="#191970" d="M505.59,-259.05C600.92,-249.39 773.66,-231.89 879.47,-221.17"/><polygon fill="#191970" stroke="#191970" points="879.9 -224.65 889.5 -220.16 879.19 -217.68 879.9 -224.65"/></g><g id="node4" class="node"><title>Node4</title><g id="a_node4"><a><polygon fill="none" stroke="#bfbfbf" points="114.5 -140 114.5 -159 155.5 -159 155.5 -140 114.5 -140"/><text x="135" y="-147" font-family="Helvetica,sans-Serif" font-size="10" text-anchor="middle">string</text></a></g></g><g id="edge3" class="edge"><title>Node3-&gt;Node4</title><path fill="none" stroke="#191970" d="M135,-201.48C135,-193.08 135,-179.98 135,-169.16"/><polygon fill="#191970" stroke="#191970" points="138.5 -169.01 135 -159.01 131.5 -169.01 138.5 -169.01"/></g><g id="node9" class="node"><title>Node9</title><g id="a_node9"><a><polygon fill="none" stroke="#bfbfbf" points="495 -140 495 -159 599 -159 599 -140 495 -140"/><text x="547" y="-147" font-family="Helvetica,sans-Serif" font-size="10" text-anchor="middle">BehaviourScript.hpp</text></a></g></g><g id="edge8" class="edge"><title>Node8-&gt;Node9</title><path fill="none" stroke="#191970" d="M615.54,-201.48C602.83,-192.02 582.09,-176.6 566.75,-165.19"/><polygon fill="#191970" stroke="#191970" points="568.55 -162.17 558.44 -159.01 564.38 -167.79 568.55 -162.17"/></g><g id="node10" class="node"><title>Node10</title><g id="a_node10"><a target="_top" xlink:href="MarioState_8hpp.html"><polygon fill="none" stroke="#000" points="616.5 -67.5 616.5 -97.5 719.5 -97.5 719.5 -67.5 616.5 -67.5"/><text x="624.5" y="-85.5" font-family="Helvetica,sans-Serif" font-size="10" text-anchor="start">Scripts/MarioStates</text><text x="668" y="-74.5" font-family="Helvetica,sans-Serif" font-size="10" text-anchor="middle">/MarioState.hpp</text></a></g></g><g id="edge9" class="edge"><title>Node8-&gt;Node10</title><path fill="none" stroke="#191970" d="M628.66,-201.43C631.51,-187.22 637.85,-157.95 646,-134 649.05,-125.02 653.05,-115.42 656.79,-107.02"/><polygon fill="#191970" stroke="#191970" points="660.01 -108.38 661 -97.83 653.65 -105.47 660.01 -108.38"/></g><g id="node16" class="node"><title>Node16</title><g id="a_node16"><a target="_top" xlink:href="SmallMarioState_8hpp.html"><polygon fill="none" stroke="#000" points="655 -134.5 655 -164.5 765 -164.5 765 -134.5 655 -134.5"/><text x="663" y="-152.5" font-family="Helvetica,sans-Serif" font-size="10" text-anchor="start">Scripts/MarioStates</text><text x="710" y="-141.5" font-family="Helvetica,sans-Serif" font-size="10" text-anchor="middle">/SmallMarioState.hpp</text></a></g></g><g id="edge15" class="edge"><title>Node8-&gt;Node16</title><path fill="none" stroke="#191970" d="M638.89,-201.48C650.13,-193.42 667.42,-181.02 682.14,-170.47"/><polygon fill="#191970" stroke="#191970" points="684.35 -173.19 690.44 -164.52 680.27 -167.5 684.35 -173.19"/></g><g id="node11" class="node"><title>Node11</title><g id="a_node11"><a><polygon fill="none" stroke="#bfbfbf" points="394.5 -.5 394.5 -30.5 489.5 -30.5 489.5 -.5 394.5 -.5"/><text x="402.5" y="-18.5" font-family="Helvetica,sans-Serif" font-size="10" text-anchor="start">boost/serialization</text><text x="442" y="-7.5" font-family="Helvetica,sans-Serif" font-size="10" text-anchor="middle">/access.hpp</text></a></g></g><g id="edge10" class="edge"><title>Node10-&gt;Node11</title><path fill="none" stroke="#191970" d="M619.24,-67.48C583.98,-57.34 536.23,-43.6 499.17,-32.94"/><polygon fill="#191970" stroke="#191970" points="500.09 -29.56 489.51 -30.16 498.15 -36.29 500.09 -29.56"/></g><g id="node12" class="node"><title>Node12</title><g id="a_node12"><a><polygon fill="none" stroke="#bfbfbf" points="507.5 -.5 507.5 -30.5 602.5 -30.5 602.5 -.5 507.5 -.5"/><text x="515.5" y="-18.5" font-family="Helvetica,sans-Serif" font-size="10" text-anchor="start">boost/serialization</text><text x="555" y="-7.5" font-family="Helvetica,sans-Serif" font-size="10" text-anchor="middle">/export.hpp</text></a></g></g><g id="edge11" class="edge"><title>Node10-&gt;Node12</title><path fill="none" stroke="#191970" d="M643.48,-67.4C627.34,-58.11 606.01,-45.84 588.33,-35.67"/><polygon fill="#191970" stroke="#191970" points="589.88 -32.53 579.47 -30.58 586.39 -38.6 589.88 -32.53"/></g><g id="node13" class="node"><title>Node13</title><g id="a_node13"><a><polygon fill="none" stroke="#bfbfbf" points="620.5 -.5 620.5 -30.5 715.5 -30.5 715.5 -.5 620.5 -.5"/><text x="628.5" y="-18.5" font-family="Helvetica,sans-Serif" font-size="10" text-anchor="start">boost/serialization</text><text x="668" y="-7.5" font-family="Helvetica,sans-Serif" font-size="10" text-anchor="middle">/shared_ptr.hpp</text></a></g></g><g id="edge12" class="edge"><title>Node10-&gt;Node13</title><path fill="none" stroke="#191970" d="M668,-67.4C668,-59.64 668,-49.81 668,-40.86"/><polygon fill="#191970" stroke="#191970" points="671.5 -40.58 668 -30.58 664.5 -40.58 671.5 -40.58"/></g><g id="node14" class="node"><title>Node14</title><g id="a_node14"><a><polygon fill="none" stroke="#bfbfbf" points="733.5 -6 733.5 -25 870.5 -25 870.5 -6 733.5 -6"/><text x="802" y="-13" font-family="Helvetica,sans-Serif" font-size="10" text-anchor="middle">Texture/AnimatedSprite.hpp</text></a></g></g><g id="edge13" class="edge"><title>Node10-&gt;Node14</title><path fill="none" stroke="#191970" d="M697.08,-67.4C720.38,-56.09 752.81,-40.36 775.43,-29.39"/><polygon fill="#191970" stroke="#191970" points="776.99 -32.52 784.46 -25.01 773.94 -26.22 776.99 -32.52"/></g><g id="node15" class="node"><title>Node15</title><g id="a_node15"><a><polygon fill="none" stroke="#bfbfbf" points="888.5 -6 888.5 -25 945.5 -25 945.5 -6 888.5 -6"/><text x="917" y="-13" font-family="Helvetica,sans-Serif" font-size="10" text-anchor="middle">Point.hpp</text></a></g></g><g id="edge14" class="edge"><title>Node10-&gt;Node15</title><path fill="none" stroke="#191970" d="M719.52,-71.33C762.79,-62.3 826.02,-47.91 880,-31 882.28,-30.29 884.62,-29.5 886.96,-28.68"/><polygon fill="#191970" stroke="#191970" points="888.29 -31.91 896.44 -25.15 885.85 -25.35 888.29 -31.91"/></g><g id="edge16" class="edge"><title>Node16-&gt;Node10</title><path fill="none" stroke="#191970" d="M700.89,-134.4C695.55,-126.13 688.68,-115.51 682.6,-106.1"/><polygon fill="#191970" stroke="#191970" points="685.46 -104.08 677.1 -97.58 679.58 -107.88 685.46 -104.08"/></g></g></svg>