<svg xmlns="http://www.w3.org/2000/svg" xmlns:xlink="http://www.w3.org/1999/xlink" width="388" height="112" viewBox="0 0 290.5 84"><g id="graph0" class="graph" transform="scale(1 1) rotate(0) translate(4 80)"><title>src/Game/Levels/MainMenu.hpp</title><g id="node1" class="node"><title>Node1</title><g id="a_node1"><a><polygon fill="#bfbfbf" stroke="#000" points="49.5 -56.5 49.5 -75.5 207.5 -75.5 207.5 -56.5 49.5 -56.5"/><text x="128.5" y="-63.5" font-family="Helvetica,sans-Serif" font-size="10" text-anchor="middle">src/Game/Levels/MainMenu.hpp</text></a></g></g><g id="node2" class="node"><title>Node2</title><g id="a_node2"><a target="_top" xlink:href="Game_8cpp.html"><polygon fill="none" stroke="#000" points="0 -.5 0 -19.5 107 -19.5 107 -.5 0 -.5"/><text x="53.5" y="-7.5" font-family="Helvetica,sans-Serif" font-size="10" text-anchor="middle">src/Game/Game.cpp</text></a></g></g><g id="edge1" class="edge"><title>Node1-&gt;Node2</title><path fill="none" stroke="#191970" d="M108.19,-50.38C94.64,-40.62 77.26,-28.11 65.77,-19.83"/><polygon fill="#191970" stroke="#191970" points="106.29 -53.32 116.45 -56.32 110.38 -47.64 106.29 -53.32"/></g><g id="node3" class="node"><title>Node3</title><g id="a_node3"><a target="_top" xlink:href="MainMenu_8cpp.html"><polygon fill="none" stroke="#000" points="124.5 -.5 124.5 -19.5 282.5 -19.5 282.5 -.5 124.5 -.5"/><text x="203.5" y="-7.5" font-family="Helvetica,sans-Serif" font-size="10" text-anchor="middle">src/Game/Levels/MainMenu.cpp</text></a></g></g><g id="edge2" class="edge"><title>Node1-&gt;Node3</title><path fill="none" stroke="#191970" d="M148.81,-50.38C162.36,-40.62 179.74,-28.11 191.23,-19.83"/><polygon fill="#191970" stroke="#191970" points="146.62 -47.64 140.55 -56.32 150.71 -53.32 146.62 -47.64"/></g></g></svg>