<?xml version="1.0" encoding="UTF-8" standalone="no"?>
<!DOCTYPE svg PUBLIC "-//W3C//DTD SVG 1.1//EN"
 "http://www.w3.org/Graphics/SVG/1.1/DTD/svg11.dtd">
<!-- Generated by graphviz version 2.44.0 ()
 -->
<!-- Title: src/Game/Levels/MainMenu.cpp Pages: 1 -->
<svg width="1334pt" height="263pt"
 viewBox="0.00 0.00 1333.50 263.00" xmlns="http://www.w3.org/2000/svg" xmlns:xlink="http://www.w3.org/1999/xlink">
<g id="graph0" class="graph" transform="scale(1 1) rotate(0) translate(4 259)">
<title>src/Game/Levels/MainMenu.cpp</title>
<!-- Node1 -->
<g id="node1" class="node">
<title>Node1</title>
<g id="a_node1"><a xlink:title=" ">
<polygon fill="#bfbfbf" stroke="black" points="460,-235.5 460,-254.5 618,-254.5 618,-235.5 460,-235.5"/>
<text text-anchor="middle" x="539" y="-242.5" font-family="Helvetica,sans-Serif" font-size="10.00">src/Game/Levels/MainMenu.cpp</text>
</a>
</g>
</g>
<!-- Node2 -->
<g id="node2" class="node">
<title>Node2</title>
<g id="a_node2"><a xlink:href="MainMenu_8hpp.html" target="_top" xlink:title=" ">
<polygon fill="none" stroke="black" points="91,-179.5 91,-198.5 171,-198.5 171,-179.5 91,-179.5"/>
<text text-anchor="middle" x="131" y="-186.5" font-family="Helvetica,sans-Serif" font-size="10.00">MainMenu.hpp</text>
</a>
</g>
</g>
<!-- Node1&#45;&gt;Node2 -->
<g id="edge1" class="edge">
<title>Node1&#45;&gt;Node2</title>
<path fill="none" stroke="midnightblue" d="M474.35,-235.44C393.02,-224.68 255.07,-206.42 181.21,-196.65"/>
<polygon fill="midnightblue" stroke="midnightblue" points="181.6,-193.17 171.23,-195.32 180.68,-200.11 181.6,-193.17"/>
</g>
<!-- Node4 -->
<g id="node4" class="node">
<title>Node4</title>
<g id="a_node4"><a xlink:title=" ">
<polygon fill="none" stroke="#bfbfbf" points="80.5,-123.5 80.5,-142.5 181.5,-142.5 181.5,-123.5 80.5,-123.5"/>
<text text-anchor="middle" x="131" y="-130.5" font-family="Helvetica,sans-Serif" font-size="10.00">UI/FPSCounter.hpp</text>
</a>
</g>
</g>
<!-- Node1&#45;&gt;Node4 -->
<g id="edge34" class="edge">
<title>Node1&#45;&gt;Node4</title>
<path fill="none" stroke="midnightblue" d="M496.83,-235.48C456.39,-227.06 393.71,-213.4 340,-199 278.12,-182.41 207.1,-159.48 165.81,-145.75"/>
<polygon fill="midnightblue" stroke="midnightblue" points="166.82,-142.4 156.23,-142.56 164.61,-149.04 166.82,-142.4"/>
</g>
<!-- Node5 -->
<g id="node5" class="node">
<title>Node5</title>
<g id="a_node5"><a xlink:title=" ">
<polygon fill="none" stroke="#bfbfbf" points="349.5,-179.5 349.5,-198.5 510.5,-198.5 510.5,-179.5 349.5,-179.5"/>
<text text-anchor="middle" x="430" y="-186.5" font-family="Helvetica,sans-Serif" font-size="10.00">Behaviour/CollisionBehaviour.hpp</text>
</a>
</g>
</g>
<!-- Node1&#45;&gt;Node5 -->
<g id="edge4" class="edge">
<title>Node1&#45;&gt;Node5</title>
<path fill="none" stroke="midnightblue" d="M521.49,-235.32C503.93,-226.62 476.67,-213.12 456.47,-203.11"/>
<polygon fill="midnightblue" stroke="midnightblue" points="457.98,-199.96 447.47,-198.65 454.88,-206.23 457.98,-199.96"/>
</g>
<!-- Node6 -->
<g id="node6" class="node">
<title>Node6</title>
<g id="a_node6"><a xlink:title=" ">
<polygon fill="none" stroke="#bfbfbf" points="200,-123.5 200,-142.5 358,-142.5 358,-123.5 200,-123.5"/>
<text text-anchor="middle" x="279" y="-130.5" font-family="Helvetica,sans-Serif" font-size="10.00">Director/GameObjectFactory.hpp</text>
</a>
</g>
</g>
<!-- Node1&#45;&gt;Node6 -->
<g id="edge5" class="edge">
<title>Node1&#45;&gt;Node6</title>
<path fill="none" stroke="midnightblue" d="M539.01,-235.36C538.52,-221.31 535.38,-193.63 519,-179 506.55,-167.89 418.67,-153.43 352.82,-143.94"/>
<polygon fill="midnightblue" stroke="midnightblue" points="353.26,-140.46 342.87,-142.52 352.27,-147.39 353.26,-140.46"/>
</g>
<!-- Node7 -->
<g id="node7" class="node">
<title>Node7</title>
<g id="a_node7"><a xlink:title=" ">
<polygon fill="none" stroke="#bfbfbf" points="704,-179.5 704,-198.5 800,-198.5 800,-179.5 704,-179.5"/>
<text text-anchor="middle" x="752" y="-186.5" font-family="Helvetica,sans-Serif" font-size="10.00">Engine/Engine.hpp</text>
</a>
</g>
</g>
<!-- Node1&#45;&gt;Node7 -->
<g id="edge6" class="edge">
<title>Node1&#45;&gt;Node7</title>
<path fill="none" stroke="midnightblue" d="M572.75,-235.44C609.52,-226.12 668.45,-211.18 708.62,-201"/>
<polygon fill="midnightblue" stroke="midnightblue" points="709.57,-204.37 718.41,-198.52 707.85,-197.58 709.57,-204.37"/>
</g>
<!-- Node8 -->
<g id="node8" class="node">
<title>Node8</title>
<g id="a_node8"><a xlink:href="TileConfig_8hpp.html" target="_top" xlink:title=" ">
<polygon fill="none" stroke="black" points="608.5,-179.5 608.5,-198.5 685.5,-198.5 685.5,-179.5 608.5,-179.5"/>
<text text-anchor="middle" x="647" y="-186.5" font-family="Helvetica,sans-Serif" font-size="10.00">TileConfig.hpp</text>
</a>
</g>
</g>
<!-- Node1&#45;&gt;Node8 -->
<g id="edge7" class="edge">
<title>Node1&#45;&gt;Node8</title>
<path fill="none" stroke="midnightblue" d="M556.35,-235.32C573.67,-226.66 600.52,-213.24 620.5,-203.25"/>
<polygon fill="midnightblue" stroke="midnightblue" points="622.31,-206.26 629.69,-198.65 619.18,-200 622.31,-206.26"/>
</g>
<!-- Node27 -->
<g id="node27" class="node">
<title>Node27</title>
<g id="a_node27"><a xlink:title=" ">
<polygon fill="none" stroke="#bfbfbf" points="818,-179.5 818,-198.5 908,-198.5 908,-179.5 818,-179.5"/>
<text text-anchor="middle" x="863" y="-186.5" font-family="Helvetica,sans-Serif" font-size="10.00">AudioSource.hpp</text>
</a>
</g>
</g>
<!-- Node1&#45;&gt;Node27 -->
<g id="edge35" class="edge">
<title>Node1&#45;&gt;Node27</title>
<path fill="none" stroke="midnightblue" d="M590.34,-235.44C649.63,-225.56 746.8,-209.37 807.71,-199.21"/>
<polygon fill="midnightblue" stroke="midnightblue" points="808.62,-202.61 817.91,-197.52 807.47,-195.71 808.62,-202.61"/>
</g>
<!-- Node3 -->
<g id="node3" class="node">
<title>Node3</title>
<g id="a_node3"><a xlink:title=" ">
<polygon fill="none" stroke="#bfbfbf" points="0,-123.5 0,-142.5 62,-142.5 62,-123.5 0,-123.5"/>
<text text-anchor="middle" x="31" y="-130.5" font-family="Helvetica,sans-Serif" font-size="10.00">Scene.hpp</text>
</a>
</g>
</g>
<!-- Node2&#45;&gt;Node3 -->
<g id="edge2" class="edge">
<title>Node2&#45;&gt;Node3</title>
<path fill="none" stroke="midnightblue" d="M114.93,-179.32C99.04,-170.74 74.49,-157.49 56.04,-147.52"/>
<polygon fill="midnightblue" stroke="midnightblue" points="57.49,-144.33 47.03,-142.65 54.16,-150.49 57.49,-144.33"/>
</g>
<!-- Node2&#45;&gt;Node4 -->
<g id="edge3" class="edge">
<title>Node2&#45;&gt;Node4</title>
<path fill="none" stroke="midnightblue" d="M131,-179.08C131,-172.01 131,-161.86 131,-152.99"/>
<polygon fill="midnightblue" stroke="midnightblue" points="134.5,-152.75 131,-142.75 127.5,-152.75 134.5,-152.75"/>
</g>
<!-- Node8&#45;&gt;Node6 -->
<g id="edge13" class="edge">
<title>Node8&#45;&gt;Node6</title>
<path fill="none" stroke="midnightblue" d="M608.31,-182.32C546.32,-173.23 423.92,-155.27 347.06,-143.99"/>
<polygon fill="midnightblue" stroke="midnightblue" points="347.4,-140.5 337,-142.51 346.38,-147.42 347.4,-140.5"/>
</g>
<!-- Node9 -->
<g id="node9" class="node">
<title>Node9</title>
<g id="a_node9"><a xlink:title=" ">
<polygon fill="none" stroke="#bfbfbf" points="727.5,-123.5 727.5,-142.5 786.5,-142.5 786.5,-123.5 727.5,-123.5"/>
<text text-anchor="middle" x="757" y="-130.5" font-family="Helvetica,sans-Serif" font-size="10.00">functional</text>
</a>
</g>
</g>
<!-- Node8&#45;&gt;Node9 -->
<g id="edge8" class="edge">
<title>Node8&#45;&gt;Node9</title>
<path fill="none" stroke="midnightblue" d="M664.67,-179.32C682.39,-170.62 709.9,-157.12 730.29,-147.11"/>
<polygon fill="midnightblue" stroke="midnightblue" points="731.94,-150.2 739.37,-142.65 728.85,-143.92 731.94,-150.2"/>
</g>
<!-- Node10 -->
<g id="node10" class="node">
<title>Node10</title>
<g id="a_node10"><a xlink:title=" ">
<polygon fill="none" stroke="#bfbfbf" points="804.5,-123.5 804.5,-142.5 839.5,-142.5 839.5,-123.5 804.5,-123.5"/>
<text text-anchor="middle" x="822" y="-130.5" font-family="Helvetica,sans-Serif" font-size="10.00">map</text>
</a>
</g>
</g>
<!-- Node8&#45;&gt;Node10 -->
<g id="edge9" class="edge">
<title>Node8&#45;&gt;Node10</title>
<path fill="none" stroke="midnightblue" d="M676,-179.43C703.96,-171.11 747.7,-157.96 794.57,-143.07"/>
<polygon fill="midnightblue" stroke="midnightblue" points="795.84,-146.35 804.3,-139.97 793.71,-139.68 795.84,-146.35"/>
</g>
<!-- Node11 -->
<g id="node11" class="node">
<title>Node11</title>
<g id="a_node11"><a xlink:title=" ">
<polygon fill="none" stroke="#bfbfbf" points="340.5,-6 340.5,-25 391.5,-25 391.5,-6 340.5,-6"/>
<text text-anchor="middle" x="366" y="-13" font-family="Helvetica,sans-Serif" font-size="10.00">memory</text>
</a>
</g>
</g>
<!-- Node8&#45;&gt;Node11 -->
<g id="edge10" class="edge">
<title>Node8&#45;&gt;Node11</title>
<path fill="none" stroke="midnightblue" d="M608.29,-185.6C547.75,-181.09 434.51,-169.3 405,-143 373.78,-115.19 367.24,-63.01 366.07,-35.15"/>
<polygon fill="midnightblue" stroke="midnightblue" points="369.56,-35.07 365.84,-25.15 362.57,-35.23 369.56,-35.07"/>
</g>
<!-- Node12 -->
<g id="node12" class="node">
<title>Node12</title>
<g id="a_node12"><a xlink:title=" ">
<polygon fill="none" stroke="#bfbfbf" points="414,-123.5 414,-142.5 566,-142.5 566,-123.5 414,-123.5"/>
<text text-anchor="middle" x="490" y="-130.5" font-family="Helvetica,sans-Serif" font-size="10.00">Builder/GameObjectBuilder.hpp</text>
</a>
</g>
</g>
<!-- Node8&#45;&gt;Node12 -->
<g id="edge11" class="edge">
<title>Node8&#45;&gt;Node12</title>
<path fill="none" stroke="midnightblue" d="M622.12,-179.44C595.71,-170.36 553.78,-155.94 524.26,-145.78"/>
<polygon fill="midnightblue" stroke="midnightblue" points="525.36,-142.46 514.76,-142.52 523.08,-149.08 525.36,-142.46"/>
</g>
<!-- Node13 -->
<g id="node13" class="node">
<title>Node13</title>
<g id="a_node13"><a xlink:title=" ">
<polygon fill="none" stroke="#bfbfbf" points="584.5,-123.5 584.5,-142.5 709.5,-142.5 709.5,-123.5 584.5,-123.5"/>
<text text-anchor="middle" x="647" y="-130.5" font-family="Helvetica,sans-Serif" font-size="10.00">Builder/SceneBuilder.hpp</text>
</a>
</g>
</g>
<!-- Node8&#45;&gt;Node13 -->
<g id="edge12" class="edge">
<title>Node8&#45;&gt;Node13</title>
<path fill="none" stroke="midnightblue" d="M647,-179.08C647,-172.01 647,-161.86 647,-152.99"/>
<polygon fill="midnightblue" stroke="midnightblue" points="650.5,-152.75 647,-142.75 643.5,-152.75 650.5,-152.75"/>
</g>
<!-- Node14 -->
<g id="node14" class="node">
<title>Node14</title>
<g id="a_node14"><a xlink:href="CoinBehaviour_8hpp.html" target="_top" xlink:title=" ">
<polygon fill="none" stroke="black" points="896.5,-123.5 896.5,-142.5 1027.5,-142.5 1027.5,-123.5 896.5,-123.5"/>
<text text-anchor="middle" x="962" y="-130.5" font-family="Helvetica,sans-Serif" font-size="10.00">Scripts/CoinBehaviour.hpp</text>
</a>
</g>
</g>
<!-- Node8&#45;&gt;Node14 -->
<g id="edge14" class="edge">
<title>Node8&#45;&gt;Node14</title>
<path fill="none" stroke="midnightblue" d="M685.5,-180.72C688.71,-180.13 691.91,-179.55 695,-179 765,-166.54 845.49,-153.09 899.64,-144.18"/>
<polygon fill="midnightblue" stroke="midnightblue" points="900.47,-147.59 909.77,-142.51 899.33,-140.68 900.47,-147.59"/>
</g>
<!-- Node16 -->
<g id="node16" class="node">
<title>Node16</title>
<g id="a_node16"><a xlink:href="CoinCounter_8hpp.html" target="_top" xlink:title=" ">
<polygon fill="none" stroke="black" points="809.5,-67.5 809.5,-86.5 918.5,-86.5 918.5,-67.5 809.5,-67.5"/>
<text text-anchor="middle" x="864" y="-74.5" font-family="Helvetica,sans-Serif" font-size="10.00">../UI/CoinCounter.hpp</text>
</a>
</g>
</g>
<!-- Node8&#45;&gt;Node16 -->
<g id="edge33" class="edge">
<title>Node8&#45;&gt;Node16</title>
<path fill="none" stroke="midnightblue" d="M685.75,-180.41C742.5,-169.15 842.17,-148.71 848,-143 860.19,-131.07 863.66,-111.45 864.4,-96.89"/>
<polygon fill="midnightblue" stroke="midnightblue" points="867.91,-96.57 864.53,-86.53 860.91,-96.49 867.91,-96.57"/>
</g>
<!-- Node25 -->
<g id="node25" class="node">
<title>Node25</title>
<g id="a_node25"><a xlink:href="FlagBehaviour_8hpp.html" target="_top" xlink:title=" ">
<polygon fill="none" stroke="black" points="1194.5,-123.5 1194.5,-142.5 1325.5,-142.5 1325.5,-123.5 1194.5,-123.5"/>
<text text-anchor="middle" x="1260" y="-130.5" font-family="Helvetica,sans-Serif" font-size="10.00">Scripts/FlagBehaviour.hpp</text>
</a>
</g>
</g>
<!-- Node8&#45;&gt;Node25 -->
<g id="edge29" class="edge">
<title>Node8&#45;&gt;Node25</title>
<path fill="none" stroke="midnightblue" d="M685.71,-180.36C688.85,-179.85 691.97,-179.39 695,-179 908.26,-151.26 965.91,-163.62 1184,-143.05"/>
<polygon fill="midnightblue" stroke="midnightblue" points="1184.55,-146.51 1194.17,-142.07 1183.88,-139.54 1184.55,-146.51"/>
</g>
<!-- Node26 -->
<g id="node26" class="node">
<title>Node26</title>
<g id="a_node26"><a xlink:href="StarBehaviour_8hpp.html" target="_top" xlink:title=" ">
<polygon fill="none" stroke="black" points="1046,-123.5 1046,-142.5 1176,-142.5 1176,-123.5 1046,-123.5"/>
<text text-anchor="middle" x="1111" y="-130.5" font-family="Helvetica,sans-Serif" font-size="10.00">Scripts/StarBehaviour.hpp</text>
</a>
</g>
</g>
<!-- Node8&#45;&gt;Node26 -->
<g id="edge31" class="edge">
<title>Node8&#45;&gt;Node26</title>
<path fill="none" stroke="midnightblue" d="M685.73,-180.46C688.86,-179.94 691.98,-179.44 695,-179 842.98,-157.37 883.41,-160.1 1035.46,-143.15"/>
<polygon fill="midnightblue" stroke="midnightblue" points="1036.09,-146.6 1045.64,-142.01 1035.31,-139.65 1036.09,-146.6"/>
</g>
<!-- Node15 -->
<g id="node15" class="node">
<title>Node15</title>
<g id="a_node15"><a xlink:title=" ">
<polygon fill="none" stroke="#bfbfbf" points="1066,-67.5 1066,-86.5 1170,-86.5 1170,-67.5 1066,-67.5"/>
<text text-anchor="middle" x="1118" y="-74.5" font-family="Helvetica,sans-Serif" font-size="10.00">BehaviourScript.hpp</text>
</a>
</g>
</g>
<!-- Node14&#45;&gt;Node15 -->
<g id="edge15" class="edge">
<title>Node14&#45;&gt;Node15</title>
<path fill="none" stroke="midnightblue" d="M986.72,-123.44C1012.85,-114.4 1054.26,-100.06 1083.58,-89.92"/>
<polygon fill="midnightblue" stroke="midnightblue" points="1085.09,-93.1 1093.4,-86.52 1082.8,-86.48 1085.09,-93.1"/>
</g>
<!-- Node14&#45;&gt;Node16 -->
<g id="edge16" class="edge">
<title>Node14&#45;&gt;Node16</title>
<path fill="none" stroke="midnightblue" d="M946.25,-123.32C930.68,-114.74 906.62,-101.49 888.54,-91.52"/>
<polygon fill="midnightblue" stroke="midnightblue" points="890.15,-88.42 879.71,-86.65 886.78,-94.55 890.15,-88.42"/>
</g>
<!-- Node17 -->
<g id="node17" class="node">
<title>Node17</title>
<g id="a_node17"><a xlink:title=" ">
<polygon fill="none" stroke="#bfbfbf" points="1145.5,-0.5 1145.5,-30.5 1240.5,-30.5 1240.5,-0.5 1145.5,-0.5"/>
<text text-anchor="start" x="1153.5" y="-18.5" font-family="Helvetica,sans-Serif" font-size="10.00">boost/serialization</text>
<text text-anchor="middle" x="1193" y="-7.5" font-family="Helvetica,sans-Serif" font-size="10.00">/access.hpp</text>
</a>
</g>
</g>
<!-- Node14&#45;&gt;Node17 -->
<g id="edge26" class="edge">
<title>Node14&#45;&gt;Node17</title>
<path fill="none" stroke="midnightblue" d="M973.65,-123.5C995.04,-107.97 1039.96,-75.82 1057,-67 1082.37,-53.86 1111.96,-42.45 1137.05,-33.82"/>
<polygon fill="midnightblue" stroke="midnightblue" points="1138.43,-37.05 1146.79,-30.53 1136.19,-30.41 1138.43,-37.05"/>
</g>
<!-- Node18 -->
<g id="node18" class="node">
<title>Node18</title>
<g id="a_node18"><a xlink:title=" ">
<polygon fill="none" stroke="#bfbfbf" points="919.5,-0.5 919.5,-30.5 1014.5,-30.5 1014.5,-0.5 919.5,-0.5"/>
<text text-anchor="start" x="927.5" y="-18.5" font-family="Helvetica,sans-Serif" font-size="10.00">boost/serialization</text>
<text text-anchor="middle" x="967" y="-7.5" font-family="Helvetica,sans-Serif" font-size="10.00">/export.hpp</text>
</a>
</g>
</g>
<!-- Node14&#45;&gt;Node18 -->
<g id="edge27" class="edge">
<title>Node14&#45;&gt;Node18</title>
<path fill="none" stroke="midnightblue" d="M962.38,-123.32C963.13,-105.97 964.84,-66.46 965.95,-40.66"/>
<polygon fill="midnightblue" stroke="midnightblue" points="969.46,-40.69 966.39,-30.55 962.46,-40.38 969.46,-40.69"/>
</g>
<!-- Node19 -->
<g id="node19" class="node">
<title>Node19</title>
<g id="a_node19"><a xlink:title=" ">
<polygon fill="none" stroke="#bfbfbf" points="1032.5,-0.5 1032.5,-30.5 1127.5,-30.5 1127.5,-0.5 1032.5,-0.5"/>
<text text-anchor="start" x="1040.5" y="-18.5" font-family="Helvetica,sans-Serif" font-size="10.00">boost/serialization</text>
<text text-anchor="middle" x="1080" y="-7.5" font-family="Helvetica,sans-Serif" font-size="10.00">/shared_ptr.hpp</text>
</a>
</g>
</g>
<!-- Node14&#45;&gt;Node19 -->
<g id="edge28" class="edge">
<title>Node14&#45;&gt;Node19</title>
<path fill="none" stroke="midnightblue" d="M969.83,-123.39C981.4,-110.75 1003.87,-86.57 1024,-67 1034.22,-57.06 1045.88,-46.44 1055.9,-37.52"/>
<polygon fill="midnightblue" stroke="midnightblue" points="1058.36,-40.02 1063.53,-30.77 1053.72,-34.77 1058.36,-40.02"/>
</g>
<!-- Node16&#45;&gt;Node11 -->
<g id="edge17" class="edge">
<title>Node16&#45;&gt;Node11</title>
<path fill="none" stroke="midnightblue" d="M809.3,-75.88C721.76,-74.53 545.36,-67.07 401,-31 398.49,-30.37 395.92,-29.59 393.37,-28.73"/>
<polygon fill="midnightblue" stroke="midnightblue" points="394.41,-25.38 383.82,-25.07 391.91,-31.92 394.41,-25.38"/>
</g>
<!-- Node16&#45;&gt;Node17 -->
<g id="edge18" class="edge">
<title>Node16&#45;&gt;Node17</title>
<path fill="none" stroke="midnightblue" d="M918.66,-68.47C971.8,-60.81 1054.99,-47.95 1135.6,-31.2"/>
<polygon fill="midnightblue" stroke="midnightblue" points="1136.34,-34.62 1145.41,-29.13 1134.9,-27.77 1136.34,-34.62"/>
</g>
<!-- Node16&#45;&gt;Node18 -->
<g id="edge19" class="edge">
<title>Node16&#45;&gt;Node18</title>
<path fill="none" stroke="midnightblue" d="M878.76,-67.48C893.1,-59.19 915.37,-46.32 933.95,-35.59"/>
<polygon fill="midnightblue" stroke="midnightblue" points="935.82,-38.56 942.72,-30.52 932.32,-32.49 935.82,-38.56"/>
</g>
<!-- Node16&#45;&gt;Node19 -->
<g id="edge20" class="edge">
<title>Node16&#45;&gt;Node19</title>
<path fill="none" stroke="midnightblue" d="M894.95,-67.48C928.14,-58.33 981.59,-43.61 1022.54,-32.33"/>
<polygon fill="midnightblue" stroke="midnightblue" points="1023.68,-35.65 1032.39,-29.62 1021.82,-28.9 1023.68,-35.65"/>
</g>
<!-- Node20 -->
<g id="node20" class="node">
<title>Node20</title>
<g id="a_node20"><a xlink:title=" ">
<polygon fill="none" stroke="#bfbfbf" points="410,-0.5 410,-30.5 514,-30.5 514,-0.5 410,-0.5"/>
<text text-anchor="start" x="418" y="-18.5" font-family="Helvetica,sans-Serif" font-size="10.00">boost/archive/binary</text>
<text text-anchor="middle" x="462" y="-7.5" font-family="Helvetica,sans-Serif" font-size="10.00">_iarchive.hpp</text>
</a>
</g>
</g>
<!-- Node16&#45;&gt;Node20 -->
<g id="edge21" class="edge">
<title>Node16&#45;&gt;Node20</title>
<path fill="none" stroke="midnightblue" d="M809.4,-70.53C743.88,-63.59 630.54,-50.34 524.11,-31.09"/>
<polygon fill="midnightblue" stroke="midnightblue" points="524.64,-27.63 514.17,-29.27 523.38,-34.51 524.64,-27.63"/>
</g>
<!-- Node21 -->
<g id="node21" class="node">
<title>Node21</title>
<g id="a_node21"><a xlink:title=" ">
<polygon fill="none" stroke="#bfbfbf" points="532,-0.5 532,-30.5 636,-30.5 636,-0.5 532,-0.5"/>
<text text-anchor="start" x="540" y="-18.5" font-family="Helvetica,sans-Serif" font-size="10.00">boost/archive/binary</text>
<text text-anchor="middle" x="584" y="-7.5" font-family="Helvetica,sans-Serif" font-size="10.00">_oarchive.hpp</text>
</a>
</g>
</g>
<!-- Node16&#45;&gt;Node21 -->
<g id="edge22" class="edge">
<title>Node16&#45;&gt;Node21</title>
<path fill="none" stroke="midnightblue" d="M820.29,-67.43C778.1,-59.06 712.18,-45.75 645.98,-31.18"/>
<polygon fill="midnightblue" stroke="midnightblue" points="646.74,-27.77 636.22,-29.02 645.23,-34.6 646.74,-27.77"/>
</g>
<!-- Node22 -->
<g id="node22" class="node">
<title>Node22</title>
<g id="a_node22"><a xlink:title=" ">
<polygon fill="none" stroke="#bfbfbf" points="654.5,-6 654.5,-25 711.5,-25 711.5,-6 654.5,-6"/>
<text text-anchor="middle" x="683" y="-13" font-family="Helvetica,sans-Serif" font-size="10.00">Color.hpp</text>
</a>
</g>
</g>
<!-- Node16&#45;&gt;Node22 -->
<g id="edge23" class="edge">
<title>Node16&#45;&gt;Node22</title>
<path fill="none" stroke="midnightblue" d="M834.57,-67.47C805.32,-58.83 759.29,-44.82 720,-31 717.88,-30.26 715.71,-29.47 713.53,-28.66"/>
<polygon fill="midnightblue" stroke="midnightblue" points="714.63,-25.33 704.04,-25.04 712.13,-31.87 714.63,-25.33"/>
</g>
<!-- Node23 -->
<g id="node23" class="node">
<title>Node23</title>
<g id="a_node23"><a xlink:title=" ">
<polygon fill="none" stroke="#bfbfbf" points="729.5,-6 729.5,-25 808.5,-25 808.5,-6 729.5,-6"/>
<text text-anchor="middle" x="769" y="-13" font-family="Helvetica,sans-Serif" font-size="10.00">Transform.hpp</text>
</a>
</g>
</g>
<!-- Node16&#45;&gt;Node23 -->
<g id="edge24" class="edge">
<title>Node16&#45;&gt;Node23</title>
<path fill="none" stroke="midnightblue" d="M850.39,-67.48C834.94,-57.8 809.51,-41.87 791.18,-30.39"/>
<polygon fill="midnightblue" stroke="midnightblue" points="792.92,-27.35 782.59,-25.01 789.2,-33.28 792.92,-27.35"/>
</g>
<!-- Node24 -->
<g id="node24" class="node">
<title>Node24</title>
<g id="a_node24"><a xlink:title=" ">
<polygon fill="none" stroke="#bfbfbf" points="827,-6 827,-25 901,-25 901,-6 827,-6"/>
<text text-anchor="middle" x="864" y="-13" font-family="Helvetica,sans-Serif" font-size="10.00">UIObject.hpp</text>
</a>
</g>
</g>
<!-- Node16&#45;&gt;Node24 -->
<g id="edge25" class="edge">
<title>Node16&#45;&gt;Node24</title>
<path fill="none" stroke="midnightblue" d="M864,-67.48C864,-59.08 864,-45.98 864,-35.16"/>
<polygon fill="midnightblue" stroke="midnightblue" points="867.5,-35.01 864,-25.01 860.5,-35.01 867.5,-35.01"/>
</g>
<!-- Node25&#45;&gt;Node15 -->
<g id="edge30" class="edge">
<title>Node25&#45;&gt;Node15</title>
<path fill="none" stroke="midnightblue" d="M1237.5,-123.44C1213.92,-114.48 1176.68,-100.31 1150.04,-90.18"/>
<polygon fill="midnightblue" stroke="midnightblue" points="1150.99,-86.8 1140.4,-86.52 1148.5,-93.34 1150.99,-86.8"/>
</g>
<!-- Node26&#45;&gt;Node15 -->
<g id="edge32" class="edge">
<title>Node26&#45;&gt;Node15</title>
<path fill="none" stroke="midnightblue" d="M1112.16,-123.08C1113.08,-115.93 1114.42,-105.64 1115.58,-96.69"/>
<polygon fill="midnightblue" stroke="midnightblue" points="1119.05,-97.12 1116.87,-86.75 1112.11,-96.22 1119.05,-97.12"/>
</g>
</g>
</svg>
