<svg xmlns="http://www.w3.org/2000/svg" xmlns:xlink="http://www.w3.org/1999/xlink" width="340pt" height="140pt" viewBox="0 0 340 140"><g id="graph0" class="graph" transform="scale(1 1) rotate(0) translate(4 136)"><title>src/main.cpp</title><g id="node1" class="node"><title>Node1</title><g id="a_node1"><a><polygon fill="#bfbfbf" stroke="#000" points="179 -112.5 179 -131.5 251 -131.5 251 -112.5 179 -112.5"/><text x="215" y="-119.5" font-family="Helvetica,sans-Serif" font-size="10" text-anchor="middle">src/main.cpp</text></a></g></g><g id="node2" class="node"><title>Node2</title><g id="a_node2"><a><polygon fill="none" stroke="#bfbfbf" points="0 -56.5 0 -75.5 152 -75.5 152 -56.5 0 -56.5"/><text x="76" y="-63.5" font-family="Helvetica,sans-Serif" font-size="10" text-anchor="middle">Builder/GameObjectBuilder.hpp</text></a></g></g><g id="edge1" class="edge"><title>Node1-&gt;Node2</title><path fill="none" stroke="#191970" d="M192.98,-112.44C169.9,-103.48 133.44,-89.31 107.36,-79.18"/><polygon fill="#191970" stroke="#191970" points="108.51 -75.88 97.92 -75.52 105.98 -82.4 108.51 -75.88"/></g><g id="node3" class="node"><title>Node3</title><g id="a_node3"><a target="_top" xlink:href="Game_8hpp.html"><polygon fill="none" stroke="#000" points="170 -56.5 170 -75.5 260 -75.5 260 -56.5 170 -56.5"/><text x="215" y="-63.5" font-family="Helvetica,sans-Serif" font-size="10" text-anchor="middle">Game/Game.hpp</text></a></g></g><g id="edge2" class="edge"><title>Node1-&gt;Node3</title><path fill="none" stroke="#191970" d="M215,-112.08C215,-105.01 215,-94.86 215,-85.99"/><polygon fill="#191970" stroke="#191970" points="218.5 -85.75 215 -75.75 211.5 -85.75 218.5 -85.75"/></g><g id="node5" class="node"><title>Node5</title><g id="a_node5"><a><polygon fill="none" stroke="#bfbfbf" points="278 -56.5 278 -75.5 332 -75.5 332 -56.5 278 -56.5"/><text x="305" y="-63.5" font-family="Helvetica,sans-Serif" font-size="10" text-anchor="middle">iostream</text></a></g></g><g id="edge4" class="edge"><title>Node1-&gt;Node5</title><path fill="none" stroke="#191970" d="M229.46,-112.32C243.5,-103.9 265.05,-90.97 281.54,-81.07"/><polygon fill="#191970" stroke="#191970" points="283.8 -83.8 290.58 -75.65 280.2 -77.8 283.8 -83.8"/></g><g id="node4" class="node"><title>Node4</title><g id="a_node4"><a><polygon fill="none" stroke="#bfbfbf" points="167 -.5 167 -19.5 263 -19.5 263 -.5 167 -.5"/><text x="215" y="-7.5" font-family="Helvetica,sans-Serif" font-size="10" text-anchor="middle">Engine/Engine.hpp</text></a></g></g><g id="edge3" class="edge"><title>Node3-&gt;Node4</title><path fill="none" stroke="#191970" d="M215,-56.08C215,-49.01 215,-38.86 215,-29.99"/><polygon fill="#191970" stroke="#191970" points="218.5 -29.75 215 -19.75 211.5 -29.75 218.5 -29.75"/></g></g></svg>