<?xml version="1.0" encoding="UTF-8" standalone="no"?>
<!DOCTYPE svg PUBLIC "-//W3C//DTD SVG 1.1//EN"
 "http://www.w3.org/Graphics/SVG/1.1/DTD/svg11.dtd">
<!-- Generated by graphviz version 2.44.0 ()
 -->
<!-- Title: src/Game/Levels/MainMenu.cpp Pages: 1 -->
<!--zoomable 263 -->
<svg id="main" version="1.1" xmlns="http://www.w3.org/2000/svg" xmlns:xlink="http://www.w3.org/1999/xlink" xml:space="preserve" onload="init(evt)">
<style type="text/css"><![CDATA[
.edge:hover path { stroke: red; }
.edge:hover polygon { stroke: red; fill: red; }
]]></style>
<script type="text/javascript"><![CDATA[
var edges = document.getElementsByTagName('g');
if (edges && edges.length) {
  for (var i=0;i<edges.length;i++) {
    if (edges[i].id.substr(0,4)=='edge') {
      edges[i].setAttribute('class','edge');
    }
  }
}
]]></script>
        <defs>
                <circle id="rim" cx="0" cy="0" r="7"/>
                <circle id="rim2" cx="0" cy="0" r="3.5"/>
                <g id="zoomPlus">
                        <use xlink:href="#rim" fill="#404040">
                                <set attributeName="fill" to="#808080" begin="zoomplus.mouseover" end="zoomplus.mouseout"/>
                        </use>
                        <path d="M-4,0h8M0,-4v8" fill="none" stroke="white" stroke-width="1.5" pointer-events="none"/>
                </g>
                <g id="zoomMin">
                        <use xlink:href="#rim" fill="#404040">
                                <set attributeName="fill" to="#808080" begin="zoomminus.mouseover" end="zoomminus.mouseout"/>
                        </use>
                        <path d="M-4,0h8" fill="none" stroke="white" stroke-width="1.5" pointer-events="none"/>
                </g>
                <g id="dirArrow">
                        <path fill="none" stroke="white" stroke-width="1.5" d="M0,-3.0v7 M-2.5,-0.5L0,-3.0L2.5,-0.5"/>
                </g>
               <g id="resetDef">
                       <use xlink:href="#rim2" fill="#404040">
                               <set attributeName="fill" to="#808080" begin="reset.mouseover" end="reset.mouseout"/>
                       </use>
               </g>
        </defs>

<script type="text/javascript">
var viewWidth = 1398;
var viewHeight = 263;
var sectionId = 'dynsection-0';
</script>
<script xlink:href="svgpan.js"/>
<svg id="graph" class="graph">
<g id="viewport">
<title>src/Game/Levels/MainMenu.cpp</title>
<!-- Node1 -->
<g id="node1" class="node">
<title>Node1</title>
<g id="a_node1"><a xlink:title=" ">
<polygon fill="#bfbfbf" stroke="black" points="577.5,-235.5 577.5,-254.5 735.5,-254.5 735.5,-235.5 577.5,-235.5"/>
<text text-anchor="middle" x="656.5" y="-242.5" font-family="Helvetica,sans-Serif" font-size="10.00">src/Game/Levels/MainMenu.cpp</text>
</a>
</g>
</g>
<!-- Node2 -->
<g id="node2" class="node">
<title>Node2</title>
<g id="a_node2"><a xlink:href="MainMenu_8hpp.html" target="_top" xlink:title=" ">
<polygon fill="none" stroke="black" points="274.5,-179.5 274.5,-198.5 354.5,-198.5 354.5,-179.5 274.5,-179.5"/>
<text text-anchor="middle" x="314.5" y="-186.5" font-family="Helvetica,sans-Serif" font-size="10.00">MainMenu.hpp</text>
</a>
</g>
</g>
<!-- Node1&#45;&gt;Node2 -->
<g id="edge1" class="edge">
<title>Node1&#45;&gt;Node2</title>
<path fill="none" stroke="midnightblue" d="M602.31,-235.44C537.01,-225.13 428.18,-207.95 364.71,-197.93"/>
<polygon fill="midnightblue" stroke="midnightblue" points="364.97,-194.43 354.55,-196.32 363.88,-201.34 364.97,-194.43"/>
</g>
<!-- Node4 -->
<g id="node4" class="node">
<title>Node4</title>
<g id="a_node4"><a xlink:title=" ">
<polygon fill="none" stroke="#bfbfbf" points="400,-179.5 400,-198.5 561,-198.5 561,-179.5 400,-179.5"/>
<text text-anchor="middle" x="480.5" y="-186.5" font-family="Helvetica,sans-Serif" font-size="10.00">Behaviour/CollisionBehaviour.hpp</text>
</a>
</g>
</g>
<!-- Node1&#45;&gt;Node4 -->
<g id="edge3" class="edge">
<title>Node1&#45;&gt;Node4</title>
<path fill="none" stroke="midnightblue" d="M628.61,-235.44C598.75,-226.28 551.19,-211.69 518.04,-201.52"/>
<polygon fill="midnightblue" stroke="midnightblue" points="518.84,-198.1 508.26,-198.52 516.79,-204.8 518.84,-198.1"/>
</g>
<!-- Node5 -->
<g id="node5" class="node">
<title>Node5</title>
<g id="a_node5"><a xlink:title=" ">
<polygon fill="none" stroke="#bfbfbf" points="245.5,-123.5 245.5,-142.5 405.5,-142.5 405.5,-123.5 245.5,-123.5"/>
<text text-anchor="middle" x="325.5" y="-130.5" font-family="Helvetica,sans-Serif" font-size="10.00">Director/GameObjectDirector.hpp</text>
</a>
</g>
</g>
<!-- Node1&#45;&gt;Node5 -->
<g id="edge4" class="edge">
<title>Node1&#45;&gt;Node5</title>
<path fill="none" stroke="midnightblue" d="M647.75,-235.23C633,-220.99 601.63,-193.04 569.5,-179 539.79,-166.02 460.65,-152.74 400.48,-144.01"/>
<polygon fill="midnightblue" stroke="midnightblue" points="400.64,-140.49 390.24,-142.54 399.64,-147.42 400.64,-140.49"/>
</g>
<!-- Node6 -->
<g id="node6" class="node">
<title>Node6</title>
<g id="a_node6"><a xlink:title=" ">
<polygon fill="none" stroke="#bfbfbf" points="713.5,-179.5 713.5,-198.5 809.5,-198.5 809.5,-179.5 713.5,-179.5"/>
<text text-anchor="middle" x="761.5" y="-186.5" font-family="Helvetica,sans-Serif" font-size="10.00">Engine/Engine.hpp</text>
</a>
</g>
</g>
<!-- Node1&#45;&gt;Node6 -->
<g id="edge5" class="edge">
<title>Node1&#45;&gt;Node6</title>
<path fill="none" stroke="midnightblue" d="M673.37,-235.32C690.21,-226.66 716.31,-213.24 735.74,-203.25"/>
<polygon fill="midnightblue" stroke="midnightblue" points="737.38,-206.34 744.67,-198.65 734.18,-200.12 737.38,-206.34"/>
</g>
<!-- Node7 -->
<g id="node7" class="node">
<title>Node7</title>
<g id="a_node7"><a xlink:href="TileConfig_8hpp.html" target="_top" xlink:title=" ">
<polygon fill="none" stroke="black" points="618,-179.5 618,-198.5 695,-198.5 695,-179.5 618,-179.5"/>
<text text-anchor="middle" x="656.5" y="-186.5" font-family="Helvetica,sans-Serif" font-size="10.00">TileConfig.hpp</text>
</a>
</g>
</g>
<!-- Node1&#45;&gt;Node7 -->
<g id="edge6" class="edge">
<title>Node1&#45;&gt;Node7</title>
<path fill="none" stroke="midnightblue" d="M656.5,-235.08C656.5,-228.01 656.5,-217.86 656.5,-208.99"/>
<polygon fill="midnightblue" stroke="midnightblue" points="660,-208.75 656.5,-198.75 653,-208.75 660,-208.75"/>
</g>
<!-- Node26 -->
<g id="node26" class="node">
<title>Node26</title>
<g id="a_node26"><a xlink:title=" ">
<polygon fill="none" stroke="#bfbfbf" points="828,-179.5 828,-198.5 929,-198.5 929,-179.5 828,-179.5"/>
<text text-anchor="middle" x="878.5" y="-186.5" font-family="Helvetica,sans-Serif" font-size="10.00">UI/FPSCounter.hpp</text>
</a>
</g>
</g>
<!-- Node1&#45;&gt;Node26 -->
<g id="edge33" class="edge">
<title>Node1&#45;&gt;Node26</title>
<path fill="none" stroke="midnightblue" d="M691.68,-235.44C730.08,-226.1 791.68,-211.12 833.56,-200.93"/>
<polygon fill="midnightblue" stroke="midnightblue" points="834.6,-204.28 843.49,-198.52 832.94,-197.48 834.6,-204.28"/>
</g>
<!-- Node27 -->
<g id="node27" class="node">
<title>Node27</title>
<g id="a_node27"><a xlink:title=" ">
<polygon fill="none" stroke="#bfbfbf" points="947.5,-179.5 947.5,-198.5 1037.5,-198.5 1037.5,-179.5 947.5,-179.5"/>
<text text-anchor="middle" x="992.5" y="-186.5" font-family="Helvetica,sans-Serif" font-size="10.00">AudioSource.hpp</text>
</a>
</g>
</g>
<!-- Node1&#45;&gt;Node27 -->
<g id="edge34" class="edge">
<title>Node1&#45;&gt;Node27</title>
<path fill="none" stroke="midnightblue" d="M710.58,-235.48C765.2,-226.86 852.28,-213.03 937.33,-199.18"/>
<polygon fill="midnightblue" stroke="midnightblue" points="938.12,-202.6 947.42,-197.54 936.99,-195.69 938.12,-202.6"/>
</g>
<!-- Node3 -->
<g id="node3" class="node">
<title>Node3</title>
<g id="a_node3"><a xlink:title=" ">
<polygon fill="none" stroke="#bfbfbf" points="165.5,-123.5 165.5,-142.5 227.5,-142.5 227.5,-123.5 165.5,-123.5"/>
<text text-anchor="middle" x="196.5" y="-130.5" font-family="Helvetica,sans-Serif" font-size="10.00">Scene.hpp</text>
</a>
</g>
</g>
<!-- Node2&#45;&gt;Node3 -->
<g id="edge2" class="edge">
<title>Node2&#45;&gt;Node3</title>
<path fill="none" stroke="midnightblue" d="M295.8,-179.44C276.56,-170.64 246.35,-156.81 224.3,-146.72"/>
<polygon fill="midnightblue" stroke="midnightblue" points="225.66,-143.5 215.11,-142.52 222.75,-149.86 225.66,-143.5"/>
</g>
<!-- Node7&#45;&gt;Node5 -->
<g id="edge12" class="edge">
<title>Node7&#45;&gt;Node5</title>
<path fill="none" stroke="midnightblue" d="M617.72,-181.38C612.93,-180.57 608.1,-179.76 603.5,-179 529.94,-166.8 445.36,-153.17 389,-144.14"/>
<polygon fill="midnightblue" stroke="midnightblue" points="389.24,-140.63 378.81,-142.5 388.14,-147.54 389.24,-140.63"/>
</g>
<!-- Node8 -->
<g id="node8" class="node">
<title>Node8</title>
<g id="a_node8"><a xlink:title=" ">
<polygon fill="none" stroke="#bfbfbf" points="1278,-123.5 1278,-142.5 1337,-142.5 1337,-123.5 1278,-123.5"/>
<text text-anchor="middle" x="1307.5" y="-130.5" font-family="Helvetica,sans-Serif" font-size="10.00">functional</text>
</a>
</g>
</g>
<!-- Node7&#45;&gt;Node8 -->
<g id="edge7" class="edge">
<title>Node7&#45;&gt;Node8</title>
<path fill="none" stroke="midnightblue" d="M695.21,-180.32C698.35,-179.83 701.47,-179.38 704.5,-179 950.88,-148.17 1018.85,-179.28 1267.65,-143.04"/>
<polygon fill="midnightblue" stroke="midnightblue" points="1268.34,-146.48 1277.72,-141.55 1267.32,-139.56 1268.34,-146.48"/>
</g>
<!-- Node9 -->
<g id="node9" class="node">
<title>Node9</title>
<g id="a_node9"><a xlink:title=" ">
<polygon fill="none" stroke="#bfbfbf" points="1355,-123.5 1355,-142.5 1390,-142.5 1390,-123.5 1355,-123.5"/>
<text text-anchor="middle" x="1372.5" y="-130.5" font-family="Helvetica,sans-Serif" font-size="10.00">map</text>
</a>
</g>
</g>
<!-- Node7&#45;&gt;Node9 -->
<g id="edge8" class="edge">
<title>Node7&#45;&gt;Node9</title>
<path fill="none" stroke="midnightblue" d="M695.21,-180.3C698.34,-179.81 701.47,-179.37 704.5,-179 984.88,-145 1064.26,-197.03 1344.71,-142.83"/>
<polygon fill="midnightblue" stroke="midnightblue" points="1345.64,-146.22 1354.78,-140.86 1344.29,-139.35 1345.64,-146.22"/>
</g>
<!-- Node10 -->
<g id="node10" class="node">
<title>Node10</title>
<g id="a_node10"><a xlink:title=" ">
<polygon fill="none" stroke="#bfbfbf" points="0,-6 0,-25 51,-25 51,-6 0,-6"/>
<text text-anchor="middle" x="25.5" y="-13" font-family="Helvetica,sans-Serif" font-size="10.00">memory</text>
</a>
</g>
</g>
<!-- Node7&#45;&gt;Node10 -->
<g id="edge9" class="edge">
<title>Node7&#45;&gt;Node10</title>
<path fill="none" stroke="midnightblue" d="M625.2,-179.5C579.1,-167 490.21,-142.98 414.5,-123 256.9,-81.42 213.78,-83.56 59.5,-31 57.63,-30.36 55.72,-29.67 53.81,-28.94"/>
<polygon fill="midnightblue" stroke="midnightblue" points="54.95,-25.63 44.37,-25.14 52.33,-32.12 54.95,-25.63"/>
</g>
<!-- Node11 -->
<g id="node11" class="node">
<title>Node11</title>
<g id="a_node11"><a xlink:title=" ">
<polygon fill="none" stroke="#bfbfbf" points="964.5,-123.5 964.5,-142.5 1116.5,-142.5 1116.5,-123.5 964.5,-123.5"/>
<text text-anchor="middle" x="1040.5" y="-130.5" font-family="Helvetica,sans-Serif" font-size="10.00">Builder/GameObjectBuilder.hpp</text>
</a>
</g>
</g>
<!-- Node7&#45;&gt;Node11 -->
<g id="edge10" class="edge">
<title>Node7&#45;&gt;Node11</title>
<path fill="none" stroke="midnightblue" d="M695.24,-180.56C698.37,-180.01 701.49,-179.48 704.5,-179 790.86,-165.13 890.19,-152.2 958.33,-143.79"/>
<polygon fill="midnightblue" stroke="midnightblue" points="959.07,-147.22 968.57,-142.53 958.22,-140.28 959.07,-147.22"/>
</g>
<!-- Node12 -->
<g id="node12" class="node">
<title>Node12</title>
<g id="a_node12"><a xlink:title=" ">
<polygon fill="none" stroke="#bfbfbf" points="1135,-123.5 1135,-142.5 1260,-142.5 1260,-123.5 1135,-123.5"/>
<text text-anchor="middle" x="1197.5" y="-130.5" font-family="Helvetica,sans-Serif" font-size="10.00">Builder/SceneBuilder.hpp</text>
</a>
</g>
</g>
<!-- Node7&#45;&gt;Node12 -->
<g id="edge11" class="edge">
<title>Node7&#45;&gt;Node12</title>
<path fill="none" stroke="midnightblue" d="M695.22,-180.4C698.35,-179.89 701.48,-179.41 704.5,-179 887.31,-154.11 937,-162.34 1124.49,-143.06"/>
<polygon fill="midnightblue" stroke="midnightblue" points="1125.1,-146.52 1134.69,-142 1124.38,-139.55 1125.1,-146.52"/>
</g>
<!-- Node13 -->
<g id="node13" class="node">
<title>Node13</title>
<g id="a_node13"><a xlink:href="CoinBehaviour_8hpp.html" target="_top" xlink:title=" ">
<polygon fill="none" stroke="black" points="517,-123.5 517,-142.5 648,-142.5 648,-123.5 517,-123.5"/>
<text text-anchor="middle" x="582.5" y="-130.5" font-family="Helvetica,sans-Serif" font-size="10.00">Scripts/CoinBehaviour.hpp</text>
</a>
</g>
</g>
<!-- Node7&#45;&gt;Node13 -->
<g id="edge13" class="edge">
<title>Node7&#45;&gt;Node13</title>
<path fill="none" stroke="midnightblue" d="M644.61,-179.32C633.35,-171.11 616.21,-158.6 602.79,-148.81"/>
<polygon fill="midnightblue" stroke="midnightblue" points="604.75,-145.9 594.61,-142.83 600.62,-151.56 604.75,-145.9"/>
</g>
<!-- Node15 -->
<g id="node15" class="node">
<title>Node15</title>
<g id="a_node15"><a xlink:href="CoinCounter_8hpp.html" target="_top" xlink:title=" ">
<polygon fill="none" stroke="black" points="453,-67.5 453,-86.5 562,-86.5 562,-67.5 453,-67.5"/>
<text text-anchor="middle" x="507.5" y="-74.5" font-family="Helvetica,sans-Serif" font-size="10.00">../UI/CoinCounter.hpp</text>
</a>
</g>
</g>
<!-- Node7&#45;&gt;Node15 -->
<g id="edge32" class="edge">
<title>Node7&#45;&gt;Node15</title>
<path fill="none" stroke="midnightblue" d="M617.72,-181.63C578.14,-174.25 520.71,-160.79 507.5,-143 497.73,-129.85 499.04,-110.71 502.01,-96.6"/>
<polygon fill="midnightblue" stroke="midnightblue" points="505.49,-97.13 504.56,-86.58 498.7,-95.4 505.49,-97.13"/>
</g>
<!-- Node24 -->
<g id="node24" class="node">
<title>Node24</title>
<g id="a_node24"><a xlink:href="FlagBehaviour_8hpp.html" target="_top" xlink:title=" ">
<polygon fill="none" stroke="black" points="815,-123.5 815,-142.5 946,-142.5 946,-123.5 815,-123.5"/>
<text text-anchor="middle" x="880.5" y="-130.5" font-family="Helvetica,sans-Serif" font-size="10.00">Scripts/FlagBehaviour.hpp</text>
</a>
</g>
</g>
<!-- Node7&#45;&gt;Node24 -->
<g id="edge28" class="edge">
<title>Node7&#45;&gt;Node24</title>
<path fill="none" stroke="midnightblue" d="M691.99,-179.44C730.82,-170.08 793.16,-155.06 835.42,-144.87"/>
<polygon fill="midnightblue" stroke="midnightblue" points="836.27,-148.26 845.17,-142.52 834.63,-141.46 836.27,-148.26"/>
</g>
<!-- Node25 -->
<g id="node25" class="node">
<title>Node25</title>
<g id="a_node25"><a xlink:href="StarBehaviour_8hpp.html" target="_top" xlink:title=" ">
<polygon fill="none" stroke="black" points="666.5,-123.5 666.5,-142.5 796.5,-142.5 796.5,-123.5 666.5,-123.5"/>
<text text-anchor="middle" x="731.5" y="-130.5" font-family="Helvetica,sans-Serif" font-size="10.00">Scripts/StarBehaviour.hpp</text>
</a>
</g>
</g>
<!-- Node7&#45;&gt;Node25 -->
<g id="edge30" class="edge">
<title>Node7&#45;&gt;Node25</title>
<path fill="none" stroke="midnightblue" d="M668.55,-179.32C679.96,-171.11 697.33,-158.6 710.93,-148.81"/>
<polygon fill="midnightblue" stroke="midnightblue" points="713.16,-151.52 719.23,-142.83 709.07,-145.84 713.16,-151.52"/>
</g>
<!-- Node14 -->
<g id="node14" class="node">
<title>Node14</title>
<g id="a_node14"><a xlink:title=" ">
<polygon fill="none" stroke="#bfbfbf" points="694.5,-67.5 694.5,-86.5 798.5,-86.5 798.5,-67.5 694.5,-67.5"/>
<text text-anchor="middle" x="746.5" y="-74.5" font-family="Helvetica,sans-Serif" font-size="10.00">BehaviourScript.hpp</text>
</a>
</g>
</g>
<!-- Node13&#45;&gt;Node14 -->
<g id="edge14" class="edge">
<title>Node13&#45;&gt;Node14</title>
<path fill="none" stroke="midnightblue" d="M608.49,-123.44C636.2,-114.32 680.25,-99.81 711.12,-89.65"/>
<polygon fill="midnightblue" stroke="midnightblue" points="712.23,-92.97 720.64,-86.52 710.04,-86.32 712.23,-92.97"/>
</g>
<!-- Node13&#45;&gt;Node15 -->
<g id="edge15" class="edge">
<title>Node13&#45;&gt;Node15</title>
<path fill="none" stroke="midnightblue" d="M570.45,-123.32C559.04,-115.11 541.67,-102.6 528.07,-92.81"/>
<polygon fill="midnightblue" stroke="midnightblue" points="529.93,-89.84 519.77,-86.83 525.84,-95.52 529.93,-89.84"/>
</g>
<!-- Node16 -->
<g id="node16" class="node">
<title>Node16</title>
<g id="a_node16"><a xlink:title=" ">
<polygon fill="none" stroke="#bfbfbf" points="578,-0.5 578,-30.5 673,-30.5 673,-0.5 578,-0.5"/>
<text text-anchor="start" x="586" y="-18.5" font-family="Helvetica,sans-Serif" font-size="10.00">boost/serialization</text>
<text text-anchor="middle" x="625.5" y="-7.5" font-family="Helvetica,sans-Serif" font-size="10.00">/access.hpp</text>
</a>
</g>
</g>
<!-- Node13&#45;&gt;Node16 -->
<g id="edge25" class="edge">
<title>Node13&#45;&gt;Node16</title>
<path fill="none" stroke="midnightblue" d="M585.73,-123.32C592.25,-105.81 607.16,-65.75 616.76,-39.97"/>
<polygon fill="midnightblue" stroke="midnightblue" points="620.06,-41.14 620.27,-30.55 613.5,-38.7 620.06,-41.14"/>
</g>
<!-- Node17 -->
<g id="node17" class="node">
<title>Node17</title>
<g id="a_node17"><a xlink:title=" ">
<polygon fill="none" stroke="#bfbfbf" points="691,-0.5 691,-30.5 786,-30.5 786,-0.5 691,-0.5"/>
<text text-anchor="start" x="699" y="-18.5" font-family="Helvetica,sans-Serif" font-size="10.00">boost/serialization</text>
<text text-anchor="middle" x="738.5" y="-7.5" font-family="Helvetica,sans-Serif" font-size="10.00">/export.hpp</text>
</a>
</g>
</g>
<!-- Node13&#45;&gt;Node17 -->
<g id="edge26" class="edge">
<title>Node13&#45;&gt;Node17</title>
<path fill="none" stroke="midnightblue" d="M590.6,-123.36C603.12,-110.27 628.28,-85.02 652.5,-67 668.06,-55.42 686.47,-44.31 702.25,-35.47"/>
<polygon fill="midnightblue" stroke="midnightblue" points="704.13,-38.43 711.2,-30.54 700.76,-32.3 704.13,-38.43"/>
</g>
<!-- Node18 -->
<g id="node18" class="node">
<title>Node18</title>
<g id="a_node18"><a xlink:title=" ">
<polygon fill="none" stroke="#bfbfbf" points="804,-0.5 804,-30.5 899,-30.5 899,-0.5 804,-0.5"/>
<text text-anchor="start" x="812" y="-18.5" font-family="Helvetica,sans-Serif" font-size="10.00">boost/serialization</text>
<text text-anchor="middle" x="851.5" y="-7.5" font-family="Helvetica,sans-Serif" font-size="10.00">/shared_ptr.hpp</text>
</a>
</g>
</g>
<!-- Node13&#45;&gt;Node18 -->
<g id="edge27" class="edge">
<title>Node13&#45;&gt;Node18</title>
<path fill="none" stroke="midnightblue" d="M596.05,-123.32C622.92,-106.11 680.79,-69.16 685.5,-67 705.05,-58.06 754.4,-43.39 794.25,-32.16"/>
<polygon fill="midnightblue" stroke="midnightblue" points="795.2,-35.52 803.89,-29.45 793.31,-28.78 795.2,-35.52"/>
</g>
<!-- Node15&#45;&gt;Node10 -->
<g id="edge16" class="edge">
<title>Node15&#45;&gt;Node10</title>
<path fill="none" stroke="midnightblue" d="M452.91,-68.7C448.04,-68.1 443.18,-67.53 438.5,-67 270.36,-48.05 223.49,-72.68 59.5,-31 57.14,-30.4 54.73,-29.66 52.34,-28.83"/>
<polygon fill="midnightblue" stroke="midnightblue" points="53.37,-25.48 42.79,-25.09 50.82,-32 53.37,-25.48"/>
</g>
<!-- Node15&#45;&gt;Node16 -->
<g id="edge17" class="edge">
<title>Node15&#45;&gt;Node16</title>
<path fill="none" stroke="midnightblue" d="M524.41,-67.48C541.06,-59.08 567.05,-45.97 588.51,-35.15"/>
<polygon fill="midnightblue" stroke="midnightblue" points="590.34,-38.15 597.69,-30.52 587.18,-31.9 590.34,-38.15"/>
</g>
<!-- Node15&#45;&gt;Node17 -->
<g id="edge18" class="edge">
<title>Node15&#45;&gt;Node17</title>
<path fill="none" stroke="midnightblue" d="M540.73,-67.47C573.94,-58.95 626.73,-45.38 681.05,-31.37"/>
<polygon fill="midnightblue" stroke="midnightblue" points="682.03,-34.73 690.84,-28.85 680.29,-27.95 682.03,-34.73"/>
</g>
<!-- Node15&#45;&gt;Node18 -->
<g id="edge19" class="edge">
<title>Node15&#45;&gt;Node18</title>
<path fill="none" stroke="midnightblue" d="M562.2,-69.09C618.19,-61.64 707.88,-48.71 793.98,-31.2"/>
<polygon fill="midnightblue" stroke="midnightblue" points="794.83,-34.6 803.92,-29.16 793.42,-27.75 794.83,-34.6"/>
</g>
<!-- Node19 -->
<g id="node19" class="node">
<title>Node19</title>
<g id="a_node19"><a xlink:title=" ">
<polygon fill="none" stroke="#bfbfbf" points="333.5,-0.5 333.5,-30.5 437.5,-30.5 437.5,-0.5 333.5,-0.5"/>
<text text-anchor="start" x="341.5" y="-18.5" font-family="Helvetica,sans-Serif" font-size="10.00">boost/archive/binary</text>
<text text-anchor="middle" x="385.5" y="-7.5" font-family="Helvetica,sans-Serif" font-size="10.00">_iarchive.hpp</text>
</a>
</g>
</g>
<!-- Node15&#45;&gt;Node19 -->
<g id="edge20" class="edge">
<title>Node15&#45;&gt;Node19</title>
<path fill="none" stroke="midnightblue" d="M490.02,-67.48C472.73,-59.04 445.69,-45.86 423.45,-35.01"/>
<polygon fill="midnightblue" stroke="midnightblue" points="424.78,-31.76 414.25,-30.52 421.71,-38.05 424.78,-31.76"/>
</g>
<!-- Node20 -->
<g id="node20" class="node">
<title>Node20</title>
<g id="a_node20"><a xlink:title=" ">
<polygon fill="none" stroke="#bfbfbf" points="455.5,-0.5 455.5,-30.5 559.5,-30.5 559.5,-0.5 455.5,-0.5"/>
<text text-anchor="start" x="463.5" y="-18.5" font-family="Helvetica,sans-Serif" font-size="10.00">boost/archive/binary</text>
<text text-anchor="middle" x="507.5" y="-7.5" font-family="Helvetica,sans-Serif" font-size="10.00">_oarchive.hpp</text>
</a>
</g>
</g>
<!-- Node15&#45;&gt;Node20 -->
<g id="edge21" class="edge">
<title>Node15&#45;&gt;Node20</title>
<path fill="none" stroke="midnightblue" d="M507.5,-67.48C507.5,-60.47 507.5,-50.19 507.5,-40.7"/>
<polygon fill="midnightblue" stroke="midnightblue" points="511,-40.52 507.5,-30.52 504,-40.52 511,-40.52"/>
</g>
<!-- Node21 -->
<g id="node21" class="node">
<title>Node21</title>
<g id="a_node21"><a xlink:title=" ">
<polygon fill="none" stroke="#bfbfbf" points="69,-6 69,-25 126,-25 126,-6 69,-6"/>
<text text-anchor="middle" x="97.5" y="-13" font-family="Helvetica,sans-Serif" font-size="10.00">Color.hpp</text>
</a>
</g>
</g>
<!-- Node15&#45;&gt;Node21 -->
<g id="edge22" class="edge">
<title>Node15&#45;&gt;Node21</title>
<path fill="none" stroke="midnightblue" d="M452.89,-68.82C448.03,-68.2 443.18,-67.58 438.5,-67 303.49,-50.2 266.47,-64.09 134.5,-31 131.83,-30.33 129.1,-29.52 126.38,-28.62"/>
<polygon fill="midnightblue" stroke="midnightblue" points="127.38,-25.26 116.78,-25.13 124.98,-31.84 127.38,-25.26"/>
</g>
<!-- Node22 -->
<g id="node22" class="node">
<title>Node22</title>
<g id="a_node22"><a xlink:title=" ">
<polygon fill="none" stroke="#bfbfbf" points="144,-6 144,-25 223,-25 223,-6 144,-6"/>
<text text-anchor="middle" x="183.5" y="-13" font-family="Helvetica,sans-Serif" font-size="10.00">Transform.hpp</text>
</a>
</g>
</g>
<!-- Node15&#45;&gt;Node22 -->
<g id="edge23" class="edge">
<title>Node15&#45;&gt;Node22</title>
<path fill="none" stroke="midnightblue" d="M452.97,-67.91C385.18,-57.7 273.41,-40.36 232.5,-31 228.37,-30.05 224.07,-28.96 219.81,-27.79"/>
<polygon fill="midnightblue" stroke="midnightblue" points="220.62,-24.39 210.04,-25.01 218.7,-31.12 220.62,-24.39"/>
</g>
<!-- Node23 -->
<g id="node23" class="node">
<title>Node23</title>
<g id="a_node23"><a xlink:title=" ">
<polygon fill="none" stroke="#bfbfbf" points="241.5,-6 241.5,-25 315.5,-25 315.5,-6 241.5,-6"/>
<text text-anchor="middle" x="278.5" y="-13" font-family="Helvetica,sans-Serif" font-size="10.00">UIObject.hpp</text>
</a>
</g>
</g>
<!-- Node15&#45;&gt;Node23 -->
<g id="edge24" class="edge">
<title>Node15&#45;&gt;Node23</title>
<path fill="none" stroke="midnightblue" d="M469.81,-67.48C432.69,-58.91 374.43,-44.99 324.5,-31 321.17,-30.07 317.73,-29.06 314.28,-28.02"/>
<polygon fill="midnightblue" stroke="midnightblue" points="315.27,-24.67 304.68,-25.07 313.21,-31.36 315.27,-24.67"/>
</g>
<!-- Node24&#45;&gt;Node14 -->
<g id="edge29" class="edge">
<title>Node24&#45;&gt;Node14</title>
<path fill="none" stroke="midnightblue" d="M859.27,-123.44C837.12,-114.52 802.18,-100.44 777.06,-90.32"/>
<polygon fill="midnightblue" stroke="midnightblue" points="778.22,-87.01 767.63,-86.52 775.6,-93.5 778.22,-87.01"/>
</g>
<!-- Node25&#45;&gt;Node14 -->
<g id="edge31" class="edge">
<title>Node25&#45;&gt;Node14</title>
<path fill="none" stroke="midnightblue" d="M733.98,-123.08C735.99,-115.85 738.89,-105.41 741.39,-96.4"/>
<polygon fill="midnightblue" stroke="midnightblue" points="744.76,-97.32 744.07,-86.75 738.02,-95.45 744.76,-97.32"/>
</g>
</g>
</svg>
        <g id="navigator" transform="translate(0 0)" fill="#404254">
                <rect fill="#f2f5e9" fill-opacity="0.5" stroke="#606060" stroke-width=".5" x="0" y="0" width="60" height="60"/>
                <use id="zoomplus" xlink:href="#zoomPlus" x="17" y="9" onmousedown="handleZoom(evt,'in')"/>
                <use id="zoomminus" xlink:href="#zoomMin" x="42" y="9" onmousedown="handleZoom(evt,'out')"/>
                <use id="reset" xlink:href="#resetDef" x="30" y="36" onmousedown="handleReset()"/>
                <g id="arrowUp" xlink:href="#dirArrow" transform="translate(30 24)" onmousedown="handlePan(0,-1)">
                  <use xlink:href="#rim" fill="#404040">
                        <set attributeName="fill" to="#808080" begin="arrowUp.mouseover" end="arrowUp.mouseout"/>
                  </use>
                  <path fill="none" stroke="white" stroke-width="1.5" d="M0,-3.0v7 M-2.5,-0.5L0,-3.0L2.5,-0.5"/>
                </g>
                <g id="arrowRight" xlink:href="#dirArrow" transform="rotate(90) translate(36 -43)" onmousedown="handlePan(1,0)">
                  <use xlink:href="#rim" fill="#404040">
                        <set attributeName="fill" to="#808080" begin="arrowRight.mouseover" end="arrowRight.mouseout"/>
                  </use>
                  <path fill="none" stroke="white" stroke-width="1.5" d="M0,-3.0v7 M-2.5,-0.5L0,-3.0L2.5,-0.5"/>
                </g>
                <g id="arrowDown" xlink:href="#dirArrow" transform="rotate(180) translate(-30 -48)" onmousedown="handlePan(0,1)">
                  <use xlink:href="#rim" fill="#404040">
                        <set attributeName="fill" to="#808080" begin="arrowDown.mouseover" end="arrowDown.mouseout"/>
                  </use>
                  <path fill="none" stroke="white" stroke-width="1.5" d="M0,-3.0v7 M-2.5,-0.5L0,-3.0L2.5,-0.5"/>
                </g>
                <g id="arrowLeft" xlink:href="#dirArrow" transform="rotate(270) translate(-36 17)" onmousedown="handlePan(-1,0)">
                  <use xlink:href="#rim" fill="#404040">
                        <set attributeName="fill" to="#808080" begin="arrowLeft.mouseover" end="arrowLeft.mouseout"/>
                  </use>
                  <path fill="none" stroke="white" stroke-width="1.5" d="M0,-3.0v7 M-2.5,-0.5L0,-3.0L2.5,-0.5"/>
                </g>
        </g>
        <svg viewBox="0 0 15 15" width="100%" height="30px" preserveAspectRatio="xMaxYMin meet">
         <g id="arrow_out" transform="scale(0.3 0.3)">
          <a xlink:href="MainMenu_8cpp__incl_org.svg" target="_base">
           <rect id="button" ry="5" rx="5" y="6" x="6" height="38" width="38"
                fill="#f2f5e9" fill-opacity="0.5" stroke="#606060" stroke-width="1.0"/>
           <path id="arrow"
             d="M 11.500037,31.436501 C 11.940474,20.09759 22.043105,11.32322 32.158766,21.979434 L 37.068811,17.246167 C 37.068811,17.246167 37.088388,32 37.088388,32 L 22.160133,31.978069 C 22.160133,31.978069 26.997745,27.140456 26.997745,27.140456 C 18.528582,18.264221 13.291696,25.230495 11.500037,31.436501 z"
             style="fill:#404040;"/>
          </a>
         </g>
        </svg>
</svg>
