<?xml version="1.0" encoding="UTF-8" standalone="no"?>
<!DOCTYPE svg PUBLIC "-//W3C//DTD SVG 1.1//EN"
 "http://www.w3.org/Graphics/SVG/1.1/DTD/svg11.dtd">
<!-- Generated by graphviz version 2.44.0 ()
 -->
<!-- Title: src/Scripts/MarioStates/MarioState.hpp Pages: 1 -->
<svg width="663pt" height="240pt"
 viewBox="0.00 0.00 663.00 240.00" xmlns="http://www.w3.org/2000/svg" xmlns:xlink="http://www.w3.org/1999/xlink">
<g id="graph0" class="graph" transform="scale(1 1) rotate(0) translate(4 236)">
<title>src/Scripts/MarioStates/MarioState.hpp</title>
<!-- Node1 -->
<g id="node1" class="node">
<title>Node1</title>
<g id="a_node1"><a xlink:title=" ">
<polygon fill="#bfbfbf" stroke="black" points="322.5,-201.5 322.5,-231.5 441.5,-231.5 441.5,-201.5 322.5,-201.5"/>
<text text-anchor="start" x="330.5" y="-219.5" font-family="Helvetica,sans-Serif" font-size="10.00">src/Scripts/MarioStates</text>
<text text-anchor="middle" x="382" y="-208.5" font-family="Helvetica,sans-Serif" font-size="10.00">/MarioState.hpp</text>
</a>
</g>
</g>
<!-- Node2 -->
<g id="node2" class="node">
<title>Node2</title>
<g id="a_node2"><a xlink:href="MarioBehaviour_8hpp.html" target="_top" xlink:title=" ">
<polygon fill="none" stroke="black" points="152,-73 152,-92 304,-92 304,-73 152,-73"/>
<text text-anchor="middle" x="228" y="-80" font-family="Helvetica,sans-Serif" font-size="10.00">src/Scripts/MarioBehaviour.hpp</text>
</a>
</g>
</g>
<!-- Node1&#45;&gt;Node2 -->
<g id="edge1" class="edge">
<title>Node1&#45;&gt;Node2</title>
<path fill="none" stroke="midnightblue" d="M352.92,-195.52C340.35,-186.55 325.66,-175.62 313,-165 283.56,-140.3 251.52,-107.92 236.57,-92.47"/>
<polygon fill="midnightblue" stroke="midnightblue" points="351.04,-198.48 361.23,-201.38 355.08,-192.76 351.04,-198.48"/>
</g>
<!-- Node7 -->
<g id="node7" class="node">
<title>Node7</title>
<g id="a_node7"><a xlink:href="SmallMarioState_8hpp.html" target="_top" xlink:title=" ">
<polygon fill="none" stroke="black" points="322.5,-134.5 322.5,-164.5 441.5,-164.5 441.5,-134.5 322.5,-134.5"/>
<text text-anchor="start" x="330.5" y="-152.5" font-family="Helvetica,sans-Serif" font-size="10.00">src/Scripts/MarioStates</text>
<text text-anchor="middle" x="382" y="-141.5" font-family="Helvetica,sans-Serif" font-size="10.00">/SmallMarioState.hpp</text>
</a>
</g>
</g>
<!-- Node1&#45;&gt;Node7 -->
<g id="edge6" class="edge">
<title>Node1&#45;&gt;Node7</title>
<path fill="none" stroke="midnightblue" d="M382,-191.11C382,-182.15 382,-172.32 382,-164.58"/>
<polygon fill="midnightblue" stroke="midnightblue" points="378.5,-191.4 382,-201.4 385.5,-191.4 378.5,-191.4"/>
</g>
<!-- Node10 -->
<g id="node10" class="node">
<title>Node10</title>
<g id="a_node10"><a xlink:href="StarMarioState_8hpp.html" target="_top" xlink:title=" ">
<polygon fill="none" stroke="black" points="459.5,-134.5 459.5,-164.5 578.5,-164.5 578.5,-134.5 459.5,-134.5"/>
<text text-anchor="start" x="467.5" y="-152.5" font-family="Helvetica,sans-Serif" font-size="10.00">src/Scripts/MarioStates</text>
<text text-anchor="middle" x="519" y="-141.5" font-family="Helvetica,sans-Serif" font-size="10.00">/StarMarioState.hpp</text>
</a>
</g>
</g>
<!-- Node1&#45;&gt;Node10 -->
<g id="edge10" class="edge">
<title>Node1&#45;&gt;Node10</title>
<path fill="none" stroke="midnightblue" d="M421.01,-196.99C442.72,-186.69 469.33,-174.07 489.33,-164.58"/>
<polygon fill="midnightblue" stroke="midnightblue" points="419.26,-193.95 411.73,-201.4 422.26,-200.27 419.26,-193.95"/>
</g>
<!-- Node3 -->
<g id="node3" class="node">
<title>Node3</title>
<g id="a_node3"><a xlink:href="Level1_8cpp.html" target="_top" xlink:title=" ">
<polygon fill="none" stroke="black" points="0,-6 0,-25 142,-25 142,-6 0,-6"/>
<text text-anchor="middle" x="71" y="-13" font-family="Helvetica,sans-Serif" font-size="10.00">src/Game/Levels/Level1.cpp</text>
</a>
</g>
</g>
<!-- Node2&#45;&gt;Node3 -->
<g id="edge2" class="edge">
<title>Node2&#45;&gt;Node3</title>
<path fill="none" stroke="midnightblue" d="M197.68,-68.95C166.6,-56.08 119.07,-36.4 91.93,-25.17"/>
<polygon fill="midnightblue" stroke="midnightblue" points="196.57,-72.28 207.15,-72.87 199.25,-65.81 196.57,-72.28"/>
</g>
<!-- Node4 -->
<g id="node4" class="node">
<title>Node4</title>
<g id="a_node4"><a xlink:href="NetworkingClient_8cpp.html" target="_top" xlink:title=" ">
<polygon fill="none" stroke="black" points="160.5,-0.5 160.5,-30.5 295.5,-30.5 295.5,-0.5 160.5,-0.5"/>
<text text-anchor="start" x="168.5" y="-18.5" font-family="Helvetica,sans-Serif" font-size="10.00">src/Networking/Networking</text>
<text text-anchor="middle" x="228" y="-7.5" font-family="Helvetica,sans-Serif" font-size="10.00">Client.cpp</text>
</a>
</g>
</g>
<!-- Node2&#45;&gt;Node4 -->
<g id="edge3" class="edge">
<title>Node2&#45;&gt;Node4</title>
<path fill="none" stroke="midnightblue" d="M228,-62.41C228,-52.22 228,-39.9 228,-30.59"/>
<polygon fill="midnightblue" stroke="midnightblue" points="224.5,-62.73 228,-72.73 231.5,-62.73 224.5,-62.73"/>
</g>
<!-- Node5 -->
<g id="node5" class="node">
<title>Node5</title>
<g id="a_node5"><a xlink:href="MarioBehaviour_8cpp.html" target="_top" xlink:title=" ">
<polygon fill="none" stroke="black" points="314,-6 314,-25 466,-25 466,-6 314,-6"/>
<text text-anchor="middle" x="390" y="-13" font-family="Helvetica,sans-Serif" font-size="10.00">src/Scripts/MarioBehaviour.cpp</text>
</a>
</g>
</g>
<!-- Node2&#45;&gt;Node5 -->
<g id="edge4" class="edge">
<title>Node2&#45;&gt;Node5</title>
<path fill="none" stroke="midnightblue" d="M258.89,-69.1C291.06,-56.2 340.58,-36.33 368.66,-25.06"/>
<polygon fill="midnightblue" stroke="midnightblue" points="257.49,-65.9 249.51,-72.87 260.1,-72.39 257.49,-65.9"/>
</g>
<!-- Node6 -->
<g id="node6" class="node">
<title>Node6</title>
<g id="a_node6"><a xlink:href="StarBehaviour_8cpp.html" target="_top" xlink:title=" ">
<polygon fill="none" stroke="black" points="509,-6 509,-25 655,-25 655,-6 509,-6"/>
<text text-anchor="middle" x="582" y="-13" font-family="Helvetica,sans-Serif" font-size="10.00">src/Scripts/StarBehaviour.cpp</text>
</a>
</g>
</g>
<!-- Node2&#45;&gt;Node6 -->
<g id="edge5" class="edge">
<title>Node2&#45;&gt;Node6</title>
<path fill="none" stroke="midnightblue" d="M284.55,-71.12C354.13,-58.34 470.94,-36.89 535.53,-25.03"/>
<polygon fill="midnightblue" stroke="midnightblue" points="283.85,-67.69 274.64,-72.94 285.11,-74.57 283.85,-67.69"/>
</g>
<!-- Node7&#45;&gt;Node2 -->
<g id="edge7" class="edge">
<title>Node7&#45;&gt;Node2</title>
<path fill="none" stroke="midnightblue" d="M339.26,-130.46C309.5,-117.9 271.18,-101.72 248.16,-92.01"/>
<polygon fill="midnightblue" stroke="midnightblue" points="338.01,-133.73 348.58,-134.4 340.73,-127.28 338.01,-133.73"/>
</g>
<!-- Node8 -->
<g id="node8" class="node">
<title>Node8</title>
<g id="a_node8"><a xlink:href="SmallMarioState_8cpp.html" target="_top" xlink:title=" ">
<polygon fill="none" stroke="black" points="322.5,-67.5 322.5,-97.5 441.5,-97.5 441.5,-67.5 322.5,-67.5"/>
<text text-anchor="start" x="330.5" y="-85.5" font-family="Helvetica,sans-Serif" font-size="10.00">src/Scripts/MarioStates</text>
<text text-anchor="middle" x="382" y="-74.5" font-family="Helvetica,sans-Serif" font-size="10.00">/SmallMarioState.cpp</text>
</a>
</g>
</g>
<!-- Node7&#45;&gt;Node8 -->
<g id="edge8" class="edge">
<title>Node7&#45;&gt;Node8</title>
<path fill="none" stroke="midnightblue" d="M382,-124.11C382,-115.15 382,-105.32 382,-97.58"/>
<polygon fill="midnightblue" stroke="midnightblue" points="378.5,-124.4 382,-134.4 385.5,-124.4 378.5,-124.4"/>
</g>
<!-- Node9 -->
<g id="node9" class="node">
<title>Node9</title>
<g id="a_node9"><a xlink:href="StarMarioState_8cpp.html" target="_top" xlink:title=" ">
<polygon fill="none" stroke="black" points="459.5,-67.5 459.5,-97.5 578.5,-97.5 578.5,-67.5 459.5,-67.5"/>
<text text-anchor="start" x="467.5" y="-85.5" font-family="Helvetica,sans-Serif" font-size="10.00">src/Scripts/MarioStates</text>
<text text-anchor="middle" x="519" y="-74.5" font-family="Helvetica,sans-Serif" font-size="10.00">/StarMarioState.cpp</text>
</a>
</g>
</g>
<!-- Node7&#45;&gt;Node9 -->
<g id="edge9" class="edge">
<title>Node7&#45;&gt;Node9</title>
<path fill="none" stroke="midnightblue" d="M421.01,-129.99C442.72,-119.69 469.33,-107.07 489.33,-97.58"/>
<polygon fill="midnightblue" stroke="midnightblue" points="419.26,-126.95 411.73,-134.4 422.26,-133.27 419.26,-126.95"/>
</g>
<!-- Node10&#45;&gt;Node6 -->
<g id="edge13" class="edge">
<title>Node10&#45;&gt;Node6</title>
<path fill="none" stroke="midnightblue" d="M558.41,-129.01C570.1,-121.11 581.51,-110.78 588,-98 600.2,-73.96 590.98,-40.71 585.42,-25.16"/>
<polygon fill="midnightblue" stroke="midnightblue" points="556.52,-126.06 549.91,-134.34 560.24,-131.99 556.52,-126.06"/>
</g>
<!-- Node10&#45;&gt;Node8 -->
<g id="edge11" class="edge">
<title>Node10&#45;&gt;Node8</title>
<path fill="none" stroke="midnightblue" d="M479.99,-129.99C458.28,-119.69 431.67,-107.07 411.67,-97.58"/>
<polygon fill="midnightblue" stroke="midnightblue" points="478.74,-133.27 489.27,-134.4 481.74,-126.95 478.74,-133.27"/>
</g>
<!-- Node10&#45;&gt;Node9 -->
<g id="edge12" class="edge">
<title>Node10&#45;&gt;Node9</title>
<path fill="none" stroke="midnightblue" d="M519,-124.11C519,-115.15 519,-105.32 519,-97.58"/>
<polygon fill="midnightblue" stroke="midnightblue" points="515.5,-124.4 519,-134.4 522.5,-124.4 515.5,-124.4"/>
</g>
</g>
</svg>
