<?xml version="1.0" encoding="UTF-8" standalone="no"?>
<!DOCTYPE svg PUBLIC "-//W3C//DTD SVG 1.1//EN"
 "http://www.w3.org/Graphics/SVG/1.1/DTD/svg11.dtd">
<!-- Generated by graphviz version 2.44.0 ()
 -->
<!-- Title: src/Scripts/MarioBehaviour.hpp Pages: 1 -->
<svg width="943pt" height="207pt"
 viewBox="0.00 0.00 943.00 207.00" xmlns="http://www.w3.org/2000/svg" xmlns:xlink="http://www.w3.org/1999/xlink">
<g id="graph0" class="graph" transform="scale(1 1) rotate(0) translate(4 203)">
<title>src/Scripts/MarioBehaviour.hpp</title>
<!-- Node1 -->
<g id="node1" class="node">
<title>Node1</title>
<g id="a_node1"><a xlink:title=" ">
<polygon fill="#bfbfbf" stroke="black" points="451,-179.5 451,-198.5 603,-198.5 603,-179.5 451,-179.5"/>
<text text-anchor="middle" x="527" y="-186.5" font-family="Helvetica,sans-Serif" font-size="10.00">src/Scripts/MarioBehaviour.hpp</text>
</a>
</g>
</g>
<!-- Node2 -->
<g id="node2" class="node">
<title>Node2</title>
<g id="a_node2"><a xlink:href="Level_8hpp.html" target="_top" xlink:title=" ">
<polygon fill="none" stroke="black" points="145.5,-118 145.5,-137 282.5,-137 282.5,-118 145.5,-118"/>
<text text-anchor="middle" x="214" y="-125" font-family="Helvetica,sans-Serif" font-size="10.00">src/Game/Levels/Level.hpp</text>
</a>
</g>
</g>
<!-- Node1&#45;&gt;Node2 -->
<g id="edge1" class="edge">
<title>Node1&#45;&gt;Node2</title>
<path fill="none" stroke="midnightblue" d="M472,-177.55C411.37,-166.02 314.97,-147.69 258.76,-137.01"/>
<polygon fill="midnightblue" stroke="midnightblue" points="471.68,-181.05 482.15,-179.48 472.98,-174.17 471.68,-181.05"/>
</g>
<!-- Node8 -->
<g id="node8" class="node">
<title>Node8</title>
<g id="a_node8"><a xlink:href="NetworkingClient_8cpp.html" target="_top" xlink:title=" ">
<polygon fill="none" stroke="black" points="300.5,-112.5 300.5,-142.5 435.5,-142.5 435.5,-112.5 300.5,-112.5"/>
<text text-anchor="start" x="308.5" y="-130.5" font-family="Helvetica,sans-Serif" font-size="10.00">src/Networking/Networking</text>
<text text-anchor="middle" x="368" y="-119.5" font-family="Helvetica,sans-Serif" font-size="10.00">Client.cpp</text>
</a>
</g>
</g>
<!-- Node1&#45;&gt;Node8 -->
<g id="edge8" class="edge">
<title>Node1&#45;&gt;Node8</title>
<path fill="none" stroke="midnightblue" d="M494.53,-175.85C468.7,-166.18 432.53,-152.65 405.47,-142.52"/>
<polygon fill="midnightblue" stroke="midnightblue" points="493.63,-179.25 504.22,-179.48 496.08,-172.69 493.63,-179.25"/>
</g>
<!-- Node9 -->
<g id="node9" class="node">
<title>Node9</title>
<g id="a_node9"><a xlink:href="FlagBehaviour_8cpp.html" target="_top" xlink:title=" ">
<polygon fill="none" stroke="black" points="453.5,-118 453.5,-137 600.5,-137 600.5,-118 453.5,-118"/>
<text text-anchor="middle" x="527" y="-125" font-family="Helvetica,sans-Serif" font-size="10.00">src/Scripts/FlagBehaviour.cpp</text>
</a>
</g>
</g>
<!-- Node1&#45;&gt;Node9 -->
<g id="edge9" class="edge">
<title>Node1&#45;&gt;Node9</title>
<path fill="none" stroke="midnightblue" d="M527,-169.32C527,-158.5 527,-145.4 527,-137.01"/>
<polygon fill="midnightblue" stroke="midnightblue" points="523.5,-169.48 527,-179.48 530.5,-169.48 523.5,-169.48"/>
</g>
<!-- Node10 -->
<g id="node10" class="node">
<title>Node10</title>
<g id="a_node10"><a xlink:href="MarioBehaviour_8cpp.html" target="_top" xlink:title=" ">
<polygon fill="none" stroke="black" points="619,-118 619,-137 771,-137 771,-118 619,-118"/>
<text text-anchor="middle" x="695" y="-125" font-family="Helvetica,sans-Serif" font-size="10.00">src/Scripts/MarioBehaviour.cpp</text>
</a>
</g>
</g>
<!-- Node1&#45;&gt;Node10 -->
<g id="edge10" class="edge">
<title>Node1&#45;&gt;Node10</title>
<path fill="none" stroke="midnightblue" d="M560.65,-176.08C593.3,-164.52 642.05,-147.25 670.97,-137.01"/>
<polygon fill="midnightblue" stroke="midnightblue" points="559.33,-172.84 551.07,-179.48 561.67,-179.44 559.33,-172.84"/>
</g>
<!-- Node11 -->
<g id="node11" class="node">
<title>Node11</title>
<g id="a_node11"><a xlink:href="StarBehaviour_8cpp.html" target="_top" xlink:title=" ">
<polygon fill="none" stroke="black" points="789,-118 789,-137 935,-137 935,-118 789,-118"/>
<text text-anchor="middle" x="862" y="-125" font-family="Helvetica,sans-Serif" font-size="10.00">src/Scripts/StarBehaviour.cpp</text>
</a>
</g>
</g>
<!-- Node1&#45;&gt;Node11 -->
<g id="edge11" class="edge">
<title>Node1&#45;&gt;Node11</title>
<path fill="none" stroke="midnightblue" d="M585.06,-177.69C649.91,-166.17 753.68,-147.74 814.09,-137.01"/>
<polygon fill="midnightblue" stroke="midnightblue" points="584.23,-174.28 575,-179.48 585.46,-181.17 584.23,-174.28"/>
</g>
<!-- Node3 -->
<g id="node3" class="node">
<title>Node3</title>
<g id="a_node3"><a xlink:href="Level1_8hpp.html" target="_top" xlink:title=" ">
<polygon fill="none" stroke="black" points="63,-56.5 63,-75.5 205,-75.5 205,-56.5 63,-56.5"/>
<text text-anchor="middle" x="134" y="-63.5" font-family="Helvetica,sans-Serif" font-size="10.00">src/Game/Levels/Level1.hpp</text>
</a>
</g>
</g>
<!-- Node2&#45;&gt;Node3 -->
<g id="edge2" class="edge">
<title>Node2&#45;&gt;Node3</title>
<path fill="none" stroke="midnightblue" d="M194.23,-111.79C178.88,-100.38 158.14,-84.96 145.44,-75.51"/>
<polygon fill="midnightblue" stroke="midnightblue" points="192.43,-114.82 202.54,-117.98 196.6,-109.2 192.43,-114.82"/>
</g>
<!-- Node6 -->
<g id="node6" class="node">
<title>Node6</title>
<g id="a_node6"><a xlink:href="Level2_8hpp.html" target="_top" xlink:title=" ">
<polygon fill="none" stroke="black" points="223,-56.5 223,-75.5 365,-75.5 365,-56.5 223,-56.5"/>
<text text-anchor="middle" x="294" y="-63.5" font-family="Helvetica,sans-Serif" font-size="10.00">src/Game/Levels/Level2.hpp</text>
</a>
</g>
</g>
<!-- Node2&#45;&gt;Node6 -->
<g id="edge5" class="edge">
<title>Node2&#45;&gt;Node6</title>
<path fill="none" stroke="midnightblue" d="M233.77,-111.79C249.12,-100.38 269.86,-84.96 282.56,-75.51"/>
<polygon fill="midnightblue" stroke="midnightblue" points="231.4,-109.2 225.46,-117.98 235.57,-114.82 231.4,-109.2"/>
</g>
<!-- Node4 -->
<g id="node4" class="node">
<title>Node4</title>
<g id="a_node4"><a xlink:href="Game_8cpp.html" target="_top" xlink:title=" ">
<polygon fill="none" stroke="black" points="160.5,-0.5 160.5,-19.5 267.5,-19.5 267.5,-0.5 160.5,-0.5"/>
<text text-anchor="middle" x="214" y="-7.5" font-family="Helvetica,sans-Serif" font-size="10.00">src/Game/Game.cpp</text>
</a>
</g>
</g>
<!-- Node3&#45;&gt;Node4 -->
<g id="edge3" class="edge">
<title>Node3&#45;&gt;Node4</title>
<path fill="none" stroke="midnightblue" d="M155.3,-50.62C169.92,-40.76 188.83,-27.99 201.18,-19.65"/>
<polygon fill="midnightblue" stroke="midnightblue" points="153.18,-47.83 146.85,-56.32 157.1,-53.63 153.18,-47.83"/>
</g>
<!-- Node5 -->
<g id="node5" class="node">
<title>Node5</title>
<g id="a_node5"><a xlink:href="Level1_8cpp.html" target="_top" xlink:title=" ">
<polygon fill="none" stroke="black" points="0,-0.5 0,-19.5 142,-19.5 142,-0.5 0,-0.5"/>
<text text-anchor="middle" x="71" y="-7.5" font-family="Helvetica,sans-Serif" font-size="10.00">src/Game/Levels/Level1.cpp</text>
</a>
</g>
</g>
<!-- Node3&#45;&gt;Node5 -->
<g id="edge4" class="edge">
<title>Node3&#45;&gt;Node5</title>
<path fill="none" stroke="midnightblue" d="M115.96,-49.54C104.73,-39.91 90.68,-27.87 81.31,-19.83"/>
<polygon fill="midnightblue" stroke="midnightblue" points="114.01,-52.47 123.88,-56.32 118.56,-47.16 114.01,-52.47"/>
</g>
<!-- Node6&#45;&gt;Node4 -->
<g id="edge6" class="edge">
<title>Node6&#45;&gt;Node4</title>
<path fill="none" stroke="midnightblue" d="M272.7,-50.62C258.08,-40.76 239.17,-27.99 226.82,-19.65"/>
<polygon fill="midnightblue" stroke="midnightblue" points="270.9,-53.63 281.15,-56.32 274.82,-47.83 270.9,-53.63"/>
</g>
<!-- Node7 -->
<g id="node7" class="node">
<title>Node7</title>
<g id="a_node7"><a xlink:href="Level2_8cpp.html" target="_top" xlink:title=" ">
<polygon fill="none" stroke="black" points="286,-0.5 286,-19.5 428,-19.5 428,-0.5 286,-0.5"/>
<text text-anchor="middle" x="357" y="-7.5" font-family="Helvetica,sans-Serif" font-size="10.00">src/Game/Levels/Level2.cpp</text>
</a>
</g>
</g>
<!-- Node6&#45;&gt;Node7 -->
<g id="edge7" class="edge">
<title>Node6&#45;&gt;Node7</title>
<path fill="none" stroke="midnightblue" d="M312.04,-49.54C323.27,-39.91 337.32,-27.87 346.69,-19.83"/>
<polygon fill="midnightblue" stroke="midnightblue" points="309.44,-47.16 304.12,-56.32 313.99,-52.47 309.44,-47.16"/>
</g>
</g>
</svg>
