<svg xmlns="http://www.w3.org/2000/svg" xmlns:xlink="http://www.w3.org/1999/xlink" width="559pt" height="380" viewBox="0 0 559 285"><g id="graph0" class="graph" transform="scale(1 1) rotate(0) translate(4 281)"><title>src/Scripts/MarioBehaviour.cpp</title><g id="node1" class="node"><title>Node1</title><g id="a_node1"><a><polygon fill="#bfbfbf" stroke="#000" points="269.5 -257.5 269.5 -276.5 421.5 -276.5 421.5 -257.5 269.5 -257.5"/><text x="345.5" y="-264.5" font-family="Helvetica,sans-Serif" font-size="10" text-anchor="middle">src/Scripts/MarioBehaviour.cpp</text></a></g></g><g id="node2" class="node"><title>Node2</title><g id="a_node2"><a target="_top" xlink:href="MarioBehaviour_8hpp.html"><polygon fill="none" stroke="#000" points="181.5 -201.5 181.5 -220.5 283.5 -220.5 283.5 -201.5 181.5 -201.5"/><text x="232.5" y="-208.5" font-family="Helvetica,sans-Serif" font-size="10" text-anchor="middle">MarioBehaviour.hpp</text></a></g></g><g id="edge1" class="edge"><title>Node1-&gt;Node2</title><path fill="none" stroke="#191970" d="M327.59,-257.44C309.25,-248.68 280.49,-234.94 259.41,-224.86"/><polygon fill="#191970" stroke="#191970" points="260.85 -221.67 250.32 -220.52 257.83 -227.99 260.85 -221.67"/></g><g id="node11" class="node"><title>Node11</title><g id="a_node11"><a><polygon fill="none" stroke="#bfbfbf" points="301 -201.5 301 -220.5 390 -220.5 390 -201.5 301 -201.5"/><text x="345.5" y="-208.5" font-family="Helvetica,sans-Serif" font-size="10" text-anchor="middle">GameObject.hpp</text></a></g></g><g id="edge11" class="edge"><title>Node1-&gt;Node11</title><path fill="none" stroke="#191970" d="M345.5,-257.08C345.5,-250.01 345.5,-239.86 345.5,-230.99"/><polygon fill="#191970" stroke="#191970" points="349 -230.75 345.5 -220.75 342 -230.75 349 -230.75"/></g><g id="node12" class="node"><title>Node12</title><g id="a_node12"><a><polygon fill="none" stroke="#bfbfbf" points="408.5 -201.5 408.5 -220.5 504.5 -220.5 504.5 -201.5 408.5 -201.5"/><text x="456.5" y="-208.5" font-family="Helvetica,sans-Serif" font-size="10" text-anchor="middle">Engine/Engine.hpp</text></a></g></g><g id="edge12" class="edge"><title>Node1-&gt;Node12</title><path fill="none" stroke="#191970" d="M363.33,-257.32C381.22,-248.62 408.98,-235.12 429.55,-225.11"/><polygon fill="#191970" stroke="#191970" points="431.25 -228.18 438.71 -220.65 428.19 -221.88 431.25 -228.18"/></g><g id="node3" class="node"><title>Node3</title><g id="a_node3"><a><polygon fill="none" stroke="#bfbfbf" points="100.5 -140 100.5 -159 204.5 -159 204.5 -140 100.5 -140"/><text x="152.5" y="-147" font-family="Helvetica,sans-Serif" font-size="10" text-anchor="middle">BehaviourScript.hpp</text></a></g></g><g id="edge2" class="edge"><title>Node2-&gt;Node3</title><path fill="none" stroke="#191970" d="M221.04,-201.48C208.33,-192.02 187.59,-176.6 172.25,-165.19"/><polygon fill="#191970" stroke="#191970" points="174.05 -162.17 163.94 -159.01 169.88 -167.79 174.05 -162.17"/></g><g id="node4" class="node"><title>Node4</title><g id="a_node4"><a target="_top" xlink:href="MarioState_8hpp.html"><polygon fill="none" stroke="#000" points="222 -67.5 222 -97.5 325 -97.5 325 -67.5 222 -67.5"/><text x="230" y="-85.5" font-family="Helvetica,sans-Serif" font-size="10" text-anchor="start">Scripts/MarioStates</text><text x="273.5" y="-74.5" font-family="Helvetica,sans-Serif" font-size="10" text-anchor="middle">/MarioState.hpp</text></a></g></g><g id="edge3" class="edge"><title>Node2-&gt;Node4</title><path fill="none" stroke="#191970" d="M234.16,-201.43C237.01,-187.22 243.35,-157.95 251.5,-134 254.55,-125.02 258.55,-115.42 262.29,-107.02"/><polygon fill="#191970" stroke="#191970" points="265.51 -108.38 266.5 -97.83 259.15 -105.47 265.51 -108.38"/></g><g id="node10" class="node"><title>Node10</title><g id="a_node10"><a target="_top" xlink:href="SmallMarioState_8hpp.html"><polygon fill="none" stroke="#000" points="260.5 -134.5 260.5 -164.5 370.5 -164.5 370.5 -134.5 260.5 -134.5"/><text x="268.5" y="-152.5" font-family="Helvetica,sans-Serif" font-size="10" text-anchor="start">Scripts/MarioStates</text><text x="315.5" y="-141.5" font-family="Helvetica,sans-Serif" font-size="10" text-anchor="middle">/SmallMarioState.hpp</text></a></g></g><g id="edge9" class="edge"><title>Node2-&gt;Node10</title><path fill="none" stroke="#191970" d="M244.39,-201.48C255.63,-193.42 272.92,-181.02 287.64,-170.47"/><polygon fill="#191970" stroke="#191970" points="289.85 -173.19 295.94 -164.52 285.77 -167.5 289.85 -173.19"/></g><g id="node5" class="node"><title>Node5</title><g id="a_node5"><a><polygon fill="none" stroke="#bfbfbf" points="0 -.5 0 -30.5 95 -30.5 95 -.5 0 -.5"/><text x="8" y="-18.5" font-family="Helvetica,sans-Serif" font-size="10" text-anchor="start">boost/serialization</text><text x="47.5" y="-7.5" font-family="Helvetica,sans-Serif" font-size="10" text-anchor="middle">/access.hpp</text></a></g></g><g id="edge4" class="edge"><title>Node4-&gt;Node5</title><path fill="none" stroke="#191970" d="M224.74,-67.48C189.48,-57.34 141.73,-43.6 104.67,-32.94"/><polygon fill="#191970" stroke="#191970" points="105.59 -29.56 95.01 -30.16 103.65 -36.29 105.59 -29.56"/></g><g id="node6" class="node"><title>Node6</title><g id="a_node6"><a><polygon fill="none" stroke="#bfbfbf" points="113 -.5 113 -30.5 208 -30.5 208 -.5 113 -.5"/><text x="121" y="-18.5" font-family="Helvetica,sans-Serif" font-size="10" text-anchor="start">boost/serialization</text><text x="160.5" y="-7.5" font-family="Helvetica,sans-Serif" font-size="10" text-anchor="middle">/export.hpp</text></a></g></g><g id="edge5" class="edge"><title>Node4-&gt;Node6</title><path fill="none" stroke="#191970" d="M248.98,-67.4C232.84,-58.11 211.51,-45.84 193.83,-35.67"/><polygon fill="#191970" stroke="#191970" points="195.38 -32.53 184.97 -30.58 191.89 -38.6 195.38 -32.53"/></g><g id="node7" class="node"><title>Node7</title><g id="a_node7"><a><polygon fill="none" stroke="#bfbfbf" points="226 -.5 226 -30.5 321 -30.5 321 -.5 226 -.5"/><text x="234" y="-18.5" font-family="Helvetica,sans-Serif" font-size="10" text-anchor="start">boost/serialization</text><text x="273.5" y="-7.5" font-family="Helvetica,sans-Serif" font-size="10" text-anchor="middle">/shared_ptr.hpp</text></a></g></g><g id="edge6" class="edge"><title>Node4-&gt;Node7</title><path fill="none" stroke="#191970" d="M273.5,-67.4C273.5,-59.64 273.5,-49.81 273.5,-40.86"/><polygon fill="#191970" stroke="#191970" points="277 -40.58 273.5 -30.58 270 -40.58 277 -40.58"/></g><g id="node8" class="node"><title>Node8</title><g id="a_node8"><a><polygon fill="none" stroke="#bfbfbf" points="339 -6 339 -25 476 -25 476 -6 339 -6"/><text x="407.5" y="-13" font-family="Helvetica,sans-Serif" font-size="10" text-anchor="middle">Texture/AnimatedSprite.hpp</text></a></g></g><g id="edge7" class="edge"><title>Node4-&gt;Node8</title><path fill="none" stroke="#191970" d="M302.58,-67.4C325.88,-56.09 358.31,-40.36 380.93,-29.39"/><polygon fill="#191970" stroke="#191970" points="382.49 -32.52 389.96 -25.01 379.44 -26.22 382.49 -32.52"/></g><g id="node9" class="node"><title>Node9</title><g id="a_node9"><a><polygon fill="none" stroke="#bfbfbf" points="494 -6 494 -25 551 -25 551 -6 494 -6"/><text x="522.5" y="-13" font-family="Helvetica,sans-Serif" font-size="10" text-anchor="middle">Point.hpp</text></a></g></g><g id="edge8" class="edge"><title>Node4-&gt;Node9</title><path fill="none" stroke="#191970" d="M325.02,-71.33C368.29,-62.3 431.52,-47.91 485.5,-31 487.78,-30.29 490.12,-29.5 492.46,-28.68"/><polygon fill="#191970" stroke="#191970" points="493.79 -31.91 501.94 -25.15 491.35 -25.35 493.79 -31.91"/></g><g id="edge10" class="edge"><title>Node10-&gt;Node4</title><path fill="none" stroke="#191970" d="M306.39,-134.4C301.05,-126.13 294.18,-115.51 288.1,-106.1"/><polygon fill="#191970" stroke="#191970" points="290.96 -104.08 282.6 -97.58 285.08 -107.88 290.96 -104.08"/></g></g></svg>