<?xml version="1.0" encoding="UTF-8" standalone="no"?>
<!DOCTYPE svg PUBLIC "-//W3C//DTD SVG 1.1//EN"
 "http://www.w3.org/Graphics/SVG/1.1/DTD/svg11.dtd">
<!-- Generated by graphviz version 2.44.0 ()
 -->
<!-- Title: src/Scripts/MarioBehaviour.hpp Pages: 1 -->
<svg width="559pt" height="229pt"
 viewBox="0.00 0.00 559.00 229.00" xmlns="http://www.w3.org/2000/svg" xmlns:xlink="http://www.w3.org/1999/xlink">
<g id="graph0" class="graph" transform="scale(1 1) rotate(0) translate(4 225)">
<title>src/Scripts/MarioBehaviour.hpp</title>
<!-- Node1 -->
<g id="node1" class="node">
<title>Node1</title>
<g id="a_node1"><a xlink:title=" ">
<polygon fill="#bfbfbf" stroke="black" points="156.5,-201.5 156.5,-220.5 308.5,-220.5 308.5,-201.5 156.5,-201.5"/>
<text text-anchor="middle" x="232.5" y="-208.5" font-family="Helvetica,sans-Serif" font-size="10.00">src/Scripts/MarioBehaviour.hpp</text>
</a>
</g>
</g>
<!-- Node2 -->
<g id="node2" class="node">
<title>Node2</title>
<g id="a_node2"><a xlink:title=" ">
<polygon fill="none" stroke="#bfbfbf" points="100.5,-140 100.5,-159 204.5,-159 204.5,-140 100.5,-140"/>
<text text-anchor="middle" x="152.5" y="-147" font-family="Helvetica,sans-Serif" font-size="10.00">BehaviourScript.hpp</text>
</a>
</g>
</g>
<!-- Node1&#45;&gt;Node2 -->
<g id="edge1" class="edge">
<title>Node1&#45;&gt;Node2</title>
<path fill="none" stroke="midnightblue" d="M221.04,-201.48C208.33,-192.02 187.59,-176.6 172.25,-165.19"/>
<polygon fill="midnightblue" stroke="midnightblue" points="174.05,-162.17 163.94,-159.01 169.88,-167.79 174.05,-162.17"/>
</g>
<!-- Node3 -->
<g id="node3" class="node">
<title>Node3</title>
<g id="a_node3"><a xlink:href="MarioState_8hpp.html" target="_top" xlink:title=" ">
<polygon fill="none" stroke="black" points="222,-67.5 222,-97.5 325,-97.5 325,-67.5 222,-67.5"/>
<text text-anchor="start" x="230" y="-85.5" font-family="Helvetica,sans-Serif" font-size="10.00">Scripts/MarioStates</text>
<text text-anchor="middle" x="273.5" y="-74.5" font-family="Helvetica,sans-Serif" font-size="10.00">/MarioState.hpp</text>
</a>
</g>
</g>
<!-- Node1&#45;&gt;Node3 -->
<g id="edge2" class="edge">
<title>Node1&#45;&gt;Node3</title>
<path fill="none" stroke="midnightblue" d="M234.16,-201.43C237.01,-187.22 243.35,-157.95 251.5,-134 254.55,-125.02 258.55,-115.42 262.29,-107.02"/>
<polygon fill="midnightblue" stroke="midnightblue" points="265.51,-108.38 266.5,-97.83 259.15,-105.47 265.51,-108.38"/>
</g>
<!-- Node9 -->
<g id="node9" class="node">
<title>Node9</title>
<g id="a_node9"><a xlink:href="SmallMarioState_8hpp.html" target="_top" xlink:title=" ">
<polygon fill="none" stroke="black" points="260.5,-134.5 260.5,-164.5 370.5,-164.5 370.5,-134.5 260.5,-134.5"/>
<text text-anchor="start" x="268.5" y="-152.5" font-family="Helvetica,sans-Serif" font-size="10.00">Scripts/MarioStates</text>
<text text-anchor="middle" x="315.5" y="-141.5" font-family="Helvetica,sans-Serif" font-size="10.00">/SmallMarioState.hpp</text>
</a>
</g>
</g>
<!-- Node1&#45;&gt;Node9 -->
<g id="edge8" class="edge">
<title>Node1&#45;&gt;Node9</title>
<path fill="none" stroke="midnightblue" d="M244.39,-201.48C255.63,-193.42 272.92,-181.02 287.64,-170.47"/>
<polygon fill="midnightblue" stroke="midnightblue" points="289.85,-173.19 295.94,-164.52 285.77,-167.5 289.85,-173.19"/>
</g>
<!-- Node4 -->
<g id="node4" class="node">
<title>Node4</title>
<g id="a_node4"><a xlink:title=" ">
<polygon fill="none" stroke="#bfbfbf" points="0,-0.5 0,-30.5 95,-30.5 95,-0.5 0,-0.5"/>
<text text-anchor="start" x="8" y="-18.5" font-family="Helvetica,sans-Serif" font-size="10.00">boost/serialization</text>
<text text-anchor="middle" x="47.5" y="-7.5" font-family="Helvetica,sans-Serif" font-size="10.00">/access.hpp</text>
</a>
</g>
</g>
<!-- Node3&#45;&gt;Node4 -->
<g id="edge3" class="edge">
<title>Node3&#45;&gt;Node4</title>
<path fill="none" stroke="midnightblue" d="M224.74,-67.48C189.48,-57.34 141.73,-43.6 104.67,-32.94"/>
<polygon fill="midnightblue" stroke="midnightblue" points="105.59,-29.56 95.01,-30.16 103.65,-36.29 105.59,-29.56"/>
</g>
<!-- Node5 -->
<g id="node5" class="node">
<title>Node5</title>
<g id="a_node5"><a xlink:title=" ">
<polygon fill="none" stroke="#bfbfbf" points="113,-0.5 113,-30.5 208,-30.5 208,-0.5 113,-0.5"/>
<text text-anchor="start" x="121" y="-18.5" font-family="Helvetica,sans-Serif" font-size="10.00">boost/serialization</text>
<text text-anchor="middle" x="160.5" y="-7.5" font-family="Helvetica,sans-Serif" font-size="10.00">/export.hpp</text>
</a>
</g>
</g>
<!-- Node3&#45;&gt;Node5 -->
<g id="edge4" class="edge">
<title>Node3&#45;&gt;Node5</title>
<path fill="none" stroke="midnightblue" d="M248.98,-67.4C232.84,-58.11 211.51,-45.84 193.83,-35.67"/>
<polygon fill="midnightblue" stroke="midnightblue" points="195.38,-32.53 184.97,-30.58 191.89,-38.6 195.38,-32.53"/>
</g>
<!-- Node6 -->
<g id="node6" class="node">
<title>Node6</title>
<g id="a_node6"><a xlink:title=" ">
<polygon fill="none" stroke="#bfbfbf" points="226,-0.5 226,-30.5 321,-30.5 321,-0.5 226,-0.5"/>
<text text-anchor="start" x="234" y="-18.5" font-family="Helvetica,sans-Serif" font-size="10.00">boost/serialization</text>
<text text-anchor="middle" x="273.5" y="-7.5" font-family="Helvetica,sans-Serif" font-size="10.00">/shared_ptr.hpp</text>
</a>
</g>
</g>
<!-- Node3&#45;&gt;Node6 -->
<g id="edge5" class="edge">
<title>Node3&#45;&gt;Node6</title>
<path fill="none" stroke="midnightblue" d="M273.5,-67.4C273.5,-59.64 273.5,-49.81 273.5,-40.86"/>
<polygon fill="midnightblue" stroke="midnightblue" points="277,-40.58 273.5,-30.58 270,-40.58 277,-40.58"/>
</g>
<!-- Node7 -->
<g id="node7" class="node">
<title>Node7</title>
<g id="a_node7"><a xlink:title=" ">
<polygon fill="none" stroke="#bfbfbf" points="339,-6 339,-25 476,-25 476,-6 339,-6"/>
<text text-anchor="middle" x="407.5" y="-13" font-family="Helvetica,sans-Serif" font-size="10.00">Texture/AnimatedSprite.hpp</text>
</a>
</g>
</g>
<!-- Node3&#45;&gt;Node7 -->
<g id="edge6" class="edge">
<title>Node3&#45;&gt;Node7</title>
<path fill="none" stroke="midnightblue" d="M302.58,-67.4C325.88,-56.09 358.31,-40.36 380.93,-29.39"/>
<polygon fill="midnightblue" stroke="midnightblue" points="382.49,-32.52 389.96,-25.01 379.44,-26.22 382.49,-32.52"/>
</g>
<!-- Node8 -->
<g id="node8" class="node">
<title>Node8</title>
<g id="a_node8"><a xlink:title=" ">
<polygon fill="none" stroke="#bfbfbf" points="494,-6 494,-25 551,-25 551,-6 494,-6"/>
<text text-anchor="middle" x="522.5" y="-13" font-family="Helvetica,sans-Serif" font-size="10.00">Point.hpp</text>
</a>
</g>
</g>
<!-- Node3&#45;&gt;Node8 -->
<g id="edge7" class="edge">
<title>Node3&#45;&gt;Node8</title>
<path fill="none" stroke="midnightblue" d="M325.02,-71.33C368.29,-62.3 431.52,-47.91 485.5,-31 487.78,-30.29 490.12,-29.5 492.46,-28.68"/>
<polygon fill="midnightblue" stroke="midnightblue" points="493.79,-31.91 501.94,-25.15 491.35,-25.35 493.79,-31.91"/>
</g>
<!-- Node9&#45;&gt;Node3 -->
<g id="edge9" class="edge">
<title>Node9&#45;&gt;Node3</title>
<path fill="none" stroke="midnightblue" d="M306.39,-134.4C301.05,-126.13 294.18,-115.51 288.1,-106.1"/>
<polygon fill="midnightblue" stroke="midnightblue" points="290.96,-104.08 282.6,-97.58 285.08,-107.88 290.96,-104.08"/>
</g>
</g>
</svg>
