<?xml version="1.0" encoding="UTF-8" standalone="no"?>
<!DOCTYPE svg PUBLIC "-//W3C//DTD SVG 1.1//EN"
 "http://www.w3.org/Graphics/SVG/1.1/DTD/svg11.dtd">
<!-- Generated by graphviz version 2.44.0 ()
 -->
<!-- Title: src/Scripts/MarioStates/MarioState.hpp Pages: 1 -->
<!--zoomable 352 -->
<svg id="main" version="1.1" xmlns="http://www.w3.org/2000/svg" xmlns:xlink="http://www.w3.org/1999/xlink" xml:space="preserve" onload="init(evt)">
<style type="text/css"><![CDATA[
.edge:hover path { stroke: red; }
.edge:hover polygon { stroke: red; fill: red; }
]]></style>
<script type="text/javascript"><![CDATA[
var edges = document.getElementsByTagName('g');
if (edges && edges.length) {
  for (var i=0;i<edges.length;i++) {
    if (edges[i].id.substr(0,4)=='edge') {
      edges[i].setAttribute('class','edge');
    }
  }
}
]]></script>
        <defs>
                <circle id="rim" cx="0" cy="0" r="7"/>
                <circle id="rim2" cx="0" cy="0" r="3.5"/>
                <g id="zoomPlus">
                        <use xlink:href="#rim" fill="#404040">
                                <set attributeName="fill" to="#808080" begin="zoomplus.mouseover" end="zoomplus.mouseout"/>
                        </use>
                        <path d="M-4,0h8M0,-4v8" fill="none" stroke="white" stroke-width="1.5" pointer-events="none"/>
                </g>
                <g id="zoomMin">
                        <use xlink:href="#rim" fill="#404040">
                                <set attributeName="fill" to="#808080" begin="zoomminus.mouseover" end="zoomminus.mouseout"/>
                        </use>
                        <path d="M-4,0h8" fill="none" stroke="white" stroke-width="1.5" pointer-events="none"/>
                </g>
                <g id="dirArrow">
                        <path fill="none" stroke="white" stroke-width="1.5" d="M0,-3.0v7 M-2.5,-0.5L0,-3.0L2.5,-0.5"/>
                </g>
               <g id="resetDef">
                       <use xlink:href="#rim2" fill="#404040">
                               <set attributeName="fill" to="#808080" begin="reset.mouseover" end="reset.mouseout"/>
                       </use>
               </g>
        </defs>

<script type="text/javascript">
var viewWidth = 825;
var viewHeight = 352;
var sectionId = 'dynsection-1';
</script>
<script xlink:href="svgpan.js"/>
<svg id="graph" class="graph">
<g id="viewport">
<title>src/Scripts/MarioStates/MarioState.hpp</title>
<!-- Node1 -->
<g id="node1" class="node">
<title>Node1</title>
<g id="a_node1"><a xlink:title=" ">
<polygon fill="#bfbfbf" stroke="black" points="473.5,-313.5 473.5,-343.5 592.5,-343.5 592.5,-313.5 473.5,-313.5"/>
<text text-anchor="start" x="481.5" y="-331.5" font-family="Helvetica,sans-Serif" font-size="10.00">src/Scripts/MarioStates</text>
<text text-anchor="middle" x="533" y="-320.5" font-family="Helvetica,sans-Serif" font-size="10.00">/MarioState.hpp</text>
</a>
</g>
</g>
<!-- Node2 -->
<g id="node2" class="node">
<title>Node2</title>
<g id="a_node2"><a xlink:href="MarioBehaviour_8hpp.html" target="_top" xlink:title=" ">
<polygon fill="none" stroke="black" points="303,-185 303,-204 455,-204 455,-185 303,-185"/>
<text text-anchor="middle" x="379" y="-192" font-family="Helvetica,sans-Serif" font-size="10.00">src/Scripts/MarioBehaviour.hpp</text>
</a>
</g>
</g>
<!-- Node1&#45;&gt;Node2 -->
<g id="edge1" class="edge">
<title>Node1&#45;&gt;Node2</title>
<path fill="none" stroke="midnightblue" d="M503.92,-307.52C491.35,-298.55 476.66,-287.62 464,-277 434.56,-252.3 402.52,-219.92 387.57,-204.47"/>
<polygon fill="midnightblue" stroke="midnightblue" points="502.04,-310.48 512.23,-313.38 506.08,-304.76 502.04,-310.48"/>
</g>
<!-- Node13 -->
<g id="node13" class="node">
<title>Node13</title>
<g id="a_node13"><a xlink:href="SmallMarioState_8hpp.html" target="_top" xlink:title=" ">
<polygon fill="none" stroke="black" points="473.5,-246.5 473.5,-276.5 592.5,-276.5 592.5,-246.5 473.5,-246.5"/>
<text text-anchor="start" x="481.5" y="-264.5" font-family="Helvetica,sans-Serif" font-size="10.00">src/Scripts/MarioStates</text>
<text text-anchor="middle" x="533" y="-253.5" font-family="Helvetica,sans-Serif" font-size="10.00">/SmallMarioState.hpp</text>
</a>
</g>
</g>
<!-- Node1&#45;&gt;Node13 -->
<g id="edge13" class="edge">
<title>Node1&#45;&gt;Node13</title>
<path fill="none" stroke="midnightblue" d="M533,-303.11C533,-294.15 533,-284.32 533,-276.58"/>
<polygon fill="midnightblue" stroke="midnightblue" points="529.5,-303.4 533,-313.4 536.5,-303.4 529.5,-303.4"/>
</g>
<!-- Node16 -->
<g id="node16" class="node">
<title>Node16</title>
<g id="a_node16"><a xlink:href="StarMarioState_8hpp.html" target="_top" xlink:title=" ">
<polygon fill="none" stroke="black" points="610.5,-246.5 610.5,-276.5 729.5,-276.5 729.5,-246.5 610.5,-246.5"/>
<text text-anchor="start" x="618.5" y="-264.5" font-family="Helvetica,sans-Serif" font-size="10.00">src/Scripts/MarioStates</text>
<text text-anchor="middle" x="670" y="-253.5" font-family="Helvetica,sans-Serif" font-size="10.00">/StarMarioState.hpp</text>
</a>
</g>
</g>
<!-- Node1&#45;&gt;Node16 -->
<g id="edge17" class="edge">
<title>Node1&#45;&gt;Node16</title>
<path fill="none" stroke="midnightblue" d="M572.01,-308.99C593.72,-298.69 620.33,-286.07 640.33,-276.58"/>
<polygon fill="midnightblue" stroke="midnightblue" points="570.26,-305.95 562.73,-313.4 573.26,-312.27 570.26,-305.95"/>
</g>
<!-- Node3 -->
<g id="node3" class="node">
<title>Node3</title>
<g id="a_node3"><a xlink:href="Level_8hpp.html" target="_top" xlink:title=" ">
<polygon fill="none" stroke="black" points="170.5,-118 170.5,-137 307.5,-137 307.5,-118 170.5,-118"/>
<text text-anchor="middle" x="239" y="-125" font-family="Helvetica,sans-Serif" font-size="10.00">src/Game/Levels/Level.hpp</text>
</a>
</g>
</g>
<!-- Node2&#45;&gt;Node3 -->
<g id="edge2" class="edge">
<title>Node2&#45;&gt;Node3</title>
<path fill="none" stroke="midnightblue" d="M351.24,-180.61C323.51,-167.74 281.66,-148.31 257.67,-137.17"/>
<polygon fill="midnightblue" stroke="midnightblue" points="349.87,-183.83 360.41,-184.87 352.81,-177.48 349.87,-183.83"/>
</g>
<!-- Node9 -->
<g id="node9" class="node">
<title>Node9</title>
<g id="a_node9"><a xlink:href="NetworkingClient_8cpp.html" target="_top" xlink:title=" ">
<polygon fill="none" stroke="black" points="325.5,-112.5 325.5,-142.5 460.5,-142.5 460.5,-112.5 325.5,-112.5"/>
<text text-anchor="start" x="333.5" y="-130.5" font-family="Helvetica,sans-Serif" font-size="10.00">src/Networking/Networking</text>
<text text-anchor="middle" x="393" y="-119.5" font-family="Helvetica,sans-Serif" font-size="10.00">Client.cpp</text>
</a>
</g>
</g>
<!-- Node2&#45;&gt;Node9 -->
<g id="edge9" class="edge">
<title>Node2&#45;&gt;Node9</title>
<path fill="none" stroke="midnightblue" d="M383.04,-174.74C385.25,-164.49 387.94,-152 389.97,-142.59"/>
<polygon fill="midnightblue" stroke="midnightblue" points="379.57,-174.22 380.89,-184.73 386.42,-175.69 379.57,-174.22"/>
</g>
<!-- Node10 -->
<g id="node10" class="node">
<title>Node10</title>
<g id="a_node10"><a xlink:href="FlagBehaviour_8cpp.html" target="_top" xlink:title=" ">
<polygon fill="none" stroke="black" points="478.5,-118 478.5,-137 625.5,-137 625.5,-118 478.5,-118"/>
<text text-anchor="middle" x="552" y="-125" font-family="Helvetica,sans-Serif" font-size="10.00">src/Scripts/FlagBehaviour.cpp</text>
</a>
</g>
</g>
<!-- Node2&#45;&gt;Node10 -->
<g id="edge10" class="edge">
<title>Node2&#45;&gt;Node10</title>
<path fill="none" stroke="midnightblue" d="M411.55,-181.27C445.88,-168.37 499.1,-148.38 529.21,-137.06"/>
<polygon fill="midnightblue" stroke="midnightblue" points="410.1,-178.07 401.97,-184.87 412.57,-184.63 410.1,-178.07"/>
</g>
<!-- Node11 -->
<g id="node11" class="node">
<title>Node11</title>
<g id="a_node11"><a xlink:href="MarioBehaviour_8cpp.html" target="_top" xlink:title=" ">
<polygon fill="none" stroke="black" points="0,-118 0,-137 152,-137 152,-118 0,-118"/>
<text text-anchor="middle" x="76" y="-125" font-family="Helvetica,sans-Serif" font-size="10.00">src/Scripts/MarioBehaviour.cpp</text>
</a>
</g>
</g>
<!-- Node2&#45;&gt;Node11 -->
<g id="edge11" class="edge">
<title>Node2&#45;&gt;Node11</title>
<path fill="none" stroke="midnightblue" d="M329.14,-182.8C269.51,-170.01 170.9,-148.86 116.01,-137.08"/>
<polygon fill="midnightblue" stroke="midnightblue" points="328.56,-186.26 339.08,-184.94 330.03,-179.42 328.56,-186.26"/>
</g>
<!-- Node12 -->
<g id="node12" class="node">
<title>Node12</title>
<g id="a_node12"><a xlink:href="StarBehaviour_8cpp.html" target="_top" xlink:title=" ">
<polygon fill="none" stroke="black" points="671,-118 671,-137 817,-137 817,-118 671,-118"/>
<text text-anchor="middle" x="744" y="-125" font-family="Helvetica,sans-Serif" font-size="10.00">src/Scripts/StarBehaviour.cpp</text>
</a>
</g>
</g>
<!-- Node2&#45;&gt;Node12 -->
<g id="edge12" class="edge">
<title>Node2&#45;&gt;Node12</title>
<path fill="none" stroke="midnightblue" d="M437.31,-183.12C509.05,-170.34 629.49,-148.89 696.09,-137.03"/>
<polygon fill="midnightblue" stroke="midnightblue" points="436.32,-179.74 427.09,-184.94 437.55,-186.63 436.32,-179.74"/>
</g>
<!-- Node4 -->
<g id="node4" class="node">
<title>Node4</title>
<g id="a_node4"><a xlink:href="Level1_8hpp.html" target="_top" xlink:title=" ">
<polygon fill="none" stroke="black" points="248,-56.5 248,-75.5 390,-75.5 390,-56.5 248,-56.5"/>
<text text-anchor="middle" x="319" y="-63.5" font-family="Helvetica,sans-Serif" font-size="10.00">src/Game/Levels/Level1.hpp</text>
</a>
</g>
</g>
<!-- Node3&#45;&gt;Node4 -->
<g id="edge3" class="edge">
<title>Node3&#45;&gt;Node4</title>
<path fill="none" stroke="midnightblue" d="M258.77,-111.79C274.12,-100.38 294.86,-84.96 307.56,-75.51"/>
<polygon fill="midnightblue" stroke="midnightblue" points="256.4,-109.2 250.46,-117.98 260.57,-114.82 256.4,-109.2"/>
</g>
<!-- Node7 -->
<g id="node7" class="node">
<title>Node7</title>
<g id="a_node7"><a xlink:href="Level2_8hpp.html" target="_top" xlink:title=" ">
<polygon fill="none" stroke="black" points="88,-56.5 88,-75.5 230,-75.5 230,-56.5 88,-56.5"/>
<text text-anchor="middle" x="159" y="-63.5" font-family="Helvetica,sans-Serif" font-size="10.00">src/Game/Levels/Level2.hpp</text>
</a>
</g>
</g>
<!-- Node3&#45;&gt;Node7 -->
<g id="edge6" class="edge">
<title>Node3&#45;&gt;Node7</title>
<path fill="none" stroke="midnightblue" d="M219.23,-111.79C203.88,-100.38 183.14,-84.96 170.44,-75.51"/>
<polygon fill="midnightblue" stroke="midnightblue" points="217.43,-114.82 227.54,-117.98 221.6,-109.2 217.43,-114.82"/>
</g>
<!-- Node5 -->
<g id="node5" class="node">
<title>Node5</title>
<g id="a_node5"><a xlink:href="Game_8cpp.html" target="_top" xlink:title=" ">
<polygon fill="none" stroke="black" points="185.5,-0.5 185.5,-19.5 292.5,-19.5 292.5,-0.5 185.5,-0.5"/>
<text text-anchor="middle" x="239" y="-7.5" font-family="Helvetica,sans-Serif" font-size="10.00">src/Game/Game.cpp</text>
</a>
</g>
</g>
<!-- Node4&#45;&gt;Node5 -->
<g id="edge4" class="edge">
<title>Node4&#45;&gt;Node5</title>
<path fill="none" stroke="midnightblue" d="M297.7,-50.62C283.08,-40.76 264.17,-27.99 251.82,-19.65"/>
<polygon fill="midnightblue" stroke="midnightblue" points="295.9,-53.63 306.15,-56.32 299.82,-47.83 295.9,-53.63"/>
</g>
<!-- Node6 -->
<g id="node6" class="node">
<title>Node6</title>
<g id="a_node6"><a xlink:href="Level1_8cpp.html" target="_top" xlink:title=" ">
<polygon fill="none" stroke="black" points="311,-0.5 311,-19.5 453,-19.5 453,-0.5 311,-0.5"/>
<text text-anchor="middle" x="382" y="-7.5" font-family="Helvetica,sans-Serif" font-size="10.00">src/Game/Levels/Level1.cpp</text>
</a>
</g>
</g>
<!-- Node4&#45;&gt;Node6 -->
<g id="edge5" class="edge">
<title>Node4&#45;&gt;Node6</title>
<path fill="none" stroke="midnightblue" d="M337.04,-49.54C348.27,-39.91 362.32,-27.87 371.69,-19.83"/>
<polygon fill="midnightblue" stroke="midnightblue" points="334.44,-47.16 329.12,-56.32 338.99,-52.47 334.44,-47.16"/>
</g>
<!-- Node7&#45;&gt;Node5 -->
<g id="edge7" class="edge">
<title>Node7&#45;&gt;Node5</title>
<path fill="none" stroke="midnightblue" d="M180.3,-50.62C194.92,-40.76 213.83,-27.99 226.18,-19.65"/>
<polygon fill="midnightblue" stroke="midnightblue" points="178.18,-47.83 171.85,-56.32 182.1,-53.63 178.18,-47.83"/>
</g>
<!-- Node8 -->
<g id="node8" class="node">
<title>Node8</title>
<g id="a_node8"><a xlink:href="Level2_8cpp.html" target="_top" xlink:title=" ">
<polygon fill="none" stroke="black" points="25,-0.5 25,-19.5 167,-19.5 167,-0.5 25,-0.5"/>
<text text-anchor="middle" x="96" y="-7.5" font-family="Helvetica,sans-Serif" font-size="10.00">src/Game/Levels/Level2.cpp</text>
</a>
</g>
</g>
<!-- Node7&#45;&gt;Node8 -->
<g id="edge8" class="edge">
<title>Node7&#45;&gt;Node8</title>
<path fill="none" stroke="midnightblue" d="M140.96,-49.54C129.73,-39.91 115.68,-27.87 106.31,-19.83"/>
<polygon fill="midnightblue" stroke="midnightblue" points="139.01,-52.47 148.88,-56.32 143.56,-47.16 139.01,-52.47"/>
</g>
<!-- Node13&#45;&gt;Node2 -->
<g id="edge14" class="edge">
<title>Node13&#45;&gt;Node2</title>
<path fill="none" stroke="midnightblue" d="M490.26,-242.46C460.5,-229.9 422.18,-213.72 399.16,-204.01"/>
<polygon fill="midnightblue" stroke="midnightblue" points="489.01,-245.73 499.58,-246.4 491.73,-239.28 489.01,-245.73"/>
</g>
<!-- Node14 -->
<g id="node14" class="node">
<title>Node14</title>
<g id="a_node14"><a xlink:href="SmallMarioState_8cpp.html" target="_top" xlink:title=" ">
<polygon fill="none" stroke="black" points="473.5,-179.5 473.5,-209.5 592.5,-209.5 592.5,-179.5 473.5,-179.5"/>
<text text-anchor="start" x="481.5" y="-197.5" font-family="Helvetica,sans-Serif" font-size="10.00">src/Scripts/MarioStates</text>
<text text-anchor="middle" x="533" y="-186.5" font-family="Helvetica,sans-Serif" font-size="10.00">/SmallMarioState.cpp</text>
</a>
</g>
</g>
<!-- Node13&#45;&gt;Node14 -->
<g id="edge15" class="edge">
<title>Node13&#45;&gt;Node14</title>
<path fill="none" stroke="midnightblue" d="M533,-236.11C533,-227.15 533,-217.32 533,-209.58"/>
<polygon fill="midnightblue" stroke="midnightblue" points="529.5,-236.4 533,-246.4 536.5,-236.4 529.5,-236.4"/>
</g>
<!-- Node15 -->
<g id="node15" class="node">
<title>Node15</title>
<g id="a_node15"><a xlink:href="StarMarioState_8cpp.html" target="_top" xlink:title=" ">
<polygon fill="none" stroke="black" points="610.5,-179.5 610.5,-209.5 729.5,-209.5 729.5,-179.5 610.5,-179.5"/>
<text text-anchor="start" x="618.5" y="-197.5" font-family="Helvetica,sans-Serif" font-size="10.00">src/Scripts/MarioStates</text>
<text text-anchor="middle" x="670" y="-186.5" font-family="Helvetica,sans-Serif" font-size="10.00">/StarMarioState.cpp</text>
</a>
</g>
</g>
<!-- Node13&#45;&gt;Node15 -->
<g id="edge16" class="edge">
<title>Node13&#45;&gt;Node15</title>
<path fill="none" stroke="midnightblue" d="M572.01,-241.99C593.72,-231.69 620.33,-219.07 640.33,-209.58"/>
<polygon fill="midnightblue" stroke="midnightblue" points="570.26,-238.95 562.73,-246.4 573.26,-245.27 570.26,-238.95"/>
</g>
<!-- Node16&#45;&gt;Node12 -->
<g id="edge20" class="edge">
<title>Node16&#45;&gt;Node12</title>
<path fill="none" stroke="midnightblue" d="M708.66,-240.97C720.43,-233.02 732.07,-222.68 739,-210 751.92,-186.36 748.41,-152.92 745.75,-137.25"/>
<polygon fill="midnightblue" stroke="midnightblue" points="706.74,-238.04 700.14,-246.33 710.47,-243.97 706.74,-238.04"/>
</g>
<!-- Node16&#45;&gt;Node14 -->
<g id="edge18" class="edge">
<title>Node16&#45;&gt;Node14</title>
<path fill="none" stroke="midnightblue" d="M630.99,-241.99C609.28,-231.69 582.67,-219.07 562.67,-209.58"/>
<polygon fill="midnightblue" stroke="midnightblue" points="629.74,-245.27 640.27,-246.4 632.74,-238.95 629.74,-245.27"/>
</g>
<!-- Node16&#45;&gt;Node15 -->
<g id="edge19" class="edge">
<title>Node16&#45;&gt;Node15</title>
<path fill="none" stroke="midnightblue" d="M670,-236.11C670,-227.15 670,-217.32 670,-209.58"/>
<polygon fill="midnightblue" stroke="midnightblue" points="666.5,-236.4 670,-246.4 673.5,-236.4 666.5,-236.4"/>
</g>
</g>
</svg>
        <g id="navigator" transform="translate(0 0)" fill="#404254">
                <rect fill="#f2f5e9" fill-opacity="0.5" stroke="#606060" stroke-width=".5" x="0" y="0" width="60" height="60"/>
                <use id="zoomplus" xlink:href="#zoomPlus" x="17" y="9" onmousedown="handleZoom(evt,'in')"/>
                <use id="zoomminus" xlink:href="#zoomMin" x="42" y="9" onmousedown="handleZoom(evt,'out')"/>
                <use id="reset" xlink:href="#resetDef" x="30" y="36" onmousedown="handleReset()"/>
                <g id="arrowUp" xlink:href="#dirArrow" transform="translate(30 24)" onmousedown="handlePan(0,-1)">
                  <use xlink:href="#rim" fill="#404040">
                        <set attributeName="fill" to="#808080" begin="arrowUp.mouseover" end="arrowUp.mouseout"/>
                  </use>
                  <path fill="none" stroke="white" stroke-width="1.5" d="M0,-3.0v7 M-2.5,-0.5L0,-3.0L2.5,-0.5"/>
                </g>
                <g id="arrowRight" xlink:href="#dirArrow" transform="rotate(90) translate(36 -43)" onmousedown="handlePan(1,0)">
                  <use xlink:href="#rim" fill="#404040">
                        <set attributeName="fill" to="#808080" begin="arrowRight.mouseover" end="arrowRight.mouseout"/>
                  </use>
                  <path fill="none" stroke="white" stroke-width="1.5" d="M0,-3.0v7 M-2.5,-0.5L0,-3.0L2.5,-0.5"/>
                </g>
                <g id="arrowDown" xlink:href="#dirArrow" transform="rotate(180) translate(-30 -48)" onmousedown="handlePan(0,1)">
                  <use xlink:href="#rim" fill="#404040">
                        <set attributeName="fill" to="#808080" begin="arrowDown.mouseover" end="arrowDown.mouseout"/>
                  </use>
                  <path fill="none" stroke="white" stroke-width="1.5" d="M0,-3.0v7 M-2.5,-0.5L0,-3.0L2.5,-0.5"/>
                </g>
                <g id="arrowLeft" xlink:href="#dirArrow" transform="rotate(270) translate(-36 17)" onmousedown="handlePan(-1,0)">
                  <use xlink:href="#rim" fill="#404040">
                        <set attributeName="fill" to="#808080" begin="arrowLeft.mouseover" end="arrowLeft.mouseout"/>
                  </use>
                  <path fill="none" stroke="white" stroke-width="1.5" d="M0,-3.0v7 M-2.5,-0.5L0,-3.0L2.5,-0.5"/>
                </g>
        </g>
        <svg viewBox="0 0 15 15" width="100%" height="30px" preserveAspectRatio="xMaxYMin meet">
         <g id="arrow_out" transform="scale(0.3 0.3)">
          <a xlink:href="MarioState_8hpp__dep__incl_org.svg" target="_base">
           <rect id="button" ry="5" rx="5" y="6" x="6" height="38" width="38"
                fill="#f2f5e9" fill-opacity="0.5" stroke="#606060" stroke-width="1.0"/>
           <path id="arrow"
             d="M 11.500037,31.436501 C 11.940474,20.09759 22.043105,11.32322 32.158766,21.979434 L 37.068811,17.246167 C 37.068811,17.246167 37.088388,32 37.088388,32 L 22.160133,31.978069 C 22.160133,31.978069 26.997745,27.140456 26.997745,27.140456 C 18.528582,18.264221 13.291696,25.230495 11.500037,31.436501 z"
             style="fill:#404040;"/>
          </a>
         </g>
        </svg>
</svg>
