<svg xmlns="http://www.w3.org/2000/svg" xmlns:xlink="http://www.w3.org/1999/xlink" width="943pt" height="276" viewBox="0 0 943 207"><g id="graph0" class="graph" transform="scale(1 1) rotate(0) translate(4 203)"><title>src/Scripts/MarioBehaviour.hpp</title><g id="node1" class="node"><title>Node1</title><g id="a_node1"><a><polygon fill="#bfbfbf" stroke="#000" points="451 -179.5 451 -198.5 603 -198.5 603 -179.5 451 -179.5"/><text x="527" y="-186.5" font-family="Helvetica,sans-Serif" font-size="10" text-anchor="middle">src/Scripts/MarioBehaviour.hpp</text></a></g></g><g id="node2" class="node"><title>Node2</title><g id="a_node2"><a target="_top" xlink:href="Level_8hpp.html"><polygon fill="none" stroke="#000" points="145.5 -118 145.5 -137 282.5 -137 282.5 -118 145.5 -118"/><text x="214" y="-125" font-family="Helvetica,sans-Serif" font-size="10" text-anchor="middle">src/Game/Levels/Level.hpp</text></a></g></g><g id="edge1" class="edge"><title>Node1-&gt;Node2</title><path fill="none" stroke="#191970" d="M472,-177.55C411.37,-166.02 314.97,-147.69 258.76,-137.01"/><polygon fill="#191970" stroke="#191970" points="471.68 -181.05 482.15 -179.48 472.98 -174.17 471.68 -181.05"/></g><g id="node8" class="node"><title>Node8</title><g id="a_node8"><a target="_top" xlink:href="NetworkingClient_8cpp.html"><polygon fill="none" stroke="#000" points="300.5 -112.5 300.5 -142.5 435.5 -142.5 435.5 -112.5 300.5 -112.5"/><text x="308.5" y="-130.5" font-family="Helvetica,sans-Serif" font-size="10" text-anchor="start">src/Networking/Networking</text><text x="368" y="-119.5" font-family="Helvetica,sans-Serif" font-size="10" text-anchor="middle">Client.cpp</text></a></g></g><g id="edge8" class="edge"><title>Node1-&gt;Node8</title><path fill="none" stroke="#191970" d="M494.53,-175.85C468.7,-166.18 432.53,-152.65 405.47,-142.52"/><polygon fill="#191970" stroke="#191970" points="493.63 -179.25 504.22 -179.48 496.08 -172.69 493.63 -179.25"/></g><g id="node9" class="node"><title>Node9</title><g id="a_node9"><a target="_top" xlink:href="FlagBehaviour_8cpp.html"><polygon fill="none" stroke="#000" points="453.5 -118 453.5 -137 600.5 -137 600.5 -118 453.5 -118"/><text x="527" y="-125" font-family="Helvetica,sans-Serif" font-size="10" text-anchor="middle">src/Scripts/FlagBehaviour.cpp</text></a></g></g><g id="edge9" class="edge"><title>Node1-&gt;Node9</title><path fill="none" stroke="#191970" d="M527,-169.32C527,-158.5 527,-145.4 527,-137.01"/><polygon fill="#191970" stroke="#191970" points="523.5 -169.48 527 -179.48 530.5 -169.48 523.5 -169.48"/></g><g id="node10" class="node"><title>Node10</title><g id="a_node10"><a target="_top" xlink:href="MarioBehaviour_8cpp.html"><polygon fill="none" stroke="#000" points="619 -118 619 -137 771 -137 771 -118 619 -118"/><text x="695" y="-125" font-family="Helvetica,sans-Serif" font-size="10" text-anchor="middle">src/Scripts/MarioBehaviour.cpp</text></a></g></g><g id="edge10" class="edge"><title>Node1-&gt;Node10</title><path fill="none" stroke="#191970" d="M560.65,-176.08C593.3,-164.52 642.05,-147.25 670.97,-137.01"/><polygon fill="#191970" stroke="#191970" points="559.33 -172.84 551.07 -179.48 561.67 -179.44 559.33 -172.84"/></g><g id="node11" class="node"><title>Node11</title><g id="a_node11"><a target="_top" xlink:href="StarBehaviour_8cpp.html"><polygon fill="none" stroke="#000" points="789 -118 789 -137 935 -137 935 -118 789 -118"/><text x="862" y="-125" font-family="Helvetica,sans-Serif" font-size="10" text-anchor="middle">src/Scripts/StarBehaviour.cpp</text></a></g></g><g id="edge11" class="edge"><title>Node1-&gt;Node11</title><path fill="none" stroke="#191970" d="M585.06,-177.69C649.91,-166.17 753.68,-147.74 814.09,-137.01"/><polygon fill="#191970" stroke="#191970" points="584.23 -174.28 575 -179.48 585.46 -181.17 584.23 -174.28"/></g><g id="node3" class="node"><title>Node3</title><g id="a_node3"><a target="_top" xlink:href="Level1_8hpp.html"><polygon fill="none" stroke="#000" points="63 -56.5 63 -75.5 205 -75.5 205 -56.5 63 -56.5"/><text x="134" y="-63.5" font-family="Helvetica,sans-Serif" font-size="10" text-anchor="middle">src/Game/Levels/Level1.hpp</text></a></g></g><g id="edge2" class="edge"><title>Node2-&gt;Node3</title><path fill="none" stroke="#191970" d="M194.23,-111.79C178.88,-100.38 158.14,-84.96 145.44,-75.51"/><polygon fill="#191970" stroke="#191970" points="192.43 -114.82 202.54 -117.98 196.6 -109.2 192.43 -114.82"/></g><g id="node6" class="node"><title>Node6</title><g id="a_node6"><a target="_top" xlink:href="Level2_8hpp.html"><polygon fill="none" stroke="#000" points="223 -56.5 223 -75.5 365 -75.5 365 -56.5 223 -56.5"/><text x="294" y="-63.5" font-family="Helvetica,sans-Serif" font-size="10" text-anchor="middle">src/Game/Levels/Level2.hpp</text></a></g></g><g id="edge5" class="edge"><title>Node2-&gt;Node6</title><path fill="none" stroke="#191970" d="M233.77,-111.79C249.12,-100.38 269.86,-84.96 282.56,-75.51"/><polygon fill="#191970" stroke="#191970" points="231.4 -109.2 225.46 -117.98 235.57 -114.82 231.4 -109.2"/></g><g id="node4" class="node"><title>Node4</title><g id="a_node4"><a target="_top" xlink:href="Game_8cpp.html"><polygon fill="none" stroke="#000" points="160.5 -.5 160.5 -19.5 267.5 -19.5 267.5 -.5 160.5 -.5"/><text x="214" y="-7.5" font-family="Helvetica,sans-Serif" font-size="10" text-anchor="middle">src/Game/Game.cpp</text></a></g></g><g id="edge3" class="edge"><title>Node3-&gt;Node4</title><path fill="none" stroke="#191970" d="M155.3,-50.62C169.92,-40.76 188.83,-27.99 201.18,-19.65"/><polygon fill="#191970" stroke="#191970" points="153.18 -47.83 146.85 -56.32 157.1 -53.63 153.18 -47.83"/></g><g id="node5" class="node"><title>Node5</title><g id="a_node5"><a target="_top" xlink:href="Level1_8cpp.html"><polygon fill="none" stroke="#000" points="0 -.5 0 -19.5 142 -19.5 142 -.5 0 -.5"/><text x="71" y="-7.5" font-family="Helvetica,sans-Serif" font-size="10" text-anchor="middle">src/Game/Levels/Level1.cpp</text></a></g></g><g id="edge4" class="edge"><title>Node3-&gt;Node5</title><path fill="none" stroke="#191970" d="M115.96,-49.54C104.73,-39.91 90.68,-27.87 81.31,-19.83"/><polygon fill="#191970" stroke="#191970" points="114.01 -52.47 123.88 -56.32 118.56 -47.16 114.01 -52.47"/></g><g id="edge6" class="edge"><title>Node6-&gt;Node4</title><path fill="none" stroke="#191970" d="M272.7,-50.62C258.08,-40.76 239.17,-27.99 226.82,-19.65"/><polygon fill="#191970" stroke="#191970" points="270.9 -53.63 281.15 -56.32 274.82 -47.83 270.9 -53.63"/></g><g id="node7" class="node"><title>Node7</title><g id="a_node7"><a target="_top" xlink:href="Level2_8cpp.html"><polygon fill="none" stroke="#000" points="286 -.5 286 -19.5 428 -19.5 428 -.5 286 -.5"/><text x="357" y="-7.5" font-family="Helvetica,sans-Serif" font-size="10" text-anchor="middle">src/Game/Levels/Level2.cpp</text></a></g></g><g id="edge7" class="edge"><title>Node6-&gt;Node7</title><path fill="none" stroke="#191970" d="M312.04,-49.54C323.27,-39.91 337.32,-27.87 346.69,-19.83"/><polygon fill="#191970" stroke="#191970" points="309.44 -47.16 304.12 -56.32 313.99 -52.47 309.44 -47.16"/></g></g></svg>