<?xml version="1.0" encoding="UTF-8" standalone="no"?>
<!DOCTYPE svg PUBLIC "-//W3C//DTD SVG 1.1//EN"
 "http://www.w3.org/Graphics/SVG/1.1/DTD/svg11.dtd">
<!-- Generated by graphviz version 2.44.0 ()
 -->
<!-- Title: src/Scripts/MarioStates/MarioState.hpp Pages: 1 -->
<svg width="803pt" height="352pt"
 viewBox="0.00 0.00 803.00 352.00" xmlns="http://www.w3.org/2000/svg" xmlns:xlink="http://www.w3.org/1999/xlink">
<g id="graph0" class="graph" transform="scale(1 1) rotate(0) translate(4 348)">
<title>src/Scripts/MarioStates/MarioState.hpp</title>
<!-- Node1 -->
<g id="node1" class="node">
<title>Node1</title>
<g id="a_node1"><a xlink:title=" ">
<polygon fill="#bfbfbf" stroke="black" points="462.5,-313.5 462.5,-343.5 581.5,-343.5 581.5,-313.5 462.5,-313.5"/>
<text text-anchor="start" x="470.5" y="-331.5" font-family="Helvetica,sans-Serif" font-size="10.00">src/Scripts/MarioStates</text>
<text text-anchor="middle" x="522" y="-320.5" font-family="Helvetica,sans-Serif" font-size="10.00">/MarioState.hpp</text>
</a>
</g>
</g>
<!-- Node2 -->
<g id="node2" class="node">
<title>Node2</title>
<g id="a_node2"><a xlink:href="MarioBehaviour_8hpp.html" target="_top" xlink:title=" ">
<polygon fill="none" stroke="black" points="292,-185 292,-204 444,-204 444,-185 292,-185"/>
<text text-anchor="middle" x="368" y="-192" font-family="Helvetica,sans-Serif" font-size="10.00">src/Scripts/MarioBehaviour.hpp</text>
</a>
</g>
</g>
<!-- Node1&#45;&gt;Node2 -->
<g id="edge1" class="edge">
<title>Node1&#45;&gt;Node2</title>
<path fill="none" stroke="midnightblue" d="M492.92,-307.52C480.35,-298.55 465.66,-287.62 453,-277 423.56,-252.3 391.52,-219.92 376.57,-204.47"/>
<polygon fill="midnightblue" stroke="midnightblue" points="491.04,-310.48 501.23,-313.38 495.08,-304.76 491.04,-310.48"/>
</g>
<!-- Node12 -->
<g id="node12" class="node">
<title>Node12</title>
<g id="a_node12"><a xlink:href="SmallMarioState_8hpp.html" target="_top" xlink:title=" ">
<polygon fill="none" stroke="black" points="462.5,-246.5 462.5,-276.5 581.5,-276.5 581.5,-246.5 462.5,-246.5"/>
<text text-anchor="start" x="470.5" y="-264.5" font-family="Helvetica,sans-Serif" font-size="10.00">src/Scripts/MarioStates</text>
<text text-anchor="middle" x="522" y="-253.5" font-family="Helvetica,sans-Serif" font-size="10.00">/SmallMarioState.hpp</text>
</a>
</g>
</g>
<!-- Node1&#45;&gt;Node12 -->
<g id="edge12" class="edge">
<title>Node1&#45;&gt;Node12</title>
<path fill="none" stroke="midnightblue" d="M522,-303.11C522,-294.15 522,-284.32 522,-276.58"/>
<polygon fill="midnightblue" stroke="midnightblue" points="518.5,-303.4 522,-313.4 525.5,-303.4 518.5,-303.4"/>
</g>
<!-- Node15 -->
<g id="node15" class="node">
<title>Node15</title>
<g id="a_node15"><a xlink:href="StarMarioState_8hpp.html" target="_top" xlink:title=" ">
<polygon fill="none" stroke="black" points="599.5,-246.5 599.5,-276.5 718.5,-276.5 718.5,-246.5 599.5,-246.5"/>
<text text-anchor="start" x="607.5" y="-264.5" font-family="Helvetica,sans-Serif" font-size="10.00">src/Scripts/MarioStates</text>
<text text-anchor="middle" x="659" y="-253.5" font-family="Helvetica,sans-Serif" font-size="10.00">/StarMarioState.hpp</text>
</a>
</g>
</g>
<!-- Node1&#45;&gt;Node15 -->
<g id="edge16" class="edge">
<title>Node1&#45;&gt;Node15</title>
<path fill="none" stroke="midnightblue" d="M561.01,-308.99C582.72,-298.69 609.33,-286.07 629.33,-276.58"/>
<polygon fill="midnightblue" stroke="midnightblue" points="559.26,-305.95 551.73,-313.4 562.26,-312.27 559.26,-305.95"/>
</g>
<!-- Node3 -->
<g id="node3" class="node">
<title>Node3</title>
<g id="a_node3"><a xlink:href="Level_8hpp.html" target="_top" xlink:title=" ">
<polygon fill="none" stroke="black" points="145.5,-118 145.5,-137 282.5,-137 282.5,-118 145.5,-118"/>
<text text-anchor="middle" x="214" y="-125" font-family="Helvetica,sans-Serif" font-size="10.00">src/Game/Levels/Level.hpp</text>
</a>
</g>
</g>
<!-- Node2&#45;&gt;Node3 -->
<g id="edge2" class="edge">
<title>Node2&#45;&gt;Node3</title>
<path fill="none" stroke="midnightblue" d="M338.26,-180.95C307.77,-168.08 261.16,-148.4 234.53,-137.17"/>
<polygon fill="midnightblue" stroke="midnightblue" points="336.98,-184.2 347.55,-184.87 339.7,-177.76 336.98,-184.2"/>
</g>
<!-- Node9 -->
<g id="node9" class="node">
<title>Node9</title>
<g id="a_node9"><a xlink:href="NetworkingClient_8cpp.html" target="_top" xlink:title=" ">
<polygon fill="none" stroke="black" points="300.5,-112.5 300.5,-142.5 435.5,-142.5 435.5,-112.5 300.5,-112.5"/>
<text text-anchor="start" x="308.5" y="-130.5" font-family="Helvetica,sans-Serif" font-size="10.00">src/Networking/Networking</text>
<text text-anchor="middle" x="368" y="-119.5" font-family="Helvetica,sans-Serif" font-size="10.00">Client.cpp</text>
</a>
</g>
</g>
<!-- Node2&#45;&gt;Node9 -->
<g id="edge9" class="edge">
<title>Node2&#45;&gt;Node9</title>
<path fill="none" stroke="midnightblue" d="M368,-174.41C368,-164.22 368,-151.9 368,-142.59"/>
<polygon fill="midnightblue" stroke="midnightblue" points="364.5,-174.73 368,-184.73 371.5,-174.73 364.5,-174.73"/>
</g>
<!-- Node10 -->
<g id="node10" class="node">
<title>Node10</title>
<g id="a_node10"><a xlink:href="MarioBehaviour_8cpp.html" target="_top" xlink:title=" ">
<polygon fill="none" stroke="black" points="454,-118 454,-137 606,-137 606,-118 454,-118"/>
<text text-anchor="middle" x="530" y="-125" font-family="Helvetica,sans-Serif" font-size="10.00">src/Scripts/MarioBehaviour.cpp</text>
</a>
</g>
</g>
<!-- Node2&#45;&gt;Node10 -->
<g id="edge10" class="edge">
<title>Node2&#45;&gt;Node10</title>
<path fill="none" stroke="midnightblue" d="M398.89,-181.1C431.06,-168.2 480.58,-148.33 508.66,-137.06"/>
<polygon fill="midnightblue" stroke="midnightblue" points="397.49,-177.9 389.51,-184.87 400.1,-184.39 397.49,-177.9"/>
</g>
<!-- Node11 -->
<g id="node11" class="node">
<title>Node11</title>
<g id="a_node11"><a xlink:href="StarBehaviour_8cpp.html" target="_top" xlink:title=" ">
<polygon fill="none" stroke="black" points="649,-118 649,-137 795,-137 795,-118 649,-118"/>
<text text-anchor="middle" x="722" y="-125" font-family="Helvetica,sans-Serif" font-size="10.00">src/Scripts/StarBehaviour.cpp</text>
</a>
</g>
</g>
<!-- Node2&#45;&gt;Node11 -->
<g id="edge11" class="edge">
<title>Node2&#45;&gt;Node11</title>
<path fill="none" stroke="midnightblue" d="M424.55,-183.12C494.13,-170.34 610.94,-148.89 675.53,-137.03"/>
<polygon fill="midnightblue" stroke="midnightblue" points="423.85,-179.69 414.64,-184.94 425.11,-186.57 423.85,-179.69"/>
</g>
<!-- Node4 -->
<g id="node4" class="node">
<title>Node4</title>
<g id="a_node4"><a xlink:href="Level1_8hpp.html" target="_top" xlink:title=" ">
<polygon fill="none" stroke="black" points="223,-56.5 223,-75.5 365,-75.5 365,-56.5 223,-56.5"/>
<text text-anchor="middle" x="294" y="-63.5" font-family="Helvetica,sans-Serif" font-size="10.00">src/Game/Levels/Level1.hpp</text>
</a>
</g>
</g>
<!-- Node3&#45;&gt;Node4 -->
<g id="edge3" class="edge">
<title>Node3&#45;&gt;Node4</title>
<path fill="none" stroke="midnightblue" d="M233.77,-111.79C249.12,-100.38 269.86,-84.96 282.56,-75.51"/>
<polygon fill="midnightblue" stroke="midnightblue" points="231.4,-109.2 225.46,-117.98 235.57,-114.82 231.4,-109.2"/>
</g>
<!-- Node7 -->
<g id="node7" class="node">
<title>Node7</title>
<g id="a_node7"><a xlink:href="Level2_8hpp.html" target="_top" xlink:title=" ">
<polygon fill="none" stroke="black" points="63,-56.5 63,-75.5 205,-75.5 205,-56.5 63,-56.5"/>
<text text-anchor="middle" x="134" y="-63.5" font-family="Helvetica,sans-Serif" font-size="10.00">src/Game/Levels/Level2.hpp</text>
</a>
</g>
</g>
<!-- Node3&#45;&gt;Node7 -->
<g id="edge6" class="edge">
<title>Node3&#45;&gt;Node7</title>
<path fill="none" stroke="midnightblue" d="M194.23,-111.79C178.88,-100.38 158.14,-84.96 145.44,-75.51"/>
<polygon fill="midnightblue" stroke="midnightblue" points="192.43,-114.82 202.54,-117.98 196.6,-109.2 192.43,-114.82"/>
</g>
<!-- Node5 -->
<g id="node5" class="node">
<title>Node5</title>
<g id="a_node5"><a xlink:href="Game_8cpp.html" target="_top" xlink:title=" ">
<polygon fill="none" stroke="black" points="160.5,-0.5 160.5,-19.5 267.5,-19.5 267.5,-0.5 160.5,-0.5"/>
<text text-anchor="middle" x="214" y="-7.5" font-family="Helvetica,sans-Serif" font-size="10.00">src/Game/Game.cpp</text>
</a>
</g>
</g>
<!-- Node4&#45;&gt;Node5 -->
<g id="edge4" class="edge">
<title>Node4&#45;&gt;Node5</title>
<path fill="none" stroke="midnightblue" d="M272.7,-50.62C258.08,-40.76 239.17,-27.99 226.82,-19.65"/>
<polygon fill="midnightblue" stroke="midnightblue" points="270.9,-53.63 281.15,-56.32 274.82,-47.83 270.9,-53.63"/>
</g>
<!-- Node6 -->
<g id="node6" class="node">
<title>Node6</title>
<g id="a_node6"><a xlink:href="Level1_8cpp.html" target="_top" xlink:title=" ">
<polygon fill="none" stroke="black" points="286,-0.5 286,-19.5 428,-19.5 428,-0.5 286,-0.5"/>
<text text-anchor="middle" x="357" y="-7.5" font-family="Helvetica,sans-Serif" font-size="10.00">src/Game/Levels/Level1.cpp</text>
</a>
</g>
</g>
<!-- Node4&#45;&gt;Node6 -->
<g id="edge5" class="edge">
<title>Node4&#45;&gt;Node6</title>
<path fill="none" stroke="midnightblue" d="M312.04,-49.54C323.27,-39.91 337.32,-27.87 346.69,-19.83"/>
<polygon fill="midnightblue" stroke="midnightblue" points="309.44,-47.16 304.12,-56.32 313.99,-52.47 309.44,-47.16"/>
</g>
<!-- Node7&#45;&gt;Node5 -->
<g id="edge7" class="edge">
<title>Node7&#45;&gt;Node5</title>
<path fill="none" stroke="midnightblue" d="M155.3,-50.62C169.92,-40.76 188.83,-27.99 201.18,-19.65"/>
<polygon fill="midnightblue" stroke="midnightblue" points="153.18,-47.83 146.85,-56.32 157.1,-53.63 153.18,-47.83"/>
</g>
<!-- Node8 -->
<g id="node8" class="node">
<title>Node8</title>
<g id="a_node8"><a xlink:href="Level2_8cpp.html" target="_top" xlink:title=" ">
<polygon fill="none" stroke="black" points="0,-0.5 0,-19.5 142,-19.5 142,-0.5 0,-0.5"/>
<text text-anchor="middle" x="71" y="-7.5" font-family="Helvetica,sans-Serif" font-size="10.00">src/Game/Levels/Level2.cpp</text>
</a>
</g>
</g>
<!-- Node7&#45;&gt;Node8 -->
<g id="edge8" class="edge">
<title>Node7&#45;&gt;Node8</title>
<path fill="none" stroke="midnightblue" d="M115.96,-49.54C104.73,-39.91 90.68,-27.87 81.31,-19.83"/>
<polygon fill="midnightblue" stroke="midnightblue" points="114.01,-52.47 123.88,-56.32 118.56,-47.16 114.01,-52.47"/>
</g>
<!-- Node12&#45;&gt;Node2 -->
<g id="edge13" class="edge">
<title>Node12&#45;&gt;Node2</title>
<path fill="none" stroke="midnightblue" d="M479.26,-242.46C449.5,-229.9 411.18,-213.72 388.16,-204.01"/>
<polygon fill="midnightblue" stroke="midnightblue" points="478.01,-245.73 488.58,-246.4 480.73,-239.28 478.01,-245.73"/>
</g>
<!-- Node13 -->
<g id="node13" class="node">
<title>Node13</title>
<g id="a_node13"><a xlink:href="SmallMarioState_8cpp.html" target="_top" xlink:title=" ">
<polygon fill="none" stroke="black" points="462.5,-179.5 462.5,-209.5 581.5,-209.5 581.5,-179.5 462.5,-179.5"/>
<text text-anchor="start" x="470.5" y="-197.5" font-family="Helvetica,sans-Serif" font-size="10.00">src/Scripts/MarioStates</text>
<text text-anchor="middle" x="522" y="-186.5" font-family="Helvetica,sans-Serif" font-size="10.00">/SmallMarioState.cpp</text>
</a>
</g>
</g>
<!-- Node12&#45;&gt;Node13 -->
<g id="edge14" class="edge">
<title>Node12&#45;&gt;Node13</title>
<path fill="none" stroke="midnightblue" d="M522,-236.11C522,-227.15 522,-217.32 522,-209.58"/>
<polygon fill="midnightblue" stroke="midnightblue" points="518.5,-236.4 522,-246.4 525.5,-236.4 518.5,-236.4"/>
</g>
<!-- Node14 -->
<g id="node14" class="node">
<title>Node14</title>
<g id="a_node14"><a xlink:href="StarMarioState_8cpp.html" target="_top" xlink:title=" ">
<polygon fill="none" stroke="black" points="599.5,-179.5 599.5,-209.5 718.5,-209.5 718.5,-179.5 599.5,-179.5"/>
<text text-anchor="start" x="607.5" y="-197.5" font-family="Helvetica,sans-Serif" font-size="10.00">src/Scripts/MarioStates</text>
<text text-anchor="middle" x="659" y="-186.5" font-family="Helvetica,sans-Serif" font-size="10.00">/StarMarioState.cpp</text>
</a>
</g>
</g>
<!-- Node12&#45;&gt;Node14 -->
<g id="edge15" class="edge">
<title>Node12&#45;&gt;Node14</title>
<path fill="none" stroke="midnightblue" d="M561.01,-241.99C582.72,-231.69 609.33,-219.07 629.33,-209.58"/>
<polygon fill="midnightblue" stroke="midnightblue" points="559.26,-238.95 551.73,-246.4 562.26,-245.27 559.26,-238.95"/>
</g>
<!-- Node15&#45;&gt;Node11 -->
<g id="edge19" class="edge">
<title>Node15&#45;&gt;Node11</title>
<path fill="none" stroke="midnightblue" d="M698.41,-241.01C710.1,-233.11 721.51,-222.78 728,-210 740.2,-185.96 730.98,-152.71 725.42,-137.16"/>
<polygon fill="midnightblue" stroke="midnightblue" points="696.52,-238.06 689.91,-246.34 700.24,-243.99 696.52,-238.06"/>
</g>
<!-- Node15&#45;&gt;Node13 -->
<g id="edge17" class="edge">
<title>Node15&#45;&gt;Node13</title>
<path fill="none" stroke="midnightblue" d="M619.99,-241.99C598.28,-231.69 571.67,-219.07 551.67,-209.58"/>
<polygon fill="midnightblue" stroke="midnightblue" points="618.74,-245.27 629.27,-246.4 621.74,-238.95 618.74,-245.27"/>
</g>
<!-- Node15&#45;&gt;Node14 -->
<g id="edge18" class="edge">
<title>Node15&#45;&gt;Node14</title>
<path fill="none" stroke="midnightblue" d="M659,-236.11C659,-227.15 659,-217.32 659,-209.58"/>
<polygon fill="midnightblue" stroke="midnightblue" points="655.5,-236.4 659,-246.4 662.5,-236.4 655.5,-236.4"/>
</g>
</g>
</svg>
