<svg xmlns="http://www.w3.org/2000/svg" xmlns:xlink="http://www.w3.org/1999/xlink" id="main" onload="init(evt)" version="1.1" xml:space="preserve"><style type="text/css">.edge:hover path{stroke:red}.edge:hover polygon{stroke:red;fill:red}</style><script type="text/javascript"><![CDATA[
var edges = document.getElementsByTagName('g');
if (edges && edges.length) {
  for (var i=0;i<edges.length;i++) {
    if (edges[i].id.substr(0,4)=='edge') {
      edges[i].setAttribute('class','edge');
    }
  }
}
]]></script><defs><circle id="rim" cx="0" cy="0" r="7"/><circle id="rim2" cx="0" cy="0" r="3.5"/><g id="zoomPlus"><use fill="#404040" xlink:href="#rim"><set attributeName="fill" begin="zoomplus.mouseover" end="zoomplus.mouseout" to="#808080"/></use><path fill="none" stroke="#fff" stroke-width="1.5" d="M-4,0h8M0,-4v8" pointer-events="none"/></g><g id="zoomMin"><use fill="#404040" xlink:href="#rim"><set attributeName="fill" begin="zoomminus.mouseover" end="zoomminus.mouseout" to="#808080"/></use><path fill="none" stroke="#fff" stroke-width="1.5" d="M-4,0h8" pointer-events="none"/></g><g id="dirArrow"><path fill="none" stroke="#fff" stroke-width="1.5" d="M0,-3.0v7 M-2.5,-0.5L0,-3.0L2.5,-0.5"/></g><g id="resetDef"><use fill="#404040" xlink:href="#rim2"><set attributeName="fill" begin="reset.mouseover" end="reset.mouseout" to="#808080"/></use></g></defs><script type="text/javascript">var viewWidth = 943; var viewHeight = 207; var sectionId = &apos;dynsection-1&apos;;</script><script xlink:href="svgpan.js"/><svg id="graph" class="graph"><g id="viewport"><title>src/Scripts/MarioBehaviour.hpp</title><g id="node1" class="node"><title>Node1</title><g id="a_node1"><a><polygon fill="#bfbfbf" stroke="#000" points="451 -179.5 451 -198.5 603 -198.5 603 -179.5 451 -179.5"/><text x="527" y="-186.5" font-family="Helvetica,sans-Serif" font-size="10" text-anchor="middle">src/Scripts/MarioBehaviour.hpp</text></a></g></g><g id="node2" class="node"><title>Node2</title><g id="a_node2"><a target="_top" xlink:href="Level_8hpp.html"><polygon fill="none" stroke="#000" points="145.5 -118 145.5 -137 282.5 -137 282.5 -118 145.5 -118"/><text x="214" y="-125" font-family="Helvetica,sans-Serif" font-size="10" text-anchor="middle">src/Game/Levels/Level.hpp</text></a></g></g><g id="edge1" class="edge"><title>Node1-&gt;Node2</title><path fill="none" stroke="#191970" d="M472,-177.55C411.37,-166.02 314.97,-147.69 258.76,-137.01"/><polygon fill="#191970" stroke="#191970" points="471.68 -181.05 482.15 -179.48 472.98 -174.17 471.68 -181.05"/></g><g id="node8" class="node"><title>Node8</title><g id="a_node8"><a target="_top" xlink:href="NetworkingClient_8cpp.html"><polygon fill="none" stroke="#000" points="300.5 -112.5 300.5 -142.5 435.5 -142.5 435.5 -112.5 300.5 -112.5"/><text x="308.5" y="-130.5" font-family="Helvetica,sans-Serif" font-size="10" text-anchor="start">src/Networking/Networking</text><text x="368" y="-119.5" font-family="Helvetica,sans-Serif" font-size="10" text-anchor="middle">Client.cpp</text></a></g></g><g id="edge8" class="edge"><title>Node1-&gt;Node8</title><path fill="none" stroke="#191970" d="M494.53,-175.85C468.7,-166.18 432.53,-152.65 405.47,-142.52"/><polygon fill="#191970" stroke="#191970" points="493.63 -179.25 504.22 -179.48 496.08 -172.69 493.63 -179.25"/></g><g id="node9" class="node"><title>Node9</title><g id="a_node9"><a target="_top" xlink:href="FlagBehaviour_8cpp.html"><polygon fill="none" stroke="#000" points="453.5 -118 453.5 -137 600.5 -137 600.5 -118 453.5 -118"/><text x="527" y="-125" font-family="Helvetica,sans-Serif" font-size="10" text-anchor="middle">src/Scripts/FlagBehaviour.cpp</text></a></g></g><g id="edge9" class="edge"><title>Node1-&gt;Node9</title><path fill="none" stroke="#191970" d="M527,-169.32C527,-158.5 527,-145.4 527,-137.01"/><polygon fill="#191970" stroke="#191970" points="523.5 -169.48 527 -179.48 530.5 -169.48 523.5 -169.48"/></g><g id="node10" class="node"><title>Node10</title><g id="a_node10"><a target="_top" xlink:href="MarioBehaviour_8cpp.html"><polygon fill="none" stroke="#000" points="619 -118 619 -137 771 -137 771 -118 619 -118"/><text x="695" y="-125" font-family="Helvetica,sans-Serif" font-size="10" text-anchor="middle">src/Scripts/MarioBehaviour.cpp</text></a></g></g><g id="edge10" class="edge"><title>Node1-&gt;Node10</title><path fill="none" stroke="#191970" d="M560.65,-176.08C593.3,-164.52 642.05,-147.25 670.97,-137.01"/><polygon fill="#191970" stroke="#191970" points="559.33 -172.84 551.07 -179.48 561.67 -179.44 559.33 -172.84"/></g><g id="node11" class="node"><title>Node11</title><g id="a_node11"><a target="_top" xlink:href="StarBehaviour_8cpp.html"><polygon fill="none" stroke="#000" points="789 -118 789 -137 935 -137 935 -118 789 -118"/><text x="862" y="-125" font-family="Helvetica,sans-Serif" font-size="10" text-anchor="middle">src/Scripts/StarBehaviour.cpp</text></a></g></g><g id="edge11" class="edge"><title>Node1-&gt;Node11</title><path fill="none" stroke="#191970" d="M585.06,-177.69C649.91,-166.17 753.68,-147.74 814.09,-137.01"/><polygon fill="#191970" stroke="#191970" points="584.23 -174.28 575 -179.48 585.46 -181.17 584.23 -174.28"/></g><g id="node3" class="node"><title>Node3</title><g id="a_node3"><a target="_top" xlink:href="Level1_8hpp.html"><polygon fill="none" stroke="#000" points="63 -56.5 63 -75.5 205 -75.5 205 -56.5 63 -56.5"/><text x="134" y="-63.5" font-family="Helvetica,sans-Serif" font-size="10" text-anchor="middle">src/Game/Levels/Level1.hpp</text></a></g></g><g id="edge2" class="edge"><title>Node2-&gt;Node3</title><path fill="none" stroke="#191970" d="M194.23,-111.79C178.88,-100.38 158.14,-84.96 145.44,-75.51"/><polygon fill="#191970" stroke="#191970" points="192.43 -114.82 202.54 -117.98 196.6 -109.2 192.43 -114.82"/></g><g id="node6" class="node"><title>Node6</title><g id="a_node6"><a target="_top" xlink:href="Level2_8hpp.html"><polygon fill="none" stroke="#000" points="223 -56.5 223 -75.5 365 -75.5 365 -56.5 223 -56.5"/><text x="294" y="-63.5" font-family="Helvetica,sans-Serif" font-size="10" text-anchor="middle">src/Game/Levels/Level2.hpp</text></a></g></g><g id="edge5" class="edge"><title>Node2-&gt;Node6</title><path fill="none" stroke="#191970" d="M233.77,-111.79C249.12,-100.38 269.86,-84.96 282.56,-75.51"/><polygon fill="#191970" stroke="#191970" points="231.4 -109.2 225.46 -117.98 235.57 -114.82 231.4 -109.2"/></g><g id="node4" class="node"><title>Node4</title><g id="a_node4"><a target="_top" xlink:href="Game_8cpp.html"><polygon fill="none" stroke="#000" points="160.5 -.5 160.5 -19.5 267.5 -19.5 267.5 -.5 160.5 -.5"/><text x="214" y="-7.5" font-family="Helvetica,sans-Serif" font-size="10" text-anchor="middle">src/Game/Game.cpp</text></a></g></g><g id="edge3" class="edge"><title>Node3-&gt;Node4</title><path fill="none" stroke="#191970" d="M155.3,-50.62C169.92,-40.76 188.83,-27.99 201.18,-19.65"/><polygon fill="#191970" stroke="#191970" points="153.18 -47.83 146.85 -56.32 157.1 -53.63 153.18 -47.83"/></g><g id="node5" class="node"><title>Node5</title><g id="a_node5"><a target="_top" xlink:href="Level1_8cpp.html"><polygon fill="none" stroke="#000" points="0 -.5 0 -19.5 142 -19.5 142 -.5 0 -.5"/><text x="71" y="-7.5" font-family="Helvetica,sans-Serif" font-size="10" text-anchor="middle">src/Game/Levels/Level1.cpp</text></a></g></g><g id="edge4" class="edge"><title>Node3-&gt;Node5</title><path fill="none" stroke="#191970" d="M115.96,-49.54C104.73,-39.91 90.68,-27.87 81.31,-19.83"/><polygon fill="#191970" stroke="#191970" points="114.01 -52.47 123.88 -56.32 118.56 -47.16 114.01 -52.47"/></g><g id="edge6" class="edge"><title>Node6-&gt;Node4</title><path fill="none" stroke="#191970" d="M272.7,-50.62C258.08,-40.76 239.17,-27.99 226.82,-19.65"/><polygon fill="#191970" stroke="#191970" points="270.9 -53.63 281.15 -56.32 274.82 -47.83 270.9 -53.63"/></g><g id="node7" class="node"><title>Node7</title><g id="a_node7"><a target="_top" xlink:href="Level2_8cpp.html"><polygon fill="none" stroke="#000" points="286 -.5 286 -19.5 428 -19.5 428 -.5 286 -.5"/><text x="357" y="-7.5" font-family="Helvetica,sans-Serif" font-size="10" text-anchor="middle">src/Game/Levels/Level2.cpp</text></a></g></g><g id="edge7" class="edge"><title>Node6-&gt;Node7</title><path fill="none" stroke="#191970" d="M312.04,-49.54C323.27,-39.91 337.32,-27.87 346.69,-19.83"/><polygon fill="#191970" stroke="#191970" points="309.44 -47.16 304.12 -56.32 313.99 -52.47 309.44 -47.16"/></g></g></svg><g id="navigator" fill="#404254" transform="translate(0 0)"><rect width="60" height="60" x="0" y="0" fill="#f2f5e9" fill-opacity=".5" stroke="#606060" stroke-width=".5"/><use id="zoomplus" x="17" y="9" onmousedown="handleZoom(evt,'in')" xlink:href="#zoomPlus"/><use id="zoomminus" x="42" y="9" onmousedown="handleZoom(evt,'out')" xlink:href="#zoomMin"/><use id="reset" x="30" y="36" onmousedown="handleReset()" xlink:href="#resetDef"/><g id="arrowUp" onmousedown="handlePan(0,-1)" transform="translate(30 24)" xlink:href="#dirArrow"><use fill="#404040" xlink:href="#rim"><set attributeName="fill" begin="arrowUp.mouseover" end="arrowUp.mouseout" to="#808080"/></use><path fill="none" stroke="#fff" stroke-width="1.5" d="M0,-3.0v7 M-2.5,-0.5L0,-3.0L2.5,-0.5"/></g><g id="arrowRight" onmousedown="handlePan(1,0)" transform="rotate(90) translate(36 -43)" xlink:href="#dirArrow"><use fill="#404040" xlink:href="#rim"><set attributeName="fill" begin="arrowRight.mouseover" end="arrowRight.mouseout" to="#808080"/></use><path fill="none" stroke="#fff" stroke-width="1.5" d="M0,-3.0v7 M-2.5,-0.5L0,-3.0L2.5,-0.5"/></g><g id="arrowDown" onmousedown="handlePan(0,1)" transform="rotate(180) translate(-30 -48)" xlink:href="#dirArrow"><use fill="#404040" xlink:href="#rim"><set attributeName="fill" begin="arrowDown.mouseover" end="arrowDown.mouseout" to="#808080"/></use><path fill="none" stroke="#fff" stroke-width="1.5" d="M0,-3.0v7 M-2.5,-0.5L0,-3.0L2.5,-0.5"/></g><g id="arrowLeft" onmousedown="handlePan(-1,0)" transform="rotate(270) translate(-36 17)" xlink:href="#dirArrow"><use fill="#404040" xlink:href="#rim"><set attributeName="fill" begin="arrowLeft.mouseover" end="arrowLeft.mouseout" to="#808080"/></use><path fill="none" stroke="#fff" stroke-width="1.5" d="M0,-3.0v7 M-2.5,-0.5L0,-3.0L2.5,-0.5"/></g></g><svg width="100%" height="30" preserveAspectRatio="xMaxYMin meet" viewBox="0 0 15 15"><g id="arrow_out" transform="scale(0.3 0.3)"><a target="_base" xlink:href="MarioBehaviour_8hpp__dep__incl_org.svg"><rect id="button" width="38" height="38" x="6" y="6" fill="#f2f5e9" fill-opacity=".5" stroke="#606060" stroke-width="1" rx="5" ry="5"/><path id="arrow" d="M 11.500037,31.436501 C 11.940474,20.09759 22.043105,11.32322 32.158766,21.979434 L 37.068811,17.246167 C 37.068811,17.246167 37.088388,32 37.088388,32 L 22.160133,31.978069 C 22.160133,31.978069 26.997745,27.140456 26.997745,27.140456 C 18.528582,18.264221 13.291696,25.230495 11.500037,31.436501 z" style="fill:#404040"/></a></g></svg></svg>