<?xml version="1.0" encoding="UTF-8" standalone="no"?>
<!DOCTYPE svg PUBLIC "-//W3C//DTD SVG 1.1//EN"
 "http://www.w3.org/Graphics/SVG/1.1/DTD/svg11.dtd">
<!-- Generated by graphviz version 2.44.0 ()
 -->
<!-- Title: src/Networking/NetworkingClient.cpp Pages: 1 -->
<!--zoomable 296 -->
<svg id="main" version="1.1" xmlns="http://www.w3.org/2000/svg" xmlns:xlink="http://www.w3.org/1999/xlink" xml:space="preserve" onload="init(evt)">
<style type="text/css"><![CDATA[
.edge:hover path { stroke: red; }
.edge:hover polygon { stroke: red; fill: red; }
]]></style>
<script type="text/javascript"><![CDATA[
var edges = document.getElementsByTagName('g');
if (edges && edges.length) {
  for (var i=0;i<edges.length;i++) {
    if (edges[i].id.substr(0,4)=='edge') {
      edges[i].setAttribute('class','edge');
    }
  }
}
]]></script>
        <defs>
                <circle id="rim" cx="0" cy="0" r="7"/>
                <circle id="rim2" cx="0" cy="0" r="3.5"/>
                <g id="zoomPlus">
                        <use xlink:href="#rim" fill="#404040">
                                <set attributeName="fill" to="#808080" begin="zoomplus.mouseover" end="zoomplus.mouseout"/>
                        </use>
                        <path d="M-4,0h8M0,-4v8" fill="none" stroke="white" stroke-width="1.5" pointer-events="none"/>
                </g>
                <g id="zoomMin">
                        <use xlink:href="#rim" fill="#404040">
                                <set attributeName="fill" to="#808080" begin="zoomminus.mouseover" end="zoomminus.mouseout"/>
                        </use>
                        <path d="M-4,0h8" fill="none" stroke="white" stroke-width="1.5" pointer-events="none"/>
                </g>
                <g id="dirArrow">
                        <path fill="none" stroke="white" stroke-width="1.5" d="M0,-3.0v7 M-2.5,-0.5L0,-3.0L2.5,-0.5"/>
                </g>
               <g id="resetDef">
                       <use xlink:href="#rim2" fill="#404040">
                               <set attributeName="fill" to="#808080" begin="reset.mouseover" end="reset.mouseout"/>
                       </use>
               </g>
        </defs>

<script type="text/javascript">
var viewWidth = 1367;
var viewHeight = 296;
var sectionId = 'dynsection-0';
</script>
<script xlink:href="svgpan.js"/>
<svg id="graph" class="graph">
<g id="viewport">
<title>src/Networking/NetworkingClient.cpp</title>
<!-- Node1 -->
<g id="node1" class="node">
<title>Node1</title>
<g id="a_node1"><a xlink:title=" ">
<polygon fill="#bfbfbf" stroke="black" points="335,-257.5 335,-287.5 470,-287.5 470,-257.5 335,-257.5"/>
<text text-anchor="start" x="343" y="-275.5" font-family="Helvetica,sans-Serif" font-size="10.00">src/Networking/Networking</text>
<text text-anchor="middle" x="402.5" y="-264.5" font-family="Helvetica,sans-Serif" font-size="10.00">Client.cpp</text>
</a>
</g>
</g>
<!-- Node2 -->
<g id="node2" class="node">
<title>Node2</title>
<g id="a_node2"><a xlink:href="NetworkingClient_8hpp.html" target="_top" xlink:title=" ">
<polygon fill="none" stroke="black" points="10,-201.5 10,-220.5 119,-220.5 119,-201.5 10,-201.5"/>
<text text-anchor="middle" x="64.5" y="-208.5" font-family="Helvetica,sans-Serif" font-size="10.00">NetworkingClient.hpp</text>
</a>
</g>
</g>
<!-- Node1&#45;&gt;Node2 -->
<g id="edge1" class="edge">
<title>Node1&#45;&gt;Node2</title>
<path fill="none" stroke="midnightblue" d="M334.91,-259.6C272.81,-248.67 181.72,-232.63 122.76,-222.26"/>
<polygon fill="midnightblue" stroke="midnightblue" points="123.31,-218.8 112.86,-220.51 122.1,-225.69 123.31,-218.8"/>
</g>
<!-- Node4 -->
<g id="node4" class="node">
<title>Node4</title>
<g id="a_node4"><a xlink:title=" ">
<polygon fill="none" stroke="#bfbfbf" points="180,-201.5 180,-220.5 341,-220.5 341,-201.5 180,-201.5"/>
<text text-anchor="middle" x="260.5" y="-208.5" font-family="Helvetica,sans-Serif" font-size="10.00">Behaviour/CollisionBehaviour.hpp</text>
</a>
</g>
</g>
<!-- Node1&#45;&gt;Node4 -->
<g id="edge3" class="edge">
<title>Node1&#45;&gt;Node4</title>
<path fill="none" stroke="midnightblue" d="M368.85,-257.4C345.02,-247.42 313.35,-234.15 290.41,-224.53"/>
<polygon fill="midnightblue" stroke="midnightblue" points="291.74,-221.29 281.16,-220.66 289.03,-227.75 291.74,-221.29"/>
</g>
<!-- Node5 -->
<g id="node5" class="node">
<title>Node5</title>
<g id="a_node5"><a xlink:title=" ">
<polygon fill="none" stroke="#bfbfbf" points="59,-140 59,-159 184,-159 184,-140 59,-140"/>
<text text-anchor="middle" x="121.5" y="-147" font-family="Helvetica,sans-Serif" font-size="10.00">Builder/SceneBuilder.hpp</text>
</a>
</g>
</g>
<!-- Node1&#45;&gt;Node5 -->
<g id="edge4" class="edge">
<title>Node1&#45;&gt;Node5</title>
<path fill="none" stroke="midnightblue" d="M395.84,-257.46C387.39,-241.25 371.26,-215.01 349.5,-201 345.72,-198.56 237.41,-175.19 171.45,-161.12"/>
<polygon fill="midnightblue" stroke="midnightblue" points="172.16,-157.69 161.65,-159.02 170.7,-164.53 172.16,-157.69"/>
</g>
<!-- Node6 -->
<g id="node6" class="node">
<title>Node6</title>
<g id="a_node6"><a xlink:title=" ">
<polygon fill="none" stroke="#bfbfbf" points="1262.5,-201.5 1262.5,-220.5 1358.5,-220.5 1358.5,-201.5 1262.5,-201.5"/>
<text text-anchor="middle" x="1310.5" y="-208.5" font-family="Helvetica,sans-Serif" font-size="10.00">Engine/Engine.hpp</text>
</a>
</g>
</g>
<!-- Node1&#45;&gt;Node6 -->
<g id="edge5" class="edge">
<title>Node1&#45;&gt;Node6</title>
<path fill="none" stroke="midnightblue" d="M470.25,-269.72C613,-265.48 955.28,-252.76 1252.24,-221.03"/>
<polygon fill="midnightblue" stroke="midnightblue" points="1252.77,-224.49 1262.34,-219.94 1252.02,-217.53 1252.77,-224.49"/>
</g>
<!-- Node7 -->
<g id="node7" class="node">
<title>Node7</title>
<g id="a_node7"><a xlink:href="TileConfig_8hpp.html" target="_top" xlink:title=" ">
<polygon fill="none" stroke="black" points="398,-201.5 398,-220.5 475,-220.5 475,-201.5 398,-201.5"/>
<text text-anchor="middle" x="436.5" y="-208.5" font-family="Helvetica,sans-Serif" font-size="10.00">TileConfig.hpp</text>
</a>
</g>
</g>
<!-- Node1&#45;&gt;Node7 -->
<g id="edge6" class="edge">
<title>Node1&#45;&gt;Node7</title>
<path fill="none" stroke="midnightblue" d="M410.56,-257.4C415.35,-249.02 421.46,-238.33 426.54,-229.42"/>
<polygon fill="midnightblue" stroke="midnightblue" points="429.63,-231.08 431.55,-220.66 423.55,-227.6 429.63,-231.08"/>
</g>
<!-- Node26 -->
<g id="node26" class="node">
<title>Node26</title>
<g id="a_node26"><a xlink:href="MarioBehaviour_8hpp.html" target="_top" xlink:title=" ">
<polygon fill="none" stroke="black" points="1108.5,-201.5 1108.5,-220.5 1244.5,-220.5 1244.5,-201.5 1108.5,-201.5"/>
<text text-anchor="middle" x="1176.5" y="-208.5" font-family="Helvetica,sans-Serif" font-size="10.00">Scripts/MarioBehaviour.hpp</text>
</a>
</g>
</g>
<!-- Node1&#45;&gt;Node26 -->
<g id="edge32" class="edge">
<title>Node1&#45;&gt;Node26</title>
<path fill="none" stroke="midnightblue" d="M470.17,-266.3C613.3,-255.3 946.01,-229.72 1098.1,-218.03"/>
<polygon fill="midnightblue" stroke="midnightblue" points="1098.59,-221.5 1108.29,-217.24 1098.05,-214.52 1098.59,-221.5"/>
</g>
<!-- Node3 -->
<g id="node3" class="node">
<title>Node3</title>
<g id="a_node3"><a xlink:title=" ">
<polygon fill="none" stroke="#bfbfbf" points="0,-140 0,-159 41,-159 41,-140 0,-140"/>
<text text-anchor="middle" x="20.5" y="-147" font-family="Helvetica,sans-Serif" font-size="10.00">string</text>
</a>
</g>
</g>
<!-- Node2&#45;&gt;Node3 -->
<g id="edge2" class="edge">
<title>Node2&#45;&gt;Node3</title>
<path fill="none" stroke="midnightblue" d="M58.2,-201.48C51.6,-192.55 41.06,-178.31 32.81,-167.14"/>
<polygon fill="midnightblue" stroke="midnightblue" points="35.55,-164.97 26.79,-159.01 29.92,-169.13 35.55,-164.97"/>
</g>
<!-- Node7&#45;&gt;Node5 -->
<g id="edge11" class="edge">
<title>Node7&#45;&gt;Node5</title>
<path fill="none" stroke="midnightblue" d="M397.58,-203.06C349.38,-194.41 264.81,-179.05 192.5,-165 186.18,-163.77 179.55,-162.45 172.98,-161.13"/>
<polygon fill="midnightblue" stroke="midnightblue" points="173.27,-157.62 162.77,-159.07 171.88,-164.48 173.27,-157.62"/>
</g>
<!-- Node8 -->
<g id="node8" class="node">
<title>Node8</title>
<g id="a_node8"><a xlink:title=" ">
<polygon fill="none" stroke="#bfbfbf" points="202,-140 202,-159 261,-159 261,-140 202,-140"/>
<text text-anchor="middle" x="231.5" y="-147" font-family="Helvetica,sans-Serif" font-size="10.00">functional</text>
</a>
</g>
</g>
<!-- Node7&#45;&gt;Node8 -->
<g id="edge7" class="edge">
<title>Node7&#45;&gt;Node8</title>
<path fill="none" stroke="midnightblue" d="M400.68,-201.47C366.66,-193.1 314.2,-179.51 269.5,-165 267.09,-164.22 264.61,-163.37 262.13,-162.49"/>
<polygon fill="midnightblue" stroke="midnightblue" points="263.26,-159.18 252.67,-159.01 260.85,-165.75 263.26,-159.18"/>
</g>
<!-- Node9 -->
<g id="node9" class="node">
<title>Node9</title>
<g id="a_node9"><a xlink:title=" ">
<polygon fill="none" stroke="#bfbfbf" points="279,-140 279,-159 314,-159 314,-140 279,-140"/>
<text text-anchor="middle" x="296.5" y="-147" font-family="Helvetica,sans-Serif" font-size="10.00">map</text>
</a>
</g>
</g>
<!-- Node7&#45;&gt;Node9 -->
<g id="edge8" class="edge">
<title>Node7&#45;&gt;Node9</title>
<path fill="none" stroke="midnightblue" d="M415.31,-201.4C393.48,-192.48 358.49,-178.04 328.5,-165 326.88,-164.3 325.23,-163.57 323.56,-162.83"/>
<polygon fill="midnightblue" stroke="midnightblue" points="324.62,-159.47 314.06,-158.57 321.76,-165.86 324.62,-159.47"/>
</g>
<!-- Node10 -->
<g id="node10" class="node">
<title>Node10</title>
<g id="a_node10"><a xlink:title=" ">
<polygon fill="none" stroke="#bfbfbf" points="74,-6 74,-25 125,-25 125,-6 74,-6"/>
<text text-anchor="middle" x="99.5" y="-13" font-family="Helvetica,sans-Serif" font-size="10.00">memory</text>
</a>
</g>
</g>
<!-- Node7&#45;&gt;Node10 -->
<g id="edge9" class="edge">
<title>Node7&#45;&gt;Node10</title>
<path fill="none" stroke="midnightblue" d="M420.9,-201.44C405.47,-192.78 381.34,-178.75 361.5,-165 343.3,-152.39 341.04,-146.1 322.5,-134 255.87,-90.51 171.38,-49.52 128.03,-29.42"/>
<polygon fill="midnightblue" stroke="midnightblue" points="129.22,-26.12 118.67,-25.11 126.29,-32.47 129.22,-26.12"/>
</g>
<!-- Node11 -->
<g id="node11" class="node">
<title>Node11</title>
<g id="a_node11"><a xlink:title=" ">
<polygon fill="none" stroke="#bfbfbf" points="520.5,-140 520.5,-159 672.5,-159 672.5,-140 520.5,-140"/>
<text text-anchor="middle" x="596.5" y="-147" font-family="Helvetica,sans-Serif" font-size="10.00">Builder/GameObjectBuilder.hpp</text>
</a>
</g>
</g>
<!-- Node7&#45;&gt;Node11 -->
<g id="edge10" class="edge">
<title>Node7&#45;&gt;Node11</title>
<path fill="none" stroke="midnightblue" d="M459.42,-201.48C486.87,-191.27 533.02,-174.11 564.1,-162.55"/>
<polygon fill="midnightblue" stroke="midnightblue" points="565.47,-165.78 573.62,-159.01 563.03,-159.21 565.47,-165.78"/>
</g>
<!-- Node12 -->
<g id="node12" class="node">
<title>Node12</title>
<g id="a_node12"><a xlink:title=" ">
<polygon fill="none" stroke="#bfbfbf" points="690.5,-140 690.5,-159 850.5,-159 850.5,-140 690.5,-140"/>
<text text-anchor="middle" x="770.5" y="-147" font-family="Helvetica,sans-Serif" font-size="10.00">Director/GameObjectDirector.hpp</text>
</a>
</g>
</g>
<!-- Node7&#45;&gt;Node12 -->
<g id="edge12" class="edge">
<title>Node7&#45;&gt;Node12</title>
<path fill="none" stroke="midnightblue" d="M475.14,-203.12C533.45,-192.73 644.33,-172.98 712.4,-160.85"/>
<polygon fill="midnightblue" stroke="midnightblue" points="713.31,-164.24 722.54,-159.04 712.08,-157.35 713.31,-164.24"/>
</g>
<!-- Node13 -->
<g id="node13" class="node">
<title>Node13</title>
<g id="a_node13"><a xlink:href="CoinBehaviour_8hpp.html" target="_top" xlink:title=" ">
<polygon fill="none" stroke="black" points="371,-140 371,-159 502,-159 502,-140 371,-140"/>
<text text-anchor="middle" x="436.5" y="-147" font-family="Helvetica,sans-Serif" font-size="10.00">Scripts/CoinBehaviour.hpp</text>
</a>
</g>
</g>
<!-- Node7&#45;&gt;Node13 -->
<g id="edge13" class="edge">
<title>Node7&#45;&gt;Node13</title>
<path fill="none" stroke="midnightblue" d="M436.5,-201.48C436.5,-193.08 436.5,-179.98 436.5,-169.16"/>
<polygon fill="midnightblue" stroke="midnightblue" points="440,-169.01 436.5,-159.01 433,-169.01 440,-169.01"/>
</g>
<!-- Node24 -->
<g id="node24" class="node">
<title>Node24</title>
<g id="a_node24"><a xlink:href="FlagBehaviour_8hpp.html" target="_top" xlink:title=" ">
<polygon fill="none" stroke="black" points="869,-140 869,-159 1000,-159 1000,-140 869,-140"/>
<text text-anchor="middle" x="934.5" y="-147" font-family="Helvetica,sans-Serif" font-size="10.00">Scripts/FlagBehaviour.hpp</text>
</a>
</g>
</g>
<!-- Node7&#45;&gt;Node24 -->
<g id="edge28" class="edge">
<title>Node7&#45;&gt;Node24</title>
<path fill="none" stroke="midnightblue" d="M475.13,-207C549.7,-200.96 718.53,-186.09 859.5,-165 867.34,-163.83 875.61,-162.41 883.67,-160.93"/>
<polygon fill="midnightblue" stroke="midnightblue" points="884.56,-164.33 893.74,-159.03 883.26,-157.45 884.56,-164.33"/>
</g>
<!-- Node25 -->
<g id="node25" class="node">
<title>Node25</title>
<g id="a_node25"><a xlink:href="StarBehaviour_8hpp.html" target="_top" xlink:title=" ">
<polygon fill="none" stroke="black" points="1018.5,-140 1018.5,-159 1148.5,-159 1148.5,-140 1018.5,-140"/>
<text text-anchor="middle" x="1083.5" y="-147" font-family="Helvetica,sans-Serif" font-size="10.00">Scripts/StarBehaviour.hpp</text>
</a>
</g>
</g>
<!-- Node7&#45;&gt;Node25 -->
<g id="edge30" class="edge">
<title>Node7&#45;&gt;Node25</title>
<path fill="none" stroke="midnightblue" d="M475.23,-208.5C567.89,-204.57 809.55,-192.35 1009.5,-165 1017.61,-163.89 1026.18,-162.46 1034.5,-160.92"/>
<polygon fill="midnightblue" stroke="midnightblue" points="1035.3,-164.33 1044.47,-159.02 1033.99,-157.46 1035.3,-164.33"/>
</g>
<!-- Node14 -->
<g id="node14" class="node">
<title>Node14</title>
<g id="a_node14"><a xlink:title=" ">
<polygon fill="none" stroke="#bfbfbf" points="882.5,-73 882.5,-92 986.5,-92 986.5,-73 882.5,-73"/>
<text text-anchor="middle" x="934.5" y="-80" font-family="Helvetica,sans-Serif" font-size="10.00">BehaviourScript.hpp</text>
</a>
</g>
</g>
<!-- Node13&#45;&gt;Node14 -->
<g id="edge14" class="edge">
<title>Node13&#45;&gt;Node14</title>
<path fill="none" stroke="midnightblue" d="M477.26,-139.95C488.33,-137.81 500.35,-135.65 511.5,-134 664.87,-111.26 705.1,-120.55 858.5,-98 866.53,-96.82 875.01,-95.39 883.27,-93.89"/>
<polygon fill="midnightblue" stroke="midnightblue" points="884,-97.31 893.19,-92.04 882.72,-90.43 884,-97.31"/>
</g>
<!-- Node15 -->
<g id="node15" class="node">
<title>Node15</title>
<g id="a_node15"><a xlink:href="CoinCounter_8hpp.html" target="_top" xlink:title=" ">
<polygon fill="none" stroke="black" points="397,-73 397,-92 506,-92 506,-73 397,-73"/>
<text text-anchor="middle" x="451.5" y="-80" font-family="Helvetica,sans-Serif" font-size="10.00">../UI/CoinCounter.hpp</text>
</a>
</g>
</g>
<!-- Node13&#45;&gt;Node15 -->
<g id="edge15" class="edge">
<title>Node13&#45;&gt;Node15</title>
<path fill="none" stroke="midnightblue" d="M438.52,-139.73C440.75,-130.09 444.39,-114.3 447.25,-101.91"/>
<polygon fill="midnightblue" stroke="midnightblue" points="450.67,-102.66 449.51,-92.13 443.85,-101.08 450.67,-102.66"/>
</g>
<!-- Node16 -->
<g id="node16" class="node">
<title>Node16</title>
<g id="a_node16"><a xlink:title=" ">
<polygon fill="none" stroke="#bfbfbf" points="652,-0.5 652,-30.5 747,-30.5 747,-0.5 652,-0.5"/>
<text text-anchor="start" x="660" y="-18.5" font-family="Helvetica,sans-Serif" font-size="10.00">boost/serialization</text>
<text text-anchor="middle" x="699.5" y="-7.5" font-family="Helvetica,sans-Serif" font-size="10.00">/access.hpp</text>
</a>
</g>
</g>
<!-- Node13&#45;&gt;Node16 -->
<g id="edge25" class="edge">
<title>Node13&#45;&gt;Node16</title>
<path fill="none" stroke="midnightblue" d="M453.76,-139.84C495.87,-118.7 604.65,-64.11 662.33,-35.16"/>
<polygon fill="midnightblue" stroke="midnightblue" points="664.1,-38.19 671.46,-30.57 660.96,-31.93 664.1,-38.19"/>
</g>
<!-- Node17 -->
<g id="node17" class="node">
<title>Node17</title>
<g id="a_node17"><a xlink:title=" ">
<polygon fill="none" stroke="#bfbfbf" points="878,-0.5 878,-30.5 973,-30.5 973,-0.5 878,-0.5"/>
<text text-anchor="start" x="886" y="-18.5" font-family="Helvetica,sans-Serif" font-size="10.00">boost/serialization</text>
<text text-anchor="middle" x="925.5" y="-7.5" font-family="Helvetica,sans-Serif" font-size="10.00">/export.hpp</text>
</a>
</g>
</g>
<!-- Node13&#45;&gt;Node17 -->
<g id="edge26" class="edge">
<title>Node13&#45;&gt;Node17</title>
<path fill="none" stroke="midnightblue" d="M471.98,-139.99C512.39,-130.21 580.35,-113.52 638.5,-98 718.45,-76.66 810.38,-50.22 868.21,-33.35"/>
<polygon fill="midnightblue" stroke="midnightblue" points="869.28,-36.68 877.89,-30.52 867.31,-29.96 869.28,-36.68"/>
</g>
<!-- Node18 -->
<g id="node18" class="node">
<title>Node18</title>
<g id="a_node18"><a xlink:title=" ">
<polygon fill="none" stroke="#bfbfbf" points="765,-0.5 765,-30.5 860,-30.5 860,-0.5 765,-0.5"/>
<text text-anchor="start" x="773" y="-18.5" font-family="Helvetica,sans-Serif" font-size="10.00">boost/serialization</text>
<text text-anchor="middle" x="812.5" y="-7.5" font-family="Helvetica,sans-Serif" font-size="10.00">/shared_ptr.hpp</text>
</a>
</g>
</g>
<!-- Node13&#45;&gt;Node18 -->
<g id="edge27" class="edge">
<title>Node13&#45;&gt;Node18</title>
<path fill="none" stroke="midnightblue" d="M461.32,-139.98C490.39,-129.99 539.97,-112.89 582.5,-98 645.03,-76.11 716.98,-50.55 763.52,-33.98"/>
<polygon fill="midnightblue" stroke="midnightblue" points="764.81,-37.23 773.05,-30.58 762.46,-30.64 764.81,-37.23"/>
</g>
<!-- Node15&#45;&gt;Node10 -->
<g id="edge16" class="edge">
<title>Node15&#45;&gt;Node10</title>
<path fill="none" stroke="midnightblue" d="M396.68,-73.15C309.07,-59.76 146.02,-34.61 133.5,-31 131.21,-30.34 128.87,-29.57 126.54,-28.73"/>
<polygon fill="midnightblue" stroke="midnightblue" points="127.78,-25.46 117.2,-25.02 125.2,-31.96 127.78,-25.46"/>
</g>
<!-- Node15&#45;&gt;Node16 -->
<g id="edge17" class="edge">
<title>Node15&#45;&gt;Node16</title>
<path fill="none" stroke="midnightblue" d="M484.18,-72.94C524.29,-62.42 593.02,-44.41 642.04,-31.56"/>
<polygon fill="midnightblue" stroke="midnightblue" points="643.09,-34.9 651.87,-28.98 641.31,-28.13 643.09,-34.9"/>
</g>
<!-- Node15&#45;&gt;Node17 -->
<g id="edge18" class="edge">
<title>Node15&#45;&gt;Node17</title>
<path fill="none" stroke="midnightblue" d="M506.3,-77.22C584.55,-70.6 732.92,-56.13 867.84,-31.17"/>
<polygon fill="midnightblue" stroke="midnightblue" points="868.75,-34.56 877.94,-29.27 867.46,-27.68 868.75,-34.56"/>
</g>
<!-- Node15&#45;&gt;Node18 -->
<g id="edge19" class="edge">
<title>Node15&#45;&gt;Node18</title>
<path fill="none" stroke="midnightblue" d="M506.12,-73.85C565.09,-65.27 661.94,-50.26 755.11,-30.97"/>
<polygon fill="midnightblue" stroke="midnightblue" points="755.91,-34.38 764.98,-28.91 754.48,-27.53 755.91,-34.38"/>
</g>
<!-- Node19 -->
<g id="node19" class="node">
<title>Node19</title>
<g id="a_node19"><a xlink:title=" ">
<polygon fill="none" stroke="#bfbfbf" points="407.5,-0.5 407.5,-30.5 511.5,-30.5 511.5,-0.5 407.5,-0.5"/>
<text text-anchor="start" x="415.5" y="-18.5" font-family="Helvetica,sans-Serif" font-size="10.00">boost/archive/binary</text>
<text text-anchor="middle" x="459.5" y="-7.5" font-family="Helvetica,sans-Serif" font-size="10.00">_iarchive.hpp</text>
</a>
</g>
</g>
<!-- Node15&#45;&gt;Node19 -->
<g id="edge20" class="edge">
<title>Node15&#45;&gt;Node19</title>
<path fill="none" stroke="midnightblue" d="M452.58,-72.73C453.59,-64.54 455.14,-51.92 456.52,-40.71"/>
<polygon fill="midnightblue" stroke="midnightblue" points="460.02,-40.94 457.77,-30.59 453.07,-40.09 460.02,-40.94"/>
</g>
<!-- Node20 -->
<g id="node20" class="node">
<title>Node20</title>
<g id="a_node20"><a xlink:title=" ">
<polygon fill="none" stroke="#bfbfbf" points="529.5,-0.5 529.5,-30.5 633.5,-30.5 633.5,-0.5 529.5,-0.5"/>
<text text-anchor="start" x="537.5" y="-18.5" font-family="Helvetica,sans-Serif" font-size="10.00">boost/archive/binary</text>
<text text-anchor="middle" x="581.5" y="-7.5" font-family="Helvetica,sans-Serif" font-size="10.00">_oarchive.hpp</text>
</a>
</g>
</g>
<!-- Node15&#45;&gt;Node20 -->
<g id="edge21" class="edge">
<title>Node15&#45;&gt;Node20</title>
<path fill="none" stroke="midnightblue" d="M468.76,-72.87C487.87,-63.31 519.25,-47.63 544.05,-35.22"/>
<polygon fill="midnightblue" stroke="midnightblue" points="545.82,-38.25 553.2,-30.65 542.69,-31.99 545.82,-38.25"/>
</g>
<!-- Node21 -->
<g id="node21" class="node">
<title>Node21</title>
<g id="a_node21"><a xlink:title=" ">
<polygon fill="none" stroke="#bfbfbf" points="143,-6 143,-25 200,-25 200,-6 143,-6"/>
<text text-anchor="middle" x="171.5" y="-13" font-family="Helvetica,sans-Serif" font-size="10.00">Color.hpp</text>
</a>
</g>
</g>
<!-- Node15&#45;&gt;Node21 -->
<g id="edge22" class="edge">
<title>Node15&#45;&gt;Node21</title>
<path fill="none" stroke="midnightblue" d="M397.28,-72.93C347.61,-64.45 272.31,-49.99 208.5,-31 206.07,-30.28 203.57,-29.46 201.08,-28.6"/>
<polygon fill="midnightblue" stroke="midnightblue" points="202.23,-25.29 191.64,-25.1 199.8,-31.86 202.23,-25.29"/>
</g>
<!-- Node22 -->
<g id="node22" class="node">
<title>Node22</title>
<g id="a_node22"><a xlink:title=" ">
<polygon fill="none" stroke="#bfbfbf" points="218,-6 218,-25 297,-25 297,-6 218,-6"/>
<text text-anchor="middle" x="257.5" y="-13" font-family="Helvetica,sans-Serif" font-size="10.00">Transform.hpp</text>
</a>
</g>
</g>
<!-- Node15&#45;&gt;Node22 -->
<g id="edge23" class="edge">
<title>Node15&#45;&gt;Node22</title>
<path fill="none" stroke="midnightblue" d="M425.74,-72.87C391.58,-61.42 331.16,-41.18 292.79,-28.32"/>
<polygon fill="midnightblue" stroke="midnightblue" points="293.65,-24.92 283.06,-25.06 291.43,-31.56 293.65,-24.92"/>
</g>
<!-- Node23 -->
<g id="node23" class="node">
<title>Node23</title>
<g id="a_node23"><a xlink:title=" ">
<polygon fill="none" stroke="#bfbfbf" points="315.5,-6 315.5,-25 389.5,-25 389.5,-6 315.5,-6"/>
<text text-anchor="middle" x="352.5" y="-13" font-family="Helvetica,sans-Serif" font-size="10.00">UIObject.hpp</text>
</a>
</g>
</g>
<!-- Node15&#45;&gt;Node23 -->
<g id="edge24" class="edge">
<title>Node15&#45;&gt;Node23</title>
<path fill="none" stroke="midnightblue" d="M438.15,-72.73C421.75,-61.96 393.7,-43.55 374.19,-30.74"/>
<polygon fill="midnightblue" stroke="midnightblue" points="375.92,-27.69 365.64,-25.13 372.08,-33.54 375.92,-27.69"/>
</g>
<!-- Node24&#45;&gt;Node14 -->
<g id="edge29" class="edge">
<title>Node24&#45;&gt;Node14</title>
<path fill="none" stroke="midnightblue" d="M934.5,-139.73C934.5,-130.18 934.5,-114.62 934.5,-102.28"/>
<polygon fill="midnightblue" stroke="midnightblue" points="938,-102.13 934.5,-92.13 931,-102.13 938,-102.13"/>
</g>
<!-- Node25&#45;&gt;Node14 -->
<g id="edge31" class="edge">
<title>Node25&#45;&gt;Node14</title>
<path fill="none" stroke="midnightblue" d="M1063.71,-139.87C1038.11,-128.7 993.29,-109.15 963.75,-96.26"/>
<polygon fill="midnightblue" stroke="midnightblue" points="964.93,-92.96 954.37,-92.17 962.13,-99.37 964.93,-92.96"/>
</g>
<!-- Node26&#45;&gt;Node14 -->
<g id="edge33" class="edge">
<title>Node26&#45;&gt;Node14</title>
<path fill="none" stroke="midnightblue" d="M1177.04,-201.3C1177.52,-185.52 1176.1,-152.14 1157.5,-134 1105.01,-82.81 1067.98,-114.35 996.5,-98 991.44,-96.84 986.16,-95.62 980.9,-94.4"/>
<polygon fill="midnightblue" stroke="midnightblue" points="981.41,-90.93 970.88,-92.07 979.82,-97.75 981.41,-90.93"/>
</g>
<!-- Node27 -->
<g id="node27" class="node">
<title>Node27</title>
<g id="a_node27"><a xlink:href="MarioState_8hpp.html" target="_top" xlink:title=" ">
<polygon fill="none" stroke="black" points="1005,-67.5 1005,-97.5 1108,-97.5 1108,-67.5 1005,-67.5"/>
<text text-anchor="start" x="1013" y="-85.5" font-family="Helvetica,sans-Serif" font-size="10.00">Scripts/MarioStates</text>
<text text-anchor="middle" x="1056.5" y="-74.5" font-family="Helvetica,sans-Serif" font-size="10.00">/MarioState.hpp</text>
</a>
</g>
</g>
<!-- Node26&#45;&gt;Node27 -->
<g id="edge34" class="edge">
<title>Node26&#45;&gt;Node27</title>
<path fill="none" stroke="midnightblue" d="M1181.98,-201.15C1190.57,-186.01 1204.85,-154.74 1190.5,-134 1174.06,-110.24 1144.93,-97.64 1118.02,-90.97"/>
<polygon fill="midnightblue" stroke="midnightblue" points="1118.75,-87.55 1108.23,-88.77 1117.22,-94.38 1118.75,-87.55"/>
</g>
<!-- Node30 -->
<g id="node30" class="node">
<title>Node30</title>
<g id="a_node30"><a xlink:href="SmallMarioState_8hpp.html" target="_top" xlink:title=" ">
<polygon fill="none" stroke="black" points="1242.5,-134.5 1242.5,-164.5 1352.5,-164.5 1352.5,-134.5 1242.5,-134.5"/>
<text text-anchor="start" x="1250.5" y="-152.5" font-family="Helvetica,sans-Serif" font-size="10.00">Scripts/MarioStates</text>
<text text-anchor="middle" x="1297.5" y="-141.5" font-family="Helvetica,sans-Serif" font-size="10.00">/SmallMarioState.hpp</text>
</a>
</g>
</g>
<!-- Node26&#45;&gt;Node30 -->
<g id="edge40" class="edge">
<title>Node26&#45;&gt;Node30</title>
<path fill="none" stroke="midnightblue" d="M1193.84,-201.48C1210.99,-193.04 1237.8,-179.86 1259.86,-169.01"/>
<polygon fill="midnightblue" stroke="midnightblue" points="1261.55,-172.08 1268.98,-164.52 1258.46,-165.79 1261.55,-172.08"/>
</g>
<!-- Node27&#45;&gt;Node16 -->
<g id="edge35" class="edge">
<title>Node27&#45;&gt;Node16</title>
<path fill="none" stroke="midnightblue" d="M1004.98,-68.93C1001.78,-68.25 998.6,-67.6 995.5,-67 892.71,-47.11 862.92,-52.22 756.89,-31.16"/>
<polygon fill="midnightblue" stroke="midnightblue" points="757.57,-27.73 747.08,-29.18 756.19,-34.59 757.57,-27.73"/>
</g>
<!-- Node27&#45;&gt;Node17 -->
<g id="edge36" class="edge">
<title>Node27&#45;&gt;Node17</title>
<path fill="none" stroke="midnightblue" d="M1028.07,-67.4C1009.02,-57.94 983.72,-45.39 963.02,-35.12"/>
<polygon fill="midnightblue" stroke="midnightblue" points="964.38,-31.89 953.87,-30.58 961.27,-38.16 964.38,-31.89"/>
</g>
<!-- Node27&#45;&gt;Node18 -->
<g id="edge37" class="edge">
<title>Node27&#45;&gt;Node18</title>
<path fill="none" stroke="midnightblue" d="M1004.75,-67.72C965.21,-57.18 910.72,-42.67 869.85,-31.78"/>
<polygon fill="midnightblue" stroke="midnightblue" points="870.6,-28.35 860.03,-29.16 868.8,-35.12 870.6,-28.35"/>
</g>
<!-- Node28 -->
<g id="node28" class="node">
<title>Node28</title>
<g id="a_node28"><a xlink:title=" ">
<polygon fill="none" stroke="#bfbfbf" points="1096,-6 1096,-25 1233,-25 1233,-6 1096,-6"/>
<text text-anchor="middle" x="1164.5" y="-13" font-family="Helvetica,sans-Serif" font-size="10.00">Texture/AnimatedSprite.hpp</text>
</a>
</g>
</g>
<!-- Node27&#45;&gt;Node28 -->
<g id="edge38" class="edge">
<title>Node27&#45;&gt;Node28</title>
<path fill="none" stroke="midnightblue" d="M1079.93,-67.4C1098.21,-56.39 1123.46,-41.2 1141.6,-30.28"/>
<polygon fill="midnightblue" stroke="midnightblue" points="1143.6,-33.16 1150.37,-25.01 1139.99,-27.16 1143.6,-33.16"/>
</g>
<!-- Node29 -->
<g id="node29" class="node">
<title>Node29</title>
<g id="a_node29"><a xlink:title=" ">
<polygon fill="none" stroke="#bfbfbf" points="1021,-6 1021,-25 1078,-25 1078,-6 1021,-6"/>
<text text-anchor="middle" x="1049.5" y="-13" font-family="Helvetica,sans-Serif" font-size="10.00">Point.hpp</text>
</a>
</g>
</g>
<!-- Node27&#45;&gt;Node29 -->
<g id="edge39" class="edge">
<title>Node27&#45;&gt;Node29</title>
<path fill="none" stroke="midnightblue" d="M1054.98,-67.4C1053.97,-57.96 1052.62,-45.45 1051.51,-35.19"/>
<polygon fill="midnightblue" stroke="midnightblue" points="1054.99,-34.76 1050.44,-25.19 1048.03,-35.51 1054.99,-34.76"/>
</g>
<!-- Node30&#45;&gt;Node27 -->
<g id="edge41" class="edge">
<title>Node30&#45;&gt;Node27</title>
<path fill="none" stroke="midnightblue" d="M1245.5,-134.48C1208.13,-124.4 1157.58,-110.76 1118.17,-100.13"/>
<polygon fill="midnightblue" stroke="midnightblue" points="1118.97,-96.72 1108.4,-97.5 1117.15,-103.48 1118.97,-96.72"/>
</g>
</g>
</svg>
        <g id="navigator" transform="translate(0 0)" fill="#404254">
                <rect fill="#f2f5e9" fill-opacity="0.5" stroke="#606060" stroke-width=".5" x="0" y="0" width="60" height="60"/>
                <use id="zoomplus" xlink:href="#zoomPlus" x="17" y="9" onmousedown="handleZoom(evt,'in')"/>
                <use id="zoomminus" xlink:href="#zoomMin" x="42" y="9" onmousedown="handleZoom(evt,'out')"/>
                <use id="reset" xlink:href="#resetDef" x="30" y="36" onmousedown="handleReset()"/>
                <g id="arrowUp" xlink:href="#dirArrow" transform="translate(30 24)" onmousedown="handlePan(0,-1)">
                  <use xlink:href="#rim" fill="#404040">
                        <set attributeName="fill" to="#808080" begin="arrowUp.mouseover" end="arrowUp.mouseout"/>
                  </use>
                  <path fill="none" stroke="white" stroke-width="1.5" d="M0,-3.0v7 M-2.5,-0.5L0,-3.0L2.5,-0.5"/>
                </g>
                <g id="arrowRight" xlink:href="#dirArrow" transform="rotate(90) translate(36 -43)" onmousedown="handlePan(1,0)">
                  <use xlink:href="#rim" fill="#404040">
                        <set attributeName="fill" to="#808080" begin="arrowRight.mouseover" end="arrowRight.mouseout"/>
                  </use>
                  <path fill="none" stroke="white" stroke-width="1.5" d="M0,-3.0v7 M-2.5,-0.5L0,-3.0L2.5,-0.5"/>
                </g>
                <g id="arrowDown" xlink:href="#dirArrow" transform="rotate(180) translate(-30 -48)" onmousedown="handlePan(0,1)">
                  <use xlink:href="#rim" fill="#404040">
                        <set attributeName="fill" to="#808080" begin="arrowDown.mouseover" end="arrowDown.mouseout"/>
                  </use>
                  <path fill="none" stroke="white" stroke-width="1.5" d="M0,-3.0v7 M-2.5,-0.5L0,-3.0L2.5,-0.5"/>
                </g>
                <g id="arrowLeft" xlink:href="#dirArrow" transform="rotate(270) translate(-36 17)" onmousedown="handlePan(-1,0)">
                  <use xlink:href="#rim" fill="#404040">
                        <set attributeName="fill" to="#808080" begin="arrowLeft.mouseover" end="arrowLeft.mouseout"/>
                  </use>
                  <path fill="none" stroke="white" stroke-width="1.5" d="M0,-3.0v7 M-2.5,-0.5L0,-3.0L2.5,-0.5"/>
                </g>
        </g>
        <svg viewBox="0 0 15 15" width="100%" height="30px" preserveAspectRatio="xMaxYMin meet">
         <g id="arrow_out" transform="scale(0.3 0.3)">
          <a xlink:href="NetworkingClient_8cpp__incl_org.svg" target="_base">
           <rect id="button" ry="5" rx="5" y="6" x="6" height="38" width="38"
                fill="#f2f5e9" fill-opacity="0.5" stroke="#606060" stroke-width="1.0"/>
           <path id="arrow"
             d="M 11.500037,31.436501 C 11.940474,20.09759 22.043105,11.32322 32.158766,21.979434 L 37.068811,17.246167 C 37.068811,17.246167 37.088388,32 37.088388,32 L 22.160133,31.978069 C 22.160133,31.978069 26.997745,27.140456 26.997745,27.140456 C 18.528582,18.264221 13.291696,25.230495 11.500037,31.436501 z"
             style="fill:#404040;"/>
          </a>
         </g>
        </svg>
</svg>
