<svg xmlns="http://www.w3.org/2000/svg" xmlns:xlink="http://www.w3.org/1999/xlink" width="236pt" height="151pt" viewBox="0 0 235.5 151"><g id="graph0" class="graph" transform="scale(1 1) rotate(0) translate(4 147)"><title>src/Networking/NetworkingServer.cpp</title><g id="node1" class="node"><title>Node1</title><g id="a_node1"><a><polygon fill="#bfbfbf" stroke="#000" points="50 -112.5 50 -142.5 185 -142.5 185 -112.5 50 -112.5"/><text x="58" y="-130.5" font-family="Helvetica,sans-Serif" font-size="10" text-anchor="start">src/Networking/Networking</text><text x="117.5" y="-119.5" font-family="Helvetica,sans-Serif" font-size="10" text-anchor="middle">Server.cpp</text></a></g></g><g id="node2" class="node"><title>Node2</title><g id="a_node2"><a target="_top" xlink:href="NetworkingServer_8hpp.html"><polygon fill="none" stroke="#000" points="0 -56.5 0 -75.5 113 -75.5 113 -56.5 0 -56.5"/><text x="56.5" y="-63.5" font-family="Helvetica,sans-Serif" font-size="10" text-anchor="middle">NetworkingServer.hpp</text></a></g></g><g id="edge1" class="edge"><title>Node1-&gt;Node2</title><path fill="none" stroke="#191970" d="M103.04,-112.4C93.91,-103.49 82.08,-91.95 72.64,-82.74"/><polygon fill="#191970" stroke="#191970" points="74.98 -80.13 65.38 -75.66 70.09 -85.15 74.98 -80.13"/></g><g id="node5" class="node"><title>Node5</title><g id="a_node5"><a><polygon fill="none" stroke="#bfbfbf" points="131.5 -56.5 131.5 -75.5 227.5 -75.5 227.5 -56.5 131.5 -56.5"/><text x="179.5" y="-63.5" font-family="Helvetica,sans-Serif" font-size="10" text-anchor="middle">Engine/Engine.hpp</text></a></g></g><g id="edge4" class="edge"><title>Node1-&gt;Node5</title><path fill="none" stroke="#191970" d="M132.19,-112.4C141.48,-103.49 153.5,-91.95 163.1,-82.74"/><polygon fill="#191970" stroke="#191970" points="165.69 -85.11 170.48 -75.66 160.84 -80.06 165.69 -85.11"/></g><g id="node3" class="node"><title>Node3</title><g id="a_node3"><a><polygon fill="none" stroke="#bfbfbf" points="1 -.5 1 -19.5 42 -19.5 42 -.5 1 -.5"/><text x="21.5" y="-7.5" font-family="Helvetica,sans-Serif" font-size="10" text-anchor="middle">string</text></a></g></g><g id="edge2" class="edge"><title>Node2-&gt;Node3</title><path fill="none" stroke="#191970" d="M50.72,-56.08C45.83,-48.53 38.67,-37.49 32.67,-28.23"/><polygon fill="#191970" stroke="#191970" points="35.55 -26.24 27.17 -19.75 29.67 -30.05 35.55 -26.24"/></g><g id="node4" class="node"><title>Node4</title><g id="a_node4"><a><polygon fill="none" stroke="#bfbfbf" points="60.5 -.5 60.5 -19.5 122.5 -19.5 122.5 -.5 60.5 -.5"/><text x="91.5" y="-7.5" font-family="Helvetica,sans-Serif" font-size="10" text-anchor="middle">Scene.hpp</text></a></g></g><g id="edge3" class="edge"><title>Node2-&gt;Node4</title><path fill="none" stroke="#191970" d="M62.28,-56.08C67.17,-48.53 74.33,-37.49 80.33,-28.23"/><polygon fill="#191970" stroke="#191970" points="83.33 -30.05 85.83 -19.75 77.45 -26.24 83.33 -30.05"/></g></g></svg>