<?xml version="1.0" encoding="UTF-8" standalone="no"?>
<!DOCTYPE svg PUBLIC "-//W3C//DTD SVG 1.1//EN"
 "http://www.w3.org/Graphics/SVG/1.1/DTD/svg11.dtd">
<!-- Generated by graphviz version 2.44.0 ()
 -->
<!-- Title: src/Networking/NetworkingServer.cpp Pages: 1 -->
<svg width="1402pt" height="173pt"
 viewBox="0.00 0.00 1402.00 173.00" xmlns="http://www.w3.org/2000/svg" xmlns:xlink="http://www.w3.org/1999/xlink">
<g id="graph0" class="graph" transform="scale(1 1) rotate(0) translate(4 169)">
<title>src/Networking/NetworkingServer.cpp</title>
<!-- Node1 -->
<g id="node1" class="node">
<title>Node1</title>
<g id="a_node1"><a xlink:title=" ">
<polygon fill="#bfbfbf" stroke="black" points="440,-134.5 440,-164.5 575,-164.5 575,-134.5 440,-134.5"/>
<text text-anchor="start" x="448" y="-152.5" font-family="Helvetica,sans-Serif" font-size="10.00">src/Networking/Networking</text>
<text text-anchor="middle" x="507.5" y="-141.5" font-family="Helvetica,sans-Serif" font-size="10.00">Server.cpp</text>
</a>
</g>
</g>
<!-- Node2 -->
<g id="node2" class="node">
<title>Node2</title>
<g id="a_node2"><a xlink:href="NetworkingServer_8hpp.html" target="_top" xlink:title=" ">
<polygon fill="none" stroke="black" points="0,-73 0,-92 113,-92 113,-73 0,-73"/>
<text text-anchor="middle" x="56.5" y="-80" font-family="Helvetica,sans-Serif" font-size="10.00">NetworkingServer.hpp</text>
</a>
</g>
</g>
<!-- Node1&#45;&gt;Node2 -->
<g id="edge1" class="edge">
<title>Node1&#45;&gt;Node2</title>
<path fill="none" stroke="midnightblue" d="M439.93,-141.51C362.65,-133.09 232.48,-117.6 121.5,-98 115.22,-96.89 108.64,-95.59 102.16,-94.23"/>
<polygon fill="midnightblue" stroke="midnightblue" points="102.66,-90.75 92.15,-92.05 101.18,-97.59 102.66,-90.75"/>
</g>
<!-- Node4 -->
<g id="node4" class="node">
<title>Node4</title>
<g id="a_node4"><a xlink:title=" ">
<polygon fill="none" stroke="#bfbfbf" points="131,-73 131,-92 292,-92 292,-73 131,-73"/>
<text text-anchor="middle" x="211.5" y="-80" font-family="Helvetica,sans-Serif" font-size="10.00">Behaviour/CollisionBehaviour.hpp</text>
</a>
</g>
</g>
<!-- Node1&#45;&gt;Node4 -->
<g id="edge3" class="edge">
<title>Node1&#45;&gt;Node4</title>
<path fill="none" stroke="midnightblue" d="M443.64,-134.48C388.62,-122.4 310.38,-105.21 260.28,-94.21"/>
<polygon fill="midnightblue" stroke="midnightblue" points="260.86,-90.76 250.34,-92.03 259.35,-97.59 260.86,-90.76"/>
</g>
<!-- Node5 -->
<g id="node5" class="node">
<title>Node5</title>
<g id="a_node5"><a xlink:title=" ">
<polygon fill="none" stroke="#bfbfbf" points="720.5,-6 720.5,-25 880.5,-25 880.5,-6 720.5,-6"/>
<text text-anchor="middle" x="800.5" y="-13" font-family="Helvetica,sans-Serif" font-size="10.00">Director/GameObjectDirector.hpp</text>
</a>
</g>
</g>
<!-- Node1&#45;&gt;Node5 -->
<g id="edge4" class="edge">
<title>Node1&#45;&gt;Node5</title>
<path fill="none" stroke="midnightblue" d="M575.24,-147.27C625.68,-143.4 694.23,-131.61 744.5,-98 767.98,-82.3 784.41,-53.12 793.15,-34.27"/>
<polygon fill="midnightblue" stroke="midnightblue" points="796.4,-35.57 797.22,-25.01 789.99,-32.76 796.4,-35.57"/>
</g>
<!-- Node6 -->
<g id="node6" class="node">
<title>Node6</title>
<g id="a_node6"><a xlink:title=" ">
<polygon fill="none" stroke="#bfbfbf" points="459.5,-73 459.5,-92 555.5,-92 555.5,-73 459.5,-73"/>
<text text-anchor="middle" x="507.5" y="-80" font-family="Helvetica,sans-Serif" font-size="10.00">Engine/Engine.hpp</text>
</a>
</g>
</g>
<!-- Node1&#45;&gt;Node6 -->
<g id="edge5" class="edge">
<title>Node1&#45;&gt;Node6</title>
<path fill="none" stroke="midnightblue" d="M507.5,-134.4C507.5,-125.06 507.5,-112.71 507.5,-102.52"/>
<polygon fill="midnightblue" stroke="midnightblue" points="511,-102.19 507.5,-92.19 504,-102.19 511,-102.19"/>
</g>
<!-- Node7 -->
<g id="node7" class="node">
<title>Node7</title>
<g id="a_node7"><a xlink:href="DynamicAnimationBehaviour_8hpp.html" target="_top" xlink:title=" ">
<polygon fill="none" stroke="black" points="310,-67.5 310,-97.5 441,-97.5 441,-67.5 310,-67.5"/>
<text text-anchor="start" x="318" y="-85.5" font-family="Helvetica,sans-Serif" font-size="10.00">Scripts/DynamicAnimation</text>
<text text-anchor="middle" x="375.5" y="-74.5" font-family="Helvetica,sans-Serif" font-size="10.00">Behaviour.hpp</text>
</a>
</g>
</g>
<!-- Node1&#45;&gt;Node7 -->
<g id="edge6" class="edge">
<title>Node1&#45;&gt;Node7</title>
<path fill="none" stroke="midnightblue" d="M478.86,-134.4C459.66,-124.94 434.17,-112.39 413.31,-102.12"/>
<polygon fill="midnightblue" stroke="midnightblue" points="414.6,-98.85 404.09,-97.58 411.51,-105.13 414.6,-98.85"/>
</g>
<!-- Node10 -->
<g id="node10" class="node">
<title>Node10</title>
<g id="a_node10"><a xlink:href="PlayerInputBehaviour_8hpp.html" target="_top" xlink:title=" ">
<polygon fill="none" stroke="black" points="574,-73 574,-92 735,-92 735,-73 574,-73"/>
<text text-anchor="middle" x="654.5" y="-80" font-family="Helvetica,sans-Serif" font-size="10.00">Scripts/PlayerInputBehaviour.hpp</text>
</a>
</g>
</g>
<!-- Node1&#45;&gt;Node10 -->
<g id="edge9" class="edge">
<title>Node1&#45;&gt;Node10</title>
<path fill="none" stroke="midnightblue" d="M539.4,-134.4C565.19,-122.99 601.17,-107.08 626.01,-96.1"/>
<polygon fill="midnightblue" stroke="midnightblue" points="627.53,-99.25 635.26,-92.01 624.7,-92.85 627.53,-99.25"/>
</g>
<!-- Node13 -->
<g id="node13" class="node">
<title>Node13</title>
<g id="a_node13"><a xlink:href="TileConfig_8hpp.html" target="_top" xlink:title=" ">
<polygon fill="none" stroke="black" points="939,-73 939,-92 1016,-92 1016,-73 939,-73"/>
<text text-anchor="middle" x="977.5" y="-80" font-family="Helvetica,sans-Serif" font-size="10.00">TileConfig.hpp</text>
</a>
</g>
</g>
<!-- Node1&#45;&gt;Node13 -->
<g id="edge13" class="edge">
<title>Node1&#45;&gt;Node13</title>
<path fill="none" stroke="midnightblue" d="M575.09,-139.15C671.04,-125.88 844.45,-101.9 928.8,-90.24"/>
<polygon fill="midnightblue" stroke="midnightblue" points="929.45,-93.68 938.87,-88.84 928.49,-86.74 929.45,-93.68"/>
</g>
<!-- Node3 -->
<g id="node3" class="node">
<title>Node3</title>
<g id="a_node3"><a xlink:title=" ">
<polygon fill="none" stroke="#bfbfbf" points="36,-6 36,-25 77,-25 77,-6 36,-6"/>
<text text-anchor="middle" x="56.5" y="-13" font-family="Helvetica,sans-Serif" font-size="10.00">string</text>
</a>
</g>
</g>
<!-- Node2&#45;&gt;Node3 -->
<g id="edge2" class="edge">
<title>Node2&#45;&gt;Node3</title>
<path fill="none" stroke="midnightblue" d="M56.5,-72.73C56.5,-63.18 56.5,-47.62 56.5,-35.28"/>
<polygon fill="midnightblue" stroke="midnightblue" points="60,-35.13 56.5,-25.13 53,-35.13 60,-35.13"/>
</g>
<!-- Node8 -->
<g id="node8" class="node">
<title>Node8</title>
<g id="a_node8"><a xlink:title=" ">
<polygon fill="none" stroke="#bfbfbf" points="371.5,-6 371.5,-25 475.5,-25 475.5,-6 371.5,-6"/>
<text text-anchor="middle" x="423.5" y="-13" font-family="Helvetica,sans-Serif" font-size="10.00">BehaviourScript.hpp</text>
</a>
</g>
</g>
<!-- Node7&#45;&gt;Node8 -->
<g id="edge7" class="edge">
<title>Node7&#45;&gt;Node8</title>
<path fill="none" stroke="midnightblue" d="M385.92,-67.4C393.33,-57.36 403.31,-43.84 411.13,-33.25"/>
<polygon fill="midnightblue" stroke="midnightblue" points="413.95,-35.32 417.08,-25.19 408.32,-31.16 413.95,-35.32"/>
</g>
<!-- Node9 -->
<g id="node9" class="node">
<title>Node9</title>
<g id="a_node9"><a xlink:title=" ">
<polygon fill="none" stroke="#bfbfbf" points="216,-6 216,-25 353,-25 353,-6 216,-6"/>
<text text-anchor="middle" x="284.5" y="-13" font-family="Helvetica,sans-Serif" font-size="10.00">Texture/AnimatedSprite.hpp</text>
</a>
</g>
</g>
<!-- Node7&#45;&gt;Node9 -->
<g id="edge8" class="edge">
<title>Node7&#45;&gt;Node9</title>
<path fill="none" stroke="midnightblue" d="M355.75,-67.4C340.64,-56.6 319.86,-41.76 304.64,-30.89"/>
<polygon fill="midnightblue" stroke="midnightblue" points="306.58,-27.97 296.41,-25.01 302.51,-33.67 306.58,-27.97"/>
</g>
<!-- Node10&#45;&gt;Node8 -->
<g id="edge10" class="edge">
<title>Node10&#45;&gt;Node8</title>
<path fill="none" stroke="midnightblue" d="M623.82,-72.87C582.64,-61.28 509.37,-40.66 463.78,-27.83"/>
<polygon fill="midnightblue" stroke="midnightblue" points="464.51,-24.4 453.93,-25.06 462.61,-31.14 464.51,-24.4"/>
</g>
<!-- Node11 -->
<g id="node11" class="node">
<title>Node11</title>
<g id="a_node11"><a xlink:title=" ">
<polygon fill="none" stroke="#bfbfbf" points="607,-0.5 607,-30.5 702,-30.5 702,-0.5 607,-0.5"/>
<text text-anchor="start" x="615" y="-18.5" font-family="Helvetica,sans-Serif" font-size="10.00">boost/serialization</text>
<text text-anchor="middle" x="654.5" y="-7.5" font-family="Helvetica,sans-Serif" font-size="10.00">/access.hpp</text>
</a>
</g>
</g>
<!-- Node10&#45;&gt;Node11 -->
<g id="edge11" class="edge">
<title>Node10&#45;&gt;Node11</title>
<path fill="none" stroke="midnightblue" d="M654.5,-72.73C654.5,-64.54 654.5,-51.92 654.5,-40.71"/>
<polygon fill="midnightblue" stroke="midnightblue" points="658,-40.59 654.5,-30.59 651,-40.59 658,-40.59"/>
</g>
<!-- Node12 -->
<g id="node12" class="node">
<title>Node12</title>
<g id="a_node12"><a xlink:title=" ">
<polygon fill="none" stroke="#bfbfbf" points="494,-0.5 494,-30.5 589,-30.5 589,-0.5 494,-0.5"/>
<text text-anchor="start" x="502" y="-18.5" font-family="Helvetica,sans-Serif" font-size="10.00">boost/serialization</text>
<text text-anchor="middle" x="541.5" y="-7.5" font-family="Helvetica,sans-Serif" font-size="10.00">/export.hpp</text>
</a>
</g>
</g>
<!-- Node10&#45;&gt;Node12 -->
<g id="edge12" class="edge">
<title>Node10&#45;&gt;Node12</title>
<path fill="none" stroke="midnightblue" d="M639.26,-72.73C622.81,-63.27 596.11,-47.91 574.77,-35.64"/>
<polygon fill="midnightblue" stroke="midnightblue" points="576.41,-32.54 565.99,-30.59 572.92,-38.61 576.41,-32.54"/>
</g>
<!-- Node13&#45;&gt;Node5 -->
<g id="edge19" class="edge">
<title>Node13&#45;&gt;Node5</title>
<path fill="none" stroke="midnightblue" d="M954,-72.87C923.1,-61.52 868.64,-41.52 833.59,-28.65"/>
<polygon fill="midnightblue" stroke="midnightblue" points="834.41,-25.23 823.82,-25.06 832,-31.8 834.41,-25.23"/>
</g>
<!-- Node14 -->
<g id="node14" class="node">
<title>Node14</title>
<g id="a_node14"><a xlink:title=" ">
<polygon fill="none" stroke="#bfbfbf" points="1335,-6 1335,-25 1394,-25 1394,-6 1335,-6"/>
<text text-anchor="middle" x="1364.5" y="-13" font-family="Helvetica,sans-Serif" font-size="10.00">functional</text>
</a>
</g>
</g>
<!-- Node13&#45;&gt;Node14 -->
<g id="edge14" class="edge">
<title>Node13&#45;&gt;Node14</title>
<path fill="none" stroke="midnightblue" d="M1016,-78.72C1080.91,-73.42 1215.84,-59.74 1326.5,-31 1329.32,-30.27 1332.22,-29.4 1335.09,-28.45"/>
<polygon fill="midnightblue" stroke="midnightblue" points="1336.42,-31.69 1344.65,-25.02 1334.06,-25.1 1336.42,-31.69"/>
</g>
<!-- Node15 -->
<g id="node15" class="node">
<title>Node15</title>
<g id="a_node15"><a xlink:title=" ">
<polygon fill="none" stroke="#bfbfbf" points="899,-6 899,-25 934,-25 934,-6 899,-6"/>
<text text-anchor="middle" x="916.5" y="-13" font-family="Helvetica,sans-Serif" font-size="10.00">map</text>
</a>
</g>
</g>
<!-- Node13&#45;&gt;Node15 -->
<g id="edge15" class="edge">
<title>Node13&#45;&gt;Node15</title>
<path fill="none" stroke="midnightblue" d="M969.27,-72.73C959.67,-62.5 943.59,-45.36 931.7,-32.69"/>
<polygon fill="midnightblue" stroke="midnightblue" points="933.99,-30.02 924.6,-25.13 928.89,-34.81 933.99,-30.02"/>
</g>
<!-- Node16 -->
<g id="node16" class="node">
<title>Node16</title>
<g id="a_node16"><a xlink:title=" ">
<polygon fill="none" stroke="#bfbfbf" points="952,-6 952,-25 1003,-25 1003,-6 952,-6"/>
<text text-anchor="middle" x="977.5" y="-13" font-family="Helvetica,sans-Serif" font-size="10.00">memory</text>
</a>
</g>
</g>
<!-- Node13&#45;&gt;Node16 -->
<g id="edge16" class="edge">
<title>Node13&#45;&gt;Node16</title>
<path fill="none" stroke="midnightblue" d="M977.5,-72.73C977.5,-63.18 977.5,-47.62 977.5,-35.28"/>
<polygon fill="midnightblue" stroke="midnightblue" points="981,-35.13 977.5,-25.13 974,-35.13 981,-35.13"/>
</g>
<!-- Node17 -->
<g id="node17" class="node">
<title>Node17</title>
<g id="a_node17"><a xlink:title=" ">
<polygon fill="none" stroke="#bfbfbf" points="1021.5,-6 1021.5,-25 1173.5,-25 1173.5,-6 1021.5,-6"/>
<text text-anchor="middle" x="1097.5" y="-13" font-family="Helvetica,sans-Serif" font-size="10.00">Builder/GameObjectBuilder.hpp</text>
</a>
</g>
</g>
<!-- Node13&#45;&gt;Node17 -->
<g id="edge17" class="edge">
<title>Node13&#45;&gt;Node17</title>
<path fill="none" stroke="midnightblue" d="M993.68,-72.73C1013.93,-61.77 1048.8,-42.88 1072.49,-30.05"/>
<polygon fill="midnightblue" stroke="midnightblue" points="1074.45,-32.97 1081.57,-25.13 1071.11,-26.81 1074.45,-32.97"/>
</g>
<!-- Node18 -->
<g id="node18" class="node">
<title>Node18</title>
<g id="a_node18"><a xlink:title=" ">
<polygon fill="none" stroke="#bfbfbf" points="1192,-6 1192,-25 1317,-25 1317,-6 1192,-6"/>
<text text-anchor="middle" x="1254.5" y="-13" font-family="Helvetica,sans-Serif" font-size="10.00">Builder/SceneBuilder.hpp</text>
</a>
</g>
</g>
<!-- Node13&#45;&gt;Node18 -->
<g id="edge18" class="edge">
<title>Node13&#45;&gt;Node18</title>
<path fill="none" stroke="midnightblue" d="M1014,-72.94C1063.92,-61.22 1153.53,-40.19 1208.15,-27.38"/>
<polygon fill="midnightblue" stroke="midnightblue" points="1208.99,-30.78 1217.92,-25.08 1207.39,-23.96 1208.99,-30.78"/>
</g>
</g>
</svg>
