<?xml version="1.0" encoding="UTF-8" standalone="no"?>
<!DOCTYPE svg PUBLIC "-//W3C//DTD SVG 1.1//EN"
 "http://www.w3.org/Graphics/SVG/1.1/DTD/svg11.dtd">
<!-- Generated by graphviz version 2.44.0 ()
 -->
<!-- Title: src/Networking/NetworkingClient.cpp Pages: 1 -->
<!--zoomable 285 -->
<svg id="main" version="1.1" xmlns="http://www.w3.org/2000/svg" xmlns:xlink="http://www.w3.org/1999/xlink" xml:space="preserve" onload="init(evt)">
<style type="text/css"><![CDATA[
.edge:hover path { stroke: red; }
.edge:hover polygon { stroke: red; fill: red; }
]]></style>
<script type="text/javascript"><![CDATA[
var edges = document.getElementsByTagName('g');
if (edges && edges.length) {
  for (var i=0;i<edges.length;i++) {
    if (edges[i].id.substr(0,4)=='edge') {
      edges[i].setAttribute('class','edge');
    }
  }
}
]]></script>
        <defs>
                <circle id="rim" cx="0" cy="0" r="7"/>
                <circle id="rim2" cx="0" cy="0" r="3.5"/>
                <g id="zoomPlus">
                        <use xlink:href="#rim" fill="#404040">
                                <set attributeName="fill" to="#808080" begin="zoomplus.mouseover" end="zoomplus.mouseout"/>
                        </use>
                        <path d="M-4,0h8M0,-4v8" fill="none" stroke="white" stroke-width="1.5" pointer-events="none"/>
                </g>
                <g id="zoomMin">
                        <use xlink:href="#rim" fill="#404040">
                                <set attributeName="fill" to="#808080" begin="zoomminus.mouseover" end="zoomminus.mouseout"/>
                        </use>
                        <path d="M-4,0h8" fill="none" stroke="white" stroke-width="1.5" pointer-events="none"/>
                </g>
                <g id="dirArrow">
                        <path fill="none" stroke="white" stroke-width="1.5" d="M0,-3.0v7 M-2.5,-0.5L0,-3.0L2.5,-0.5"/>
                </g>
               <g id="resetDef">
                       <use xlink:href="#rim2" fill="#404040">
                               <set attributeName="fill" to="#808080" begin="reset.mouseover" end="reset.mouseout"/>
                       </use>
               </g>
        </defs>

<script type="text/javascript">
var viewWidth = 1380;
var viewHeight = 285;
var sectionId = 'dynsection-0';
</script>
<script xlink:href="svgpan.js"/>
<svg id="graph" class="graph">
<g id="viewport">
<title>src/Networking/NetworkingClient.cpp</title>
<!-- Node1 -->
<g id="node1" class="node">
<title>Node1</title>
<g id="a_node1"><a xlink:title=" ">
<polygon fill="#bfbfbf" stroke="black" points="369,-246.5 369,-276.5 504,-276.5 504,-246.5 369,-246.5"/>
<text text-anchor="start" x="377" y="-264.5" font-family="Helvetica,sans-Serif" font-size="10.00">src/Networking/Networking</text>
<text text-anchor="middle" x="436.5" y="-253.5" font-family="Helvetica,sans-Serif" font-size="10.00">Client.cpp</text>
</a>
</g>
</g>
<!-- Node2 -->
<g id="node2" class="node">
<title>Node2</title>
<g id="a_node2"><a xlink:href="NetworkingClient_8hpp.html" target="_top" xlink:title=" ">
<polygon fill="none" stroke="black" points="10,-185 10,-204 119,-204 119,-185 10,-185"/>
<text text-anchor="middle" x="64.5" y="-192" font-family="Helvetica,sans-Serif" font-size="10.00">NetworkingClient.hpp</text>
</a>
</g>
</g>
<!-- Node1&#45;&gt;Node2 -->
<g id="edge1" class="edge">
<title>Node1&#45;&gt;Node2</title>
<path fill="none" stroke="midnightblue" d="M368.7,-248.65C298.44,-236.38 189.75,-217.38 123.09,-205.74"/>
<polygon fill="midnightblue" stroke="midnightblue" points="123.62,-202.28 113.16,-204 122.41,-209.17 123.62,-202.28"/>
</g>
<!-- Node4 -->
<g id="node4" class="node">
<title>Node4</title>
<g id="a_node4"><a xlink:title=" ">
<polygon fill="none" stroke="#bfbfbf" points="180,-185 180,-204 341,-204 341,-185 180,-185"/>
<text text-anchor="middle" x="260.5" y="-192" font-family="Helvetica,sans-Serif" font-size="10.00">Behaviour/CollisionBehaviour.hpp</text>
</a>
</g>
</g>
<!-- Node1&#45;&gt;Node4 -->
<g id="edge3" class="edge">
<title>Node1&#45;&gt;Node4</title>
<path fill="none" stroke="midnightblue" d="M398.31,-246.4C366.88,-234.79 322.82,-218.51 293.04,-207.52"/>
<polygon fill="midnightblue" stroke="midnightblue" points="294.13,-204.19 283.53,-204.01 291.7,-210.75 294.13,-204.19"/>
</g>
<!-- Node5 -->
<g id="node5" class="node">
<title>Node5</title>
<g id="a_node5"><a xlink:title=" ">
<polygon fill="none" stroke="#bfbfbf" points="59,-123.5 59,-142.5 184,-142.5 184,-123.5 59,-123.5"/>
<text text-anchor="middle" x="121.5" y="-130.5" font-family="Helvetica,sans-Serif" font-size="10.00">Builder/SceneBuilder.hpp</text>
</a>
</g>
</g>
<!-- Node1&#45;&gt;Node5 -->
<g id="edge4" class="edge">
<title>Node1&#45;&gt;Node5</title>
<path fill="none" stroke="midnightblue" d="M423.1,-246.16C403.16,-225.16 366.26,-187.59 349.5,-179 322.83,-165.32 250.31,-152.36 194.16,-143.9"/>
<polygon fill="midnightblue" stroke="midnightblue" points="194.64,-140.43 184.23,-142.42 193.61,-147.35 194.64,-140.43"/>
</g>
<!-- Node6 -->
<g id="node6" class="node">
<title>Node6</title>
<g id="a_node6"><a xlink:title=" ">
<polygon fill="none" stroke="#bfbfbf" points="914.5,-185 914.5,-204 1010.5,-204 1010.5,-185 914.5,-185"/>
<text text-anchor="middle" x="962.5" y="-192" font-family="Helvetica,sans-Serif" font-size="10.00">Engine/Engine.hpp</text>
</a>
</g>
</g>
<!-- Node1&#45;&gt;Node6 -->
<g id="edge5" class="edge">
<title>Node1&#45;&gt;Node6</title>
<path fill="none" stroke="midnightblue" d="M504.09,-255.73C594.74,-248.74 760.52,-233.9 900.5,-210 906.65,-208.95 913.1,-207.66 919.42,-206.28"/>
<polygon fill="midnightblue" stroke="midnightblue" points="920.21,-209.69 929.19,-204.07 918.66,-202.87 920.21,-209.69"/>
</g>
<!-- Node7 -->
<g id="node7" class="node">
<title>Node7</title>
<g id="a_node7"><a xlink:href="DynamicAnimationBehaviour_8hpp.html" target="_top" xlink:title=" ">
<polygon fill="none" stroke="black" points="727,-179.5 727,-209.5 858,-209.5 858,-179.5 727,-179.5"/>
<text text-anchor="start" x="735" y="-197.5" font-family="Helvetica,sans-Serif" font-size="10.00">Scripts/DynamicAnimation</text>
<text text-anchor="middle" x="792.5" y="-186.5" font-family="Helvetica,sans-Serif" font-size="10.00">Behaviour.hpp</text>
</a>
</g>
</g>
<!-- Node1&#45;&gt;Node7 -->
<g id="edge6" class="edge">
<title>Node1&#45;&gt;Node7</title>
<path fill="none" stroke="midnightblue" d="M504.3,-248.12C565,-237.04 653.9,-220.81 716.88,-209.31"/>
<polygon fill="midnightblue" stroke="midnightblue" points="717.55,-212.74 726.76,-207.5 716.29,-205.86 717.55,-212.74"/>
</g>
<!-- Node10 -->
<g id="node10" class="node">
<title>Node10</title>
<g id="a_node10"><a xlink:href="PlayerInputBehaviour_8hpp.html" target="_top" xlink:title=" ">
<polygon fill="none" stroke="black" points="1211,-123.5 1211,-142.5 1372,-142.5 1372,-123.5 1211,-123.5"/>
<text text-anchor="middle" x="1291.5" y="-130.5" font-family="Helvetica,sans-Serif" font-size="10.00">Scripts/PlayerInputBehaviour.hpp</text>
</a>
</g>
</g>
<!-- Node1&#45;&gt;Node10 -->
<g id="edge9" class="edge">
<title>Node1&#45;&gt;Node10</title>
<path fill="none" stroke="midnightblue" d="M504.26,-257.07C608.45,-251.03 802.65,-236.56 866.5,-210 886.94,-201.49 885.05,-187.5 905.5,-179 918.98,-173.4 1090.71,-154.8 1200.52,-143.34"/>
<polygon fill="midnightblue" stroke="midnightblue" points="1201.03,-146.8 1210.61,-142.29 1200.3,-139.84 1201.03,-146.8"/>
</g>
<!-- Node13 -->
<g id="node13" class="node">
<title>Node13</title>
<g id="a_node13"><a xlink:href="TileConfig_8hpp.html" target="_top" xlink:title=" ">
<polygon fill="none" stroke="black" points="398,-185 398,-204 475,-204 475,-185 398,-185"/>
<text text-anchor="middle" x="436.5" y="-192" font-family="Helvetica,sans-Serif" font-size="10.00">TileConfig.hpp</text>
</a>
</g>
</g>
<!-- Node1&#45;&gt;Node13 -->
<g id="edge13" class="edge">
<title>Node1&#45;&gt;Node13</title>
<path fill="none" stroke="midnightblue" d="M436.5,-246.4C436.5,-237.06 436.5,-224.71 436.5,-214.52"/>
<polygon fill="midnightblue" stroke="midnightblue" points="440,-214.19 436.5,-204.19 433,-214.19 440,-214.19"/>
</g>
<!-- Node3 -->
<g id="node3" class="node">
<title>Node3</title>
<g id="a_node3"><a xlink:title=" ">
<polygon fill="none" stroke="#bfbfbf" points="0,-123.5 0,-142.5 41,-142.5 41,-123.5 0,-123.5"/>
<text text-anchor="middle" x="20.5" y="-130.5" font-family="Helvetica,sans-Serif" font-size="10.00">string</text>
</a>
</g>
</g>
<!-- Node2&#45;&gt;Node3 -->
<g id="edge2" class="edge">
<title>Node2&#45;&gt;Node3</title>
<path fill="none" stroke="midnightblue" d="M58.2,-184.98C51.6,-176.05 41.06,-161.81 32.81,-150.64"/>
<polygon fill="midnightblue" stroke="midnightblue" points="35.55,-148.47 26.79,-142.51 29.92,-152.63 35.55,-148.47"/>
</g>
<!-- Node8 -->
<g id="node8" class="node">
<title>Node8</title>
<g id="a_node8"><a xlink:title=" ">
<polygon fill="none" stroke="#bfbfbf" points="740.5,-67.5 740.5,-86.5 844.5,-86.5 844.5,-67.5 740.5,-67.5"/>
<text text-anchor="middle" x="792.5" y="-74.5" font-family="Helvetica,sans-Serif" font-size="10.00">BehaviourScript.hpp</text>
</a>
</g>
</g>
<!-- Node7&#45;&gt;Node8 -->
<g id="edge7" class="edge">
<title>Node7&#45;&gt;Node8</title>
<path fill="none" stroke="midnightblue" d="M858.25,-180.19C920.01,-167.37 1003.7,-149.05 1008.5,-143 1014.02,-136.04 1014.11,-129.9 1008.5,-123 998.73,-110.99 915.18,-96.2 854.91,-86.94"/>
<polygon fill="midnightblue" stroke="midnightblue" points="855.12,-83.43 844.71,-85.39 854.07,-90.35 855.12,-83.43"/>
</g>
<!-- Node9 -->
<g id="node9" class="node">
<title>Node9</title>
<g id="a_node9"><a xlink:title=" ">
<polygon fill="none" stroke="#bfbfbf" points="1056,-123.5 1056,-142.5 1193,-142.5 1193,-123.5 1056,-123.5"/>
<text text-anchor="middle" x="1124.5" y="-130.5" font-family="Helvetica,sans-Serif" font-size="10.00">Texture/AnimatedSprite.hpp</text>
</a>
</g>
</g>
<!-- Node7&#45;&gt;Node9 -->
<g id="edge8" class="edge">
<title>Node7&#45;&gt;Node9</title>
<path fill="none" stroke="midnightblue" d="M858.42,-181.54C863.18,-180.68 867.92,-179.82 872.5,-179 939.13,-167.01 1015.7,-153.36 1066.79,-144.26"/>
<polygon fill="midnightblue" stroke="midnightblue" points="1067.42,-147.7 1076.65,-142.51 1066.19,-140.81 1067.42,-147.7"/>
</g>
<!-- Node10&#45;&gt;Node8 -->
<g id="edge10" class="edge">
<title>Node10&#45;&gt;Node8</title>
<path fill="none" stroke="midnightblue" d="M1210.73,-123.76C1105.67,-112.99 927.86,-94.63 862.5,-87 860,-86.71 857.45,-86.4 854.87,-86.09"/>
<polygon fill="midnightblue" stroke="midnightblue" points="855.2,-82.61 844.85,-84.87 854.35,-89.56 855.2,-82.61"/>
</g>
<!-- Node11 -->
<g id="node11" class="node">
<title>Node11</title>
<g id="a_node11"><a xlink:title=" ">
<polygon fill="none" stroke="#bfbfbf" points="700,-0.5 700,-30.5 795,-30.5 795,-0.5 700,-0.5"/>
<text text-anchor="start" x="708" y="-18.5" font-family="Helvetica,sans-Serif" font-size="10.00">boost/serialization</text>
<text text-anchor="middle" x="747.5" y="-7.5" font-family="Helvetica,sans-Serif" font-size="10.00">/access.hpp</text>
</a>
</g>
</g>
<!-- Node10&#45;&gt;Node11 -->
<g id="edge11" class="edge">
<title>Node10&#45;&gt;Node11</title>
<path fill="none" stroke="midnightblue" d="M1240.95,-123.46C1191.13,-114.88 1112.89,-100.95 1045.5,-87 940.56,-65.27 912.36,-57.73 805.07,-31.36"/>
<polygon fill="midnightblue" stroke="midnightblue" points="805.68,-27.91 795.14,-28.92 804.01,-34.71 805.68,-27.91"/>
</g>
<!-- Node12 -->
<g id="node12" class="node">
<title>Node12</title>
<g id="a_node12"><a xlink:title=" ">
<polygon fill="none" stroke="#bfbfbf" points="813,-0.5 813,-30.5 908,-30.5 908,-0.5 813,-0.5"/>
<text text-anchor="start" x="821" y="-18.5" font-family="Helvetica,sans-Serif" font-size="10.00">boost/serialization</text>
<text text-anchor="middle" x="860.5" y="-7.5" font-family="Helvetica,sans-Serif" font-size="10.00">/export.hpp</text>
</a>
</g>
</g>
<!-- Node10&#45;&gt;Node12 -->
<g id="edge12" class="edge">
<title>Node10&#45;&gt;Node12</title>
<path fill="none" stroke="midnightblue" d="M1259.46,-123.41C1186.99,-103.99 1009.67,-56.48 917.79,-31.85"/>
<polygon fill="midnightblue" stroke="midnightblue" points="918.66,-28.46 908.1,-29.26 916.85,-35.22 918.66,-28.46"/>
</g>
<!-- Node13&#45;&gt;Node5 -->
<g id="edge18" class="edge">
<title>Node13&#45;&gt;Node5</title>
<path fill="none" stroke="midnightblue" d="M407.19,-184.94C399.52,-182.84 391.23,-180.72 383.5,-179 318.64,-164.59 243.86,-152.16 190.84,-144.03"/>
<polygon fill="midnightblue" stroke="midnightblue" points="191.28,-140.56 180.87,-142.52 190.23,-147.48 191.28,-140.56"/>
</g>
<!-- Node14 -->
<g id="node14" class="node">
<title>Node14</title>
<g id="a_node14"><a xlink:title=" ">
<polygon fill="none" stroke="#bfbfbf" points="294,-123.5 294,-142.5 353,-142.5 353,-123.5 294,-123.5"/>
<text text-anchor="middle" x="323.5" y="-130.5" font-family="Helvetica,sans-Serif" font-size="10.00">functional</text>
</a>
</g>
</g>
<!-- Node13&#45;&gt;Node14 -->
<g id="edge14" class="edge">
<title>Node13&#45;&gt;Node14</title>
<path fill="none" stroke="midnightblue" d="M420.31,-184.98C401.6,-175.12 370.58,-158.79 348.7,-147.27"/>
<polygon fill="midnightblue" stroke="midnightblue" points="350.14,-144.07 339.66,-142.51 346.88,-150.27 350.14,-144.07"/>
</g>
<!-- Node15 -->
<g id="node15" class="node">
<title>Node15</title>
<g id="a_node15"><a xlink:title=" ">
<polygon fill="none" stroke="#bfbfbf" points="202,-123.5 202,-142.5 237,-142.5 237,-123.5 202,-123.5"/>
<text text-anchor="middle" x="219.5" y="-130.5" font-family="Helvetica,sans-Serif" font-size="10.00">map</text>
</a>
</g>
</g>
<!-- Node13&#45;&gt;Node15 -->
<g id="edge15" class="edge">
<title>Node13&#45;&gt;Node15</title>
<path fill="none" stroke="midnightblue" d="M405.39,-184.99C398.2,-183.02 390.59,-180.94 383.5,-179 324.84,-162.98 310.1,-159.23 251.5,-143 250.04,-142.6 248.54,-142.18 247.03,-141.76"/>
<polygon fill="midnightblue" stroke="midnightblue" points="247.67,-138.3 237.1,-138.98 245.78,-145.04 247.67,-138.3"/>
</g>
<!-- Node16 -->
<g id="node16" class="node">
<title>Node16</title>
<g id="a_node16"><a xlink:title=" ">
<polygon fill="none" stroke="#bfbfbf" points="8,-6 8,-25 59,-25 59,-6 8,-6"/>
<text text-anchor="middle" x="33.5" y="-13" font-family="Helvetica,sans-Serif" font-size="10.00">memory</text>
</a>
</g>
</g>
<!-- Node13&#45;&gt;Node16 -->
<g id="edge16" class="edge">
<title>Node13&#45;&gt;Node16</title>
<path fill="none" stroke="midnightblue" d="M406.29,-184.95C375.26,-175.83 325.78,-160.32 284.5,-143 266.54,-135.46 262.87,-131.82 245.5,-123 178.66,-89.07 99.71,-49.56 59.65,-29.55"/>
<polygon fill="midnightblue" stroke="midnightblue" points="61.07,-26.35 50.56,-25.01 57.94,-32.61 61.07,-26.35"/>
</g>
<!-- Node17 -->
<g id="node17" class="node">
<title>Node17</title>
<g id="a_node17"><a xlink:title=" ">
<polygon fill="none" stroke="#bfbfbf" points="669.5,-123.5 669.5,-142.5 821.5,-142.5 821.5,-123.5 669.5,-123.5"/>
<text text-anchor="middle" x="745.5" y="-130.5" font-family="Helvetica,sans-Serif" font-size="10.00">Builder/GameObjectBuilder.hpp</text>
</a>
</g>
</g>
<!-- Node13&#45;&gt;Node17 -->
<g id="edge17" class="edge">
<title>Node13&#45;&gt;Node17</title>
<path fill="none" stroke="midnightblue" d="M475.01,-186.08C529.49,-175.59 629.32,-156.37 691.27,-144.44"/>
<polygon fill="midnightblue" stroke="midnightblue" points="692.1,-147.85 701.25,-142.52 690.77,-140.97 692.1,-147.85"/>
</g>
<!-- Node18 -->
<g id="node18" class="node">
<title>Node18</title>
<g id="a_node18"><a xlink:title=" ">
<polygon fill="none" stroke="#bfbfbf" points="839.5,-123.5 839.5,-142.5 999.5,-142.5 999.5,-123.5 839.5,-123.5"/>
<text text-anchor="middle" x="919.5" y="-130.5" font-family="Helvetica,sans-Serif" font-size="10.00">Director/GameObjectDirector.hpp</text>
</a>
</g>
</g>
<!-- Node13&#45;&gt;Node18 -->
<g id="edge19" class="edge">
<title>Node13&#45;&gt;Node18</title>
<path fill="none" stroke="midnightblue" d="M475.21,-188.73C554.18,-179 735.23,-156.7 840.21,-143.77"/>
<polygon fill="midnightblue" stroke="midnightblue" points="840.94,-147.2 850.44,-142.51 840.09,-140.26 840.94,-147.2"/>
</g>
<!-- Node19 -->
<g id="node19" class="node">
<title>Node19</title>
<g id="a_node19"><a xlink:href="CoinBehaviour_8hpp.html" target="_top" xlink:title=" ">
<polygon fill="none" stroke="black" points="371,-123.5 371,-142.5 502,-142.5 502,-123.5 371,-123.5"/>
<text text-anchor="middle" x="436.5" y="-130.5" font-family="Helvetica,sans-Serif" font-size="10.00">Scripts/CoinBehaviour.hpp</text>
</a>
</g>
</g>
<!-- Node13&#45;&gt;Node19 -->
<g id="edge20" class="edge">
<title>Node13&#45;&gt;Node19</title>
<path fill="none" stroke="midnightblue" d="M436.5,-184.98C436.5,-176.58 436.5,-163.48 436.5,-152.66"/>
<polygon fill="midnightblue" stroke="midnightblue" points="440,-152.51 436.5,-142.51 433,-152.51 440,-152.51"/>
</g>
<!-- Node27 -->
<g id="node27" class="node">
<title>Node27</title>
<g id="a_node27"><a xlink:href="FlagBehaviour_8hpp.html" target="_top" xlink:title=" ">
<polygon fill="none" stroke="black" points="520,-123.5 520,-142.5 651,-142.5 651,-123.5 520,-123.5"/>
<text text-anchor="middle" x="585.5" y="-130.5" font-family="Helvetica,sans-Serif" font-size="10.00">Scripts/FlagBehaviour.hpp</text>
</a>
</g>
</g>
<!-- Node13&#45;&gt;Node27 -->
<g id="edge35" class="edge">
<title>Node13&#45;&gt;Node27</title>
<path fill="none" stroke="midnightblue" d="M457.85,-184.98C483.19,-174.86 525.64,-157.9 554.57,-146.35"/>
<polygon fill="midnightblue" stroke="midnightblue" points="556.2,-149.47 564.19,-142.51 553.61,-142.97 556.2,-149.47"/>
</g>
<!-- Node19&#45;&gt;Node8 -->
<g id="edge21" class="edge">
<title>Node19&#45;&gt;Node8</title>
<path fill="none" stroke="midnightblue" d="M492.91,-123.44C557.62,-113.63 663.4,-97.58 730.41,-87.42"/>
<polygon fill="midnightblue" stroke="midnightblue" points="731.05,-90.86 740.41,-85.9 730,-83.94 731.05,-90.86"/>
</g>
<!-- Node19&#45;&gt;Node11 -->
<g id="edge32" class="edge">
<title>Node19&#45;&gt;Node11</title>
<path fill="none" stroke="midnightblue" d="M459.62,-123.41C510.34,-104.58 632.22,-59.31 700.01,-34.14"/>
<polygon fill="midnightblue" stroke="midnightblue" points="701.44,-37.34 709.6,-30.58 699.01,-30.78 701.44,-37.34"/>
</g>
<!-- Node19&#45;&gt;Node12 -->
<g id="edge33" class="edge">
<title>Node19&#45;&gt;Node12</title>
<path fill="none" stroke="midnightblue" d="M468.02,-123.41C539.06,-104.06 712.49,-56.82 803.16,-32.12"/>
<polygon fill="midnightblue" stroke="midnightblue" points="804.27,-35.45 812.99,-29.44 802.43,-28.69 804.27,-35.45"/>
</g>
<!-- Node20 -->
<g id="node20" class="node">
<title>Node20</title>
<g id="a_node20"><a xlink:href="CoinCounter_8hpp.html" target="_top" xlink:title=" ">
<polygon fill="none" stroke="black" points="382,-67.5 382,-86.5 491,-86.5 491,-67.5 382,-67.5"/>
<text text-anchor="middle" x="436.5" y="-74.5" font-family="Helvetica,sans-Serif" font-size="10.00">../UI/CoinCounter.hpp</text>
</a>
</g>
</g>
<!-- Node19&#45;&gt;Node20 -->
<g id="edge22" class="edge">
<title>Node19&#45;&gt;Node20</title>
<path fill="none" stroke="midnightblue" d="M436.5,-123.08C436.5,-116.01 436.5,-105.86 436.5,-96.99"/>
<polygon fill="midnightblue" stroke="midnightblue" points="440,-96.75 436.5,-86.75 433,-96.75 440,-96.75"/>
</g>
<!-- Node21 -->
<g id="node21" class="node">
<title>Node21</title>
<g id="a_node21"><a xlink:title=" ">
<polygon fill="none" stroke="#bfbfbf" points="587,-0.5 587,-30.5 682,-30.5 682,-0.5 587,-0.5"/>
<text text-anchor="start" x="595" y="-18.5" font-family="Helvetica,sans-Serif" font-size="10.00">boost/serialization</text>
<text text-anchor="middle" x="634.5" y="-7.5" font-family="Helvetica,sans-Serif" font-size="10.00">/shared_ptr.hpp</text>
</a>
</g>
</g>
<!-- Node19&#45;&gt;Node21 -->
<g id="edge34" class="edge">
<title>Node19&#45;&gt;Node21</title>
<path fill="none" stroke="midnightblue" d="M451.38,-123.32C483.12,-104.8 558.1,-61.07 601.64,-35.67"/>
<polygon fill="midnightblue" stroke="midnightblue" points="603.55,-38.61 610.42,-30.55 600.02,-32.56 603.55,-38.61"/>
</g>
<!-- Node20&#45;&gt;Node11 -->
<g id="edge24" class="edge">
<title>Node20&#45;&gt;Node11</title>
<path fill="none" stroke="midnightblue" d="M491.23,-67.5C540.61,-59.56 615.43,-46.87 689.94,-31.02"/>
<polygon fill="midnightblue" stroke="midnightblue" points="690.93,-34.39 699.98,-28.87 689.46,-27.54 690.93,-34.39"/>
</g>
<!-- Node20&#45;&gt;Node12 -->
<g id="edge25" class="edge">
<title>Node20&#45;&gt;Node12</title>
<path fill="none" stroke="midnightblue" d="M491.24,-71.48C561.22,-65.21 686.23,-52.39 802.56,-31.02"/>
<polygon fill="midnightblue" stroke="midnightblue" points="803.51,-34.4 812.7,-29.13 802.23,-27.52 803.51,-34.4"/>
</g>
<!-- Node20&#45;&gt;Node16 -->
<g id="edge23" class="edge">
<title>Node20&#45;&gt;Node16</title>
<path fill="none" stroke="midnightblue" d="M381.69,-73.93C309.02,-70.13 177.28,-59.61 68.5,-31 66.05,-30.36 63.55,-29.58 61.06,-28.72"/>
<polygon fill="midnightblue" stroke="midnightblue" points="62.29,-25.44 51.7,-25.14 59.79,-31.98 62.29,-25.44"/>
</g>
<!-- Node20&#45;&gt;Node21 -->
<g id="edge26" class="edge">
<title>Node20&#45;&gt;Node21</title>
<path fill="none" stroke="midnightblue" d="M464.87,-67.48C494.32,-58.63 541.16,-44.55 578.17,-33.43"/>
<polygon fill="midnightblue" stroke="midnightblue" points="579.27,-36.75 587.84,-30.52 577.25,-30.05 579.27,-36.75"/>
</g>
<!-- Node22 -->
<g id="node22" class="node">
<title>Node22</title>
<g id="a_node22"><a xlink:title=" ">
<polygon fill="none" stroke="#bfbfbf" points="77.5,-0.5 77.5,-30.5 181.5,-30.5 181.5,-0.5 77.5,-0.5"/>
<text text-anchor="start" x="85.5" y="-18.5" font-family="Helvetica,sans-Serif" font-size="10.00">boost/archive/binary</text>
<text text-anchor="middle" x="129.5" y="-7.5" font-family="Helvetica,sans-Serif" font-size="10.00">_iarchive.hpp</text>
</a>
</g>
</g>
<!-- Node20&#45;&gt;Node22 -->
<g id="edge27" class="edge">
<title>Node20&#45;&gt;Node22</title>
<path fill="none" stroke="midnightblue" d="M385.46,-67.47C337.75,-59.31 264.28,-46.29 191.5,-31.15"/>
<polygon fill="midnightblue" stroke="midnightblue" points="192.21,-27.72 181.7,-29.1 190.77,-34.57 192.21,-27.72"/>
</g>
<!-- Node23 -->
<g id="node23" class="node">
<title>Node23</title>
<g id="a_node23"><a xlink:title=" ">
<polygon fill="none" stroke="#bfbfbf" points="199.5,-0.5 199.5,-30.5 303.5,-30.5 303.5,-0.5 199.5,-0.5"/>
<text text-anchor="start" x="207.5" y="-18.5" font-family="Helvetica,sans-Serif" font-size="10.00">boost/archive/binary</text>
<text text-anchor="middle" x="251.5" y="-7.5" font-family="Helvetica,sans-Serif" font-size="10.00">_oarchive.hpp</text>
</a>
</g>
</g>
<!-- Node20&#45;&gt;Node23 -->
<g id="edge28" class="edge">
<title>Node20&#45;&gt;Node23</title>
<path fill="none" stroke="midnightblue" d="M409.99,-67.48C382.71,-58.7 339.45,-44.79 305.02,-33.71"/>
<polygon fill="midnightblue" stroke="midnightblue" points="305.69,-30.25 295.1,-30.52 303.55,-36.92 305.69,-30.25"/>
</g>
<!-- Node24 -->
<g id="node24" class="node">
<title>Node24</title>
<g id="a_node24"><a xlink:title=" ">
<polygon fill="none" stroke="#bfbfbf" points="322,-6 322,-25 379,-25 379,-6 322,-6"/>
<text text-anchor="middle" x="350.5" y="-13" font-family="Helvetica,sans-Serif" font-size="10.00">Color.hpp</text>
</a>
</g>
</g>
<!-- Node20&#45;&gt;Node24 -->
<g id="edge29" class="edge">
<title>Node20&#45;&gt;Node24</title>
<path fill="none" stroke="midnightblue" d="M424.18,-67.48C410.38,-57.93 387.8,-42.31 371.27,-30.87"/>
<polygon fill="midnightblue" stroke="midnightblue" points="373.01,-27.82 362.8,-25.01 369.03,-33.58 373.01,-27.82"/>
</g>
<!-- Node25 -->
<g id="node25" class="node">
<title>Node25</title>
<g id="a_node25"><a xlink:title=" ">
<polygon fill="none" stroke="#bfbfbf" points="397,-6 397,-25 476,-25 476,-6 397,-6"/>
<text text-anchor="middle" x="436.5" y="-13" font-family="Helvetica,sans-Serif" font-size="10.00">Transform.hpp</text>
</a>
</g>
</g>
<!-- Node20&#45;&gt;Node25 -->
<g id="edge30" class="edge">
<title>Node20&#45;&gt;Node25</title>
<path fill="none" stroke="midnightblue" d="M436.5,-67.48C436.5,-59.08 436.5,-45.98 436.5,-35.16"/>
<polygon fill="midnightblue" stroke="midnightblue" points="440,-35.01 436.5,-25.01 433,-35.01 440,-35.01"/>
</g>
<!-- Node26 -->
<g id="node26" class="node">
<title>Node26</title>
<g id="a_node26"><a xlink:title=" ">
<polygon fill="none" stroke="#bfbfbf" points="494.5,-6 494.5,-25 568.5,-25 568.5,-6 494.5,-6"/>
<text text-anchor="middle" x="531.5" y="-13" font-family="Helvetica,sans-Serif" font-size="10.00">UIObject.hpp</text>
</a>
</g>
</g>
<!-- Node20&#45;&gt;Node26 -->
<g id="edge31" class="edge">
<title>Node20&#45;&gt;Node26</title>
<path fill="none" stroke="midnightblue" d="M450.11,-67.48C465.56,-57.8 490.99,-41.87 509.32,-30.39"/>
<polygon fill="midnightblue" stroke="midnightblue" points="511.3,-33.28 517.91,-25.01 507.58,-27.35 511.3,-33.28"/>
</g>
<!-- Node27&#45;&gt;Node8 -->
<g id="edge36" class="edge">
<title>Node27&#45;&gt;Node8</title>
<path fill="none" stroke="midnightblue" d="M618.3,-123.44C653.88,-114.16 710.81,-99.31 749.85,-89.13"/>
<polygon fill="midnightblue" stroke="midnightblue" points="751.06,-92.43 759.85,-86.52 749.29,-85.65 751.06,-92.43"/>
</g>
</g>
</svg>
        <g id="navigator" transform="translate(0 0)" fill="#404254">
                <rect fill="#f2f5e9" fill-opacity="0.5" stroke="#606060" stroke-width=".5" x="0" y="0" width="60" height="60"/>
                <use id="zoomplus" xlink:href="#zoomPlus" x="17" y="9" onmousedown="handleZoom(evt,'in')"/>
                <use id="zoomminus" xlink:href="#zoomMin" x="42" y="9" onmousedown="handleZoom(evt,'out')"/>
                <use id="reset" xlink:href="#resetDef" x="30" y="36" onmousedown="handleReset()"/>
                <g id="arrowUp" xlink:href="#dirArrow" transform="translate(30 24)" onmousedown="handlePan(0,-1)">
                  <use xlink:href="#rim" fill="#404040">
                        <set attributeName="fill" to="#808080" begin="arrowUp.mouseover" end="arrowUp.mouseout"/>
                  </use>
                  <path fill="none" stroke="white" stroke-width="1.5" d="M0,-3.0v7 M-2.5,-0.5L0,-3.0L2.5,-0.5"/>
                </g>
                <g id="arrowRight" xlink:href="#dirArrow" transform="rotate(90) translate(36 -43)" onmousedown="handlePan(1,0)">
                  <use xlink:href="#rim" fill="#404040">
                        <set attributeName="fill" to="#808080" begin="arrowRight.mouseover" end="arrowRight.mouseout"/>
                  </use>
                  <path fill="none" stroke="white" stroke-width="1.5" d="M0,-3.0v7 M-2.5,-0.5L0,-3.0L2.5,-0.5"/>
                </g>
                <g id="arrowDown" xlink:href="#dirArrow" transform="rotate(180) translate(-30 -48)" onmousedown="handlePan(0,1)">
                  <use xlink:href="#rim" fill="#404040">
                        <set attributeName="fill" to="#808080" begin="arrowDown.mouseover" end="arrowDown.mouseout"/>
                  </use>
                  <path fill="none" stroke="white" stroke-width="1.5" d="M0,-3.0v7 M-2.5,-0.5L0,-3.0L2.5,-0.5"/>
                </g>
                <g id="arrowLeft" xlink:href="#dirArrow" transform="rotate(270) translate(-36 17)" onmousedown="handlePan(-1,0)">
                  <use xlink:href="#rim" fill="#404040">
                        <set attributeName="fill" to="#808080" begin="arrowLeft.mouseover" end="arrowLeft.mouseout"/>
                  </use>
                  <path fill="none" stroke="white" stroke-width="1.5" d="M0,-3.0v7 M-2.5,-0.5L0,-3.0L2.5,-0.5"/>
                </g>
        </g>
        <svg viewBox="0 0 15 15" width="100%" height="30px" preserveAspectRatio="xMaxYMin meet">
         <g id="arrow_out" transform="scale(0.3 0.3)">
          <a xlink:href="NetworkingClient_8cpp__incl_org.svg" target="_base">
           <rect id="button" ry="5" rx="5" y="6" x="6" height="38" width="38"
                fill="#f2f5e9" fill-opacity="0.5" stroke="#606060" stroke-width="1.0"/>
           <path id="arrow"
             d="M 11.500037,31.436501 C 11.940474,20.09759 22.043105,11.32322 32.158766,21.979434 L 37.068811,17.246167 C 37.068811,17.246167 37.088388,32 37.088388,32 L 22.160133,31.978069 C 22.160133,31.978069 26.997745,27.140456 26.997745,27.140456 C 18.528582,18.264221 13.291696,25.230495 11.500037,31.436501 z"
             style="fill:#404040;"/>
          </a>
         </g>
        </svg>
</svg>
