<?xml version="1.0" encoding="UTF-8" standalone="no"?>
<!DOCTYPE svg PUBLIC "-//W3C//DTD SVG 1.1//EN"
 "http://www.w3.org/Graphics/SVG/1.1/DTD/svg11.dtd">
<!-- Generated by graphviz version 2.44.0 ()
 -->
<!-- Title: src/Networking/NetworkingClient.cpp Pages: 1 -->
<svg width="1348pt" height="229pt"
 viewBox="0.00 0.00 1348.00 229.00" xmlns="http://www.w3.org/2000/svg" xmlns:xlink="http://www.w3.org/1999/xlink">
<g id="graph0" class="graph" transform="scale(1 1) rotate(0) translate(4 225)">
<title>src/Networking/NetworkingClient.cpp</title>
<!-- Node1 -->
<g id="node1" class="node">
<title>Node1</title>
<g id="a_node1"><a xlink:title=" ">
<polygon fill="#bfbfbf" stroke="black" points="350,-190.5 350,-220.5 485,-220.5 485,-190.5 350,-190.5"/>
<text text-anchor="start" x="358" y="-208.5" font-family="Helvetica,sans-Serif" font-size="10.00">src/Networking/Networking</text>
<text text-anchor="middle" x="417.5" y="-197.5" font-family="Helvetica,sans-Serif" font-size="10.00">Client.cpp</text>
</a>
</g>
</g>
<!-- Node2 -->
<g id="node2" class="node">
<title>Node2</title>
<g id="a_node2"><a xlink:href="NetworkingClient_8hpp.html" target="_top" xlink:title=" ">
<polygon fill="none" stroke="black" points="30,-129 30,-148 139,-148 139,-129 30,-129"/>
<text text-anchor="middle" x="84.5" y="-136" font-family="Helvetica,sans-Serif" font-size="10.00">NetworkingClient.hpp</text>
</a>
</g>
</g>
<!-- Node1&#45;&gt;Node2 -->
<g id="edge1" class="edge">
<title>Node1&#45;&gt;Node2</title>
<path fill="none" stroke="midnightblue" d="M349.9,-192.16C296.08,-182.21 218.87,-167.68 151.5,-154 145.6,-152.8 139.41,-151.51 133.28,-150.21"/>
<polygon fill="midnightblue" stroke="midnightblue" points="133.59,-146.7 123.08,-148.03 132.13,-153.54 133.59,-146.7"/>
</g>
<!-- Node4 -->
<g id="node4" class="node">
<title>Node4</title>
<g id="a_node4"><a xlink:title=" ">
<polygon fill="none" stroke="#bfbfbf" points="161,-129 161,-148 322,-148 322,-129 161,-129"/>
<text text-anchor="middle" x="241.5" y="-136" font-family="Helvetica,sans-Serif" font-size="10.00">Behaviour/CollisionBehaviour.hpp</text>
</a>
</g>
</g>
<!-- Node1&#45;&gt;Node4 -->
<g id="edge3" class="edge">
<title>Node1&#45;&gt;Node4</title>
<path fill="none" stroke="midnightblue" d="M379.31,-190.4C347.88,-178.79 303.82,-162.51 274.04,-151.52"/>
<polygon fill="midnightblue" stroke="midnightblue" points="275.13,-148.19 264.53,-148.01 272.7,-154.75 275.13,-148.19"/>
</g>
<!-- Node5 -->
<g id="node5" class="node">
<title>Node5</title>
<g id="a_node5"><a xlink:title=" ">
<polygon fill="none" stroke="#bfbfbf" points="59,-62 59,-81 184,-81 184,-62 59,-62"/>
<text text-anchor="middle" x="121.5" y="-69" font-family="Helvetica,sans-Serif" font-size="10.00">Builder/SceneBuilder.hpp</text>
</a>
</g>
</g>
<!-- Node1&#45;&gt;Node5 -->
<g id="edge4" class="edge">
<title>Node1&#45;&gt;Node5</title>
<path fill="none" stroke="midnightblue" d="M404.05,-190.25C384.05,-169.36 347.07,-131.95 330.5,-123 316.55,-115.47 229.16,-95.71 171.88,-83.26"/>
<polygon fill="midnightblue" stroke="midnightblue" points="172.43,-79.8 161.92,-81.1 170.95,-86.64 172.43,-79.8"/>
</g>
<!-- Node6 -->
<g id="node6" class="node">
<title>Node6</title>
<g id="a_node6"><a xlink:title=" ">
<polygon fill="none" stroke="#bfbfbf" points="1202.5,-129 1202.5,-148 1298.5,-148 1298.5,-129 1202.5,-129"/>
<text text-anchor="middle" x="1250.5" y="-136" font-family="Helvetica,sans-Serif" font-size="10.00">Engine/Engine.hpp</text>
</a>
</g>
</g>
<!-- Node1&#45;&gt;Node6 -->
<g id="edge5" class="edge">
<title>Node1&#45;&gt;Node6</title>
<path fill="none" stroke="midnightblue" d="M485.17,-204.27C620.54,-202.89 933.98,-195.1 1193.5,-154 1199.31,-153.08 1205.4,-151.84 1211.34,-150.47"/>
<polygon fill="midnightblue" stroke="midnightblue" points="1212.25,-153.85 1221.13,-148.07 1210.59,-147.05 1212.25,-153.85"/>
</g>
<!-- Node7 -->
<g id="node7" class="node">
<title>Node7</title>
<g id="a_node7"><a xlink:href="DynamicAnimationBehaviour_8hpp.html" target="_top" xlink:title=" ">
<polygon fill="none" stroke="black" points="844,-123.5 844,-153.5 975,-153.5 975,-123.5 844,-123.5"/>
<text text-anchor="start" x="852" y="-141.5" font-family="Helvetica,sans-Serif" font-size="10.00">Scripts/DynamicAnimation</text>
<text text-anchor="middle" x="909.5" y="-130.5" font-family="Helvetica,sans-Serif" font-size="10.00">Behaviour.hpp</text>
</a>
</g>
</g>
<!-- Node1&#45;&gt;Node7 -->
<g id="edge6" class="edge">
<title>Node1&#45;&gt;Node7</title>
<path fill="none" stroke="midnightblue" d="M485.14,-195.56C576.37,-183.51 738.38,-162.11 833.65,-149.52"/>
<polygon fill="midnightblue" stroke="midnightblue" points="834.34,-152.96 843.8,-148.18 833.42,-146.02 834.34,-152.96"/>
</g>
<!-- Node10 -->
<g id="node10" class="node">
<title>Node10</title>
<g id="a_node10"><a xlink:href="PlayerInputBehaviour_8hpp.html" target="_top" xlink:title=" ">
<polygon fill="none" stroke="black" points="1023,-129 1023,-148 1184,-148 1184,-129 1023,-129"/>
<text text-anchor="middle" x="1103.5" y="-136" font-family="Helvetica,sans-Serif" font-size="10.00">Scripts/PlayerInputBehaviour.hpp</text>
</a>
</g>
</g>
<!-- Node1&#45;&gt;Node10 -->
<g id="edge9" class="edge">
<title>Node1&#45;&gt;Node10</title>
<path fill="none" stroke="midnightblue" d="M485.09,-199.16C591.29,-190.61 803.7,-172.88 983.5,-154 997.19,-152.56 1011.74,-150.91 1025.81,-149.25"/>
<polygon fill="midnightblue" stroke="midnightblue" points="1026.44,-152.7 1035.95,-148.04 1025.61,-145.75 1026.44,-152.7"/>
</g>
<!-- Node13 -->
<g id="node13" class="node">
<title>Node13</title>
<g id="a_node13"><a xlink:href="TileConfig_8hpp.html" target="_top" xlink:title=" ">
<polygon fill="none" stroke="black" points="379,-129 379,-148 456,-148 456,-129 379,-129"/>
<text text-anchor="middle" x="417.5" y="-136" font-family="Helvetica,sans-Serif" font-size="10.00">TileConfig.hpp</text>
</a>
</g>
</g>
<!-- Node1&#45;&gt;Node13 -->
<g id="edge13" class="edge">
<title>Node1&#45;&gt;Node13</title>
<path fill="none" stroke="midnightblue" d="M417.5,-190.4C417.5,-181.06 417.5,-168.71 417.5,-158.52"/>
<polygon fill="midnightblue" stroke="midnightblue" points="421,-158.19 417.5,-148.19 414,-158.19 421,-158.19"/>
</g>
<!-- Node3 -->
<g id="node3" class="node">
<title>Node3</title>
<g id="a_node3"><a xlink:title=" ">
<polygon fill="none" stroke="#bfbfbf" points="0,-62 0,-81 41,-81 41,-62 0,-62"/>
<text text-anchor="middle" x="20.5" y="-69" font-family="Helvetica,sans-Serif" font-size="10.00">string</text>
</a>
</g>
</g>
<!-- Node2&#45;&gt;Node3 -->
<g id="edge2" class="edge">
<title>Node2&#45;&gt;Node3</title>
<path fill="none" stroke="midnightblue" d="M75.87,-128.73C65.7,-118.4 48.6,-101.04 36.09,-88.33"/>
<polygon fill="midnightblue" stroke="midnightblue" points="38.5,-85.8 28.99,-81.13 33.52,-90.71 38.5,-85.8"/>
</g>
<!-- Node8 -->
<g id="node8" class="node">
<title>Node8</title>
<g id="a_node8"><a xlink:title=" ">
<polygon fill="none" stroke="#bfbfbf" points="857.5,-0.5 857.5,-19.5 961.5,-19.5 961.5,-0.5 857.5,-0.5"/>
<text text-anchor="middle" x="909.5" y="-7.5" font-family="Helvetica,sans-Serif" font-size="10.00">BehaviourScript.hpp</text>
</a>
</g>
</g>
<!-- Node7&#45;&gt;Node8 -->
<g id="edge7" class="edge">
<title>Node7&#45;&gt;Node8</title>
<path fill="none" stroke="midnightblue" d="M909.5,-123.48C909.5,-100.72 909.5,-55.7 909.5,-30.06"/>
<polygon fill="midnightblue" stroke="midnightblue" points="913,-29.79 909.5,-19.79 906,-29.79 913,-29.79"/>
</g>
<!-- Node9 -->
<g id="node9" class="node">
<title>Node9</title>
<g id="a_node9"><a xlink:title=" ">
<polygon fill="none" stroke="#bfbfbf" points="938,-62 938,-81 1075,-81 1075,-62 938,-62"/>
<text text-anchor="middle" x="1006.5" y="-69" font-family="Helvetica,sans-Serif" font-size="10.00">Texture/AnimatedSprite.hpp</text>
</a>
</g>
</g>
<!-- Node7&#45;&gt;Node9 -->
<g id="edge8" class="edge">
<title>Node7&#45;&gt;Node9</title>
<path fill="none" stroke="midnightblue" d="M930.55,-123.4C946.81,-112.5 969.22,-97.48 985.48,-86.58"/>
<polygon fill="midnightblue" stroke="midnightblue" points="987.45,-89.48 993.8,-81.01 983.55,-83.67 987.45,-89.48"/>
</g>
<!-- Node10&#45;&gt;Node8 -->
<g id="edge10" class="edge">
<title>Node10&#45;&gt;Node8</title>
<path fill="none" stroke="midnightblue" d="M1104.05,-128.76C1104.59,-112.17 1103.26,-76.01 1083.5,-56 1067.79,-40.09 1015.12,-27.89 971.81,-20.23"/>
<polygon fill="midnightblue" stroke="midnightblue" points="972.33,-16.77 961.88,-18.52 971.14,-23.67 972.33,-16.77"/>
</g>
<!-- Node11 -->
<g id="node11" class="node">
<title>Node11</title>
<g id="a_node11"><a xlink:title=" ">
<polygon fill="none" stroke="#bfbfbf" points="1132,-56.5 1132,-86.5 1227,-86.5 1227,-56.5 1132,-56.5"/>
<text text-anchor="start" x="1140" y="-74.5" font-family="Helvetica,sans-Serif" font-size="10.00">boost/serialization</text>
<text text-anchor="middle" x="1179.5" y="-63.5" font-family="Helvetica,sans-Serif" font-size="10.00">/access.hpp</text>
</a>
</g>
</g>
<!-- Node10&#45;&gt;Node11 -->
<g id="edge11" class="edge">
<title>Node10&#45;&gt;Node11</title>
<path fill="none" stroke="midnightblue" d="M1113.75,-128.73C1124.32,-119.7 1141.18,-105.27 1155.18,-93.3"/>
<polygon fill="midnightblue" stroke="midnightblue" points="1157.7,-95.75 1163.03,-86.59 1153.15,-90.43 1157.7,-95.75"/>
</g>
<!-- Node12 -->
<g id="node12" class="node">
<title>Node12</title>
<g id="a_node12"><a xlink:title=" ">
<polygon fill="none" stroke="#bfbfbf" points="1245,-56.5 1245,-86.5 1340,-86.5 1340,-56.5 1245,-56.5"/>
<text text-anchor="start" x="1253" y="-74.5" font-family="Helvetica,sans-Serif" font-size="10.00">boost/serialization</text>
<text text-anchor="middle" x="1292.5" y="-63.5" font-family="Helvetica,sans-Serif" font-size="10.00">/export.hpp</text>
</a>
</g>
</g>
<!-- Node10&#45;&gt;Node12 -->
<g id="edge12" class="edge">
<title>Node10&#45;&gt;Node12</title>
<path fill="none" stroke="midnightblue" d="M1128.6,-128.87C1157.45,-118.95 1205.54,-102.41 1242.18,-89.81"/>
<polygon fill="midnightblue" stroke="midnightblue" points="1243.39,-93.09 1251.71,-86.53 1241.12,-86.47 1243.39,-93.09"/>
</g>
<!-- Node13&#45;&gt;Node5 -->
<g id="edge18" class="edge">
<title>Node13&#45;&gt;Node5</title>
<path fill="none" stroke="midnightblue" d="M387.59,-128.97C380.08,-126.92 372.01,-124.81 364.5,-123 346.16,-118.59 239.19,-96.58 173.44,-83.11"/>
<polygon fill="midnightblue" stroke="midnightblue" points="173.76,-79.61 163.26,-81.03 172.35,-86.46 173.76,-79.61"/>
</g>
<!-- Node14 -->
<g id="node14" class="node">
<title>Node14</title>
<g id="a_node14"><a xlink:title=" ">
<polygon fill="none" stroke="#bfbfbf" points="202,-62 202,-81 261,-81 261,-62 202,-62"/>
<text text-anchor="middle" x="231.5" y="-69" font-family="Helvetica,sans-Serif" font-size="10.00">functional</text>
</a>
</g>
</g>
<!-- Node13&#45;&gt;Node14 -->
<g id="edge14" class="edge">
<title>Node13&#45;&gt;Node14</title>
<path fill="none" stroke="midnightblue" d="M391.47,-128.93C361.83,-119.1 312.01,-102.36 269.5,-87 267.4,-86.24 265.23,-85.45 263.05,-84.64"/>
<polygon fill="midnightblue" stroke="midnightblue" points="264.15,-81.31 253.55,-81.07 261.68,-87.86 264.15,-81.31"/>
</g>
<!-- Node15 -->
<g id="node15" class="node">
<title>Node15</title>
<g id="a_node15"><a xlink:title=" ">
<polygon fill="none" stroke="#bfbfbf" points="279,-62 279,-81 314,-81 314,-62 279,-62"/>
<text text-anchor="middle" x="296.5" y="-69" font-family="Helvetica,sans-Serif" font-size="10.00">map</text>
</a>
</g>
</g>
<!-- Node13&#45;&gt;Node15 -->
<g id="edge15" class="edge">
<title>Node13&#45;&gt;Node15</title>
<path fill="none" stroke="midnightblue" d="M400.97,-128.84C381.98,-118.86 349.89,-101.92 322.5,-87 321.96,-86.71 321.42,-86.41 320.87,-86.11"/>
<polygon fill="midnightblue" stroke="midnightblue" points="322.32,-82.91 311.87,-81.14 318.93,-89.04 322.32,-82.91"/>
</g>
<!-- Node16 -->
<g id="node16" class="node">
<title>Node16</title>
<g id="a_node16"><a xlink:title=" ">
<polygon fill="none" stroke="#bfbfbf" points="332,-62 332,-81 383,-81 383,-62 332,-62"/>
<text text-anchor="middle" x="357.5" y="-69" font-family="Helvetica,sans-Serif" font-size="10.00">memory</text>
</a>
</g>
</g>
<!-- Node13&#45;&gt;Node16 -->
<g id="edge16" class="edge">
<title>Node13&#45;&gt;Node16</title>
<path fill="none" stroke="midnightblue" d="M409.41,-128.73C399.96,-118.5 384.14,-101.36 372.45,-88.69"/>
<polygon fill="midnightblue" stroke="midnightblue" points="374.82,-86.1 365.46,-81.13 369.67,-90.85 374.82,-86.1"/>
</g>
<!-- Node17 -->
<g id="node17" class="node">
<title>Node17</title>
<g id="a_node17"><a xlink:title=" ">
<polygon fill="none" stroke="#bfbfbf" points="401.5,-62 401.5,-81 553.5,-81 553.5,-62 401.5,-62"/>
<text text-anchor="middle" x="477.5" y="-69" font-family="Helvetica,sans-Serif" font-size="10.00">Builder/GameObjectBuilder.hpp</text>
</a>
</g>
</g>
<!-- Node13&#45;&gt;Node17 -->
<g id="edge17" class="edge">
<title>Node13&#45;&gt;Node17</title>
<path fill="none" stroke="midnightblue" d="M425.59,-128.73C435.04,-118.5 450.86,-101.36 462.55,-88.69"/>
<polygon fill="midnightblue" stroke="midnightblue" points="465.33,-90.85 469.54,-81.13 460.18,-86.1 465.33,-90.85"/>
</g>
<!-- Node18 -->
<g id="node18" class="node">
<title>Node18</title>
<g id="a_node18"><a xlink:title=" ">
<polygon fill="none" stroke="#bfbfbf" points="571.5,-62 571.5,-81 731.5,-81 731.5,-62 571.5,-62"/>
<text text-anchor="middle" x="651.5" y="-69" font-family="Helvetica,sans-Serif" font-size="10.00">Director/GameObjectDirector.hpp</text>
</a>
</g>
</g>
<!-- Node13&#45;&gt;Node18 -->
<g id="edge19" class="edge">
<title>Node13&#45;&gt;Node18</title>
<path fill="none" stroke="midnightblue" d="M448.57,-128.87C490.39,-117.25 564.83,-96.58 610.99,-83.75"/>
<polygon fill="midnightblue" stroke="midnightblue" points="611.97,-87.11 620.67,-81.06 610.1,-80.37 611.97,-87.11"/>
</g>
<!-- Node19 -->
<g id="node19" class="node">
<title>Node19</title>
<g id="a_node19"><a xlink:href="FlagBehaviour_8hpp.html" target="_top" xlink:title=" ">
<polygon fill="none" stroke="black" points="750,-62 750,-81 881,-81 881,-62 750,-62"/>
<text text-anchor="middle" x="815.5" y="-69" font-family="Helvetica,sans-Serif" font-size="10.00">Scripts/FlagBehaviour.hpp</text>
</a>
</g>
</g>
<!-- Node13&#45;&gt;Node19 -->
<g id="edge20" class="edge">
<title>Node13&#45;&gt;Node19</title>
<path fill="none" stroke="midnightblue" d="M456.36,-131.89C517.09,-123 638.18,-104.88 740.5,-87 747.69,-85.74 755.24,-84.36 762.69,-82.96"/>
<polygon fill="midnightblue" stroke="midnightblue" points="763.55,-86.36 772.71,-81.05 762.24,-79.48 763.55,-86.36"/>
</g>
<!-- Node19&#45;&gt;Node8 -->
<g id="edge21" class="edge">
<title>Node19&#45;&gt;Node8</title>
<path fill="none" stroke="midnightblue" d="M828.97,-61.98C844.18,-52.34 869.19,-36.52 887.3,-25.05"/>
<polygon fill="midnightblue" stroke="midnightblue" points="889.48,-27.81 896.06,-19.51 885.74,-21.9 889.48,-27.81"/>
</g>
</g>
</svg>
