<?xml version="1.0" encoding="UTF-8" standalone="no"?>
<!DOCTYPE svg PUBLIC "-//W3C//DTD SVG 1.1//EN"
 "http://www.w3.org/Graphics/SVG/1.1/DTD/svg11.dtd">
<!-- Generated by graphviz version 2.44.0 ()
 -->
<!-- Title: src/Networking/NetworkingClient.cpp Pages: 1 -->
<svg width="1397pt" height="352pt"
 viewBox="0.00 0.00 1396.50 352.00" xmlns="http://www.w3.org/2000/svg" xmlns:xlink="http://www.w3.org/1999/xlink">
<g id="graph0" class="graph" transform="scale(1 1) rotate(0) translate(4 348)">
<title>src/Networking/NetworkingClient.cpp</title>
<!-- Node1 -->
<g id="node1" class="node">
<title>Node1</title>
<g id="a_node1"><a xlink:title=" ">
<polygon fill="#bfbfbf" stroke="black" points="587,-313.5 587,-343.5 722,-343.5 722,-313.5 587,-313.5"/>
<text text-anchor="start" x="595" y="-331.5" font-family="Helvetica,sans-Serif" font-size="10.00">src/Networking/Networking</text>
<text text-anchor="middle" x="654.5" y="-320.5" font-family="Helvetica,sans-Serif" font-size="10.00">Client.cpp</text>
</a>
</g>
</g>
<!-- Node2 -->
<g id="node2" class="node">
<title>Node2</title>
<g id="a_node2"><a xlink:href="NetworkingClient_8hpp.html" target="_top" xlink:title=" ">
<polygon fill="none" stroke="black" points="1047,-257.5 1047,-276.5 1156,-276.5 1156,-257.5 1047,-257.5"/>
<text text-anchor="middle" x="1101.5" y="-264.5" font-family="Helvetica,sans-Serif" font-size="10.00">NetworkingClient.hpp</text>
</a>
</g>
</g>
<!-- Node1&#45;&gt;Node2 -->
<g id="edge1" class="edge">
<title>Node1&#45;&gt;Node2</title>
<path fill="none" stroke="midnightblue" d="M722.39,-318.46C807.61,-307.12 952.76,-287.8 1036.57,-276.64"/>
<polygon fill="midnightblue" stroke="midnightblue" points="1037.28,-280.08 1046.73,-275.29 1036.35,-273.14 1037.28,-280.08"/>
</g>
<!-- Node4 -->
<g id="node4" class="node">
<title>Node4</title>
<g id="a_node4"><a xlink:title=" ">
<polygon fill="none" stroke="#bfbfbf" points="427,-201.5 427,-220.5 588,-220.5 588,-201.5 427,-201.5"/>
<text text-anchor="middle" x="507.5" y="-208.5" font-family="Helvetica,sans-Serif" font-size="10.00">Behaviour/CollisionBehaviour.hpp</text>
</a>
</g>
</g>
<!-- Node1&#45;&gt;Node4 -->
<g id="edge3" class="edge">
<title>Node1&#45;&gt;Node4</title>
<path fill="none" stroke="midnightblue" d="M636.47,-313.34C608.54,-291.39 555.06,-249.37 526.53,-226.95"/>
<polygon fill="midnightblue" stroke="midnightblue" points="528.56,-224.1 518.53,-220.67 524.23,-229.6 528.56,-224.1"/>
</g>
<!-- Node5 -->
<g id="node5" class="node">
<title>Node5</title>
<g id="a_node5"><a xlink:title=" ">
<polygon fill="none" stroke="#bfbfbf" points="0,-140 0,-159 125,-159 125,-140 0,-140"/>
<text text-anchor="middle" x="62.5" y="-147" font-family="Helvetica,sans-Serif" font-size="10.00">Builder/SceneBuilder.hpp</text>
</a>
</g>
</g>
<!-- Node1&#45;&gt;Node5 -->
<g id="edge4" class="edge">
<title>Node1&#45;&gt;Node5</title>
<path fill="none" stroke="midnightblue" d="M606.28,-313.44C571.79,-303.36 524.26,-289.42 482.5,-277 341.33,-235.02 173.75,-184.27 100.23,-161.96"/>
<polygon fill="midnightblue" stroke="midnightblue" points="101.08,-158.56 90.5,-159.01 99.05,-165.26 101.08,-158.56"/>
</g>
<!-- Node6 -->
<g id="node6" class="node">
<title>Node6</title>
<g id="a_node6"><a xlink:title=" ">
<polygon fill="none" stroke="#bfbfbf" points="606.5,-201.5 606.5,-220.5 702.5,-220.5 702.5,-201.5 606.5,-201.5"/>
<text text-anchor="middle" x="654.5" y="-208.5" font-family="Helvetica,sans-Serif" font-size="10.00">Engine/Engine.hpp</text>
</a>
</g>
</g>
<!-- Node1&#45;&gt;Node6 -->
<g id="edge5" class="edge">
<title>Node1&#45;&gt;Node6</title>
<path fill="none" stroke="midnightblue" d="M654.5,-313.34C654.5,-292.62 654.5,-254.02 654.5,-230.9"/>
<polygon fill="midnightblue" stroke="midnightblue" points="658,-230.67 654.5,-220.67 651,-230.67 658,-230.67"/>
</g>
<!-- Node7 -->
<g id="node7" class="node">
<title>Node7</title>
<g id="a_node7"><a xlink:href="TileConfig_8hpp.html" target="_top" xlink:title=" ">
<polygon fill="none" stroke="black" points="332,-201.5 332,-220.5 409,-220.5 409,-201.5 332,-201.5"/>
<text text-anchor="middle" x="370.5" y="-208.5" font-family="Helvetica,sans-Serif" font-size="10.00">TileConfig.hpp</text>
</a>
</g>
</g>
<!-- Node1&#45;&gt;Node7 -->
<g id="edge6" class="edge">
<title>Node1&#45;&gt;Node7</title>
<path fill="none" stroke="midnightblue" d="M619.96,-313.45C563.99,-290.69 454.39,-246.12 401.08,-224.44"/>
<polygon fill="midnightblue" stroke="midnightblue" points="402.09,-221.07 391.5,-220.54 399.45,-227.55 402.09,-221.07"/>
</g>
<!-- Node26 -->
<g id="node26" class="node">
<title>Node26</title>
<g id="a_node26"><a xlink:href="MarioBehaviour_8hpp.html" target="_top" xlink:title=" ">
<polygon fill="none" stroke="black" points="1242.5,-201.5 1242.5,-220.5 1378.5,-220.5 1378.5,-201.5 1242.5,-201.5"/>
<text text-anchor="middle" x="1310.5" y="-208.5" font-family="Helvetica,sans-Serif" font-size="10.00">Scripts/MarioBehaviour.hpp</text>
</a>
</g>
</g>
<!-- Node1&#45;&gt;Node26 -->
<g id="edge33" class="edge">
<title>Node1&#45;&gt;Node26</title>
<path fill="none" stroke="midnightblue" d="M722.28,-327.69C821.32,-326.43 1010.64,-318.19 1165.5,-277 1210.34,-265.07 1258.84,-240.77 1286.84,-225.49"/>
<polygon fill="midnightblue" stroke="midnightblue" points="1288.8,-228.41 1295.85,-220.5 1285.41,-222.28 1288.8,-228.41"/>
</g>
<!-- Node31 -->
<g id="node31" class="node">
<title>Node31</title>
<g id="a_node31"><a xlink:href="Level_8hpp.html" target="_top" xlink:title=" ">
<polygon fill="none" stroke="black" points="795.5,-257.5 795.5,-276.5 915.5,-276.5 915.5,-257.5 795.5,-257.5"/>
<text text-anchor="middle" x="855.5" y="-264.5" font-family="Helvetica,sans-Serif" font-size="10.00">Game/Levels/Level.hpp</text>
</a>
</g>
</g>
<!-- Node1&#45;&gt;Node31 -->
<g id="edge43" class="edge">
<title>Node1&#45;&gt;Node31</title>
<path fill="none" stroke="midnightblue" d="M701.88,-313.47C737.01,-303.08 784.29,-289.08 817.08,-279.37"/>
<polygon fill="midnightblue" stroke="midnightblue" points="818.17,-282.7 826.76,-276.51 816.18,-275.99 818.17,-282.7"/>
</g>
<!-- Node3 -->
<g id="node3" class="node">
<title>Node3</title>
<g id="a_node3"><a xlink:title=" ">
<polygon fill="none" stroke="#bfbfbf" points="1143,-140 1143,-159 1184,-159 1184,-140 1143,-140"/>
<text text-anchor="middle" x="1163.5" y="-147" font-family="Helvetica,sans-Serif" font-size="10.00">string</text>
</a>
</g>
</g>
<!-- Node2&#45;&gt;Node3 -->
<g id="edge2" class="edge">
<title>Node2&#45;&gt;Node3</title>
<path fill="none" stroke="midnightblue" d="M1141.65,-257.43C1161.47,-250.95 1183.64,-239.83 1195.5,-221 1206.62,-203.34 1192.49,-181.17 1179.64,-166.46"/>
<polygon fill="midnightblue" stroke="midnightblue" points="1182.18,-164.05 1172.8,-159.13 1177.06,-168.83 1182.18,-164.05"/>
</g>
<!-- Node7&#45;&gt;Node5 -->
<g id="edge11" class="edge">
<title>Node7&#45;&gt;Node5</title>
<path fill="none" stroke="midnightblue" d="M331.8,-202.52C277.4,-192.01 178.06,-172.82 116.43,-160.92"/>
<polygon fill="midnightblue" stroke="midnightblue" points="116.98,-157.46 106.5,-159 115.66,-164.33 116.98,-157.46"/>
</g>
<!-- Node8 -->
<g id="node8" class="node">
<title>Node8</title>
<g id="a_node8"><a xlink:title=" ">
<polygon fill="none" stroke="#bfbfbf" points="517,-140 517,-159 576,-159 576,-140 517,-140"/>
<text text-anchor="middle" x="546.5" y="-147" font-family="Helvetica,sans-Serif" font-size="10.00">functional</text>
</a>
</g>
</g>
<!-- Node7&#45;&gt;Node8 -->
<g id="edge7" class="edge">
<title>Node7&#45;&gt;Node8</title>
<path fill="none" stroke="midnightblue" d="M398.13,-201.43C426.08,-192.66 470.49,-178.44 508.5,-165 510.61,-164.25 512.78,-163.47 514.96,-162.67"/>
<polygon fill="midnightblue" stroke="midnightblue" points="516.32,-165.9 524.46,-159.12 513.87,-159.34 516.32,-165.9"/>
</g>
<!-- Node9 -->
<g id="node9" class="node">
<title>Node9</title>
<g id="a_node9"><a xlink:title=" ">
<polygon fill="none" stroke="#bfbfbf" points="594,-140 594,-159 629,-159 629,-140 594,-140"/>
<text text-anchor="middle" x="611.5" y="-147" font-family="Helvetica,sans-Serif" font-size="10.00">map</text>
</a>
</g>
</g>
<!-- Node7&#45;&gt;Node9 -->
<g id="edge8" class="edge">
<title>Node7&#45;&gt;Node9</title>
<path fill="none" stroke="midnightblue" d="M409.46,-202.51C466.88,-191.37 569.2,-171.09 585.5,-165 586.54,-164.61 587.59,-164.19 588.64,-163.73"/>
<polygon fill="midnightblue" stroke="midnightblue" points="590.46,-166.73 597.84,-159.13 587.33,-160.47 590.46,-166.73"/>
</g>
<!-- Node10 -->
<g id="node10" class="node">
<title>Node10</title>
<g id="a_node10"><a xlink:title=" ">
<polygon fill="none" stroke="#bfbfbf" points="221,-6 221,-25 272,-25 272,-6 221,-6"/>
<text text-anchor="middle" x="246.5" y="-13" font-family="Helvetica,sans-Serif" font-size="10.00">memory</text>
</a>
</g>
</g>
<!-- Node7&#45;&gt;Node10 -->
<g id="edge9" class="edge">
<title>Node7&#45;&gt;Node10</title>
<path fill="none" stroke="midnightblue" d="M331.94,-205.38C286.37,-199.03 214.67,-185.95 198.5,-165 167.14,-124.38 208.46,-62.58 232.08,-33.17"/>
<polygon fill="midnightblue" stroke="midnightblue" points="235.05,-35.08 238.74,-25.15 229.66,-30.61 235.05,-35.08"/>
</g>
<!-- Node11 -->
<g id="node11" class="node">
<title>Node11</title>
<g id="a_node11"><a xlink:title=" ">
<polygon fill="none" stroke="#bfbfbf" points="647.5,-140 647.5,-159 799.5,-159 799.5,-140 647.5,-140"/>
<text text-anchor="middle" x="723.5" y="-147" font-family="Helvetica,sans-Serif" font-size="10.00">Builder/GameObjectBuilder.hpp</text>
</a>
</g>
</g>
<!-- Node7&#45;&gt;Node11 -->
<g id="edge10" class="edge">
<title>Node7&#45;&gt;Node11</title>
<path fill="none" stroke="midnightblue" d="M409.21,-202.5C412.02,-201.98 414.8,-201.48 417.5,-201 515.49,-183.64 540.34,-181.37 638.5,-165 646.58,-163.65 655.1,-162.22 663.49,-160.8"/>
<polygon fill="midnightblue" stroke="midnightblue" points="664.35,-164.2 673.62,-159.07 663.18,-157.3 664.35,-164.2"/>
</g>
<!-- Node12 -->
<g id="node12" class="node">
<title>Node12</title>
<g id="a_node12"><a xlink:title=" ">
<polygon fill="none" stroke="#bfbfbf" points="967.5,-140 967.5,-159 1125.5,-159 1125.5,-140 967.5,-140"/>
<text text-anchor="middle" x="1046.5" y="-147" font-family="Helvetica,sans-Serif" font-size="10.00">Director/GameObjectFactory.hpp</text>
</a>
</g>
</g>
<!-- Node7&#45;&gt;Node12 -->
<g id="edge12" class="edge">
<title>Node7&#45;&gt;Node12</title>
<path fill="none" stroke="midnightblue" d="M409.17,-202.21C411.98,-201.76 414.78,-201.35 417.5,-201 656.51,-170.28 719.11,-192.62 958.5,-165 968.76,-163.82 979.64,-162.27 990.13,-160.62"/>
<polygon fill="midnightblue" stroke="midnightblue" points="990.72,-164.07 1000.03,-159.02 989.6,-157.16 990.72,-164.07"/>
</g>
<!-- Node13 -->
<g id="node13" class="node">
<title>Node13</title>
<g id="a_node13"><a xlink:href="CoinBehaviour_8hpp.html" target="_top" xlink:title=" ">
<polygon fill="none" stroke="black" points="818,-140 818,-159 949,-159 949,-140 818,-140"/>
<text text-anchor="middle" x="883.5" y="-147" font-family="Helvetica,sans-Serif" font-size="10.00">Scripts/CoinBehaviour.hpp</text>
</a>
</g>
</g>
<!-- Node7&#45;&gt;Node13 -->
<g id="edge13" class="edge">
<title>Node7&#45;&gt;Node13</title>
<path fill="none" stroke="midnightblue" d="M409.18,-202.28C411.99,-201.82 414.79,-201.38 417.5,-201 590.29,-176.56 635.73,-189.59 808.5,-165 816.53,-163.86 825,-162.43 833.24,-160.93"/>
<polygon fill="midnightblue" stroke="midnightblue" points="833.96,-164.35 843.14,-159.06 832.67,-157.47 833.96,-164.35"/>
</g>
<!-- Node15 -->
<g id="node15" class="node">
<title>Node15</title>
<g id="a_node15"><a xlink:href="CoinCounter_8hpp.html" target="_top" xlink:title=" ">
<polygon fill="none" stroke="black" points="560,-73 560,-92 669,-92 669,-73 560,-73"/>
<text text-anchor="middle" x="614.5" y="-80" font-family="Helvetica,sans-Serif" font-size="10.00">../UI/CoinCounter.hpp</text>
</a>
</g>
</g>
<!-- Node7&#45;&gt;Node15 -->
<g id="edge32" class="edge">
<title>Node7&#45;&gt;Node15</title>
<path fill="none" stroke="midnightblue" d="M331.72,-205.55C273.17,-197.35 172.85,-176.65 210.5,-134 232.54,-109.04 440.99,-93.46 549.51,-86.98"/>
<polygon fill="midnightblue" stroke="midnightblue" points="549.92,-90.46 559.69,-86.38 549.5,-83.48 549.92,-90.46"/>
</g>
<!-- Node24 -->
<g id="node24" class="node">
<title>Node24</title>
<g id="a_node24"><a xlink:href="FlagBehaviour_8hpp.html" target="_top" xlink:title=" ">
<polygon fill="none" stroke="black" points="368,-140 368,-159 499,-159 499,-140 368,-140"/>
<text text-anchor="middle" x="433.5" y="-147" font-family="Helvetica,sans-Serif" font-size="10.00">Scripts/FlagBehaviour.hpp</text>
</a>
</g>
</g>
<!-- Node7&#45;&gt;Node24 -->
<g id="edge28" class="edge">
<title>Node7&#45;&gt;Node24</title>
<path fill="none" stroke="midnightblue" d="M379.53,-201.48C389.26,-192.28 404.96,-177.46 416.92,-166.16"/>
<polygon fill="midnightblue" stroke="midnightblue" points="419.62,-168.42 424.49,-159.01 414.82,-163.33 419.62,-168.42"/>
</g>
<!-- Node25 -->
<g id="node25" class="node">
<title>Node25</title>
<g id="a_node25"><a xlink:href="StarBehaviour_8hpp.html" target="_top" xlink:title=" ">
<polygon fill="none" stroke="black" points="219.5,-140 219.5,-159 349.5,-159 349.5,-140 219.5,-140"/>
<text text-anchor="middle" x="284.5" y="-147" font-family="Helvetica,sans-Serif" font-size="10.00">Scripts/StarBehaviour.hpp</text>
</a>
</g>
</g>
<!-- Node7&#45;&gt;Node25 -->
<g id="edge30" class="edge">
<title>Node7&#45;&gt;Node25</title>
<path fill="none" stroke="midnightblue" d="M358.18,-201.48C344.38,-191.93 321.8,-176.31 305.27,-164.87"/>
<polygon fill="midnightblue" stroke="midnightblue" points="307.01,-161.82 296.8,-159.01 303.03,-167.58 307.01,-161.82"/>
</g>
<!-- Node14 -->
<g id="node14" class="node">
<title>Node14</title>
<g id="a_node14"><a xlink:title=" ">
<polygon fill="none" stroke="#bfbfbf" points="719.5,-73 719.5,-92 823.5,-92 823.5,-73 719.5,-73"/>
<text text-anchor="middle" x="771.5" y="-80" font-family="Helvetica,sans-Serif" font-size="10.00">BehaviourScript.hpp</text>
</a>
</g>
</g>
<!-- Node13&#45;&gt;Node14 -->
<g id="edge14" class="edge">
<title>Node13&#45;&gt;Node14</title>
<path fill="none" stroke="midnightblue" d="M868.4,-139.73C849.59,-128.82 817.25,-110.05 795.14,-97.22"/>
<polygon fill="midnightblue" stroke="midnightblue" points="796.77,-94.12 786.37,-92.13 793.26,-100.17 796.77,-94.12"/>
</g>
<!-- Node13&#45;&gt;Node15 -->
<g id="edge15" class="edge">
<title>Node13&#45;&gt;Node15</title>
<path fill="none" stroke="midnightblue" d="M848.06,-139.94C799.67,-128.24 712.91,-107.28 659.84,-94.46"/>
<polygon fill="midnightblue" stroke="midnightblue" points="660.56,-91.03 650.02,-92.08 658.92,-97.83 660.56,-91.03"/>
</g>
<!-- Node16 -->
<g id="node16" class="node">
<title>Node16</title>
<g id="a_node16"><a xlink:title=" ">
<polygon fill="none" stroke="#bfbfbf" points="1033,-0.5 1033,-30.5 1128,-30.5 1128,-0.5 1033,-0.5"/>
<text text-anchor="start" x="1041" y="-18.5" font-family="Helvetica,sans-Serif" font-size="10.00">boost/serialization</text>
<text text-anchor="middle" x="1080.5" y="-7.5" font-family="Helvetica,sans-Serif" font-size="10.00">/access.hpp</text>
</a>
</g>
</g>
<!-- Node13&#45;&gt;Node16 -->
<g id="edge25" class="edge">
<title>Node13&#45;&gt;Node16</title>
<path fill="none" stroke="midnightblue" d="M896.43,-139.84C927.58,-118.97 1007.44,-65.45 1051.03,-36.24"/>
<polygon fill="midnightblue" stroke="midnightblue" points="1053.14,-39.05 1059.5,-30.57 1049.24,-33.23 1053.14,-39.05"/>
</g>
<!-- Node17 -->
<g id="node17" class="node">
<title>Node17</title>
<g id="a_node17"><a xlink:title=" ">
<polygon fill="none" stroke="#bfbfbf" points="807,-0.5 807,-30.5 902,-30.5 902,-0.5 807,-0.5"/>
<text text-anchor="start" x="815" y="-18.5" font-family="Helvetica,sans-Serif" font-size="10.00">boost/serialization</text>
<text text-anchor="middle" x="854.5" y="-7.5" font-family="Helvetica,sans-Serif" font-size="10.00">/export.hpp</text>
</a>
</g>
</g>
<!-- Node13&#45;&gt;Node17 -->
<g id="edge26" class="edge">
<title>Node13&#45;&gt;Node17</title>
<path fill="none" stroke="midnightblue" d="M881.6,-139.84C877.24,-120.02 866.42,-70.77 859.85,-40.84"/>
<polygon fill="midnightblue" stroke="midnightblue" points="863.2,-39.8 857.64,-30.78 856.37,-41.3 863.2,-39.8"/>
</g>
<!-- Node18 -->
<g id="node18" class="node">
<title>Node18</title>
<g id="a_node18"><a xlink:title=" ">
<polygon fill="none" stroke="#bfbfbf" points="920,-0.5 920,-30.5 1015,-30.5 1015,-0.5 920,-0.5"/>
<text text-anchor="start" x="928" y="-18.5" font-family="Helvetica,sans-Serif" font-size="10.00">boost/serialization</text>
<text text-anchor="middle" x="967.5" y="-7.5" font-family="Helvetica,sans-Serif" font-size="10.00">/shared_ptr.hpp</text>
</a>
</g>
</g>
<!-- Node13&#45;&gt;Node18 -->
<g id="edge27" class="edge">
<title>Node13&#45;&gt;Node18</title>
<path fill="none" stroke="midnightblue" d="M889.01,-139.84C901.85,-119.67 934.07,-69.03 953,-39.29"/>
<polygon fill="midnightblue" stroke="midnightblue" points="955.99,-41.1 958.41,-30.78 950.09,-37.34 955.99,-41.1"/>
</g>
<!-- Node15&#45;&gt;Node10 -->
<g id="edge16" class="edge">
<title>Node15&#45;&gt;Node10</title>
<path fill="none" stroke="midnightblue" d="M559.98,-76.07C494.76,-68.88 382.58,-54.33 288.5,-31 285.28,-30.2 281.96,-29.26 278.66,-28.25"/>
<polygon fill="midnightblue" stroke="midnightblue" points="279.54,-24.86 268.95,-25.08 277.36,-31.51 279.54,-24.86"/>
</g>
<!-- Node15&#45;&gt;Node16 -->
<g id="edge17" class="edge">
<title>Node15&#45;&gt;Node16</title>
<path fill="none" stroke="midnightblue" d="M668.52,-72.99C682.21,-70.94 696.88,-68.81 710.5,-67 846.48,-48.94 884.62,-56.3 1022.82,-31.16"/>
<polygon fill="midnightblue" stroke="midnightblue" points="1023.74,-34.55 1032.94,-29.29 1022.47,-27.67 1023.74,-34.55"/>
</g>
<!-- Node15&#45;&gt;Node17 -->
<g id="edge18" class="edge">
<title>Node15&#45;&gt;Node17</title>
<path fill="none" stroke="midnightblue" d="M646.37,-72.87C684.7,-62.49 749.77,-44.86 796.97,-32.08"/>
<polygon fill="midnightblue" stroke="midnightblue" points="798.01,-35.42 806.75,-29.43 796.18,-28.67 798.01,-35.42"/>
</g>
<!-- Node15&#45;&gt;Node18 -->
<g id="edge19" class="edge">
<title>Node15&#45;&gt;Node18</title>
<path fill="none" stroke="midnightblue" d="M668.04,-72.96C736.42,-61.96 852,-43.03 910.09,-31.17"/>
<polygon fill="midnightblue" stroke="midnightblue" points="910.84,-34.59 919.91,-29.12 909.4,-27.74 910.84,-34.59"/>
</g>
<!-- Node19 -->
<g id="node19" class="node">
<title>Node19</title>
<g id="a_node19"><a xlink:title=" ">
<polygon fill="none" stroke="#bfbfbf" points="562.5,-0.5 562.5,-30.5 666.5,-30.5 666.5,-0.5 562.5,-0.5"/>
<text text-anchor="start" x="570.5" y="-18.5" font-family="Helvetica,sans-Serif" font-size="10.00">boost/archive/binary</text>
<text text-anchor="middle" x="614.5" y="-7.5" font-family="Helvetica,sans-Serif" font-size="10.00">_iarchive.hpp</text>
</a>
</g>
</g>
<!-- Node15&#45;&gt;Node19 -->
<g id="edge20" class="edge">
<title>Node15&#45;&gt;Node19</title>
<path fill="none" stroke="midnightblue" d="M614.5,-72.73C614.5,-64.54 614.5,-51.92 614.5,-40.71"/>
<polygon fill="midnightblue" stroke="midnightblue" points="618,-40.59 614.5,-30.59 611,-40.59 618,-40.59"/>
</g>
<!-- Node20 -->
<g id="node20" class="node">
<title>Node20</title>
<g id="a_node20"><a xlink:title=" ">
<polygon fill="none" stroke="#bfbfbf" points="684.5,-0.5 684.5,-30.5 788.5,-30.5 788.5,-0.5 684.5,-0.5"/>
<text text-anchor="start" x="692.5" y="-18.5" font-family="Helvetica,sans-Serif" font-size="10.00">boost/archive/binary</text>
<text text-anchor="middle" x="736.5" y="-7.5" font-family="Helvetica,sans-Serif" font-size="10.00">_oarchive.hpp</text>
</a>
</g>
</g>
<!-- Node15&#45;&gt;Node20 -->
<g id="edge21" class="edge">
<title>Node15&#45;&gt;Node20</title>
<path fill="none" stroke="midnightblue" d="M630.7,-72.87C648.55,-63.36 677.82,-47.77 701.05,-35.39"/>
<polygon fill="midnightblue" stroke="midnightblue" points="702.76,-38.44 709.94,-30.65 699.47,-32.26 702.76,-38.44"/>
</g>
<!-- Node21 -->
<g id="node21" class="node">
<title>Node21</title>
<g id="a_node21"><a xlink:title=" ">
<polygon fill="none" stroke="#bfbfbf" points="298,-6 298,-25 355,-25 355,-6 298,-6"/>
<text text-anchor="middle" x="326.5" y="-13" font-family="Helvetica,sans-Serif" font-size="10.00">Color.hpp</text>
</a>
</g>
</g>
<!-- Node15&#45;&gt;Node21 -->
<g id="edge22" class="edge">
<title>Node15&#45;&gt;Node21</title>
<path fill="none" stroke="midnightblue" d="M559.98,-73.36C508.68,-65.04 430.02,-50.56 363.5,-31 361.07,-30.28 358.57,-29.48 356.08,-28.62"/>
<polygon fill="midnightblue" stroke="midnightblue" points="357.23,-25.31 346.63,-25.13 354.8,-31.87 357.23,-25.31"/>
</g>
<!-- Node22 -->
<g id="node22" class="node">
<title>Node22</title>
<g id="a_node22"><a xlink:title=" ">
<polygon fill="none" stroke="#bfbfbf" points="373,-6 373,-25 452,-25 452,-6 373,-6"/>
<text text-anchor="middle" x="412.5" y="-13" font-family="Helvetica,sans-Serif" font-size="10.00">Transform.hpp</text>
</a>
</g>
</g>
<!-- Node15&#45;&gt;Node22 -->
<g id="edge23" class="edge">
<title>Node15&#45;&gt;Node22</title>
<path fill="none" stroke="midnightblue" d="M587.68,-72.87C551.96,-61.38 488.66,-41.01 448.73,-28.16"/>
<polygon fill="midnightblue" stroke="midnightblue" points="449.7,-24.8 439.11,-25.06 447.56,-31.46 449.7,-24.8"/>
</g>
<!-- Node23 -->
<g id="node23" class="node">
<title>Node23</title>
<g id="a_node23"><a xlink:title=" ">
<polygon fill="none" stroke="#bfbfbf" points="470.5,-6 470.5,-25 544.5,-25 544.5,-6 470.5,-6"/>
<text text-anchor="middle" x="507.5" y="-13" font-family="Helvetica,sans-Serif" font-size="10.00">UIObject.hpp</text>
</a>
</g>
</g>
<!-- Node15&#45;&gt;Node23 -->
<g id="edge24" class="edge">
<title>Node15&#45;&gt;Node23</title>
<path fill="none" stroke="midnightblue" d="M600.07,-72.73C582.18,-61.87 551.48,-43.22 530.37,-30.39"/>
<polygon fill="midnightblue" stroke="midnightblue" points="532.07,-27.33 521.7,-25.13 528.43,-33.31 532.07,-27.33"/>
</g>
<!-- Node24&#45;&gt;Node14 -->
<g id="edge29" class="edge">
<title>Node24&#45;&gt;Node14</title>
<path fill="none" stroke="midnightblue" d="M477.52,-139.98C487.69,-138.01 498.47,-135.93 508.5,-134 580.56,-120.12 663.73,-104.16 716.92,-93.96"/>
<polygon fill="midnightblue" stroke="midnightblue" points="717.66,-97.38 726.82,-92.06 716.34,-90.51 717.66,-97.38"/>
</g>
<!-- Node25&#45;&gt;Node14 -->
<g id="edge31" class="edge">
<title>Node25&#45;&gt;Node14</title>
<path fill="none" stroke="midnightblue" d="M325.11,-139.93C335.93,-137.81 347.63,-135.67 358.5,-134 499.95,-112.22 536.65,-117.03 678.5,-98 688.46,-96.66 699,-95.13 709.27,-93.58"/>
<polygon fill="midnightblue" stroke="midnightblue" points="710.07,-97 719.42,-92.02 709,-90.08 710.07,-97"/>
</g>
<!-- Node26&#45;&gt;Node14 -->
<g id="edge34" class="edge">
<title>Node26&#45;&gt;Node14</title>
<path fill="none" stroke="midnightblue" d="M1290.98,-201.34C1273.39,-193.13 1247.19,-179.87 1226.5,-165 1210.16,-153.26 1211.74,-142.51 1193.5,-134 1131.12,-104.89 935.48,-91.39 833.98,-86.2"/>
<polygon fill="midnightblue" stroke="midnightblue" points="834.03,-82.7 823.87,-85.7 833.68,-89.69 834.03,-82.7"/>
</g>
<!-- Node27 -->
<g id="node27" class="node">
<title>Node27</title>
<g id="a_node27"><a xlink:href="MarioState_8hpp.html" target="_top" xlink:title=" ">
<polygon fill="none" stroke="black" points="1123,-67.5 1123,-97.5 1226,-97.5 1226,-67.5 1123,-67.5"/>
<text text-anchor="start" x="1131" y="-85.5" font-family="Helvetica,sans-Serif" font-size="10.00">Scripts/MarioStates</text>
<text text-anchor="middle" x="1174.5" y="-74.5" font-family="Helvetica,sans-Serif" font-size="10.00">/MarioState.hpp</text>
</a>
</g>
</g>
<!-- Node26&#45;&gt;Node27 -->
<g id="edge35" class="edge">
<title>Node26&#45;&gt;Node27</title>
<path fill="none" stroke="midnightblue" d="M1301.15,-201.31C1280,-181.63 1227.94,-133.21 1197.56,-104.95"/>
<polygon fill="midnightblue" stroke="midnightblue" points="1199.67,-102.14 1189.97,-97.89 1194.91,-107.26 1199.67,-102.14"/>
</g>
<!-- Node30 -->
<g id="node30" class="node">
<title>Node30</title>
<g id="a_node30"><a xlink:href="SmallMarioState_8hpp.html" target="_top" xlink:title=" ">
<polygon fill="none" stroke="black" points="1278.5,-134.5 1278.5,-164.5 1388.5,-164.5 1388.5,-134.5 1278.5,-134.5"/>
<text text-anchor="start" x="1286.5" y="-152.5" font-family="Helvetica,sans-Serif" font-size="10.00">Scripts/MarioStates</text>
<text text-anchor="middle" x="1333.5" y="-141.5" font-family="Helvetica,sans-Serif" font-size="10.00">/SmallMarioState.hpp</text>
</a>
</g>
</g>
<!-- Node26&#45;&gt;Node30 -->
<g id="edge41" class="edge">
<title>Node26&#45;&gt;Node30</title>
<path fill="none" stroke="midnightblue" d="M1313.8,-201.48C1316.56,-194.32 1320.65,-183.75 1324.38,-174.08"/>
<polygon fill="midnightblue" stroke="midnightblue" points="1327.74,-175.11 1328.08,-164.52 1321.21,-172.59 1327.74,-175.11"/>
</g>
<!-- Node27&#45;&gt;Node16 -->
<g id="edge36" class="edge">
<title>Node27&#45;&gt;Node16</title>
<path fill="none" stroke="midnightblue" d="M1154.1,-67.4C1141.05,-58.37 1123.9,-46.51 1109.45,-36.52"/>
<polygon fill="midnightblue" stroke="midnightblue" points="1111.07,-33.39 1100.86,-30.58 1107.09,-39.14 1111.07,-33.39"/>
</g>
<!-- Node27&#45;&gt;Node17 -->
<g id="edge37" class="edge">
<title>Node27&#45;&gt;Node17</title>
<path fill="none" stroke="midnightblue" d="M1122.91,-72.53C1071.93,-63.45 991.49,-48.58 912.2,-31.08"/>
<polygon fill="midnightblue" stroke="midnightblue" points="912.56,-27.57 902.04,-28.82 911.04,-34.4 912.56,-27.57"/>
</g>
<!-- Node27&#45;&gt;Node18 -->
<g id="edge38" class="edge">
<title>Node27&#45;&gt;Node18</title>
<path fill="none" stroke="midnightblue" d="M1129.84,-67.48C1098.25,-57.56 1055.72,-44.2 1022.11,-33.65"/>
<polygon fill="midnightblue" stroke="midnightblue" points="1023.03,-30.27 1012.44,-30.61 1020.93,-36.95 1023.03,-30.27"/>
</g>
<!-- Node28 -->
<g id="node28" class="node">
<title>Node28</title>
<g id="a_node28"><a xlink:title=" ">
<polygon fill="none" stroke="#bfbfbf" points="1221,-6 1221,-25 1358,-25 1358,-6 1221,-6"/>
<text text-anchor="middle" x="1289.5" y="-13" font-family="Helvetica,sans-Serif" font-size="10.00">Texture/AnimatedSprite.hpp</text>
</a>
</g>
</g>
<!-- Node27&#45;&gt;Node28 -->
<g id="edge39" class="edge">
<title>Node27&#45;&gt;Node28</title>
<path fill="none" stroke="midnightblue" d="M1199.45,-67.4C1219.1,-56.29 1246.29,-40.92 1265.65,-29.98"/>
<polygon fill="midnightblue" stroke="midnightblue" points="1267.47,-32.97 1274.45,-25.01 1264.02,-26.88 1267.47,-32.97"/>
</g>
<!-- Node29 -->
<g id="node29" class="node">
<title>Node29</title>
<g id="a_node29"><a xlink:title=" ">
<polygon fill="none" stroke="#bfbfbf" points="1146,-6 1146,-25 1203,-25 1203,-6 1146,-6"/>
<text text-anchor="middle" x="1174.5" y="-13" font-family="Helvetica,sans-Serif" font-size="10.00">Point.hpp</text>
</a>
</g>
</g>
<!-- Node27&#45;&gt;Node29 -->
<g id="edge40" class="edge">
<title>Node27&#45;&gt;Node29</title>
<path fill="none" stroke="midnightblue" d="M1174.5,-67.4C1174.5,-58.06 1174.5,-45.71 1174.5,-35.52"/>
<polygon fill="midnightblue" stroke="midnightblue" points="1178,-35.19 1174.5,-25.19 1171,-35.19 1178,-35.19"/>
</g>
<!-- Node30&#45;&gt;Node27 -->
<g id="edge42" class="edge">
<title>Node30&#45;&gt;Node27</title>
<path fill="none" stroke="midnightblue" d="M1299,-134.4C1275.35,-124.73 1243.78,-111.82 1218.35,-101.43"/>
<polygon fill="midnightblue" stroke="midnightblue" points="1219.51,-98.12 1208.93,-97.58 1216.87,-104.6 1219.51,-98.12"/>
</g>
<!-- Node31&#45;&gt;Node4 -->
<g id="edge52" class="edge">
<title>Node31&#45;&gt;Node4</title>
<path fill="none" stroke="midnightblue" d="M800.36,-257.44C738.51,-247.85 638.27,-232.29 572.61,-222.1"/>
<polygon fill="midnightblue" stroke="midnightblue" points="572.8,-218.59 562.38,-220.52 571.73,-225.51 572.8,-218.59"/>
</g>
<!-- Node31&#45;&gt;Node6 -->
<g id="edge47" class="edge">
<title>Node31&#45;&gt;Node6</title>
<path fill="none" stroke="midnightblue" d="M823.65,-257.44C789.1,-248.16 733.82,-233.31 695.92,-223.13"/>
<polygon fill="midnightblue" stroke="midnightblue" points="696.77,-219.73 686.2,-220.52 694.95,-226.49 696.77,-219.73"/>
</g>
<!-- Node31&#45;&gt;Node12 -->
<g id="edge51" class="edge">
<title>Node31&#45;&gt;Node12</title>
<path fill="none" stroke="midnightblue" d="M915.87,-264.89C952.74,-261.02 998.26,-250.03 1027.5,-221 1041.11,-207.49 1045.27,-185.33 1046.4,-169.46"/>
<polygon fill="midnightblue" stroke="midnightblue" points="1049.9,-169.35 1046.77,-159.23 1042.91,-169.09 1049.9,-169.35"/>
</g>
<!-- Node31&#45;&gt;Node26 -->
<g id="edge50" class="edge">
<title>Node31&#45;&gt;Node26</title>
<path fill="none" stroke="midnightblue" d="M915.92,-258.83C997.39,-249.16 1142.56,-231.93 1232.28,-221.28"/>
<polygon fill="midnightblue" stroke="midnightblue" points="1232.88,-224.74 1242.4,-220.08 1232.06,-217.79 1232.88,-224.74"/>
</g>
<!-- Node32 -->
<g id="node32" class="node">
<title>Node32</title>
<g id="a_node32"><a xlink:title=" ">
<polygon fill="none" stroke="#bfbfbf" points="720.5,-201.5 720.5,-220.5 782.5,-220.5 782.5,-201.5 720.5,-201.5"/>
<text text-anchor="middle" x="751.5" y="-208.5" font-family="Helvetica,sans-Serif" font-size="10.00">Scene.hpp</text>
</a>
</g>
</g>
<!-- Node31&#45;&gt;Node32 -->
<g id="edge44" class="edge">
<title>Node31&#45;&gt;Node32</title>
<path fill="none" stroke="midnightblue" d="M838.79,-257.32C822.19,-248.7 796.5,-235.36 777.28,-225.39"/>
<polygon fill="midnightblue" stroke="midnightblue" points="778.66,-222.16 768.17,-220.65 775.43,-228.37 778.66,-222.16"/>
</g>
<!-- Node33 -->
<g id="node33" class="node">
<title>Node33</title>
<g id="a_node33"><a xlink:href="Sprites_8hpp.html" target="_top" xlink:title=" ">
<polygon fill="none" stroke="black" points="1075,-201.5 1075,-220.5 1186,-220.5 1186,-201.5 1075,-201.5"/>
<text text-anchor="middle" x="1130.5" y="-208.5" font-family="Helvetica,sans-Serif" font-size="10.00">constants/Sprites.hpp</text>
</a>
</g>
</g>
<!-- Node31&#45;&gt;Node33 -->
<g id="edge45" class="edge">
<title>Node31&#45;&gt;Node33</title>
<path fill="none" stroke="midnightblue" d="M899.07,-257.44C947.35,-247.96 1025.21,-232.67 1077.11,-222.48"/>
<polygon fill="midnightblue" stroke="midnightblue" points="1077.99,-225.88 1087.13,-220.52 1076.64,-219.01 1077.99,-225.88"/>
</g>
<!-- Node34 -->
<g id="node34" class="node">
<title>Node34</title>
<g id="a_node34"><a xlink:title=" ">
<polygon fill="none" stroke="#bfbfbf" points="801,-201.5 801,-220.5 910,-220.5 910,-201.5 801,-201.5"/>
<text text-anchor="middle" x="855.5" y="-208.5" font-family="Helvetica,sans-Serif" font-size="10.00">Utility/InputEnum.hpp</text>
</a>
</g>
</g>
<!-- Node31&#45;&gt;Node34 -->
<g id="edge48" class="edge">
<title>Node31&#45;&gt;Node34</title>
<path fill="none" stroke="midnightblue" d="M855.5,-257.08C855.5,-250.01 855.5,-239.86 855.5,-230.99"/>
<polygon fill="midnightblue" stroke="midnightblue" points="859,-230.75 855.5,-220.75 852,-230.75 859,-230.75"/>
</g>
<!-- Node35 -->
<g id="node35" class="node">
<title>Node35</title>
<g id="a_node35"><a xlink:title=" ">
<polygon fill="none" stroke="#bfbfbf" points="928.5,-201.5 928.5,-220.5 1018.5,-220.5 1018.5,-201.5 928.5,-201.5"/>
<text text-anchor="middle" x="973.5" y="-208.5" font-family="Helvetica,sans-Serif" font-size="10.00">AudioSource.hpp</text>
</a>
</g>
</g>
<!-- Node31&#45;&gt;Node35 -->
<g id="edge49" class="edge">
<title>Node31&#45;&gt;Node35</title>
<path fill="none" stroke="midnightblue" d="M874.2,-257.44C893.44,-248.64 923.65,-234.81 945.7,-224.72"/>
<polygon fill="midnightblue" stroke="midnightblue" points="947.25,-227.86 954.89,-220.52 944.34,-221.5 947.25,-227.86"/>
</g>
<!-- Node33&#45;&gt;Node3 -->
<g id="edge46" class="edge">
<title>Node33&#45;&gt;Node3</title>
<path fill="none" stroke="midnightblue" d="M1135.23,-201.48C1140.08,-192.73 1147.77,-178.87 1153.9,-167.81"/>
<polygon fill="midnightblue" stroke="midnightblue" points="1156.99,-169.45 1158.78,-159.01 1150.87,-166.06 1156.99,-169.45"/>
</g>
</g>
</svg>
