<?xml version="1.0" encoding="UTF-8" standalone="no"?>
<!DOCTYPE svg PUBLIC "-//W3C//DTD SVG 1.1//EN"
 "http://www.w3.org/Graphics/SVG/1.1/DTD/svg11.dtd">
<!-- Generated by graphviz version 2.44.0 ()
 -->
<!-- Title: src/Networking/NetworkingClient.cpp Pages: 1 -->
<!--zoomable 296 -->
<svg id="main" version="1.1" xmlns="http://www.w3.org/2000/svg" xmlns:xlink="http://www.w3.org/1999/xlink" xml:space="preserve" onload="init(evt)">
<style type="text/css"><![CDATA[
.edge:hover path { stroke: red; }
.edge:hover polygon { stroke: red; fill: red; }
]]></style>
<script type="text/javascript"><![CDATA[
var edges = document.getElementsByTagName('g');
if (edges && edges.length) {
  for (var i=0;i<edges.length;i++) {
    if (edges[i].id.substr(0,4)=='edge') {
      edges[i].setAttribute('class','edge');
    }
  }
}
]]></script>
        <defs>
                <circle id="rim" cx="0" cy="0" r="7"/>
                <circle id="rim2" cx="0" cy="0" r="3.5"/>
                <g id="zoomPlus">
                        <use xlink:href="#rim" fill="#404040">
                                <set attributeName="fill" to="#808080" begin="zoomplus.mouseover" end="zoomplus.mouseout"/>
                        </use>
                        <path d="M-4,0h8M0,-4v8" fill="none" stroke="white" stroke-width="1.5" pointer-events="none"/>
                </g>
                <g id="zoomMin">
                        <use xlink:href="#rim" fill="#404040">
                                <set attributeName="fill" to="#808080" begin="zoomminus.mouseover" end="zoomminus.mouseout"/>
                        </use>
                        <path d="M-4,0h8" fill="none" stroke="white" stroke-width="1.5" pointer-events="none"/>
                </g>
                <g id="dirArrow">
                        <path fill="none" stroke="white" stroke-width="1.5" d="M0,-3.0v7 M-2.5,-0.5L0,-3.0L2.5,-0.5"/>
                </g>
               <g id="resetDef">
                       <use xlink:href="#rim2" fill="#404040">
                               <set attributeName="fill" to="#808080" begin="reset.mouseover" end="reset.mouseout"/>
                       </use>
               </g>
        </defs>

<script type="text/javascript">
var viewWidth = 1403;
var viewHeight = 296;
var sectionId = 'dynsection-0';
</script>
<script xlink:href="svgpan.js"/>
<svg id="graph" class="graph">
<g id="viewport">
<title>src/Networking/NetworkingClient.cpp</title>
<!-- Node1 -->
<g id="node1" class="node">
<title>Node1</title>
<g id="a_node1"><a xlink:title=" ">
<polygon fill="#bfbfbf" stroke="black" points="298,-257.5 298,-287.5 433,-287.5 433,-257.5 298,-257.5"/>
<text text-anchor="start" x="306" y="-275.5" font-family="Helvetica,sans-Serif" font-size="10.00">src/Networking/Networking</text>
<text text-anchor="middle" x="365.5" y="-264.5" font-family="Helvetica,sans-Serif" font-size="10.00">Client.cpp</text>
</a>
</g>
</g>
<!-- Node2 -->
<g id="node2" class="node">
<title>Node2</title>
<g id="a_node2"><a xlink:href="NetworkingClient_8hpp.html" target="_top" xlink:title=" ">
<polygon fill="none" stroke="black" points="0,-201.5 0,-220.5 109,-220.5 109,-201.5 0,-201.5"/>
<text text-anchor="middle" x="54.5" y="-208.5" font-family="Helvetica,sans-Serif" font-size="10.00">NetworkingClient.hpp</text>
</a>
</g>
</g>
<!-- Node1&#45;&gt;Node2 -->
<g id="edge1" class="edge">
<title>Node1&#45;&gt;Node2</title>
<path fill="none" stroke="midnightblue" d="M297.63,-258.52C241.17,-247.71 161.81,-232.53 109.31,-222.49"/>
<polygon fill="midnightblue" stroke="midnightblue" points="109.67,-218.99 99.19,-220.55 108.35,-225.87 109.67,-218.99"/>
</g>
<!-- Node4 -->
<g id="node4" class="node">
<title>Node4</title>
<g id="a_node4"><a xlink:title=" ">
<polygon fill="none" stroke="#bfbfbf" points="138,-201.5 138,-220.5 299,-220.5 299,-201.5 138,-201.5"/>
<text text-anchor="middle" x="218.5" y="-208.5" font-family="Helvetica,sans-Serif" font-size="10.00">Behaviour/CollisionBehaviour.hpp</text>
</a>
</g>
</g>
<!-- Node1&#45;&gt;Node4 -->
<g id="edge3" class="edge">
<title>Node1&#45;&gt;Node4</title>
<path fill="none" stroke="midnightblue" d="M330.66,-257.4C306,-247.42 273.21,-234.15 249.47,-224.53"/>
<polygon fill="midnightblue" stroke="midnightblue" points="250.47,-221.17 239.89,-220.66 247.85,-227.65 250.47,-221.17"/>
</g>
<!-- Node5 -->
<g id="node5" class="node">
<title>Node5</title>
<g id="a_node5"><a xlink:title=" ">
<polygon fill="none" stroke="#bfbfbf" points="87,-140 87,-159 212,-159 212,-140 87,-140"/>
<text text-anchor="middle" x="149.5" y="-147" font-family="Helvetica,sans-Serif" font-size="10.00">Builder/SceneBuilder.hpp</text>
</a>
</g>
</g>
<!-- Node1&#45;&gt;Node5 -->
<g id="edge4" class="edge">
<title>Node1&#45;&gt;Node5</title>
<path fill="none" stroke="midnightblue" d="M357.29,-257.25C347.41,-241.33 329.41,-215.85 307.5,-201 288.77,-188.3 233.48,-172.16 193.58,-161.59"/>
<polygon fill="midnightblue" stroke="midnightblue" points="194.36,-158.17 183.8,-159.03 192.59,-164.95 194.36,-158.17"/>
</g>
<!-- Node6 -->
<g id="node6" class="node">
<title>Node6</title>
<g id="a_node6"><a xlink:title=" ">
<polygon fill="none" stroke="#bfbfbf" points="355.5,-201.5 355.5,-220.5 451.5,-220.5 451.5,-201.5 355.5,-201.5"/>
<text text-anchor="middle" x="403.5" y="-208.5" font-family="Helvetica,sans-Serif" font-size="10.00">Engine/Engine.hpp</text>
</a>
</g>
</g>
<!-- Node1&#45;&gt;Node6 -->
<g id="edge5" class="edge">
<title>Node1&#45;&gt;Node6</title>
<path fill="none" stroke="midnightblue" d="M374.51,-257.4C379.91,-248.93 386.83,-238.1 392.55,-229.14"/>
<polygon fill="midnightblue" stroke="midnightblue" points="395.54,-230.97 397.97,-220.66 389.64,-227.2 395.54,-230.97"/>
</g>
<!-- Node7 -->
<g id="node7" class="node">
<title>Node7</title>
<g id="a_node7"><a xlink:href="TileConfig_8hpp.html" target="_top" xlink:title=" ">
<polygon fill="none" stroke="black" points="476,-201.5 476,-220.5 553,-220.5 553,-201.5 476,-201.5"/>
<text text-anchor="middle" x="514.5" y="-208.5" font-family="Helvetica,sans-Serif" font-size="10.00">TileConfig.hpp</text>
</a>
</g>
</g>
<!-- Node1&#45;&gt;Node7 -->
<g id="edge6" class="edge">
<title>Node1&#45;&gt;Node7</title>
<path fill="none" stroke="midnightblue" d="M400.81,-257.4C425.92,-247.37 459.34,-234.03 483.44,-224.4"/>
<polygon fill="midnightblue" stroke="midnightblue" points="484.83,-227.62 492.82,-220.66 482.23,-221.12 484.83,-227.62"/>
</g>
<!-- Node26 -->
<g id="node26" class="node">
<title>Node26</title>
<g id="a_node26"><a xlink:href="MarioBehaviour_8hpp.html" target="_top" xlink:title=" ">
<polygon fill="none" stroke="black" points="1214.5,-201.5 1214.5,-220.5 1350.5,-220.5 1350.5,-201.5 1214.5,-201.5"/>
<text text-anchor="middle" x="1282.5" y="-208.5" font-family="Helvetica,sans-Serif" font-size="10.00">Scripts/MarioBehaviour.hpp</text>
</a>
</g>
</g>
<!-- Node1&#45;&gt;Node26 -->
<g id="edge33" class="edge">
<title>Node1&#45;&gt;Node26</title>
<path fill="none" stroke="midnightblue" d="M433.3,-267.1C599.74,-256.3 1027.74,-228.53 1204.42,-217.07"/>
<polygon fill="midnightblue" stroke="midnightblue" points="1204.67,-220.56 1214.42,-216.42 1204.22,-213.57 1204.67,-220.56"/>
</g>
<!-- Node3 -->
<g id="node3" class="node">
<title>Node3</title>
<g id="a_node3"><a xlink:title=" ">
<polygon fill="none" stroke="#bfbfbf" points="28,-140 28,-159 69,-159 69,-140 28,-140"/>
<text text-anchor="middle" x="48.5" y="-147" font-family="Helvetica,sans-Serif" font-size="10.00">string</text>
</a>
</g>
</g>
<!-- Node2&#45;&gt;Node3 -->
<g id="edge2" class="edge">
<title>Node2&#45;&gt;Node3</title>
<path fill="none" stroke="midnightblue" d="M53.64,-201.48C52.79,-193.08 51.47,-179.98 50.38,-169.16"/>
<polygon fill="midnightblue" stroke="midnightblue" points="53.84,-168.61 49.36,-159.01 46.88,-169.31 53.84,-168.61"/>
</g>
<!-- Node7&#45;&gt;Node5 -->
<g id="edge11" class="edge">
<title>Node7&#45;&gt;Node5</title>
<path fill="none" stroke="midnightblue" d="M475.87,-203.49C470.7,-202.64 465.48,-201.79 460.5,-201 354.41,-184.17 327.3,-183.61 221.5,-165 214.67,-163.8 207.48,-162.45 200.41,-161.08"/>
<polygon fill="midnightblue" stroke="midnightblue" points="200.67,-157.56 190.18,-159.06 199.31,-164.43 200.67,-157.56"/>
</g>
<!-- Node8 -->
<g id="node8" class="node">
<title>Node8</title>
<g id="a_node8"><a xlink:title=" ">
<polygon fill="none" stroke="#bfbfbf" points="485,-140 485,-159 544,-159 544,-140 485,-140"/>
<text text-anchor="middle" x="514.5" y="-147" font-family="Helvetica,sans-Serif" font-size="10.00">functional</text>
</a>
</g>
</g>
<!-- Node7&#45;&gt;Node8 -->
<g id="edge7" class="edge">
<title>Node7&#45;&gt;Node8</title>
<path fill="none" stroke="midnightblue" d="M514.5,-201.48C514.5,-193.08 514.5,-179.98 514.5,-169.16"/>
<polygon fill="midnightblue" stroke="midnightblue" points="518,-169.01 514.5,-159.01 511,-169.01 518,-169.01"/>
</g>
<!-- Node9 -->
<g id="node9" class="node">
<title>Node9</title>
<g id="a_node9"><a xlink:title=" ">
<polygon fill="none" stroke="#bfbfbf" points="711,-140 711,-159 746,-159 746,-140 711,-140"/>
<text text-anchor="middle" x="728.5" y="-147" font-family="Helvetica,sans-Serif" font-size="10.00">map</text>
</a>
</g>
</g>
<!-- Node7&#45;&gt;Node9 -->
<g id="edge8" class="edge">
<title>Node7&#45;&gt;Node9</title>
<path fill="none" stroke="midnightblue" d="M553.33,-203.67C591.77,-196.7 651.89,-183.93 701.5,-165 702.7,-164.54 703.92,-164.04 705.14,-163.51"/>
<polygon fill="midnightblue" stroke="midnightblue" points="706.82,-166.58 714.25,-159.03 703.73,-160.3 706.82,-166.58"/>
</g>
<!-- Node10 -->
<g id="node10" class="node">
<title>Node10</title>
<g id="a_node10"><a xlink:title=" ">
<polygon fill="none" stroke="#bfbfbf" points="90,-6 90,-25 141,-25 141,-6 90,-6"/>
<text text-anchor="middle" x="115.5" y="-13" font-family="Helvetica,sans-Serif" font-size="10.00">memory</text>
</a>
</g>
</g>
<!-- Node7&#45;&gt;Node10 -->
<g id="edge9" class="edge">
<title>Node7&#45;&gt;Node10</title>
<path fill="none" stroke="midnightblue" d="M503.2,-201.46C483.1,-186.51 439.46,-155.18 399.5,-134 293.32,-77.72 260.33,-77.46 149.5,-31 148.09,-30.41 146.66,-29.81 145.21,-29.19"/>
<polygon fill="midnightblue" stroke="midnightblue" points="146.19,-25.81 135.62,-25.13 143.46,-32.25 146.19,-25.81"/>
</g>
<!-- Node11 -->
<g id="node11" class="node">
<title>Node11</title>
<g id="a_node11"><a xlink:title=" ">
<polygon fill="none" stroke="#bfbfbf" points="1061.5,-140 1061.5,-159 1213.5,-159 1213.5,-140 1061.5,-140"/>
<text text-anchor="middle" x="1137.5" y="-147" font-family="Helvetica,sans-Serif" font-size="10.00">Builder/GameObjectBuilder.hpp</text>
</a>
</g>
</g>
<!-- Node7&#45;&gt;Node11 -->
<g id="edge10" class="edge">
<title>Node7&#45;&gt;Node11</title>
<path fill="none" stroke="midnightblue" d="M553.11,-207.91C641.65,-202.86 866.07,-188.65 1052.5,-165 1061.98,-163.8 1072.02,-162.29 1081.74,-160.71"/>
<polygon fill="midnightblue" stroke="midnightblue" points="1082.44,-164.14 1091.73,-159.05 1081.29,-157.24 1082.44,-164.14"/>
</g>
<!-- Node12 -->
<g id="node12" class="node">
<title>Node12</title>
<g id="a_node12"><a xlink:title=" ">
<polygon fill="none" stroke="#bfbfbf" points="230.5,-140 230.5,-159 390.5,-159 390.5,-140 230.5,-140"/>
<text text-anchor="middle" x="310.5" y="-147" font-family="Helvetica,sans-Serif" font-size="10.00">Director/GameObjectDirector.hpp</text>
</a>
</g>
</g>
<!-- Node7&#45;&gt;Node12 -->
<g id="edge12" class="edge">
<title>Node7&#45;&gt;Node12</title>
<path fill="none" stroke="midnightblue" d="M485.27,-201.48C449.6,-191.07 389.14,-173.44 349.52,-161.88"/>
<polygon fill="midnightblue" stroke="midnightblue" points="350.25,-158.45 339.67,-159.01 348.29,-165.17 350.25,-158.45"/>
</g>
<!-- Node13 -->
<g id="node13" class="node">
<title>Node13</title>
<g id="a_node13"><a xlink:href="CoinBehaviour_8hpp.html" target="_top" xlink:title=" ">
<polygon fill="none" stroke="black" points="562,-140 562,-159 693,-159 693,-140 562,-140"/>
<text text-anchor="middle" x="627.5" y="-147" font-family="Helvetica,sans-Serif" font-size="10.00">Scripts/CoinBehaviour.hpp</text>
</a>
</g>
</g>
<!-- Node7&#45;&gt;Node13 -->
<g id="edge13" class="edge">
<title>Node7&#45;&gt;Node13</title>
<path fill="none" stroke="midnightblue" d="M530.69,-201.48C549.4,-191.62 580.42,-175.29 602.3,-163.77"/>
<polygon fill="midnightblue" stroke="midnightblue" points="604.12,-166.77 611.34,-159.01 600.86,-160.57 604.12,-166.77"/>
</g>
<!-- Node15 -->
<g id="node15" class="node">
<title>Node15</title>
<g id="a_node15"><a xlink:href="CoinCounter_8hpp.html" target="_top" xlink:title=" ">
<polygon fill="none" stroke="black" points="468,-73 468,-92 577,-92 577,-73 468,-73"/>
<text text-anchor="middle" x="522.5" y="-80" font-family="Helvetica,sans-Serif" font-size="10.00">../UI/CoinCounter.hpp</text>
</a>
</g>
</g>
<!-- Node7&#45;&gt;Node15 -->
<g id="edge32" class="edge">
<title>Node7&#45;&gt;Node15</title>
<path fill="none" stroke="midnightblue" d="M503.51,-201.37C494.05,-193.17 481.06,-179.92 475.5,-165 470.68,-152.09 470.46,-146.82 475.5,-134 480.97,-120.1 492.25,-107.77 502.4,-98.76"/>
<polygon fill="midnightblue" stroke="midnightblue" points="504.72,-101.39 510.16,-92.29 500.23,-96.01 504.72,-101.39"/>
</g>
<!-- Node24 -->
<g id="node24" class="node">
<title>Node24</title>
<g id="a_node24"><a xlink:href="FlagBehaviour_8hpp.html" target="_top" xlink:title=" ">
<polygon fill="none" stroke="black" points="764,-140 764,-159 895,-159 895,-140 764,-140"/>
<text text-anchor="middle" x="829.5" y="-147" font-family="Helvetica,sans-Serif" font-size="10.00">Scripts/FlagBehaviour.hpp</text>
</a>
</g>
</g>
<!-- Node7&#45;&gt;Node24 -->
<g id="edge28" class="edge">
<title>Node7&#45;&gt;Node24</title>
<path fill="none" stroke="midnightblue" d="M553.17,-202.82C600.61,-193.99 683.5,-178.52 754.5,-165 761.24,-163.72 768.32,-162.36 775.32,-161.01"/>
<polygon fill="midnightblue" stroke="midnightblue" points="776.33,-164.38 785.49,-159.05 775.01,-157.51 776.33,-164.38"/>
</g>
<!-- Node25 -->
<g id="node25" class="node">
<title>Node25</title>
<g id="a_node25"><a xlink:href="StarBehaviour_8hpp.html" target="_top" xlink:title=" ">
<polygon fill="none" stroke="black" points="913.5,-140 913.5,-159 1043.5,-159 1043.5,-140 913.5,-140"/>
<text text-anchor="middle" x="978.5" y="-147" font-family="Helvetica,sans-Serif" font-size="10.00">Scripts/StarBehaviour.hpp</text>
</a>
</g>
</g>
<!-- Node7&#45;&gt;Node25 -->
<g id="edge30" class="edge">
<title>Node7&#45;&gt;Node25</title>
<path fill="none" stroke="midnightblue" d="M553.11,-206.56C623.29,-200.08 776.37,-184.91 904.5,-165 912.14,-163.81 920.19,-162.4 928.06,-160.93"/>
<polygon fill="midnightblue" stroke="midnightblue" points="928.72,-164.37 937.89,-159.05 927.41,-157.49 928.72,-164.37"/>
</g>
<!-- Node14 -->
<g id="node14" class="node">
<title>Node14</title>
<g id="a_node14"><a xlink:title=" ">
<polygon fill="none" stroke="#bfbfbf" points="839.5,-73 839.5,-92 943.5,-92 943.5,-73 839.5,-73"/>
<text text-anchor="middle" x="891.5" y="-80" font-family="Helvetica,sans-Serif" font-size="10.00">BehaviourScript.hpp</text>
</a>
</g>
</g>
<!-- Node13&#45;&gt;Node14 -->
<g id="edge14" class="edge">
<title>Node13&#45;&gt;Node14</title>
<path fill="none" stroke="midnightblue" d="M662.28,-139.94C709.67,-128.27 794.56,-107.37 846.67,-94.54"/>
<polygon fill="midnightblue" stroke="midnightblue" points="847.76,-97.87 856.64,-92.08 846.09,-91.08 847.76,-97.87"/>
</g>
<!-- Node13&#45;&gt;Node15 -->
<g id="edge15" class="edge">
<title>Node13&#45;&gt;Node15</title>
<path fill="none" stroke="midnightblue" d="M613.34,-139.73C595.79,-128.87 565.66,-110.22 544.94,-97.39"/>
<polygon fill="midnightblue" stroke="midnightblue" points="546.78,-94.41 536.44,-92.13 543.1,-100.37 546.78,-94.41"/>
</g>
<!-- Node16 -->
<g id="node16" class="node">
<title>Node16</title>
<g id="a_node16"><a xlink:title=" ">
<polygon fill="none" stroke="#bfbfbf" points="894,-0.5 894,-30.5 989,-30.5 989,-0.5 894,-0.5"/>
<text text-anchor="start" x="902" y="-18.5" font-family="Helvetica,sans-Serif" font-size="10.00">boost/serialization</text>
<text text-anchor="middle" x="941.5" y="-7.5" font-family="Helvetica,sans-Serif" font-size="10.00">/access.hpp</text>
</a>
</g>
</g>
<!-- Node13&#45;&gt;Node16 -->
<g id="edge25" class="edge">
<title>Node13&#45;&gt;Node16</title>
<path fill="none" stroke="midnightblue" d="M648.1,-139.84C698.69,-118.57 829.87,-63.43 898.39,-34.62"/>
<polygon fill="midnightblue" stroke="midnightblue" points="900.16,-37.67 908.03,-30.57 897.45,-31.22 900.16,-37.67"/>
</g>
<!-- Node17 -->
<g id="node17" class="node">
<title>Node17</title>
<g id="a_node17"><a xlink:title=" ">
<polygon fill="none" stroke="#bfbfbf" points="668,-0.5 668,-30.5 763,-30.5 763,-0.5 668,-0.5"/>
<text text-anchor="start" x="676" y="-18.5" font-family="Helvetica,sans-Serif" font-size="10.00">boost/serialization</text>
<text text-anchor="middle" x="715.5" y="-7.5" font-family="Helvetica,sans-Serif" font-size="10.00">/export.hpp</text>
</a>
</g>
</g>
<!-- Node13&#45;&gt;Node17 -->
<g id="edge26" class="edge">
<title>Node13&#45;&gt;Node17</title>
<path fill="none" stroke="midnightblue" d="M633.27,-139.84C646.72,-119.67 680.48,-69.03 700.31,-39.29"/>
<polygon fill="midnightblue" stroke="midnightblue" points="703.34,-41.05 705.98,-30.78 697.52,-37.16 703.34,-41.05"/>
</g>
<!-- Node18 -->
<g id="node18" class="node">
<title>Node18</title>
<g id="a_node18"><a xlink:title=" ">
<polygon fill="none" stroke="#bfbfbf" points="781,-0.5 781,-30.5 876,-30.5 876,-0.5 781,-0.5"/>
<text text-anchor="start" x="789" y="-18.5" font-family="Helvetica,sans-Serif" font-size="10.00">boost/serialization</text>
<text text-anchor="middle" x="828.5" y="-7.5" font-family="Helvetica,sans-Serif" font-size="10.00">/shared_ptr.hpp</text>
</a>
</g>
</g>
<!-- Node13&#45;&gt;Node18 -->
<g id="edge27" class="edge">
<title>Node13&#45;&gt;Node18</title>
<path fill="none" stroke="midnightblue" d="M640.69,-139.84C672.47,-118.97 753.96,-65.45 798.44,-36.24"/>
<polygon fill="midnightblue" stroke="midnightblue" points="800.64,-38.99 807.07,-30.57 796.79,-33.14 800.64,-38.99"/>
</g>
<!-- Node15&#45;&gt;Node10 -->
<g id="edge16" class="edge">
<title>Node15&#45;&gt;Node10</title>
<path fill="none" stroke="midnightblue" d="M471.62,-73C458.86,-70.95 445.19,-68.83 432.5,-67 307.01,-48.91 271.87,-64.19 149.5,-31 147.2,-30.38 144.85,-29.63 142.52,-28.81"/>
<polygon fill="midnightblue" stroke="midnightblue" points="143.75,-25.53 133.17,-25.13 141.19,-32.05 143.75,-25.53"/>
</g>
<!-- Node15&#45;&gt;Node16 -->
<g id="edge17" class="edge">
<title>Node15&#45;&gt;Node16</title>
<path fill="none" stroke="midnightblue" d="M577.25,-75.87C646.58,-68.3 769.83,-53.38 883.97,-31.18"/>
<polygon fill="midnightblue" stroke="midnightblue" points="884.79,-34.58 893.93,-29.22 883.44,-27.71 884.79,-34.58"/>
</g>
<!-- Node15&#45;&gt;Node17 -->
<g id="edge18" class="edge">
<title>Node15&#45;&gt;Node17</title>
<path fill="none" stroke="midnightblue" d="M548.13,-72.87C577.59,-62.95 626.69,-46.41 664.12,-33.81"/>
<polygon fill="midnightblue" stroke="midnightblue" points="665.49,-37.04 673.85,-30.53 663.25,-30.4 665.49,-37.04"/>
</g>
<!-- Node15&#45;&gt;Node18 -->
<g id="edge19" class="edge">
<title>Node15&#45;&gt;Node18</title>
<path fill="none" stroke="midnightblue" d="M568.08,-72.95C616.07,-63.8 694.04,-48.48 771.08,-31.03"/>
<polygon fill="midnightblue" stroke="midnightblue" points="771.98,-34.41 780.96,-28.78 770.43,-27.59 771.98,-34.41"/>
</g>
<!-- Node19 -->
<g id="node19" class="node">
<title>Node19</title>
<g id="a_node19"><a xlink:title=" ">
<polygon fill="none" stroke="#bfbfbf" points="348.5,-0.5 348.5,-30.5 452.5,-30.5 452.5,-0.5 348.5,-0.5"/>
<text text-anchor="start" x="356.5" y="-18.5" font-family="Helvetica,sans-Serif" font-size="10.00">boost/archive/binary</text>
<text text-anchor="middle" x="400.5" y="-7.5" font-family="Helvetica,sans-Serif" font-size="10.00">_iarchive.hpp</text>
</a>
</g>
</g>
<!-- Node15&#45;&gt;Node19 -->
<g id="edge20" class="edge">
<title>Node15&#45;&gt;Node19</title>
<path fill="none" stroke="midnightblue" d="M506.3,-72.87C488.45,-63.36 459.18,-47.77 435.95,-35.39"/>
<polygon fill="midnightblue" stroke="midnightblue" points="437.53,-32.26 427.06,-30.65 434.24,-38.44 437.53,-32.26"/>
</g>
<!-- Node20 -->
<g id="node20" class="node">
<title>Node20</title>
<g id="a_node20"><a xlink:title=" ">
<polygon fill="none" stroke="#bfbfbf" points="470.5,-0.5 470.5,-30.5 574.5,-30.5 574.5,-0.5 470.5,-0.5"/>
<text text-anchor="start" x="478.5" y="-18.5" font-family="Helvetica,sans-Serif" font-size="10.00">boost/archive/binary</text>
<text text-anchor="middle" x="522.5" y="-7.5" font-family="Helvetica,sans-Serif" font-size="10.00">_oarchive.hpp</text>
</a>
</g>
</g>
<!-- Node15&#45;&gt;Node20 -->
<g id="edge21" class="edge">
<title>Node15&#45;&gt;Node20</title>
<path fill="none" stroke="midnightblue" d="M522.5,-72.73C522.5,-64.54 522.5,-51.92 522.5,-40.71"/>
<polygon fill="midnightblue" stroke="midnightblue" points="526,-40.59 522.5,-30.59 519,-40.59 526,-40.59"/>
</g>
<!-- Node21 -->
<g id="node21" class="node">
<title>Node21</title>
<g id="a_node21"><a xlink:title=" ">
<polygon fill="none" stroke="#bfbfbf" points="593,-6 593,-25 650,-25 650,-6 593,-6"/>
<text text-anchor="middle" x="621.5" y="-13" font-family="Helvetica,sans-Serif" font-size="10.00">Color.hpp</text>
</a>
</g>
</g>
<!-- Node15&#45;&gt;Node21 -->
<g id="edge22" class="edge">
<title>Node15&#45;&gt;Node21</title>
<path fill="none" stroke="midnightblue" d="M535.85,-72.73C552.25,-61.96 580.3,-43.55 599.81,-30.74"/>
<polygon fill="midnightblue" stroke="midnightblue" points="601.92,-33.54 608.36,-25.13 598.08,-27.69 601.92,-33.54"/>
</g>
<!-- Node22 -->
<g id="node22" class="node">
<title>Node22</title>
<g id="a_node22"><a xlink:title=" ">
<polygon fill="none" stroke="#bfbfbf" points="159,-6 159,-25 238,-25 238,-6 159,-6"/>
<text text-anchor="middle" x="198.5" y="-13" font-family="Helvetica,sans-Serif" font-size="10.00">Transform.hpp</text>
</a>
</g>
</g>
<!-- Node15&#45;&gt;Node22 -->
<g id="edge23" class="edge">
<title>Node15&#45;&gt;Node22</title>
<path fill="none" stroke="midnightblue" d="M472.6,-72.99C405.4,-61.42 289.4,-41.02 247.5,-31 243.58,-30.06 239.52,-29 235.47,-27.89"/>
<polygon fill="midnightblue" stroke="midnightblue" points="236.15,-24.45 225.58,-25.07 234.23,-31.18 236.15,-24.45"/>
</g>
<!-- Node23 -->
<g id="node23" class="node">
<title>Node23</title>
<g id="a_node23"><a xlink:title=" ">
<polygon fill="none" stroke="#bfbfbf" points="256.5,-6 256.5,-25 330.5,-25 330.5,-6 256.5,-6"/>
<text text-anchor="middle" x="293.5" y="-13" font-family="Helvetica,sans-Serif" font-size="10.00">UIObject.hpp</text>
</a>
</g>
</g>
<!-- Node15&#45;&gt;Node23 -->
<g id="edge24" class="edge">
<title>Node15&#45;&gt;Node23</title>
<path fill="none" stroke="midnightblue" d="M490,-72.91C453.34,-63.13 391.97,-46.5 339.5,-31 336.37,-30.07 333.12,-29.09 329.87,-28.1"/>
<polygon fill="midnightblue" stroke="midnightblue" points="330.79,-24.72 320.21,-25.1 328.72,-31.41 330.79,-24.72"/>
</g>
<!-- Node24&#45;&gt;Node14 -->
<g id="edge29" class="edge">
<title>Node24&#45;&gt;Node14</title>
<path fill="none" stroke="midnightblue" d="M837.86,-139.73C847.62,-129.5 863.97,-112.36 876.05,-99.69"/>
<polygon fill="midnightblue" stroke="midnightblue" points="878.9,-101.78 883.27,-92.13 873.84,-96.95 878.9,-101.78"/>
</g>
<!-- Node25&#45;&gt;Node14 -->
<g id="edge31" class="edge">
<title>Node25&#45;&gt;Node14</title>
<path fill="none" stroke="midnightblue" d="M966.77,-139.73C952.55,-129.11 928.37,-111.05 911.26,-98.26"/>
<polygon fill="midnightblue" stroke="midnightblue" points="913.15,-95.31 903.05,-92.13 908.96,-100.92 913.15,-95.31"/>
</g>
<!-- Node26&#45;&gt;Node14 -->
<g id="edge34" class="edge">
<title>Node26&#45;&gt;Node14</title>
<path fill="none" stroke="midnightblue" d="M1278.36,-201.17C1270.2,-184.87 1250.4,-150.23 1222.5,-134 1211,-127.31 1046.56,-104.35 953.89,-91.82"/>
<polygon fill="midnightblue" stroke="midnightblue" points="954.16,-88.32 943.78,-90.45 953.22,-95.26 954.16,-88.32"/>
</g>
<!-- Node27 -->
<g id="node27" class="node">
<title>Node27</title>
<g id="a_node27"><a xlink:href="MarioState_8hpp.html" target="_top" xlink:title=" ">
<polygon fill="none" stroke="black" points="1024,-67.5 1024,-97.5 1127,-97.5 1127,-67.5 1024,-67.5"/>
<text text-anchor="start" x="1032" y="-85.5" font-family="Helvetica,sans-Serif" font-size="10.00">Scripts/MarioStates</text>
<text text-anchor="middle" x="1075.5" y="-74.5" font-family="Helvetica,sans-Serif" font-size="10.00">/MarioState.hpp</text>
</a>
</g>
</g>
<!-- Node26&#45;&gt;Node27 -->
<g id="edge35" class="edge">
<title>Node26&#45;&gt;Node27</title>
<path fill="none" stroke="midnightblue" d="M1332.27,-201.45C1353.33,-195.1 1375.87,-184.09 1388.5,-165 1396.1,-153.51 1397.43,-144.49 1388.5,-134 1356.89,-96.88 1219.11,-86.95 1137.26,-84.36"/>
<polygon fill="midnightblue" stroke="midnightblue" points="1137.18,-80.85 1127.08,-84.06 1136.97,-87.85 1137.18,-80.85"/>
</g>
<!-- Node30 -->
<g id="node30" class="node">
<title>Node30</title>
<g id="a_node30"><a xlink:href="SmallMarioState_8hpp.html" target="_top" xlink:title=" ">
<polygon fill="none" stroke="black" points="1269.5,-134.5 1269.5,-164.5 1379.5,-164.5 1379.5,-134.5 1269.5,-134.5"/>
<text text-anchor="start" x="1277.5" y="-152.5" font-family="Helvetica,sans-Serif" font-size="10.00">Scripts/MarioStates</text>
<text text-anchor="middle" x="1324.5" y="-141.5" font-family="Helvetica,sans-Serif" font-size="10.00">/SmallMarioState.hpp</text>
</a>
</g>
</g>
<!-- Node26&#45;&gt;Node30 -->
<g id="edge41" class="edge">
<title>Node26&#45;&gt;Node30</title>
<path fill="none" stroke="midnightblue" d="M1288.52,-201.48C1293.78,-194.02 1301.66,-182.85 1308.71,-172.87"/>
<polygon fill="midnightblue" stroke="midnightblue" points="1311.69,-174.71 1314.6,-164.52 1305.98,-170.67 1311.69,-174.71"/>
</g>
<!-- Node27&#45;&gt;Node16 -->
<g id="edge36" class="edge">
<title>Node27&#45;&gt;Node16</title>
<path fill="none" stroke="midnightblue" d="M1046.42,-67.4C1026.85,-57.9 1000.82,-45.28 979.59,-34.98"/>
<polygon fill="midnightblue" stroke="midnightblue" points="981.04,-31.79 970.52,-30.58 977.99,-38.09 981.04,-31.79"/>
</g>
<!-- Node27&#45;&gt;Node17 -->
<g id="edge37" class="edge">
<title>Node27&#45;&gt;Node17</title>
<path fill="none" stroke="midnightblue" d="M1023.87,-74.35C965.25,-65.91 866.59,-50.76 773.01,-31.22"/>
<polygon fill="midnightblue" stroke="midnightblue" points="773.6,-27.77 763.09,-29.13 772.15,-34.62 773.6,-27.77"/>
</g>
<!-- Node27&#45;&gt;Node18 -->
<g id="edge38" class="edge">
<title>Node27&#45;&gt;Node18</title>
<path fill="none" stroke="midnightblue" d="M1023.72,-67.87C983.38,-57.26 927.43,-42.53 885.76,-31.57"/>
<polygon fill="midnightblue" stroke="midnightblue" points="886.59,-28.17 876.03,-29.01 884.81,-34.94 886.59,-28.17"/>
</g>
<!-- Node28 -->
<g id="node28" class="node">
<title>Node28</title>
<g id="a_node28"><a xlink:title=" ">
<polygon fill="none" stroke="#bfbfbf" points="1007,-6 1007,-25 1144,-25 1144,-6 1007,-6"/>
<text text-anchor="middle" x="1075.5" y="-13" font-family="Helvetica,sans-Serif" font-size="10.00">Texture/AnimatedSprite.hpp</text>
</a>
</g>
</g>
<!-- Node27&#45;&gt;Node28 -->
<g id="edge39" class="edge">
<title>Node27&#45;&gt;Node28</title>
<path fill="none" stroke="midnightblue" d="M1075.5,-67.4C1075.5,-58.06 1075.5,-45.71 1075.5,-35.52"/>
<polygon fill="midnightblue" stroke="midnightblue" points="1079,-35.19 1075.5,-25.19 1072,-35.19 1079,-35.19"/>
</g>
<!-- Node29 -->
<g id="node29" class="node">
<title>Node29</title>
<g id="a_node29"><a xlink:title=" ">
<polygon fill="none" stroke="#bfbfbf" points="1162,-6 1162,-25 1219,-25 1219,-6 1162,-6"/>
<text text-anchor="middle" x="1190.5" y="-13" font-family="Helvetica,sans-Serif" font-size="10.00">Point.hpp</text>
</a>
</g>
</g>
<!-- Node27&#45;&gt;Node29 -->
<g id="edge40" class="edge">
<title>Node27&#45;&gt;Node29</title>
<path fill="none" stroke="midnightblue" d="M1100.45,-67.4C1120.1,-56.29 1147.29,-40.92 1166.65,-29.98"/>
<polygon fill="midnightblue" stroke="midnightblue" points="1168.47,-32.97 1175.45,-25.01 1165.02,-26.88 1168.47,-32.97"/>
</g>
<!-- Node30&#45;&gt;Node27 -->
<g id="edge42" class="edge">
<title>Node30&#45;&gt;Node27</title>
<path fill="none" stroke="midnightblue" d="M1270.78,-134.48C1231.55,-124.24 1178.29,-110.33 1137.3,-99.63"/>
<polygon fill="midnightblue" stroke="midnightblue" points="1137.98,-96.19 1127.42,-97.05 1136.21,-102.97 1137.98,-96.19"/>
</g>
</g>
</svg>
        <g id="navigator" transform="translate(0 0)" fill="#404254">
                <rect fill="#f2f5e9" fill-opacity="0.5" stroke="#606060" stroke-width=".5" x="0" y="0" width="60" height="60"/>
                <use id="zoomplus" xlink:href="#zoomPlus" x="17" y="9" onmousedown="handleZoom(evt,'in')"/>
                <use id="zoomminus" xlink:href="#zoomMin" x="42" y="9" onmousedown="handleZoom(evt,'out')"/>
                <use id="reset" xlink:href="#resetDef" x="30" y="36" onmousedown="handleReset()"/>
                <g id="arrowUp" xlink:href="#dirArrow" transform="translate(30 24)" onmousedown="handlePan(0,-1)">
                  <use xlink:href="#rim" fill="#404040">
                        <set attributeName="fill" to="#808080" begin="arrowUp.mouseover" end="arrowUp.mouseout"/>
                  </use>
                  <path fill="none" stroke="white" stroke-width="1.5" d="M0,-3.0v7 M-2.5,-0.5L0,-3.0L2.5,-0.5"/>
                </g>
                <g id="arrowRight" xlink:href="#dirArrow" transform="rotate(90) translate(36 -43)" onmousedown="handlePan(1,0)">
                  <use xlink:href="#rim" fill="#404040">
                        <set attributeName="fill" to="#808080" begin="arrowRight.mouseover" end="arrowRight.mouseout"/>
                  </use>
                  <path fill="none" stroke="white" stroke-width="1.5" d="M0,-3.0v7 M-2.5,-0.5L0,-3.0L2.5,-0.5"/>
                </g>
                <g id="arrowDown" xlink:href="#dirArrow" transform="rotate(180) translate(-30 -48)" onmousedown="handlePan(0,1)">
                  <use xlink:href="#rim" fill="#404040">
                        <set attributeName="fill" to="#808080" begin="arrowDown.mouseover" end="arrowDown.mouseout"/>
                  </use>
                  <path fill="none" stroke="white" stroke-width="1.5" d="M0,-3.0v7 M-2.5,-0.5L0,-3.0L2.5,-0.5"/>
                </g>
                <g id="arrowLeft" xlink:href="#dirArrow" transform="rotate(270) translate(-36 17)" onmousedown="handlePan(-1,0)">
                  <use xlink:href="#rim" fill="#404040">
                        <set attributeName="fill" to="#808080" begin="arrowLeft.mouseover" end="arrowLeft.mouseout"/>
                  </use>
                  <path fill="none" stroke="white" stroke-width="1.5" d="M0,-3.0v7 M-2.5,-0.5L0,-3.0L2.5,-0.5"/>
                </g>
        </g>
        <svg viewBox="0 0 15 15" width="100%" height="30px" preserveAspectRatio="xMaxYMin meet">
         <g id="arrow_out" transform="scale(0.3 0.3)">
          <a xlink:href="NetworkingClient_8cpp__incl_org.svg" target="_base">
           <rect id="button" ry="5" rx="5" y="6" x="6" height="38" width="38"
                fill="#f2f5e9" fill-opacity="0.5" stroke="#606060" stroke-width="1.0"/>
           <path id="arrow"
             d="M 11.500037,31.436501 C 11.940474,20.09759 22.043105,11.32322 32.158766,21.979434 L 37.068811,17.246167 C 37.068811,17.246167 37.088388,32 37.088388,32 L 22.160133,31.978069 C 22.160133,31.978069 26.997745,27.140456 26.997745,27.140456 C 18.528582,18.264221 13.291696,25.230495 11.500037,31.436501 z"
             style="fill:#404040;"/>
          </a>
         </g>
        </svg>
</svg>
