<?xml version="1.0" encoding="UTF-8" standalone="no"?>
<!DOCTYPE svg PUBLIC "-//W3C//DTD SVG 1.1//EN"
 "http://www.w3.org/Graphics/SVG/1.1/DTD/svg11.dtd">
<!-- Generated by graphviz version 2.44.0 ()
 -->
<!-- Title: src/Networking/NetworkingClient.cpp Pages: 1 -->
<!--zoomable 296 -->
<svg id="main" version="1.1" xmlns="http://www.w3.org/2000/svg" xmlns:xlink="http://www.w3.org/1999/xlink" xml:space="preserve" onload="init(evt)">
<style type="text/css"><![CDATA[
.edge:hover path { stroke: red; }
.edge:hover polygon { stroke: red; fill: red; }
]]></style>
<script type="text/javascript"><![CDATA[
var edges = document.getElementsByTagName('g');
if (edges && edges.length) {
  for (var i=0;i<edges.length;i++) {
    if (edges[i].id.substr(0,4)=='edge') {
      edges[i].setAttribute('class','edge');
    }
  }
}
]]></script>
        <defs>
                <circle id="rim" cx="0" cy="0" r="7"/>
                <circle id="rim2" cx="0" cy="0" r="3.5"/>
                <g id="zoomPlus">
                        <use xlink:href="#rim" fill="#404040">
                                <set attributeName="fill" to="#808080" begin="zoomplus.mouseover" end="zoomplus.mouseout"/>
                        </use>
                        <path d="M-4,0h8M0,-4v8" fill="none" stroke="white" stroke-width="1.5" pointer-events="none"/>
                </g>
                <g id="zoomMin">
                        <use xlink:href="#rim" fill="#404040">
                                <set attributeName="fill" to="#808080" begin="zoomminus.mouseover" end="zoomminus.mouseout"/>
                        </use>
                        <path d="M-4,0h8" fill="none" stroke="white" stroke-width="1.5" pointer-events="none"/>
                </g>
                <g id="dirArrow">
                        <path fill="none" stroke="white" stroke-width="1.5" d="M0,-3.0v7 M-2.5,-0.5L0,-3.0L2.5,-0.5"/>
                </g>
               <g id="resetDef">
                       <use xlink:href="#rim2" fill="#404040">
                               <set attributeName="fill" to="#808080" begin="reset.mouseover" end="reset.mouseout"/>
                       </use>
               </g>
        </defs>

<script type="text/javascript">
var viewWidth = 1401;
var viewHeight = 296;
var sectionId = 'dynsection-0';
</script>
<script xlink:href="svgpan.js"/>
<svg id="graph" class="graph">
<g id="viewport">
<title>src/Networking/NetworkingClient.cpp</title>
<!-- Node1 -->
<g id="node1" class="node">
<title>Node1</title>
<g id="a_node1"><a xlink:title=" ">
<polygon fill="#bfbfbf" stroke="black" points="297,-257.5 297,-287.5 432,-287.5 432,-257.5 297,-257.5"/>
<text text-anchor="start" x="305" y="-275.5" font-family="Helvetica,sans-Serif" font-size="10.00">src/Networking/Networking</text>
<text text-anchor="middle" x="364.5" y="-264.5" font-family="Helvetica,sans-Serif" font-size="10.00">Client.cpp</text>
</a>
</g>
</g>
<!-- Node2 -->
<g id="node2" class="node">
<title>Node2</title>
<g id="a_node2"><a xlink:href="NetworkingClient_8hpp.html" target="_top" xlink:title=" ">
<polygon fill="none" stroke="black" points="0,-201.5 0,-220.5 109,-220.5 109,-201.5 0,-201.5"/>
<text text-anchor="middle" x="54.5" y="-208.5" font-family="Helvetica,sans-Serif" font-size="10.00">NetworkingClient.hpp</text>
</a>
</g>
</g>
<!-- Node1&#45;&gt;Node2 -->
<g id="edge1" class="edge">
<title>Node1&#45;&gt;Node2</title>
<path fill="none" stroke="midnightblue" d="M296.85,-258.52C240.57,-247.71 161.46,-232.53 109.14,-222.49"/>
<polygon fill="midnightblue" stroke="midnightblue" points="109.52,-219 99.04,-220.55 108.2,-225.87 109.52,-219"/>
</g>
<!-- Node4 -->
<g id="node4" class="node">
<title>Node4</title>
<g id="a_node4"><a xlink:title=" ">
<polygon fill="none" stroke="#bfbfbf" points="137,-201.5 137,-220.5 298,-220.5 298,-201.5 137,-201.5"/>
<text text-anchor="middle" x="217.5" y="-208.5" font-family="Helvetica,sans-Serif" font-size="10.00">Behaviour/CollisionBehaviour.hpp</text>
</a>
</g>
</g>
<!-- Node1&#45;&gt;Node4 -->
<g id="edge3" class="edge">
<title>Node1&#45;&gt;Node4</title>
<path fill="none" stroke="midnightblue" d="M329.66,-257.4C305,-247.42 272.21,-234.15 248.47,-224.53"/>
<polygon fill="midnightblue" stroke="midnightblue" points="249.47,-221.17 238.89,-220.66 246.85,-227.65 249.47,-221.17"/>
</g>
<!-- Node5 -->
<g id="node5" class="node">
<title>Node5</title>
<g id="a_node5"><a xlink:title=" ">
<polygon fill="none" stroke="#bfbfbf" points="88,-140 88,-159 213,-159 213,-140 88,-140"/>
<text text-anchor="middle" x="150.5" y="-147" font-family="Helvetica,sans-Serif" font-size="10.00">Builder/SceneBuilder.hpp</text>
</a>
</g>
</g>
<!-- Node1&#45;&gt;Node5 -->
<g id="edge4" class="edge">
<title>Node1&#45;&gt;Node5</title>
<path fill="none" stroke="midnightblue" d="M356.28,-257.26C346.39,-241.36 328.38,-215.9 306.5,-201 288.05,-188.44 233.65,-172.31 194.27,-161.7"/>
<polygon fill="midnightblue" stroke="midnightblue" points="194.93,-158.26 184.37,-159.07 193.13,-165.02 194.93,-158.26"/>
</g>
<!-- Node6 -->
<g id="node6" class="node">
<title>Node6</title>
<g id="a_node6"><a xlink:title=" ">
<polygon fill="none" stroke="#bfbfbf" points="354.5,-201.5 354.5,-220.5 450.5,-220.5 450.5,-201.5 354.5,-201.5"/>
<text text-anchor="middle" x="402.5" y="-208.5" font-family="Helvetica,sans-Serif" font-size="10.00">Engine/Engine.hpp</text>
</a>
</g>
</g>
<!-- Node1&#45;&gt;Node6 -->
<g id="edge5" class="edge">
<title>Node1&#45;&gt;Node6</title>
<path fill="none" stroke="midnightblue" d="M373.51,-257.4C378.91,-248.93 385.83,-238.1 391.55,-229.14"/>
<polygon fill="midnightblue" stroke="midnightblue" points="394.54,-230.97 396.97,-220.66 388.64,-227.2 394.54,-230.97"/>
</g>
<!-- Node7 -->
<g id="node7" class="node">
<title>Node7</title>
<g id="a_node7"><a xlink:href="TileConfig_8hpp.html" target="_top" xlink:title=" ">
<polygon fill="none" stroke="black" points="474,-201.5 474,-220.5 551,-220.5 551,-201.5 474,-201.5"/>
<text text-anchor="middle" x="512.5" y="-208.5" font-family="Helvetica,sans-Serif" font-size="10.00">TileConfig.hpp</text>
</a>
</g>
</g>
<!-- Node1&#45;&gt;Node7 -->
<g id="edge6" class="edge">
<title>Node1&#45;&gt;Node7</title>
<path fill="none" stroke="midnightblue" d="M399.57,-257.4C424.52,-247.37 457.71,-234.03 481.64,-224.4"/>
<polygon fill="midnightblue" stroke="midnightblue" points="482.99,-227.64 490.96,-220.66 480.38,-221.14 482.99,-227.64"/>
</g>
<!-- Node26 -->
<g id="node26" class="node">
<title>Node26</title>
<g id="a_node26"><a xlink:href="MarioBehaviour_8hpp.html" target="_top" xlink:title=" ">
<polygon fill="none" stroke="black" points="1212.5,-201.5 1212.5,-220.5 1348.5,-220.5 1348.5,-201.5 1212.5,-201.5"/>
<text text-anchor="middle" x="1280.5" y="-208.5" font-family="Helvetica,sans-Serif" font-size="10.00">Scripts/MarioBehaviour.hpp</text>
</a>
</g>
</g>
<!-- Node1&#45;&gt;Node26 -->
<g id="edge33" class="edge">
<title>Node1&#45;&gt;Node26</title>
<path fill="none" stroke="midnightblue" d="M432.23,-267.1C598.49,-256.3 1026.02,-228.53 1202.51,-217.07"/>
<polygon fill="midnightblue" stroke="midnightblue" points="1202.75,-220.56 1212.5,-216.42 1202.29,-213.57 1202.75,-220.56"/>
</g>
<!-- Node3 -->
<g id="node3" class="node">
<title>Node3</title>
<g id="a_node3"><a xlink:title=" ">
<polygon fill="none" stroke="#bfbfbf" points="29,-140 29,-159 70,-159 70,-140 29,-140"/>
<text text-anchor="middle" x="49.5" y="-147" font-family="Helvetica,sans-Serif" font-size="10.00">string</text>
</a>
</g>
</g>
<!-- Node2&#45;&gt;Node3 -->
<g id="edge2" class="edge">
<title>Node2&#45;&gt;Node3</title>
<path fill="none" stroke="midnightblue" d="M53.78,-201.48C53.08,-193.08 51.98,-179.98 51.07,-169.16"/>
<polygon fill="midnightblue" stroke="midnightblue" points="54.54,-168.68 50.22,-159.01 47.56,-169.27 54.54,-168.68"/>
</g>
<!-- Node7&#45;&gt;Node5 -->
<g id="edge11" class="edge">
<title>Node7&#45;&gt;Node5</title>
<path fill="none" stroke="midnightblue" d="M473.73,-203.33C468.94,-202.53 464.11,-201.74 459.5,-201 353.87,-184.04 326.83,-183.71 221.5,-165 214.76,-163.8 207.68,-162.46 200.7,-161.09"/>
<polygon fill="midnightblue" stroke="midnightblue" points="201.1,-157.6 190.61,-159.07 199.73,-164.46 201.1,-157.6"/>
</g>
<!-- Node8 -->
<g id="node8" class="node">
<title>Node8</title>
<g id="a_node8"><a xlink:title=" ">
<polygon fill="none" stroke="#bfbfbf" points="483,-140 483,-159 542,-159 542,-140 483,-140"/>
<text text-anchor="middle" x="512.5" y="-147" font-family="Helvetica,sans-Serif" font-size="10.00">functional</text>
</a>
</g>
</g>
<!-- Node7&#45;&gt;Node8 -->
<g id="edge7" class="edge">
<title>Node7&#45;&gt;Node8</title>
<path fill="none" stroke="midnightblue" d="M512.5,-201.48C512.5,-193.08 512.5,-179.98 512.5,-169.16"/>
<polygon fill="midnightblue" stroke="midnightblue" points="516,-169.01 512.5,-159.01 509,-169.01 516,-169.01"/>
</g>
<!-- Node9 -->
<g id="node9" class="node">
<title>Node9</title>
<g id="a_node9"><a xlink:title=" ">
<polygon fill="none" stroke="#bfbfbf" points="709,-140 709,-159 744,-159 744,-140 709,-140"/>
<text text-anchor="middle" x="726.5" y="-147" font-family="Helvetica,sans-Serif" font-size="10.00">map</text>
</a>
</g>
</g>
<!-- Node7&#45;&gt;Node9 -->
<g id="edge8" class="edge">
<title>Node7&#45;&gt;Node9</title>
<path fill="none" stroke="midnightblue" d="M551.33,-203.67C589.77,-196.7 649.89,-183.93 699.5,-165 700.7,-164.54 701.92,-164.04 703.14,-163.51"/>
<polygon fill="midnightblue" stroke="midnightblue" points="704.82,-166.58 712.25,-159.03 701.73,-160.3 704.82,-166.58"/>
</g>
<!-- Node10 -->
<g id="node10" class="node">
<title>Node10</title>
<g id="a_node10"><a xlink:title=" ">
<polygon fill="none" stroke="#bfbfbf" points="88,-6 88,-25 139,-25 139,-6 88,-6"/>
<text text-anchor="middle" x="113.5" y="-13" font-family="Helvetica,sans-Serif" font-size="10.00">memory</text>
</a>
</g>
</g>
<!-- Node7&#45;&gt;Node10 -->
<g id="edge9" class="edge">
<title>Node7&#45;&gt;Node10</title>
<path fill="none" stroke="midnightblue" d="M501.2,-201.46C481.1,-186.51 437.46,-155.18 397.5,-134 291.32,-77.72 258.33,-77.46 147.5,-31 146.09,-30.41 144.66,-29.81 143.21,-29.19"/>
<polygon fill="midnightblue" stroke="midnightblue" points="144.19,-25.81 133.62,-25.13 141.46,-32.25 144.19,-25.81"/>
</g>
<!-- Node11 -->
<g id="node11" class="node">
<title>Node11</title>
<g id="a_node11"><a xlink:title=" ">
<polygon fill="none" stroke="#bfbfbf" points="1059.5,-140 1059.5,-159 1211.5,-159 1211.5,-140 1059.5,-140"/>
<text text-anchor="middle" x="1135.5" y="-147" font-family="Helvetica,sans-Serif" font-size="10.00">Builder/GameObjectBuilder.hpp</text>
</a>
</g>
</g>
<!-- Node7&#45;&gt;Node11 -->
<g id="edge10" class="edge">
<title>Node7&#45;&gt;Node11</title>
<path fill="none" stroke="midnightblue" d="M551.11,-207.91C639.65,-202.86 864.07,-188.65 1050.5,-165 1059.98,-163.8 1070.02,-162.29 1079.74,-160.71"/>
<polygon fill="midnightblue" stroke="midnightblue" points="1080.44,-164.14 1089.73,-159.05 1079.29,-157.24 1080.44,-164.14"/>
</g>
<!-- Node12 -->
<g id="node12" class="node">
<title>Node12</title>
<g id="a_node12"><a xlink:title=" ">
<polygon fill="none" stroke="#bfbfbf" points="230.5,-140 230.5,-159 388.5,-159 388.5,-140 230.5,-140"/>
<text text-anchor="middle" x="309.5" y="-147" font-family="Helvetica,sans-Serif" font-size="10.00">Director/GameObjectFactory.hpp</text>
</a>
</g>
</g>
<!-- Node7&#45;&gt;Node12 -->
<g id="edge12" class="edge">
<title>Node7&#45;&gt;Node12</title>
<path fill="none" stroke="midnightblue" d="M483.42,-201.48C447.92,-191.07 387.75,-173.44 348.33,-161.88"/>
<polygon fill="midnightblue" stroke="midnightblue" points="349.11,-158.46 338.53,-159.01 347.14,-165.18 349.11,-158.46"/>
</g>
<!-- Node13 -->
<g id="node13" class="node">
<title>Node13</title>
<g id="a_node13"><a xlink:href="CoinBehaviour_8hpp.html" target="_top" xlink:title=" ">
<polygon fill="none" stroke="black" points="560,-140 560,-159 691,-159 691,-140 560,-140"/>
<text text-anchor="middle" x="625.5" y="-147" font-family="Helvetica,sans-Serif" font-size="10.00">Scripts/CoinBehaviour.hpp</text>
</a>
</g>
</g>
<!-- Node7&#45;&gt;Node13 -->
<g id="edge13" class="edge">
<title>Node7&#45;&gt;Node13</title>
<path fill="none" stroke="midnightblue" d="M528.69,-201.48C547.4,-191.62 578.42,-175.29 600.3,-163.77"/>
<polygon fill="midnightblue" stroke="midnightblue" points="602.12,-166.77 609.34,-159.01 598.86,-160.57 602.12,-166.77"/>
</g>
<!-- Node15 -->
<g id="node15" class="node">
<title>Node15</title>
<g id="a_node15"><a xlink:href="CoinCounter_8hpp.html" target="_top" xlink:title=" ">
<polygon fill="none" stroke="black" points="466,-73 466,-92 575,-92 575,-73 466,-73"/>
<text text-anchor="middle" x="520.5" y="-80" font-family="Helvetica,sans-Serif" font-size="10.00">../UI/CoinCounter.hpp</text>
</a>
</g>
</g>
<!-- Node7&#45;&gt;Node15 -->
<g id="edge32" class="edge">
<title>Node7&#45;&gt;Node15</title>
<path fill="none" stroke="midnightblue" d="M501.51,-201.37C492.05,-193.17 479.06,-179.92 473.5,-165 468.68,-152.09 468.46,-146.82 473.5,-134 478.97,-120.1 490.25,-107.77 500.4,-98.76"/>
<polygon fill="midnightblue" stroke="midnightblue" points="502.72,-101.39 508.16,-92.29 498.23,-96.01 502.72,-101.39"/>
</g>
<!-- Node24 -->
<g id="node24" class="node">
<title>Node24</title>
<g id="a_node24"><a xlink:href="FlagBehaviour_8hpp.html" target="_top" xlink:title=" ">
<polygon fill="none" stroke="black" points="762,-140 762,-159 893,-159 893,-140 762,-140"/>
<text text-anchor="middle" x="827.5" y="-147" font-family="Helvetica,sans-Serif" font-size="10.00">Scripts/FlagBehaviour.hpp</text>
</a>
</g>
</g>
<!-- Node7&#45;&gt;Node24 -->
<g id="edge28" class="edge">
<title>Node7&#45;&gt;Node24</title>
<path fill="none" stroke="midnightblue" d="M551.17,-202.82C598.61,-193.99 681.5,-178.52 752.5,-165 759.24,-163.72 766.32,-162.36 773.32,-161.01"/>
<polygon fill="midnightblue" stroke="midnightblue" points="774.33,-164.38 783.49,-159.05 773.01,-157.51 774.33,-164.38"/>
</g>
<!-- Node25 -->
<g id="node25" class="node">
<title>Node25</title>
<g id="a_node25"><a xlink:href="StarBehaviour_8hpp.html" target="_top" xlink:title=" ">
<polygon fill="none" stroke="black" points="911.5,-140 911.5,-159 1041.5,-159 1041.5,-140 911.5,-140"/>
<text text-anchor="middle" x="976.5" y="-147" font-family="Helvetica,sans-Serif" font-size="10.00">Scripts/StarBehaviour.hpp</text>
</a>
</g>
</g>
<!-- Node7&#45;&gt;Node25 -->
<g id="edge30" class="edge">
<title>Node7&#45;&gt;Node25</title>
<path fill="none" stroke="midnightblue" d="M551.11,-206.56C621.29,-200.08 774.37,-184.91 902.5,-165 910.14,-163.81 918.19,-162.4 926.06,-160.93"/>
<polygon fill="midnightblue" stroke="midnightblue" points="926.72,-164.37 935.89,-159.05 925.41,-157.49 926.72,-164.37"/>
</g>
<!-- Node14 -->
<g id="node14" class="node">
<title>Node14</title>
<g id="a_node14"><a xlink:title=" ">
<polygon fill="none" stroke="#bfbfbf" points="837.5,-73 837.5,-92 941.5,-92 941.5,-73 837.5,-73"/>
<text text-anchor="middle" x="889.5" y="-80" font-family="Helvetica,sans-Serif" font-size="10.00">BehaviourScript.hpp</text>
</a>
</g>
</g>
<!-- Node13&#45;&gt;Node14 -->
<g id="edge14" class="edge">
<title>Node13&#45;&gt;Node14</title>
<path fill="none" stroke="midnightblue" d="M660.28,-139.94C707.67,-128.27 792.56,-107.37 844.67,-94.54"/>
<polygon fill="midnightblue" stroke="midnightblue" points="845.76,-97.87 854.64,-92.08 844.09,-91.08 845.76,-97.87"/>
</g>
<!-- Node13&#45;&gt;Node15 -->
<g id="edge15" class="edge">
<title>Node13&#45;&gt;Node15</title>
<path fill="none" stroke="midnightblue" d="M611.34,-139.73C593.79,-128.87 563.66,-110.22 542.94,-97.39"/>
<polygon fill="midnightblue" stroke="midnightblue" points="544.78,-94.41 534.44,-92.13 541.1,-100.37 544.78,-94.41"/>
</g>
<!-- Node16 -->
<g id="node16" class="node">
<title>Node16</title>
<g id="a_node16"><a xlink:title=" ">
<polygon fill="none" stroke="#bfbfbf" points="892,-0.5 892,-30.5 987,-30.5 987,-0.5 892,-0.5"/>
<text text-anchor="start" x="900" y="-18.5" font-family="Helvetica,sans-Serif" font-size="10.00">boost/serialization</text>
<text text-anchor="middle" x="939.5" y="-7.5" font-family="Helvetica,sans-Serif" font-size="10.00">/access.hpp</text>
</a>
</g>
</g>
<!-- Node13&#45;&gt;Node16 -->
<g id="edge25" class="edge">
<title>Node13&#45;&gt;Node16</title>
<path fill="none" stroke="midnightblue" d="M646.1,-139.84C696.69,-118.57 827.87,-63.43 896.39,-34.62"/>
<polygon fill="midnightblue" stroke="midnightblue" points="898.16,-37.67 906.03,-30.57 895.45,-31.22 898.16,-37.67"/>
</g>
<!-- Node17 -->
<g id="node17" class="node">
<title>Node17</title>
<g id="a_node17"><a xlink:title=" ">
<polygon fill="none" stroke="#bfbfbf" points="666,-0.5 666,-30.5 761,-30.5 761,-0.5 666,-0.5"/>
<text text-anchor="start" x="674" y="-18.5" font-family="Helvetica,sans-Serif" font-size="10.00">boost/serialization</text>
<text text-anchor="middle" x="713.5" y="-7.5" font-family="Helvetica,sans-Serif" font-size="10.00">/export.hpp</text>
</a>
</g>
</g>
<!-- Node13&#45;&gt;Node17 -->
<g id="edge26" class="edge">
<title>Node13&#45;&gt;Node17</title>
<path fill="none" stroke="midnightblue" d="M631.27,-139.84C644.72,-119.67 678.48,-69.03 698.31,-39.29"/>
<polygon fill="midnightblue" stroke="midnightblue" points="701.34,-41.05 703.98,-30.78 695.52,-37.16 701.34,-41.05"/>
</g>
<!-- Node18 -->
<g id="node18" class="node">
<title>Node18</title>
<g id="a_node18"><a xlink:title=" ">
<polygon fill="none" stroke="#bfbfbf" points="779,-0.5 779,-30.5 874,-30.5 874,-0.5 779,-0.5"/>
<text text-anchor="start" x="787" y="-18.5" font-family="Helvetica,sans-Serif" font-size="10.00">boost/serialization</text>
<text text-anchor="middle" x="826.5" y="-7.5" font-family="Helvetica,sans-Serif" font-size="10.00">/shared_ptr.hpp</text>
</a>
</g>
</g>
<!-- Node13&#45;&gt;Node18 -->
<g id="edge27" class="edge">
<title>Node13&#45;&gt;Node18</title>
<path fill="none" stroke="midnightblue" d="M638.69,-139.84C670.47,-118.97 751.96,-65.45 796.44,-36.24"/>
<polygon fill="midnightblue" stroke="midnightblue" points="798.64,-38.99 805.07,-30.57 794.79,-33.14 798.64,-38.99"/>
</g>
<!-- Node15&#45;&gt;Node10 -->
<g id="edge16" class="edge">
<title>Node15&#45;&gt;Node10</title>
<path fill="none" stroke="midnightblue" d="M469.62,-73C456.86,-70.95 443.19,-68.83 430.5,-67 305.01,-48.91 269.87,-64.19 147.5,-31 145.2,-30.38 142.85,-29.63 140.52,-28.81"/>
<polygon fill="midnightblue" stroke="midnightblue" points="141.75,-25.53 131.17,-25.13 139.19,-32.05 141.75,-25.53"/>
</g>
<!-- Node15&#45;&gt;Node16 -->
<g id="edge17" class="edge">
<title>Node15&#45;&gt;Node16</title>
<path fill="none" stroke="midnightblue" d="M575.25,-75.87C644.58,-68.3 767.83,-53.38 881.97,-31.18"/>
<polygon fill="midnightblue" stroke="midnightblue" points="882.79,-34.58 891.93,-29.22 881.44,-27.71 882.79,-34.58"/>
</g>
<!-- Node15&#45;&gt;Node17 -->
<g id="edge18" class="edge">
<title>Node15&#45;&gt;Node17</title>
<path fill="none" stroke="midnightblue" d="M546.13,-72.87C575.59,-62.95 624.69,-46.41 662.12,-33.81"/>
<polygon fill="midnightblue" stroke="midnightblue" points="663.49,-37.04 671.85,-30.53 661.25,-30.4 663.49,-37.04"/>
</g>
<!-- Node15&#45;&gt;Node18 -->
<g id="edge19" class="edge">
<title>Node15&#45;&gt;Node18</title>
<path fill="none" stroke="midnightblue" d="M566.08,-72.95C614.07,-63.8 692.04,-48.48 769.08,-31.03"/>
<polygon fill="midnightblue" stroke="midnightblue" points="769.98,-34.41 778.96,-28.78 768.43,-27.59 769.98,-34.41"/>
</g>
<!-- Node19 -->
<g id="node19" class="node">
<title>Node19</title>
<g id="a_node19"><a xlink:title=" ">
<polygon fill="none" stroke="#bfbfbf" points="346.5,-0.5 346.5,-30.5 450.5,-30.5 450.5,-0.5 346.5,-0.5"/>
<text text-anchor="start" x="354.5" y="-18.5" font-family="Helvetica,sans-Serif" font-size="10.00">boost/archive/binary</text>
<text text-anchor="middle" x="398.5" y="-7.5" font-family="Helvetica,sans-Serif" font-size="10.00">_iarchive.hpp</text>
</a>
</g>
</g>
<!-- Node15&#45;&gt;Node19 -->
<g id="edge20" class="edge">
<title>Node15&#45;&gt;Node19</title>
<path fill="none" stroke="midnightblue" d="M504.3,-72.87C486.45,-63.36 457.18,-47.77 433.95,-35.39"/>
<polygon fill="midnightblue" stroke="midnightblue" points="435.53,-32.26 425.06,-30.65 432.24,-38.44 435.53,-32.26"/>
</g>
<!-- Node20 -->
<g id="node20" class="node">
<title>Node20</title>
<g id="a_node20"><a xlink:title=" ">
<polygon fill="none" stroke="#bfbfbf" points="468.5,-0.5 468.5,-30.5 572.5,-30.5 572.5,-0.5 468.5,-0.5"/>
<text text-anchor="start" x="476.5" y="-18.5" font-family="Helvetica,sans-Serif" font-size="10.00">boost/archive/binary</text>
<text text-anchor="middle" x="520.5" y="-7.5" font-family="Helvetica,sans-Serif" font-size="10.00">_oarchive.hpp</text>
</a>
</g>
</g>
<!-- Node15&#45;&gt;Node20 -->
<g id="edge21" class="edge">
<title>Node15&#45;&gt;Node20</title>
<path fill="none" stroke="midnightblue" d="M520.5,-72.73C520.5,-64.54 520.5,-51.92 520.5,-40.71"/>
<polygon fill="midnightblue" stroke="midnightblue" points="524,-40.59 520.5,-30.59 517,-40.59 524,-40.59"/>
</g>
<!-- Node21 -->
<g id="node21" class="node">
<title>Node21</title>
<g id="a_node21"><a xlink:title=" ">
<polygon fill="none" stroke="#bfbfbf" points="591,-6 591,-25 648,-25 648,-6 591,-6"/>
<text text-anchor="middle" x="619.5" y="-13" font-family="Helvetica,sans-Serif" font-size="10.00">Color.hpp</text>
</a>
</g>
</g>
<!-- Node15&#45;&gt;Node21 -->
<g id="edge22" class="edge">
<title>Node15&#45;&gt;Node21</title>
<path fill="none" stroke="midnightblue" d="M533.85,-72.73C550.25,-61.96 578.3,-43.55 597.81,-30.74"/>
<polygon fill="midnightblue" stroke="midnightblue" points="599.92,-33.54 606.36,-25.13 596.08,-27.69 599.92,-33.54"/>
</g>
<!-- Node22 -->
<g id="node22" class="node">
<title>Node22</title>
<g id="a_node22"><a xlink:title=" ">
<polygon fill="none" stroke="#bfbfbf" points="157,-6 157,-25 236,-25 236,-6 157,-6"/>
<text text-anchor="middle" x="196.5" y="-13" font-family="Helvetica,sans-Serif" font-size="10.00">Transform.hpp</text>
</a>
</g>
</g>
<!-- Node15&#45;&gt;Node22 -->
<g id="edge23" class="edge">
<title>Node15&#45;&gt;Node22</title>
<path fill="none" stroke="midnightblue" d="M470.6,-72.99C403.4,-61.42 287.4,-41.02 245.5,-31 241.58,-30.06 237.52,-29 233.47,-27.89"/>
<polygon fill="midnightblue" stroke="midnightblue" points="234.15,-24.45 223.58,-25.07 232.23,-31.18 234.15,-24.45"/>
</g>
<!-- Node23 -->
<g id="node23" class="node">
<title>Node23</title>
<g id="a_node23"><a xlink:title=" ">
<polygon fill="none" stroke="#bfbfbf" points="254.5,-6 254.5,-25 328.5,-25 328.5,-6 254.5,-6"/>
<text text-anchor="middle" x="291.5" y="-13" font-family="Helvetica,sans-Serif" font-size="10.00">UIObject.hpp</text>
</a>
</g>
</g>
<!-- Node15&#45;&gt;Node23 -->
<g id="edge24" class="edge">
<title>Node15&#45;&gt;Node23</title>
<path fill="none" stroke="midnightblue" d="M488,-72.91C451.34,-63.13 389.97,-46.5 337.5,-31 334.37,-30.07 331.12,-29.09 327.87,-28.1"/>
<polygon fill="midnightblue" stroke="midnightblue" points="328.79,-24.72 318.21,-25.1 326.72,-31.41 328.79,-24.72"/>
</g>
<!-- Node24&#45;&gt;Node14 -->
<g id="edge29" class="edge">
<title>Node24&#45;&gt;Node14</title>
<path fill="none" stroke="midnightblue" d="M835.86,-139.73C845.62,-129.5 861.97,-112.36 874.05,-99.69"/>
<polygon fill="midnightblue" stroke="midnightblue" points="876.9,-101.78 881.27,-92.13 871.84,-96.95 876.9,-101.78"/>
</g>
<!-- Node25&#45;&gt;Node14 -->
<g id="edge31" class="edge">
<title>Node25&#45;&gt;Node14</title>
<path fill="none" stroke="midnightblue" d="M964.77,-139.73C950.55,-129.11 926.37,-111.05 909.26,-98.26"/>
<polygon fill="midnightblue" stroke="midnightblue" points="911.15,-95.31 901.05,-92.13 906.96,-100.92 911.15,-95.31"/>
</g>
<!-- Node26&#45;&gt;Node14 -->
<g id="edge34" class="edge">
<title>Node26&#45;&gt;Node14</title>
<path fill="none" stroke="midnightblue" d="M1276.36,-201.17C1268.2,-184.87 1248.4,-150.23 1220.5,-134 1209,-127.31 1044.56,-104.35 951.89,-91.82"/>
<polygon fill="midnightblue" stroke="midnightblue" points="952.16,-88.32 941.78,-90.45 951.22,-95.26 952.16,-88.32"/>
</g>
<!-- Node27 -->
<g id="node27" class="node">
<title>Node27</title>
<g id="a_node27"><a xlink:href="MarioState_8hpp.html" target="_top" xlink:title=" ">
<polygon fill="none" stroke="black" points="1022,-67.5 1022,-97.5 1125,-97.5 1125,-67.5 1022,-67.5"/>
<text text-anchor="start" x="1030" y="-85.5" font-family="Helvetica,sans-Serif" font-size="10.00">Scripts/MarioStates</text>
<text text-anchor="middle" x="1073.5" y="-74.5" font-family="Helvetica,sans-Serif" font-size="10.00">/MarioState.hpp</text>
</a>
</g>
</g>
<!-- Node26&#45;&gt;Node27 -->
<g id="edge35" class="edge">
<title>Node26&#45;&gt;Node27</title>
<path fill="none" stroke="midnightblue" d="M1330.27,-201.45C1351.33,-195.1 1373.87,-184.09 1386.5,-165 1394.1,-153.51 1395.43,-144.49 1386.5,-134 1354.89,-96.88 1217.11,-86.95 1135.26,-84.36"/>
<polygon fill="midnightblue" stroke="midnightblue" points="1135.18,-80.85 1125.08,-84.06 1134.97,-87.85 1135.18,-80.85"/>
</g>
<!-- Node30 -->
<g id="node30" class="node">
<title>Node30</title>
<g id="a_node30"><a xlink:href="SmallMarioState_8hpp.html" target="_top" xlink:title=" ">
<polygon fill="none" stroke="black" points="1267.5,-134.5 1267.5,-164.5 1377.5,-164.5 1377.5,-134.5 1267.5,-134.5"/>
<text text-anchor="start" x="1275.5" y="-152.5" font-family="Helvetica,sans-Serif" font-size="10.00">Scripts/MarioStates</text>
<text text-anchor="middle" x="1322.5" y="-141.5" font-family="Helvetica,sans-Serif" font-size="10.00">/SmallMarioState.hpp</text>
</a>
</g>
</g>
<!-- Node26&#45;&gt;Node30 -->
<g id="edge41" class="edge">
<title>Node26&#45;&gt;Node30</title>
<path fill="none" stroke="midnightblue" d="M1286.52,-201.48C1291.78,-194.02 1299.66,-182.85 1306.71,-172.87"/>
<polygon fill="midnightblue" stroke="midnightblue" points="1309.69,-174.71 1312.6,-164.52 1303.98,-170.67 1309.69,-174.71"/>
</g>
<!-- Node27&#45;&gt;Node16 -->
<g id="edge36" class="edge">
<title>Node27&#45;&gt;Node16</title>
<path fill="none" stroke="midnightblue" d="M1044.42,-67.4C1024.85,-57.9 998.82,-45.28 977.59,-34.98"/>
<polygon fill="midnightblue" stroke="midnightblue" points="979.04,-31.79 968.52,-30.58 975.99,-38.09 979.04,-31.79"/>
</g>
<!-- Node27&#45;&gt;Node17 -->
<g id="edge37" class="edge">
<title>Node27&#45;&gt;Node17</title>
<path fill="none" stroke="midnightblue" d="M1021.87,-74.35C963.25,-65.91 864.59,-50.76 771.01,-31.22"/>
<polygon fill="midnightblue" stroke="midnightblue" points="771.6,-27.77 761.09,-29.13 770.15,-34.62 771.6,-27.77"/>
</g>
<!-- Node27&#45;&gt;Node18 -->
<g id="edge38" class="edge">
<title>Node27&#45;&gt;Node18</title>
<path fill="none" stroke="midnightblue" d="M1021.72,-67.87C981.38,-57.26 925.43,-42.53 883.76,-31.57"/>
<polygon fill="midnightblue" stroke="midnightblue" points="884.59,-28.17 874.03,-29.01 882.81,-34.94 884.59,-28.17"/>
</g>
<!-- Node28 -->
<g id="node28" class="node">
<title>Node28</title>
<g id="a_node28"><a xlink:title=" ">
<polygon fill="none" stroke="#bfbfbf" points="1005,-6 1005,-25 1142,-25 1142,-6 1005,-6"/>
<text text-anchor="middle" x="1073.5" y="-13" font-family="Helvetica,sans-Serif" font-size="10.00">Texture/AnimatedSprite.hpp</text>
</a>
</g>
</g>
<!-- Node27&#45;&gt;Node28 -->
<g id="edge39" class="edge">
<title>Node27&#45;&gt;Node28</title>
<path fill="none" stroke="midnightblue" d="M1073.5,-67.4C1073.5,-58.06 1073.5,-45.71 1073.5,-35.52"/>
<polygon fill="midnightblue" stroke="midnightblue" points="1077,-35.19 1073.5,-25.19 1070,-35.19 1077,-35.19"/>
</g>
<!-- Node29 -->
<g id="node29" class="node">
<title>Node29</title>
<g id="a_node29"><a xlink:title=" ">
<polygon fill="none" stroke="#bfbfbf" points="1160,-6 1160,-25 1217,-25 1217,-6 1160,-6"/>
<text text-anchor="middle" x="1188.5" y="-13" font-family="Helvetica,sans-Serif" font-size="10.00">Point.hpp</text>
</a>
</g>
</g>
<!-- Node27&#45;&gt;Node29 -->
<g id="edge40" class="edge">
<title>Node27&#45;&gt;Node29</title>
<path fill="none" stroke="midnightblue" d="M1098.45,-67.4C1118.1,-56.29 1145.29,-40.92 1164.65,-29.98"/>
<polygon fill="midnightblue" stroke="midnightblue" points="1166.47,-32.97 1173.45,-25.01 1163.02,-26.88 1166.47,-32.97"/>
</g>
<!-- Node30&#45;&gt;Node27 -->
<g id="edge42" class="edge">
<title>Node30&#45;&gt;Node27</title>
<path fill="none" stroke="midnightblue" d="M1268.78,-134.48C1229.55,-124.24 1176.29,-110.33 1135.3,-99.63"/>
<polygon fill="midnightblue" stroke="midnightblue" points="1135.98,-96.19 1125.42,-97.05 1134.21,-102.97 1135.98,-96.19"/>
</g>
</g>
</svg>
        <g id="navigator" transform="translate(0 0)" fill="#404254">
                <rect fill="#f2f5e9" fill-opacity="0.5" stroke="#606060" stroke-width=".5" x="0" y="0" width="60" height="60"/>
                <use id="zoomplus" xlink:href="#zoomPlus" x="17" y="9" onmousedown="handleZoom(evt,'in')"/>
                <use id="zoomminus" xlink:href="#zoomMin" x="42" y="9" onmousedown="handleZoom(evt,'out')"/>
                <use id="reset" xlink:href="#resetDef" x="30" y="36" onmousedown="handleReset()"/>
                <g id="arrowUp" xlink:href="#dirArrow" transform="translate(30 24)" onmousedown="handlePan(0,-1)">
                  <use xlink:href="#rim" fill="#404040">
                        <set attributeName="fill" to="#808080" begin="arrowUp.mouseover" end="arrowUp.mouseout"/>
                  </use>
                  <path fill="none" stroke="white" stroke-width="1.5" d="M0,-3.0v7 M-2.5,-0.5L0,-3.0L2.5,-0.5"/>
                </g>
                <g id="arrowRight" xlink:href="#dirArrow" transform="rotate(90) translate(36 -43)" onmousedown="handlePan(1,0)">
                  <use xlink:href="#rim" fill="#404040">
                        <set attributeName="fill" to="#808080" begin="arrowRight.mouseover" end="arrowRight.mouseout"/>
                  </use>
                  <path fill="none" stroke="white" stroke-width="1.5" d="M0,-3.0v7 M-2.5,-0.5L0,-3.0L2.5,-0.5"/>
                </g>
                <g id="arrowDown" xlink:href="#dirArrow" transform="rotate(180) translate(-30 -48)" onmousedown="handlePan(0,1)">
                  <use xlink:href="#rim" fill="#404040">
                        <set attributeName="fill" to="#808080" begin="arrowDown.mouseover" end="arrowDown.mouseout"/>
                  </use>
                  <path fill="none" stroke="white" stroke-width="1.5" d="M0,-3.0v7 M-2.5,-0.5L0,-3.0L2.5,-0.5"/>
                </g>
                <g id="arrowLeft" xlink:href="#dirArrow" transform="rotate(270) translate(-36 17)" onmousedown="handlePan(-1,0)">
                  <use xlink:href="#rim" fill="#404040">
                        <set attributeName="fill" to="#808080" begin="arrowLeft.mouseover" end="arrowLeft.mouseout"/>
                  </use>
                  <path fill="none" stroke="white" stroke-width="1.5" d="M0,-3.0v7 M-2.5,-0.5L0,-3.0L2.5,-0.5"/>
                </g>
        </g>
        <svg viewBox="0 0 15 15" width="100%" height="30px" preserveAspectRatio="xMaxYMin meet">
         <g id="arrow_out" transform="scale(0.3 0.3)">
          <a xlink:href="NetworkingClient_8cpp__incl_org.svg" target="_base">
           <rect id="button" ry="5" rx="5" y="6" x="6" height="38" width="38"
                fill="#f2f5e9" fill-opacity="0.5" stroke="#606060" stroke-width="1.0"/>
           <path id="arrow"
             d="M 11.500037,31.436501 C 11.940474,20.09759 22.043105,11.32322 32.158766,21.979434 L 37.068811,17.246167 C 37.068811,17.246167 37.088388,32 37.088388,32 L 22.160133,31.978069 C 22.160133,31.978069 26.997745,27.140456 26.997745,27.140456 C 18.528582,18.264221 13.291696,25.230495 11.500037,31.436501 z"
             style="fill:#404040;"/>
          </a>
         </g>
        </svg>
</svg>
