<?xml version="1.0" encoding="UTF-8" standalone="no"?>
<!DOCTYPE svg PUBLIC "-//W3C//DTD SVG 1.1//EN"
 "http://www.w3.org/Graphics/SVG/1.1/DTD/svg11.dtd">
<!-- Generated by graphviz version 2.44.0 ()
 -->
<!-- Title: src/Scripts/PlayerInputBehaviour.cpp Pages: 1 -->
<svg width="896pt" height="151pt"
 viewBox="0.00 0.00 896.00 151.00" xmlns="http://www.w3.org/2000/svg" xmlns:xlink="http://www.w3.org/1999/xlink">
<g id="graph0" class="graph" transform="scale(1 1) rotate(0) translate(4 147)">
<title>src/Scripts/PlayerInputBehaviour.cpp</title>
<!-- Node1 -->
<g id="node1" class="node">
<title>Node1</title>
<g id="a_node1"><a xlink:title=" ">
<polygon fill="#bfbfbf" stroke="black" points="408.5,-123.5 408.5,-142.5 585.5,-142.5 585.5,-123.5 408.5,-123.5"/>
<text text-anchor="middle" x="497" y="-130.5" font-family="Helvetica,sans-Serif" font-size="10.00">src/Scripts/PlayerInputBehaviour.cpp</text>
</a>
</g>
</g>
<!-- Node2 -->
<g id="node2" class="node">
<title>Node2</title>
<g id="a_node2"><a xlink:href="PlayerInputBehaviour_8hpp.html" target="_top" xlink:title=" ">
<polygon fill="none" stroke="black" points="106.5,-67.5 106.5,-86.5 233.5,-86.5 233.5,-67.5 106.5,-67.5"/>
<text text-anchor="middle" x="170" y="-74.5" font-family="Helvetica,sans-Serif" font-size="10.00">PlayerInputBehaviour.hpp</text>
</a>
</g>
</g>
<!-- Node1&#45;&gt;Node2 -->
<g id="edge1" class="edge">
<title>Node1&#45;&gt;Node2</title>
<path fill="none" stroke="midnightblue" d="M445.19,-123.44C387.18,-113.87 293.26,-98.36 231.56,-88.17"/>
<polygon fill="midnightblue" stroke="midnightblue" points="232.01,-84.69 221.57,-86.52 230.87,-91.6 232.01,-84.69"/>
</g>
<!-- Node6 -->
<g id="node6" class="node">
<title>Node6</title>
<g id="a_node6"><a xlink:title=" ">
<polygon fill="none" stroke="#bfbfbf" points="251.5,-67.5 251.5,-86.5 340.5,-86.5 340.5,-67.5 251.5,-67.5"/>
<text text-anchor="middle" x="296" y="-74.5" font-family="Helvetica,sans-Serif" font-size="10.00">GameObject.hpp</text>
</a>
</g>
</g>
<!-- Node1&#45;&gt;Node6 -->
<g id="edge5" class="edge">
<title>Node1&#45;&gt;Node6</title>
<path fill="none" stroke="midnightblue" d="M465.15,-123.44C430.6,-114.16 375.32,-99.31 337.42,-89.13"/>
<polygon fill="midnightblue" stroke="midnightblue" points="338.27,-85.73 327.7,-86.52 336.45,-92.49 338.27,-85.73"/>
</g>
<!-- Node7 -->
<g id="node7" class="node">
<title>Node7</title>
<g id="a_node7"><a xlink:title=" ">
<polygon fill="none" stroke="#bfbfbf" points="359,-67.5 359,-86.5 437,-86.5 437,-67.5 359,-67.5"/>
<text text-anchor="middle" x="398" y="-74.5" font-family="Helvetica,sans-Serif" font-size="10.00">RigidBody.hpp</text>
</a>
</g>
</g>
<!-- Node1&#45;&gt;Node7 -->
<g id="edge6" class="edge">
<title>Node1&#45;&gt;Node7</title>
<path fill="none" stroke="midnightblue" d="M481.09,-123.32C465.36,-114.74 441.06,-101.49 422.79,-91.52"/>
<polygon fill="midnightblue" stroke="midnightblue" points="424.32,-88.37 413.87,-86.65 420.97,-94.52 424.32,-88.37"/>
</g>
<!-- Node8 -->
<g id="node8" class="node">
<title>Node8</title>
<g id="a_node8"><a xlink:title=" ">
<polygon fill="none" stroke="#bfbfbf" points="455.5,-67.5 455.5,-86.5 538.5,-86.5 538.5,-67.5 455.5,-67.5"/>
<text text-anchor="middle" x="497" y="-74.5" font-family="Helvetica,sans-Serif" font-size="10.00">BoxCollider.hpp</text>
</a>
</g>
</g>
<!-- Node1&#45;&gt;Node8 -->
<g id="edge7" class="edge">
<title>Node1&#45;&gt;Node8</title>
<path fill="none" stroke="midnightblue" d="M497,-123.08C497,-116.01 497,-105.86 497,-96.99"/>
<polygon fill="midnightblue" stroke="midnightblue" points="500.5,-96.75 497,-86.75 493.5,-96.75 500.5,-96.75"/>
</g>
<!-- Node9 -->
<g id="node9" class="node">
<title>Node9</title>
<g id="a_node9"><a xlink:title=" ">
<polygon fill="none" stroke="#bfbfbf" points="556.5,-67.5 556.5,-86.5 699.5,-86.5 699.5,-67.5 556.5,-67.5"/>
<text text-anchor="middle" x="628" y="-74.5" font-family="Helvetica,sans-Serif" font-size="10.00">Physics/PlayerRigidBody.hpp</text>
</a>
</g>
</g>
<!-- Node1&#45;&gt;Node9 -->
<g id="edge8" class="edge">
<title>Node1&#45;&gt;Node9</title>
<path fill="none" stroke="midnightblue" d="M517.76,-123.44C539.32,-114.56 573.26,-100.56 597.79,-90.45"/>
<polygon fill="midnightblue" stroke="midnightblue" points="599.43,-93.56 607.34,-86.52 596.76,-87.09 599.43,-93.56"/>
</g>
<!-- Node10 -->
<g id="node10" class="node">
<title>Node10</title>
<g id="a_node10"><a xlink:title=" ">
<polygon fill="none" stroke="#bfbfbf" points="718,-67.5 718,-86.5 774,-86.5 774,-67.5 718,-67.5"/>
<text text-anchor="middle" x="746" y="-74.5" font-family="Helvetica,sans-Serif" font-size="10.00">Input.hpp</text>
</a>
</g>
</g>
<!-- Node1&#45;&gt;Node10 -->
<g id="edge9" class="edge">
<title>Node1&#45;&gt;Node10</title>
<path fill="none" stroke="midnightblue" d="M538.91,-123.48C579.65,-115.12 643.5,-101.79 707.83,-87.22"/>
<polygon fill="midnightblue" stroke="midnightblue" points="708.76,-90.6 717.74,-84.97 707.21,-83.77 708.76,-90.6"/>
</g>
<!-- Node11 -->
<g id="node11" class="node">
<title>Node11</title>
<g id="a_node11"><a xlink:title=" ">
<polygon fill="none" stroke="#bfbfbf" points="792,-67.5 792,-86.5 888,-86.5 888,-67.5 792,-67.5"/>
<text text-anchor="middle" x="840" y="-74.5" font-family="Helvetica,sans-Serif" font-size="10.00">Engine/Engine.hpp</text>
</a>
</g>
</g>
<!-- Node1&#45;&gt;Node11 -->
<g id="edge10" class="edge">
<title>Node1&#45;&gt;Node11</title>
<path fill="none" stroke="midnightblue" d="M551.3,-123.47C606.69,-114.76 695.43,-100.8 781.82,-87.19"/>
<polygon fill="midnightblue" stroke="midnightblue" points="782.47,-90.63 791.8,-85.61 781.38,-83.71 782.47,-90.63"/>
</g>
<!-- Node3 -->
<g id="node3" class="node">
<title>Node3</title>
<g id="a_node3"><a xlink:title=" ">
<polygon fill="none" stroke="#bfbfbf" points="0,-6 0,-25 104,-25 104,-6 0,-6"/>
<text text-anchor="middle" x="52" y="-13" font-family="Helvetica,sans-Serif" font-size="10.00">BehaviourScript.hpp</text>
</a>
</g>
</g>
<!-- Node2&#45;&gt;Node3 -->
<g id="edge2" class="edge">
<title>Node2&#45;&gt;Node3</title>
<path fill="none" stroke="midnightblue" d="M153.09,-67.48C133.47,-57.58 100.87,-41.14 78.01,-29.62"/>
<polygon fill="midnightblue" stroke="midnightblue" points="79.38,-26.39 68.88,-25.01 76.23,-32.64 79.38,-26.39"/>
</g>
<!-- Node4 -->
<g id="node4" class="node">
<title>Node4</title>
<g id="a_node4"><a xlink:title=" ">
<polygon fill="none" stroke="#bfbfbf" points="122.5,-0.5 122.5,-30.5 217.5,-30.5 217.5,-0.5 122.5,-0.5"/>
<text text-anchor="start" x="130.5" y="-18.5" font-family="Helvetica,sans-Serif" font-size="10.00">boost/serialization</text>
<text text-anchor="middle" x="170" y="-7.5" font-family="Helvetica,sans-Serif" font-size="10.00">/access.hpp</text>
</a>
</g>
</g>
<!-- Node2&#45;&gt;Node4 -->
<g id="edge3" class="edge">
<title>Node2&#45;&gt;Node4</title>
<path fill="none" stroke="midnightblue" d="M170,-67.48C170,-60.47 170,-50.19 170,-40.7"/>
<polygon fill="midnightblue" stroke="midnightblue" points="173.5,-40.52 170,-30.52 166.5,-40.52 173.5,-40.52"/>
</g>
<!-- Node5 -->
<g id="node5" class="node">
<title>Node5</title>
<g id="a_node5"><a xlink:title=" ">
<polygon fill="none" stroke="#bfbfbf" points="235.5,-0.5 235.5,-30.5 330.5,-30.5 330.5,-0.5 235.5,-0.5"/>
<text text-anchor="start" x="243.5" y="-18.5" font-family="Helvetica,sans-Serif" font-size="10.00">boost/serialization</text>
<text text-anchor="middle" x="283" y="-7.5" font-family="Helvetica,sans-Serif" font-size="10.00">/export.hpp</text>
</a>
</g>
</g>
<!-- Node2&#45;&gt;Node5 -->
<g id="edge4" class="edge">
<title>Node2&#45;&gt;Node5</title>
<path fill="none" stroke="midnightblue" d="M186.19,-67.48C202.07,-59.12 226.8,-46.09 247.3,-35.3"/>
<polygon fill="midnightblue" stroke="midnightblue" points="249.15,-38.28 256.37,-30.52 245.89,-32.09 249.15,-38.28"/>
</g>
</g>
</svg>
