<svg xmlns="http://www.w3.org/2000/svg" xmlns:xlink="http://www.w3.org/1999/xlink" width="565pt" height="380" viewBox="0 0 564.5 285"><g id="graph0" class="graph" transform="scale(1 1) rotate(0) translate(4 281)"><title>src/Scripts/StarBehaviour.cpp</title><g id="node1" class="node"><title>Node1</title><g id="a_node1"><a><polygon fill="#bfbfbf" stroke="#000" points="147 -257.5 147 -276.5 293 -276.5 293 -257.5 147 -257.5"/><text x="220" y="-264.5" font-family="Helvetica,sans-Serif" font-size="10" text-anchor="middle">src/Scripts/StarBehaviour.cpp</text></a></g></g><g id="node2" class="node"><title>Node2</title><g id="a_node2"><a target="_top" xlink:href="StarBehaviour_8hpp.html"><polygon fill="none" stroke="#000" points="0 -201.5 0 -220.5 96 -220.5 96 -201.5 0 -201.5"/><text x="48" y="-208.5" font-family="Helvetica,sans-Serif" font-size="10" text-anchor="middle">StarBehaviour.hpp</text></a></g></g><g id="edge1" class="edge"><title>Node1-&gt;Node2</title><path fill="none" stroke="#191970" d="M192.75,-257.44C163.56,-248.28 117.08,-233.69 84.69,-223.52"/><polygon fill="#191970" stroke="#191970" points="85.72 -220.17 75.13 -220.52 83.62 -226.85 85.72 -220.17"/></g><g id="node4" class="node"><title>Node4</title><g id="a_node4"><a><polygon fill="none" stroke="#bfbfbf" points="114 -201.5 114 -220.5 210 -220.5 210 -201.5 114 -201.5"/><text x="162" y="-208.5" font-family="Helvetica,sans-Serif" font-size="10" text-anchor="middle">Engine/Engine.hpp</text></a></g></g><g id="edge3" class="edge"><title>Node1-&gt;Node4</title><path fill="none" stroke="#191970" d="M210.68,-257.32C202.11,-249.34 189.19,-237.31 178.81,-227.65"/><polygon fill="#191970" stroke="#191970" points="181.19 -225.09 171.49 -220.83 176.42 -230.21 181.19 -225.09"/></g><g id="node5" class="node"><title>Node5</title><g id="a_node5"><a target="_top" xlink:href="MarioBehaviour_8hpp.html"><polygon fill="none" stroke="#000" points="228 -201.5 228 -220.5 330 -220.5 330 -201.5 228 -201.5"/><text x="279" y="-208.5" font-family="Helvetica,sans-Serif" font-size="10" text-anchor="middle">MarioBehaviour.hpp</text></a></g></g><g id="edge4" class="edge"><title>Node1-&gt;Node5</title><path fill="none" stroke="#191970" d="M229.48,-257.32C238.2,-249.34 251.34,-237.31 261.9,-227.65"/><polygon fill="#191970" stroke="#191970" points="264.33 -230.17 269.35 -220.83 259.61 -225 264.33 -230.17"/></g><g id="node13" class="node"><title>Node13</title><g id="a_node13"><a target="_top" xlink:href="StarMarioState_8hpp.html"><polygon fill="none" stroke="#000" points="352.5 -134.5 352.5 -164.5 455.5 -164.5 455.5 -134.5 352.5 -134.5"/><text x="360.5" y="-152.5" font-family="Helvetica,sans-Serif" font-size="10" text-anchor="start">Scripts/MarioStates</text><text x="404" y="-141.5" font-family="Helvetica,sans-Serif" font-size="10" text-anchor="middle">/StarMarioState.hpp</text></a></g></g><g id="edge14" class="edge"><title>Node1-&gt;Node13</title><path fill="none" stroke="#191970" d="M254.84,-257.46C279.71,-250.31 313.19,-238.42 339,-221 358.33,-207.95 375.96,-188.08 387.97,-172.75"/><polygon fill="#191970" stroke="#191970" points="390.77 -174.86 394.04 -164.78 385.2 -170.62 390.77 -174.86"/></g><g id="node3" class="node"><title>Node3</title><g id="a_node3"><a><polygon fill="none" stroke="#bfbfbf" points="30 -140 30 -159 134 -159 134 -140 30 -140"/><text x="82" y="-147" font-family="Helvetica,sans-Serif" font-size="10" text-anchor="middle">BehaviourScript.hpp</text></a></g></g><g id="edge2" class="edge"><title>Node2-&gt;Node3</title><path fill="none" stroke="#191970" d="M52.87,-201.48C57.87,-192.73 65.79,-178.87 72.11,-167.81"/><polygon fill="#191970" stroke="#191970" points="75.22 -169.43 77.14 -159.01 69.14 -165.96 75.22 -169.43"/></g><g id="edge5" class="edge"><title>Node5-&gt;Node3</title><path fill="none" stroke="#191970" d="M250.77,-201.48C216.4,-191.09 158.19,-173.51 119.92,-161.95"/><polygon fill="#191970" stroke="#191970" points="120.76 -158.55 110.17 -159.01 118.73 -165.25 120.76 -158.55"/></g><g id="node6" class="node"><title>Node6</title><g id="a_node6"><a target="_top" xlink:href="MarioState_8hpp.html"><polygon fill="none" stroke="#000" points="227.5 -67.5 227.5 -97.5 330.5 -97.5 330.5 -67.5 227.5 -67.5"/><text x="235.5" y="-85.5" font-family="Helvetica,sans-Serif" font-size="10" text-anchor="start">Scripts/MarioStates</text><text x="279" y="-74.5" font-family="Helvetica,sans-Serif" font-size="10" text-anchor="middle">/MarioState.hpp</text></a></g></g><g id="edge6" class="edge"><title>Node5-&gt;Node6</title><path fill="none" stroke="#191970" d="M257.52,-201.36C242.61,-194.09 223.89,-182.12 215,-165 208.65,-152.77 208.99,-146.4 215,-134 221.05,-121.52 231.85,-111.19 242.88,-103.2"/><polygon fill="#191970" stroke="#191970" points="244.93 -106.03 251.28 -97.54 241.02 -100.22 244.93 -106.03"/></g><g id="node12" class="node"><title>Node12</title><g id="a_node12"><a target="_top" xlink:href="SmallMarioState_8hpp.html"><polygon fill="none" stroke="#000" points="224 -134.5 224 -164.5 334 -164.5 334 -134.5 224 -134.5"/><text x="232" y="-152.5" font-family="Helvetica,sans-Serif" font-size="10" text-anchor="start">Scripts/MarioStates</text><text x="279" y="-141.5" font-family="Helvetica,sans-Serif" font-size="10" text-anchor="middle">/SmallMarioState.hpp</text></a></g></g><g id="edge12" class="edge"><title>Node5-&gt;Node12</title><path fill="none" stroke="#191970" d="M279,-201.48C279,-194.47 279,-184.19 279,-174.7"/><polygon fill="#191970" stroke="#191970" points="282.5 -174.52 279 -164.52 275.5 -174.52 282.5 -174.52"/></g><g id="node7" class="node"><title>Node7</title><g id="a_node7"><a><polygon fill="none" stroke="#bfbfbf" points="5.5 -.5 5.5 -30.5 100.5 -30.5 100.5 -.5 5.5 -.5"/><text x="13.5" y="-18.5" font-family="Helvetica,sans-Serif" font-size="10" text-anchor="start">boost/serialization</text><text x="53" y="-7.5" font-family="Helvetica,sans-Serif" font-size="10" text-anchor="middle">/access.hpp</text></a></g></g><g id="edge7" class="edge"><title>Node6-&gt;Node7</title><path fill="none" stroke="#191970" d="M230.24,-67.48C194.98,-57.34 147.23,-43.6 110.17,-32.94"/><polygon fill="#191970" stroke="#191970" points="111.09 -29.56 100.51 -30.16 109.15 -36.29 111.09 -29.56"/></g><g id="node8" class="node"><title>Node8</title><g id="a_node8"><a><polygon fill="none" stroke="#bfbfbf" points="118.5 -.5 118.5 -30.5 213.5 -30.5 213.5 -.5 118.5 -.5"/><text x="126.5" y="-18.5" font-family="Helvetica,sans-Serif" font-size="10" text-anchor="start">boost/serialization</text><text x="166" y="-7.5" font-family="Helvetica,sans-Serif" font-size="10" text-anchor="middle">/export.hpp</text></a></g></g><g id="edge8" class="edge"><title>Node6-&gt;Node8</title><path fill="none" stroke="#191970" d="M254.48,-67.4C238.34,-58.11 217.01,-45.84 199.33,-35.67"/><polygon fill="#191970" stroke="#191970" points="200.88 -32.53 190.47 -30.58 197.39 -38.6 200.88 -32.53"/></g><g id="node9" class="node"><title>Node9</title><g id="a_node9"><a><polygon fill="none" stroke="#bfbfbf" points="231.5 -.5 231.5 -30.5 326.5 -30.5 326.5 -.5 231.5 -.5"/><text x="239.5" y="-18.5" font-family="Helvetica,sans-Serif" font-size="10" text-anchor="start">boost/serialization</text><text x="279" y="-7.5" font-family="Helvetica,sans-Serif" font-size="10" text-anchor="middle">/shared_ptr.hpp</text></a></g></g><g id="edge9" class="edge"><title>Node6-&gt;Node9</title><path fill="none" stroke="#191970" d="M279,-67.4C279,-59.64 279,-49.81 279,-40.86"/><polygon fill="#191970" stroke="#191970" points="282.5 -40.58 279 -30.58 275.5 -40.58 282.5 -40.58"/></g><g id="node10" class="node"><title>Node10</title><g id="a_node10"><a><polygon fill="none" stroke="#bfbfbf" points="344.5 -6 344.5 -25 481.5 -25 481.5 -6 344.5 -6"/><text x="413" y="-13" font-family="Helvetica,sans-Serif" font-size="10" text-anchor="middle">Texture/AnimatedSprite.hpp</text></a></g></g><g id="edge10" class="edge"><title>Node6-&gt;Node10</title><path fill="none" stroke="#191970" d="M308.08,-67.4C331.38,-56.09 363.81,-40.36 386.43,-29.39"/><polygon fill="#191970" stroke="#191970" points="387.99 -32.52 395.46 -25.01 384.94 -26.22 387.99 -32.52"/></g><g id="node11" class="node"><title>Node11</title><g id="a_node11"><a><polygon fill="none" stroke="#bfbfbf" points="499.5 -6 499.5 -25 556.5 -25 556.5 -6 499.5 -6"/><text x="528" y="-13" font-family="Helvetica,sans-Serif" font-size="10" text-anchor="middle">Point.hpp</text></a></g></g><g id="edge11" class="edge"><title>Node6-&gt;Node11</title><path fill="none" stroke="#191970" d="M330.52,-71.33C373.79,-62.3 437.02,-47.91 491,-31 493.28,-30.29 495.62,-29.5 497.96,-28.68"/><polygon fill="#191970" stroke="#191970" points="499.29 -31.91 507.44 -25.15 496.85 -25.35 499.29 -31.91"/></g><g id="edge13" class="edge"><title>Node12-&gt;Node6</title><path fill="none" stroke="#191970" d="M279,-134.4C279,-126.64 279,-116.81 279,-107.86"/><polygon fill="#191970" stroke="#191970" points="282.5 -107.58 279 -97.58 275.5 -107.58 282.5 -107.58"/></g><g id="edge15" class="edge"><title>Node13-&gt;Node6</title><path fill="none" stroke="#191970" d="M376.88,-134.4C358.78,-124.98 334.77,-112.5 315.07,-102.26"/><polygon fill="#191970" stroke="#191970" points="316.56 -99.08 306.07 -97.58 313.33 -105.3 316.56 -99.08"/></g></g></svg>