<svg xmlns="http://www.w3.org/2000/svg" xmlns:xlink="http://www.w3.org/1999/xlink" width="559pt" height="216" viewBox="0 0 559 162"><g id="graph0" class="graph" transform="scale(1 1) rotate(0) translate(4 158)"><title>src/Scripts/MarioStates/StarMarioState.hpp</title><g id="node1" class="node"><title>Node1</title><g id="a_node1"><a><polygon fill="#bfbfbf" stroke="#000" points="214 -123.5 214 -153.5 333 -153.5 333 -123.5 214 -123.5"/><text x="222" y="-141.5" font-family="Helvetica,sans-Serif" font-size="10" text-anchor="start">src/Scripts/MarioStates</text><text x="273.5" y="-130.5" font-family="Helvetica,sans-Serif" font-size="10" text-anchor="middle">/StarMarioState.hpp</text></a></g></g><g id="node2" class="node"><title>Node2</title><g id="a_node2"><a target="_top" xlink:href="MarioState_8hpp.html"><polygon fill="none" stroke="#000" points="232.5 -67.5 232.5 -86.5 314.5 -86.5 314.5 -67.5 232.5 -67.5"/><text x="273.5" y="-74.5" font-family="Helvetica,sans-Serif" font-size="10" text-anchor="middle">MarioState.hpp</text></a></g></g><g id="edge1" class="edge"><title>Node1-&gt;Node2</title><path fill="none" stroke="#191970" d="M273.5,-123.4C273.5,-115.47 273.5,-105.46 273.5,-96.86"/><polygon fill="#191970" stroke="#191970" points="277 -96.66 273.5 -86.66 270 -96.66 277 -96.66"/></g><g id="node3" class="node"><title>Node3</title><g id="a_node3"><a><polygon fill="none" stroke="#bfbfbf" points="0 -.5 0 -30.5 95 -30.5 95 -.5 0 -.5"/><text x="8" y="-18.5" font-family="Helvetica,sans-Serif" font-size="10" text-anchor="start">boost/serialization</text><text x="47.5" y="-7.5" font-family="Helvetica,sans-Serif" font-size="10" text-anchor="middle">/access.hpp</text></a></g></g><g id="edge2" class="edge"><title>Node2-&gt;Node3</title><path fill="none" stroke="#191970" d="M241.12,-67.48C205.68,-58.14 148.16,-43 105,-31.64"/><polygon fill="#191970" stroke="#191970" points="105.76 -28.22 95.2 -29.06 103.98 -34.99 105.76 -28.22"/></g><g id="node4" class="node"><title>Node4</title><g id="a_node4"><a><polygon fill="none" stroke="#bfbfbf" points="113 -.5 113 -30.5 208 -30.5 208 -.5 113 -.5"/><text x="121" y="-18.5" font-family="Helvetica,sans-Serif" font-size="10" text-anchor="start">boost/serialization</text><text x="160.5" y="-7.5" font-family="Helvetica,sans-Serif" font-size="10" text-anchor="middle">/export.hpp</text></a></g></g><g id="edge3" class="edge"><title>Node2-&gt;Node4</title><path fill="none" stroke="#191970" d="M257.31,-67.48C241.43,-59.12 216.7,-46.09 196.2,-35.3"/><polygon fill="#191970" stroke="#191970" points="197.61 -32.09 187.13 -30.52 194.35 -38.28 197.61 -32.09"/></g><g id="node5" class="node"><title>Node5</title><g id="a_node5"><a><polygon fill="none" stroke="#bfbfbf" points="226 -.5 226 -30.5 321 -30.5 321 -.5 226 -.5"/><text x="234" y="-18.5" font-family="Helvetica,sans-Serif" font-size="10" text-anchor="start">boost/serialization</text><text x="273.5" y="-7.5" font-family="Helvetica,sans-Serif" font-size="10" text-anchor="middle">/shared_ptr.hpp</text></a></g></g><g id="edge4" class="edge"><title>Node2-&gt;Node5</title><path fill="none" stroke="#191970" d="M273.5,-67.48C273.5,-60.47 273.5,-50.19 273.5,-40.7"/><polygon fill="#191970" stroke="#191970" points="277 -40.52 273.5 -30.52 270 -40.52 277 -40.52"/></g><g id="node6" class="node"><title>Node6</title><g id="a_node6"><a><polygon fill="none" stroke="#bfbfbf" points="339 -6 339 -25 476 -25 476 -6 339 -6"/><text x="407.5" y="-13" font-family="Helvetica,sans-Serif" font-size="10" text-anchor="middle">Texture/AnimatedSprite.hpp</text></a></g></g><g id="edge5" class="edge"><title>Node2-&gt;Node6</title><path fill="none" stroke="#191970" d="M292.7,-67.48C315.29,-57.45 353,-40.7 379,-29.15"/><polygon fill="#191970" stroke="#191970" points="380.62 -32.27 388.34 -25.01 377.78 -25.87 380.62 -32.27"/></g><g id="node7" class="node"><title>Node7</title><g id="a_node7"><a><polygon fill="none" stroke="#bfbfbf" points="494 -6 494 -25 551 -25 551 -6 494 -6"/><text x="522.5" y="-13" font-family="Helvetica,sans-Serif" font-size="10" text-anchor="middle">Point.hpp</text></a></g></g><g id="edge6" class="edge"><title>Node2-&gt;Node7</title><path fill="none" stroke="#191970" d="M314.64,-69.34C357.73,-61.88 427.11,-48.51 485.5,-31 487.93,-30.27 490.42,-29.45 492.91,-28.59"/><polygon fill="#191970" stroke="#191970" points="494.19 -31.84 502.35 -25.09 491.76 -25.28 494.19 -31.84"/></g></g></svg>