<?xml version="1.0" encoding="UTF-8" standalone="no"?>
<!DOCTYPE svg PUBLIC "-//W3C//DTD SVG 1.1//EN"
 "http://www.w3.org/Graphics/SVG/1.1/DTD/svg11.dtd">
<!-- Generated by graphviz version 2.44.0 ()
 -->
<!-- Title: src/Scripts/MarioStates/StarMarioState.cpp Pages: 1 -->
<!--zoomable 218 -->
<svg id="main" version="1.1" xmlns="http://www.w3.org/2000/svg" xmlns:xlink="http://www.w3.org/1999/xlink" xml:space="preserve" onload="init(evt)">
<style type="text/css"><![CDATA[
.edge:hover path { stroke: red; }
.edge:hover polygon { stroke: red; fill: red; }
]]></style>
<script type="text/javascript"><![CDATA[
var edges = document.getElementsByTagName('g');
if (edges && edges.length) {
  for (var i=0;i<edges.length;i++) {
    if (edges[i].id.substr(0,4)=='edge') {
      edges[i].setAttribute('class','edge');
    }
  }
}
]]></script>
        <defs>
                <circle id="rim" cx="0" cy="0" r="7"/>
                <circle id="rim2" cx="0" cy="0" r="3.5"/>
                <g id="zoomPlus">
                        <use xlink:href="#rim" fill="#404040">
                                <set attributeName="fill" to="#808080" begin="zoomplus.mouseover" end="zoomplus.mouseout"/>
                        </use>
                        <path d="M-4,0h8M0,-4v8" fill="none" stroke="white" stroke-width="1.5" pointer-events="none"/>
                </g>
                <g id="zoomMin">
                        <use xlink:href="#rim" fill="#404040">
                                <set attributeName="fill" to="#808080" begin="zoomminus.mouseover" end="zoomminus.mouseout"/>
                        </use>
                        <path d="M-4,0h8" fill="none" stroke="white" stroke-width="1.5" pointer-events="none"/>
                </g>
                <g id="dirArrow">
                        <path fill="none" stroke="white" stroke-width="1.5" d="M0,-3.0v7 M-2.5,-0.5L0,-3.0L2.5,-0.5"/>
                </g>
               <g id="resetDef">
                       <use xlink:href="#rim2" fill="#404040">
                               <set attributeName="fill" to="#808080" begin="reset.mouseover" end="reset.mouseout"/>
                       </use>
               </g>
        </defs>

<script type="text/javascript">
var viewWidth = 821;
var viewHeight = 218;
var sectionId = 'dynsection-0';
</script>
<script xlink:href="svgpan.js"/>
<svg id="graph" class="graph">
<g id="viewport">
<title>src/Scripts/MarioStates/StarMarioState.cpp</title>
<!-- Node1 -->
<g id="node1" class="node">
<title>Node1</title>
<g id="a_node1"><a xlink:title=" ">
<polygon fill="#bfbfbf" stroke="black" points="362.5,-179.5 362.5,-209.5 481.5,-209.5 481.5,-179.5 362.5,-179.5"/>
<text text-anchor="start" x="370.5" y="-197.5" font-family="Helvetica,sans-Serif" font-size="10.00">src/Scripts/MarioStates</text>
<text text-anchor="middle" x="422" y="-186.5" font-family="Helvetica,sans-Serif" font-size="10.00">/StarMarioState.cpp</text>
</a>
</g>
</g>
<!-- Node2 -->
<g id="node2" class="node">
<title>Node2</title>
<g id="a_node2"><a xlink:href="StarMarioState_8hpp.html" target="_top" xlink:title=" ">
<polygon fill="none" stroke="black" points="0,-123.5 0,-142.5 100,-142.5 100,-123.5 0,-123.5"/>
<text text-anchor="middle" x="50" y="-130.5" font-family="Helvetica,sans-Serif" font-size="10.00">StarMarioState.hpp</text>
</a>
</g>
</g>
<!-- Node1&#45;&gt;Node2 -->
<g id="edge1" class="edge">
<title>Node1&#45;&gt;Node2</title>
<path fill="none" stroke="midnightblue" d="M362.23,-183.94C292.93,-172.86 179.38,-154.69 109.99,-143.59"/>
<polygon fill="midnightblue" stroke="midnightblue" points="110.51,-140.13 100.08,-142.01 109.4,-147.05 110.51,-140.13"/>
</g>
<!-- Node9 -->
<g id="node9" class="node">
<title>Node9</title>
<g id="a_node9"><a xlink:title=" ">
<polygon fill="none" stroke="#bfbfbf" points="118,-123.5 118,-142.5 214,-142.5 214,-123.5 118,-123.5"/>
<text text-anchor="middle" x="166" y="-130.5" font-family="Helvetica,sans-Serif" font-size="10.00">Engine/Engine.hpp</text>
</a>
</g>
</g>
<!-- Node1&#45;&gt;Node9 -->
<g id="edge8" class="edge">
<title>Node1&#45;&gt;Node9</title>
<path fill="none" stroke="midnightblue" d="M362.3,-179.62C316.71,-169.03 254.78,-154.63 212.76,-144.87"/>
<polygon fill="midnightblue" stroke="midnightblue" points="213.32,-141.41 202.79,-142.55 211.74,-148.22 213.32,-141.41"/>
</g>
<!-- Node10 -->
<g id="node10" class="node">
<title>Node10</title>
<g id="a_node10"><a xlink:title=" ">
<polygon fill="none" stroke="#bfbfbf" points="232.5,-123.5 232.5,-142.5 375.5,-142.5 375.5,-123.5 232.5,-123.5"/>
<text text-anchor="middle" x="304" y="-130.5" font-family="Helvetica,sans-Serif" font-size="10.00">Physics/PlayerRigidBody.hpp</text>
</a>
</g>
</g>
<!-- Node1&#45;&gt;Node10 -->
<g id="edge9" class="edge">
<title>Node1&#45;&gt;Node10</title>
<path fill="none" stroke="midnightblue" d="M394.04,-179.4C374.68,-169.64 349.09,-156.74 330.14,-147.18"/>
<polygon fill="midnightblue" stroke="midnightblue" points="331.67,-144.04 321.17,-142.66 328.52,-150.29 331.67,-144.04"/>
</g>
<!-- Node11 -->
<g id="node11" class="node">
<title>Node11</title>
<g id="a_node11"><a xlink:title=" ">
<polygon fill="none" stroke="#bfbfbf" points="394,-123.5 394,-142.5 450,-142.5 450,-123.5 394,-123.5"/>
<text text-anchor="middle" x="422" y="-130.5" font-family="Helvetica,sans-Serif" font-size="10.00">Input.hpp</text>
</a>
</g>
</g>
<!-- Node1&#45;&gt;Node11 -->
<g id="edge10" class="edge">
<title>Node1&#45;&gt;Node11</title>
<path fill="none" stroke="midnightblue" d="M422,-179.4C422,-171.47 422,-161.46 422,-152.86"/>
<polygon fill="midnightblue" stroke="midnightblue" points="425.5,-152.66 422,-142.66 418.5,-152.66 425.5,-152.66"/>
</g>
<!-- Node12 -->
<g id="node12" class="node">
<title>Node12</title>
<g id="a_node12"><a xlink:title=" ">
<polygon fill="none" stroke="#bfbfbf" points="468,-123.5 468,-142.5 558,-142.5 558,-123.5 468,-123.5"/>
<text text-anchor="middle" x="513" y="-130.5" font-family="Helvetica,sans-Serif" font-size="10.00">AudioSource.hpp</text>
</a>
</g>
</g>
<!-- Node1&#45;&gt;Node12 -->
<g id="edge11" class="edge">
<title>Node1&#45;&gt;Node12</title>
<path fill="none" stroke="midnightblue" d="M443.57,-179.4C457.88,-170.04 476.61,-157.79 491.01,-148.38"/>
<polygon fill="midnightblue" stroke="midnightblue" points="493.3,-151.06 499.76,-142.66 489.47,-145.2 493.3,-151.06"/>
</g>
<!-- Node13 -->
<g id="node13" class="node">
<title>Node13</title>
<g id="a_node13"><a xlink:href="SmallMarioState_8hpp.html" target="_top" xlink:title=" ">
<polygon fill="none" stroke="black" points="576.5,-123.5 576.5,-142.5 683.5,-142.5 683.5,-123.5 576.5,-123.5"/>
<text text-anchor="middle" x="630" y="-130.5" font-family="Helvetica,sans-Serif" font-size="10.00">SmallMarioState.hpp</text>
</a>
</g>
</g>
<!-- Node1&#45;&gt;Node13 -->
<g id="edge12" class="edge">
<title>Node1&#45;&gt;Node13</title>
<path fill="none" stroke="midnightblue" d="M471.03,-179.47C507.38,-169.08 556.31,-155.08 590.25,-145.37"/>
<polygon fill="midnightblue" stroke="midnightblue" points="591.61,-148.62 600.26,-142.51 589.69,-141.89 591.61,-148.62"/>
</g>
<!-- Node14 -->
<g id="node14" class="node">
<title>Node14</title>
<g id="a_node14"><a xlink:href="Sprites_8hpp.html" target="_top" xlink:title=" ">
<polygon fill="none" stroke="black" points="701.5,-123.5 701.5,-142.5 812.5,-142.5 812.5,-123.5 701.5,-123.5"/>
<text text-anchor="middle" x="757" y="-130.5" font-family="Helvetica,sans-Serif" font-size="10.00">constants/Sprites.hpp</text>
</a>
</g>
</g>
<!-- Node1&#45;&gt;Node14 -->
<g id="edge14" class="edge">
<title>Node1&#45;&gt;Node14</title>
<path fill="none" stroke="midnightblue" d="M481.51,-182.93C542.82,-172.04 637.81,-155.17 698.68,-144.36"/>
<polygon fill="midnightblue" stroke="midnightblue" points="699.66,-147.74 708.89,-142.54 698.44,-140.85 699.66,-147.74"/>
</g>
<!-- Node3 -->
<g id="node3" class="node">
<title>Node3</title>
<g id="a_node3"><a xlink:href="MarioState_8hpp.html" target="_top" xlink:title=" ">
<polygon fill="none" stroke="black" points="299,-67.5 299,-86.5 381,-86.5 381,-67.5 299,-67.5"/>
<text text-anchor="middle" x="340" y="-74.5" font-family="Helvetica,sans-Serif" font-size="10.00">MarioState.hpp</text>
</a>
</g>
</g>
<!-- Node2&#45;&gt;Node3 -->
<g id="edge2" class="edge">
<title>Node2&#45;&gt;Node3</title>
<path fill="none" stroke="midnightblue" d="M95.95,-123.44C148.47,-113.66 234.18,-97.7 288.8,-87.53"/>
<polygon fill="midnightblue" stroke="midnightblue" points="289.76,-90.91 298.95,-85.64 288.48,-84.03 289.76,-90.91"/>
</g>
<!-- Node4 -->
<g id="node4" class="node">
<title>Node4</title>
<g id="a_node4"><a xlink:title=" ">
<polygon fill="none" stroke="#bfbfbf" points="66.5,-0.5 66.5,-30.5 161.5,-30.5 161.5,-0.5 66.5,-0.5"/>
<text text-anchor="start" x="74.5" y="-18.5" font-family="Helvetica,sans-Serif" font-size="10.00">boost/serialization</text>
<text text-anchor="middle" x="114" y="-7.5" font-family="Helvetica,sans-Serif" font-size="10.00">/access.hpp</text>
</a>
</g>
</g>
<!-- Node3&#45;&gt;Node4 -->
<g id="edge3" class="edge">
<title>Node3&#45;&gt;Node4</title>
<path fill="none" stroke="midnightblue" d="M307.62,-67.48C272.18,-58.14 214.66,-43 171.5,-31.64"/>
<polygon fill="midnightblue" stroke="midnightblue" points="172.26,-28.22 161.7,-29.06 170.48,-34.99 172.26,-28.22"/>
</g>
<!-- Node5 -->
<g id="node5" class="node">
<title>Node5</title>
<g id="a_node5"><a xlink:title=" ">
<polygon fill="none" stroke="#bfbfbf" points="179.5,-0.5 179.5,-30.5 274.5,-30.5 274.5,-0.5 179.5,-0.5"/>
<text text-anchor="start" x="187.5" y="-18.5" font-family="Helvetica,sans-Serif" font-size="10.00">boost/serialization</text>
<text text-anchor="middle" x="227" y="-7.5" font-family="Helvetica,sans-Serif" font-size="10.00">/export.hpp</text>
</a>
</g>
</g>
<!-- Node3&#45;&gt;Node5 -->
<g id="edge4" class="edge">
<title>Node3&#45;&gt;Node5</title>
<path fill="none" stroke="midnightblue" d="M323.81,-67.48C307.93,-59.12 283.2,-46.09 262.7,-35.3"/>
<polygon fill="midnightblue" stroke="midnightblue" points="264.11,-32.09 253.63,-30.52 260.85,-38.28 264.11,-32.09"/>
</g>
<!-- Node6 -->
<g id="node6" class="node">
<title>Node6</title>
<g id="a_node6"><a xlink:title=" ">
<polygon fill="none" stroke="#bfbfbf" points="292.5,-0.5 292.5,-30.5 387.5,-30.5 387.5,-0.5 292.5,-0.5"/>
<text text-anchor="start" x="300.5" y="-18.5" font-family="Helvetica,sans-Serif" font-size="10.00">boost/serialization</text>
<text text-anchor="middle" x="340" y="-7.5" font-family="Helvetica,sans-Serif" font-size="10.00">/shared_ptr.hpp</text>
</a>
</g>
</g>
<!-- Node3&#45;&gt;Node6 -->
<g id="edge5" class="edge">
<title>Node3&#45;&gt;Node6</title>
<path fill="none" stroke="midnightblue" d="M340,-67.48C340,-60.47 340,-50.19 340,-40.7"/>
<polygon fill="midnightblue" stroke="midnightblue" points="343.5,-40.52 340,-30.52 336.5,-40.52 343.5,-40.52"/>
</g>
<!-- Node7 -->
<g id="node7" class="node">
<title>Node7</title>
<g id="a_node7"><a xlink:title=" ">
<polygon fill="none" stroke="#bfbfbf" points="405.5,-6 405.5,-25 542.5,-25 542.5,-6 405.5,-6"/>
<text text-anchor="middle" x="474" y="-13" font-family="Helvetica,sans-Serif" font-size="10.00">Texture/AnimatedSprite.hpp</text>
</a>
</g>
</g>
<!-- Node3&#45;&gt;Node7 -->
<g id="edge6" class="edge">
<title>Node3&#45;&gt;Node7</title>
<path fill="none" stroke="midnightblue" d="M359.2,-67.48C381.79,-57.45 419.5,-40.7 445.5,-29.15"/>
<polygon fill="midnightblue" stroke="midnightblue" points="447.12,-32.27 454.84,-25.01 444.28,-25.87 447.12,-32.27"/>
</g>
<!-- Node8 -->
<g id="node8" class="node">
<title>Node8</title>
<g id="a_node8"><a xlink:title=" ">
<polygon fill="none" stroke="#bfbfbf" points="560.5,-6 560.5,-25 617.5,-25 617.5,-6 560.5,-6"/>
<text text-anchor="middle" x="589" y="-13" font-family="Helvetica,sans-Serif" font-size="10.00">Point.hpp</text>
</a>
</g>
</g>
<!-- Node3&#45;&gt;Node8 -->
<g id="edge7" class="edge">
<title>Node3&#45;&gt;Node8</title>
<path fill="none" stroke="midnightblue" d="M381.31,-69.14C424.2,-61.57 492.99,-48.14 551,-31 553.58,-30.24 556.23,-29.38 558.87,-28.48"/>
<polygon fill="midnightblue" stroke="midnightblue" points="560.08,-31.76 568.29,-25.06 557.7,-25.18 560.08,-31.76"/>
</g>
<!-- Node13&#45;&gt;Node3 -->
<g id="edge13" class="edge">
<title>Node13&#45;&gt;Node3</title>
<path fill="none" stroke="midnightblue" d="M584.05,-123.44C531.53,-113.66 445.82,-97.7 391.2,-87.53"/>
<polygon fill="midnightblue" stroke="midnightblue" points="391.52,-84.03 381.05,-85.64 390.24,-90.91 391.52,-84.03"/>
</g>
<!-- Node15 -->
<g id="node15" class="node">
<title>Node15</title>
<g id="a_node15"><a xlink:title=" ">
<polygon fill="none" stroke="#bfbfbf" points="736.5,-67.5 736.5,-86.5 777.5,-86.5 777.5,-67.5 736.5,-67.5"/>
<text text-anchor="middle" x="757" y="-74.5" font-family="Helvetica,sans-Serif" font-size="10.00">string</text>
</a>
</g>
</g>
<!-- Node14&#45;&gt;Node15 -->
<g id="edge15" class="edge">
<title>Node14&#45;&gt;Node15</title>
<path fill="none" stroke="midnightblue" d="M757,-123.08C757,-116.01 757,-105.86 757,-96.99"/>
<polygon fill="midnightblue" stroke="midnightblue" points="760.5,-96.75 757,-86.75 753.5,-96.75 760.5,-96.75"/>
</g>
</g>
</svg>
        <g id="navigator" transform="translate(0 0)" fill="#404254">
                <rect fill="#f2f5e9" fill-opacity="0.5" stroke="#606060" stroke-width=".5" x="0" y="0" width="60" height="60"/>
                <use id="zoomplus" xlink:href="#zoomPlus" x="17" y="9" onmousedown="handleZoom(evt,'in')"/>
                <use id="zoomminus" xlink:href="#zoomMin" x="42" y="9" onmousedown="handleZoom(evt,'out')"/>
                <use id="reset" xlink:href="#resetDef" x="30" y="36" onmousedown="handleReset()"/>
                <g id="arrowUp" xlink:href="#dirArrow" transform="translate(30 24)" onmousedown="handlePan(0,-1)">
                  <use xlink:href="#rim" fill="#404040">
                        <set attributeName="fill" to="#808080" begin="arrowUp.mouseover" end="arrowUp.mouseout"/>
                  </use>
                  <path fill="none" stroke="white" stroke-width="1.5" d="M0,-3.0v7 M-2.5,-0.5L0,-3.0L2.5,-0.5"/>
                </g>
                <g id="arrowRight" xlink:href="#dirArrow" transform="rotate(90) translate(36 -43)" onmousedown="handlePan(1,0)">
                  <use xlink:href="#rim" fill="#404040">
                        <set attributeName="fill" to="#808080" begin="arrowRight.mouseover" end="arrowRight.mouseout"/>
                  </use>
                  <path fill="none" stroke="white" stroke-width="1.5" d="M0,-3.0v7 M-2.5,-0.5L0,-3.0L2.5,-0.5"/>
                </g>
                <g id="arrowDown" xlink:href="#dirArrow" transform="rotate(180) translate(-30 -48)" onmousedown="handlePan(0,1)">
                  <use xlink:href="#rim" fill="#404040">
                        <set attributeName="fill" to="#808080" begin="arrowDown.mouseover" end="arrowDown.mouseout"/>
                  </use>
                  <path fill="none" stroke="white" stroke-width="1.5" d="M0,-3.0v7 M-2.5,-0.5L0,-3.0L2.5,-0.5"/>
                </g>
                <g id="arrowLeft" xlink:href="#dirArrow" transform="rotate(270) translate(-36 17)" onmousedown="handlePan(-1,0)">
                  <use xlink:href="#rim" fill="#404040">
                        <set attributeName="fill" to="#808080" begin="arrowLeft.mouseover" end="arrowLeft.mouseout"/>
                  </use>
                  <path fill="none" stroke="white" stroke-width="1.5" d="M0,-3.0v7 M-2.5,-0.5L0,-3.0L2.5,-0.5"/>
                </g>
        </g>
        <svg viewBox="0 0 15 15" width="100%" height="30px" preserveAspectRatio="xMaxYMin meet">
         <g id="arrow_out" transform="scale(0.3 0.3)">
          <a xlink:href="StarMarioState_8cpp__incl_org.svg" target="_base">
           <rect id="button" ry="5" rx="5" y="6" x="6" height="38" width="38"
                fill="#f2f5e9" fill-opacity="0.5" stroke="#606060" stroke-width="1.0"/>
           <path id="arrow"
             d="M 11.500037,31.436501 C 11.940474,20.09759 22.043105,11.32322 32.158766,21.979434 L 37.068811,17.246167 C 37.068811,17.246167 37.088388,32 37.088388,32 L 22.160133,31.978069 C 22.160133,31.978069 26.997745,27.140456 26.997745,27.140456 C 18.528582,18.264221 13.291696,25.230495 11.500037,31.436501 z"
             style="fill:#404040;"/>
          </a>
         </g>
        </svg>
</svg>
