<svg xmlns="http://www.w3.org/2000/svg" xmlns:xlink="http://www.w3.org/1999/xlink" width="673pt" height="218pt" viewBox="0 0 673 218"><g id="graph0" class="graph" transform="scale(1 1) rotate(0) translate(4 214)"><title>src/Scripts/MarioStates/StarMarioState.cpp</title><g id="node1" class="node"><title>Node1</title><g id="a_node1"><a><polygon fill="#bfbfbf" stroke="#000" points="260 -179.5 260 -209.5 379 -209.5 379 -179.5 260 -179.5"/><text x="268" y="-197.5" font-family="Helvetica,sans-Serif" font-size="10" text-anchor="start">src/Scripts/MarioStates</text><text x="319.5" y="-186.5" font-family="Helvetica,sans-Serif" font-size="10" text-anchor="middle">/StarMarioState.cpp</text></a></g></g><g id="node2" class="node"><title>Node2</title><g id="a_node2"><a target="_top" xlink:href="StarMarioState_8hpp.html"><polygon fill="none" stroke="#000" points="14.5 -123.5 14.5 -142.5 114.5 -142.5 114.5 -123.5 14.5 -123.5"/><text x="64.5" y="-130.5" font-family="Helvetica,sans-Serif" font-size="10" text-anchor="middle">StarMarioState.hpp</text></a></g></g><g id="edge1" class="edge"><title>Node1-&gt;Node2</title><path fill="none" stroke="#191970" d="M259.71,-179.55C214.29,-168.95 152.72,-154.58 110.96,-144.84"/><polygon fill="#191970" stroke="#191970" points="111.58 -141.39 101.05 -142.53 109.99 -148.21 111.58 -141.39"/></g><g id="node9" class="node"><title>Node9</title><g id="a_node9"><a><polygon fill="none" stroke="#bfbfbf" points="132.5 -123.5 132.5 -142.5 228.5 -142.5 228.5 -123.5 132.5 -123.5"/><text x="180.5" y="-130.5" font-family="Helvetica,sans-Serif" font-size="10" text-anchor="middle">Engine/Engine.hpp</text></a></g></g><g id="edge8" class="edge"><title>Node1-&gt;Node9</title><path fill="none" stroke="#191970" d="M286.56,-179.4C263.34,-169.46 232.51,-156.26 210.08,-146.66"/><polygon fill="#191970" stroke="#191970" points="211.3 -143.38 200.73 -142.66 208.54 -149.81 211.3 -143.38"/></g><g id="node10" class="node"><title>Node10</title><g id="a_node10"><a><polygon fill="none" stroke="#bfbfbf" points="246.5 -123.5 246.5 -142.5 302.5 -142.5 302.5 -123.5 246.5 -123.5"/><text x="274.5" y="-130.5" font-family="Helvetica,sans-Serif" font-size="10" text-anchor="middle">Input.hpp</text></a></g></g><g id="edge9" class="edge"><title>Node1-&gt;Node10</title><path fill="none" stroke="#191970" d="M308.84,-179.4C302.36,-170.84 294.07,-159.87 287.25,-150.86"/><polygon fill="#191970" stroke="#191970" points="289.87 -148.52 281.05 -142.66 284.29 -152.74 289.87 -148.52"/></g><g id="node11" class="node"><title>Node11</title><g id="a_node11"><a><polygon fill="none" stroke="#bfbfbf" points="320.5 -123.5 320.5 -142.5 410.5 -142.5 410.5 -123.5 320.5 -123.5"/><text x="365.5" y="-130.5" font-family="Helvetica,sans-Serif" font-size="10" text-anchor="middle">AudioSource.hpp</text></a></g></g><g id="edge10" class="edge"><title>Node1-&gt;Node11</title><path fill="none" stroke="#191970" d="M330.4,-179.4C337.09,-170.75 345.68,-159.64 352.68,-150.58"/><polygon fill="#191970" stroke="#191970" points="355.46 -152.71 358.81 -142.66 349.92 -148.43 355.46 -152.71"/></g><g id="node12" class="node"><title>Node12</title><g id="a_node12"><a target="_top" xlink:href="SmallMarioState_8hpp.html"><polygon fill="none" stroke="#000" points="429 -123.5 429 -142.5 536 -142.5 536 -123.5 429 -123.5"/><text x="482.5" y="-130.5" font-family="Helvetica,sans-Serif" font-size="10" text-anchor="middle">SmallMarioState.hpp</text></a></g></g><g id="edge11" class="edge"><title>Node1-&gt;Node12</title><path fill="none" stroke="#191970" d="M358.13,-179.4C385.84,-169.28 422.81,-155.79 449.22,-146.15"/><polygon fill="#191970" stroke="#191970" points="450.59 -149.37 458.78 -142.66 448.19 -142.8 450.59 -149.37"/></g><g id="node13" class="node"><title>Node13</title><g id="a_node13"><a target="_top" xlink:href="Sprites_8hpp.html"><polygon fill="none" stroke="#000" points="554 -123.5 554 -142.5 665 -142.5 665 -123.5 554 -123.5"/><text x="609.5" y="-130.5" font-family="Helvetica,sans-Serif" font-size="10" text-anchor="middle">constants/Sprites.hpp</text></a></g></g><g id="edge13" class="edge"><title>Node1-&gt;Node13</title><path fill="none" stroke="#191970" d="M379.24,-181.24C431.82,-170.45 507.61,-154.9 557.68,-144.63"/><polygon fill="#191970" stroke="#191970" points="558.56 -148.02 567.65 -142.59 557.15 -141.17 558.56 -148.02"/></g><g id="node3" class="node"><title>Node3</title><g id="a_node3"><a target="_top" xlink:href="MarioState_8hpp.html"><polygon fill="none" stroke="#000" points="232.5 -67.5 232.5 -86.5 314.5 -86.5 314.5 -67.5 232.5 -67.5"/><text x="273.5" y="-74.5" font-family="Helvetica,sans-Serif" font-size="10" text-anchor="middle">MarioState.hpp</text></a></g></g><g id="edge2" class="edge"><title>Node2-&gt;Node3</title><path fill="none" stroke="#191970" d="M97.62,-123.44C133.62,-114.14 191.27,-99.25 230.69,-89.06"/><polygon fill="#191970" stroke="#191970" points="231.73 -92.41 240.54 -86.52 229.98 -85.63 231.73 -92.41"/></g><g id="node4" class="node"><title>Node4</title><g id="a_node4"><a><polygon fill="none" stroke="#bfbfbf" points="0 -.5 0 -30.5 95 -30.5 95 -.5 0 -.5"/><text x="8" y="-18.5" font-family="Helvetica,sans-Serif" font-size="10" text-anchor="start">boost/serialization</text><text x="47.5" y="-7.5" font-family="Helvetica,sans-Serif" font-size="10" text-anchor="middle">/access.hpp</text></a></g></g><g id="edge3" class="edge"><title>Node3-&gt;Node4</title><path fill="none" stroke="#191970" d="M241.12,-67.48C205.68,-58.14 148.16,-43 105,-31.64"/><polygon fill="#191970" stroke="#191970" points="105.76 -28.22 95.2 -29.06 103.98 -34.99 105.76 -28.22"/></g><g id="node5" class="node"><title>Node5</title><g id="a_node5"><a><polygon fill="none" stroke="#bfbfbf" points="113 -.5 113 -30.5 208 -30.5 208 -.5 113 -.5"/><text x="121" y="-18.5" font-family="Helvetica,sans-Serif" font-size="10" text-anchor="start">boost/serialization</text><text x="160.5" y="-7.5" font-family="Helvetica,sans-Serif" font-size="10" text-anchor="middle">/export.hpp</text></a></g></g><g id="edge4" class="edge"><title>Node3-&gt;Node5</title><path fill="none" stroke="#191970" d="M257.31,-67.48C241.43,-59.12 216.7,-46.09 196.2,-35.3"/><polygon fill="#191970" stroke="#191970" points="197.61 -32.09 187.13 -30.52 194.35 -38.28 197.61 -32.09"/></g><g id="node6" class="node"><title>Node6</title><g id="a_node6"><a><polygon fill="none" stroke="#bfbfbf" points="226 -.5 226 -30.5 321 -30.5 321 -.5 226 -.5"/><text x="234" y="-18.5" font-family="Helvetica,sans-Serif" font-size="10" text-anchor="start">boost/serialization</text><text x="273.5" y="-7.5" font-family="Helvetica,sans-Serif" font-size="10" text-anchor="middle">/shared_ptr.hpp</text></a></g></g><g id="edge5" class="edge"><title>Node3-&gt;Node6</title><path fill="none" stroke="#191970" d="M273.5,-67.48C273.5,-60.47 273.5,-50.19 273.5,-40.7"/><polygon fill="#191970" stroke="#191970" points="277 -40.52 273.5 -30.52 270 -40.52 277 -40.52"/></g><g id="node7" class="node"><title>Node7</title><g id="a_node7"><a><polygon fill="none" stroke="#bfbfbf" points="339 -6 339 -25 476 -25 476 -6 339 -6"/><text x="407.5" y="-13" font-family="Helvetica,sans-Serif" font-size="10" text-anchor="middle">Texture/AnimatedSprite.hpp</text></a></g></g><g id="edge6" class="edge"><title>Node3-&gt;Node7</title><path fill="none" stroke="#191970" d="M292.7,-67.48C315.29,-57.45 353,-40.7 379,-29.15"/><polygon fill="#191970" stroke="#191970" points="380.62 -32.27 388.34 -25.01 377.78 -25.87 380.62 -32.27"/></g><g id="node8" class="node"><title>Node8</title><g id="a_node8"><a><polygon fill="none" stroke="#bfbfbf" points="494 -6 494 -25 551 -25 551 -6 494 -6"/><text x="522.5" y="-13" font-family="Helvetica,sans-Serif" font-size="10" text-anchor="middle">Point.hpp</text></a></g></g><g id="edge7" class="edge"><title>Node3-&gt;Node8</title><path fill="none" stroke="#191970" d="M314.81,-69.14C357.7,-61.57 426.49,-48.14 484.5,-31 487.08,-30.24 489.73,-29.38 492.37,-28.48"/><polygon fill="#191970" stroke="#191970" points="493.58 -31.76 501.79 -25.06 491.2 -25.18 493.58 -31.76"/></g><g id="edge12" class="edge"><title>Node12-&gt;Node3</title><path fill="none" stroke="#191970" d="M449.38,-123.44C413.38,-114.14 355.73,-99.25 316.31,-89.06"/><polygon fill="#191970" stroke="#191970" points="317.02 -85.63 306.46 -86.52 315.27 -92.41 317.02 -85.63"/></g><g id="node14" class="node"><title>Node14</title><g id="a_node14"><a><polygon fill="none" stroke="#bfbfbf" points="589 -67.5 589 -86.5 630 -86.5 630 -67.5 589 -67.5"/><text x="609.5" y="-74.5" font-family="Helvetica,sans-Serif" font-size="10" text-anchor="middle">string</text></a></g></g><g id="edge14" class="edge"><title>Node13-&gt;Node14</title><path fill="none" stroke="#191970" d="M609.5,-123.08C609.5,-116.01 609.5,-105.86 609.5,-96.99"/><polygon fill="#191970" stroke="#191970" points="613 -96.75 609.5 -86.75 606 -96.75 613 -96.75"/></g></g></svg>