<?xml version="1.0" encoding="UTF-8" standalone="no"?>
<!DOCTYPE svg PUBLIC "-//W3C//DTD SVG 1.1//EN"
 "http://www.w3.org/Graphics/SVG/1.1/DTD/svg11.dtd">
<!-- Generated by graphviz version 2.44.0 ()
 -->
<!-- Title: src/TileConfig.hpp Pages: 1 -->
<svg width="1237pt" height="207pt"
 viewBox="0.00 0.00 1237.00 207.00" xmlns="http://www.w3.org/2000/svg" xmlns:xlink="http://www.w3.org/1999/xlink">
<g id="graph0" class="graph" transform="scale(1 1) rotate(0) translate(4 203)">
<title>src/TileConfig.hpp</title>
<!-- Node1 -->
<g id="node1" class="node">
<title>Node1</title>
<g id="a_node1"><a xlink:title=" ">
<polygon fill="#bfbfbf" stroke="black" points="275.5,-179.5 275.5,-198.5 369.5,-198.5 369.5,-179.5 275.5,-179.5"/>
<text text-anchor="middle" x="322.5" y="-186.5" font-family="Helvetica,sans-Serif" font-size="10.00">src/TileConfig.hpp</text>
</a>
</g>
</g>
<!-- Node2 -->
<g id="node2" class="node">
<title>Node2</title>
<g id="a_node2"><a xlink:title=" ">
<polygon fill="none" stroke="#bfbfbf" points="0,-123.5 0,-142.5 59,-142.5 59,-123.5 0,-123.5"/>
<text text-anchor="middle" x="29.5" y="-130.5" font-family="Helvetica,sans-Serif" font-size="10.00">functional</text>
</a>
</g>
</g>
<!-- Node1&#45;&gt;Node2 -->
<g id="edge1" class="edge">
<title>Node1&#45;&gt;Node2</title>
<path fill="none" stroke="midnightblue" d="M275.35,-180.52C226.15,-172.53 146.57,-159.07 69.24,-143.28"/>
<polygon fill="midnightblue" stroke="midnightblue" points="69.83,-139.83 59.33,-141.24 68.42,-146.68 69.83,-139.83"/>
</g>
<!-- Node3 -->
<g id="node3" class="node">
<title>Node3</title>
<g id="a_node3"><a xlink:title=" ">
<polygon fill="none" stroke="#bfbfbf" points="77,-123.5 77,-142.5 112,-142.5 112,-123.5 77,-123.5"/>
<text text-anchor="middle" x="94.5" y="-130.5" font-family="Helvetica,sans-Serif" font-size="10.00">map</text>
</a>
</g>
</g>
<!-- Node1&#45;&gt;Node3 -->
<g id="edge2" class="edge">
<title>Node1&#45;&gt;Node3</title>
<path fill="none" stroke="midnightblue" d="M282.57,-179.43C242.87,-170.76 180.29,-156.73 126.5,-143 125.03,-142.63 123.53,-142.23 122.01,-141.83"/>
<polygon fill="midnightblue" stroke="midnightblue" points="122.63,-138.37 112.06,-139.11 120.78,-145.12 122.63,-138.37"/>
</g>
<!-- Node4 -->
<g id="node4" class="node">
<title>Node4</title>
<g id="a_node4"><a xlink:title=" ">
<polygon fill="none" stroke="#bfbfbf" points="223,-6 223,-25 274,-25 274,-6 223,-6"/>
<text text-anchor="middle" x="248.5" y="-13" font-family="Helvetica,sans-Serif" font-size="10.00">memory</text>
</a>
</g>
</g>
<!-- Node1&#45;&gt;Node4 -->
<g id="edge3" class="edge">
<title>Node1&#45;&gt;Node4</title>
<path fill="none" stroke="midnightblue" d="M275.3,-181.38C232.35,-174.27 173.55,-161.45 159.5,-143 129.21,-103.21 190.08,-54.37 225.51,-30.7"/>
<polygon fill="midnightblue" stroke="midnightblue" points="227.43,-33.64 233.9,-25.25 223.61,-27.77 227.43,-33.64"/>
</g>
<!-- Node5 -->
<g id="node5" class="node">
<title>Node5</title>
<g id="a_node5"><a xlink:title=" ">
<polygon fill="none" stroke="#bfbfbf" points="168.5,-123.5 168.5,-142.5 320.5,-142.5 320.5,-123.5 168.5,-123.5"/>
<text text-anchor="middle" x="244.5" y="-130.5" font-family="Helvetica,sans-Serif" font-size="10.00">Builder/GameObjectBuilder.hpp</text>
</a>
</g>
</g>
<!-- Node1&#45;&gt;Node5 -->
<g id="edge4" class="edge">
<title>Node1&#45;&gt;Node5</title>
<path fill="none" stroke="midnightblue" d="M309.97,-179.32C297.91,-170.98 279.47,-158.21 265.23,-148.35"/>
<polygon fill="midnightblue" stroke="midnightblue" points="267.22,-145.47 257,-142.65 263.23,-151.22 267.22,-145.47"/>
</g>
<!-- Node6 -->
<g id="node6" class="node">
<title>Node6</title>
<g id="a_node6"><a xlink:title=" ">
<polygon fill="none" stroke="#bfbfbf" points="339,-123.5 339,-142.5 464,-142.5 464,-123.5 339,-123.5"/>
<text text-anchor="middle" x="401.5" y="-130.5" font-family="Helvetica,sans-Serif" font-size="10.00">Builder/SceneBuilder.hpp</text>
</a>
</g>
</g>
<!-- Node1&#45;&gt;Node6 -->
<g id="edge5" class="edge">
<title>Node1&#45;&gt;Node6</title>
<path fill="none" stroke="midnightblue" d="M335.19,-179.32C347.4,-170.98 366.08,-158.21 380.5,-148.35"/>
<polygon fill="midnightblue" stroke="midnightblue" points="382.56,-151.19 388.84,-142.65 378.61,-145.41 382.56,-151.19"/>
</g>
<!-- Node7 -->
<g id="node7" class="node">
<title>Node7</title>
<g id="a_node7"><a xlink:title=" ">
<polygon fill="none" stroke="#bfbfbf" points="482.5,-123.5 482.5,-142.5 642.5,-142.5 642.5,-123.5 482.5,-123.5"/>
<text text-anchor="middle" x="562.5" y="-130.5" font-family="Helvetica,sans-Serif" font-size="10.00">Director/GameObjectDirector.hpp</text>
</a>
</g>
</g>
<!-- Node1&#45;&gt;Node7 -->
<g id="edge6" class="edge">
<title>Node1&#45;&gt;Node7</title>
<path fill="none" stroke="midnightblue" d="M360.53,-179.44C402.31,-170.04 469.48,-154.93 514.77,-144.74"/>
<polygon fill="midnightblue" stroke="midnightblue" points="515.66,-148.13 524.65,-142.52 514.12,-141.3 515.66,-148.13"/>
</g>
<!-- Node8 -->
<g id="node8" class="node">
<title>Node8</title>
<g id="a_node8"><a xlink:href="CoinBehaviour_8hpp.html" target="_top" xlink:title=" ">
<polygon fill="none" stroke="black" points="810,-123.5 810,-142.5 941,-142.5 941,-123.5 810,-123.5"/>
<text text-anchor="middle" x="875.5" y="-130.5" font-family="Helvetica,sans-Serif" font-size="10.00">Scripts/CoinBehaviour.hpp</text>
</a>
</g>
</g>
<!-- Node1&#45;&gt;Node8 -->
<g id="edge7" class="edge">
<title>Node1&#45;&gt;Node8</title>
<path fill="none" stroke="midnightblue" d="M369.79,-183.99C454.03,-176.75 635.85,-160.7 799.49,-143.19"/>
<polygon fill="midnightblue" stroke="midnightblue" points="800.17,-146.64 809.74,-142.09 799.43,-139.68 800.17,-146.64"/>
</g>
<!-- Node19 -->
<g id="node19" class="node">
<title>Node19</title>
<g id="a_node19"><a xlink:href="FlagBehaviour_8hpp.html" target="_top" xlink:title=" ">
<polygon fill="none" stroke="black" points="661,-123.5 661,-142.5 792,-142.5 792,-123.5 661,-123.5"/>
<text text-anchor="middle" x="726.5" y="-130.5" font-family="Helvetica,sans-Serif" font-size="10.00">Scripts/FlagBehaviour.hpp</text>
</a>
</g>
</g>
<!-- Node1&#45;&gt;Node19 -->
<g id="edge22" class="edge">
<title>Node1&#45;&gt;Node19</title>
<path fill="none" stroke="midnightblue" d="M369.63,-181.7C439.27,-172.39 570.27,-154.88 652.71,-143.86"/>
<polygon fill="midnightblue" stroke="midnightblue" points="653.31,-147.31 662.76,-142.52 652.38,-140.38 653.31,-147.31"/>
</g>
<!-- Node9 -->
<g id="node9" class="node">
<title>Node9</title>
<g id="a_node9"><a xlink:title=" ">
<polygon fill="none" stroke="#bfbfbf" points="660.5,-67.5 660.5,-86.5 764.5,-86.5 764.5,-67.5 660.5,-67.5"/>
<text text-anchor="middle" x="712.5" y="-74.5" font-family="Helvetica,sans-Serif" font-size="10.00">BehaviourScript.hpp</text>
</a>
</g>
</g>
<!-- Node8&#45;&gt;Node9 -->
<g id="edge8" class="edge">
<title>Node8&#45;&gt;Node9</title>
<path fill="none" stroke="midnightblue" d="M849.67,-123.44C822.25,-114.36 778.72,-99.94 748.07,-89.78"/>
<polygon fill="midnightblue" stroke="midnightblue" points="748.8,-86.34 738.21,-86.52 746.6,-92.98 748.8,-86.34"/>
</g>
<!-- Node10 -->
<g id="node10" class="node">
<title>Node10</title>
<g id="a_node10"><a xlink:href="CoinCounter_8hpp.html" target="_top" xlink:title=" ">
<polygon fill="none" stroke="black" points="821,-67.5 821,-86.5 930,-86.5 930,-67.5 821,-67.5"/>
<text text-anchor="middle" x="875.5" y="-74.5" font-family="Helvetica,sans-Serif" font-size="10.00">../UI/CoinCounter.hpp</text>
</a>
</g>
</g>
<!-- Node8&#45;&gt;Node10 -->
<g id="edge9" class="edge">
<title>Node8&#45;&gt;Node10</title>
<path fill="none" stroke="midnightblue" d="M875.5,-123.08C875.5,-116.01 875.5,-105.86 875.5,-96.99"/>
<polygon fill="midnightblue" stroke="midnightblue" points="879,-96.75 875.5,-86.75 872,-96.75 879,-96.75"/>
</g>
<!-- Node11 -->
<g id="node11" class="node">
<title>Node11</title>
<g id="a_node11"><a xlink:title=" ">
<polygon fill="none" stroke="#bfbfbf" points="1021,-0.5 1021,-30.5 1116,-30.5 1116,-0.5 1021,-0.5"/>
<text text-anchor="start" x="1029" y="-18.5" font-family="Helvetica,sans-Serif" font-size="10.00">boost/serialization</text>
<text text-anchor="middle" x="1068.5" y="-7.5" font-family="Helvetica,sans-Serif" font-size="10.00">/access.hpp</text>
</a>
</g>
</g>
<!-- Node8&#45;&gt;Node11 -->
<g id="edge19" class="edge">
<title>Node8&#45;&gt;Node11</title>
<path fill="none" stroke="midnightblue" d="M890.01,-123.32C920.88,-104.84 993.72,-61.25 1036.2,-35.83"/>
<polygon fill="midnightblue" stroke="midnightblue" points="1038.25,-38.68 1045.03,-30.55 1034.65,-32.68 1038.25,-38.68"/>
</g>
<!-- Node12 -->
<g id="node12" class="node">
<title>Node12</title>
<g id="a_node12"><a xlink:title=" ">
<polygon fill="none" stroke="#bfbfbf" points="1134,-0.5 1134,-30.5 1229,-30.5 1229,-0.5 1134,-0.5"/>
<text text-anchor="start" x="1142" y="-18.5" font-family="Helvetica,sans-Serif" font-size="10.00">boost/serialization</text>
<text text-anchor="middle" x="1181.5" y="-7.5" font-family="Helvetica,sans-Serif" font-size="10.00">/export.hpp</text>
</a>
</g>
</g>
<!-- Node8&#45;&gt;Node12 -->
<g id="edge20" class="edge">
<title>Node8&#45;&gt;Node12</title>
<path fill="none" stroke="midnightblue" d="M898.5,-123.32C948.58,-104.42 1068.31,-59.22 1134.87,-34.1"/>
<polygon fill="midnightblue" stroke="midnightblue" points="1136.17,-37.35 1144.29,-30.55 1133.7,-30.8 1136.17,-37.35"/>
</g>
<!-- Node13 -->
<g id="node13" class="node">
<title>Node13</title>
<g id="a_node13"><a xlink:title=" ">
<polygon fill="none" stroke="#bfbfbf" points="399,-0.5 399,-30.5 494,-30.5 494,-0.5 399,-0.5"/>
<text text-anchor="start" x="407" y="-18.5" font-family="Helvetica,sans-Serif" font-size="10.00">boost/serialization</text>
<text text-anchor="middle" x="446.5" y="-7.5" font-family="Helvetica,sans-Serif" font-size="10.00">/shared_ptr.hpp</text>
</a>
</g>
</g>
<!-- Node8&#45;&gt;Node13 -->
<g id="edge21" class="edge">
<title>Node8&#45;&gt;Node13</title>
<path fill="none" stroke="midnightblue" d="M863.47,-123.39C840.84,-107.36 792.54,-73.94 773.5,-67 662.36,-26.47 623.79,-52.8 503.98,-31.11"/>
<polygon fill="midnightblue" stroke="midnightblue" points="504.54,-27.65 494.07,-29.24 503.25,-34.53 504.54,-27.65"/>
</g>
<!-- Node10&#45;&gt;Node4 -->
<g id="edge10" class="edge">
<title>Node10&#45;&gt;Node4</title>
<path fill="none" stroke="midnightblue" d="M820.82,-71.12C730.84,-63.05 545.94,-46.29 389.5,-31 353.78,-27.51 312.98,-23.29 284.5,-20.3"/>
<polygon fill="midnightblue" stroke="midnightblue" points="284.53,-16.79 274.22,-19.22 283.8,-23.75 284.53,-16.79"/>
</g>
<!-- Node10&#45;&gt;Node11 -->
<g id="edge11" class="edge">
<title>Node10&#45;&gt;Node11</title>
<path fill="none" stroke="midnightblue" d="M903.15,-67.48C931.73,-58.66 977.13,-44.67 1013.13,-33.57"/>
<polygon fill="midnightblue" stroke="midnightblue" points="1014.49,-36.81 1023.01,-30.52 1012.43,-30.12 1014.49,-36.81"/>
</g>
<!-- Node10&#45;&gt;Node12 -->
<g id="edge12" class="edge">
<title>Node10&#45;&gt;Node12</title>
<path fill="none" stroke="midnightblue" d="M929.87,-67.43C978.38,-59.5 1051.57,-46.88 1123.73,-31.3"/>
<polygon fill="midnightblue" stroke="midnightblue" points="1124.87,-34.63 1133.9,-29.09 1123.38,-27.8 1124.87,-34.63"/>
</g>
<!-- Node10&#45;&gt;Node13 -->
<g id="edge13" class="edge">
<title>Node10&#45;&gt;Node13</title>
<path fill="none" stroke="midnightblue" d="M820.89,-68.82C816.03,-68.2 811.18,-67.58 806.5,-67 674.78,-50.61 638,-55.83 504.28,-31.19"/>
<polygon fill="midnightblue" stroke="midnightblue" points="504.53,-27.68 494.06,-29.28 503.25,-34.56 504.53,-27.68"/>
</g>
<!-- Node14 -->
<g id="node14" class="node">
<title>Node14</title>
<g id="a_node14"><a xlink:title=" ">
<polygon fill="none" stroke="#bfbfbf" points="701.5,-0.5 701.5,-30.5 805.5,-30.5 805.5,-0.5 701.5,-0.5"/>
<text text-anchor="start" x="709.5" y="-18.5" font-family="Helvetica,sans-Serif" font-size="10.00">boost/archive/binary</text>
<text text-anchor="middle" x="753.5" y="-7.5" font-family="Helvetica,sans-Serif" font-size="10.00">_iarchive.hpp</text>
</a>
</g>
</g>
<!-- Node10&#45;&gt;Node14 -->
<g id="edge14" class="edge">
<title>Node10&#45;&gt;Node14</title>
<path fill="none" stroke="midnightblue" d="M858.02,-67.48C840.73,-59.04 813.69,-45.86 791.45,-35.01"/>
<polygon fill="midnightblue" stroke="midnightblue" points="792.78,-31.76 782.25,-30.52 789.71,-38.05 792.78,-31.76"/>
</g>
<!-- Node15 -->
<g id="node15" class="node">
<title>Node15</title>
<g id="a_node15"><a xlink:title=" ">
<polygon fill="none" stroke="#bfbfbf" points="823.5,-0.5 823.5,-30.5 927.5,-30.5 927.5,-0.5 823.5,-0.5"/>
<text text-anchor="start" x="831.5" y="-18.5" font-family="Helvetica,sans-Serif" font-size="10.00">boost/archive/binary</text>
<text text-anchor="middle" x="875.5" y="-7.5" font-family="Helvetica,sans-Serif" font-size="10.00">_oarchive.hpp</text>
</a>
</g>
</g>
<!-- Node10&#45;&gt;Node15 -->
<g id="edge15" class="edge">
<title>Node10&#45;&gt;Node15</title>
<path fill="none" stroke="midnightblue" d="M875.5,-67.48C875.5,-60.47 875.5,-50.19 875.5,-40.7"/>
<polygon fill="midnightblue" stroke="midnightblue" points="879,-40.52 875.5,-30.52 872,-40.52 879,-40.52"/>
</g>
<!-- Node16 -->
<g id="node16" class="node">
<title>Node16</title>
<g id="a_node16"><a xlink:title=" ">
<polygon fill="none" stroke="#bfbfbf" points="946,-6 946,-25 1003,-25 1003,-6 946,-6"/>
<text text-anchor="middle" x="974.5" y="-13" font-family="Helvetica,sans-Serif" font-size="10.00">Color.hpp</text>
</a>
</g>
</g>
<!-- Node10&#45;&gt;Node16 -->
<g id="edge16" class="edge">
<title>Node10&#45;&gt;Node16</title>
<path fill="none" stroke="midnightblue" d="M889.68,-67.48C905.86,-57.75 932.53,-41.73 951.64,-30.24"/>
<polygon fill="midnightblue" stroke="midnightblue" points="953.57,-33.16 960.34,-25.01 949.97,-27.16 953.57,-33.16"/>
</g>
<!-- Node17 -->
<g id="node17" class="node">
<title>Node17</title>
<g id="a_node17"><a xlink:title=" ">
<polygon fill="none" stroke="#bfbfbf" points="512,-6 512,-25 591,-25 591,-6 512,-6"/>
<text text-anchor="middle" x="551.5" y="-13" font-family="Helvetica,sans-Serif" font-size="10.00">Transform.hpp</text>
</a>
</g>
</g>
<!-- Node10&#45;&gt;Node17 -->
<g id="edge17" class="edge">
<title>Node10&#45;&gt;Node17</title>
<path fill="none" stroke="midnightblue" d="M820.97,-67.91C753.18,-57.7 641.41,-40.36 600.5,-31 596.37,-30.05 592.07,-28.96 587.81,-27.79"/>
<polygon fill="midnightblue" stroke="midnightblue" points="588.62,-24.39 578.04,-25.01 586.7,-31.12 588.62,-24.39"/>
</g>
<!-- Node18 -->
<g id="node18" class="node">
<title>Node18</title>
<g id="a_node18"><a xlink:title=" ">
<polygon fill="none" stroke="#bfbfbf" points="609.5,-6 609.5,-25 683.5,-25 683.5,-6 609.5,-6"/>
<text text-anchor="middle" x="646.5" y="-13" font-family="Helvetica,sans-Serif" font-size="10.00">UIObject.hpp</text>
</a>
</g>
</g>
<!-- Node10&#45;&gt;Node18 -->
<g id="edge18" class="edge">
<title>Node10&#45;&gt;Node18</title>
<path fill="none" stroke="midnightblue" d="M837.81,-67.48C800.69,-58.91 742.43,-44.99 692.5,-31 689.17,-30.07 685.73,-29.06 682.28,-28.02"/>
<polygon fill="midnightblue" stroke="midnightblue" points="683.27,-24.67 672.68,-25.07 681.21,-31.36 683.27,-24.67"/>
</g>
<!-- Node19&#45;&gt;Node9 -->
<g id="edge23" class="edge">
<title>Node19&#45;&gt;Node9</title>
<path fill="none" stroke="midnightblue" d="M724.19,-123.08C722.33,-115.93 719.66,-105.64 717.35,-96.69"/>
<polygon fill="midnightblue" stroke="midnightblue" points="720.67,-95.55 714.77,-86.75 713.89,-97.31 720.67,-95.55"/>
</g>
</g>
</svg>
