<?xml version="1.0" encoding="UTF-8" standalone="no"?>
<!DOCTYPE svg PUBLIC "-//W3C//DTD SVG 1.1//EN"
 "http://www.w3.org/Graphics/SVG/1.1/DTD/svg11.dtd">
<!-- Generated by graphviz version 2.44.0 ()
 -->
<!-- Title: src/TileConfig.hpp Pages: 1 -->
<svg width="1475pt" height="207pt"
 viewBox="0.00 0.00 1474.50 207.00" xmlns="http://www.w3.org/2000/svg" xmlns:xlink="http://www.w3.org/1999/xlink">
<g id="graph0" class="graph" transform="scale(1 1) rotate(0) translate(4 203)">
<title>src/TileConfig.hpp</title>
<!-- Node1 -->
<g id="node1" class="node">
<title>Node1</title>
<g id="a_node1"><a xlink:title=" ">
<polygon fill="#bfbfbf" stroke="black" points="638.5,-179.5 638.5,-198.5 732.5,-198.5 732.5,-179.5 638.5,-179.5"/>
<text text-anchor="middle" x="685.5" y="-186.5" font-family="Helvetica,sans-Serif" font-size="10.00">src/TileConfig.hpp</text>
</a>
</g>
</g>
<!-- Node2 -->
<g id="node2" class="node">
<title>Node2</title>
<g id="a_node2"><a xlink:title=" ">
<polygon fill="none" stroke="#bfbfbf" points="300,-123.5 300,-142.5 359,-142.5 359,-123.5 300,-123.5"/>
<text text-anchor="middle" x="329.5" y="-130.5" font-family="Helvetica,sans-Serif" font-size="10.00">functional</text>
</a>
</g>
</g>
<!-- Node1&#45;&gt;Node2 -->
<g id="edge1" class="edge">
<title>Node1&#45;&gt;Node2</title>
<path fill="none" stroke="midnightblue" d="M638.4,-182.71C578.14,-175.64 470.34,-161.97 369.38,-143.22"/>
<polygon fill="midnightblue" stroke="midnightblue" points="369.79,-139.74 359.32,-141.34 368.5,-146.62 369.79,-139.74"/>
</g>
<!-- Node3 -->
<g id="node3" class="node">
<title>Node3</title>
<g id="a_node3"><a xlink:title=" ">
<polygon fill="none" stroke="#bfbfbf" points="377,-123.5 377,-142.5 412,-142.5 412,-123.5 377,-123.5"/>
<text text-anchor="middle" x="394.5" y="-130.5" font-family="Helvetica,sans-Serif" font-size="10.00">map</text>
</a>
</g>
</g>
<!-- Node1&#45;&gt;Node3 -->
<g id="edge2" class="edge">
<title>Node1&#45;&gt;Node3</title>
<path fill="none" stroke="midnightblue" d="M638.42,-181.3C586.3,-173.54 499.94,-159.66 426.5,-143 425.02,-142.66 423.51,-142.3 421.99,-141.93"/>
<polygon fill="midnightblue" stroke="midnightblue" points="422.59,-138.46 412.02,-139.28 420.79,-145.23 422.59,-138.46"/>
</g>
<!-- Node4 -->
<g id="node4" class="node">
<title>Node4</title>
<g id="a_node4"><a xlink:title=" ">
<polygon fill="none" stroke="#bfbfbf" points="0,-6 0,-25 51,-25 51,-6 0,-6"/>
<text text-anchor="middle" x="25.5" y="-13" font-family="Helvetica,sans-Serif" font-size="10.00">memory</text>
</a>
</g>
</g>
<!-- Node1&#45;&gt;Node4 -->
<g id="edge3" class="edge">
<title>Node1&#45;&gt;Node4</title>
<path fill="none" stroke="midnightblue" d="M651.06,-179.5C524.3,-148.18 89.51,-40.6 60.5,-31 58.58,-30.36 56.62,-29.67 54.65,-28.95"/>
<polygon fill="midnightblue" stroke="midnightblue" points="55.52,-25.53 44.93,-25.14 52.97,-32.05 55.52,-25.53"/>
</g>
<!-- Node5 -->
<g id="node5" class="node">
<title>Node5</title>
<g id="a_node5"><a xlink:title=" ">
<polygon fill="none" stroke="#bfbfbf" points="992.5,-123.5 992.5,-142.5 1144.5,-142.5 1144.5,-123.5 992.5,-123.5"/>
<text text-anchor="middle" x="1068.5" y="-130.5" font-family="Helvetica,sans-Serif" font-size="10.00">Builder/GameObjectBuilder.hpp</text>
</a>
</g>
</g>
<!-- Node1&#45;&gt;Node5 -->
<g id="edge4" class="edge">
<title>Node1&#45;&gt;Node5</title>
<path fill="none" stroke="midnightblue" d="M732.85,-181.32C799.31,-171.95 920.77,-154.83 997.91,-143.95"/>
<polygon fill="midnightblue" stroke="midnightblue" points="998.61,-147.39 1008.03,-142.53 997.64,-140.46 998.61,-147.39"/>
</g>
<!-- Node6 -->
<g id="node6" class="node">
<title>Node6</title>
<g id="a_node6"><a xlink:title=" ">
<polygon fill="none" stroke="#bfbfbf" points="1163,-123.5 1163,-142.5 1288,-142.5 1288,-123.5 1163,-123.5"/>
<text text-anchor="middle" x="1225.5" y="-130.5" font-family="Helvetica,sans-Serif" font-size="10.00">Builder/SceneBuilder.hpp</text>
</a>
</g>
</g>
<!-- Node1&#45;&gt;Node6 -->
<g id="edge5" class="edge">
<title>Node1&#45;&gt;Node6</title>
<path fill="none" stroke="midnightblue" d="M732.71,-183.91C815.45,-176.64 992.31,-160.67 1152.64,-143.07"/>
<polygon fill="midnightblue" stroke="midnightblue" points="1153.13,-146.53 1162.68,-141.96 1152.36,-139.58 1153.13,-146.53"/>
</g>
<!-- Node7 -->
<g id="node7" class="node">
<title>Node7</title>
<g id="a_node7"><a xlink:title=" ">
<polygon fill="none" stroke="#bfbfbf" points="1306.5,-123.5 1306.5,-142.5 1466.5,-142.5 1466.5,-123.5 1306.5,-123.5"/>
<text text-anchor="middle" x="1386.5" y="-130.5" font-family="Helvetica,sans-Serif" font-size="10.00">Director/GameObjectDirector.hpp</text>
</a>
</g>
</g>
<!-- Node1&#45;&gt;Node7 -->
<g id="edge6" class="edge">
<title>Node1&#45;&gt;Node7</title>
<path fill="none" stroke="midnightblue" d="M732.76,-184.97C833.99,-178.38 1079.51,-161.88 1296.47,-143.07"/>
<polygon fill="midnightblue" stroke="midnightblue" points="1296.8,-146.55 1306.46,-142.2 1296.19,-139.58 1296.8,-146.55"/>
</g>
<!-- Node8 -->
<g id="node8" class="node">
<title>Node8</title>
<g id="a_node8"><a xlink:href="CoinBehaviour_8hpp.html" target="_top" xlink:title=" ">
<polygon fill="none" stroke="black" points="546,-123.5 546,-142.5 677,-142.5 677,-123.5 546,-123.5"/>
<text text-anchor="middle" x="611.5" y="-130.5" font-family="Helvetica,sans-Serif" font-size="10.00">Scripts/CoinBehaviour.hpp</text>
</a>
</g>
</g>
<!-- Node1&#45;&gt;Node8 -->
<g id="edge7" class="edge">
<title>Node1&#45;&gt;Node8</title>
<path fill="none" stroke="midnightblue" d="M673.61,-179.32C662.35,-171.11 645.21,-158.6 631.79,-148.81"/>
<polygon fill="midnightblue" stroke="midnightblue" points="633.75,-145.9 623.61,-142.83 629.62,-151.56 633.75,-145.9"/>
</g>
<!-- Node10 -->
<g id="node10" class="node">
<title>Node10</title>
<g id="a_node10"><a xlink:href="CoinCounter_8hpp.html" target="_top" xlink:title=" ">
<polygon fill="none" stroke="black" points="469,-67.5 469,-86.5 578,-86.5 578,-67.5 469,-67.5"/>
<text text-anchor="middle" x="523.5" y="-74.5" font-family="Helvetica,sans-Serif" font-size="10.00">../UI/CoinCounter.hpp</text>
</a>
</g>
</g>
<!-- Node1&#45;&gt;Node10 -->
<g id="edge26" class="edge">
<title>Node1&#45;&gt;Node10</title>
<path fill="none" stroke="midnightblue" d="M638.17,-186.03C605.02,-182.07 562.21,-171.3 536.5,-143 525.27,-130.63 522.59,-111.39 522.38,-97.04"/>
<polygon fill="midnightblue" stroke="midnightblue" points="525.89,-96.89 522.63,-86.81 518.89,-96.73 525.89,-96.89"/>
</g>
<!-- Node19 -->
<g id="node19" class="node">
<title>Node19</title>
<g id="a_node19"><a xlink:href="FlagBehaviour_8hpp.html" target="_top" xlink:title=" ">
<polygon fill="none" stroke="black" points="695,-123.5 695,-142.5 826,-142.5 826,-123.5 695,-123.5"/>
<text text-anchor="middle" x="760.5" y="-130.5" font-family="Helvetica,sans-Serif" font-size="10.00">Scripts/FlagBehaviour.hpp</text>
</a>
</g>
</g>
<!-- Node1&#45;&gt;Node19 -->
<g id="edge22" class="edge">
<title>Node1&#45;&gt;Node19</title>
<path fill="none" stroke="midnightblue" d="M697.55,-179.32C708.96,-171.11 726.33,-158.6 739.93,-148.81"/>
<polygon fill="midnightblue" stroke="midnightblue" points="742.16,-151.52 748.23,-142.83 738.07,-145.84 742.16,-151.52"/>
</g>
<!-- Node20 -->
<g id="node20" class="node">
<title>Node20</title>
<g id="a_node20"><a xlink:href="StarBehaviour_8hpp.html" target="_top" xlink:title=" ">
<polygon fill="none" stroke="black" points="844.5,-123.5 844.5,-142.5 974.5,-142.5 974.5,-123.5 844.5,-123.5"/>
<text text-anchor="middle" x="909.5" y="-130.5" font-family="Helvetica,sans-Serif" font-size="10.00">Scripts/StarBehaviour.hpp</text>
</a>
</g>
</g>
<!-- Node1&#45;&gt;Node20 -->
<g id="edge24" class="edge">
<title>Node1&#45;&gt;Node20</title>
<path fill="none" stroke="midnightblue" d="M720.99,-179.44C759.82,-170.08 822.16,-155.06 864.42,-144.87"/>
<polygon fill="midnightblue" stroke="midnightblue" points="865.27,-148.26 874.17,-142.52 863.63,-141.46 865.27,-148.26"/>
</g>
<!-- Node9 -->
<g id="node9" class="node">
<title>Node9</title>
<g id="a_node9"><a xlink:title=" ">
<polygon fill="none" stroke="#bfbfbf" points="715.5,-67.5 715.5,-86.5 819.5,-86.5 819.5,-67.5 715.5,-67.5"/>
<text text-anchor="middle" x="767.5" y="-74.5" font-family="Helvetica,sans-Serif" font-size="10.00">BehaviourScript.hpp</text>
</a>
</g>
</g>
<!-- Node8&#45;&gt;Node9 -->
<g id="edge8" class="edge">
<title>Node8&#45;&gt;Node9</title>
<path fill="none" stroke="midnightblue" d="M636.22,-123.44C662.35,-114.4 703.76,-100.06 733.08,-89.92"/>
<polygon fill="midnightblue" stroke="midnightblue" points="734.59,-93.1 742.9,-86.52 732.3,-86.48 734.59,-93.1"/>
</g>
<!-- Node8&#45;&gt;Node10 -->
<g id="edge9" class="edge">
<title>Node8&#45;&gt;Node10</title>
<path fill="none" stroke="midnightblue" d="M597.36,-123.32C583.63,-114.9 562.56,-101.97 546.44,-92.07"/>
<polygon fill="midnightblue" stroke="midnightblue" points="547.96,-88.9 537.6,-86.65 544.3,-94.87 547.96,-88.9"/>
</g>
<!-- Node11 -->
<g id="node11" class="node">
<title>Node11</title>
<g id="a_node11"><a xlink:title=" ">
<polygon fill="none" stroke="#bfbfbf" points="579,-0.5 579,-30.5 674,-30.5 674,-0.5 579,-0.5"/>
<text text-anchor="start" x="587" y="-18.5" font-family="Helvetica,sans-Serif" font-size="10.00">boost/serialization</text>
<text text-anchor="middle" x="626.5" y="-7.5" font-family="Helvetica,sans-Serif" font-size="10.00">/access.hpp</text>
</a>
</g>
</g>
<!-- Node8&#45;&gt;Node11 -->
<g id="edge19" class="edge">
<title>Node8&#45;&gt;Node11</title>
<path fill="none" stroke="midnightblue" d="M612.63,-123.32C614.88,-105.97 620.01,-66.46 623.36,-40.66"/>
<polygon fill="midnightblue" stroke="midnightblue" points="626.86,-40.91 624.68,-30.55 619.92,-40.01 626.86,-40.91"/>
</g>
<!-- Node12 -->
<g id="node12" class="node">
<title>Node12</title>
<g id="a_node12"><a xlink:title=" ">
<polygon fill="none" stroke="#bfbfbf" points="692,-0.5 692,-30.5 787,-30.5 787,-0.5 692,-0.5"/>
<text text-anchor="start" x="700" y="-18.5" font-family="Helvetica,sans-Serif" font-size="10.00">boost/serialization</text>
<text text-anchor="middle" x="739.5" y="-7.5" font-family="Helvetica,sans-Serif" font-size="10.00">/export.hpp</text>
</a>
</g>
</g>
<!-- Node8&#45;&gt;Node12 -->
<g id="edge20" class="edge">
<title>Node8&#45;&gt;Node12</title>
<path fill="none" stroke="midnightblue" d="M619.12,-123.17C630.44,-110.26 652.6,-85.74 673.5,-67 685.34,-56.38 699.22,-45.54 711.19,-36.64"/>
<polygon fill="midnightblue" stroke="midnightblue" points="713.52,-39.27 719.51,-30.54 709.38,-33.63 713.52,-39.27"/>
</g>
<!-- Node13 -->
<g id="node13" class="node">
<title>Node13</title>
<g id="a_node13"><a xlink:title=" ">
<polygon fill="none" stroke="#bfbfbf" points="805,-0.5 805,-30.5 900,-30.5 900,-0.5 805,-0.5"/>
<text text-anchor="start" x="813" y="-18.5" font-family="Helvetica,sans-Serif" font-size="10.00">boost/serialization</text>
<text text-anchor="middle" x="852.5" y="-7.5" font-family="Helvetica,sans-Serif" font-size="10.00">/shared_ptr.hpp</text>
</a>
</g>
</g>
<!-- Node8&#45;&gt;Node13 -->
<g id="edge21" class="edge">
<title>Node8&#45;&gt;Node13</title>
<path fill="none" stroke="midnightblue" d="M623.13,-123.46C644.5,-107.88 689.37,-75.63 706.5,-67 734.55,-52.87 767.5,-41.1 794.98,-32.49"/>
<polygon fill="midnightblue" stroke="midnightblue" points="796.31,-35.74 804.84,-29.46 794.26,-29.05 796.31,-35.74"/>
</g>
<!-- Node10&#45;&gt;Node4 -->
<g id="edge10" class="edge">
<title>Node10&#45;&gt;Node4</title>
<path fill="none" stroke="midnightblue" d="M468.91,-68.68C464.04,-68.09 459.18,-67.52 454.5,-67 279.73,-47.62 231.22,-73.13 60.5,-31 57.99,-30.38 55.42,-29.61 52.87,-28.74"/>
<polygon fill="midnightblue" stroke="midnightblue" points="53.91,-25.39 43.31,-25.09 51.41,-31.93 53.91,-25.39"/>
</g>
<!-- Node10&#45;&gt;Node11 -->
<g id="edge11" class="edge">
<title>Node10&#45;&gt;Node11</title>
<path fill="none" stroke="midnightblue" d="M538.26,-67.48C552.6,-59.19 574.87,-46.32 593.45,-35.59"/>
<polygon fill="midnightblue" stroke="midnightblue" points="595.32,-38.56 602.22,-30.52 591.82,-32.49 595.32,-38.56"/>
</g>
<!-- Node10&#45;&gt;Node12 -->
<g id="edge12" class="edge">
<title>Node10&#45;&gt;Node12</title>
<path fill="none" stroke="midnightblue" d="M554.45,-67.48C587.64,-58.33 641.09,-43.61 682.04,-32.33"/>
<polygon fill="midnightblue" stroke="midnightblue" points="683.18,-35.65 691.89,-29.62 681.32,-28.9 683.18,-35.65"/>
</g>
<!-- Node10&#45;&gt;Node13 -->
<g id="edge13" class="edge">
<title>Node10&#45;&gt;Node13</title>
<path fill="none" stroke="midnightblue" d="M578.16,-68.47C631.3,-60.81 714.49,-47.95 795.1,-31.2"/>
<polygon fill="midnightblue" stroke="midnightblue" points="795.84,-34.62 804.91,-29.13 794.4,-27.77 795.84,-34.62"/>
</g>
<!-- Node14 -->
<g id="node14" class="node">
<title>Node14</title>
<g id="a_node14"><a xlink:title=" ">
<polygon fill="none" stroke="#bfbfbf" points="69.5,-0.5 69.5,-30.5 173.5,-30.5 173.5,-0.5 69.5,-0.5"/>
<text text-anchor="start" x="77.5" y="-18.5" font-family="Helvetica,sans-Serif" font-size="10.00">boost/archive/binary</text>
<text text-anchor="middle" x="121.5" y="-7.5" font-family="Helvetica,sans-Serif" font-size="10.00">_iarchive.hpp</text>
</a>
</g>
</g>
<!-- Node10&#45;&gt;Node14 -->
<g id="edge14" class="edge">
<title>Node10&#45;&gt;Node14</title>
<path fill="none" stroke="midnightblue" d="M468.95,-68.87C384.2,-57.79 226.8,-37.18 183.73,-30.85"/>
<polygon fill="midnightblue" stroke="midnightblue" points="184.09,-27.37 173.67,-29.27 183,-34.28 184.09,-27.37"/>
</g>
<!-- Node15 -->
<g id="node15" class="node">
<title>Node15</title>
<g id="a_node15"><a xlink:title=" ">
<polygon fill="none" stroke="#bfbfbf" points="191.5,-0.5 191.5,-30.5 295.5,-30.5 295.5,-0.5 191.5,-0.5"/>
<text text-anchor="start" x="199.5" y="-18.5" font-family="Helvetica,sans-Serif" font-size="10.00">boost/archive/binary</text>
<text text-anchor="middle" x="243.5" y="-7.5" font-family="Helvetica,sans-Serif" font-size="10.00">_oarchive.hpp</text>
</a>
</g>
</g>
<!-- Node10&#45;&gt;Node15 -->
<g id="edge15" class="edge">
<title>Node10&#45;&gt;Node15</title>
<path fill="none" stroke="midnightblue" d="M479.79,-67.43C437.6,-59.06 371.68,-45.75 305.48,-31.18"/>
<polygon fill="midnightblue" stroke="midnightblue" points="306.24,-27.77 295.72,-29.02 304.73,-34.6 306.24,-27.77"/>
</g>
<!-- Node16 -->
<g id="node16" class="node">
<title>Node16</title>
<g id="a_node16"><a xlink:title=" ">
<polygon fill="none" stroke="#bfbfbf" points="314,-6 314,-25 371,-25 371,-6 314,-6"/>
<text text-anchor="middle" x="342.5" y="-13" font-family="Helvetica,sans-Serif" font-size="10.00">Color.hpp</text>
</a>
</g>
</g>
<!-- Node10&#45;&gt;Node16 -->
<g id="edge16" class="edge">
<title>Node10&#45;&gt;Node16</title>
<path fill="none" stroke="midnightblue" d="M494.07,-67.47C464.82,-58.83 418.79,-44.82 379.5,-31 377.38,-30.26 375.21,-29.47 373.03,-28.66"/>
<polygon fill="midnightblue" stroke="midnightblue" points="374.13,-25.33 363.54,-25.04 371.63,-31.87 374.13,-25.33"/>
</g>
<!-- Node17 -->
<g id="node17" class="node">
<title>Node17</title>
<g id="a_node17"><a xlink:title=" ">
<polygon fill="none" stroke="#bfbfbf" points="389,-6 389,-25 468,-25 468,-6 389,-6"/>
<text text-anchor="middle" x="428.5" y="-13" font-family="Helvetica,sans-Serif" font-size="10.00">Transform.hpp</text>
</a>
</g>
</g>
<!-- Node10&#45;&gt;Node17 -->
<g id="edge17" class="edge">
<title>Node10&#45;&gt;Node17</title>
<path fill="none" stroke="midnightblue" d="M509.89,-67.48C494.44,-57.8 469.01,-41.87 450.68,-30.39"/>
<polygon fill="midnightblue" stroke="midnightblue" points="452.42,-27.35 442.09,-25.01 448.7,-33.28 452.42,-27.35"/>
</g>
<!-- Node18 -->
<g id="node18" class="node">
<title>Node18</title>
<g id="a_node18"><a xlink:title=" ">
<polygon fill="none" stroke="#bfbfbf" points="486.5,-6 486.5,-25 560.5,-25 560.5,-6 486.5,-6"/>
<text text-anchor="middle" x="523.5" y="-13" font-family="Helvetica,sans-Serif" font-size="10.00">UIObject.hpp</text>
</a>
</g>
</g>
<!-- Node10&#45;&gt;Node18 -->
<g id="edge18" class="edge">
<title>Node10&#45;&gt;Node18</title>
<path fill="none" stroke="midnightblue" d="M523.5,-67.48C523.5,-59.08 523.5,-45.98 523.5,-35.16"/>
<polygon fill="midnightblue" stroke="midnightblue" points="527,-35.01 523.5,-25.01 520,-35.01 527,-35.01"/>
</g>
<!-- Node19&#45;&gt;Node9 -->
<g id="edge23" class="edge">
<title>Node19&#45;&gt;Node9</title>
<path fill="none" stroke="midnightblue" d="M761.66,-123.08C762.58,-115.93 763.92,-105.64 765.08,-96.69"/>
<polygon fill="midnightblue" stroke="midnightblue" points="768.55,-97.12 766.37,-86.75 761.61,-96.22 768.55,-97.12"/>
</g>
<!-- Node20&#45;&gt;Node9 -->
<g id="edge25" class="edge">
<title>Node20&#45;&gt;Node9</title>
<path fill="none" stroke="midnightblue" d="M887,-123.44C863.42,-114.48 826.18,-100.31 799.54,-90.18"/>
<polygon fill="midnightblue" stroke="midnightblue" points="800.49,-86.8 789.9,-86.52 798,-93.34 800.49,-86.8"/>
</g>
</g>
</svg>
