<svg xmlns="http://www.w3.org/2000/svg" xmlns:xlink="http://www.w3.org/1999/xlink" id="main" onload="init(evt)" version="1.1" xml:space="preserve"><style type="text/css">.edge:hover path{stroke:red}.edge:hover polygon{stroke:red;fill:red}</style><script type="text/javascript"><![CDATA[
var edges = document.getElementsByTagName('g');
if (edges && edges.length) {
  for (var i=0;i<edges.length;i++) {
    if (edges[i].id.substr(0,4)=='edge') {
      edges[i].setAttribute('class','edge');
    }
  }
}
]]></script><defs><circle id="rim" cx="0" cy="0" r="7"/><circle id="rim2" cx="0" cy="0" r="3.5"/><g id="zoomPlus"><use fill="#404040" xlink:href="#rim"><set attributeName="fill" begin="zoomplus.mouseover" end="zoomplus.mouseout" to="#808080"/></use><path fill="none" stroke="#fff" stroke-width="1.5" d="M-4,0h8M0,-4v8" pointer-events="none"/></g><g id="zoomMin"><use fill="#404040" xlink:href="#rim"><set attributeName="fill" begin="zoomminus.mouseover" end="zoomminus.mouseout" to="#808080"/></use><path fill="none" stroke="#fff" stroke-width="1.5" d="M-4,0h8" pointer-events="none"/></g><g id="dirArrow"><path fill="none" stroke="#fff" stroke-width="1.5" d="M0,-3.0v7 M-2.5,-0.5L0,-3.0L2.5,-0.5"/></g><g id="resetDef"><use fill="#404040" xlink:href="#rim2"><set attributeName="fill" begin="reset.mouseover" end="reset.mouseout" to="#808080"/></use></g></defs><script type="text/javascript">var viewWidth = 1472; var viewHeight = 207; var sectionId = &apos;dynsection-0&apos;;</script><script xlink:href="svgpan.js"/><svg id="graph" class="graph"><g id="viewport"><title>src/TileConfig.hpp</title><g id="node1" class="node"><title>Node1</title><g id="a_node1"><a><polygon fill="#bfbfbf" stroke="#000" points="638.5 -179.5 638.5 -198.5 732.5 -198.5 732.5 -179.5 638.5 -179.5"/><text x="685.5" y="-186.5" font-family="Helvetica,sans-Serif" font-size="10" text-anchor="middle">src/TileConfig.hpp</text></a></g></g><g id="node2" class="node"><title>Node2</title><g id="a_node2"><a><polygon fill="none" stroke="#bfbfbf" points="300 -123.5 300 -142.5 359 -142.5 359 -123.5 300 -123.5"/><text x="329.5" y="-130.5" font-family="Helvetica,sans-Serif" font-size="10" text-anchor="middle">functional</text></a></g></g><g id="edge1" class="edge"><title>Node1-&gt;Node2</title><path fill="none" stroke="#191970" d="M638.4,-182.71C578.14,-175.64 470.34,-161.97 369.38,-143.22"/><polygon fill="#191970" stroke="#191970" points="369.79 -139.74 359.32 -141.34 368.5 -146.62 369.79 -139.74"/></g><g id="node3" class="node"><title>Node3</title><g id="a_node3"><a><polygon fill="none" stroke="#bfbfbf" points="377 -123.5 377 -142.5 412 -142.5 412 -123.5 377 -123.5"/><text x="394.5" y="-130.5" font-family="Helvetica,sans-Serif" font-size="10" text-anchor="middle">map</text></a></g></g><g id="edge2" class="edge"><title>Node1-&gt;Node3</title><path fill="none" stroke="#191970" d="M638.42,-181.3C586.3,-173.54 499.94,-159.66 426.5,-143 425.02,-142.66 423.51,-142.3 421.99,-141.93"/><polygon fill="#191970" stroke="#191970" points="422.59 -138.46 412.02 -139.28 420.79 -145.23 422.59 -138.46"/></g><g id="node4" class="node"><title>Node4</title><g id="a_node4"><a><polygon fill="none" stroke="#bfbfbf" points="0 -6 0 -25 51 -25 51 -6 0 -6"/><text x="25.5" y="-13" font-family="Helvetica,sans-Serif" font-size="10" text-anchor="middle">memory</text></a></g></g><g id="edge3" class="edge"><title>Node1-&gt;Node4</title><path fill="none" stroke="#191970" d="M651.06,-179.5C524.3,-148.18 89.51,-40.6 60.5,-31 58.58,-30.36 56.62,-29.67 54.65,-28.95"/><polygon fill="#191970" stroke="#191970" points="55.52 -25.53 44.93 -25.14 52.97 -32.05 55.52 -25.53"/></g><g id="node5" class="node"><title>Node5</title><g id="a_node5"><a><polygon fill="none" stroke="#bfbfbf" points="992.5 -123.5 992.5 -142.5 1144.5 -142.5 1144.5 -123.5 992.5 -123.5"/><text x="1068.5" y="-130.5" font-family="Helvetica,sans-Serif" font-size="10" text-anchor="middle">Builder/GameObjectBuilder.hpp</text></a></g></g><g id="edge4" class="edge"><title>Node1-&gt;Node5</title><path fill="none" stroke="#191970" d="M732.85,-181.32C799.31,-171.95 920.77,-154.83 997.91,-143.95"/><polygon fill="#191970" stroke="#191970" points="998.61 -147.39 1008.03 -142.53 997.64 -140.46 998.61 -147.39"/></g><g id="node6" class="node"><title>Node6</title><g id="a_node6"><a><polygon fill="none" stroke="#bfbfbf" points="1163 -123.5 1163 -142.5 1288 -142.5 1288 -123.5 1163 -123.5"/><text x="1225.5" y="-130.5" font-family="Helvetica,sans-Serif" font-size="10" text-anchor="middle">Builder/SceneBuilder.hpp</text></a></g></g><g id="edge5" class="edge"><title>Node1-&gt;Node6</title><path fill="none" stroke="#191970" d="M732.71,-183.91C815.45,-176.64 992.31,-160.67 1152.64,-143.07"/><polygon fill="#191970" stroke="#191970" points="1153.13 -146.53 1162.68 -141.96 1152.36 -139.58 1153.13 -146.53"/></g><g id="node7" class="node"><title>Node7</title><g id="a_node7"><a><polygon fill="none" stroke="#bfbfbf" points="1305.5 -123.5 1305.5 -142.5 1463.5 -142.5 1463.5 -123.5 1305.5 -123.5"/><text x="1384.5" y="-130.5" font-family="Helvetica,sans-Serif" font-size="10" text-anchor="middle">Director/GameObjectFactory.hpp</text></a></g></g><g id="edge6" class="edge"><title>Node1-&gt;Node7</title><path fill="none" stroke="#191970" d="M732.76,-185C833.95,-178.49 1079.29,-162.13 1295.07,-143.2"/><polygon fill="#191970" stroke="#191970" points="1295.67 -146.66 1305.32 -142.29 1295.05 -139.68 1295.67 -146.66"/></g><g id="node8" class="node"><title>Node8</title><g id="a_node8"><a target="_top" xlink:href="CoinBehaviour_8hpp.html"><polygon fill="none" stroke="#000" points="546 -123.5 546 -142.5 677 -142.5 677 -123.5 546 -123.5"/><text x="611.5" y="-130.5" font-family="Helvetica,sans-Serif" font-size="10" text-anchor="middle">Scripts/CoinBehaviour.hpp</text></a></g></g><g id="edge7" class="edge"><title>Node1-&gt;Node8</title><path fill="none" stroke="#191970" d="M673.61,-179.32C662.35,-171.11 645.21,-158.6 631.79,-148.81"/><polygon fill="#191970" stroke="#191970" points="633.75 -145.9 623.61 -142.83 629.62 -151.56 633.75 -145.9"/></g><g id="node10" class="node"><title>Node10</title><g id="a_node10"><a target="_top" xlink:href="CoinCounter_8hpp.html"><polygon fill="none" stroke="#000" points="469 -67.5 469 -86.5 578 -86.5 578 -67.5 469 -67.5"/><text x="523.5" y="-74.5" font-family="Helvetica,sans-Serif" font-size="10" text-anchor="middle">../UI/CoinCounter.hpp</text></a></g></g><g id="edge26" class="edge"><title>Node1-&gt;Node10</title><path fill="none" stroke="#191970" d="M638.17,-186.03C605.02,-182.07 562.21,-171.3 536.5,-143 525.27,-130.63 522.59,-111.39 522.38,-97.04"/><polygon fill="#191970" stroke="#191970" points="525.89 -96.89 522.63 -86.81 518.89 -96.73 525.89 -96.89"/></g><g id="node19" class="node"><title>Node19</title><g id="a_node19"><a target="_top" xlink:href="FlagBehaviour_8hpp.html"><polygon fill="none" stroke="#000" points="695 -123.5 695 -142.5 826 -142.5 826 -123.5 695 -123.5"/><text x="760.5" y="-130.5" font-family="Helvetica,sans-Serif" font-size="10" text-anchor="middle">Scripts/FlagBehaviour.hpp</text></a></g></g><g id="edge22" class="edge"><title>Node1-&gt;Node19</title><path fill="none" stroke="#191970" d="M697.55,-179.32C708.96,-171.11 726.33,-158.6 739.93,-148.81"/><polygon fill="#191970" stroke="#191970" points="742.16 -151.52 748.23 -142.83 738.07 -145.84 742.16 -151.52"/></g><g id="node20" class="node"><title>Node20</title><g id="a_node20"><a target="_top" xlink:href="StarBehaviour_8hpp.html"><polygon fill="none" stroke="#000" points="844.5 -123.5 844.5 -142.5 974.5 -142.5 974.5 -123.5 844.5 -123.5"/><text x="909.5" y="-130.5" font-family="Helvetica,sans-Serif" font-size="10" text-anchor="middle">Scripts/StarBehaviour.hpp</text></a></g></g><g id="edge24" class="edge"><title>Node1-&gt;Node20</title><path fill="none" stroke="#191970" d="M720.99,-179.44C759.82,-170.08 822.16,-155.06 864.42,-144.87"/><polygon fill="#191970" stroke="#191970" points="865.27 -148.26 874.17 -142.52 863.63 -141.46 865.27 -148.26"/></g><g id="node9" class="node"><title>Node9</title><g id="a_node9"><a><polygon fill="none" stroke="#bfbfbf" points="715.5 -67.5 715.5 -86.5 819.5 -86.5 819.5 -67.5 715.5 -67.5"/><text x="767.5" y="-74.5" font-family="Helvetica,sans-Serif" font-size="10" text-anchor="middle">BehaviourScript.hpp</text></a></g></g><g id="edge8" class="edge"><title>Node8-&gt;Node9</title><path fill="none" stroke="#191970" d="M636.22,-123.44C662.35,-114.4 703.76,-100.06 733.08,-89.92"/><polygon fill="#191970" stroke="#191970" points="734.59 -93.1 742.9 -86.52 732.3 -86.48 734.59 -93.1"/></g><g id="edge9" class="edge"><title>Node8-&gt;Node10</title><path fill="none" stroke="#191970" d="M597.36,-123.32C583.63,-114.9 562.56,-101.97 546.44,-92.07"/><polygon fill="#191970" stroke="#191970" points="547.96 -88.9 537.6 -86.65 544.3 -94.87 547.96 -88.9"/></g><g id="node11" class="node"><title>Node11</title><g id="a_node11"><a><polygon fill="none" stroke="#bfbfbf" points="579 -.5 579 -30.5 674 -30.5 674 -.5 579 -.5"/><text x="587" y="-18.5" font-family="Helvetica,sans-Serif" font-size="10" text-anchor="start">boost/serialization</text><text x="626.5" y="-7.5" font-family="Helvetica,sans-Serif" font-size="10" text-anchor="middle">/access.hpp</text></a></g></g><g id="edge19" class="edge"><title>Node8-&gt;Node11</title><path fill="none" stroke="#191970" d="M612.63,-123.32C614.88,-105.97 620.01,-66.46 623.36,-40.66"/><polygon fill="#191970" stroke="#191970" points="626.86 -40.91 624.68 -30.55 619.92 -40.01 626.86 -40.91"/></g><g id="node12" class="node"><title>Node12</title><g id="a_node12"><a><polygon fill="none" stroke="#bfbfbf" points="692 -.5 692 -30.5 787 -30.5 787 -.5 692 -.5"/><text x="700" y="-18.5" font-family="Helvetica,sans-Serif" font-size="10" text-anchor="start">boost/serialization</text><text x="739.5" y="-7.5" font-family="Helvetica,sans-Serif" font-size="10" text-anchor="middle">/export.hpp</text></a></g></g><g id="edge20" class="edge"><title>Node8-&gt;Node12</title><path fill="none" stroke="#191970" d="M619.12,-123.17C630.44,-110.26 652.6,-85.74 673.5,-67 685.34,-56.38 699.22,-45.54 711.19,-36.64"/><polygon fill="#191970" stroke="#191970" points="713.52 -39.27 719.51 -30.54 709.38 -33.63 713.52 -39.27"/></g><g id="node13" class="node"><title>Node13</title><g id="a_node13"><a><polygon fill="none" stroke="#bfbfbf" points="805 -.5 805 -30.5 900 -30.5 900 -.5 805 -.5"/><text x="813" y="-18.5" font-family="Helvetica,sans-Serif" font-size="10" text-anchor="start">boost/serialization</text><text x="852.5" y="-7.5" font-family="Helvetica,sans-Serif" font-size="10" text-anchor="middle">/shared_ptr.hpp</text></a></g></g><g id="edge21" class="edge"><title>Node8-&gt;Node13</title><path fill="none" stroke="#191970" d="M623.13,-123.46C644.5,-107.88 689.37,-75.63 706.5,-67 734.55,-52.87 767.5,-41.1 794.98,-32.49"/><polygon fill="#191970" stroke="#191970" points="796.31 -35.74 804.84 -29.46 794.26 -29.05 796.31 -35.74"/></g><g id="edge10" class="edge"><title>Node10-&gt;Node4</title><path fill="none" stroke="#191970" d="M468.91,-68.68C464.04,-68.09 459.18,-67.52 454.5,-67 279.73,-47.62 231.22,-73.13 60.5,-31 57.99,-30.38 55.42,-29.61 52.87,-28.74"/><polygon fill="#191970" stroke="#191970" points="53.91 -25.39 43.31 -25.09 51.41 -31.93 53.91 -25.39"/></g><g id="edge11" class="edge"><title>Node10-&gt;Node11</title><path fill="none" stroke="#191970" d="M538.26,-67.48C552.6,-59.19 574.87,-46.32 593.45,-35.59"/><polygon fill="#191970" stroke="#191970" points="595.32 -38.56 602.22 -30.52 591.82 -32.49 595.32 -38.56"/></g><g id="edge12" class="edge"><title>Node10-&gt;Node12</title><path fill="none" stroke="#191970" d="M554.45,-67.48C587.64,-58.33 641.09,-43.61 682.04,-32.33"/><polygon fill="#191970" stroke="#191970" points="683.18 -35.65 691.89 -29.62 681.32 -28.9 683.18 -35.65"/></g><g id="edge13" class="edge"><title>Node10-&gt;Node13</title><path fill="none" stroke="#191970" d="M578.16,-68.47C631.3,-60.81 714.49,-47.95 795.1,-31.2"/><polygon fill="#191970" stroke="#191970" points="795.84 -34.62 804.91 -29.13 794.4 -27.77 795.84 -34.62"/></g><g id="node14" class="node"><title>Node14</title><g id="a_node14"><a><polygon fill="none" stroke="#bfbfbf" points="69.5 -.5 69.5 -30.5 173.5 -30.5 173.5 -.5 69.5 -.5"/><text x="77.5" y="-18.5" font-family="Helvetica,sans-Serif" font-size="10" text-anchor="start">boost/archive/binary</text><text x="121.5" y="-7.5" font-family="Helvetica,sans-Serif" font-size="10" text-anchor="middle">_iarchive.hpp</text></a></g></g><g id="edge14" class="edge"><title>Node10-&gt;Node14</title><path fill="none" stroke="#191970" d="M468.95,-68.87C384.2,-57.79 226.8,-37.18 183.73,-30.85"/><polygon fill="#191970" stroke="#191970" points="184.09 -27.37 173.67 -29.27 183 -34.28 184.09 -27.37"/></g><g id="node15" class="node"><title>Node15</title><g id="a_node15"><a><polygon fill="none" stroke="#bfbfbf" points="191.5 -.5 191.5 -30.5 295.5 -30.5 295.5 -.5 191.5 -.5"/><text x="199.5" y="-18.5" font-family="Helvetica,sans-Serif" font-size="10" text-anchor="start">boost/archive/binary</text><text x="243.5" y="-7.5" font-family="Helvetica,sans-Serif" font-size="10" text-anchor="middle">_oarchive.hpp</text></a></g></g><g id="edge15" class="edge"><title>Node10-&gt;Node15</title><path fill="none" stroke="#191970" d="M479.79,-67.43C437.6,-59.06 371.68,-45.75 305.48,-31.18"/><polygon fill="#191970" stroke="#191970" points="306.24 -27.77 295.72 -29.02 304.73 -34.6 306.24 -27.77"/></g><g id="node16" class="node"><title>Node16</title><g id="a_node16"><a><polygon fill="none" stroke="#bfbfbf" points="314 -6 314 -25 371 -25 371 -6 314 -6"/><text x="342.5" y="-13" font-family="Helvetica,sans-Serif" font-size="10" text-anchor="middle">Color.hpp</text></a></g></g><g id="edge16" class="edge"><title>Node10-&gt;Node16</title><path fill="none" stroke="#191970" d="M494.07,-67.47C464.82,-58.83 418.79,-44.82 379.5,-31 377.38,-30.26 375.21,-29.47 373.03,-28.66"/><polygon fill="#191970" stroke="#191970" points="374.13 -25.33 363.54 -25.04 371.63 -31.87 374.13 -25.33"/></g><g id="node17" class="node"><title>Node17</title><g id="a_node17"><a><polygon fill="none" stroke="#bfbfbf" points="389 -6 389 -25 468 -25 468 -6 389 -6"/><text x="428.5" y="-13" font-family="Helvetica,sans-Serif" font-size="10" text-anchor="middle">Transform.hpp</text></a></g></g><g id="edge17" class="edge"><title>Node10-&gt;Node17</title><path fill="none" stroke="#191970" d="M509.89,-67.48C494.44,-57.8 469.01,-41.87 450.68,-30.39"/><polygon fill="#191970" stroke="#191970" points="452.42 -27.35 442.09 -25.01 448.7 -33.28 452.42 -27.35"/></g><g id="node18" class="node"><title>Node18</title><g id="a_node18"><a><polygon fill="none" stroke="#bfbfbf" points="486.5 -6 486.5 -25 560.5 -25 560.5 -6 486.5 -6"/><text x="523.5" y="-13" font-family="Helvetica,sans-Serif" font-size="10" text-anchor="middle">UIObject.hpp</text></a></g></g><g id="edge18" class="edge"><title>Node10-&gt;Node18</title><path fill="none" stroke="#191970" d="M523.5,-67.48C523.5,-59.08 523.5,-45.98 523.5,-35.16"/><polygon fill="#191970" stroke="#191970" points="527 -35.01 523.5 -25.01 520 -35.01 527 -35.01"/></g><g id="edge23" class="edge"><title>Node19-&gt;Node9</title><path fill="none" stroke="#191970" d="M761.66,-123.08C762.58,-115.93 763.92,-105.64 765.08,-96.69"/><polygon fill="#191970" stroke="#191970" points="768.55 -97.12 766.37 -86.75 761.61 -96.22 768.55 -97.12"/></g><g id="edge25" class="edge"><title>Node20-&gt;Node9</title><path fill="none" stroke="#191970" d="M887,-123.44C863.42,-114.48 826.18,-100.31 799.54,-90.18"/><polygon fill="#191970" stroke="#191970" points="800.49 -86.8 789.9 -86.52 798 -93.34 800.49 -86.8"/></g></g></svg><g id="navigator" fill="#404254" transform="translate(0 0)"><rect width="60" height="60" x="0" y="0" fill="#f2f5e9" fill-opacity=".5" stroke="#606060" stroke-width=".5"/><use id="zoomplus" x="17" y="9" onmousedown="handleZoom(evt,'in')" xlink:href="#zoomPlus"/><use id="zoomminus" x="42" y="9" onmousedown="handleZoom(evt,'out')" xlink:href="#zoomMin"/><use id="reset" x="30" y="36" onmousedown="handleReset()" xlink:href="#resetDef"/><g id="arrowUp" onmousedown="handlePan(0,-1)" transform="translate(30 24)" xlink:href="#dirArrow"><use fill="#404040" xlink:href="#rim"><set attributeName="fill" begin="arrowUp.mouseover" end="arrowUp.mouseout" to="#808080"/></use><path fill="none" stroke="#fff" stroke-width="1.5" d="M0,-3.0v7 M-2.5,-0.5L0,-3.0L2.5,-0.5"/></g><g id="arrowRight" onmousedown="handlePan(1,0)" transform="rotate(90) translate(36 -43)" xlink:href="#dirArrow"><use fill="#404040" xlink:href="#rim"><set attributeName="fill" begin="arrowRight.mouseover" end="arrowRight.mouseout" to="#808080"/></use><path fill="none" stroke="#fff" stroke-width="1.5" d="M0,-3.0v7 M-2.5,-0.5L0,-3.0L2.5,-0.5"/></g><g id="arrowDown" onmousedown="handlePan(0,1)" transform="rotate(180) translate(-30 -48)" xlink:href="#dirArrow"><use fill="#404040" xlink:href="#rim"><set attributeName="fill" begin="arrowDown.mouseover" end="arrowDown.mouseout" to="#808080"/></use><path fill="none" stroke="#fff" stroke-width="1.5" d="M0,-3.0v7 M-2.5,-0.5L0,-3.0L2.5,-0.5"/></g><g id="arrowLeft" onmousedown="handlePan(-1,0)" transform="rotate(270) translate(-36 17)" xlink:href="#dirArrow"><use fill="#404040" xlink:href="#rim"><set attributeName="fill" begin="arrowLeft.mouseover" end="arrowLeft.mouseout" to="#808080"/></use><path fill="none" stroke="#fff" stroke-width="1.5" d="M0,-3.0v7 M-2.5,-0.5L0,-3.0L2.5,-0.5"/></g></g><svg width="100%" height="30" preserveAspectRatio="xMaxYMin meet" viewBox="0 0 15 15"><g id="arrow_out" transform="scale(0.3 0.3)"><a target="_base" xlink:href="TileConfig_8hpp__incl_org.svg"><rect id="button" width="38" height="38" x="6" y="6" fill="#f2f5e9" fill-opacity=".5" stroke="#606060" stroke-width="1" rx="5" ry="5"/><path id="arrow" d="M 11.500037,31.436501 C 11.940474,20.09759 22.043105,11.32322 32.158766,21.979434 L 37.068811,17.246167 C 37.068811,17.246167 37.088388,32 37.088388,32 L 22.160133,31.978069 C 22.160133,31.978069 26.997745,27.140456 26.997745,27.140456 C 18.528582,18.264221 13.291696,25.230495 11.500037,31.436501 z" style="fill:#404040"/></a></g></svg></svg>