<svg xmlns="http://www.w3.org/2000/svg" xmlns:xlink="http://www.w3.org/1999/xlink" width="322pt" height="95pt" viewBox="0 0 321.5 95"><g id="graph0" class="graph" transform="scale(1 1) rotate(0) translate(4 91)"><title>src/Scripts/TimerBehaviour.hpp</title><g id="node1" class="node"><title>Node1</title><g id="a_node1"><a><polygon fill="#bfbfbf" stroke="#000" points="77.5 -67.5 77.5 -86.5 230.5 -86.5 230.5 -67.5 77.5 -67.5"/><text x="154" y="-74.5" font-family="Helvetica,sans-Serif" font-size="10" text-anchor="middle">src/Scripts/TimerBehaviour.hpp</text></a></g></g><g id="node2" class="node"><title>Node2</title><g id="a_node2"><a target="_top" xlink:href="GameOverScene_8cpp.html"><polygon fill="none" stroke="#000" points="0 -.5 0 -30.5 142 -30.5 142 -.5 0 -.5"/><text x="8" y="-18.5" font-family="Helvetica,sans-Serif" font-size="10" text-anchor="start">src/Game/Levels/GameOver</text><text x="71" y="-7.5" font-family="Helvetica,sans-Serif" font-size="10" text-anchor="middle">Scene.cpp</text></a></g></g><g id="edge1" class="edge"><title>Node1-&gt;Node2</title><path fill="none" stroke="#191970" d="M133.73,-61.47C120.59,-52.05 103.56,-39.84 90.56,-30.52"/><polygon fill="#191970" stroke="#191970" points="131.94 -64.49 142.11 -67.48 136.02 -58.8 131.94 -64.49"/></g><g id="node3" class="node"><title>Node3</title><g id="a_node3"><a target="_top" xlink:href="TimerBehaviour_8cpp.html"><polygon fill="none" stroke="#000" points="160.5 -6 160.5 -25 313.5 -25 313.5 -6 160.5 -6"/><text x="237" y="-13" font-family="Helvetica,sans-Serif" font-size="10" text-anchor="middle">src/Scripts/TimerBehaviour.cpp</text></a></g></g><g id="edge2" class="edge"><title>Node1-&gt;Node3</title><path fill="none" stroke="#191970" d="M174.07,-61.61C190.03,-50.17 211.83,-34.55 225.13,-25.01"/><polygon fill="#191970" stroke="#191970" points="171.98 -58.8 165.89 -67.48 176.06 -64.49 171.98 -58.8"/></g></g></svg>